<?xml version="1.0" encoding="UTF-8" standalone="no"?>
<svg
   xmlns:dc="http://purl.org/dc/elements/1.1/"
   xmlns:cc="http://creativecommons.org/ns#"
   xmlns:rdf="http://www.w3.org/1999/02/22-rdf-syntax-ns#"
   xmlns:svg="http://www.w3.org/2000/svg"
   xmlns="http://www.w3.org/2000/svg"
   xmlns:sodipodi="http://sodipodi.sourceforge.net/DTD/sodipodi-0.dtd"
   xmlns:inkscape="http://www.inkscape.org/namespaces/inkscape"
   id="svg2"
   height="290"
   viewBox="0 0 250 290"
   width="250"
   version="1.1"
   sodipodi:docname="NH2_TrimCoverSingleClosed_updated.svg"
   inkscape:version="0.92.3 (2405546, 2018-03-11)">
  <metadata
     id="metadata9">
    <rdf:RDF>
      <cc:Work
         rdf:about="">
        <dc:format>image/svg+xml</dc:format>
        <dc:type
           rdf:resource="http://purl.org/dc/dcmitype/StillImage" />
        <dc:title></dc:title>
      </cc:Work>
    </rdf:RDF>
  </metadata>
  <defs
     id="defs7" />
  <sodipodi:namedview
     pagecolor="#ffffff"
     bordercolor="#666666"
     borderopacity="1"
     objecttolerance="10"
     gridtolerance="10"
     guidetolerance="10"
     inkscape:pageopacity="0"
     inkscape:pageshadow="2"
     inkscape:window-width="1366"
     inkscape:window-height="705"
     id="namedview5"
     showgrid="false"
     inkscape:zoom="0.8137931"
     inkscape:cx="-40.487288"
     inkscape:cy="145"
     inkscape:window-x="-8"
     inkscape:window-y="-8"
     inkscape:window-maximized="1"
     inkscape:current-layer="svg2" />
  <g
     id="layer1"
     transform="matrix(1.1061941,0,0,0.99655835,0.02492538,0.97306042)">
    <path
       id="trimCoverSingle"
       d="m 36.5,271.5 c 0,3.31 -2.686,6 -6,6 -3.314,0 -6,-2.69 -6,-6 0,-3.31 2.686,-6 6,-6 3.314,0 6,2.69 6,6 z m 0,-253 c 0,3.314 -2.686,6 -6,6 -3.314,0 -6,-2.686 -6,-6 0,-3.314 2.686,-6 6,-6 3.314,0 6,2.686 6,6 z m 164,253 c 0,3.31 -2.69,6 -6,6 -3.31,0 -6,-2.69 -6,-6 0,-3.31 2.69,-6 6,-6 3.31,0 6,2.69 6,6 z m 0,-253 c 0,3.314 -2.69,6 -6,6 -3.31,0 -6,-2.686 -6,-6 0,-3.314 2.69,-6 6,-6 3.31,0 6,2.686 6,6 z M 0,0 H 225 V 290 H 0 Z"
       inkscape:connector-curvature="0"
       style="fill:#dcdcdc;stroke:#000000;stroke-linejoin:bevel" />
  </g>
</svg>
