<?xml version="1.0" encoding="UTF-8" standalone="no"?>
<svg
   xmlns:dc="http://purl.org/dc/elements/1.1/"
   xmlns:cc="http://creativecommons.org/ns#"
   xmlns:rdf="http://www.w3.org/1999/02/22-rdf-syntax-ns#"
   xmlns:svg="http://www.w3.org/2000/svg"
   xmlns="http://www.w3.org/2000/svg"
   xmlns:sodipodi="http://sodipodi.sourceforge.net/DTD/sodipodi-0.dtd"
   xmlns:inkscape="http://www.inkscape.org/namespaces/inkscape"
   id="svg2"
   height="1000"
   overflow="visible"
   viewBox="0 0 699.99999 1000"
   width="700"
   version="1.1"
   inkscape:version="0.91 r13725"
   sodipodi:docname="RBBS_openTopBottomPanel_W700.svg"
   style="overflow:visible">
  <metadata
     id="metadata25">
    <rdf:RDF>
      <cc:Work
         rdf:about="">
        <dc:format>image/svg+xml</dc:format>
        <dc:type
           rdf:resource="http://purl.org/dc/dcmitype/StillImage" />
        <dc:title></dc:title>
      </cc:Work>
    </rdf:RDF>
  </metadata>
  <defs
     id="defs23" />
  <sodipodi:namedview
     pagecolor="#ffffff"
     bordercolor="#666666"
     borderopacity="1"
     objecttolerance="10"
     gridtolerance="10"
     guidetolerance="10"
     inkscape:pageopacity="0"
     inkscape:pageshadow="2"
     inkscape:window-width="1920"
     inkscape:window-height="1017"
     id="namedview21"
     showgrid="false"
     fit-margin-top="0"
     fit-margin-left="0"
     fit-margin-right="0"
     fit-margin-bottom="0"
     inkscape:zoom="0.20004688"
     inkscape:cx="115.87633"
     inkscape:cy="354.44478"
     inkscape:window-x="-8"
     inkscape:window-y="-8"
     inkscape:window-maximized="1"
     inkscape:current-layer="g3353" />
  <g
     id="g3373"
     transform="translate(0.5,0.5)">
    <g
       id="g3353">
      <g
         id="layer1"
         style="stroke-linecap:round">
        <rect
           id="blindPanel"
           height="999"
           width="699"
           x="0"
           y="0"
           style="fill:#c5c7c4;fill-rule:evenodd;stroke:#000000;stroke-linejoin:round" />
        <g
           id="screwLT"
           style="fill-rule:evenodd;stroke:#000000;stroke-linejoin:round">
          <circle
             id="path4176-6"
             cx="28.499975"
             cy="28.500002"
             r="6.5"
             style="fill:#ebebeb;stroke-width:0.80000001" />
          <path
             id="path4192-7"
             d="m 30.517976,32.151001 -1.96,-1.936 -2.009,2.008 -1.766,-1.758 2.002,-1.993 -2.008,-1.977 1.739,-1.718 1.962,1.972 1.974,-1.944 1.715,1.741 -1.905,1.929 1.961,1.958 z"
             inkscape:connector-curvature="0"
             style="fill:#c0c0c0;stroke-width:0.5" />
        </g>
        <g
           id="screwRT"
           style="fill-rule:evenodd;stroke:#000000;stroke-linejoin:round"
           transform="translate(-100,0)">
          <circle
             id="circle4169"
             cx="770.5"
             cy="28.500002"
             r="6.5"
             style="fill:#ebebeb;stroke-width:0.80000001" />
          <path
             id="path4171"
             d="m 772.49998,32.151001 -1.9,-1.936 -2.1,2.008 -1.7,-1.758 2,-1.993 -2,-1.977 1.7,-1.718 2,1.972 2,-1.944 1.7,1.741 -1.9,1.929 1.9,1.958 z"
             inkscape:connector-curvature="0"
             style="fill:#c0c0c0;stroke-width:0.5" />
        </g>
        <g
           id="screwRB"
           style="fill-rule:evenodd;stroke:#000000;stroke-linejoin:round"
           transform="translate(-100,0)">
          <circle
             id="circle4177"
             cx="770.5"
             cy="970.5"
             r="6.5"
             style="fill:#ebebeb;stroke-width:0.80000001" />
          <path
             id="path4179"
             d="m 772.49998,974.15 -1.9,-1.93 -2.1,2 -1.7,-1.75 2,-2 -2,-1.97 1.7,-1.72 2,1.97 2,-1.94 1.7,1.74 -1.9,1.93 1.9,1.95 z"
             inkscape:connector-curvature="0"
             style="fill:#c0c0c0;stroke-width:0.5" />
        </g>
        <g
           id="screwLB"
           style="fill-rule:evenodd;stroke:#000000;stroke-linejoin:round">
          <circle
             id="circle4187"
             cx="28.499975"
             cy="970.5"
             r="6.5"
             style="fill:#ebebeb;stroke-width:0.80000001" />
          <path
             id="path4189"
             d="m 30.517976,974.15 -1.96,-1.93 -2.009,2 -1.766,-1.75 2.002,-2 -2.008,-1.97 1.739,-1.72 1.962,1.97 1.974,-1.94 1.715,1.74 -1.905,1.93 1.961,1.95 z"
             inkscape:connector-curvature="0"
             style="fill:#c0c0c0;stroke-width:0.5" />
        </g>
        <rect
           id="CutOut"
           height="180.02699"
           width="340.02701"
           x="178.9865"
           y="109.73651"
           style="fill:#ffffff;stroke:#000000;stroke-width:0.4730069" />
      </g>
    </g>
  </g>
  <path
     inkscape:connector-curvature="0"
     id="grid3"
     d="m 381.49968,520 0,-185.9401 m 24,185.9401 0,-185.9401 m 0,185.9401 0,-185.9401 m 24,185.9401 0,-185.9401 m 24,185.9401 0,-185.9401 m 24,185.9401 0,-185.9401 m 24,185.9401 0,-185.9401 m 24,185.9401 0,-185.9401 m 24,185.9401 0,-185.9401 M 152.5,519.9943 l 0,-185.94 m 24,185.94 0,-185.94 m 0,185.94 0,-185.94 m 24,185.94 0,-185.94 m 24,185.94 0,-185.94 m 24,185.94 0,-185.94 m 23.99998,185.94 0,-185.94 m 24,185.94 0,-185.94 m 24,185.94 0,-185.94"
     style="fill:#ffffff;fill-rule:evenodd;stroke:#ffffff;stroke-width:5;stroke-dasharray:30, 10" />
  <path
     inkscape:connector-curvature="0"
     id="grid2"
     d="m 381.49968,720 0,-185.9401 m 24,185.9401 0,-185.9401 m 0,185.9401 0,-185.9401 m 24,185.9401 0,-185.9401 m 24,185.9401 0,-185.9401 m 24,185.9401 0,-185.9401 m 24,185.9401 0,-185.9401 m 24,185.9401 0,-185.9401 m 24,185.9401 0,-185.9401 M 152.5,719.9943 l 0,-185.94 m 24,185.94 0,-185.94 m 0,185.94 0,-185.94 m 24,185.94 0,-185.94 m 24,185.94 0,-185.94 m 24,185.94 0,-185.94 m 23.99998,185.94 0,-185.94 m 24,185.94 0,-185.94 m 24,185.94 0,-185.94"
     style="overflow:visible;fill:#ffffff;fill-rule:evenodd;stroke:#ffffff;stroke-width:5;stroke-dasharray:30, 10" />
  <path
     inkscape:connector-curvature="0"
     id="grid1"
     d="m 381.49968,920 0,-185.94006 m 24,185.94006 0,-185.94006 m 0,185.94006 0,-185.94006 m 24,185.94006 0,-185.94006 m 24,185.94006 0,-185.94006 m 24,185.94006 0,-185.94006 m 24,185.94006 0,-185.94006 m 24,185.94006 0,-185.94006 m 24,185.94006 0,-185.94006 M 152.5,919.9943 l 0,-185.93996 m 24,185.93996 0,-185.93996 m 0,185.93996 0,-185.93996 m 24,185.93996 0,-185.93996 m 24,185.93996 0,-185.93996 m 24,185.93996 0,-185.93996 m 23.99998,185.93996 0,-185.93996 m 24,185.93996 0,-185.93996 m 24,185.93996 0,-185.93996"
     style="overflow:visible;fill:#ffffff;fill-rule:evenodd;stroke:#ffffff;stroke-width:5;stroke-dasharray:30, 10" />
</svg>
