<?xml version="1.0" encoding="UTF-8" standalone="no"?>
<svg
   xmlns:dc="http://purl.org/dc/elements/1.1/"
   xmlns:cc="http://creativecommons.org/ns#"
   xmlns:rdf="http://www.w3.org/1999/02/22-rdf-syntax-ns#"
   xmlns:svg="http://www.w3.org/2000/svg"
   xmlns="http://www.w3.org/2000/svg"
   xmlns:sodipodi="http://sodipodi.sourceforge.net/DTD/sodipodi-0.dtd"
   xmlns:inkscape="http://www.inkscape.org/namespaces/inkscape"
   id="svg2"
   height="1342.5"
   overflow="visible"
   viewBox="0 0 994.80001 1342.4999"
   width="994.79999"
   version="1.1"
   inkscape:version="0.91 r13725"
   sodipodi:docname="RBBS_Kit_inLine_CH_extended.svg">
  <metadata
     id="metadata54">
    <rdf:RDF>
      <cc:Work
         rdf:about="">
        <dc:format>image/svg+xml</dc:format>
        <dc:type
           rdf:resource="http://purl.org/dc/dcmitype/StillImage" />
        <dc:title></dc:title>
      </cc:Work>
    </rdf:RDF>
  </metadata>
  <defs
     id="defs52" />
  <sodipodi:namedview
     pagecolor="#ffffff"
     bordercolor="#666666"
     borderopacity="1"
     objecttolerance="10"
     gridtolerance="10"
     guidetolerance="10"
     inkscape:pageopacity="0"
     inkscape:pageshadow="2"
     inkscape:window-width="1858"
     inkscape:window-height="1057"
     id="namedview50"
     showgrid="false"
     inkscape:zoom="0.5"
     inkscape:cx="594.20257"
     inkscape:cy="755.70872"
     inkscape:window-x="-8"
     inkscape:window-y="-8"
     inkscape:window-maximized="1"
     inkscape:current-layer="svg2" />
  <g
     id="layer1">
    <rect
       id="C3"
       fill="#c6782e"
       fill-rule="evenodd"
       height="557.5"
       stroke="#000"
       stroke-linecap="square"
       stroke-width=".80000073"
       width="100"
       x="572"
       y="370" />
    <rect
       id="C2"
       fill="#c6782e"
       fill-rule="evenodd"
       height="557.5"
       stroke="#000"
       stroke-linecap="square"
       stroke-width=".79999942"
       width="100"
       x="447"
       y="185" />
    <rect
       id="C1"
       fill="#c6782e"
       fill-rule="evenodd"
       height="557.5"
       stroke="#000"
       stroke-linecap="square"
       stroke-width=".80000001"
       width="100"
       x="322"
       y=".00011" />
    <rect
       id="L1"
       fill="#c6782e"
       fill-rule="evenodd"
       height="100"
       stroke="#000"
       stroke-linecap="square"
       stroke-width=".80000001"
       width="900"
       x="47"
       y="507.75" />
    <rect
       id="L2"
       fill="#c6782e"
       fill-rule="evenodd"
       height="100"
       stroke="#000"
       stroke-linecap="square"
       stroke-width=".80000001"
       width="900"
       x="47"
       y="692.75" />
    <rect
       id="L3"
       fill="#c6782e"
       fill-rule="evenodd"
       height="100"
       stroke="#000"
       stroke-linecap="square"
       stroke-width=".80000001"
       width="900"
       x="47"
       y="877.75" />
    <g
       id="traverse1"
       fill="#e0e0e0"
       stroke="#808080"
       stroke-linecap="round"
       stroke-width=".80000001">
      <rect
         id="rect4294"
         height="50"
         width="900"
         x="47"
         y="1291.7" />
      <rect
         id="rect4296"
         height="30"
         width="900"
         x="47"
         y="1301.7" />
    </g>
    <g
       id="traverse2"
       fill="#e0e0e0"
       stroke="#808080"
       stroke-linecap="round"
       stroke-width=".80000001">
      <rect
         id="rect4182"
         height="50"
         width="900"
         x="47"
         y="143.69997" />
      <rect
         id="rect4184"
         height="30"
         width="900"
         x="47"
         y="153.69997" />
    </g>
    <path
       id="panel1000"
       d="m 0,143.69996 0,1197.99994 994,0 0,-1197.99994 z m 45.5,272.00002 903,0 0,654.00002 -903,0 z"
       style="fill:#c5c7c4;fill-opacity:0.8;stroke:#808080;stroke-width:0.80000001;stroke-linecap:round;stroke-linejoin:round"
       inkscape:connector-curvature="0" />
    <path
       id="panel1000CH"
       d="m 0,143.69996 0,1197.99994 994,0 0,-1197.99994 z m 70.5,272.00002 853,0 0,654.00002 -853,0 z"
       style="fill:#c5c7c4;fill-opacity:0.8;stroke:#808080;stroke-width:0.80000001;stroke-linecap:round;stroke-linejoin:round"
       inkscape:connector-curvature="0" />
    <path
       id="panel800"
       d="m 0,143.69996 0,1197.99994 794,0 0,-1197.99994 z m 45.5,272.00002 703,0 0,654.00002 -703,0 z"
       style="fill:#c5c7c4;fill-opacity:0.8;stroke:#808080;stroke-width:0.80000001;stroke-linecap:round;stroke-linejoin:round"
       inkscape:connector-curvature="0" />
    <path
       id="panel800CH"
       d="m 0,143.69996 0,1197.99994 794,0 0,-1197.99994 z m 70.5,272.00002 653,0 0,654.00002 -653,0 z"
       style="fill:#c5c7c4;fill-opacity:0.8;stroke:#808080;stroke-width:0.80000001;stroke-linecap:round;stroke-linejoin:round"
       inkscape:connector-curvature="0" />
    <path
       id="panel600"
       d="m 0,143.69996 0,1197.99994 594,0 0,-1197.99994 z m 45.5,272.00002 503,0 0,654.00002 -503,0 z"
       style="fill:#c5c7c4;fill-opacity:0.8;stroke:#808080;stroke-width:0.80000001;stroke-linecap:round;stroke-linejoin:round"
       inkscape:connector-curvature="0" />
    <path
       id="panel600CH"
       d="m 0,143.69996 0,1197.99994 594,0 0,-1197.99994 z m 70.5,272.00002 453,0 0,654.00002 -453,0 z"
       style="fill:#c5c7c4;fill-opacity:0.8;stroke:#808080;stroke-width:0.80000001;stroke-linecap:round;stroke-linejoin:round"
       inkscape:connector-curvature="0" />
    <g
       id="lock1">
      <path
         id="rect4149"
         d="m9.6500001 228.49992h13.9999999c1.939 0 3.5 1.561 3.5 3.5v71c0 1.939-1.561 3.5-3.5 3.5h-13.9999999c-1.939 0-3.5-1.561-3.5-3.5v-71c0-1.939 1.561-3.5 3.5-3.5zm0-1.5h13.9999999c2.77 0 5 2.23 5 5v71c0 2.77-2.23 5-5 5h-13.9999999c-2.77 0-5-2.23-5-5v-71c0-2.77 2.23-5 5-5z"
         fill="#575d5e"
         stroke="#4d4d4d"
         stroke-linecap="round"
         stroke-linejoin="round"
         stroke-width=".5" />
      <rect
         id="rect4160"
         fill="none"
         height="11.2"
         stroke="#4d4d4d"
         stroke-linecap="round"
         stroke-linejoin="round"
         stroke-width=".5"
         width="24"
         x="4.6500001"
         y="279.89993" />
      <path
         id="path4145"
         d="m25.25 285.49994a8.6000004 8.6000004 0 0 1 -8.6 8.6 8.6000004 8.6000004 0 0 1 -8.6000008-8.6 8.6000004 8.6000004 0 0 1  8.6000008-8.6 8.6000004 8.6000004 0 0 1  8.6 8.6zm3.15 0a11.75 11.75 0 0 1 -11.75 11.75 11.75 11.75 0 0 1 -11.7500004-11.75 11.75 11.75 0 0 1  11.7500004-11.75 11.75 11.75 0 0 1  11.75 11.75z"
         fill="#333"
         stroke="#4d4d4d"
         stroke-linecap="round"
         stroke-linejoin="round"
         stroke-width=".5" />
      <path
         id="path4147"
         d="m16.65 290.4372l-4.25-2.46863v-4.93727l4.25-2.46864 4.25 2.46864v4.93727z"
         stroke="#4d4d4d"
         stroke-linecap="round"
         stroke-linejoin="round"
         stroke-width=".49999997" />
      <path
         id="path5180"
         d="m9.549423 232.74994l-.964113 3.6015h1.991678v-3.6015zm1.174565 0v3.6015h1.991678l-.96397-3.6015zm4.116001 0v3.6015h2.131501v-3.6015zm2.278501 0v3.6015h2.231271a2.2050006 2.2050006 0 0 0 -.762993-.50632 1.6537505 1.6537505 0 0 0  .847116-1.44143 1.6537505 1.6537505 0 0 0 -1.65375-1.65375 1.6537505 1.6537505 0 0 0 -.000147 0h-.6615zm3.454501 0v3.6015h2.1315v-3.6015zm2.2785 0v3.6015h2.231271a2.2050006 2.2050006 0 0 0 -.762993-.50632 1.6537505 1.6537505 0 0 0  .847117-1.44143 1.6537505 1.6537505 0 0 0 -1.653751-1.65375 1.6537505 1.6537505 0 0 0 -.000147 0h-.6615zm-14.3055153 3.7485l-.9641137 3.6015h1.8375005l.3896074-1.47h.7680181v-2.1315zm2.1780123 0v2.1315h.768161l.389464 1.47h1.837501l-.96397-3.6015zm4.116001 0v3.6015h2.131501v-3.6015zm2.278501 0v3.6015h.6615a2.2050006 2.2050006 0 0 0  .000147 0 2.2050006 2.2050006 0 0 0  2.205-2.205 2.2050006 2.2050006 0 0 0 -.502298-1.3965h-2.364346zm3.454501 0v3.6015h2.1315v-3.6015zm2.2785 0v3.6015h.6615a2.2050006 2.2050006 0 0 0  .000147 0 2.2050006 2.2050006 0 0 0  2.205001-2.205 2.2050006 2.2050006 0 0 0 -.502298-1.3965h-2.364347z"
         fill="#333" />
    </g>
    <g
       id="lock2">
      <path
         id="rect4176"
         d="m9.6500001 1178.75h13.9999999c1.939 0 3.5 1.561 3.5 3.5v71c0 1.939-1.561 3.5-3.5 3.5h-13.9999999c-1.939 0-3.5-1.561-3.5-3.5v-71c0-1.939 1.561-3.5 3.5-3.5zm0-1.5h13.9999999c2.77 0 5 2.23 5 5v71c0 2.77-2.23 5-5 5h-13.9999999c-2.77 0-5-2.23-5-5v-71c0-2.77 2.23-5 5-5z"
         fill="#575d5e"
         stroke="#4d4d4d"
         stroke-linecap="round"
         stroke-linejoin="round"
         stroke-width=".5" />
      <rect
         id="rect4178"
         fill="none"
         height="11.2"
         stroke="#4d4d4d"
         stroke-linecap="round"
         stroke-linejoin="round"
         stroke-width=".5"
         width="24"
         x="4.6500001"
         y="1230.15" />
      <path
         id="circle4182"
         d="m25.25 1235.75a8.6000004 8.6000004 0 0 1 -8.6 8.6 8.6000004 8.6000004 0 0 1 -8.6000008-8.6 8.6000004 8.6000004 0 0 1  8.6000008-8.6 8.6000004 8.6000004 0 0 1  8.6 8.6zm3.15 0a11.75 11.75 0 0 1 -11.75 11.75 11.75 11.75 0 0 1 -11.7500004-11.75 11.75 11.75 0 0 1  11.7500004-11.75 11.75 11.75 0 0 1  11.75 11.75z"
         fill="#333"
         stroke="#4d4d4d"
         stroke-linecap="round"
         stroke-linejoin="round"
         stroke-width=".5" />
      <path
         id="path4184"
         d="m16.65 1240.6872l-4.25-2.4686v-4.9373l4.25-2.4686 4.25 2.4686v4.9373z"
         stroke="#4d4d4d"
         stroke-linecap="round"
         stroke-linejoin="round"
         stroke-width=".49999997" />
      <path
         id="path4188"
         d="m9.549423 1183l-.964113 3.6015h1.991678v-3.6015zm1.174565 0v3.6015h1.991678l-.96397-3.6015zm4.116001 0v3.6015h2.131501v-3.6015zm2.278501 0v3.6015h2.231271a2.2050006 2.2050006 0 0 0 -.762993-.5063 1.6537505 1.6537505 0 0 0  .847116-1.4415 1.6537505 1.6537505 0 0 0 -1.65375-1.6537 1.6537505 1.6537505 0 0 0 -.000147 0h-.6615zm3.454501 0v3.6015h2.1315v-3.6015zm2.2785 0v3.6015h2.231271a2.2050006 2.2050006 0 0 0 -.762993-.5063 1.6537505 1.6537505 0 0 0  .847117-1.4415 1.6537505 1.6537505 0 0 0 -1.653751-1.6537 1.6537505 1.6537505 0 0 0 -.000147 0h-.6615zm-14.3055153 3.7485l-.9641137 3.6015h1.8375005l.3896074-1.47h.7680181v-2.1315zm2.1780123 0v2.1315h.768161l.389464 1.47h1.837501l-.96397-3.6015zm4.116001 0v3.6015h2.131501v-3.6015zm2.278501 0v3.6015h.6615a2.2050006 2.2050006 0 0 0  .000147 0 2.2050006 2.2050006 0 0 0  2.205-2.205 2.2050006 2.2050006 0 0 0 -.502298-1.3965h-2.364346zm3.454501 0v3.6015h2.1315v-3.6015zm2.2785 0v3.6015h.6615a2.2050006 2.2050006 0 0 0  .000147 0 2.2050006 2.2050006 0 0 0  2.205001-2.205 2.2050006 2.2050006 0 0 0 -.502298-1.3965h-2.364347z"
         fill="#333" />
    </g>
    <g
       id="lock3">
      <path
         id="rect4166"
         d="m9.6500001 703.7h13.9999999c1.939 0 3.5 1.561 3.5 3.5v71c0 1.939-1.561 3.5-3.5 3.5h-13.9999999c-1.939 0-3.5-1.561-3.5-3.5v-71c0-1.939 1.561-3.5 3.5-3.5zm0-1.5h13.9999999c2.77 0 5 2.23 5 5v71c0 2.77-2.23 5-5 5h-13.9999999c-2.77 0-5-2.23-5-5v-71c0-2.77 2.23-5 5-5z"
         fill="#575d5e"
         stroke="#4d4d4d"
         stroke-linecap="round"
         stroke-linejoin="round"
         stroke-width=".5" />
      <rect
         id="rect4168"
         fill="none"
         height="11.2"
         stroke="#4d4d4d"
         stroke-linecap="round"
         stroke-linejoin="round"
         stroke-width=".5"
         width="24"
         x="4.6500001"
         y="755.10004" />
      <path
         id="circle4172"
         d="m25.25 760.7a8.6000004 8.6000004 0 0 1 -8.6 8.6 8.6000004 8.6000004 0 0 1 -8.6000008-8.6 8.6000004 8.6000004 0 0 1  8.6000008-8.6 8.6000004 8.6000004 0 0 1  8.6 8.6zm3.15 0a11.75 11.75 0 0 1 -11.75 11.75 11.75 11.75 0 0 1 -11.7500004-11.75 11.75 11.75 0 0 1  11.7500004-11.75 11.75 11.75 0 0 1  11.75 11.75z"
         fill="#333"
         stroke="#4d4d4d"
         stroke-linecap="round"
         stroke-linejoin="round"
         stroke-width=".5" />
      <path
         id="path4174"
         d="m16.65 765.63723l-4.25-2.46863v-4.93727l4.25-2.46864 4.25 2.46864v4.93727z"
         stroke="#4d4d4d"
         stroke-linecap="round"
         stroke-linejoin="round"
         stroke-width=".49999997" />
      <path
         id="path4176"
         d="m9.549423 707.94996l-.964113 3.60151h1.991678v-3.60151zm1.174565 0v3.60151h1.991678l-.96397-3.60151zm4.116001 0v3.60151h2.131501v-3.60151zm2.278501 0v3.60151h2.231271a2.2050006 2.2050006 0 0 0 -.762993-.50632 1.6537505 1.6537505 0 0 0  .847116-1.44143 1.6537505 1.6537505 0 0 0 -1.65375-1.65376 1.6537505 1.6537505 0 0 0 -.000147 0h-.6615zm3.454501 0v3.60151h2.1315v-3.60151zm2.2785 0v3.60151h2.231271a2.2050006 2.2050006 0 0 0 -.762993-.50632 1.6537505 1.6537505 0 0 0  .847117-1.44143 1.6537505 1.6537505 0 0 0 -1.653751-1.65376 1.6537505 1.6537505 0 0 0 -.000147 0h-.6615zm-14.3055153 3.74851l-.9641137 3.6015h1.8375005l.3896074-1.47h.7680181v-2.1315zm2.1780123 0v2.1315h.768161l.389464 1.47h1.837501l-.96397-3.6015zm4.116001 0v3.6015h2.131501v-3.6015zm2.278501 0v3.6015h.6615a2.2050006 2.2050006 0 0 0  .000147 0 2.2050006 2.2050006 0 0 0  2.205-2.205 2.2050006 2.2050006 0 0 0 -.502298-1.3965h-2.364346zm3.454501 0v3.6015h2.1315v-3.6015zm2.2785 0v3.6015h.6615a2.2050006 2.2050006 0 0 0  .000147 0 2.2050006 2.2050006 0 0 0  2.205001-2.205 2.2050006 2.2050006 0 0 0 -.502298-1.3965h-2.364347z"
         fill="#333" />
    </g>
    <g
       id="cover1"
       fill="#575d5e"
       stroke="#4d4d4d"
       stroke-linecap="round"
       stroke-linejoin="round"
       stroke-width=".5"
       transform="translate(0 76.50011)">
      <path
         id="rect4214"
         d="m970.34998 151.99982h14c1.939 0 3.5 1.561 3.5 3.5v71c0 1.939-1.561 3.5-3.5 3.5h-14c-1.939 0-3.5-1.561-3.5-3.5v-71c0-1.939 1.561-3.5 3.5-3.5zm0-1.5h14c2.77 0 5 2.23 5 5v71c0 2.77-2.23 5-5 5h-14c-2.77 0-5-2.23-5-5v-71c0-2.77 2.23-5 5-5z" />
    </g>
    <g
       id="cover2"
       fill="#575d5e"
       stroke="#4d4d4d"
       stroke-linecap="round"
       stroke-linejoin="round"
       stroke-width=".5">
      <path
         id="rect4208"
         d="m970.34998 1178.75h14c1.939 0 3.5 1.561 3.5 3.5v71c0 1.939-1.561 3.5-3.5 3.5h-14c-1.939 0-3.5-1.561-3.5-3.5v-71c0-1.939 1.561-3.5 3.5-3.5zm0-1.5h14c2.77 0 5 2.23 5 5v71c0 2.77-2.23 5-5 5h-14c-2.77 0-5-2.23-5-5v-71c0-2.77 2.23-5 5-5z" />
    </g>
    <g
       id="cover3"
       fill="#575d5e"
       stroke="#4d4d4d"
       stroke-linecap="round"
       stroke-linejoin="round"
       stroke-width=".5">
      <path
         id="rect4202"
         d="m970.34998 703.7h14c1.939 0 3.5 1.561 3.5 3.5v71c0 1.939-1.561 3.5-3.5 3.5h-14c-1.939 0-3.5-1.561-3.5-3.5v-71c0-1.939 1.561-3.5 3.5-3.5zm0-1.5h14c2.77 0 5 2.23 5 5v71c0 2.77-2.23 5-5 5h-14c-2.77 0-5-2.23-5-5v-71c0-2.77 2.23-5 5-5z" />
    </g>
    <text
       id="textBottom"
       line-height="125%"
       style="font-size:20;font-family:sans-serif;letter-spacing:0;word-spacing:0;text-anchor:middle;overflow:visible"
       x="497.20996"
       xml:space="preserve"
       y="1321.8461"><tspan
         id="tspan4155-8"
         x="497.20996"
         y="1321.8461">Text</tspan></text>
    <text
       id="textTop"
       line-height="125%"
       style="font-size:20;font-family:sans-serif;letter-spacing:0;word-spacing:0;text-anchor:middle;overflow:visible"
       x="497.20996"
       xml:space="preserve"
       y="177.84102"><tspan
         id="tspan4653"
         x="497.20996"
         y="177.84102">Text</tspan></text>
  </g>
  <path
     style="fill:#c5c7c4;fill-opacity:0.8;stroke:#808080;stroke-width:0.80000001;stroke-linecap:round;stroke-linejoin:round"
     d="M 0 141.5 L 0 1341.5 L 594 1341.5 L 594 141.5 L 0 141.5 z M 100 415.46094 L 494 415.46094 L 494 1069.4609 L 100 1069.4609 L 100 415.46094 z "
     transform="translate(0,-6.1035156e-5)"
     id="panel600CH_Extended" />
  <path
     style="fill:#c5c7c4;fill-opacity:0.8;stroke:#808080;stroke-width:0.80000001;stroke-linecap:round;stroke-linejoin:round"
     d="m 0,141.5 0,1200 794,0 0,-1200 -794,0 z m 100,273.96094 594,0 0,653.99996 -594,0 0,-653.99996 z"
     transform="translate(0,-6.1035156e-5)"
     id="panel800CH_Extended"
     inkscape:connector-curvature="0" />
  <path
     style="fill:#c5c7c4;fill-opacity:0.8;stroke:#808080;stroke-width:0.80000001;stroke-linecap:round;stroke-linejoin:round"
     d="m 0,141.5 0,1200 994,0 0,-1200 -994,0 z m 100,273.96094 794,0 0,653.99996 -794,0 0,-653.99996 z"
     transform="translate(0,-6.1035156e-5)"
     id="panel1000CH_Extended"
     inkscape:connector-curvature="0" />
</svg>
