<?xml version="1.0" encoding="UTF-8" standalone="no"?>
<svg
   xmlns:dc="http://purl.org/dc/elements/1.1/"
   xmlns:cc="http://creativecommons.org/ns#"
   xmlns:rdf="http://www.w3.org/1999/02/22-rdf-syntax-ns#"
   xmlns:svg="http://www.w3.org/2000/svg"
   xmlns="http://www.w3.org/2000/svg"
   xmlns:sodipodi="http://sodipodi.sourceforge.net/DTD/sodipodi-0.dtd"
   xmlns:inkscape="http://www.inkscape.org/namespaces/inkscape"
   id="svg2"
   height="2113.8"
   overflow="visible"
   viewBox="0 0 699.79999 2113.8"
   width="699.79999"
   version="1.1"
   inkscape:version="0.91 r13725"
   sodipodi:docname="RBBS_CH_xLineHorizontal.svg">
  <metadata
     id="metadata28">
    <rdf:RDF>
      <cc:Work
         rdf:about="">
        <dc:format>image/svg+xml</dc:format>
        <dc:type
           rdf:resource="http://purl.org/dc/dcmitype/StillImage" />
      </cc:Work>
    </rdf:RDF>
  </metadata>
  <defs
     id="defs26" />
  <sodipodi:namedview
     pagecolor="#ffffff"
     bordercolor="#666666"
     borderopacity="1"
     objecttolerance="10"
     gridtolerance="10"
     guidetolerance="10"
     inkscape:pageopacity="0"
     inkscape:pageshadow="2"
     inkscape:window-width="1920"
     inkscape:window-height="1017"
     id="namedview24"
     showgrid="false"
     inkscape:zoom="0.11164727"
     inkscape:cx="349.89999"
     inkscape:cy="1056.9"
     inkscape:window-x="-8"
     inkscape:window-y="-8"
     inkscape:window-maximized="1"
     inkscape:current-layer="svg2" />
  <g
     id="layer1"
     stroke="#000"
     stroke-linecap="round"
     stroke-width=".80000001">
    <g
       id="CBBS_top"
       fill="#c6782e"
       stroke="#000"
       stroke-linecap="round"
       stroke-width="1">
      <rect
         id="C3t"
         height="120"
         width="80"
         x="150"
         y="269" />
      <rect
         id="C2t"
         height="120"
         width="80"
         x="285"
         y="472" />
      <rect
         id="C1t"
         height="120"
         width="80"
         x="469.39999"
         y="675" />
      <rect
         id="C4t"
         height="120"
         width="80"
         x="377"
         y="878" />
    </g>
    <g
       id="CBBS_bottom"
       fill="#c6782e"
       stroke="#000"
       stroke-linecap="round"
       stroke-width="1">
      <rect
         id="C4b"
         height="120"
         width="80"
         x="377"
         y="1115.15" />
      <rect
         id="C1b"
         height="120"
         width="80"
         x="470"
         y="1318.15" />
      <rect
         id="C2b"
         height="120"
         width="80"
         x="285"
         y="1521.15" />
      <rect
         id="C3b"
         height="120"
         width="80"
         x="150"
         y="1724.15" />
    </g>
    <g
       id="DBBS"
       fill="#c6782e"
       stroke="#000"
       stroke-linecap="round"
       stroke-width=".80000001"
       transform="translate(-280)">
      <rect
         id="D1"
         height="2000"
         width="10"
         x="529.5"
         y="56.5" />
      <rect
         id="D2"
         height="2000"
         width="10"
         x="479.5"
         y="56.5" />
      <rect
         id="D3"
         height="2000"
         width="10"
         x="429.5"
         y="56.5" />
      <rect
         id="D4"
         height="2000"
         width="10"
         x="379.5"
         y="56.5" />
    </g>
    <path
       id="sideBar"
       d="m299.7 56.50044v2000.00006h50v-2000.00006z"
       fill="#e0e0e0"
       fill-opacity=".8" />
    <path
       id="frame"
       d="m649.4571.00004882h49.54291v2112.90005118h-49.54291zm-649.45709999 0h49.54291099v2112.90005118h-49.54291099zm0 2056.50275118h698.90001999v56.4973h-698.90001999zm0-2056.50275118h698.90001999v56.49732618h-698.90001999z"
       fill="#c5c7c4" />
    <path
       id="segregation"
       d="m59.600002 1871.5002h49.999998v50h-49.999998zm119.999988 0h50v50h-50zm-59.99998 60h50v50h-50zm59.99998 0h50v50h-50zm-59.99998-60h50v50h-50zm-60.000008 60h49.999998v50h-49.999998zm0 60h49.999998v49.9999h-49.999998zm119.999988 0h50v49.9999h-50zm60-120h50v50h-50zm0 60h50v50h-50zm-119.99998 60h50v49.9999h-50zm119.99998 0h50v49.9999h-50zm-189.999992-135h250.000002v199.9999h-250.000002zm10.000004-185h49.999998v50h-49.999998zm119.999988 0h50v50h-50zm-59.99998 60h50v50h-50zm59.99998 0h50v50h-50zm-59.99998-60h50v50h-50zm-60.000008 60h49.999998v50h-49.999998zm0 60h49.999998v49.9999h-49.999998zm119.999988 0h50v49.9999h-50zm60-120h50v50h-50zm0 60h50v50h-50zm-119.99998 60h50v49.9999h-50zm119.99998 0h50v49.9999h-50zm-189.999992-135h250.000002v199.9999h-250.000002zm10.000004-185h49.999998v50h-49.999998zm119.999988 0h50v50h-50zm-59.99998 60h50v50h-50zm59.99998 0h50v50h-50zm-59.99998-60h50v50h-50zm-60.000008 60h49.999998v50h-49.999998zm0 60h49.999998v49.9999h-49.999998zm119.999988 0h50v49.9999h-50zm60-120h50v50h-50zm0 60h50v50h-50zm-119.99998 60h50v49.9999h-50zm119.99998 0h50v49.9999h-50zm-189.999992-135h250.000002v199.9999h-250.000002zm10.000004-185h49.999998v50h-49.999998zm119.999988 0h50v50h-50zm-59.99998 60h50v50h-50zm59.99998 0h50v50h-50zm-59.99998-60h50v50h-50zm-60.000008 60h49.999998v50h-49.999998zm0 60h49.999998v49.9999h-49.999998zm119.999988 0h50v49.9999h-50zm60-120h50v50h-50zm0 60h50v50h-50zm-119.99998 60h50v49.9999h-50zm119.99998 0h50v49.9999h-50zm-189.999992-135h250.000002v199.9999h-250.000002zm10.000004-185h49.999998v50h-49.999998zm119.999988 0h50v50h-50zm-59.99998 60h50v50h-50zm59.99998 0h50v50h-50zm-59.99998-60h50v50h-50zm-60.000008 60h49.999998v50h-49.999998zm0 60h49.999998v49.9999h-49.999998zm119.999988 0h50v49.9999h-50zm60-120h50v50h-50zm0 60h50v50h-50zm-119.99998 60h50v49.9999h-50zm119.99998 0h50v49.9999h-50zm-189.999992-135h250.000002v199.9999h-250.000002zm10.000004-185.00011h49.999998v50h-49.999998zm119.999988 0h50v50h-50zm-59.99998 60.00001h50v50h-50zm59.99998 0h50v50h-50zm-59.99998-60.00001h50v50h-50zm-60.000008 60.00001h49.999998v50h-49.999998zm0 60h49.999998v50h-49.999998zm119.999988 0h50v50h-50zm60-120.00001h50v50h-50zm0 60.00001h50v50h-50zm-119.99998 60h50v50h-50zm119.99998 0h50v50h-50zm-189.999992-135h250.000002v200h-250.000002zm10.000004-185.00001h49.999998v50h-49.999998zm119.999988 0h50v50h-50zm-59.99998 60.00001h50v50h-50zm59.99998 0h50v50h-50zm-59.99998-60.00001h50v50h-50zm-60.000008 60.00001h49.999998v50h-49.999998zm0 60h49.999998v50h-49.999998zm119.999988 0h50v50h-50zm60-120.00001h50v50h-50zm0 60.00001h50v50h-50zm-119.99998 60h50v50h-50zm119.99998 0h50v50h-50zm-189.999992-135h250.000002v200h-250.000002zm10.000004-185.00001h49.999998v50h-49.999998zm119.999988 0h50v50h-50zm-59.99998 60.00001h50v50h-50zm59.99998 0h50v50h-50zm-59.99998-60.00001h50v50h-50zm-60.000008 60.00001h49.999998v50h-49.999998zm0 60h49.999998v50h-49.999998zm119.999988 0h50v50h-50zm60-120.00001h50v50h-50zm0 60.00001h50v50h-50zm-119.99998 60h50v50h-50zm119.99998 0h50v50h-50zm-189.999992-135h250.000002v200h-250.000002zm10.000004-185.00001h49.999998v50h-49.999998zm119.999988 0h50v50h-50zm-59.99998 60.00001h50v50h-50zm59.99998 0h50v50h-50zm-59.99998-60.00001h50v50h-50zm-60.000008 60.00001h49.999998v50h-49.999998zm0 60h49.999998v50h-49.999998zm119.999988 0h50v50h-50zm60-120.00001h50v50h-50zm0 60.00001h50v50h-50zm-119.99998 60h50v50h-50zm119.99998 0h50v50h-50zm-189.999992-135h250.000002v200h-250.000002zm10.000004-185.000006h49.999998v49.999996h-49.999998zm119.999988 0h50v49.999996h-50zm-59.99998 60.000006h50v50h-50zm59.99998 0h50v50h-50zm-59.99998-60.000006h50v49.999996h-50zm-60.000008 60.000006h49.999998v50h-49.999998zm0 60h49.999998v50h-49.999998zm119.999988 0h50v50h-50zm60-120.000006h50v49.999996h-50zm0 60.000006h50v50h-50zm-119.99998 60h50v50h-50zm119.99998 0h50v50h-50zm-189.999992-135.000002h250.000002v200.000002h-250.000002z"
       style="opacity:.98999999;fill:#333;fill-opacity:.8;stroke:#333;stroke-width:5;stroke-linecap:round;stroke-linejoin:bevel" />
    <rect
       id="segregation2"
       height="2000"
       style="opacity:.98999999;fill:#d6e5ff;fill-opacity:.8;stroke:#333;stroke-width:.5;stroke-linecap:round;stroke-linejoin:bevel"
       width="300"
       x="349.79999"
       y="56.5" />
  </g>
</svg>
