<?xml version="1.0" encoding="UTF-8" standalone="no"?>
<svg
   xmlns:dc="http://purl.org/dc/elements/1.1/"
   xmlns:cc="http://creativecommons.org/ns#"
   xmlns:rdf="http://www.w3.org/1999/02/22-rdf-syntax-ns#"
   xmlns:svg="http://www.w3.org/2000/svg"
   xmlns="http://www.w3.org/2000/svg"
   xmlns:sodipodi="http://sodipodi.sourceforge.net/DTD/sodipodi-0.dtd"
   xmlns:inkscape="http://www.inkscape.org/namespaces/inkscape"
   id="svg2"
   height="651.82605"
   overflow="visible"
   viewBox="0 0 349.76039 651.82601"
   width="349.76038"
   version="1.1"
   inkscape:version="0.91 r13725"
   sodipodi:docname="RBBS_Kit_xLine50_Compartment.svg"
   style="overflow:visible">
  <metadata
     id="metadata97">
    <rdf:RDF>
      <cc:Work
         rdf:about="">
        <dc:format>image/svg+xml</dc:format>
        <dc:type
           rdf:resource="http://purl.org/dc/dcmitype/StillImage" />
        <dc:title></dc:title>
      </cc:Work>
    </rdf:RDF>
  </metadata>
  <defs
     id="defs95" />
  <sodipodi:namedview
     pagecolor="#ffffff"
     bordercolor="#666666"
     borderopacity="1"
     objecttolerance="10"
     gridtolerance="10"
     guidetolerance="10"
     inkscape:pageopacity="0"
     inkscape:pageshadow="2"
     inkscape:window-width="1920"
     inkscape:window-height="1027"
     id="namedview93"
     showgrid="false"
     fit-margin-top="0"
     fit-margin-left="0"
     fit-margin-right="0"
     fit-margin-bottom="0"
     inkscape:zoom="0.39878338"
     inkscape:cx="-136.91939"
     inkscape:cy="295.51307"
     inkscape:window-x="-8"
     inkscape:window-y="-8"
     inkscape:window-maximized="1"
     inkscape:current-layer="svg2" />
  <g
     id="layer1"
     transform="matrix(0.99988669,0,0,1.1014287,0.39995471,0.44106955)">
    <g
       id="kit150">
      <path
         id="drawer150"
         d="m 6.000004,432.2805 0,-262 136.999996,0 0,262 z m 12.5,-15.59961 111.999996,0 0,-50 -111.999996,0 z m -15.5,133.31927 0,-508.99998 142.999996,0 0,508.99998 z m 15.5,-134.09961 111.999996,0 0,-48.5 -111.999996,0 z"
         inkscape:connector-curvature="0"
         style="fill:#e0e0e0;stroke:#000000;stroke-width:0.80000001;stroke-linecap:round" />
      <g
         id="3P-150"
         style="fill-rule:evenodd;stroke:#000000;stroke-width:0.80000001;stroke-linecap:square">
        <path
           id="C1-8-7"
           d="m 52.000004,373.30048 0,-25 20,0 0,25 z m 25,0 0,-25 20,0 0,25 z m 24.999996,0 0,-25 20,0 0,25 z"
           inkscape:connector-curvature="0"
           style="fill:#c6782e" />
        <path
           id="rect5198-9"
           d="m 52.000004,398.30048 0,-25 20,0 0,25 z m 25,0 0,-25 20,0 0,25 z m 24.999996,0 0,-25 20,0 0,25 z"
           inkscape:connector-curvature="0"
           style="fill:#333333" />
      </g>
      <g
         id="4P-150"
         style="fill-rule:evenodd;stroke:#000000;stroke-width:0.80000001;stroke-linecap:square">
        <path
           id="rect5329"
           d="m 27.000027,373.27659 20,0 0,-25 -20,0 z"
           inkscape:connector-curvature="0"
           style="fill:#c6782e" />
        <path
           id="rect5331"
           d="m 27.000027,398.27653 20,0 0,-25 -20,0 z"
           inkscape:connector-curvature="0"
           style="fill:#333333" />
      </g>
      <path
         id="sideShelf150"
         d="m 142.4961,579.19845 -15,0 0,5 15,0 z m -20.5605,2.5 a 2.25,2.25 0 0 0 -2.25,-2.25 2.25,2.25 0 0 0 -2.25,2.25 2.25,2.25 0 0 0 2.25,2.25 2.25,2.25 0 0 0 2.25,-2.25 z m -6.6153,0 a 3.25,3.25 0 0 0 -3.25,-3.25 3.25,3.25 0 0 0 -3.25,3.25 3.25,3.25 0 0 0 3.25,3.25 3.25,3.25 0 0 0 3.25,-3.25 z m -8.6172,0 a 2.25,2.25 0 0 0 -2.25,-2.25 2.25,2.25 0 0 0 -2.25,2.25 2.25,2.25 0 0 0 2.25,2.25 2.25,2.25 0 0 0 2.25,-2.25 z m -9.703096,-20.54883 -45,0 0,30 45,0 z m -50.2031,20.54883 a 2.25,2.25 0 0 0 -2.25,-2.25 2.25,2.25 0 0 0 -2.25,2.25 2.25,2.25 0 0 0 2.25,2.25 2.25,2.25 0 0 0 2.25,-2.25 z m -6.6172,0 a 3.25,3.25 0 0 0 -3.25,-3.25 3.25,3.25 0 0 0 -3.25,3.25 3.25,3.25 0 0 0 3.25,3.25 3.25,3.25 0 0 0 3.25,-3.25 z m -8.6152,0 a 2.25,2.25 0 0 0 -2.25,-2.25 2.25,2.25 0 0 0 -2.25,2.25 2.25,2.25 0 0 0 2.25,2.25 2.25,2.25 0 0 0 2.25,-2.25 z m -10.0606,-2.5 -15,0 0,5 15,0 z m -18.503938,11.95117 142.999994,0 0,-40.5 -142.999994,0 z M 142.4961,11.80069 l -15,0 0,-5 15,0 z m -20.5605,-2.5 a 2.25,2.25 0 0 1 -2.25,2.25 2.25,2.25 0 0 1 -2.25,-2.25 2.25,2.25 0 0 1 2.25,-2.25 2.25,2.25 0 0 1 2.25,2.25 z m -6.6153,0 a 3.25,3.25 0 0 1 -3.25,3.25 3.25,3.25 0 0 1 -3.25,-3.25 3.25,3.25 0 0 1 3.25,-3.25 3.25,3.25 0 0 1 3.25,3.25 z m -8.6172,0 a 2.25,2.25 0 0 1 -2.25,2.25 2.25,2.25 0 0 1 -2.25,-2.25 2.25,2.25 0 0 1 2.25,-2.25 2.25,2.25 0 0 1 2.25,2.25 z m -9.703096,20.54883 -45,0 0,-30 45,0 z M 46.796904,9.30069 a 2.25,2.25 0 0 1 -2.25,2.25 2.25,2.25 0 0 1 -2.25,-2.25 2.25,2.25 0 0 1 2.25,-2.25 2.25,2.25 0 0 1 2.25,2.25 z m -6.6172,0 a 3.25,3.25 0 0 1 -3.25,3.25 3.25,3.25 0 0 1 -3.25,-3.25 3.25,3.25 0 0 1 3.25,-3.25 3.25,3.25 0 0 1 3.25,3.25 z m -8.6152,0 a 2.25,2.25 0 0 1 -2.25,2.25 2.25,2.25 0 0 1 -2.25,-2.25 2.25,2.25 0 0 1 2.25,-2.25 2.25,2.25 0 0 1 2.25,2.25 z m -10.0606,2.5 -15,0 0,-5 15,0 z M 2.999966,-0.15048 l 142.999994,0 0,40.5 -142.999994,0 z"
         inkscape:connector-curvature="0"
         style="fill:#e0e0e0;stroke:#000000;stroke-width:0.49999982;stroke-linecap:round" />
      <path
         id="sparePlate150"
         d="m 3.000004,40.99986 0,509 142.999996,0 0,-509 z m 24,46.99805 a 17.5,17.5 0 0 1 17.5,17.5 17.5,17.5 0 0 1 -17.5,17.5 17.5,17.5 0 0 1 -17.5,-17.5 17.5,17.5 0 0 1 17.5,-17.5 z m 0,2.25 a 15.25,15.25 0 0 0 -15.25,15.25 15.25,15.25 0 0 0 15.25,15.25 15.25,15.25 0 0 0 15.25,-15.25 15.25,15.25 0 0 0 -15.25,-15.25 z m 66,20.25195 a 3,3 0 0 1 3,3 3,3 0 0 1 -3,3 3,3 0 0 1 -3,-3 3,3 0 0 1 3,-3 z m 31.999996,0 a 3,3 0 0 1 3,3 3,3 0 0 1 -3,3 3,3 0 0 1 -3,-3 3,3 0 0 1 3,-3 z m -31.999996,97.5 a 3,3 0 0 1 3,3 3,3 0 0 1 -3,3 3,3 0 0 1 -3,-3 3,3 0 0 1 3,-3 z m 31.999996,0 a 3,3 0 0 1 3,3 3,3 0 0 1 -3,3 3,3 0 0 1 -3,-3 3,3 0 0 1 3,-3 z m -31.999996,87.5 a 3,3 0 0 1 3,3 3,3 0 0 1 -3,3 3,3 0 0 1 -3,-3 3,3 0 0 1 3,-3 z m 31.999996,0 a 3,3 0 0 1 3,3 3,3 0 0 1 -3,3 3,3 0 0 1 -3,-3 3,3 0 0 1 3,-3 z m -31.999996,87.5 a 3,3 0 0 1 3,3 3,3 0 0 1 -3,3 3,3 0 0 1 -3,-3 3,3 0 0 1 3,-3 z m 31.999996,0 a 3,3 0 0 1 3,3 3,3 0 0 1 -3,3 3,3 0 0 1 -3,-3 3,3 0 0 1 3,-3 z m -97.999996,84.99805 a 17.5,17.5 0 0 1 17.5,17.5 17.5,17.5 0 0 1 -17.5,17.5 17.5,17.5 0 0 1 -17.5,-17.5 17.5,17.5 0 0 1 17.5,-17.5 z m 0,2.25 a 15.25,15.25 0 0 0 -15.25,15.25 15.25,15.25 0 0 0 15.25,15.25 15.25,15.25 0 0 0 15.25,-15.25 15.25,15.25 0 0 0 -15.25,-15.25 z m 66,10.25195 a 3,3 0 0 1 3,3 3,3 0 0 1 -3,3 3,3 0 0 1 -3,-3 3,3 0 0 1 3,-3 z m 31.999996,0 a 3,3 0 0 1 3,3 3,3 0 0 1 -3,3 3,3 0 0 1 -3,-3 3,3 0 0 1 3,-3 z"
         inkscape:connector-curvature="0"
         style="fill:#e0e0e0;stroke:#000000;stroke-width:0.80000001;stroke-linecap:round" />
      <g
         id="DrawerHandle_150"
         style="fill:#e0e0e0;stroke:#000000;stroke-width:0.5;stroke-linecap:round">
        <path
           id="rect5214"
           d="m 3.0000041,523.1496 142.9999959,0 0,27 -142.9999959,0 z m 0,-455.300075 142.9999959,0 0,-27 -142.9999959,0 z"
           inkscape:connector-curvature="0" />
        <path
           id="rect5212"
           d="m 18.000004,499.55021 0,68.59962 112.999996,0 0,-68.59962 z m 21.5,27.09962 69.999996,0 c 5.54,0 10,4.46 10,10 0,5.54 -4.46,10 -10,10 l -69.999996,0 c -5.54,0 -10,-4.46 -10,-10 0,-5.54 4.46,-10 10,-10 z m -21.5,-435.2 0,-68.59958 112.999996,0 0,68.59958 z m 21.5,-27.0996 69.999996,0 c 5.54,0 10,-4.46 10,-10 0,-5.54 -4.46,-10 -10,-10 l -69.999996,0 c -5.54,0 -10,4.46 -10,10 0,5.54 4.46,10 10,10 z"
           inkscape:connector-curvature="0" />
      </g>
      <path
         id="cutoutXT1"
         d="m 4e-6,-1e-4 0,590.99994 148.999996,0 0,-590.99994 z m 21.5,268 105.999996,0 0,55 -105.999996,0 z"
         inkscape:connector-curvature="0"
         style="fill:#c5c7c4;fill-opacity:0.8;stroke:#808080;stroke-width:0.80000001;stroke-linecap:round" />
      <path
         id="motorXT1"
         d="m 4e-6,-1.6e-4 0,591 148.999996,0 0,-591 z m 43.09961,241.5 86.999996,0 0,108 -86.999996,0 z"
         inkscape:connector-curvature="0"
         style="fill:#c5c7c4;fill-opacity:0.8;stroke:#808080;stroke-width:0.80000001;stroke-linecap:round" />
      <path
         id="cutoutXT2"
         d="m 4e-6,-1.6e-4 0,591 148.999996,0 0,-591 z m 27.5,254 93.999996,0 0,83 -93.999996,0 z"
         inkscape:connector-curvature="0"
         style="fill:#c5c7c4;fill-opacity:0.8;stroke:#808080;stroke-width:0.80000001;stroke-linecap:round" />
      <path
         id="motorXT2"
         d="m 4e-6,-1.6e-4 0,591 148.999996,0 0,-591 z m 23.59961,250 100.999996,0 0,91 -100.999996,0 z"
         inkscape:connector-curvature="0"
         style="fill:#c5c7c4;fill-opacity:0.8;stroke:#808080;stroke-width:0.80000001;stroke-linecap:round" />
      <path
         id="cutoutXT3"
         d="m 4e-6,-1.6e-4 0,591 148.999996,0 0,-591 z m 19.5,273 109.999996,0 0,45 -109.999996,0 z"
         inkscape:connector-curvature="0"
         style="fill:#c5c7c4;fill-opacity:0.8;stroke:#808080;stroke-width:0.80000001;stroke-linecap:round" />
      <path
         id="motorXT3"
         d="m 4e-6,-1.6e-4 0,591 148.999996,0 0,-591 z m 31,241.5 86.999996,0 0,108 -86.999996,0 z"
         inkscape:connector-curvature="0"
         style="fill:#c5c7c4;fill-opacity:0.8;stroke:#808080;stroke-width:0.80000001;stroke-linecap:round" />
      <path
         id="cutoutXT4"
         d="m 4e-6,-1.6e-4 0,591 148.999996,0 0,-591 z m 19.5,247 109.999996,0 0,97 -109.999996,0 z"
         inkscape:connector-curvature="0"
         style="fill:#c5c7c4;fill-opacity:0.8;stroke:#808080;stroke-width:0.80000001;stroke-linecap:round" />
      <path
         id="motorXT4"
         d="m 4e-6,-1.6e-4 0,591 148.999996,0 0,-591 z m 24,250 100.999996,0 0,91 -100.999996,0 z"
         inkscape:connector-curvature="0"
         style="fill:#c5c7c4;fill-opacity:0.8;stroke:#808080;stroke-width:0.80000001;stroke-linecap:round" />
    </g>
    <g
       id="kit200">
      <path
         id="drawer200"
         d="m 6.000004,425.99881 0,-250 186.999996,0 0,250 z m 30,-9.59961 126.999996,0 0,-50 -126.999996,0 z m -33,133.20027 0,-509 192.999996,0 0,509 z m 33,-133.90039 126.999996,0 0,-48.5 -126.999996,0 z"
         inkscape:connector-curvature="0"
         style="fill:#e0e0e0;stroke:#000000;stroke-width:0.80000001;stroke-linecap:round" />
      <g
         id="3P-200"
         style="fill-rule:evenodd;stroke:#000000;stroke-width:0.80000001;stroke-linecap:square">
        <path
           id="C1-8-9-4"
           d="m 77.000004,372.89908 0,-25 20,0 0,25 z m 24.998046,0 0,-25 20,0 0,25 z m 25,0 0,-25 20,0 0,25 z"
           inkscape:connector-curvature="0"
           style="fill:#c6782e" />
        <path
           id="rect5198-2-6"
           d="m 77.000004,397.89908 0,-25 20,0 0,25 z m 24.998046,0 0,-25 20,0 0,25 z m 25,0 0,-25 20,0 0,25 z"
           inkscape:connector-curvature="0"
           style="fill:#333333" />
      </g>
      <g
         id="4P-200"
         style="fill-rule:evenodd;stroke:#000000;stroke-width:0.80000001;stroke-linecap:square">
        <path
           id="rect5329-5"
           d="m 52.000004,372.89881 20,0 0,-25 -20,0 z"
           inkscape:connector-curvature="0"
           style="fill:#c6782e" />
        <path
           id="rect5331-1"
           d="m 52.000004,397.89875 20,0 0,-25 -20,0 z"
           inkscape:connector-curvature="0"
           style="fill:#333333" />
      </g>
      <path
         id="sparePlate200"
         d="m 3.000004,40.99978 0,509 192.999996,0 0,-509 z m 33.49805,29.5 c 13.80712,0 25,11.19288 25,25 0,13.80712 -11.19288,25 -25,25 -13.80712,0 -25,-11.19288 -25,-25 0,-13.80712 11.19288,-25 25,-25 z m 0,2.25 c -12.56448,0 -22.75,10.18552 -22.75,22.75 0,12.56448 10.18552,22.75 22.75,22.75 12.56448,0 22.75,-10.18552 22.75,-22.75 0,-12.56448 -10.18552,-22.75 -22.75,-22.75 z M 143,107.49978 a 3,3 0 0 1 3,3 3,3 0 0 1 -3,3 3,3 0 0 1 -3,-3 3,3 0 0 1 3,-3 z m 32,0 a 3,3 0 0 1 3,3 3,3 0 0 1 -3,3 3,3 0 0 1 -3,-3 3,3 0 0 1 3,-3 z m -32,97.5 a 3,3 0 0 1 3,3 3,3 0 0 1 -3,3 3,3 0 0 1 -3,-3 3,3 0 0 1 3,-3 z m 32,0 a 3,3 0 0 1 3,3 3,3 0 0 1 -3,3 3,3 0 0 1 -3,-3 3,3 0 0 1 3,-3 z m -32,87.5 a 3,3 0 0 1 3,3 3,3 0 0 1 -3,3 3,3 0 0 1 -3,-3 3,3 0 0 1 3,-3 z m 32,0 a 3,3 0 0 1 3,3 3,3 0 0 1 -3,3 3,3 0 0 1 -3,-3 3,3 0 0 1 3,-3 z m -32,87.5 a 3,3 0 0 1 3,3 3,3 0 0 1 -3,3 3,3 0 0 1 -3,-3 3,3 0 0 1 3,-3 z m 32,0 a 3,3 0 0 1 3,3 3,3 0 0 1 -3,3 3,3 0 0 1 -3,-3 3,3 0 0 1 3,-3 z m -138.501946,90.5 c 13.80712,0 25,11.19288 25,25 0,13.80712 -11.19288,25 -25,25 -13.80712,0 -25,-11.19288 -25,-25 0,-13.80712 11.19288,-25 25,-25 z m 0,2.25 c -12.56448,0 -22.75,10.18552 -22.75,22.75 0,12.56448 10.18552,22.75 22.75,22.75 12.56448,0 22.75,-10.18552 22.75,-22.75 0,-12.56448 -10.18552,-22.75 -22.75,-22.75 z M 143,477.49978 a 3,3 0 0 1 3,3 3,3 0 0 1 -3,3 3,3 0 0 1 -3,-3 3,3 0 0 1 3,-3 z m 32,0 a 3,3 0 0 1 3,3 3,3 0 0 1 -3,3 3,3 0 0 1 -3,-3 3,3 0 0 1 3,-3 z"
         overflow="visible"
         inkscape:connector-curvature="0"
         style="overflow:visible;fill:#e0e0e0;stroke:#000000;stroke-width:0.80000001;stroke-linecap:round" />
      <path
         id="sideShelf200"
         d="m 167.4961,579.19869 -15,0 0,5 15,0 z m -20.5605,2.5 c 0,-1.24264 -1.00736,-2.25 -2.25,-2.25 -1.24264,0 -2.25,1.00736 -2.25,2.25 0,1.24264 1.00736,2.25 2.25,2.25 1.24264,0 2.25,-1.00736 2.25,-2.25 z m -6.6153,0 c 0,-1.79493 -1.45507,-3.25 -3.25,-3.25 -1.79493,0 -3.25,1.45507 -3.25,3.25 0,1.79493 1.45507,3.25 3.25,3.25 1.79493,0 3.25,-1.45507 3.25,-3.25 z m -8.6172,0 c 0,-1.24264 -1.00736,-2.25 -2.25,-2.25 -1.24264,0 -2.25,1.00736 -2.25,2.25 0,1.24264 1.00736,2.25 2.25,2.25 1.24264,0 2.25,-1.00736 2.25,-2.25 z M 122,561.14986 l -44.999996,0 0,30 44.999996,0 z m -50.203096,20.54883 c 0,-1.24264 -1.00736,-2.25 -2.25,-2.25 -1.24264,0 -2.25,1.00736 -2.25,2.25 0,1.24264 1.00736,2.25 2.25,2.25 1.24264,0 2.25,-1.00736 2.25,-2.25 z m -6.6172,0 c 0,-1.79493 -1.45507,-3.25 -3.25,-3.25 -1.79493,0 -3.25,1.45507 -3.25,3.25 0,1.79493 1.45507,3.25 3.25,3.25 1.79493,0 3.25,-1.45507 3.25,-3.25 z m -8.6152,0 c 0,-1.24264 -1.00736,-2.25 -2.25,-2.25 -1.24264,0 -2.25,1.00736 -2.25,2.25 0,1.24264 1.00736,2.25 2.25,2.25 1.24264,0 2.25,-1.00736 2.25,-2.25 z m -10.0606,-2.5 -15,0 0,5 15,0 z m -43.5039,11.95117 192.999996,0 0,-40.5 -192.999996,0 z M 167.4961,11.80103 l -15,0 0,-5 15,0 z m -20.5605,-2.5 c 0,1.24264 -1.00736,2.25 -2.25,2.25 -1.24264,0 -2.25,-1.00736 -2.25,-2.25 0,-1.24264 1.00736,-2.25 2.25,-2.25 1.24264,0 2.25,1.00736 2.25,2.25 z m -6.6153,0 c 0,1.79493 -1.45507,3.25 -3.25,3.25 -1.79493,0 -3.25,-1.45507 -3.25,-3.25 0,-1.79493 1.45507,-3.25 3.25,-3.25 1.79493,0 3.25,1.45507 3.25,3.25 z m -8.6172,0 c 0,1.24264 -1.00736,2.25 -2.25,2.25 -1.24264,0 -2.25,-1.00736 -2.25,-2.25 0,-1.24264 1.00736,-2.25 2.25,-2.25 1.24264,0 2.25,1.00736 2.25,2.25 z M 122,29.84986 l -44.999996,0 0,-30 44.999996,0 z M 71.796904,9.30103 c 0,1.24264 -1.00736,2.25 -2.25,2.25 -1.24264,0 -2.25,-1.00736 -2.25,-2.25 0,-1.24264 1.00736,-2.25 2.25,-2.25 1.24264,0 2.25,1.00736 2.25,2.25 z m -6.6172,0 c 0,1.79493 -1.45507,3.25 -3.25,3.25 -1.79493,0 -3.25,-1.45507 -3.25,-3.25 0,-1.79493 1.45507,-3.25 3.25,-3.25 1.79493,0 3.25,1.45507 3.25,3.25 z m -8.6152,0 c 0,1.24264 -1.00736,2.25 -2.25,2.25 -1.24264,0 -2.25,-1.00736 -2.25,-2.25 0,-1.24264 1.00736,-2.25 2.25,-2.25 1.24264,0 2.25,1.00736 2.25,2.25 z m -10.0606,2.5 -15,0 0,-5 15,0 z m -43.5039,-11.95117 192.999996,0 0,40.5 -192.999996,0 z"
         inkscape:connector-curvature="0"
         style="fill:#e0e0e0;stroke:#000000;stroke-width:0.49999982;stroke-linecap:round" />
      <g
         id="DrawerHandle_200"
         style="fill:#e0e0e0;stroke:#000000;stroke-width:0.5;stroke-linecap:round">
        <path
           id="rect5214-9"
           d="m 3.0000041,522.74951 192.9999959,0 0,27 -192.9999959,0 z m 0,-455.299338 192.9999959,0 0,-27 -192.9999959,0 z"
           inkscape:connector-curvature="0" />
        <path
           id="rect5212-1"
           d="m 18.000004,499.15019 0,68.59962 162.999996,0 0,-68.59962 z m 46.5,27.09962 69.999996,0 c 5.54,0 10,4.46 10,10 0,5.54 -4.46,10 -10,10 l -69.999996,0 c -5.54,0 -10,-4.46 -10,-10 0,-5.54 4.46,-10 10,-10 z m -46.5,-435.19968 0,-68.59958 162.999996,0 0,68.59958 z m 46.5,-27.0996 69.999996,0 c 5.54,0 10,-4.46 10,-10 0,-5.54 -4.46,-10 -10,-10 l -69.999996,0 c -5.54,0 -10,4.46 -10,10 0,5.54 4.46,10 10,10 z"
           inkscape:connector-curvature="0" />
      </g>
      <path
         id="cutoutXT2_4P"
         d="m 4e-6,-1.4e-4 0,591 198.999996,0 0,-591 z m 47.5,254 103.999996,0 0,83 -103.999996,0 z"
         inkscape:connector-curvature="0"
         style="fill:#c5c7c4;fill-opacity:0.8;stroke:#808080;stroke-width:0.80000001;stroke-linecap:round" />
      <path
         id="motorXT2_4P"
         d="m 4e-6,-1.4e-4 0,591 198.999996,0 0,-591 z m 63.59961,250 100.999996,0 0,91 -100.999996,0 z"
         inkscape:connector-curvature="0"
         style="fill:#c5c7c4;fill-opacity:0.8;stroke:#808080;stroke-width:0.80000001;stroke-linecap:round" />
      <path
         id="cutoutXT3_4P"
         d="m 4e-6,-1.4e-4 0,591 198.999996,0 0,-591 z m 27,268 144.999996,0 0,55 -144.999996,0 z"
         inkscape:connector-curvature="0"
         style="fill:#c5c7c4;fill-opacity:0.8;stroke:#808080;stroke-width:0.80000001;stroke-linecap:round" />
      <path
         id="motorXT3_4P"
         d="m 4e-6,-1.4e-4 0,591 198.999996,0 0,-591 z m 73.09961,241.5 86.999996,0 0,108 -86.999996,0 z"
         inkscape:connector-curvature="0"
         style="fill:#c5c7c4;fill-opacity:0.8;stroke:#808080;stroke-width:0.80000001;stroke-linecap:round" />
      <path
         id="cutoutXT4_4P"
         d="m 4e-6,-1.9e-4 0,591 198.999996,0 0,-591 z m 27,247 144.999996,0 0,97 -144.999996,0 z"
         inkscape:connector-curvature="0"
         style="fill:#c5c7c4;fill-opacity:0.8;stroke:#808080;stroke-width:0.80000001;stroke-linecap:round" />
      <path
         id="motorXT4_4P"
         d="m 4e-6,-1.9e-4 0,591 198.999996,0 0,-591 z m 66.09961,250 100.999996,0 0,91 -100.999996,0 z"
         inkscape:connector-curvature="0"
         style="fill:#c5c7c4;fill-opacity:0.8;stroke:#808080;stroke-width:0.80000001;stroke-linecap:round" />
      <path
         id="cutout_motor_T5"
         d="m 4e-6,-1.9e-4 0,591 198.999996,0 0,-591 z m 42,238 114.999996,0 0,115 -114.999996,0 z"
         inkscape:connector-curvature="0"
         style="fill:#c5c7c4;fill-opacity:0.8;stroke:#808080;stroke-width:0.80000001;stroke-linecap:round" />
    </g>
    <g
       id="kit250">
      <path
         id="drawer250"
         d="m 6.000004,456.99986 0,-339 236.999996,0 0,339 z m 21.5,-16.59961 193.999996,0 0,-50 -193.999996,0 z m -24.5,109.19961 0,-509 242.999996,0 0,509 z m 24.5,-109.90039 193.999996,0 0,-48.5 -193.999996,0 z"
         inkscape:connector-curvature="0"
         style="fill:#e0e0e0;stroke:#000000;stroke-width:0.80000001;stroke-linecap:round" />
      <g
         id="con250"
         style="fill-rule:evenodd;stroke:#000000;stroke-width:0.80000001;stroke-linecap:square">
        <path
           id="rect4288-7"
           d="m 49.500004,388.89947 0,-25 30,0 0,25 z m 40,0 0,-25 29.999996,0 0,25 z m 39.999996,0 0,-25 30,0 0,25 z m 40,0 0,-25 30,0 0,25 z M 49.500004,212.29986 l 0,-25 30,0 0,25 z m 40,0 0,-25 29.999996,0 0,25 z m 39.999996,0 0,-25 30,0 0,25 z m 40,0 0,-25 30,0 0,25 z m -119.999996,-86 0,-25 30,0 0,25 z m 40,0 0,-25 29.999996,0 0,25 z m 39.999996,0 0,-25 30,0 0,25 z m 40,0 0,-25 30,0 0,25 z"
           inkscape:connector-curvature="0"
           style="fill:#c6782e" />
        <path
           id="rect4295-4"
           d="m 49.500004,413.89947 0,-25 30,0 0,25 z m 40,0 0,-25 29.999996,0 0,25 z m 39.999996,0 0,-25 30,0 0,25 z m 40,0 0,-25 30,0 0,25 z M 49.500004,187.29986 l 0,-61 30,0 0,61 z m 40,0 0,-61 29.999996,0 0,61 z m 39.999996,0 0,-61 30,0 0,61 z m 40,0 0,-61 30,0 0,61 z"
           inkscape:connector-curvature="0"
           style="fill:#333333" />
      </g>
      <path
         id="sparePlate250"
         d="m 3.000004,40.99983 0,509 242.999996,0 0,-509 z m 33.49804,29.5 c 13.80712,0 25,11.19288 25,25 0,13.80712 -11.19288,25 -25,25 -13.80712,0 -25,-11.19288 -25,-25 0,-13.80712 11.19288,-25 25,-25 z m 0,2.25 c -12.56448,0 -22.75,10.18552 -22.75,22.75 0,12.56448 10.18552,22.75 22.75,22.75 12.56448,0 22.75,-10.18552 22.75,-22.75 0,-12.56448 -10.18552,-22.75 -22.75,-22.75 z M 193,107.49983 a 3,3 0 0 1 3,3 3,3 0 0 1 -3,3 3,3 0 0 1 -3,-3 3,3 0 0 1 3,-3 z m 32,0 a 3,3 0 0 1 3,3 3,3 0 0 1 -3,3 3,3 0 0 1 -3,-3 3,3 0 0 1 3,-3 z m -32,97.5 a 3,3 0 0 1 3,3 3,3 0 0 1 -3,3 3,3 0 0 1 -3,-3 3,3 0 0 1 3,-3 z m 32,0 a 3,3 0 0 1 3,3 3,3 0 0 1 -3,3 3,3 0 0 1 -3,-3 3,3 0 0 1 3,-3 z m -32,87.5 a 3,3 0 0 1 3,3 3,3 0 0 1 -3,3 3,3 0 0 1 -3,-3 3,3 0 0 1 3,-3 z m 32,0 a 3,3 0 0 1 3,3 3,3 0 0 1 -3,3 3,3 0 0 1 -3,-3 3,3 0 0 1 3,-3 z m -32,87.5 a 3,3 0 0 1 3,3 3,3 0 0 1 -3,3 3,3 0 0 1 -3,-3 3,3 0 0 1 3,-3 z m 32,0 a 3,3 0 0 1 3,3 3,3 0 0 1 -3,3 3,3 0 0 1 -3,-3 3,3 0 0 1 3,-3 z m -188.501956,90.5 c 13.80712,0 25,11.19288 25,25 0,13.80712 -11.19288,25 -25,25 -13.80712,0 -25,-11.19288 -25,-25 0,-13.80712 11.19288,-25 25,-25 z m 0,2.25 c -12.56448,0 -22.75,10.18552 -22.75,22.75 0,12.56448 10.18552,22.75 22.75,22.75 12.56448,0 22.75,-10.18552 22.75,-22.75 0,-12.56448 -10.18552,-22.75 -22.75,-22.75 z M 193,477.49983 a 3,3 0 0 1 3,3 3,3 0 0 1 -3,3 3,3 0 0 1 -3,-3 3,3 0 0 1 3,-3 z m 32,0 a 3,3 0 0 1 3,3 3,3 0 0 1 -3,3 3,3 0 0 1 -3,-3 3,3 0 0 1 3,-3 z"
         overflow="visible"
         inkscape:connector-curvature="0"
         style="overflow:visible;fill:#e0e0e0;stroke:#000000;stroke-width:0.80000001;stroke-linecap:round" />
      <path
         id="sideShelf250"
         d="m 192.4961,579.19869 -15,0 0,5 15,0 z m -20.5605,2.5 c 0,-1.24264 -1.00736,-2.25 -2.25,-2.25 -1.24264,0 -2.25,1.00736 -2.25,2.25 0,1.24264 1.00736,2.25 2.25,2.25 1.24264,0 2.25,-1.00736 2.25,-2.25 z m -6.6153,0 c 0,-1.79493 -1.45507,-3.25 -3.25,-3.25 -1.79493,0 -3.25,1.45507 -3.25,3.25 0,1.79493 1.45507,3.25 3.25,3.25 1.79493,0 3.25,-1.45507 3.25,-3.25 z m -8.6172,0 c 0,-1.24264 -1.00736,-2.25 -2.25,-2.25 -1.24264,0 -2.25,1.00736 -2.25,2.25 0,1.24264 1.00736,2.25 2.25,2.25 1.24264,0 2.25,-1.00736 2.25,-2.25 z M 147,561.14986 l -45,0 0,30 45,0 z m -50.203096,20.54883 c 0,-1.24264 -1.00736,-2.25 -2.25,-2.25 -1.24264,0 -2.25,1.00736 -2.25,2.25 0,1.24264 1.00736,2.25 2.25,2.25 1.24264,0 2.25,-1.00736 2.25,-2.25 z m -6.6172,0 c 0,-1.79493 -1.45507,-3.25 -3.25,-3.25 -1.79493,0 -3.25,1.45507 -3.25,3.25 0,1.79493 1.45507,3.25 3.25,3.25 1.79493,0 3.25,-1.45507 3.25,-3.25 z m -8.6152,0 c 0,-1.24264 -1.00736,-2.25 -2.25,-2.25 -1.24264,0 -2.25,1.00736 -2.25,2.25 0,1.24264 1.00736,2.25 2.25,2.25 1.24264,0 2.25,-1.00736 2.25,-2.25 z m -10.0606,-2.5 -15,0 0,5 15,0 z m -68.5039,11.95117 242.999996,0 0,-40.5 -242.999996,0 z M 192.4961,11.80102 l -15,0 0,-5 15,0 z m -20.5605,-2.5 c 0,1.24264 -1.00736,2.25 -2.25,2.25 -1.24264,0 -2.25,-1.00736 -2.25,-2.25 0,-1.24264 1.00736,-2.25 2.25,-2.25 1.24264,0 2.25,1.00736 2.25,2.25 z m -6.6153,0 c 0,1.79493 -1.45507,3.25 -3.25,3.25 -1.79493,0 -3.25,-1.45507 -3.25,-3.25 0,-1.79493 1.45507,-3.25 3.25,-3.25 1.79493,0 3.25,1.45507 3.25,3.25 z m -8.6172,0 c 0,1.24264 -1.00736,2.25 -2.25,2.25 -1.24264,0 -2.25,-1.00736 -2.25,-2.25 0,-1.24264 1.00736,-2.25 2.25,-2.25 1.24264,0 2.25,1.00736 2.25,2.25 z M 147,29.84986 l -45,0 0,-30.00001 45,0 z M 96.796904,9.30102 c 0,1.24264 -1.00736,2.25 -2.25,2.25 -1.24264,0 -2.25,-1.00736 -2.25,-2.25 0,-1.24264 1.00736,-2.25 2.25,-2.25 1.24264,0 2.25,1.00736 2.25,2.25 z m -6.6172,0 c 0,1.79493 -1.45507,3.25 -3.25,3.25 -1.79493,0 -3.25,-1.45507 -3.25,-3.25 0,-1.79493 1.45507,-3.25 3.25,-3.25 1.79493,0 3.25,1.45507 3.25,3.25 z m -8.6152,0 c 0,1.24264 -1.00736,2.25 -2.25,2.25 -1.24264,0 -2.25,-1.00736 -2.25,-2.25 0,-1.24264 1.00736,-2.25 2.25,-2.25 1.24264,0 2.25,1.00736 2.25,2.25 z m -10.0606,2.5 -15,0 0,-5 15,0 z m -68.5039,-11.95117 242.999996,0 0,40.50001 -242.999996,0 z"
         inkscape:connector-curvature="0"
         style="fill:#e0e0e0;stroke:#000000;stroke-width:0.49999982;stroke-linecap:round" />
      <g
         id="DrawerHandle_250"
         style="fill:#e0e0e0;fill-opacity:0.8;stroke:#000000;stroke-width:0.5;stroke-linecap:round">
        <path
           id="rect4315"
           d="m 3.0000041,522.75024 243.0000159,0 0,27 -243.0000159,0 z m 0,-455.300022 243.0000159,0 0,-27 -243.0000159,0 z"
           inkscape:connector-curvature="0" />
        <path
           id="path4317"
           d="m 18.000004,499.15024 0,68.59962 212.999996,0 0,-68.59962 z m 71.5,27.09962 69.999996,0 c 5.54,0 10,4.46 10,10 0,5.54 -4.46,10 -10,10 l -69.999996,0 c -5.54,0 -10,-4.46 -10,-10 0,-5.54 4.46,-10 10,-10 z m -71.5,-435.19968 0,-68.59958 212.999996,0 0,68.59958 z m 71.5,-27.0996 69.999996,0 c 5.54,0 10,-4.46 10,-10 0,-5.54 -4.46,-10 -10,-10 l -69.999996,0 c -5.54,0 -10,4.46 -10,10 0,5.54 4.46,10 10,10 z"
           inkscape:connector-curvature="0" />
      </g>
      <path
         id="cutout_motorT5_4P"
         d="m 4e-6,-1.4e-4 0,591 248.999996,0 0,-591 z m 90.25,238 114.999996,0 0,115 -114.999996,0 z"
         inkscape:connector-curvature="0"
         style="fill:#c5c7c4;fill-opacity:0.8;stroke:#808080;stroke-width:0.80000001;stroke-linecap:round" />
    </g>
    <g
       id="kit300">
      <path
         id="drawer300"
         d="m 6.000004,489.49986 0,-337 286.999996,0 0,337 z m 38.5,-22.59961 209.999996,0 0,-46 -209.999996,0 z m -41.5,82.69961 0,-509 292.999996,0 0,509 z m 41.5,-82.69922 209.999996,0 0,-46 -209.999996,0 z"
         inkscape:connector-curvature="0"
         style="fill:#e0e0e0;stroke:#000000;stroke-width:0.80000007;stroke-linecap:round" />
      <g
         id="con300"
         style="fill-rule:evenodd;stroke:#000000;stroke-width:0.80000001;stroke-linecap:square">
        <path
           id="rect4874-7"
           d="m 94.500002,413.29986 0,-25 29.999998,0 0,25 z m 39.999998,0 0,-25 30,0 0,25 z m 40,0 0,-25 30,0 0,25 z m -79.999998,-201 0,-25 29.999998,0 0,25 z m 39.999998,0 0,-25 30,0 0,25 z m 40,0 0,-25 30,0 0,25 z m -79.999998,-86 0,-25 29.999998,0 0,25 z m 39.999998,0 0,-25 30,0 0,25 z m 40,0 0,-25 30,0 0,25 z"
           inkscape:connector-curvature="0"
           style="fill:#c6782e" />
        <path
           id="rect4880-8"
           d="m 94.500002,438.29986 0,-25 29.999998,0 0,25 z m 39.999998,0 0,-25 30,0 0,25 z m 40,0 0,-25 30,0 0,25 z m -79.999998,-251 0,-61 29.999998,0 0,61 z m 39.999998,0 0,-61 30,0 0,61 z m 40,0 0,-61 30,0 0,61 z"
           inkscape:connector-curvature="0"
           style="fill:#333333" />
      </g>
      <path
         id="sparePlate300"
         d="m 3.000194,40.99986 0,509 292.999616,0 0,-509 z m 33.49804,29.5 c 13.80712,0 25,11.19288 25,25 0,13.80712 -11.19288,25 -25,25 -13.80712,0 -25,-11.19288 -25,-25 0,-13.80712 11.19288,-25 25,-25 z m 0,2.25 c -12.56448,0 -22.75,10.18552 -22.75,22.75 0,12.56448 10.18552,22.75 22.75,22.75 12.56448,0 22.75,-10.18552 22.75,-22.75 0,-12.56448 -10.18552,-22.75 -22.75,-22.75 z m 206.501576,34.75 c 1.65685,0 3,1.34315 3,3 0,1.65685 -1.34315,3 -3,3 -1.65685,0 -3,-1.34315 -3,-3 0,-1.65685 1.34315,-3 3,-3 z m 32,0 c 1.65685,0 3,1.34315 3,3 0,1.65685 -1.34315,3 -3,3 -1.65685,0 -3,-1.34315 -3,-3 0,-1.65685 1.34315,-3 3,-3 z m -32,97.5 c 1.65685,0 3,1.34315 3,3 0,1.65685 -1.34315,3 -3,3 -1.65685,0 -3,-1.34315 -3,-3 0,-1.65685 1.34315,-3 3,-3 z m 32,0 c 1.65685,0 3,1.34315 3,3 0,1.65685 -1.34315,3 -3,3 -1.65685,0 -3,-1.34315 -3,-3 0,-1.65685 1.34315,-3 3,-3 z m -32,87.5 c 1.65685,0 3,1.34315 3,3 0,1.65685 -1.34315,3 -3,3 -1.65685,0 -3,-1.34315 -3,-3 0,-1.65685 1.34315,-3 3,-3 z m 32,0 c 1.65685,0 3,1.34315 3,3 0,1.65685 -1.34315,3 -3,3 -1.65685,0 -3,-1.34315 -3,-3 0,-1.65685 1.34315,-3 3,-3 z m -32,87.5 c 1.65685,0 3,1.34315 3,3 0,1.65685 -1.34315,3 -3,3 -1.65685,0 -3,-1.34315 -3,-3 0,-1.65685 1.34315,-3 3,-3 z m 32,0 c 1.65685,0 3,1.34315 3,3 0,1.65685 -1.34315,3 -3,3 -1.65685,0 -3,-1.34315 -3,-3 0,-1.65685 1.34315,-3 3,-3 z m -238.501576,90.5 c 13.80712,0 25,11.19288 25,25 0,13.80712 -11.19288,25 -25,25 -13.80712,0 -25,-11.19288 -25,-25 0,-13.80712 11.19288,-25 25,-25 z m 0,2.25 c -12.56448,0 -22.75,10.18552 -22.75,22.75 0,12.56448 10.18552,22.75 22.75,22.75 12.56448,0 22.75,-10.18552 22.75,-22.75 0,-12.56448 -10.18552,-22.75 -22.75,-22.75 z m 206.501576,4.75 c 1.65685,0 3,1.34315 3,3 0,1.65685 -1.34315,3 -3,3 -1.65685,0 -3,-1.34315 -3,-3 0,-1.65685 1.34315,-3 3,-3 z m 32,0 c 1.65685,0 3,1.34315 3,3 0,1.65685 -1.34315,3 -3,3 -1.65685,0 -3,-1.34315 -3,-3 0,-1.65685 1.34315,-3 3,-3 z"
         overflow="visible"
         inkscape:connector-curvature="0"
         style="overflow:visible;fill:#e0e0e0;stroke:#000000;stroke-width:0.80000001;stroke-linecap:round" />
      <path
         id="sideShelf300"
         d="m 217.4961,579.19869 -15,0 0,5 15,0 z m -20.5605,2.5 c 0,-1.24264 -1.00736,-2.25 -2.25,-2.25 -1.24264,0 -2.25,1.00736 -2.25,2.25 0,1.24264 1.00736,2.25 2.25,2.25 1.24264,0 2.25,-1.00736 2.25,-2.25 z m -6.6153,0 c 0,-1.79493 -1.45507,-3.25 -3.25,-3.25 -1.79493,0 -3.25,1.45507 -3.25,3.25 0,1.79493 1.45507,3.25 3.25,3.25 1.79493,0 3.25,-1.45507 3.25,-3.25 z m -8.6172,0 c 0,-1.24264 -1.00736,-2.25 -2.25,-2.25 -1.24264,0 -2.25,1.00736 -2.25,2.25 0,1.24264 1.00736,2.25 2.25,2.25 1.24264,0 2.25,-1.00736 2.25,-2.25 z M 172,561.14986 l -45,0 0,30 45,0 z m -50.2031,20.54883 c 0,-1.24264 -1.00736,-2.25 -2.25,-2.25 -1.24264,0 -2.25,1.00736 -2.25,2.25 0,1.24264 1.00736,2.25 2.25,2.25 1.24264,0 2.25,-1.00736 2.25,-2.25 z m -6.6172,0 c 0,-1.79493 -1.45507,-3.25 -3.25,-3.25 -1.79493,0 -3.25,1.45507 -3.25,3.25 0,1.79493 1.45507,3.25 3.25,3.25 1.79493,0 3.25,-1.45507 3.25,-3.25 z m -8.6152,0 c 0,-1.24264 -1.00736,-2.25 -2.25,-2.25 -1.24264,0 -2.25,1.00736 -2.25,2.25 0,1.24264 1.00736,2.25 2.25,2.25 1.24264,0 2.25,-1.00736 2.25,-2.25 z m -10.060596,-2.5 -15,0 0,5 15,0 z m -93.5039,11.95117 292.999996,0 0,-40.5 -292.999996,0 z M 217.4961,11.80102 l -15,0 0,-5 15,0 z m -20.5605,-2.5 c 0,1.24264 -1.00736,2.25 -2.25,2.25 -1.24264,0 -2.25,-1.00736 -2.25,-2.25 0,-1.24264 1.00736,-2.25 2.25,-2.25 1.24264,0 2.25,1.00736 2.25,2.25 z m -6.6153,0 c 0,1.79493 -1.45507,3.25 -3.25,3.25 -1.79493,0 -3.25,-1.45507 -3.25,-3.25 0,-1.79493 1.45507,-3.25 3.25,-3.25 1.79493,0 3.25,1.45507 3.25,3.25 z m -8.6172,0 c 0,1.24264 -1.00736,2.25 -2.25,2.25 -1.24264,0 -2.25,-1.00736 -2.25,-2.25 0,-1.24264 1.00736,-2.25 2.25,-2.25 1.24264,0 2.25,1.00736 2.25,2.25 z M 172,29.84986 l -45,0 0,-30.00001 45,0 z M 121.7969,9.30102 c 0,1.24264 -1.00736,2.25 -2.25,2.25 -1.24264,0 -2.25,-1.00736 -2.25,-2.25 0,-1.24264 1.00736,-2.25 2.25,-2.25 1.24264,0 2.25,1.00736 2.25,2.25 z m -6.6172,0 c 0,1.79493 -1.45507,3.25 -3.25,3.25 -1.79493,0 -3.25,-1.45507 -3.25,-3.25 0,-1.79493 1.45507,-3.25 3.25,-3.25 1.79493,0 3.25,1.45507 3.25,3.25 z m -8.6152,0 c 0,1.24264 -1.00736,2.25 -2.25,2.25 -1.24264,0 -2.25,-1.00736 -2.25,-2.25 0,-1.24264 1.00736,-2.25 2.25,-2.25 1.24264,0 2.25,1.00736 2.25,2.25 z m -10.060596,2.5 -15,0 0,-5 15,0 z m -93.5039,-11.95117 292.999996,0 0,40.50001 -292.999996,0 z"
         inkscape:connector-curvature="0"
         style="fill:#e0e0e0;stroke:#000000;stroke-width:0.49999982;stroke-linecap:round" />
      <g
         id="DrawerHandle_300"
         style="fill:#e0e0e0;fill-opacity:0.8;stroke:#000000;stroke-width:0.5;stroke-linecap:round">
        <path
           id="rect4898"
           d="m 3.0000041,522.75024 292.9999959,0 0,27 -292.9999959,0 z m 0,-455.300388 292.9999959,0 0,-27 -292.9999959,0 z"
           inkscape:connector-curvature="0" />
        <path
           id="path4900"
           d="m 18.000004,499.15024 0,68.59962 262.999996,0 0,-68.59962 z M 114.5,526.24986 l 70,0 c 5.54,0 10,4.46 10,10 0,5.54 -4.46,10 -10,10 l -70,0 c -5.54,0 -10,-4.46 -10,-10 0,-5.54 4.46,-10 10,-10 z M 18.000004,91.05018 l 0,-68.59958 262.999996,0 0,68.59958 z M 114.5,63.95058 l 70,0 c 5.54,0 10,-4.46 10,-10 0,-5.54 -4.46,-10 -10,-10 l -70,0 c -5.54,0 -10,4.46 -10,10 0,5.54 4.46,10 10,10 z"
           inkscape:connector-curvature="0" />
      </g>
      <path
         id="cutoutT6"
         d="m 4e-6,-1.4e-4 0,591 298.999996,0 0,-591 z m 75,237.5 148.999996,0 0,116 -148.999996,0 z"
         inkscape:connector-curvature="0"
         style="fill:#c5c7c4;fill-opacity:0.8;stroke:#808080;stroke-width:0.80000001;stroke-linecap:round" />
      <path
         id="motorT6"
         d="m 4e-6,-1.4e-4 0,591 298.999996,0 0,-591 z m 75.25,220 148.499996,0 0,151 -148.499996,0 z"
         inkscape:connector-curvature="0"
         style="fill:#c5c7c4;fill-opacity:0.8;stroke:#808080;stroke-width:0.80000001;stroke-linecap:round" />
    </g>
    <g
       id="kit350">
      <path
         id="drawer350"
         d="m 6.000004,489.49935 0,-337 336.999996,0 0,337 z m 28.5,-22.59961 16.70703,0 246.585966,0 16.707,0 0,-46 -16.707,0 -246.585966,0 -16.70703,0 z m -31.5,82.70012 0,-509 342.999996,0 0,509 z m 31.5,-82.69922 279.999996,0 0,-46 -279.999996,0 z"
         inkscape:connector-curvature="0"
         style="fill:#e0e0e0;stroke:#000000;stroke-width:0.80000007;stroke-linecap:round" />
      <g
         id="con350"
         style="fill-rule:evenodd;stroke:#000000;stroke-width:0.80000001;stroke-linecap:square">
        <path
           id="rect5392-5"
           d="m 99.500004,413.29986 0,-25 29.999996,0 0,25 z m 39.999996,0 0,-25 30,0 0,25 z m 40,0 0,-25 30,0 0,25 z m 40,0 0,-25 30,0 0,25 z m -119.999996,-201 0,-25 29.999996,0 0,25 z m 39.999996,0 0,-25 30,0 0,25 z m 40,0 0,-25 30,0 0,25 z m 40,0 0,-25 30,0 0,25 z m -119.999996,-86 0,-25 29.999996,0 0,25 z m 39.999996,0 0,-25 30,0 0,25 z m 40,0 0,-25 30,0 0,25 z m 40,0 0,-25 30,0 0,25 z"
           inkscape:connector-curvature="0"
           style="fill:#c6782e" />
        <path
           id="rect5398-3"
           d="m 99.500004,438.29986 0,-25 29.999996,0 0,25 z m 39.999996,0 0,-25 30,0 0,25 z m 40,0 0,-25 30,0 0,25 z m 40,0 0,-25 30,0 0,25 z m -119.999996,-251 0,-61 29.999996,0 0,61 z m 39.999996,0 0,-61 30,0 0,61 z m 40,0 0,-61 30,0 0,61 z m 40,0 0,-61 30,0 0,61 z"
           inkscape:connector-curvature="0"
           style="fill:#333333" />
      </g>
      <path
         id="sparePlate350"
         d="m 3.000004,40.99986 0,509 342.999996,0 0,-509 z m 33.49804,29.5 c 13.80712,0 24.99996,11.19288 24.99996,25 0,13.80712 -11.19284,25 -24.99996,25 -13.80712,0 -25,-11.19288 -25,-25 0,-13.80712 11.19288,-25 25,-25 z m 0,2.25 c -12.56448,0 -22.75,10.18552 -22.75,22.75 0,12.56448 10.18552,22.75 22.75,22.75 12.56448,0 22.74996,-10.18552 22.74996,-22.75 0,-12.56448 -10.18548,-22.75 -22.74996,-22.75 z M 293,107.49986 c 1.6569,0 3,1.34315 3,3 0,1.65685 -1.3431,3 -3,3 -1.6568,0 -3,-1.34315 -3,-3 0,-1.65685 1.3432,-3 3,-3 z m 32,0 c 1.6569,0 3,1.34315 3,3 0,1.65685 -1.3431,3 -3,3 -1.6568,0 -3,-1.34315 -3,-3 0,-1.65685 1.3432,-3 3,-3 z m -32,97.5 c 1.6569,0 3,1.34315 3,3 0,1.65685 -1.3431,3 -3,3 -1.6568,0 -3,-1.34315 -3,-3 0,-1.65685 1.3432,-3 3,-3 z m 32,0 c 1.6569,0 3,1.34315 3,3 0,1.65685 -1.3431,3 -3,3 -1.6568,0 -3,-1.34315 -3,-3 0,-1.65685 1.3432,-3 3,-3 z m -32,87.5 c 1.6569,0 3,1.34315 3,3 0,1.65685 -1.3431,3 -3,3 -1.6568,0 -3,-1.34315 -3,-3 0,-1.65685 1.3432,-3 3,-3 z m 32,0 c 1.6569,0 3,1.34315 3,3 0,1.65685 -1.3431,3 -3,3 -1.6568,0 -3,-1.34315 -3,-3 0,-1.65685 1.3432,-3 3,-3 z m -32,87.5 c 1.6569,0 3,1.34315 3,3 0,1.65685 -1.3431,3 -3,3 -1.6568,0 -3,-1.34315 -3,-3 0,-1.65685 1.3432,-3 3,-3 z m 32,0 c 1.6569,0 3,1.34315 3,3 0,1.65685 -1.3431,3 -3,3 -1.6568,0 -3,-1.34315 -3,-3 0,-1.65685 1.3432,-3 3,-3 z m -288.501956,90.5 c 13.80712,0 24.99996,11.19288 24.99996,25 0,13.80712 -11.19284,25 -24.99996,25 -13.80712,0 -25,-11.19288 -25,-25 0,-13.80712 11.19288,-25 25,-25 z m 0,2.25 c -12.56448,0 -22.75,10.18552 -22.75,22.75 0,12.56448 10.18552,22.75 22.75,22.75 12.56448,0 22.74996,-10.18552 22.74996,-22.75 0,-12.56448 -10.18548,-22.75 -22.74996,-22.75 z M 293,477.49986 c 1.6569,0 3,1.34315 3,3 0,1.65685 -1.3431,3 -3,3 -1.6568,0 -3,-1.34315 -3,-3 0,-1.65685 1.3432,-3 3,-3 z m 32,0 c 1.6569,0 3,1.34315 3,3 0,1.65685 -1.3431,3 -3,3 -1.6568,0 -3,-1.34315 -3,-3 0,-1.65685 1.3432,-3 3,-3 z"
         overflow="visible"
         inkscape:connector-curvature="0"
         style="overflow:visible;fill:#e0e0e0;stroke:#000000;stroke-width:0.80000001;stroke-linecap:round" />
      <g
         id="sideShelf350"
         style="fill:#e0e0e0;stroke:#000000;stroke-width:0.49999982;stroke-linecap:round">
        <path
           id="path4303"
           d="m 242.4961,11.80102 -15,0 0,-5 15,0 z m -20.5605,-2.5 c 0,1.24264 -1.00736,2.25 -2.25,2.25 -1.24264,0 -2.25,-1.00736 -2.25,-2.25 0,-1.24264 1.00736,-2.25 2.25,-2.25 1.24264,0 2.25,1.00736 2.25,2.25 z m -6.6153,0 c 0,1.79493 -1.45507,3.25 -3.25,3.25 -1.79493,0 -3.25,-1.45507 -3.25,-3.25 0,-1.79493 1.45507,-3.25 3.25,-3.25 1.79493,0 3.25,1.45507 3.25,3.25 z m -8.6172,0 c 0,1.24264 -1.00736,2.25 -2.25,2.25 -1.24264,0 -2.25,-1.00736 -2.25,-2.25 0,-1.24264 1.00736,-2.25 2.25,-2.25 1.24264,0 2.25,1.00736 2.25,2.25 z M 197,29.84986 l -45,0 0,-30.00001 45,0 z M 146.7969,9.30102 c 0,1.24264 -1.00736,2.25 -2.25,2.25 -1.24264,0 -2.25,-1.00736 -2.25,-2.25 0,-1.24264 1.00736,-2.25 2.25,-2.25 1.24264,0 2.25,1.00736 2.25,2.25 z m -6.6172,0 c 0,1.79493 -1.45507,3.25 -3.25,3.25 -1.79493,0 -3.25,-1.45507 -3.25,-3.25 0,-1.79493 1.45507,-3.25 3.25,-3.25 1.79493,0 3.25,1.45507 3.25,3.25 z m -8.6152,0 c 0,1.24264 -1.00736,2.25 -2.25,2.25 -1.24264,0 -2.25,-1.00736 -2.25,-2.25 0,-1.24264 1.00736,-2.25 2.25,-2.25 1.24264,0 2.25,1.00736 2.25,2.25 z m -10.0606,2.5 -15,0 0,-5 15,0 z M 3.000004,-0.15015 l 342.999996,0 0,40.50001 -342.999996,0 z"
           inkscape:connector-curvature="0" />
        <path
           id="sideShelf351"
           d="m 242.4961,579.19869 -15,0 0,5 15,0 z m -20.5605,2.5 c 0,-1.24264 -1.00736,-2.25 -2.25,-2.25 -1.24264,0 -2.25,1.00736 -2.25,2.25 0,1.24264 1.00736,2.25 2.25,2.25 1.24264,0 2.25,-1.00736 2.25,-2.25 z m -6.6153,0 c 0,-1.79493 -1.45507,-3.25 -3.25,-3.25 -1.79493,0 -3.25,1.45507 -3.25,3.25 0,1.79493 1.45507,3.25 3.25,3.25 1.79493,0 3.25,-1.45507 3.25,-3.25 z m -8.6172,0 c 0,-1.24264 -1.00736,-2.25 -2.25,-2.25 -1.24264,0 -2.25,1.00736 -2.25,2.25 0,1.24264 1.00736,2.25 2.25,2.25 1.24264,0 2.25,-1.00736 2.25,-2.25 z M 197,561.14986 l -45,0 0,30 45,0 z m -50.2031,20.54883 c 0,-1.24264 -1.00736,-2.25 -2.25,-2.25 -1.24264,0 -2.25,1.00736 -2.25,2.25 0,1.24264 1.00736,2.25 2.25,2.25 1.24264,0 2.25,-1.00736 2.25,-2.25 z m -6.6172,0 c 0,-1.79493 -1.45507,-3.25 -3.25,-3.25 -1.79493,0 -3.25,1.45507 -3.25,3.25 0,1.79493 1.45507,3.25 3.25,3.25 1.79493,0 3.25,-1.45507 3.25,-3.25 z m -8.6152,0 c 0,-1.24264 -1.00736,-2.25 -2.25,-2.25 -1.24264,0 -2.25,1.00736 -2.25,2.25 0,1.24264 1.00736,2.25 2.25,2.25 1.24264,0 2.25,-1.00736 2.25,-2.25 z m -10.0606,-2.5 -15,0 0,5 15,0 z m -118.503896,11.95117 342.999996,0 0,-40.5 -342.999996,0 z"
           inkscape:connector-curvature="0" />
      </g>
      <g
         id="DrawerHandle_350"
         style="fill:#e0e0e0;stroke:#000000;stroke-width:0.5;stroke-linecap:round">
        <path
           id="rect5436"
           d="m 3,40.449188 0,27 343,0 0,-27 z m 0,482.300782 0,27 343,0 0,-27 z"
           inkscape:connector-curvature="0" />
        <path
           id="path5444"
           d="m 18.000004,499.15024 0,68.59962 312.999996,0 0,-68.59962 z M 139.5,526.24986 l 70,0 c 5.54,0 10,4.46 10,10 0,5.54 -4.46,10 -10,10 l -70,0 c -5.54,0 -10,-4.46 -10,-10 0,-5.54 4.46,-10 10,-10 z M 18.000004,91.05018 l 0,-68.59958 312.999996,0 0,68.59958 z M 139.5,63.95058 l 70,0 c 5.54,0 10,-4.46 10,-10 0,-5.54 -4.46,-10 -10,-10 l -70,0 c -5.54,0 -10,4.46 -10,10 0,5.54 4.46,10 10,10 z"
           inkscape:connector-curvature="0" />
      </g>
      <path
         id="cutoutT6_4P"
         d="m 4e-6,-1.4e-4 0,591 348.999996,0 0,-591 z m 135.349596,237.5 149,0 0,116 -149,0 z"
         inkscape:connector-curvature="0"
         style="fill:#c5c7c4;fill-opacity:0.8;stroke:#808080;stroke-width:0.80000001;stroke-linecap:round" />
      <path
         id="motorT6_4P"
         d="m 4e-6,-1.4e-4 0,591 348.999996,0 0,-591 z m 134.800796,220 148.5,0 0,151 -148.5,0 z"
         inkscape:connector-curvature="0"
         style="fill:#c5c7c4;fill-opacity:0.8;stroke:#808080;stroke-width:0.80000001;stroke-linecap:round" />
    </g>
    <rect
       id="blind"
       height="591"
       width="349"
       x="0"
       y="0"
       style="fill:#c5c7c4;fill-opacity:0.8;stroke:#808080;stroke-width:0.80000007;stroke-linecap:round" />
    <g
       id="handle1"
       style="stroke:#4d4d4d;stroke-width:0.5">
      <path
         id="circle5456"
         d="m 186.24902,46.70023 a 11.75,11.75 0 0 1 -11.75,11.75 11.75,11.75 0 0 1 -11.75,-11.75 11.75,11.75 0 0 1 11.75,-11.75 11.75,11.75 0 0 1 11.75,11.75 z m 4.44948,5.00002 c -0.1618,2.93473 -0.7829,5.99875 -1.6558,8.66071 -0.8729,2.66195 -2.136,5.05919 -3.6968,7.07242 -3.1217,4.02645 -6.1342,6.51687 -10.8976,6.51687 -4.7635,0 -7.675,-2.49042 -10.7966,-6.51687 -1.5608,-2.01323 -2.8239,-4.41047 -3.6968,-7.07242 -0.8729,-2.66196 -1.4967,-5.72583 -1.6558,-8.66071 -0.1569,-2.89204 -0.05,-5.86298 0.6991,-8.66071 0.6748,-2.52021 1.9172,-5.05919 3.3529,-7.07242 1.4358,-2.01323 3.1693,-3.64244 5.1393,-4.76836 1.97,-1.12591 4.6766,-1.74851 7.0584,-1.74851 2.3817,0 5.0821,0.6226 7.0427,1.74851 1.9606,1.12592 3.6816,2.75513 5.1049,4.76836 1.4233,2.01323 2.6523,4.555 3.3186,7.07242 0.741,2.79948 0.8429,5.76922 0.6835,8.66071 z"
         inkscape:connector-curvature="0"
         style="fill:#575d5e;stroke-linecap:round;stroke-linejoin:round" />
      <circle
         id="circle5458"
         cx="174.49902"
         cy="46.700233"
         r="8.6000004"
         style="fill:#999999;stroke-linecap:round;stroke-linejoin:round" />
      <path
         id="path5460"
         d="m 173.55273,38.136719 0,4.455078 c -1.9379,0.4371 -3.31545,2.142675 -3.31835,4.109375 0,1.9673 1.3778,3.672175 3.3164,4.109375 l 0,4.453125 1.89649,0 0,-4.455078 c 1.938,-0.437 3.3135,-2.140722 3.3164,-4.107422 0,-1.9674 -1.3778,-3.672275 -3.3164,-4.109375 l 0,-4.455078 z M 174.5,45.201172 a 1.5,1.5 0 0 1 1.5,1.5 1.5,1.5 0 0 1 -1.5,1.5 1.5,1.5 0 0 1 -1.5,-1.5 1.5,1.5 0 0 1 1.5,-1.5 z"
         transform="translate(0,-3.052e-5)"
         inkscape:connector-curvature="0"
         style="fill:#808080" />
    </g>
    <g
       id="handle2"
       style="stroke:#4d4d4d;stroke-width:0.5">
      <path
         id="path4221"
         d="m 186.24902,544.29929 a 11.75,11.75 0 0 0 -11.75,-11.75 11.75,11.75 0 0 0 -11.75,11.75 11.75,11.75 0 0 0 11.75,11.75 11.75,11.75 0 0 0 11.75,-11.75 z m 4.44948,-5.00002 c -0.1618,-2.93473 -0.7829,-5.99875 -1.6558,-8.66071 -0.8729,-2.66195 -2.136,-5.05919 -3.6968,-7.07242 -3.1217,-4.02645 -6.1342,-6.51687 -10.8976,-6.51687 -4.7635,0 -7.675,2.49042 -10.7966,6.51687 -1.5608,2.01323 -2.8239,4.41047 -3.6968,7.07242 -0.8729,2.66196 -1.4967,5.72583 -1.6558,8.66071 -0.1569,2.89204 -0.05,5.86298 0.6991,8.66071 0.6748,2.52021 1.9172,5.05919 3.3529,7.07242 1.4358,2.01323 3.1693,3.64244 5.1393,4.76836 1.97,1.12591 4.6766,1.74851 7.0584,1.74851 2.3817,0 5.0821,-0.6226 7.0427,-1.74851 1.9606,-1.12592 3.6816,-2.75513 5.1049,-4.76836 1.4233,-2.01323 2.6523,-4.555 3.3186,-7.07242 0.741,-2.79948 0.8429,-5.76922 0.6835,-8.66071 z"
         inkscape:connector-curvature="0"
         style="fill:#575d5e;stroke-linecap:round;stroke-linejoin:round" />
      <circle
         id="circle4223"
         cx="174.49902"
         cy="-544.29932"
         r="8.6000004"
         transform="scale(1,-1)"
         style="fill:#999999;stroke-linecap:round;stroke-linejoin:round" />
      <path
         id="path4225"
         d="m 173.55273,552.86283 0,-4.45508 c -1.9379,-0.4371 -3.31545,-2.14267 -3.31835,-4.10937 0,-1.9673 1.3778,-3.67218 3.3164,-4.10938 l 0,-4.45312 1.89649,0 0,4.45508 c 1.938,0.437 3.3135,2.14072 3.3164,4.10742 0,1.9674 -1.3778,3.67227 -3.3164,4.10937 l 0,4.45508 z M 174.5,545.79838 a 1.5,1.5 0 0 0 1.5,-1.5 1.5,1.5 0 0 0 -1.5,-1.5 1.5,1.5 0 0 0 -1.5,1.5 1.5,1.5 0 0 0 1.5,1.5 z"
         inkscape:connector-curvature="0"
         style="fill:#808080" />
    </g>
    <text
       id="textBottom"
       line-height="125%"
       style="font-size:20px;line-height:125%;font-family:sans-serif;letter-spacing:0;word-spacing:0;text-anchor:middle;overflow:visible"
       transform="matrix(0,-1,1,0,0,0)"
       x="-295.29004"
       xml:space="preserve"
       y="329.14603"
       sodipodi:linespacing="125%"><tspan
         id="tspan4155-8"
         x="-295.29004"
         y="329.14603">Text</tspan></text>
  </g>
</svg>
