<?xml version="1.0" encoding="UTF-8" standalone="no"?>
<!-- Created with Inkscape (http://www.inkscape.org/) -->

<svg
   xmlns:dc="http://purl.org/dc/elements/1.1/"
   xmlns:cc="http://creativecommons.org/ns#"
   xmlns:rdf="http://www.w3.org/1999/02/22-rdf-syntax-ns#"
   xmlns:svg="http://www.w3.org/2000/svg"
   xmlns="http://www.w3.org/2000/svg"
   xmlns:sodipodi="http://sodipodi.sourceforge.net/DTD/sodipodi-0.dtd"
   xmlns:inkscape="http://www.inkscape.org/namespaces/inkscape"
   width="871mm"
   height="198.00032mm"
   viewBox="0 0 871 198.00033"
   version="1.1"
   id="svg834"
   inkscape:version="0.92.4 (5da689c313, 2019-01-14)"
   sodipodi:docname="RBBS_din_rail_kit.svg">
  <defs
     id="defs828" />
  <sodipodi:namedview
     id="base"
     pagecolor="#ffffff"
     bordercolor="#666666"
     borderopacity="1.0"
     inkscape:pageopacity="0.0"
     inkscape:pageshadow="2"
     inkscape:zoom="0.38308632"
     inkscape:cx="483.97052"
     inkscape:cy="-50.27385"
     inkscape:document-units="mm"
     inkscape:current-layer="layer1"
     showgrid="false"
     inkscape:window-width="1600"
     inkscape:window-height="1137"
     inkscape:window-x="1912"
     inkscape:window-y="-8"
     inkscape:window-maximized="1"
     fit-margin-top="0"
     fit-margin-left="0"
     fit-margin-right="0"
     fit-margin-bottom="0" />
  <metadata
     id="metadata831">
    <rdf:RDF>
      <cc:Work
         rdf:about="">
        <dc:format>image/svg+xml</dc:format>
        <dc:type
           rdf:resource="http://purl.org/dc/dcmitype/StillImage" />
        <dc:title />
      </cc:Work>
    </rdf:RDF>
  </metadata>
  <g
     inkscape:label="Layer 1"
     inkscape:groupmode="layer"
     id="layer1"
     transform="translate(33.319715,104.17978)">
    <path
       style="fill:#c5c7c4;fill-opacity:1;fill-rule:evenodd;stroke-width:0.81627929"
       d="M -32.944539,-104.17978 V 93.820536 H 453.55546 V -104.17978 Z m 16.902238,7.14375 a 4.0758217,4.11774 0 0 1 4.076202,4.118095 h 0.006 v 12.628169 a 8.9084379,9.0000584 0 0 1 4.8296493,7.992277 8.9084379,9.0000584 0 0 1 -4.8296493,7.999513 v 12.621451 a 4.0758217,4.11774 0 0 1 -4.076201,4.117578 4.0758217,4.11774 0 0 1 -4.075687,-4.117578 h -0.0061 v -12.628687 a 8.9084379,9.0000584 0 0 1 -4.829649,-7.992277 8.9084379,9.0000584 0 0 1 4.82965,-7.998995 v -12.621451 a 4.0758217,4.11774 0 0 1 4.075687,-4.118095 z m 456.409071,0 a 4.0758222,4.1177133 0 0 1 4.07619,4.118095 h 0.006 v 12.628169 a 8.9084391,8.9999999 0 0 1 4.82976,7.992277 8.9084391,8.9999999 0 0 1 -4.82966,7.999513 v 12.621451 a 4.0758222,4.1177133 0 0 1 -4.0762,4.117578 4.0758222,4.1177133 0 0 1 -4.0757,-4.117578 h -0.006 v -12.628687 a 8.9084391,8.9999999 0 0 1 -4.82974,-7.992277 8.9084391,8.9999999 0 0 1 4.82965,-7.998995 v -12.621451 a 4.0758222,4.1177133 0 0 1 4.0757,-4.118095 z M -3.5466943,-28.179769 H 424.15761 V 17.820525 H -3.5466943 Z M -16.042301,28.464318 a 4.0758222,4.1177133 0 0 1 4.076202,4.118094 h 0.006 v 12.628171 a 8.9084391,8.9999999 0 0 1 4.8296501,7.992276 8.9084391,8.9999999 0 0 1 -4.8296501,7.999513 v 12.621451 a 4.0758222,4.1177133 0 0 1 -4.076201,4.117578 4.0758222,4.1177133 0 0 1 -4.075687,-4.117578 h -0.0061 V 61.195136 a 8.9084391,8.9999999 0 0 1 -4.829649,-7.992277 8.9084391,8.9999999 0 0 1 4.82965,-7.998994 V 32.582412 a 4.0758222,4.1177133 0 0 1 4.075687,-4.118094 z m 456.409071,0 a 4.0758222,4.1177133 0 0 1 4.07619,4.118094 h 0.006 v 12.628171 a 8.9084391,8.9999999 0 0 1 4.82964,7.992276 8.9084391,8.9999999 0 0 1 -4.82964,7.999513 v 12.621451 a 4.0758222,4.1177133 0 0 1 -4.07622,4.117578 4.0758222,4.1177133 0 0 1 -4.07568,-4.117578 h -0.006 V 61.195136 a 8.9084391,8.9999999 0 0 1 -4.82965,-7.992277 8.9084391,8.9999999 0 0 1 4.82965,-7.998994 V 32.582412 a 4.0758222,4.1177133 0 0 1 4.0757,-4.118094 z"
       id="rect1541"
       inkscape:connector-curvature="0" />
    <path
       style="fill:#c5c7c4;fill-opacity:1;fill-rule:evenodd;stroke-width:0.95900398"
       d="M -32.547073,-104.1798 V 93.820509 H 638.95293 V -104.1798 Z m 16.582086,7.143754 a 3.9986183,4.11774 0 0 1 3.998988,4.11809 h 0.0059 v 12.62819 a 8.7396967,9.0000584 0 0 1 4.738172,7.99227 8.7396967,9.0000584 0 0 1 -4.738172,7.99952 v 12.62195 a 3.9986183,4.11774 0 0 1 -3.998989,4.11758 3.9986183,4.11774 0 0 1 -3.998492,-4.11758 h -0.0059 v -12.6292 a 8.7396967,9.0000584 0 0 1 -4.738164,-7.99227 8.7396967,9.0000584 0 0 1 4.738164,-7.999 v -12.62146 a 3.9986183,4.11774 0 0 1 3.998493,-4.11809 z m 641.979537,5.1e-4 a 3.9986188,4.1177133 0 0 1 3.99901,4.11811 h 0.006 v 12.62817 a 8.7396976,8.9999999 0 0 1 4.73817,7.99226 8.7396976,8.9999999 0 0 1 -4.73817,7.99952 v 12.62145 a 3.9986188,4.1177133 0 0 1 -3.99901,4.11758 3.9986188,4.1177133 0 0 1 -3.99848,-4.11758 h -0.006 v -12.62867 a 8.7396976,8.9999999 0 0 1 -4.73817,-7.9923 8.7396976,8.9999999 0 0 1 4.73817,-7.99898 v -12.62145 a 3.9986188,4.1177133 0 0 1 3.99847,-4.11811 z M 8.029447,-28.179786 H 598.37593 v 46.0003 H 8.029447 Z m -23.994434,56.64409 a 3.9986188,4.1177133 0 0 1 3.998988,4.11811 h 0.0059 v 12.62816 a 8.7396976,8.9999999 0 0 1 4.738172,7.99227 8.7396976,8.9999999 0 0 1 -4.738172,7.99951 v 12.62144 a 3.9986188,4.1177133 0 0 1 -3.998989,4.11758 3.9986188,4.1177133 0 0 1 -3.998492,-4.11758 h -0.0059 v -12.62866 a 8.7396976,8.9999999 0 0 1 -4.738164,-7.99229 8.7396976,8.9999999 0 0 1 4.738164,-7.99899 v -12.62144 a 3.9986188,4.1177133 0 0 1 3.998493,-4.11811 z m 641.979537,0 a 3.9986188,4.1177133 0 0 1 3.99901,4.11811 h 0.006 v 12.62816 a 8.7396976,8.9999999 0 0 1 4.73817,7.99227 8.7396976,8.9999999 0 0 1 -4.73817,7.99951 v 12.62144 a 3.9986188,4.1177133 0 0 1 -3.99901,4.11758 3.9986188,4.1177133 0 0 1 -3.99848,-4.11758 h -0.006 v -12.62866 a 8.7396976,8.9999999 0 0 1 -4.73817,-7.99229 8.7396976,8.9999999 0 0 1 4.73817,-7.99899 v -12.62144 a 3.9986188,4.1177133 0 0 1 3.99847,-4.11811 z"
       id="rect1541-2"
       inkscape:connector-curvature="0" />
    <path
       style="fill:#c5c7c4;fill-opacity:1;fill-rule:evenodd;stroke-width:1.09221065"
       d="M -32.672797,-104.17978 V 93.820544 H 838.32721 V -104.17978 Z m 16.6833,7.143744 h 5.04e-4 a 4.0230257,4.11774 0 0 1 4.022894,4.11811 h 0.006 v 12.62817 a 8.7930433,9.0000584 0 0 1 4.767089,7.99227 8.7930433,9.0000584 0 0 1 -4.767089,7.99951 v 12.62198 a 4.0230257,4.11774 0 0 1 -4.023401,4.11758 4.0230257,4.11774 0 0 1 -4.022894,-4.11758 h -0.0055 v -12.62923 a 8.7930433,9.0000584 0 0 1 -4.767594,-7.99226 8.7930433,9.0000584 0 0 1 4.767594,-7.99899 v -12.62145 a 4.0230257,4.11774 0 0 1 4.022391,-4.11811 z m 841.299327,5.3e-4 a 4.0230262,4.1177133 0 0 1 4.02341,4.11808 h 0.006 v 12.62817 a 8.7930444,8.9999999 0 0 1 4.7671,7.9923 8.7930444,8.9999999 0 0 1 -4.7671,7.99949 v 12.62147 a 4.0230262,4.1177133 0 0 1 -4.02337,4.11758 4.0230262,4.1177133 0 0 1 -4.02292,-4.11758 h -0.006 v -12.6287 a 8.7930444,8.9999999 0 0 1 -4.76709,-7.99226 8.7930444,8.9999999 0 0 1 4.76709,-7.99902 v -12.62145 a 4.0230262,4.1177133 0 0 1 4.02288,-4.11808 z M 19.959564,-28.179766 H 785.69485 v 46.00027 H 19.959564 Z m -35.949061,56.64407 h 5.04e-4 a 4.0230262,4.1177133 0 0 1 4.023398,4.1181 h 0.0055 v 12.62817 a 8.7930444,8.9999999 0 0 1 4.767088,7.99227 8.7930444,8.9999999 0 0 1 -4.767088,7.99951 v 12.62145 a 4.0230262,4.1177133 0 0 1 -4.023401,4.11758 4.0230262,4.1177133 0 0 1 -4.022894,-4.11758 h -0.0055 v -12.62867 a 8.7930444,8.9999999 0 0 1 -4.767595,-7.99229 8.7930444,8.9999999 0 0 1 4.767595,-7.99899 v -12.62145 a 4.0230262,4.1177133 0 0 1 4.022391,-4.1181 z m 841.299327,0 a 4.0230262,4.1177133 0 0 1 4.02341,4.1181 h 0.006 v 12.62817 a 8.7930444,8.9999999 0 0 1 4.7671,7.99227 8.7930444,8.9999999 0 0 1 -4.7671,7.99951 v 12.62145 a 4.0230262,4.1177133 0 0 1 -4.02337,4.11758 4.0230262,4.1177133 0 0 1 -4.02292,-4.11758 h -0.006 v -12.62867 a 8.7930444,8.9999999 0 0 1 -4.76709,-7.99229 8.7930444,8.9999999 0 0 1 4.76709,-7.99899 v -12.62145 a 4.0230262,4.1177133 0 0 1 4.02288,-4.1181 z"
       id="rect1541-20"
       inkscape:connector-curvature="0" />
    <text
       id="textBottom"
       line-height="125%"
       style="font-size:20.00004959px;line-height:125%;font-family:sans-serif;letter-spacing:0;word-spacing:0;text-anchor:middle;overflow:visible;stroke-width:1.00000226"
       x="425.52576"
       xml:space="preserve"
       y="-77.832184"
       transform="scale(0.99999717,1.0000028)"><tspan
         id="tspan4155-8-6"
         x="425.52576"
         y="-77.832184"
         style="stroke-width:1.00000226">Text</tspan></text>
  </g>
</svg>
