<?xml version="1.0" encoding="UTF-8" standalone="no"?>
<svg
   xmlns:dc="http://purl.org/dc/elements/1.1/"
   xmlns:cc="http://creativecommons.org/ns#"
   xmlns:rdf="http://www.w3.org/1999/02/22-rdf-syntax-ns#"
   xmlns:svg="http://www.w3.org/2000/svg"
   xmlns="http://www.w3.org/2000/svg"
   xmlns:sodipodi="http://sodipodi.sourceforge.net/DTD/sodipodi-0.dtd"
   xmlns:inkscape="http://www.inkscape.org/namespaces/inkscape"
   id="svg4391"
   height="1000"
   overflow="visible"
   viewBox="0 0 1200 1000"
   width="1200"
   version="1.1"
   inkscape:version="0.91 r13725"
   sodipodi:docname="RBBS_xLineH_BottomPanel.svg"
   style="overflow:visible">
  <metadata
     id="metadata28">
    <rdf:RDF>
      <cc:Work
         rdf:about="">
        <dc:format>image/svg+xml</dc:format>
        <dc:type
           rdf:resource="http://purl.org/dc/dcmitype/StillImage" />
        <dc:title></dc:title>
      </cc:Work>
    </rdf:RDF>
  </metadata>
  <defs
     id="defs26" />
  <sodipodi:namedview
     pagecolor="#ffffff"
     bordercolor="#666666"
     borderopacity="1"
     objecttolerance="10"
     gridtolerance="10"
     guidetolerance="10"
     inkscape:pageopacity="0"
     inkscape:pageshadow="2"
     inkscape:window-width="1920"
     inkscape:window-height="1017"
     id="namedview24"
     showgrid="false"
     fit-margin-top="0"
     fit-margin-left="0"
     fit-margin-right="0"
     fit-margin-bottom="0"
     inkscape:zoom="0.236"
     inkscape:cx="600.5"
     inkscape:cy="838.48305"
     inkscape:window-x="-8"
     inkscape:window-y="-8"
     inkscape:window-maximized="1"
     inkscape:current-layer="svg4391" />
  <g
     id="layer1"
     transform="translate(0.5,0.5)">
    <g
       id="frame"
       style="fill:#f2f2f2;fill-rule:evenodd;stroke:#000000;stroke-linecap:square">
      <rect
         id="frameLeft"
         height="999"
         width="56.500004"
         x="0"
         y="0" />
      <rect
         id="frameCenter"
         height="999"
         width="48.5"
         x="650"
         y="0" />
      <rect
         id="frameTop"
         height="56.500004"
         width="1199"
         y="0.00011391"
         x="0" />
      <rect
         id="frameRight"
         height="999"
         width="56.500004"
         x="1142.5"
         y="0" />
      <rect
         id="frameBottom"
         height="56.500004"
         width="1199"
         y="942.5"
         x="0" />
    </g>
    <rect
       id="panel1"
       height="511.20001"
       width="591.70001"
       x="57.400002"
       y="57.400002"
       style="fill:#c5c7c4;stroke:#000000;stroke-width:0.80000001;stroke-linecap:round" />
    <g
       id="panel2"
       style="stroke-linecap:round">
      <path
         id="rect5243"
         d="m 57.400024,799.6001 591.700016,0 0,142 -591.700016,0 z m 4e-6,-230.30017 591.700012,0 0,229.5 -591.700012,0 z"
         inkscape:connector-curvature="0"
         style="fill:#c5c7c4;stroke:#000000;stroke-width:0.80000001" />
      <path
         id="rect4568"
         d="m 201.5,642.79993 0,82.5 5.5,0 0,-82.5 z m 15.5,0 0,82.5 5.5,0 0,-82.5 z m 82,0 0,82.5 5.5,0 0,-82.5 z m 15.5,0 0,82.5 5.5,0 0,-82.5 z m 72,0 0,82.5 5.5,0 0,-82.5 z m 15.5,0 0,82.5 5.5,0 0,-82.5 z m 82,0 0,82.5 5.5,0 0,-82.5 z m 15.5,0 0,82.5 5.5,0 0,-82.5 z"
         inkscape:connector-curvature="0"
         style="fill:#ffffff;stroke:#000000" />
      <path
         id="path4395"
         d="m 407.74713,832.63558 0,75.92904 m 12.0005,-75.92904 0,75.92904 m 12.0005,-75.92904 0,75.92904 m 12.00049,-75.92904 0,75.92904 m 12.0005,-75.92904 0,75.92904 m 12.0005,-75.92904 0,75.92904 m 12.0005,-75.92904 0,75.92904 m 12.0005,-75.92904 0,75.92904 m 12.0005,-75.92904 0,75.92904 m 12.0005,-75.92904 0,75.92904 m 12.0005,-75.92904 0,75.92904 m 12.0005,-75.92904 0,75.92904 m -144.00549,-75.92904 0,75.92904 m -12,-75.92904 0,75.92904 m -11.99988,-75.92904 0,75.92904 m -168.99994,-75.92904 0,75.92904 m 12.0005,-75.92904 0,75.92904 m 12.0005,-75.92904 0,75.92904 m 12.0005,-75.92904 0,75.92904 m 12.0005,-75.92904 0,75.92904 m 12.0005,-75.92904 0,75.92904 m 12.0005,-75.92904 0,75.92904 m 12.0005,-75.92904 0,75.92904 m 12.0005,-75.92904 0,75.92904 m 12.0005,-75.92904 0,75.92904 m 12.0005,-75.92904 0,75.92904 m 12.0005,-75.92904 0,75.92904 m -144.0055,-75.92904 0,75.92904 m -12,-75.92904 0,75.92904 m -11.99987,-75.92904 0,75.92904"
         inkscape:connector-curvature="0"
         style="fill:none;stroke:#ffffff;stroke-width:5;stroke-dasharray:15, 15" />
    </g>
    <path
       id="grid500L"
       d="m 407.74713,75.035579 0,75.929041 m 12.0005,-75.929041 0,75.929041 m 12.0005,-75.929041 0,75.929041 m 12.00049,-75.929041 0,75.929041 m 12.0005,-75.929041 0,75.929041 m 12.0005,-75.929041 0,75.929041 m 12.0005,-75.929041 0,75.929041 m 12.0005,-75.929041 0,75.929041 m 12.0005,-75.929041 0,75.929041 m 12.0005,-75.929041 0,75.929041 m 12.0005,-75.929041 0,75.929041 m 12.0005,-75.929041 0,75.929041 m -144.00549,-75.929041 0,75.929041 m -12,-75.929041 0,75.929041 m -11.99988,-75.929041 0,75.929041 m -168.99994,-75.929041 0,75.929041 m 12.0005,-75.929041 0,75.929041 m 12.0005,-75.929041 0,75.929041 m 12.0005,-75.929041 0,75.929041 m 12.0005,-75.929041 0,75.929041 m 12.0005,-75.929041 0,75.929041 m 12.0005,-75.929041 0,75.929041 m 12.0005,-75.929041 0,75.929041 m 12.0005,-75.929041 0,75.929041 m 12.0005,-75.929041 0,75.929041 m 12.0005,-75.929041 0,75.929041 m 12.0005,-75.929041 0,75.929041 m -144.0055,-75.929041 0,75.929041 m -12,-75.929041 0,75.929041 m -11.99987,-75.929041 0,75.929041"
       inkscape:connector-curvature="0"
       style="fill:none;stroke:#ffffff;stroke-width:5;stroke-linecap:round;stroke-dasharray:15, 15" />
    <path
       id="grid700L"
       d="m 407.74713,275.03559 0,75.92904 m 12.0005,-75.92904 0,75.92904 m 12.0005,-75.92904 0,75.92904 m 12.00049,-75.92904 0,75.92904 m 12.0005,-75.92904 0,75.92904 m 12.0005,-75.92904 0,75.92904 m 12.0005,-75.92904 0,75.92904 m 12.0005,-75.92904 0,75.92904 m 12.0005,-75.92904 0,75.92904 m 12.0005,-75.92904 0,75.92904 m 12.0005,-75.92904 0,75.92904 m 12.0005,-75.92904 0,75.92904 m -144.00549,-75.92904 0,75.92904 m -12,-75.92904 0,75.92904 m -11.99988,-75.92904 0,75.92904 m -168.99994,-75.92904 0,75.92904 m 12.0005,-75.92904 0,75.92904 m 12.0005,-75.92904 0,75.92904 m 12.0005,-75.92904 0,75.92904 m 12.0005,-75.92904 0,75.92904 m 12.0005,-75.92904 0,75.92904 m 12.0005,-75.92904 0,75.92904 m 12.0005,-75.92904 0,75.92904 m 12.0005,-75.92904 0,75.92904 m 12.0005,-75.92904 0,75.92904 m 12.0005,-75.92904 0,75.92904 m 12.0005,-75.92904 0,75.92904 m -144.0055,-75.92904 0,75.92904 m -12,-75.92904 0,75.92904 m -11.99987,-75.92904 0,75.92904"
       inkscape:connector-curvature="0"
       style="fill:none;stroke:#ffffff;stroke-width:5;stroke-linecap:round;stroke-dasharray:15, 15" />
    <path
       id="grid900L"
       d="m 407.74713,476.03559 0,73.92904 m 12.0005,-73.92904 0,73.92904 m 12.0005,-73.92904 0,73.92904 m 12.00049,-73.92904 0,73.92904 m 12.0005,-73.92904 0,73.92904 m 12.0005,-73.92904 0,73.92904 m 12.0005,-73.92904 0,73.92904 m 12.0005,-73.92904 0,73.92904 m 12.0005,-73.92904 0,73.92904 m 12.0005,-73.92904 0,73.92904 m 12.0005,-73.92904 0,73.92904 m 12.0005,-73.92904 0,73.92904 m -144.00549,-73.92904 0,73.92904 m -12,-73.92904 0,73.92904 m -11.99988,-73.92904 0,73.92904 m -168.99994,-73.92904 0,73.92904 m 12.0005,-73.92904 0,73.92904 m 12.0005,-73.92904 0,73.92904 m 12.0005,-73.92904 0,73.92904 m 12.0005,-73.92904 0,73.92904 m 12.0005,-73.92904 0,73.92904 m 12.0005,-73.92904 0,73.92904 m 12.0005,-73.92904 0,73.92904 m 12.0005,-73.92904 0,73.92904 m 12.0005,-73.92904 0,73.92904 m 12.0005,-73.92904 0,73.92904 m 12.0005,-73.92904 0,73.92904 m -144.0055,-73.92904 0,73.92904 m -12,-73.92904 0,73.92904 m -11.99987,-73.92904 0,73.92904"
       inkscape:connector-curvature="0"
       style="fill:none;stroke:#ffffff;stroke-width:5;stroke-linecap:round;stroke-dasharray:15, 15" />
    <rect
       id="panel4"
       height="372.10001"
       width="442.39999"
       x="699.29999"
       y="57.400002"
       style="fill:#c5c7c4;stroke:#000000;stroke-width:0.80000001;stroke-linecap:round" />
    <path
       id="flange"
       d="m 830.49958,98.700953 c -1.5188,0 -2.75,1.23122 -2.75,2.749997 0,1.51878 1.2312,2.75 2.75,2.75 1.5188,0 2.75,-1.23122 2.75,-2.75 0,-1.518777 -1.2312,-2.749997 -2.75,-2.749997 z m 180.00002,0 c -1.5188,0 -2.75,1.23122 -2.75,2.749997 0,1.51878 1.2312,2.75 2.75,2.75 1.5188,0 2.75,-1.23122 2.75,-2.75 0,-1.518777 -1.2312,-2.749997 -2.75,-2.749997 z M 830.49958,193.36697 c -1.5188,0 -2.75,1.23122 -2.75,2.75 0,1.51878 1.2312,2.75 2.75,2.75 1.5188,0 2.75,-1.23122 2.75,-2.75 0,-1.51878 -1.2312,-2.75 -2.75,-2.75 z m 180.00002,0 c -1.5188,0 -2.75,1.23122 -2.75,2.75 0,1.51878 1.2312,2.75 2.75,2.75 1.5188,0 2.75,-1.23122 2.75,-2.75 0,-1.51878 -1.2312,-2.75 -2.75,-2.75 z m -180.00002,94.66601 c -1.5188,0 -2.75,1.23122 -2.75,2.75 0,1.51878 1.2312,2.75 2.75,2.75 1.5188,0 2.75,-1.23122 2.75,-2.75 0,-1.51878 -1.2312,-2.75 -2.75,-2.75 z m 180.00002,0 c -1.5188,0 -2.75,1.23122 -2.75,2.75 0,1.51878 1.2312,2.75 2.75,2.75 1.5188,0 2.75,-1.23122 2.75,-2.75 0,-1.51878 -1.2312,-2.75 -2.75,-2.75 z m -180.00002,94.66798 c -1.5188,0 -2.75,1.23122 -2.75,2.75 0,1.51878 1.2312,2.75 2.75,2.75 1.5188,0 2.75,-1.23122 2.75,-2.75 0,-1.51878 -1.2312,-2.75 -2.75,-2.75 z m 180.00002,0 c -1.5188,0 -2.75,1.23122 -2.75,2.75 0,1.51878 1.2312,2.75 2.75,2.75 1.5188,0 2.75,-1.23122 2.75,-2.75 0,-1.51878 -1.2312,-2.75 -2.75,-2.75 z M 825.49998,70.950111 l 190.00002,0 0,344.999999 -190.00002,0 z"
       inkscape:connector-curvature="0"
       style="fill:#c5c7c4;stroke:#000000;stroke-width:0.5;stroke-linecap:round" />
    <rect
       id="panel5"
       height="511"
       width="442.20001"
       x="699.39996"
       y="430.60013"
       style="fill:#c5c7c4;stroke:#000000;stroke-width:0.79999983;stroke-linecap:round" />
    <path
       id="grid500R"
       d="m 836.49725,448.13561 0,75.92904 m 11.9999,-75.92904 0,75.92904 m 12,-75.92904 0,75.92904 m 144.00555,-75.92904 0,75.92904 m -12.00055,-75.92904 0,75.92904 m -12.0005,-75.92904 0,75.92904 m -12.0005,-75.92904 0,75.92904 m -12.0005,-75.92904 0,75.92904 m -12.0005,-75.92904 0,75.92904 m -12.0005,-75.92904 0,75.92904 m -12.0005,-75.92904 0,75.92904 m -12.0005,-75.92904 0,75.92904 m -12.0005,-75.92904 0,75.92904 m -12.0005,-75.92904 0,75.92904 m -12.0005,-75.92904 0,75.92904"
       inkscape:connector-curvature="0"
       style="fill:none;stroke:#ffffff;stroke-width:5;stroke-linecap:round;stroke-dasharray:15, 15" />
    <path
       id="grid700R"
       d="m 836.49728,649.13561 0,73.92904 m 11.99987,-73.92904 0,73.92904 m 12,-73.92904 0,73.92904 m 144.00555,-73.92904 0,73.92904 m -12.00052,-73.92904 0,73.92904 m -12.0005,-73.92904 0,73.92904 m -12.0005,-73.92904 0,73.92904 m -12.00053,-73.92904 0,73.92904 m -12.0005,-73.92904 0,73.92904 m -12.0005,-73.92904 0,73.92904 m -12.0005,-73.92904 0,73.92904 m -12.0005,-73.92904 0,73.92904 m -12.0005,-73.92904 0,73.92904 m -12.0005,-73.92904 0,73.92904 m -12.0005,-73.92904 0,73.92904"
       inkscape:connector-curvature="0"
       style="fill:none;stroke:#ffffff;stroke-width:5;stroke-linecap:round;stroke-dasharray:15, 15" />
    <path
       id="grid900R"
       d="m 836.49727,849.13558 0,73.92904 m 11.99987,-73.92904 0,73.92904 m 12,-73.92904 0,73.92904 m 144.00556,-73.92904 0,73.92904 m -12.00053,-73.92904 0,73.92904 m -12.0005,-73.92904 0,73.92904 m -12.0005,-73.92904 0,73.92904 m -12.00053,-73.92904 0,73.92904 m -12.0005,-73.92904 0,73.92904 m -12.0005,-73.92904 0,73.92904 m -12.0005,-73.92904 0,73.92904 m -12.0005,-73.92904 0,73.92904 m -12.0005,-73.92904 0,73.92904 m -12.0005,-73.92904 0,73.92904 m -12.0005,-73.92904 0,73.92904"
       inkscape:connector-curvature="0"
       style="fill:none;stroke:#ffffff;stroke-width:5;stroke-linecap:round;stroke-dasharray:15, 15" />
  </g>
</svg>
