<?xml version="1.0" encoding="UTF-8" standalone="no"?>
<svg
   xmlns:dc="http://purl.org/dc/elements/1.1/"
   xmlns:cc="http://creativecommons.org/ns#"
   xmlns:rdf="http://www.w3.org/1999/02/22-rdf-syntax-ns#"
   xmlns:svg="http://www.w3.org/2000/svg"
   xmlns="http://www.w3.org/2000/svg"
   xmlns:sodipodi="http://sodipodi.sourceforge.net/DTD/sodipodi-0.dtd"
   xmlns:inkscape="http://www.inkscape.org/namespaces/inkscape"
   id="svg4391"
   height="1000"
   overflow="visible"
   viewBox="0 0 1200 1000"
   width="1200"
   version="1.1"
   inkscape:version="0.91 r13725"
   sodipodi:docname="RBBS_xLineH_WithoutPanel.svg"
   style="overflow:visible">
  <metadata
     id="metadata28">
    <rdf:RDF>
      <cc:Work
         rdf:about="">
        <dc:format>image/svg+xml</dc:format>
        <dc:type
           rdf:resource="http://purl.org/dc/dcmitype/StillImage" />
        <dc:title></dc:title>
      </cc:Work>
    </rdf:RDF>
  </metadata>
  <defs
     id="defs26" />
  <sodipodi:namedview
     pagecolor="#ffffff"
     bordercolor="#666666"
     borderopacity="1"
     objecttolerance="10"
     gridtolerance="10"
     guidetolerance="10"
     inkscape:pageopacity="0"
     inkscape:pageshadow="2"
     inkscape:window-width="1920"
     inkscape:window-height="1017"
     id="namedview24"
     showgrid="false"
     inkscape:zoom="0.3337544"
     inkscape:cx="-311.66231"
     inkscape:cy="191.0389"
     inkscape:window-x="-8"
     inkscape:window-y="-8"
     inkscape:window-maximized="1"
     inkscape:current-layer="svg4391"
     fit-margin-top="0"
     fit-margin-left="0"
     fit-margin-right="0"
     fit-margin-bottom="0" />
  <g
     id="layer1"
     transform="translate(0.5,0.5)">
    <g
       id="frame"
       style="fill:#f2f2f2;fill-rule:evenodd;stroke:#000000;stroke-linecap:square">
      <rect
         id="frameLeft"
         height="999"
         width="56.500004"
         x="0"
         y="0" />
      <rect
         id="frameCenter"
         height="999"
         width="48.5"
         x="650"
         y="0" />
      <rect
         id="frameTop"
         height="56.500004"
         width="1199"
         y="0.00011391"
         x="0" />
      <rect
         id="frameRight"
         height="999"
         width="56.500004"
         x="1142.5"
         y="0" />
      <rect
         id="frameBottom"
         height="56.500004"
         width="1199"
         y="942.5"
         x="0" />
    </g>
    <g
       id="panel2"
       style="stroke-linecap:round">
      <rect
         style="fill:#c5c7c4;fill-opacity:1;stroke:#000000;stroke-width:0.80000001;stroke-miterlimit:4;stroke-dasharray:none;stroke-opacity:1"
         id="rect3362"
         width="592.25439"
         height="229.98712"
         x="57.179039"
         y="567.40771" />
      <path
         id="rect4568"
         d="m 201.5,642.79993 0,82.5 5.5,0 0,-82.5 z m 15.5,0 0,82.5 5.5,0 0,-82.5 z m 82,0 0,82.5 5.5,0 0,-82.5 z m 15.5,0 0,82.5 5.5,0 0,-82.5 z m 72,0 0,82.5 5.5,0 0,-82.5 z m 15.5,0 0,82.5 5.5,0 0,-82.5 z m 82,0 0,82.5 5.5,0 0,-82.5 z m 15.5,0 0,82.5 5.5,0 0,-82.5 z"
         inkscape:connector-curvature="0"
         style="fill:#ffffff;stroke:#000000" />
    </g>
  </g>
</svg>
