<?xml version="1.0" encoding="UTF-8" standalone="no"?>
<svg
   xmlns:dc="http://purl.org/dc/elements/1.1/"
   xmlns:cc="http://creativecommons.org/ns#"
   xmlns:rdf="http://www.w3.org/1999/02/22-rdf-syntax-ns#"
   xmlns:svg="http://www.w3.org/2000/svg"
   xmlns="http://www.w3.org/2000/svg"
   xmlns:sodipodi="http://sodipodi.sourceforge.net/DTD/sodipodi-0.dtd"
   xmlns:inkscape="http://www.inkscape.org/namespaces/inkscape"
   id="svg2"
   height="216.99196"
   overflow="visible"
   viewBox="0 0 173.44002 216.99196"
   width="173.44002"
   version="1.1"
   inkscape:version="0.92.4 (5da689c313, 2019-01-14)"
   sodipodi:docname="XT5_27.11.19.svg"
   style="overflow:visible;shape-rendering:crispEdges">
  <metadata
     id="metadata178">
    <rdf:RDF>
      <cc:Work
         rdf:about="">
        <dc:format>image/svg+xml</dc:format>
        <dc:type
           rdf:resource="http://purl.org/dc/dcmitype/StillImage" />
        <dc:title></dc:title>
      </cc:Work>
    </rdf:RDF>
  </metadata>
  <defs
     id="defs176" />
  <sodipodi:namedview
     pagecolor="#ffffff"
     bordercolor="#666666"
     borderopacity="1"
     objecttolerance="10"
     gridtolerance="10"
     guidetolerance="10"
     inkscape:pageopacity="0"
     inkscape:pageshadow="2"
     inkscape:window-width="1600"
     inkscape:window-height="1137"
     id="namedview174"
     showgrid="false"
     inkscape:zoom="2.8284271"
     inkscape:cx="10.507972"
     inkscape:cy="82.858991"
     inkscape:window-x="1912"
     inkscape:window-y="-8"
     inkscape:window-maximized="1"
     inkscape:current-layer="svg2"
     fit-margin-top="0"
     fit-margin-left="0"
     fit-margin-right="0"
     fit-margin-bottom="0" />
  <clipPath
     id="a">
    <path
       id="path5"
       d="M 12.499999,-9.599609 V 50.40039 H 107.5 V -9.599609 Z M 21.699218,-3 h 9 v 9 h -9 z M 87.999999,3 H 101 V 33 H 87.999999 Z"
       inkscape:connector-curvature="0"
       style="shape-rendering:crispEdges" />
  </clipPath>
  <clipPath
     id="b">
    <path
       id="path8"
       d="M 5,56.400391 V 116.40039 H 135 V 56.400391 Z M 11,60.5 h 9 v 9 h -9 z m 105,8.849609 h 13 v 30 h -13 z"
       inkscape:connector-curvature="0"
       style="shape-rendering:crispEdges" />
  </clipPath>
  <clipPath
     id="c">
    <path
       id="path11"
       clip-path="url(#b)"
       d="M 21.000002,107.65 H 4.5 m 16.500002,1.5 H 4.5 m 16.500002,1.5 H 4.5 m 16.500002,1.5 H 4.5 m 16.500002,1.5 H 4.5 m 16.500002,1.5 H 4.5 m 16.500002,1.5 H 4.5 m 16.500002,-1.5 H 4.5 m 16.500002,1.5 H 4.5 m 2.750002,-8.75 v 8.5 m 1.5,-8.5 v 8.5 m 1.5,-8.5 v 8.5 m 1.5,-8.5 v 8.5 m 1.5,-8.5 v 8.5 m 1.5,-8.5 v 8.5 m 1.5,-8.5 v 8.5 m 1.5,-8.5 v 8.5 m 1.5,-8.5 v 8.5 m 1.5,-8.5 v 8.5 M 4.75,107.9 v 8.5 m 1.000002,-8.5 v 8.5 M 4.75,107.65 h 16.000002 v 9 H 4.75 Z M 5,109.15 H 4.5 m 0.5,1.5 H 4.5 m 0.5,1.5 H 4.5 m 0.5,1.5 H 4.5 m 0.5,1.5 H 4.5 m 0.5,1.5 H 4.5 m 0.5,1.5 H 4.5 m 0.5,1.5 H 4.5 m 0.5,1.5 H 4.5 m 0.5,-6 H 4.5 m 0.5,1.5 H 4.5 m 0.25,-8.75 v 8.5 m 0,-8.75 v 0 9 c -45.389655,5.06621 0,31.38952 0,-9 z M 21.000002,56.650387 H 4.5 m 16.500002,1.5 H 4.5 m 16.500002,1.5 H 4.5 m 16.500002,1.5 H 4.5 m 16.500002,1.5 H 4.5 m 16.500002,1.5 H 4.5 m 16.500002,1.5 H 4.5 m 16.500002,1.5 H 4.5 m 16.500002,1.5 H 4.5 m 16.500002,1.5 H 4.5 m 16.500002,1.5 H 4.5 m 16.500002,1.5 H 4.5 m 16.500002,1.5 H 4.5 m 16.500002,1.5 H 4.5 m 16.500002,1.5 H 4.5 m 16.500002,1.5 H 4.5 m 16.500002,1.5 H 4.5 m 16.500002,1.5 H 4.5 m 16.500002,1.5 H 4.5 m 16.500002,1.5 H 4.5 m 16.500002,1.5 H 4.5 m 16.500002,1.500002 H 4.5 m 16.500002,1.5 H 4.5 m 16.500002,1.5 H 4.5 m 16.500002,1.5 H 4.5 m 16.500002,1.5 H 4.5 m 16.500002,1.5 H 4.5 m 16.500002,1.5 H 4.5 m 16.500002,1.5 H 4.5 m 16.500002,1.500001 H 4.5 m 16.500002,1.5 H 4.5 m 16.500002,1.5 H 4.5 m 16.500002,1.5 H 4.5 m 16.500002,1.5 H 4.5 m 16.500002,1.5 H 4.5 M 7.250002,56.900387 v 50.500003 m 1.5,-50.500003 v 50.500003 m 1.5,-50.500003 v 50.500003 m 1.5,-50.500003 v 50.500003 m 1.5,-50.500003 v 50.500003 m 1.5,-50.500003 v 50.500003 m 1.5,-50.500003 v 50.500003 m 1.5,-50.500003 v 50.500003 m 1.5,-50.500003 v 50.500003 m 1.5,-50.500003 V 107.40039 M 4.75,56.900387 V 107.40039 M 5.750002,56.900387 V 107.40039 M 4.75,56.650387 H 20.750002 V 107.65039 H 4.75 Z m 0.25,1.5 H 4.5 m 0.5,1.5 H 4.5 m 0.5,1.5 H 4.5 m 0.5,1.5 H 4.5 m 0.5,1.5 H 4.5 m 0.5,1.5 H 4.5 m 0.5,1.5 H 4.5 m 0.5,1.5 H 4.5 m 0.5,1.5 H 4.5 m 0.5,1.5 H 4.5 m 0.5,1.5 H 4.5 m 0.5,1.5 H 4.5 m 0.5,1.5 H 4.5 m 0.5,1.5 H 4.5 m 0.5,1.5 H 4.5 m 0.5,1.5 H 4.5 m 0.5,1.5 H 4.5 m 0.5,1.5 H 4.5 m 0.5,1.5 H 4.5 m 0.5,1.5 H 4.5 M 5,88.150389 H 4.5 m 0.5,1.5 H 4.5 m 0.5,1.5 H 4.5 m 0.5,1.5 H 4.5 m 0.5,1.5 H 4.5 m 0.5,1.5 H 4.5 m 0.5,1.5 H 4.5 m 0.5,1.5 H 4.5 M 5,100.15039 H 4.5 m 0.5,1.5 H 4.5 m 0.5,1.5 H 4.5 m 0.5,1.5 H 4.5 m 0.5,1.5 H 4.5 m 0.5,1.5 H 4.5 M 3.25,56.900387 v 50.500003 m 1.5,-50.500003 v 50.500003 m 0,-50.750003 v 0 51.000003 0 z M 135,107.65 H 56.500004 M 135,109.15 H 56.500004 M 135,110.65 H 56.500004 M 135,112.15 H 56.500004 M 135,113.65 H 56.500004 M 135,115.15 H 56.500004 M 135,116.65 H 56.500004 M 135,115.15 H 56.500004 M 135,116.65 H 56.500004 M 121.25,107.9 v 8.5 m 1.5,-8.5 v 8.5 m 1.5,-8.5 v 8.5 m 1.5,-8.5 v 8.5 m 1.5,-8.5 v 8.5 m 1.5,-8.5 v 8.5 m 1.5,-8.5 v 8.5 m 1.5,-8.5 v 8.5 m 1.5,-8.5 v 8.5 m 1.5,-8.5 v 8.5 m -77.999996,-8.5 v 8.5 m 1.5,-8.5 v 8.5 m 1.5,-8.5 v 8.5 m 1.5,-8.5 v 8.5 m 1.5,-8.5 v 8.5 m 1.5,-8.5 v 8.5 m 1.5,-8.5 v 8.5 m 1.5,-8.5 v 8.5 m 1.5,-8.5 v 8.5 m 1.5,-8.5 v 8.5 m 1.5,-8.5 v 8.5 m 1.5,-8.5 v 8.5 m 1.5,-8.5 v 8.5 m 1.5,-8.5 v 8.5 m 1.5,-8.5 v 8.5 m 1.5,-8.5 v 8.5 m 1.5,-8.5 v 8.5 m 1.5,-8.5 v 8.5 m 1.5,-8.5 v 8.5 m 1.5,-8.5 v 8.5 m 1.5,-8.5 v 8.5 m 1.5,-8.5 v 8.5 m 1.5,-8.5 v 8.5 m 1.5,-8.5 v 8.5 m 1.5,-8.5 v 8.5 m 1.5,-8.5 v 8.5 m 1.5,-8.5 v 8.5 m 1.5,-8.5 v 8.5 m 1.5,-8.5 v 8.5 M 100.25,107.9 v 8.5 m 1.5,-8.5 v 8.5 m 1.5,-8.5 v 8.5 m 1.5,-8.5 v 8.5 m 1.5,-8.5 v 8.5 m 1.5,-8.5 v 8.5 m 1.5,-8.5 v 8.5 m 1.5,-8.5 v 8.5 m 1.5,-8.5 v 8.5 m 1.5,-8.5 v 8.5 m 1.5,-8.5 v 8.5 m 1.5,-8.5 v 8.5 m 1.5,-8.5 v 8.5 m 1.5,-8.5 v 8.5 M 56.750004,107.65 H 134.75 v 9 H 56.750004 Z m 0.25,1.5 h -36.5 m 36.5,1.5 h -36.5 m 36.5,1.5 h -36.5 m 36.5,1.5 h -36.5 m 36.5,1.5 h -36.5 m 36.5,1.5 h -36.5 m 36.5,-1.5 h -36.5 m 36.5,1.5 h -36.5 m 22.75,-8.75 v 8.5 m 1.5,-8.5 v 8.5 m 1.5,-8.5 v 8.5 m 1.5,-8.5 v 8.5 m 1.5,-8.5 v 8.5 m 1.5,-8.5 v 8.5 m 1.5,-8.5 v 8.5 m 1.5,-8.5 v 8.5 m 1.5,-8.5 v 8.5 m 1.5,-8.5 v 8.5 m -34.5,-8.5 v 8.5 m 1.5,-8.5 v 8.5 m 1.5,-8.5 v 8.5 m 1.5,-8.5 v 8.5 m 1.5,-8.5 v 8.5 m 1.5,-8.5 v 8.5 m 1.5,-8.5 v 8.5 m 1.5,-8.5 v 8.5 m 1.5,-8.5 v 8.5 m 1.5,-8.5 v 8.5 m 1.5,-8.5 v 8.5 m 1.5,-8.5 v 8.5 m 1.5,-8.5 v 8.5 m 1.5,-8.5 v 8.5 m -21,-8.75 h 36 v 9 h -36 z M 135,56.650387 H 56.500004 M 135,58.150387 H 56.500004 M 135,59.650387 H 56.500004 M 135,61.150387 H 56.500004 M 135,62.650387 H 56.500004 M 135,64.150387 H 56.500004 M 135,65.650387 H 56.500004 M 135,67.150387 H 56.500004 M 135,68.650387 H 56.500004 M 135,70.150387 H 56.500004 M 135,71.650387 H 56.500004 M 135,73.150387 H 56.500004 M 135,74.650387 H 56.500004 M 135,76.150387 H 56.500004 M 135,77.650387 H 56.500004 M 135,79.150387 H 56.500004 M 135,80.650387 H 56.500004 M 135,82.150387 H 56.500004 M 135,83.650387 H 56.500004 M 135,85.150387 H 56.500004 M 135,86.650387 H 56.500004 M 135,88.150389 H 56.500004 M 135,89.650389 H 56.500004 M 135,91.150389 H 56.500004 M 135,92.650389 H 56.500004 M 135,94.150389 H 56.500004 M 135,95.650389 H 56.500004 M 135,97.150389 H 56.500004 M 135,98.650389 H 56.500004 M 135,100.15039 H 56.500004 M 135,101.65039 H 56.500004 M 135,103.15039 H 56.500004 M 135,104.65039 H 56.500004 M 135,106.15039 H 56.500004 M 135,107.65039 H 56.500004 M 121.25,56.900387 v 50.500003 m 1.5,-50.500003 v 50.500003 m 1.5,-50.500003 v 50.500003 m 1.5,-50.500003 v 50.500003 m 1.5,-50.500003 v 50.500003 m 1.5,-50.500003 v 50.500003 m 1.5,-50.500003 v 50.500003 m 1.5,-50.500003 v 50.500003 m 1.5,-50.500003 v 50.500003 m 1.5,-50.500003 V 107.40039 M 56.750004,56.900387 v 50.500003 m 1.5,-50.500003 v 50.500003 m 1.5,-50.500003 v 50.500003 m 1.5,-50.500003 v 50.500003 m 1.5,-50.500003 v 50.500003 m 1.5,-50.500003 v 50.500003 m 1.5,-50.500003 v 50.500003 m 1.5,-50.500003 v 50.500003 m 1.5,-50.500003 v 50.500003 m 1.5,-50.500003 v 50.500003 m 1.5,-50.500003 v 50.500003 m 1.5,-50.500003 v 50.500003 m 1.5,-50.500003 v 50.500003 m 1.5,-50.500003 v 50.500003 m 1.5,-50.500003 v 50.500003 m 1.5,-50.500003 v 50.500003 m 1.5,-50.500003 v 50.500003 m 1.5,-50.500003 v 50.500003 m 1.5,-50.500003 v 50.500003 m 1.5,-50.500003 v 50.500003 m 1.5,-50.500003 v 50.500003 m 1.5,-50.500003 v 50.500003 m 1.5,-50.500003 v 50.500003 m 1.5,-50.500003 v 50.500003 m 1.5,-50.500003 v 50.500003 m 1.5,-50.500003 v 50.500003 m 1.5,-50.500003 v 50.500003 m 1.5,-50.500003 v 50.500003 m 1.5,-50.500003 V 107.40039 M 100.25,56.900387 v 50.500003 m 1.5,-50.500003 v 50.500003 m 1.5,-50.500003 v 50.500003 m 1.5,-50.500003 v 50.500003 m 1.5,-50.500003 v 50.500003 m 1.5,-50.500003 v 50.500003 m 1.5,-50.500003 v 50.500003 m 1.5,-50.500003 v 50.500003 m 1.5,-50.500003 v 50.500003 m 1.5,-50.500003 v 50.500003 m 1.5,-50.500003 v 50.500003 m 1.5,-50.500003 v 50.500003 m 1.5,-50.500003 v 50.500003 m 1.5,-50.500003 V 107.40039 M 56.750004,56.650387 H 134.75 V 107.65039 H 56.750004 Z m 0.25,1.5 h -36.5 m 36.5,1.5 h -36.5 m 36.5,1.5 h -36.5 m 36.5,1.5 h -36.5 m 36.5,1.5 h -36.5 m 36.5,1.5 h -36.5 m 36.5,1.5 h -36.5 m 36.5,1.5 h -36.5 m 36.5,1.5 h -36.5 m 36.5,1.5 h -36.5 m 36.5,1.5 h -36.5 m 36.5,1.5 h -36.5 m 36.5,1.5 h -36.5 m 36.5,1.5 h -36.5 m 36.5,1.5 h -36.5 m 36.5,1.5 h -36.5 m 36.5,1.5 h -36.5 m 36.5,1.5 h -36.5 m 36.5,1.5 h -36.5 m 36.5,1.5 h -36.5 m 36.5,1.500002 h -36.5 m 36.5,1.5 h -36.5 m 36.5,1.5 h -36.5 m 36.5,1.5 h -36.5 m 36.5,1.5 h -36.5 m 36.5,1.5 h -36.5 m 36.5,1.5 h -36.5 m 36.5,1.5 h -36.5 m 36.5,1.500001 h -36.5 m 36.5,1.5 h -36.5 m 36.5,1.5 h -36.5 m 36.5,1.5 h -36.5 m 36.5,1.5 h -36.5 m 36.5,1.5 h -36.5 m 22.75,-50.750003 v 50.500003 m 1.5,-50.500003 v 50.500003 m 1.5,-50.500003 v 50.500003 m 1.5,-50.500003 v 50.500003 m 1.5,-50.500003 v 50.500003 m 1.5,-50.500003 v 50.500003 m 1.5,-50.500003 v 50.500003 m 1.5,-50.500003 v 50.500003 m 1.5,-50.500003 v 50.500003 m 1.5,-50.500003 v 50.500003 m -34.5,-50.500003 v 50.500003 m 1.5,-50.500003 v 50.500003 m 1.5,-50.500003 v 50.500003 m 1.5,-50.500003 v 50.500003 m 1.5,-50.500003 v 50.500003 m 1.5,-50.500003 v 50.500003 m 1.5,-50.500003 v 50.500003 m 1.5,-50.500003 v 50.500003 m 1.5,-50.500003 v 50.500003 m 1.5,-50.500003 v 50.500003 m 1.5,-50.500003 v 50.500003 m 1.5,-50.500003 v 50.500003 m 1.5,-50.500003 v 50.500003 m 1.5,-50.500003 v 50.500003 m -21,-50.750003 h 36 v 51.000003 h -36 z"
       transform="translate(-159.54863)"
       inkscape:connector-curvature="0"
       style="shape-rendering:crispEdges" />
  </clipPath>
  <rect
     y="56.061317"
     x="0.35212722"
     width="140"
     style="display:none;fill:#575d5e;fill-rule:evenodd;stroke:#333333;stroke-width:0.80000001;stroke-linecap:round;stroke-linejoin:round"
     height="236"
     id="breakerRear" />
  <g
     style="display:none;fill:#575d5e;stroke:#333333"
     id="operationGroup"
     transform="translate(0.35212722,56.061316)">
    <rect
       style="fill-rule:evenodd;stroke-width:0.80000001;stroke-linecap:round;stroke-linejoin:round"
       y="24"
       x="114"
       width="26"
       height="120"
       id="rect19" />
    <circle
       style="stroke-width:0.5;stroke-linecap:square;shape-rendering:crispEdges"
       r="5"
       cy="100"
       cx="124"
       id="circle21" />
  </g>
  <g
     style="display:none;shape-rendering:crispEdges"
     id="rotaryDriveAxle"
     transform="translate(0.35212722,56.061316)">
    <rect
       style="fill:#575d5e;stroke:#333333;stroke-width:0.80000001"
       y="31.65"
       x="49.5"
       width="76"
       height="76"
       id="rect25" />
    <g
       id="g27">
      <circle
         style="fill:#c0c0c0;stroke:#000000;stroke-width:0.5"
         r="15"
         cy="63.150002"
         cx="87.5"
         id="circle29" />
      <circle
         style="stroke:#000000"
         r="8"
         cy="63.150002"
         cx="87.5"
         id="circle31" />
      <rect
         style="fill:#e6e6e6"
         y="60.150002"
         x="84.5"
         width="6"
         height="6"
         id="rect33" />
    </g>
  </g>
  <g
     id="rotaryHandle"
     style="display:none"
     transform="translate(0.35212722,56.061316)">
    <rect
       style="fill:#575d5e;stroke:#333333;stroke-width:0.80000001;shape-rendering:crispEdges"
       y="31.65"
       x="49.5"
       width="76"
       height="76"
       id="rect37" />
    <path
       inkscape:connector-curvature="0"
       style="overflow:visible;fill:#4d4d4d;fill-rule:evenodd;stroke:#5e6163;stroke-width:0.40000002pt;shape-rendering:crispEdges"
       d="M 50.149998,36.999997 V 107 m 1.45,-70.000003 V 107 m 1.75,-70.000003 V 107 m 1.45,-70.000003 V 107 m 1.6,-70.000003 V 107 m 1.6,-70.000003 V 107 m 1.6,-70.000003 V 107 m 1.6,-70.000003 V 107 m 1.6,-70.000003 V 107 m 1.6,-70.000003 V 107 m 1.6,-70.000003 V 107 m 1.6,-70.000003 V 107 m 1.6,-70.000003 V 107 m 1.6,-70.000003 V 107 m 1.6,-70.000003 V 107 m 1.6,-70.000003 V 107 m 1.6,-70.000003 V 107 m 1.6,-70.000003 V 107 m 1.6,-70.000003 V 107 m 1.6,-70.000003 V 107 m 1.6,-70.000003 V 107 m 1.6,-70.000003 V 107 m 1.6,-70.000003 V 107 m 1.6,-70.000003 V 107 m 1.6,-70.000003 V 107 m 1.6,-70.000003 V 107 m 1.6,-70.000003 V 107 m 1.6,-70.000003 V 107 m 1.6,-70.000003 V 107 m 1.6,-70.000003 V 107 m 1.6,-70.000003 V 107 m 1.6,-70.000003 V 107 M 101.2,36.999997 V 107 m 1.6,-70.000003 V 107 m 1.6,-70.000003 V 107 M 106,36.999997 V 107 m 1.6,-70.000003 V 107 m 1.6,-70.000003 V 107 m 1.6,-70.000003 V 107 m 1.6,-70.000003 V 107 M 114,36.999997 V 107 m 1.6,-70.000003 V 107 m 1.6,-70.000003 V 107 m 1.6,-70.000003 V 107 m 1.6,-70.000003 V 107 M 122,36.999997 V 107 m 1.6,-70.000003 V 107 M 50.149998,36.999997 H 124.85 m -74.700002,1.6 H 124.85 m -74.700002,1.6 H 124.85 m -74.700002,1.6 H 124.85 m -74.700002,1.6 H 124.85 m -74.700002,1.6 H 124.85 m -74.700002,1.6 H 124.85 m -74.700002,1.6 H 124.85 m -74.700002,1.6 H 124.85 m -74.700002,1.6 H 124.85 m -74.700002,1.6 H 124.85 m -74.700002,1.6 H 124.85 m -74.700002,1.6 H 124.85 m -74.700002,1.6 H 124.85 m -74.700002,1.6 H 124.85 m -74.700002,1.6 H 124.85 m -74.700002,1.6 H 124.85 m -74.700002,1.6 H 124.85 m -74.700002,1.6 H 124.85 m -74.700002,1.6 H 124.85 m -74.700002,1.6 H 124.85 m -74.700002,1.6 H 124.85 m -74.700002,1.6 H 124.85 m -74.700002,1.6 H 124.85 m -74.700002,1.6 H 124.85 m -74.700002,1.6 H 124.85 m -74.700002,1.6 H 124.85 m -74.700002,1.6 H 124.85 m -74.700002,1.6 H 124.85 m -74.700002,1.6 H 124.85 m -74.700002,1.6 H 124.85 m -74.700002,1.6 H 124.85 m -74.700002,1.6 H 124.85 m -74.700002,1.6 H 124.85 m -74.700002,1.6 H 124.85 m -74.700002,1.6 H 124.85 m -74.700002,1.6 H 124.85 m -74.700002,1.6 H 124.85 m -74.700002,1.6 H 124.85 m -74.700002,1.6 H 124.85 M 50.149998,101 H 124.85 m -74.700002,1.6 H 124.85 m -74.700002,1.6 H 124.85 m -74.700002,1.6 H 124.85 M 50.149998,36.999997 H 124.85 V 107 H 50.149998 Z"
       id="path39" />
    <g
       id="g41" />
    <g
       style="shape-rendering:crispEdges"
       id="g43">
      <rect
         style="fill:#bb1e10"
         y="32.049999"
         x="49.900002"
         width="75.199997"
         height="7.5"
         id="rect45" />
      <path
         style="fill:none;stroke:#ffffff"
         inkscape:connector-curvature="0"
         d="M 49.900001,40.050001 H 125.1"
         id="path47" />
      <text
         y="37.015835"
         xml:space="preserve"
         x="102.03898"
         style="font-weight:bold;font-size:5.39302158px;line-height:0%;font-family:sans-serif;letter-spacing:0;word-spacing:0;fill:#ffffff"
         line-height="100%"
         id="text49"><tspan
           style="font-weight:bold;font-size:3.75px;line-height:100%;font-family:sans-serif;fill:#ffffff"
           y="37.015835"
           x="102.03898"
           line-height="100%"
           font-weight="bold"
           font-size="3.75"
           id="tspan51">TMax XT5</tspan></text>
      <path
         style="fill:#ffffff"
         inkscape:connector-curvature="0"
         d="m 52.85715,33.3 -0.655857,2.450006 h 1.354884 V 33.3 Z m 0.799029,0 v 2.450006 h 1.354888 L 54.355308,33.3 Z m 2.800014,0 v 2.450006 h 1.450005 V 33.3 Z m 1.550007,0 v 2.450006 h 1.517879 A 1.5000067,1.5000067 0 0 0 59.005034,35.405555 1.125005,1.125005 0 0 0 59.581306,34.425014 1.125005,1.125005 0 0 0 58.456302,33.3 a 1.125005,1.125005 0 0 0 -1.02e-4,0 z m 2.35001,0 v 2.450006 h 1.450005 V 33.3 Z m 1.550007,0 v 2.450006 h 1.517879 A 1.5000067,1.5000067 0 0 0 62.905051,35.405555 1.125005,1.125005 0 0 0 63.481323,34.425014 1.125005,1.125005 0 0 0 62.356319,33.3 a 1.125005,1.125005 0 0 0 -1.02e-4,0 z m -9.731681,2.549993 -0.655862,2.450006 h 1.250006 l 0.265036,-1.000001 h 0.522461 v -1.450005 z m 1.481643,0 v 1.450005 h 0.522563 l 0.264943,1.000001 h 1.250007 l -0.655765,-2.450006 z m 2.800014,0 v 2.450006 h 1.450005 v -2.450006 z m 1.550007,0 v 2.450006 h 0.450005 a 1.5000067,1.5000067 0 0 0 9.7e-5,0 1.5000067,1.5000067 0 0 0 1.500007,-1.500001 1.5000067,1.5000067 0 0 0 -0.341702,-0.950005 h -1.608402 z m 2.35001,0 v 2.450006 h 1.450005 v -2.450006 z m 1.550007,0 v 2.450006 h 0.45 a 1.5000067,1.5000067 0 0 0 1.02e-4,0 1.5000067,1.5000067 0 0 0 1.500007,-1.500001 1.5000067,1.5000067 0 0 0 -0.341697,-0.950005 z"
         id="path53" />
    </g>
    <g
       style="shape-rendering:crispEdges"
       id="g55">
      <circle
         style="fill:#5e6163"
         r="30.1"
         cy="63.150002"
         cx="87.5"
         id="circle57" />
      <path
         style="fill:#808000"
         inkscape:connector-curvature="0"
         d="M 57.806713,67.428866 A 30,30 0 0 1 58.155572,56.912648 L 87.5,63.149999 Z"
         id="path59" />
      <path
         style="fill:#ff0000"
         inkscape:connector-curvature="0"
         d="m 76.74896,35.142587 a 30,30 0 0 1 21.45318,-0.01872 L 87.5,63.149999 Z"
         id="path61" />
      <path
         style="fill:#ffff00"
         inkscape:connector-curvature="0"
         d="M 60.201162,50.709203 A 30,30 0 0 1 76.74896,35.142587 L 87.5,63.149999 Z"
         id="path63" />
      <circle
         style="fill:#5e6163;stroke:#333333"
         r="25"
         cy="63.150002"
         cx="87.5"
         id="circle65" />
      <rect
         style="fill:#5e6163;stroke:#333333;stroke-width:0.80000001;stroke-linecap:round;stroke-linejoin:round"
         y="-94.400002"
         x="38.050003"
         width="50.200001"
         transform="rotate(90)"
         ry="5"
         rx="2"
         height="13.8"
         id="rect67" />
      <rect
         y="-92"
         x="40.650002"
         width="49"
         transform="rotate(90)"
         style="fill:#ffffff;fill-rule:evenodd;stroke:#999999;stroke-width:0.5;stroke-linecap:round;stroke-linejoin:round"
         ry="4.5"
         rx="1.0888889"
         height="9"
         id="rect69" />
      <text
         style="font-size:12.5px;line-height:0%;font-family:sans-serif;letter-spacing:0;word-spacing:0;fill:#ffffff"
         y="37.280552"
         xml:space="preserve"
         x="87.072266"
         word-spacing="0"
         line-height="125%"
         letter-spacing="0"
         font-size="12.5"
         id="text71"><tspan
           style="font-size:7.5px;font-family:FreesiaUPC;fill:#ffffff"
           y="37.280552"
           x="87.072266"
           font-size="7.5"
           id="tspan73">I</tspan></text>
      <text
         style="font-size:12.5px;line-height:0%;font-family:sans-serif;letter-spacing:0;word-spacing:0;fill:#ffffff"
         y="63.884209"
         xml:space="preserve"
         x="58.398239"
         word-spacing="0"
         line-height="125%"
         letter-spacing="0"
         font-size="12.5"
         id="text75"><tspan
           style="font-size:7.5px;font-family:FreesiaUPC;fill:#ffffff"
           y="63.884209"
           x="58.398239"
           font-size="7.5"
           id="tspan77">O</tspan></text>
      <path
         style="fill:#e6e6e6"
         inkscape:connector-curvature="0"
         d="m 87.5,41.929688 -3,5.195312 h 6 z M 84.25,50.75 c -0.554,0 -1,0.446 -1,1 v 5 c 0,0.554 0.446,1 1,1 h 6.5 c 0.554,0 1,-0.446 1,-1 v -5 c 0,-0.554 -0.446,-1 -1,-1 z m 0,8.449219 c -0.554,0 -1,0.446 -1,1 v 5 c 0,0.554 0.446,1 1,1 h 6.5 c 0.554,0 1,-0.446 1,-1 v -5 c 0,-0.554 -0.446,-1 -1,-1 z m 0,8.451172 c -0.554,0 -1,0.446 -1,1 v 5 c 0,0.554 0.446,1 1,1 h 6.5 c 0.554,0 1,-0.446 1,-1 v -5 c 0,-0.554 -0.446,-1 -1,-1 z"
         id="path79" />
      <path
         style="fill:none;stroke:#e6e6e6;stroke-width:0.99999976;stroke-linecap:round"
         inkscape:connector-curvature="0"
         d="m 83.757052,86.54995 h 7.485895 m -7.485895,-2 h 7.485895 m -7.485895,-2 h 7.485895 m -7.485895,-2 h 7.485895 m -7.485895,-2 h 7.485895 m -7.485895,-2 h 7.485895"
         id="path81" />
    </g>
    <g
       style="shape-rendering:crispEdges"
       id="g83">
      <circle
         style="overflow:visible;fill:#c7cacc;fill-rule:evenodd;stroke:#333333;stroke-width:0.25;stroke-linecap:round;stroke-linejoin:round"
         r="2.5"
         cy="102.21568"
         cx="119"
         id="circle85" />
      <text
         y="102.67009"
         xml:space="preserve"
         x="117.40637"
         style="font-size:12.5px;line-height:0%;font-family:sans-serif;letter-spacing:0;word-spacing:0;overflow:visible;fill:#4d4d4d;fill-opacity:0.9372549"
         line-height="125%"
         id="text87"><tspan
           style="font-size:1.25px;fill:#4d4d4d;fill-opacity:0.9372549"
           y="102.67009"
           x="117.40637"
           font-size="1.25"
           id="tspan89">TEST</tspan></text>
    </g>
  </g>
  <g
     id="motorDrive"
     style="display:none"
     transform="translate(0.35212722,56.061316)">
    <rect
       style="fill:none;stroke:#333333;stroke-width:0.80000001;stroke-linejoin:round;shape-rendering:crispEdges"
       y="31.999996"
       x="42.5"
       width="90"
       height="77.300003"
       id="rect93" />
    <path
       style="fill:#4d4d4d;fill-rule:evenodd;stroke:#575d5e;stroke-width:0.40000002pt"
       inkscape:connector-curvature="0"
       d="m 44.325,38.650388 v 70.000002 m 1.6,-70.000002 v 70.000002 m 1.6,-70.000002 v 70.000002 m 1.6,-70.000002 v 70.000002 m 1.6,-70.000002 v 70.000002 m 1.6,-70.000002 v 70.000002 m 1.6,-70.000002 v 70.000002 m 1.6,-70.000002 v 70.000002 m 1.6,-70.000002 v 70.000002 m 1.6,-70.000002 v 70.000002 m 1.6,-70.000002 v 70.000002 m 1.6,-70.000002 v 70.000002 m 1.6,-70.000002 v 70.000002 m 1.6,-70.000002 v 70.000002 m 1.6,-70.000002 v 70.000002 m 1.6,-70.000002 v 70.000002 m 1.6,-70.000002 v 70.000002 m 1.6,-70.000002 v 70.000002 m 1.6,-70.000002 v 70.000002 m 1.6,-70.000002 v 70.000002 m 1.6,-70.000002 v 70.000002 m 1.6,-70.000002 v 70.000002 m 1.6,-70.000002 v 70.000002 m 1.6,-70.000002 v 70.000002 m 1.6,-70.000002 v 70.000002 m 1.6,-70.000002 v 70.000002 m 1.6,-70.000002 v 70.000002 m 1.6,-70.000002 v 70.000002 m 1.6,-70.000002 v 70.000002 m 1.6,-70.000002 v 70.000002 m 1.6,-70.000002 v 70.000002 m 1.6,-70.000002 v 70.000002 m 1.6,-70.000002 v 70.000002 m 1.6,-70.000002 v 70.000002 m 1.6,-70.000002 v 70.000002 m 1.6,-70.000002 v 70.000002 m 1.6,-70.000002 v 70.000002 m 1.6,-70.000002 v 70.000002 m 1.6,-70.000002 v 70.000002 m 1.6,-70.000002 v 70.000002 m 1.6,-70.000002 v 70.000002 m 1.6,-70.000002 v 70.000002 m 1.6,-70.000002 v 70.000002 m 1.6,-70.000002 v 70.000002 m 1.6,-70.000002 v 70.000002 m 1.6,-70.000002 v 70.000002 m 1.6,-70.000002 v 70.000002 m 1.6,-70.000002 v 70.000002 m 1.6,-70.000002 v 70.000002 m 1.6,-70.000002 v 70.000002 m 1.6,-70.000002 v 70.000002 m 1.6,-70.000002 v 70.000002 m 1.6,-70.000002 v 70.000002 m 1.6,-70.000002 v 70.000002 m 1.6,-70.000002 V 108.65039 M 44.324999,39.050388 H 131.325 m -87.000001,1.6 H 131.325 m -87.000001,1.6 H 131.325 m -87.000001,1.6 H 131.325 m -87.000001,1.6 H 131.325 m -87.000001,1.6 H 131.325 m -87.000001,1.6 H 131.325 m -87.000001,1.6 H 131.325 m -87.000001,1.6 H 131.325 m -87.000001,1.6 H 131.325 m -87.000001,1.6 H 131.325 m -87.000001,1.6 H 131.325 m -87.000001,1.6 H 131.325 m -87.000001,1.6 H 131.325 m -87.000001,1.6 H 131.325 m -87.000001,1.6 H 131.325 m -87.000001,1.6 H 131.325 m -87.000001,1.6 H 131.325 m -87.000001,1.6 H 131.325 m -87.000001,1.6 H 131.325 M 44.324999,71.050389 H 131.325 m -87.000001,1.6 H 131.325 m -87.000001,1.6 H 131.325 m -87.000001,1.6 H 131.325 m -87.000001,1.6 H 131.325 m -87.000001,1.6 H 131.325 m -87.000001,1.6 H 131.325 m -87.000001,1.6 H 131.325 m -87.000001,1.6 H 131.325 m -87.000001,1.6 H 131.325 m -87.000001,1.6 H 131.325 m -87.000001,1.6 H 131.325 m -87.000001,1.6 H 131.325 m -87.000001,1.6 H 131.325 m -87.000001,1.6 H 131.325 m -87.000001,1.6 H 131.325 m -87.000001,1.6 H 131.325 m -87.000001,1.6 H 131.325 m -87.000001,1.6 H 131.325 M 44.324999,101.45039 H 131.325 m -87.000001,1.6 H 131.325 m -87.000001,1.6 H 131.325 m -87.000001,1.6 H 131.325 m -87.000001,1.6 H 131.325 M 43.924999,38.650388 H 130.925 V 108.65039 H 43.924999 Z"
       id="path95" />
    <g
       style="shape-rendering:crispEdges"
       id="g97">
      <rect
         style="fill:#1a1a1a;stroke:#1a1a1a;stroke-linejoin:round"
         y="41.626049"
         x="44.75"
         width="19"
         height="13.999999"
         id="rect99" />
      <g
         id="g101">
        <path
           style="fill:#5b5e60;stroke:#1a1a1a;stroke-width:1.5;stroke-linejoin:round"
           inkscape:connector-curvature="0"
           d="m 45,41.87605 h 5 l 5,8.523307 V 74.047663 106.21928 H 45 Z"
           id="path103" />
        <path
           style="fill:#333333"
           inkscape:connector-curvature="0"
           d="m 45.75,82.1013 c 0,-0.708334 0.120583,1.853612 1.006,3.030697 0.885416,1.177083 2.435666,0.969303 3.144,0.969303 0.708334,0 2.270709,0.20778 3.156125,-0.969303 C 53.941542,83.954913 54.256447,81.392995 54.25,82.1013 v 17.568361 c -1.216263,-0.40758 -0.416539,2.061039 -2.003614,2.704309 -1.587076,0.64328 -6.496386,0.0323 -6.496386,0.0323 z"
           id="path105" />
        <path
           style="fill:#333333;fill-rule:evenodd;stroke:#333333;stroke-width:0.49999997"
           inkscape:connector-curvature="0"
           d="m 45.75,102.963 h 8.5"
           id="path107" />
      </g>
    </g>
    <g
       style="shape-rendering:crispEdges"
       id="g109">
      <rect
         style="fill:#007b00;stroke:#333333;stroke-width:0.5;stroke-linejoin:round"
         y="90"
         x="107.2"
         width="16"
         height="16"
         id="rect111" />
      <text
         y="100.68433"
         xml:space="preserve"
         x="113.44531"
         style="font-weight:bold;font-size:7.5px;line-height:0%;font-family:Arial;letter-spacing:0;word-spacing:0;fill:#ffffff"
         line-height="100%"
         id="text113"><tspan
           y="100.68433"
           x="113.44531"
           id="tspan115">I</tspan></text>
    </g>
    <g
       style="shape-rendering:crispEdges"
       id="g117">
      <rect
         style="fill:#bb1e10"
         y="32.399998"
         x="42.900002"
         width="89.199997"
         height="7.1999998"
         id="rect119" />
      <path
         style="fill:none;stroke:#ffffff;stroke-width:0.99999976"
         inkscape:connector-curvature="0"
         d="M 42.899998,40.065674 H 132.1"
         id="path121" />
      <text
         y="37.365829"
         xml:space="preserve"
         x="110.33908"
         style="font-weight:bold;font-size:5.39302158px;line-height:0%;font-family:sans-serif;letter-spacing:0;word-spacing:0;fill:#ffffff"
         line-height="100%"
         id="text123"><tspan
           style="font-weight:bold;font-size:3.75px;line-height:100%;font-family:sans-serif;fill:#ffffff"
           y="37.365829"
           x="110.33908"
           line-height="100%"
           font-weight="bold"
           font-size="3.75"
           id="tspan125">TMax XT5</tspan></text>
      <path
         style="fill:#ffffff"
         inkscape:connector-curvature="0"
         d="m 46.686815,33.499998 -0.655857,2.450006 h 1.354883 v -2.450006 z m 0.799028,0 v 2.450006 h 1.354889 l -0.65576,-2.450006 z m 2.800014,0 v 2.450006 h 1.450006 v -2.450006 z m 1.550008,0 v 2.450006 h 1.517879 a 1.5000067,1.5000067 0 0 0 -0.519046,-0.344451 1.125005,1.125005 0 0 0 0.576272,-0.980541 1.125005,1.125005 0 0 0 -1.125003,-1.125014 1.125005,1.125005 0 0 0 -1.03e-4,0 z m 2.350009,0 v 2.450006 h 1.450006 v -2.450006 z m 1.550008,0 v 2.450006 h 1.517879 a 1.5000067,1.5000067 0 0 0 -0.519046,-0.344451 1.125005,1.125005 0 0 0 0.576272,-0.980541 1.125005,1.125005 0 0 0 -1.125003,-1.125014 1.125005,1.125005 0 0 0 -1.03e-4,0 z m -9.731681,2.549993 -0.655862,2.450006 h 1.250006 l 0.265035,-1.000001 h 0.522461 v -1.450005 z m 1.481642,0 v 1.450005 h 0.522564 l 0.264943,1.000001 h 1.250006 l -0.655764,-2.450006 z m 2.800014,0 v 2.450006 h 1.450006 v -2.450006 z m 1.550008,0 v 2.450006 h 0.450004 a 1.5000067,1.5000067 0 0 0 9.8e-5,0 1.5000067,1.5000067 0 0 0 1.500006,-1.500001 1.5000067,1.5000067 0 0 0 -0.341701,-0.950005 H 51.83587 Z m 2.350009,0 v 2.450006 h 1.450006 v -2.450006 z m 1.550008,0 v 2.450006 h 0.449999 a 1.5000067,1.5000067 0 0 0 1.03e-4,0 1.5000067,1.5000067 0 0 0 1.500006,-1.500001 1.5000067,1.5000067 0 0 0 -0.341696,-0.950005 z"
         id="path127" />
    </g>
    <g
       style="shape-rendering:crispEdges"
       id="g129">
      <rect
         style="fill:#575d5e;stroke:#333333;stroke-width:0.80000001"
         y="55.902756"
         x="70.400002"
         width="18.200001"
         height="53.397243"
         id="rect131" />
      <g
         id="g133">
        <rect
           style="fill:#ff0000;stroke:#333333;stroke-width:0.5;stroke-linejoin:round"
           y="90"
           x="71.5"
           width="16"
           height="16"
           id="rect135" />
        <text
           y="100.72644"
           xml:space="preserve"
           x="76.312134"
           style="font-weight:bold;font-size:7.5px;line-height:0%;font-family:sans-serif;letter-spacing:0;word-spacing:0;fill:#ffffff"
           line-height="100%"
           id="text137"><tspan
             y="100.72644"
             x="76.312134"
             id="tspan139">O</tspan><tspan
             y="108.22644"
             x="76.312134"
             id="tspan141" /></text>
      </g>
      <rect
         style="fill:#445500;stroke:#333333;stroke-width:0.5;stroke-linejoin:round"
         y="76.400002"
         x="71.5"
         width="16"
         height="5"
         id="rect143" />
      <g
         id="g145">
        <rect
           style="fill:#ffffff;stroke:#333333;stroke-width:0.5;stroke-linejoin:round"
           y="57.067997"
           x="71.5"
           width="16"
           height="5"
           id="rect147" />
        <path
           style="fill:none;stroke:#000000;stroke-width:0.80000001;stroke-linecap:round;stroke-dasharray:1.60000002, 1.60000002"
           inkscape:connector-curvature="0"
           d="M 73.886654,59.336222 H 84.853286"
           id="path149" />
      </g>
    </g>
    <circle
       style="fill:#e9e8ec;fill-rule:evenodd;shape-rendering:crispEdges"
       r="2.75"
       cy="104.31568"
       cx="94.25"
       id="circle151" />
    <circle
       style="fill:#e9e8ec;fill-rule:evenodd;shape-rendering:crispEdges"
       r="2.75"
       cy="90.315681"
       cx="94.25"
       id="circle153" />
    <circle
       style="fill:#000003;fill-rule:evenodd;shape-rendering:crispEdges"
       r="3"
       cy="76.065666"
       cx="102.50002"
       id="circle155" />
    <rect
       style="fill:#c7c9cc;stroke:#333333;stroke-linecap:round;stroke-linejoin:round;shape-rendering:crispEdges"
       y="60.165997"
       x="124.8"
       width="5.5"
       height="29"
       id="rect157" />
    <g
       style="shape-rendering:crispEdges"
       id="g159">
      <rect
         style="fill:#333333;stroke:#000000;stroke-width:0.5;stroke-linejoin:round"
         y="64.065674"
         x="114"
         width="7"
         height="14.500001"
         id="rect161" />
      <rect
         style="fill:#505356;stroke:#000000;stroke-width:0.5;stroke-linecap:round;stroke-linejoin:round"
         y="69.715675"
         x="114.7"
         width="5.5999999"
         height="3.2"
         id="rect163" />
      <path
         style="fill:none;stroke:#ffffff;stroke-width:0.80000001;stroke-linecap:round"
         inkscape:connector-curvature="0"
         d="m 107.32945,65.433785 c 4.4518,0 4.4518,0 4.4518,0"
         id="path165" />
      <path
         style="fill:none;stroke:#ffffff;stroke-linecap:round"
         inkscape:connector-curvature="0"
         d="m 107.32945,71.433785 c 4.4518,0 4.4518,0 4.4518,0"
         id="path167" />
    </g>
  </g>
  <rect
     id="RL_Base"
     height="119.5029"
     width="135"
     x="2.8521273"
     y="79.558411"
     style="display:none;fill:#575d5e;stroke:#333333;stroke-width:0.93760431;shape-rendering:crispEdges" />
  <path
     id="path4p"
     clip-path="url(#c)"
     d="m -154.22363,56.400391 v 59.999999 m 1.6,-59.999999 v 59.999999 m 1.6,-59.999999 v 59.999999 m 1.6,-59.999999 v 59.999999 m 1.6,-59.999999 v 59.999999 m 1.6,-59.999999 v 59.999999 m 1.6,-59.999999 v 59.999999 m 1.6,-59.999999 v 59.999999 m 1.6,-59.999999 v 59.999999 m 1.6,-59.999999 v 59.999999 m 1.6,-59.999999 v 59.999999 m 1.6,-59.999999 v 59.999999 m 1.6,-59.999999 v 59.999999 m 1.6,-59.999999 v 59.999999 m 1.6,-59.999999 v 59.999999 m 1.6,-59.999999 v 59.999999 m 1.6,-59.999999 v 59.999999 m 1.6,-59.999999 v 59.999999 m 1.6,-59.999999 v 59.999999 m 1.6,-59.999999 v 59.999999 m 1.6,-59.999999 v 59.999999 m 1.6,-59.999999 v 59.999999 m 1.6,-59.999999 v 59.999999 m 1.6,-59.999999 v 59.999999 m 1.6,-59.999999 v 59.999999 m 1.6,-59.999999 v 59.999999 m 1.6,-59.999999 v 59.999999 m 1.6,-59.999999 v 59.999999 m 1.6,-59.999999 v 59.999999 m 1.6,-59.999999 v 59.999999 m 1.6,-59.999999 v 59.999999 m 1.6,-59.999999 v 59.999999 m 1.6,-59.999999 v 59.999999 m 1.6,-59.999999 v 59.999999 m 1.600002,-59.999999 v 59.999999 m 1.6,-59.999999 v 59.999999 m 1.6,-59.999999 v 59.999999 m 1.6,-59.999999 v 59.999999 m 1.6,-59.999999 v 59.999999 m 1.6,-59.999999 v 59.999999 m 1.6,-59.999999 v 59.999999 m 1.6,-59.999999 v 59.999999 m 1.6,-59.999999 v 59.999999 m 1.6,-59.999999 v 59.999999 m 1.6,-59.999999 v 59.999999 m 1.6,-59.999999 v 59.999999 m 1.6,-59.999999 v 59.999999 m 1.6,-59.999999 v 59.999999 m 1.6,-59.999999 v 59.999999 m 1.6,-59.999999 v 59.999999 m 1.6,-59.999999 v 59.999999 m 1.6,-59.999999 v 59.999999 m 1.6,-59.999999 v 59.999999 m 1.6,-59.999999 v 59.999999 m 1.6,-59.999999 v 59.999999 m 1.6,-59.999999 v 59.999999 m 1.6,-59.999999 v 59.999999 m 1.6,-59.999999 v 59.999999 m 1.6,-59.999999 v 59.999999 m 1.6,-59.999999 v 59.999999 m 1.6,-59.999999 v 59.999999 m 1.6,-59.999999 v 59.999999 m 1.6,-59.999999 v 59.999999 m 1.600001,-59.999999 v 59.999999 m 1.6,-59.999999 v 59.999999 m 1.6,-59.999999 v 59.999999 m 1.6,-59.999999 v 59.999999 m 1.6,-59.999999 v 59.999999 m 1.6,-59.999999 v 59.999999 m 1.6,-59.999999 v 59.999999 m 1.6,-59.999999 v 59.999999 m 1.6,-59.999999 v 59.999999 m 1.6,-59.999999 v 59.999999 m 1.6,-59.999999 v 59.999999 m 1.6,-59.999999 v 59.999999 m 1.6,-59.999999 v 59.999999 m 1.6,-59.999999 v 59.999999 m 1.6,-59.999999 v 59.999999 m 1.6,-59.999999 v 59.999999 m 1.6,-59.999999 v 59.999999 m 1.6,-59.999999 V 116.40039 M -154.22363,56.800391 h 130.000001 m -130.000001,1.6 h 130.000001 m -130.000001,1.6 h 130.000001 m -130.000001,1.6 H -24.223629 M -154.22363,63.20039 h 130.000001 m -130.000001,1.6 h 130.000001 m -130.000001,1.6 h 130.000001 m -130.000001,1.6 h 130.000001 m -130.000001,1.6 h 130.000001 m -130.000001,1.6 h 130.000001 m -130.000001,1.6 h 130.000001 m -130.000001,1.6 h 130.000001 m -130.000001,1.6 h 130.000001 m -130.000001,1.6 h 130.000001 m -130.000001,1.6 h 130.000001 m -130.000001,1.6 h 130.000001 m -130.000001,1.6 h 130.000001 m -130.000001,1.6 h 130.000001 m -130.000001,1.6 h 130.000001 m -130.000001,1.6 h 130.000001 m -130.000001,1.6 h 130.000001 m -130.000001,1.6 h 130.000001 m -130.000001,1.6 h 130.000001 m -130.000001,1.6 h 130.000001 m -130.000001,1.6 h 130.000001 m -130.000001,1.6 h 130.000001 m -130.000001,1.6 h 130.000001 m -130.000001,1.6 h 130.000001 m -130.000001,1.6 h 130.000001 m -130.000001,1.6 h 130.000001 m -130.000001,1.6 h 130.000001 m -130.000001,1.6 h 130.000001 m -130.000001,1.6 h 130.000001 m -130.000001,1.6 h 130.000001 m -130.000001,1.6 h 130.000001 m -130.000001,1.6 h 130.000001 m -130.000001,1.6 h 130.000001 m -130.000001,1.6 H -24.223629 M -154.62363,56.400391 H -24.623629 V 116.40039 H -154.62363 Z"
     transform="translate(160.06325,56.061316)"
     inkscape:connector-curvature="0"
     style="display:none;fill:#4d4d4d;fill-rule:evenodd;stroke:#575d5e;stroke-width:0.40000002pt" />
  <path
     id="path3p"
     d="M 108.6,41.649998 H 38.1 m 70.5,1.5 H 38.1 m 70.5,1.5 H 38.1 m 70.5,1.5 H 38.1 m 70.5,1.5 H 38.1 m 70.5,1.5 H 38.1 M 108.6,50.65 H 38.1 m 64.75,-8.750002 V 50.4 m 1.5,-8.500002 V 50.4 m 1.5,-8.500002 V 50.4 m 1.5,-8.500002 V 50.4 m 1,-8.500002 V 50.4 m -70,-8.500002 V 50.4 m 1.5,-8.500002 V 50.4 m 1.5,-8.500002 V 50.4 m 1.5,-8.500002 V 50.4 m 1.5,-8.500002 V 50.4 m 1.5,-8.500002 V 50.4 m 1.5,-8.500002 V 50.4 m 1.5,-8.500002 V 50.4 m 1.5,-8.500002 V 50.4 m 1.5,-8.500002 V 50.4 m 1.5,-8.500002 V 50.4 m 1.5,-8.500002 V 50.4 m 1.5,-8.500002 V 50.4 m 1.5,-8.500002 V 50.4 m 1.5,-8.500002 V 50.4 m 1.5,-8.500002 V 50.4 m 1.5,-8.500002 V 50.4 m 1.5,-8.500002 V 50.4 m 1.5,-8.500002 V 50.4 m 1.5,-8.500002 V 50.4 m 1.5,-8.500002 V 50.4 m 1.5,-8.500002 V 50.4 m 1.5,-8.500002 V 50.4 m 1.5,-8.500002 V 50.4 m 1.5,-8.500002 V 50.4 m 1.5,-8.500002 V 50.4 m 1.5,-8.500002 V 50.4 m 1.5,-8.500002 V 50.4 m 1.5,-8.500002 V 50.4 m 1.5,-8.500002 V 50.4 m 1.5,-8.500002 V 50.4 m 1.5,-8.500002 V 50.4 m 1.5,-8.500002 V 50.4 m 1.5,-8.500002 V 50.4 m 1.5,-8.500002 V 50.4 m 1.5,-8.500002 V 50.4 m 1.5,-8.500002 V 50.4 m 1.5,-8.500002 V 50.4 m 1.5,-8.500002 V 50.4 m 1.5,-8.500002 V 50.4 m 1.5,-8.500002 V 50.4 m 1.5,-8.500002 V 50.4 m 1.5,-8.500002 V 50.4 m -63,-8.750002 h 70 V 50.65 h -70 z m 0.25,1.5 H 2.1 m 36.5,1.5 H 2.1 m 36.5,1.5 H 2.1 m 36.5,1.5 H 2.1 m 36.5,1.5 H 2.1 M 38.6,50.65 H 2.1 M 24.85,41.899998 V 50.4 m 1.5,-8.500002 V 50.4 m 1.5,-8.500002 V 50.4 m 1.5,-8.500002 V 50.4 m 1.5,-8.500002 V 50.4 m 1.5,-8.500002 V 50.4 m 1.5,-8.500002 V 50.4 m 1.5,-8.500002 V 50.4 m 1.5,-8.500002 V 50.4 m 1.5,-8.500002 V 50.4 M 3.85,41.899998 V 50.4 m 1.5,-8.500002 V 50.4 m 1.5,-8.500002 V 50.4 m 1.5,-8.500002 V 50.4 m 1.5,-8.500002 V 50.4 m 1.5,-8.500002 V 50.4 m 1.5,-8.500002 V 50.4 m 1.5,-8.500002 V 50.4 m 1.5,-8.500002 V 50.4 m 1.5,-8.500002 V 50.4 m 1.5,-8.500002 V 50.4 m 1.5,-8.500002 V 50.4 m 1.5,-8.500002 V 50.4 m 1.5,-8.500002 V 50.4 m -21,-8.750002 h 36 V 50.65 h -36 z m 106.25,-51 H 38.1 m 70.5,1.5 H 38.1 m 70.5,1.5 H 38.1 m 70.5,1.5 H 38.1 m 70.5,1.5 H 38.1 m 70.5,1.5 H 38.1 m 70.5,1.5 H 38.1 m 70.5,1.5 H 38.1 m 70.5,1.5 H 38.1 m 70.5,1.5 H 38.1 m 70.5,1.5 H 38.1 m 70.5,1.5 H 38.1 m 70.5,1.5 H 38.1 m 70.5,1.5 H 38.1 m 70.5,1.5 H 38.1 m 70.5,1.5 H 38.1 m 70.5,1.5 H 38.1 m 70.5,1.5 H 38.1 m 70.5,1.5 H 38.1 m 70.5,1.5 H 38.1 m 70.5,1.5 H 38.1 M 108.6,22.15 H 38.1 m 70.5,1.5 H 38.1 m 70.5,1.5 H 38.1 m 70.5,1.5 H 38.1 m 70.5,1.5 H 38.1 m 70.5,1.5 H 38.1 m 70.5,1.5 H 38.1 m 70.5,1.5 H 38.1 m 70.5,1.5 H 38.1 m 70.5,1.5 H 38.1 m 70.5,1.5 H 38.1 m 70.5,1.5 H 38.1 m 70.5,1.5 H 38.1 m 70.5,1.5 H 38.1 M 102.85,-9.100002 V 41.4 m 1.5,-50.500002 V 41.4 m 1.5,-50.500002 V 41.4 m 1.5,-50.500002 V 41.4 m 1,-50.500002 V 41.4 m -70,-50.500002 V 41.4 m 1.5,-50.500002 V 41.4 m 1.5,-50.500002 V 41.4 m 1.5,-50.500002 V 41.4 m 1.5,-50.500002 V 41.4 m 1.5,-50.500002 V 41.4 m 1.5,-50.500002 V 41.4 m 1.5,-50.500002 V 41.4 m 1.5,-50.500002 V 41.4 m 1.5,-50.500002 V 41.4 m 1.5,-50.500002 V 41.4 m 1.5,-50.500002 V 41.4 m 1.5,-50.500002 V 41.4 m 1.5,-50.500002 V 41.4 m 1.5,-50.500002 V 41.4 m 1.5,-50.500002 V 41.4 m 1.5,-50.500002 V 41.4 m 1.5,-50.500002 V 41.4 m 1.5,-50.500002 V 41.4 m 1.5,-50.500002 V 41.4 m 1.5,-50.500002 V 41.4 m 1.5,-50.500002 V 41.4 m 1.5,-50.500002 V 41.4 m 1.5,-50.500002 V 41.4 m 1.5,-50.500002 V 41.4 m 1.5,-50.500002 V 41.4 m 1.5,-50.500002 V 41.4 m 1.5,-50.500002 V 41.4 m 1.5,-50.500002 V 41.4 m 1.5,-50.500002 V 41.4 m 1.5,-50.500002 V 41.4 m 1.5,-50.500002 V 41.4 m 1.5,-50.500002 V 41.4 m 1.5,-50.500002 V 41.4 m 1.5,-50.500002 V 41.4 m 1.5,-50.500002 V 41.4 m 1.5,-50.500002 V 41.4 m 1.5,-50.500002 V 41.4 m 1.5,-50.500002 V 41.4 m 1.5,-50.500002 V 41.4 m 1.5,-50.500002 V 41.4 m 1.5,-50.500002 V 41.4 m 1.5,-50.500002 V 41.4 m -63,-50.750002 h 70 V 41.65 h -70 z m 0.25,1.5 H 2.1 m 36.5,1.5 H 2.1 m 36.5,1.5 H 2.1 m 36.5,1.5 H 2.1 m 36.5,1.5 H 2.1 m 36.5,1.5 H 2.1 m 36.5,1.5 H 2.1 m 36.5,1.5 H 2.1 m 36.5,1.5 H 2.1 m 36.5,1.5 H 2.1 m 36.5,1.5 H 2.1 m 36.5,1.5 H 2.1 m 36.5,1.5 H 2.1 m 36.5,1.5 H 2.1 m 36.5,1.5 H 2.1 m 36.5,1.5 H 2.1 m 36.5,1.5 H 2.1 m 36.5,1.5 H 2.1 m 36.5,1.5 H 2.1 m 36.5,1.5 H 2.1 M 38.6,22.15 H 2.1 m 36.5,1.5 H 2.1 m 36.5,1.5 H 2.1 m 36.5,1.5 H 2.1 m 36.5,1.5 H 2.1 m 36.5,1.5 H 2.1 m 36.5,1.5 H 2.1 m 36.5,1.5 H 2.1 m 36.5,1.5 H 2.1 m 36.5,1.5 H 2.1 m 36.5,1.5 H 2.1 m 36.5,1.5 H 2.1 m 36.5,1.5 H 2.1 m 36.5,1.5 H 2.1 M 24.85,-9.100002 V 41.4 m 1.5,-50.500002 V 41.4 m 1.5,-50.500002 V 41.4 m 1.5,-50.500002 V 41.4 m 1.5,-50.500002 V 41.4 m 1.5,-50.500002 V 41.4 m 1.5,-50.500002 V 41.4 m 1.5,-50.500002 V 41.4 m 1.5,-50.500002 V 41.4 m 1.5,-50.500002 V 41.4 M 3.85,-9.100002 V 41.4 M 5.35,-9.100002 V 41.4 M 6.85,-9.100002 V 41.4 M 8.35,-9.100002 V 41.4 M 9.85,-9.100002 V 41.4 m 1.5,-50.500002 V 41.4 m 1.5,-50.500002 V 41.4 m 1.5,-50.500002 V 41.4 m 1.5,-50.500002 V 41.4 m 1.5,-50.500002 V 41.4 m 1.5,-50.500002 V 41.4 m 1.5,-50.500002 V 41.4 m 1.5,-50.500002 V 41.4 m 1.5,-50.500002 V 41.4 m -21,-50.750002 h 36 V 41.65 h -36 z"
     style="display:none;fill:#4d4d4d;fill-rule:evenodd;stroke:#575d5e;stroke-width:0.5;shape-rendering:crispEdges"
     transform="translate(27.852129,122.06132)"
     clip-path="url(#a)"
     inkscape:connector-curvature="0" />
  <g
     id="g216"
     transform="translate(3.5625717e-6,57.151105)">
    <g
       transform="matrix(3.7869001,0,0,5.1911952,-245.03375,-387.71112)"
       id="RL_Drive">
      <rect
         style="fill:#575d5e;stroke:#000000;stroke-width:0.80000001;shape-rendering:crispEdges"
         y="64"
         x="65"
         width="45"
         height="41"
         id="rect179" />
      <g
         style="shape-rendering:crispEdges"
         id="g181">
        <g
           id="g183">
          <rect
             style="fill:#bb1e10"
             y="64.400002"
             x="65.399994"
             width="44.200001"
             height="6.5"
             id="rect185" />
          <path
             style="fill:none;stroke:#ffffff;stroke-width:0.5"
             inkscape:connector-curvature="0"
             d="m 65.4,71.150004 h 44.2"
             id="path187" />
          <path
             style="fill:#ffffff"
             inkscape:connector-curvature="0"
             d="m 68.16965,65.150002 -0.655857,2.450006 h 1.354883 v -2.450006 z m 0.799028,0 v 2.450006 h 1.354889 l -0.65576,-2.450006 z m 2.800014,0 v 2.450006 h 1.450006 v -2.450006 z m 1.550008,0 v 2.450006 h 1.517879 a 1.5000067,1.5000067 0 0 0 -0.519046,-0.344451 1.125005,1.125005 0 0 0 0.576272,-0.980541 1.125005,1.125005 0 0 0 -1.125003,-1.125014 1.125005,1.125005 0 0 0 -1.03e-4,0 z m 2.350009,0 v 2.450006 h 1.450006 v -2.450006 z m 1.550008,0 v 2.450006 h 1.517879 a 1.5000067,1.5000067 0 0 0 -0.519046,-0.344451 1.125005,1.125005 0 0 0 0.576272,-0.980541 1.125005,1.125005 0 0 0 -1.125003,-1.125014 1.125005,1.125005 0 0 0 -1.03e-4,0 z m -9.731681,2.549993 -0.655862,2.450006 H 68.08118 L 68.346215,69.15 h 0.522461 v -1.450005 z m 1.481642,0 V 69.15 h 0.522564 l 0.264943,1.000001 h 1.250006 l -0.655764,-2.450006 z m 2.800014,0 v 2.450006 h 1.450006 v -2.450006 z m 1.550008,0 v 2.450006 h 0.450004 a 1.5000067,1.5000067 0 0 0 9.8e-5,0 A 1.5000067,1.5000067 0 0 0 75.268808,68.65 1.5000067,1.5000067 0 0 0 74.927107,67.699995 h -1.608402 z m 2.350009,0 v 2.450006 h 1.450006 v -2.450006 z m 1.550008,0 v 2.450006 h 0.449999 a 1.5000067,1.5000067 0 0 0 1.03e-4,0 A 1.5000067,1.5000067 0 0 0 79.168825,68.65 1.5000067,1.5000067 0 0 0 78.827129,67.699995 Z"
             id="path189" />
        </g>
        <g
           style="font-weight:bold;font-size:5.39302158px;font-family:sans-serif;letter-spacing:0;word-spacing:0;fill:#ffffff"
           id="g191">
          <text
             style="line-height:0%"
             y="69.335762"
             xml:space="preserve"
             x="87.233292"
             line-height="100%"
             id="text193"><tspan
               style="font-weight:bold;font-size:3.75px;line-height:100%;font-family:sans-serif;fill:#ffffff"
               y="69.335762"
               x="87.233292"
               line-height="100%"
               font-weight="bold"
               font-size="3.75"
               id="tspan195">TMax XT5</tspan></text>
        </g>
      </g>
      <g
         style="shape-rendering:crispEdges"
         id="g197">
        <path
           style="fill:#ff0000;fill-rule:evenodd;stroke:#808000;stroke-width:0.99999994"
           inkscape:connector-curvature="0"
           d="M 70.499997,96.500004 H 85.999996"
           id="path199" />
        <path
           style="fill:none;stroke:#ffffff"
           inkscape:connector-curvature="0"
           d="m 104.5,96.500004 h 4"
           id="path201" />
        <path
           style="fill:none;stroke:#ffffff"
           inkscape:connector-curvature="0"
           d="m 66.499997,96.500004 h 4"
           id="path203" />
        <path
           style="fill:none;stroke:#ffff00"
           inkscape:connector-curvature="0"
           d="m 70.499997,85.500024 c 8.544457,0 8.68453,0 8.68453,0"
           id="path205" />
        <path
           style="fill:none;stroke:#808000"
           inkscape:connector-curvature="0"
           d="M 95.115112,85.500024 H 104.5"
           id="path207" />
        <path
           style="fill:none;stroke:#ffffff"
           inkscape:connector-curvature="0"
           d="m 104.5,85.498884 h 4"
           id="path209" />
        <path
           style="fill:none;stroke:#ffffff"
           inkscape:connector-curvature="0"
           d="m 66.499997,85.500024 h 4"
           id="path211" />
        <path
           style="fill:#ff0000;fill-rule:evenodd;stroke:#ff0000"
           inkscape:connector-curvature="0"
           d="M 70.499997,79.500024 H 104.5"
           id="path213" />
        <path
           style="fill:none;stroke:#ffffff"
           inkscape:connector-curvature="0"
           d="m 104.5,79.498884 h 4"
           id="path215" />
        <path
           style="fill:none;stroke:#ffffff"
           inkscape:connector-curvature="0"
           d="m 66.499997,79.500024 h 4"
           id="path217" />
        <path
           style="fill:#ff0000;fill-rule:evenodd;stroke:#808000;stroke-width:0.99999994"
           inkscape:connector-curvature="0"
           d="M 89.000003,96.499994 H 104.5"
           id="path219" />
        <circle
           style="fill:none;stroke:#ffffff;stroke-width:0.5"
           r="2.5"
           cy="92.608803"
           cx="74.750008"
           id="circle221" />
        <text
           y="78.603653"
           xml:space="preserve"
           x="97.741516"
           style="font-size:12.5px;line-height:0%;font-family:sans-serif;letter-spacing:0;word-spacing:0;overflow:visible;fill:#ffffff"
           line-height="125%"
           id="text223"><tspan
             style="font-size:6.25px;fill:#ffffff"
             y="78.603653"
             x="97.741516"
             font-size="6.25"
             id="tspan225">on</tspan></text>
        <text
           y="95.462502"
           xml:space="preserve"
           x="97.741516"
           style="font-size:12.5px;line-height:0%;font-family:sans-serif;letter-spacing:0;word-spacing:0;overflow:visible;fill:#ffffff"
           line-height="125%"
           id="text227"><tspan
             style="font-size:6.25px;fill:#ffffff"
             y="95.462502"
             x="97.741516"
             font-size="6.25"
             id="tspan229">off</tspan></text>
        <text
           y="78.698257"
           xml:space="preserve"
           x="73.721252"
           style="font-size:12.5px;line-height:0%;font-family:sans-serif;letter-spacing:0;word-spacing:0;overflow:visible;fill:#ffffff"
           line-height="125%"
           id="text231"><tspan
             style="font-size:7.5px;fill:#ffffff"
             y="78.698257"
             x="73.721252"
             font-size="7.5"
             id="tspan233">l</tspan></text>
      </g>
      <g
         style="shape-rendering:crispEdges"
         id="g235">
        <path
           style="fill:#d4d5df;stroke:#000000;stroke-width:0.5;stroke-linejoin:round"
           inkscape:connector-curvature="0"
           d="m 79.000002,70.707944 h 17 v 32.835636 c -5.666667,1.58783 -11.333333,1.68229 -17,0 z"
           id="path237" />
        <path
           style="fill:none;stroke:#808080;stroke-width:0.5;stroke-linejoin:round"
           inkscape:connector-curvature="0"
           d="m 79.763669,84.020364 c 5.562624,-1.52999 10.424614,-1.37538 15.472662,0 0.144189,0.0393 0.263671,0.19756 0.263671,0.44296 v 15.3747 c 0,0.245406 -0.119652,0.383566 -0.263671,0.442976 -5.151399,2.12519 -9.79896,2.13601 -15.472662,0 -0.144655,-0.0545 -0.263667,-0.19757 -0.263667,-0.442976 v -15.3747 c 0,-0.2454 0.119513,-0.40331 0.263667,-0.44296 z"
           id="path239" />
        <path
           style="fill:none;stroke:#000000;stroke-width:0.80000001;stroke-linecap:round"
           inkscape:connector-curvature="0"
           d="m 81.227107,98.895414 c 3.9498,0.75 7.86835,0.78125 11.75565,0"
           id="path241" />
        <path
           style="fill:none;stroke:#000000;stroke-width:0.88;stroke-linecap:round"
           inkscape:connector-curvature="0"
           d="m 81.227107,94.395414 c 3.9498,0.75 7.86835,0.78125 11.75565,0"
           id="path243" />
        <path
           style="fill:none;stroke:#000000;stroke-width:0.80000001;stroke-linecap:round"
           inkscape:connector-curvature="0"
           d="m 81.227107,95.895414 c 3.9498,0.75 7.86835,0.78125 11.75565,0"
           id="path245" />
        <path
           style="fill:none;stroke:#000000;stroke-width:0.80000001;stroke-linecap:round"
           inkscape:connector-curvature="0"
           d="m 81.227107,97.395414 c 3.9498,0.75 7.86835,0.78125 11.75565,0"
           id="path247" />
      </g>
      <g
         id="g249" />
      <g
         style="shape-rendering:crispEdges"
         id="g251">
        <circle
           style="overflow:visible;fill:#c7cacc;fill-rule:evenodd;stroke:#333333;stroke-width:0.25;stroke-linecap:round;stroke-linejoin:round"
           r="2.5"
           cy="100.96954"
           cx="103.75001"
           id="circle253" />
        <text
           y="101.42395"
           xml:space="preserve"
           x="102.15638"
           style="font-size:12.5px;line-height:0%;font-family:sans-serif;letter-spacing:0;word-spacing:0;overflow:visible;fill:#4d4d4d;fill-opacity:0.9372549"
           line-height="125%"
           id="text255"><tspan
             style="font-size:1.25px;fill:#4d4d4d;fill-opacity:0.9372549"
             y="101.42395"
             x="102.15638"
             font-size="1.25"
             id="tspan257">TEST</tspan></text>
      </g>
    </g>
  </g>
  <g
     id="RC_Sel"
     style="display:none"
     transform="translate(0.35212722,56.061316)">
    <rect
       style="fill:#4d4d4d;fill-rule:evenodd;stroke:#333333;stroke-width:0.80000001;shape-rendering:crispEdges"
       y="161"
       x="3"
       width="134"
       height="58"
       id="rect261" />
    <g
       id="g263">
      <rect
         style="fill:#575d5e;fill-rule:evenodd;shape-rendering:crispEdges"
         y="164"
         x="5"
         width="130"
         height="52"
         id="rect265" />
      <path
         style="fill:none;stroke:#333333;stroke-width:0.5;shape-rendering:crispEdges"
         inkscape:connector-curvature="0"
         d="m 36,216.00001 v -52"
         id="path267" />
      <path
         style="fill:none;stroke:#ffffff;stroke-width:0.5;shape-rendering:crispEdges"
         inkscape:connector-curvature="0"
         d="M 64.96528,211.06569 H 87.850371"
         id="path269" />
      <path
         style="fill:none;stroke:#ffffff;stroke-width:0.5;shape-rendering:crispEdges"
         inkscape:connector-curvature="0"
         d="M 64.75,171.56569 H 87.635091"
         id="path271" />
      <path
         style="fill:none;stroke:#333333;stroke-width:0.49999997;shape-rendering:crispEdges"
         inkscape:connector-curvature="0"
         d="m 64.994526,216.00001 v -52"
         id="path273" />
      <path
         style="fill:none;stroke:#333333;stroke-width:0.5;shape-rendering:crispEdges"
         inkscape:connector-curvature="0"
         d="M 87.501864,216 V 164.00001"
         id="path275" />
      <path
         style="fill:none;stroke:#333333;stroke-width:0.5;shape-rendering:crispEdges"
         inkscape:connector-curvature="0"
         d="M 64.75,171.06569 H 87.635091"
         id="path277" />
      <path
         style="fill:none;stroke:#ffffff;stroke-width:0.5;shape-rendering:crispEdges"
         inkscape:connector-curvature="0"
         d="M 35.75,211.06562 H 5"
         id="path279" />
      <path
         style="fill:none;stroke:#333333;stroke-width:0.5;shape-rendering:crispEdges"
         inkscape:connector-curvature="0"
         d="M 87.850376,197.93676 H 116.16137"
         id="path281" />
      <path
         style="fill:none;stroke:#ffffff;stroke-width:0.5;shape-rendering:crispEdges"
         inkscape:connector-curvature="0"
         d="M 87.850376,198.43676 H 116.16137"
         id="path283" />
      <path
         inkscape:connector-curvature="0"
         style="fill:none;stroke:#4d4d4d;stroke-width:0.5;stroke-linecap:round;stroke-linejoin:round;shape-rendering:crispEdges"
         d="m 116.15819,164.26839 v 21.50347 h -2.59961 v 0.004 a 4,3.9366337 0 0 0 -0.0586,-0.004 4,3.9366337 0 0 0 -3.99999,3.93664 4,3.9366337 0 0 0 3.99999,3.93663 4,3.9366337 0 0 0 0.0586,-0.002 v 0.002 h 2.59961 v 7.09286 1.96832 h 2 16.57226 v -1.96832 h -16.57226 v -36.4696 z"
         id="path285" />
      <path
         style="fill:#333333;fill-rule:evenodd;stroke:#333333;stroke-width:0.5;shape-rendering:crispEdges"
         inkscape:connector-curvature="0"
         d="M 35.75,210.56562 H 5"
         id="path287" />
      <path
         style="fill:#ffffff;fill-rule:evenodd;stroke:#ffffff;stroke-width:0.5;shape-rendering:crispEdges"
         inkscape:connector-curvature="0"
         d="m 36.5,216.00001 v -51.985"
         id="path289" />
      <path
         style="fill:none;stroke:#333333;stroke-width:0.5;shape-rendering:crispEdges"
         inkscape:connector-curvature="0"
         d="M 64.96528,210.56569 H 87.850371"
         id="path291" />
      <path
         style="fill:none;stroke:#ffffff;stroke-width:0.49999997;shape-rendering:crispEdges"
         inkscape:connector-curvature="0"
         d="m 65.494526,216.00001 v -52"
         id="path293" />
      <path
         style="fill:none;stroke:#ffffff;stroke-width:0.5;shape-rendering:crispEdges"
         inkscape:connector-curvature="0"
         d="M 88.001864,216 V 164.00001"
         id="path295" />
      <circle
         style="fill:#008000;stroke:#787876;stroke-width:0.5;stroke-linecap:square;shape-rendering:crispEdges"
         r="3.75"
         cy="200.31567"
         cx="14.15"
         id="circle297" />
      <circle
         style="fill:#ffff00;stroke:#787876;stroke-width:0.5;stroke-linecap:round;stroke-linejoin:round;shape-rendering:crispEdges"
         r="1.85"
         cy="186.81567"
         cx="18.499989"
         id="circle299" />
      <circle
         style="fill:#808000;stroke:#787876;stroke-width:0.5;stroke-linecap:round;stroke-linejoin:round;shape-rendering:crispEdges"
         r="1.85"
         cy="180.81567"
         cx="18.499989"
         id="circle301" />
      <path
         inkscape:connector-curvature="0"
         style="fill:#ffffff;fill-rule:evenodd;stroke:#ffffff;stroke-width:0.80000001;stroke-linecap:round;stroke-dasharray:0.80000001, 3.20000005;shape-rendering:crispEdges"
         d="m 24.928764,200.56569 h 9.06683"
         id="path303" />
      <path
         inkscape:connector-curvature="0"
         style="fill:#ffffff;fill-rule:evenodd;stroke:#ffffff;stroke-width:0.80000001;stroke-linecap:round;stroke-dasharray:0.80000001, 3.20000003;shape-rendering:crispEdges"
         d="m 24.816774,186.56569 h 6.564002"
         id="path305" />
      <circle
         style="fill:#f2f2f2;shape-rendering:crispEdges"
         r="2.5"
         cy="181"
         cx="51.199997"
         id="circle307" />
      <circle
         style="fill:#f2f2f2;shape-rendering:crispEdges"
         r="2.5"
         cy="199"
         cx="51.199997"
         id="circle309" />
      <path
         style="fill:#ececec;fill-rule:evenodd;stroke:#e6e6e6;stroke-width:0.5;shape-rendering:crispEdges"
         inkscape:connector-curvature="0"
         d="m 51.218105,185.00001 c 0,10.26667 0,10 0,10"
         id="path311" />
      <circle
         style="fill:#ececec;stroke:#333333;stroke-width:0.5;stroke-linecap:square;shape-rendering:crispEdges"
         r="4"
         cy="208.90004"
         cx="108.9"
         id="circle313" />
      <path
         inkscape:connector-curvature="0"
         style="fill:#ffffff;fill-rule:evenodd;stroke:#ffffff;stroke-width:0.79999995;stroke-linecap:round;stroke-dasharray:0.79999998, 3.19999995;shape-rendering:crispEdges"
         d="m 120.14596,207.45997 h 11.0139"
         id="path315" />
      <path
         inkscape:connector-curvature="0"
         style="fill:#ffffff;fill-rule:evenodd;stroke:#ffffff;stroke-width:0.79999995;stroke-linecap:round;stroke-dasharray:0.79999998, 3.19999994;shape-rendering:crispEdges"
         d="m 122.45102,211.52583 h 6.40378"
         id="path317" />
      <path
         inkscape:connector-curvature="0"
         style="fill:#ffffff;fill-rule:evenodd;stroke:#ffffff;stroke-width:0.79999995;stroke-linecap:round;stroke-dasharray:0.79999998, 3.19999995;shape-rendering:crispEdges"
         d="M 72.395978,214.08497 H 83.40988"
         id="path319" />
      <rect
         y="179.31569"
         x="118.79998"
         width="1.5"
         style="fill:#4d4d4d;stroke:#666666;stroke-width:0.25;stroke-linecap:round;stroke-linejoin:round;shape-rendering:crispEdges"
         height="6"
         id="rect321" />
      <path
         style="fill:#b3b3b3;shape-rendering:crispEdges"
         inkscape:connector-curvature="0"
         d="m 52.531333,199.55302 h -2.662676 l 1.331338,-2.30595 z"
         id="path323" />
      <path
         style="fill:#b3b3b3;shape-rendering:crispEdges"
         inkscape:connector-curvature="0"
         d="m 52.531333,180.44707 h -2.662676 l 1.331338,2.30594 z"
         id="path325" />
      <path
         style="fill:#b3b3b3;shape-rendering:crispEdges"
         inkscape:connector-curvature="0"
         d="M 106.40001,210.26494 H 111.4 l -2.49999,-4.33012 z"
         id="path327" />
      <text
         y="215.10526"
         xml:space="preserve"
         x="7.3101592"
         style="font-weight:bold;font-size:5.39302158px;line-height:0%;font-family:sans-serif;letter-spacing:0;word-spacing:0;fill:#ffffff;shape-rendering:crispEdges"
         line-height="100%"
         id="text329"><tspan
           style="font-weight:bold;font-size:3.75px;line-height:100%;font-family:sans-serif;fill:#ffffff"
           y="215.10526"
           x="7.3101592"
           line-height="100%"
           font-weight="bold"
           font-size="3.75"
           id="tspan331">RC sel </tspan></text>
      <g
         id="g333" />
      <g
         style="shape-rendering:crispEdges"
         id="g335">
        <circle
           style="overflow:visible;fill:#c7cacc;fill-rule:evenodd;stroke:#333333;stroke-width:0.25;stroke-linecap:round;stroke-linejoin:round"
           r="2.5"
           cy="189.70132"
           cx="113.55905"
           id="circle337" />
        <text
           y="190.15573"
           xml:space="preserve"
           x="111.96542"
           style="font-size:12.5px;line-height:0%;font-family:sans-serif;letter-spacing:0;word-spacing:0;overflow:visible;fill:#4d4d4d;fill-opacity:0.9372549"
           line-height="125%"
           id="text339"><tspan
             style="font-size:1.25px;fill:#4d4d4d;fill-opacity:0.9372549"
             y="190.15573"
             x="111.96542"
             font-size="1.25"
             id="tspan341">TEST</tspan></text>
      </g>
    </g>
  </g>
</svg>
