<?xml version="1.0" encoding="UTF-8" standalone="no"?>
<svg
   xmlns:dc="http://purl.org/dc/elements/1.1/"
   xmlns:cc="http://creativecommons.org/ns#"
   xmlns:rdf="http://www.w3.org/1999/02/22-rdf-syntax-ns#"
   xmlns:svg="http://www.w3.org/2000/svg"
   xmlns="http://www.w3.org/2000/svg"
   xmlns:sodipodi="http://sodipodi.sourceforge.net/DTD/sodipodi-0.dtd"
   xmlns:inkscape="http://www.inkscape.org/namespaces/inkscape"
   id="svg2"
   height="223"
   overflow="visible"
   shape-rendering="crispEdges"
   viewBox="0 0 170 223"
   width="170"
   version="1.1"
   inkscape:version="0.92.4 (5da689c313, 2019-01-14)"
   sodipodi:docname="XT7_01_08_2019.svg">
  <metadata
     id="metadata188">
    <rdf:RDF>
      <cc:Work
         rdf:about="">
        <dc:format>image/svg+xml</dc:format>
        <dc:type
           rdf:resource="http://purl.org/dc/dcmitype/StillImage" />
        <dc:title />
      </cc:Work>
    </rdf:RDF>
  </metadata>
  <defs
     id="defs186" />
  <sodipodi:namedview
     pagecolor="#ffffff"
     bordercolor="#666666"
     borderopacity="1"
     objecttolerance="10"
     gridtolerance="10"
     guidetolerance="10"
     inkscape:pageopacity="0"
     inkscape:pageshadow="2"
     inkscape:window-width="1600"
     inkscape:window-height="1137"
     id="namedview184"
     showgrid="false"
     inkscape:zoom="2.116592"
     inkscape:cx="-16.599523"
     inkscape:cy="97.575792"
     inkscape:window-x="1912"
     inkscape:window-y="-8"
     inkscape:window-maximized="1"
     inkscape:current-layer="layer1" />
  <clipPath
     id="a">
    <rect
       id="rect5"
       height="75.199997"
       shape-rendering="crispEdges"
       width="75.199997"
       x="21.4"
       y="17.4" />
  </clipPath>
  <clipPath
     id="b">
    <path
       id="path8"
       d="m62.14198 54.90205v28.38086h-37.453125v40.16796h13.462891v19.45118h26.535156v-19.4961h19.953125v19.4961h14.548828v-29.58985h-31.466796v-21.38672h31.466796v-37.02343h-5.513672v11.9414h-6.4375v-11.9414zm-34.925781 29.57226h18.421875v18.37305h-18.421875z"
       shape-rendering="crispEdges" />
  </clipPath>
  <clipPath
     id="c">
    <path
       id="path11"
       d="m70 63v44h95v-44zm4.599609 3.5h9v9h-9zm71.900391 4h13v30h-13z"
       shape-rendering="crispEdges" />
  </clipPath>
  <clipPath
     id="d">
    <path
       id="path14"
       d="m35 63v44h130v-44zm4 2.5h9v9h-9zm107.80078 5h12.5v30h-12.5z"
       shape-rendering="crispEdges" />
  </clipPath>
  <clipPath
     id="e">
    <rect
       id="rect17"
       height="75.199997"
       shape-rendering="crispEdges"
       width="75.199997"
       x="21.4"
       y="17.4" />
  </clipPath>
  <clipPath
     id="f">
    <path
       id="path20"
       clip-path="url(#c)"
       d="m165.791 61.919416h-20.5m20.5.5h-20.5m20.5 1.5h-20.5m20.5 1.5h-20.5m20.5 1.5h-20.5m20.5 1.5h-20.5m20.5 1.5h-20.5m20.5 1.5h-20.5m20.5 1.5h-20.5m20.5 1.5h-20.5m20.5 1.5h-20.5m20.5 1.5h-20.5m20.5 1.5h-20.5m20.5 1.5h-20.5m20.5 1.5h-20.5m20.5 1.5h-20.5m20.5 1.5h-20.5m20.5 1.5h-20.5m20.5 1.5h-20.5m20.5 1.5h-20.5m20.5 1.5h-20.5m20.5 1.5h-20.5m20.5 1.5h-20.5m20.5 1.5h-20.5m20.5 1.5h-20.5m20.5 1.5h-20.5m20.5 1.5h-20.5m20.5 1.500004h-20.5m20.5 1.5h-20.5m20.5 1.5h-20.5m20.5 1.5h-20.5m20.5 1.5h-20.5m20.5 1.5h-20.5m20.25-46.750004v46.500004m-20-46.500004v46.500004m1.5-46.500004v46.500004m1.5-46.500004v46.500004m1.5-46.500004v46.500004m1.5-46.500004v46.500004m1.5-46.500004v46.500004m1.5-46.500004v46.500004m1.5-46.500004v46.500004m1.5-46.500004v46.500004m1.5-46.500004v46.500004m1.5-46.500004v46.500004m1.5-46.500004v46.500004m1.5-46.500004v46.500004m1.5-46.500004v46.500004m-19.5-46.750004h20v47.000004h-20zm .24974 0h-76.500002m76.500002.5h-76.500002m76.500002 1.5h-76.500002m76.500002 1.5h-76.500002m76.500002 1.5h-76.500002m76.500002 1.5h-76.500002m76.500002 1.5h-76.500002m76.500002 1.5h-76.500002m76.500002 1.5h-76.500002m76.500002 1.5h-76.500002m76.500002 1.5h-76.500002m76.500002 1.5h-76.500002m76.500002 1.5h-76.500002m76.500002 1.5h-76.500002m76.500002 1.5h-76.500002m76.500002 1.5h-76.500002m76.500002 1.5h-76.500002m76.500002 1.5h-76.500002m76.500002 1.5h-76.500002m76.500002 1.5h-76.500002m76.500002 1.5h-76.500002m76.500002 1.5h-76.500002m76.500002 1.5h-76.500002m76.500002 1.5h-76.500002m76.500002 1.5h-76.500002m76.500002 1.5h-76.500002m76.500002 1.5h-76.500002m76.500002 1.500004h-76.500002m76.500002 1.5h-76.500002m76.500002 1.5h-76.500002m76.500002 1.5h-76.500002m76.500002 1.5h-76.500002m76.500002 1.5h-76.500002m62.750002-46.750004v46.500004m1.5-46.500004v46.500004m1.5-46.500004v46.500004m1.5-46.500004v46.500004m1.5-46.500004v46.500004m1.5-46.500004v46.500004m1.5-46.500004v46.500004m1.5-46.500004v46.500004m1.5-46.500004v46.500004m1.5-46.500004v46.500004m-76.000002-46.500004v46.500004m1-46.500004v46.500004m1.5-46.500004v46.500004m1.5-46.500004v46.500004m1.5-46.500004v46.500004m1.5-46.500004v46.500004m1.5-46.500004v46.500004m1.5-46.500004v46.500004m1.5-46.500004v46.500004m1.5-46.500004v46.500004m1.5-46.500004v46.500004m1.5-46.500004v46.500004m1.5-46.500004v46.500004m1.5-46.500004v46.500004m1.5-46.500004v46.500004m1.5-46.500004v46.500004m1.499999-46.500004v46.500004m1.500005-46.500004v46.500004m1.5-46.500004v46.500004m1.5-46.500004v46.500004m1.5-46.500004v46.500004m1.499998-46.500004v46.500004m1.5-46.500004v46.500004m1.5-46.500004v46.500004m1.5-46.500004v46.500004m1.5-46.500004v46.500004m1.5-46.500004v46.500004m1.5-46.500004v46.500004m1.5-46.500004v46.500004m1.5-46.500004v46.500004m1.5-46.500004v46.500004m1.5-46.500004v46.500004m1.5-46.500004v46.500004m1.5-46.500004v46.500004m1.5-46.500004v46.500004m1.5-46.500004v46.500004m1.5-46.500004v46.500004m1.5-46.500004v46.500004m1.5-46.500004v46.500004m1.5-46.500004v46.500004m1.5-46.500004v46.500004m1.5-46.500004v46.500004m-61.000002-46.750004c17.913372-17.913372 76.000002 0 76.000002 0v47.000004h-76.000002c0 0-11.078007-35.921997 0-47.000004z"
       shape-rendering="crispEdges"
       transform="translate(-165.88039)" />
  </clipPath>
  <g
     id="layer1">
    <g
       id="g296"
       transform="matrix(3.7800397,0,0,5.6611288,-359.74381,-375.18854)" />
    <g
       id="g98">
      <rect
         style="fill:#575d5e;stroke:#000000;stroke-width:4.95717478;shape-rendering:crispEdges"
         y="-11.869969"
         x="-51.599865"
         width="253.28108"
         height="279.6933"
         id="rect226" />
      <g
         transform="matrix(5.6284683,0,0,6.8217882,-586.30435,-451.8753)"
         style="shape-rendering:crispEdges"
         id="g228">
        <g
           id="g230">
          <rect
             style="fill:#bb1e10"
             y="64.900002"
             x="95.399994"
             width="44.200001"
             height="6.5"
             id="rect232" />
          <path
             style="fill:none;stroke:#ffffff;stroke-width:0.5"
             inkscape:connector-curvature="0"
             d="m 95.4,71.650004 h 44.2"
             id="path234" />
          <path
             style="fill:#ffffff"
             inkscape:connector-curvature="0"
             d="m 98.16965,65.650002 -0.655857,2.450006 h 1.354883 v -2.450006 z m 0.799028,0 v 2.450006 h 1.354892 l -0.655763,-2.450006 z m 2.800012,0 v 2.450006 h 1.45001 v -2.450006 z m 1.55001,0 v 2.450006 h 1.51788 a 1.5000067,1.5000067 0 0 0 -0.51905,-0.344451 1.125005,1.125005 0 0 0 0.57627,-0.980541 1.125005,1.125005 0 0 0 -1.125,-1.125014 1.125005,1.125005 0 0 0 -1e-4,0 z m 2.35001,0 v 2.450006 h 1.45 v -2.450006 z m 1.55001,0 v 2.450006 h 1.51788 a 1.5000067,1.5000067 0 0 0 -0.51905,-0.344451 1.125005,1.125005 0 0 0 0.57627,-0.980541 1.125005,1.125005 0 0 0 -1.125,-1.125014 1.125005,1.125005 0 0 0 -1e-4,0 z m -9.731684,2.549993 -0.655862,2.450006 H 98.08118 L 98.346215,69.65 h 0.522461 v -1.450005 z m 1.481642,0 V 69.65 h 0.522564 l 0.264943,1.000001 h 1.250005 l -0.65576,-2.450006 z m 2.800012,0 v 2.450006 h 1.45001 v -2.450006 z m 1.55001,0 v 2.450006 h 0.45 a 1.5000067,1.5000067 0 0 0 1e-4,0 1.5000067,1.5000067 0 0 0 1.50001,-1.500001 1.5000067,1.5000067 0 0 0 -0.3417,-0.950005 z m 2.35001,0 v 2.450006 h 1.45 v -2.450006 z m 1.55001,0 v 2.450006 h 0.45 a 1.5000067,1.5000067 0 0 0 1e-4,0 1.5000067,1.5000067 0 0 0 1.5,-1.500001 1.5000067,1.5000067 0 0 0 -0.34169,-0.950005 z"
             id="path236" />
        </g>
        <g
           style="font-weight:bold;font-size:5.39302158px;font-family:sans-serif;letter-spacing:0;word-spacing:0;fill:#ffffff"
           id="g238">
          <text
             style="line-height:0%"
             y="69.835762"
             xml:space="preserve"
             x="117.23329"
             line-height="100%"
             id="text240"><tspan
               style="font-weight:bold;font-size:3.75px;line-height:100%;font-family:sans-serif;fill:#ffffff"
               y="69.835762"
               x="117.23329"
               line-height="100%"
               font-weight="bold"
               font-size="3.75"
               id="tspan242">TMax XT7</tspan></text>
        </g>
      </g>
      <g
         transform="matrix(5.6284683,0,0,6.8217882,-586.30435,-451.8753)"
         style="shape-rendering:crispEdges"
         id="g244">
        <path
           style="fill:#ff0000;fill-rule:evenodd;stroke:#808000;stroke-width:0.99999994"
           inkscape:connector-curvature="0"
           d="M 100.5,97.000004 H 116"
           id="path246" />
        <path
           style="fill:none;stroke:#ffffff"
           inkscape:connector-curvature="0"
           d="m 134.5,97.000004 h 4"
           id="path248" />
        <path
           style="fill:none;stroke:#ffffff"
           inkscape:connector-curvature="0"
           d="M 96.499997,97.000004 H 100.5"
           id="path250" />
        <path
           style="fill:none;stroke:#ffff00"
           inkscape:connector-curvature="0"
           d="m 100.5,86.000024 c 8.54445,0 8.68453,0 8.68453,0"
           id="path252" />
        <path
           style="fill:none;stroke:#808000"
           inkscape:connector-curvature="0"
           d="M 125.11511,86.000024 H 134.5"
           id="path254" />
        <path
           style="fill:none;stroke:#ffffff"
           inkscape:connector-curvature="0"
           d="m 134.5,85.998884 h 4"
           id="path256" />
        <path
           style="fill:none;stroke:#ffffff"
           inkscape:connector-curvature="0"
           d="M 96.499997,86.000024 H 100.5"
           id="path258" />
        <path
           style="fill:#ff0000;fill-rule:evenodd;stroke:#ff0000"
           inkscape:connector-curvature="0"
           d="m 100.5,80.000024 h 34"
           id="path260" />
        <path
           style="fill:none;stroke:#ffffff"
           inkscape:connector-curvature="0"
           d="m 134.5,79.998884 h 4"
           id="path262" />
        <path
           style="fill:none;stroke:#ffffff"
           inkscape:connector-curvature="0"
           d="M 96.499997,80.000024 H 100.5"
           id="path264" />
        <path
           style="fill:#ff0000;fill-rule:evenodd;stroke:#808000;stroke-width:0.99999994"
           inkscape:connector-curvature="0"
           d="m 119,96.999994 h 15.5"
           id="path266" />
        <circle
           style="fill:none;stroke:#ffffff;stroke-width:0.5"
           r="2.5"
           cy="93.108803"
           cx="104.75001"
           id="circle268" />
        <text
           y="79.103653"
           xml:space="preserve"
           x="127.74152"
           style="font-size:12.5px;line-height:0%;font-family:sans-serif;letter-spacing:0;word-spacing:0;overflow:visible;fill:#ffffff"
           line-height="125%"
           id="text270"><tspan
             style="font-size:6.25px;fill:#ffffff"
             y="79.103653"
             x="127.74152"
             font-size="6.25"
             id="tspan272">on</tspan></text>
        <text
           y="95.962509"
           xml:space="preserve"
           x="127.74152"
           style="font-size:12.5px;line-height:0%;font-family:sans-serif;letter-spacing:0;word-spacing:0;overflow:visible;fill:#ffffff"
           line-height="125%"
           id="text274"><tspan
             style="font-size:6.25px;fill:#ffffff"
             y="95.962509"
             x="127.74152"
             font-size="6.25"
             id="tspan276">off</tspan></text>
        <text
           y="79.198257"
           xml:space="preserve"
           x="103.72125"
           style="font-size:12.5px;line-height:0%;font-family:sans-serif;letter-spacing:0;word-spacing:0;overflow:visible;fill:#ffffff"
           line-height="125%"
           id="text278"><tspan
             style="font-size:7.5px;fill:#ffffff"
             y="79.198257"
             x="103.72125"
             font-size="7.5"
             id="tspan280">l</tspan></text>
      </g>
      <g
         transform="matrix(5.6284683,0,0,6.8217882,-586.30435,-451.8753)"
         style="shape-rendering:crispEdges"
         id="g282">
        <path
           style="fill:#d4d5df;stroke:#000000;stroke-width:0.5;stroke-linejoin:round"
           inkscape:connector-curvature="0"
           d="m 109,71.207944 h 17 v 32.835636 c -5.66667,1.58783 -11.33333,1.68229 -17,0 z"
           id="path284" />
        <path
           style="fill:none;stroke:#808080;stroke-width:0.5;stroke-linejoin:round"
           inkscape:connector-curvature="0"
           d="m 109.76367,84.520364 c 5.56262,-1.52999 10.42461,-1.37538 15.47266,0 0.14419,0.0393 0.26367,0.19756 0.26367,0.44296 v 15.374696 c 0,0.24541 -0.11965,0.38357 -0.26367,0.44298 -5.1514,2.12519 -9.79896,2.13601 -15.47266,0 C 109.61901,100.7265 109.5,100.58343 109.5,100.33802 V 84.963324 c 0,-0.2454 0.11951,-0.40331 0.26367,-0.44296 z"
           id="path286" />
        <path
           style="fill:none;stroke:#000000;stroke-width:0.80000001;stroke-linecap:round"
           inkscape:connector-curvature="0"
           d="m 111.22711,99.395414 c 3.9498,0.749996 7.86835,0.781246 11.75565,0"
           id="path288" />
        <path
           style="fill:none;stroke:#000000;stroke-width:0.88;stroke-linecap:round"
           inkscape:connector-curvature="0"
           d="m 111.22711,94.895414 c 3.9498,0.75 7.86835,0.78125 11.75565,0"
           id="path290" />
        <path
           style="fill:none;stroke:#000000;stroke-width:0.80000001;stroke-linecap:round"
           inkscape:connector-curvature="0"
           d="m 111.22711,96.395414 c 3.9498,0.75 7.86835,0.78125 11.75565,0"
           id="path292" />
        <path
           style="fill:none;stroke:#000000;stroke-width:0.80000001;stroke-linecap:round"
           inkscape:connector-curvature="0"
           d="m 111.22711,97.895414 c 3.9498,0.75 7.86835,0.78125 11.75565,0"
           id="path294" />
      </g>
      <g
         transform="matrix(5.6284683,0,0,6.8217882,-586.30435,-451.8753)"
         style="shape-rendering:crispEdges"
         id="g298">
        <circle
           style="overflow:visible;fill:#c7cacc;fill-rule:evenodd;stroke:#333333;stroke-width:0.25;stroke-linecap:round;stroke-linejoin:round"
           r="2.5"
           cy="101.46954"
           cx="133.75"
           id="circle300" />
        <text
           y="101.92395"
           xml:space="preserve"
           x="132.15637"
           style="font-size:12.5px;line-height:0%;font-family:sans-serif;letter-spacing:0;word-spacing:0;overflow:visible;fill:#4d4d4d;fill-opacity:0.9372549"
           line-height="125%"
           id="text302"><tspan
             style="font-size:1.25px;fill:#4d4d4d;fill-opacity:0.9372549"
             y="101.92395"
             x="132.15637"
             font-size="1.25"
             id="tspan304">TEST</tspan></text>
      </g>
    </g>
  </g>
</svg>
