<?xml version="1.0" encoding="UTF-8" standalone="no"?>
<!-- Created with Inkscape (http://www.inkscape.org/) -->

<svg
   xmlns:dc="http://purl.org/dc/elements/1.1/"
   xmlns:cc="http://creativecommons.org/ns#"
   xmlns:rdf="http://www.w3.org/1999/02/22-rdf-syntax-ns#"
   xmlns:svg="http://www.w3.org/2000/svg"
   xmlns="http://www.w3.org/2000/svg"
   xmlns:sodipodi="http://sodipodi.sourceforge.net/DTD/sodipodi-0.dtd"
   xmlns:inkscape="http://www.inkscape.org/namespaces/inkscape"
   width="724.28705mm"
   height="597.00281mm"
   viewBox="0 0 724.28705 597.00281"
   version="1.1"
   id="svg5253"
   inkscape:version="0.92.4 (5da689c313, 2019-01-14)"
   sodipodi:docname="ATS_BORA_800x600_1.svg">
  <defs
     id="defs5247">
    <marker
       inkscape:stockid="Arrow1Lstart"
       orient="auto"
       refY="0.0"
       refX="0.0"
       id="Arrow1Lstart"
       style="overflow:visible"
       inkscape:isstock="true">
      <path
         id="path7683"
         d="M 0.0,0.0 L 5.0,-5.0 L -12.5,0.0 L 5.0,5.0 L 0.0,0.0 z "
         style="fill-rule:evenodd;stroke:none;stroke-width:1pt;stroke-opacity:1;fill:#a6a6a6;fill-opacity:1"
         transform="scale(0.8) translate(12.5,0)" />
    </marker>
  </defs>
  <sodipodi:namedview
     id="base"
     pagecolor="#ffffff"
     bordercolor="#666666"
     borderopacity="1.0"
     inkscape:pageopacity="0.0"
     inkscape:pageshadow="2"
     inkscape:zoom="0.35"
     inkscape:cx="931.59247"
     inkscape:cy="1081.2184"
     inkscape:document-units="mm"
     inkscape:current-layer="g5171"
     showgrid="false"
     inkscape:window-width="1920"
     inkscape:window-height="1017"
     inkscape:window-x="-8"
     inkscape:window-y="-8"
     inkscape:window-maximized="1"
     fit-margin-top="0"
     fit-margin-left="0"
     fit-margin-right="0"
     fit-margin-bottom="0" />
  <metadata
     id="metadata5250">
    <rdf:RDF>
      <cc:Work
         rdf:about="">
        <dc:format>image/svg+xml</dc:format>
        <dc:type
           rdf:resource="http://purl.org/dc/dcmitype/StillImage" />
        <dc:title></dc:title>
      </cc:Work>
    </rdf:RDF>
  </metadata>
  <g
     inkscape:label="Layer 1"
     inkscape:groupmode="layer"
     id="layer1"
     transform="translate(15.119048,322.6814)">
    <g
       transform="translate(33.01103,-3.1541681)"
       id="g5171">
      <g
         id="g8161"
         transform="translate(0.75595238,0.75595242)">
        <path
           inkscape:connector-curvature="0"
           id="rect12"
           d="M -48.130078,-319.52723 V 277.4756 H 676.15696 v -597.00283 z m 437.137668,213.7952 h 135.29767 c 7.11957,0 12.85089,5.73186 12.85089,12.851416 v 143.29771 c 0,7.119556 -5.73132,12.850897 -12.85089,12.850897 H 389.00759 c -7.11957,0 -12.85142,-5.731341 -12.85142,-12.850897 v -143.29771 c 0,-7.119556 5.73185,-12.851416 12.85142,-12.851416 z"
           style="fill:#cccccc;fill-opacity:1;stroke-width:0.26458332" />
        <g
           style="overflow:visible"
           id="KeySlot_Top_Left"
           transform="matrix(1.0876744,0,0,0.96222217,-44.439056,-267.62268)">
          <path
             inkscape:connector-curvature="0"
             id="KeySlot_Part_1-5"
             d="M 0,0 H 17.080999 V 47.056999 H 0 Z"
             style="overflow:visible;fill:#c5c7c4;fill-opacity:0.8;stroke:#000000;stroke-width:0.80000007;stroke-linejoin:miter;stroke-miterlimit:4;stroke-dasharray:none;stroke-opacity:1" />
          <path
             inkscape:connector-curvature="0"
             id="KeySlot_Part_2"
             d="M 0.31600001,0.5 H 16.764 V 46.556999 H 0.31600001 Z"
             style="overflow:visible;fill:#c5c7c4;fill-opacity:1;fill-rule:evenodd;stroke:#000000;stroke-width:0.95700008;stroke-linejoin:miter;stroke-miterlimit:4;stroke-dasharray:none;stroke-opacity:1" />
          <g
             transform="translate(0.19299969,22.927929)"
             id="KeySlot_Centre_Part">
            <path
               inkscape:connector-curvature="0"
               id="KeySlot_Circle_R8"
               d="M 16.357,0 A 8,8 0 0 1 8.3570004,8 8,8 0 0 1 0.35700035,0 8,8 0 0 1 8.3570004,-8 8,8 0 0 1 16.357,0 Z"
               style="overflow:visible;fill:#ffffff;fill-opacity:1;stroke:#000000;stroke-width:0.80000007;stroke-linejoin:round;stroke-miterlimit:4;stroke-dasharray:none;stroke-opacity:1" />
            <path
               inkscape:connector-curvature="0"
               id="KeySlot_Circle_R7"
               d="m 15.357,0 a 7,7 0 0 1 -6.9999996,7 7,7 0 0 1 -7,-7 7,7 0 0 1 7,-7 A 7,7 0 0 1 15.357,0 Z"
               style="overflow:visible;fill:#ffffff;fill-opacity:1;stroke:#000000;stroke-width:0.80000007;stroke-linejoin:round;stroke-miterlimit:4;stroke-dasharray:none;stroke-opacity:1" />
            <path
               inkscape:connector-curvature="0"
               id="KeySlot_Circle_R6"
               d="m 14.357,0 a 6,6 0 0 1 -5.9999996,6 6,6 0 0 1 -6,-6 6,6 0 0 1 6,-6 A 6,6 0 0 1 14.357,0 Z"
               style="overflow:visible;fill:#ffffff;fill-opacity:1;stroke:#000000;stroke-width:0.80000007;stroke-linejoin:round;stroke-miterlimit:4;stroke-dasharray:none;stroke-opacity:1" />
            <path
               inkscape:connector-curvature="0"
               id="KeySlot_Circle_R5"
               d="m 13.357,0 a 5,5 0 0 1 -4.9999996,5 5,5 0 0 1 -5,-5 5,5 0 0 1 5,-5 A 5,5 0 0 1 13.357,0 Z"
               style="overflow:visible;fill:#ffffff;fill-opacity:1;stroke:#000000;stroke-width:0.80000007;stroke-linejoin:round;stroke-miterlimit:4;stroke-dasharray:none;stroke-opacity:1" />
            <path
               inkscape:connector-curvature="0"
               id="KeySlot_Circle_R3.5"
               d="m 11.857,0 a 3.5,3.5 0 0 1 -3.4999996,3.5 3.5,3.5 0 0 1 -3.5,-3.5 3.5,3.5 0 0 1 3.5,-3.5 A 3.5,3.5 0 0 1 11.857,0 Z"
               style="overflow:visible;fill:#ffffff;fill-opacity:1;stroke:#000000;stroke-width:0.80000007;stroke-linejoin:round;stroke-miterlimit:4;stroke-dasharray:none;stroke-opacity:1" />
            <path
               inkscape:connector-curvature="0"
               d="M 11.391372,6.2000003e-7 H 5.3226288 M 8.3570002,-3.0554623 v 6.1109246"
               id="KeySlot_Centre"
               style="overflow:visible;fill:#c5c7c4;stroke:#000000;stroke-width:1.01496589" />
          </g>
          <g
             id="KeySlot_Slant_lines">
            <path
               style="fill:none;fill-rule:evenodd;stroke:#000000;stroke-width:0.48639783;stroke-linecap:butt;stroke-linejoin:miter;stroke-miterlimit:4;stroke-dasharray:none;stroke-opacity:1"
               d="M 0.47823112,45.307264 5.8815891,30.706828"
               id="path4445"
               inkscape:connector-curvature="0" />
            <path
               style="fill:none;fill-rule:evenodd;stroke:#000000;stroke-width:0.48282123;stroke-linecap:butt;stroke-linejoin:miter;stroke-miterlimit:4;stroke-dasharray:none;stroke-opacity:1"
               d="M 11.017991,15.30689 16.469368,2.0675017"
               id="path4453"
               inkscape:connector-curvature="0" />
            <path
               style="fill:none;fill-rule:evenodd;stroke:#000000;stroke-width:0.45493194;stroke-linecap:butt;stroke-linejoin:miter;stroke-miterlimit:4;stroke-dasharray:none;stroke-opacity:1"
               d="M 16.384711,45.177766 10.994854,30.836325"
               id="path4455"
               inkscape:connector-curvature="0" />
            <path
               style="fill:none;fill-rule:evenodd;stroke:#000000;stroke-width:0.47866145;stroke-linecap:butt;stroke-linejoin:miter;stroke-miterlimit:4;stroke-dasharray:none;stroke-opacity:1"
               d="M 5.9792324,15.079491 0.38058792,1.9715201"
               id="path4457"
               inkscape:connector-curvature="0" />
          </g>
        </g>
        <g
           transform="matrix(1.0876744,0,0,0.96222217,656.84794,-267.62268)"
           id="KeySlot_Top_Right"
           style="overflow:visible">
          <path
             inkscape:connector-curvature="0"
             id="rect5070"
             d="M 0,0 H 17.080999 V 47.056999 H 0 Z"
             style="overflow:visible;fill:#c5c7c4;fill-opacity:0.8;stroke:#000000;stroke-width:0.80000007;stroke-linejoin:miter;stroke-miterlimit:4;stroke-dasharray:none;stroke-opacity:1" />
          <path
             inkscape:connector-curvature="0"
             id="rect5072"
             d="M 0.31600001,0.5 H 16.764 V 46.556999 H 0.31600001 Z"
             style="overflow:visible;fill:#c5c7c4;fill-opacity:1;fill-rule:evenodd;stroke:#000000;stroke-width:0.95700008;stroke-linejoin:miter;stroke-miterlimit:4;stroke-dasharray:none;stroke-opacity:1" />
          <g
             id="g5086"
             transform="translate(0.19299969,22.927929)">
            <path
               inkscape:connector-curvature="0"
               id="circle5074"
               d="M 16.357,0 A 8,8 0 0 1 8.3570004,8 8,8 0 0 1 0.35700035,0 8,8 0 0 1 8.3570004,-8 8,8 0 0 1 16.357,0 Z"
               style="overflow:visible;fill:#ffffff;fill-opacity:1;stroke:#000000;stroke-width:0.80000007;stroke-linejoin:round;stroke-miterlimit:4;stroke-dasharray:none;stroke-opacity:1" />
            <path
               inkscape:connector-curvature="0"
               id="circle5076"
               d="m 15.357,0 a 7,7 0 0 1 -6.9999996,7 7,7 0 0 1 -7,-7 7,7 0 0 1 7,-7 A 7,7 0 0 1 15.357,0 Z"
               style="overflow:visible;fill:#ffffff;fill-opacity:1;stroke:#000000;stroke-width:0.80000007;stroke-linejoin:round;stroke-miterlimit:4;stroke-dasharray:none;stroke-opacity:1" />
            <path
               inkscape:connector-curvature="0"
               id="circle5078"
               d="m 14.357,0 a 6,6 0 0 1 -5.9999996,6 6,6 0 0 1 -6,-6 6,6 0 0 1 6,-6 A 6,6 0 0 1 14.357,0 Z"
               style="overflow:visible;fill:#ffffff;fill-opacity:1;stroke:#000000;stroke-width:0.80000007;stroke-linejoin:round;stroke-miterlimit:4;stroke-dasharray:none;stroke-opacity:1" />
            <path
               inkscape:connector-curvature="0"
               id="circle5080"
               d="m 13.357,0 a 5,5 0 0 1 -4.9999996,5 5,5 0 0 1 -5,-5 5,5 0 0 1 5,-5 A 5,5 0 0 1 13.357,0 Z"
               style="overflow:visible;fill:#ffffff;fill-opacity:1;stroke:#000000;stroke-width:0.80000007;stroke-linejoin:round;stroke-miterlimit:4;stroke-dasharray:none;stroke-opacity:1" />
            <path
               inkscape:connector-curvature="0"
               id="circle5082"
               d="m 11.857,0 a 3.5,3.5 0 0 1 -3.4999996,3.5 3.5,3.5 0 0 1 -3.5,-3.5 3.5,3.5 0 0 1 3.5,-3.5 A 3.5,3.5 0 0 1 11.857,0 Z"
               style="overflow:visible;fill:#ffffff;fill-opacity:1;stroke:#000000;stroke-width:0.80000007;stroke-linejoin:round;stroke-miterlimit:4;stroke-dasharray:none;stroke-opacity:1" />
            <path
               style="overflow:visible;fill:#c5c7c4;stroke:#000000;stroke-width:1.01496589"
               id="path5084"
               d="M 11.391372,6.2000003e-7 H 5.3226288 M 8.3570002,-3.0554623 v 6.1109246"
               inkscape:connector-curvature="0" />
          </g>
          <g
             id="g5096">
            <path
               inkscape:connector-curvature="0"
               id="path5088"
               d="M 0.47823112,45.307264 5.8815891,30.706828"
               style="fill:none;fill-rule:evenodd;stroke:#000000;stroke-width:0.48639783;stroke-linecap:butt;stroke-linejoin:miter;stroke-miterlimit:4;stroke-dasharray:none;stroke-opacity:1" />
            <path
               inkscape:connector-curvature="0"
               id="path5090"
               d="M 11.017991,15.30689 16.469368,2.0675017"
               style="fill:none;fill-rule:evenodd;stroke:#000000;stroke-width:0.48282123;stroke-linecap:butt;stroke-linejoin:miter;stroke-miterlimit:4;stroke-dasharray:none;stroke-opacity:1" />
            <path
               inkscape:connector-curvature="0"
               id="path5092"
               d="M 16.384711,45.177766 10.994854,30.836325"
               style="fill:none;fill-rule:evenodd;stroke:#000000;stroke-width:0.45493194;stroke-linecap:butt;stroke-linejoin:miter;stroke-miterlimit:4;stroke-dasharray:none;stroke-opacity:1" />
            <path
               inkscape:connector-curvature="0"
               id="path5094"
               d="M 5.9792324,15.079491 0.38058792,1.9715201"
               style="fill:none;fill-rule:evenodd;stroke:#000000;stroke-width:0.47866145;stroke-linecap:butt;stroke-linejoin:miter;stroke-miterlimit:4;stroke-dasharray:none;stroke-opacity:1" />
          </g>
        </g>
        <g
           transform="matrix(1.0876744,0,0,0.96222217,-44.439056,182.37732)"
           id="KeySlot_Bottom_Left"
           style="overflow:visible">
          <path
             inkscape:connector-curvature="0"
             id="rect4638"
             d="M 0,0 H 17.080999 V 47.056999 H 0 Z"
             style="overflow:visible;fill:#c5c7c4;fill-opacity:0.8;stroke:#000000;stroke-width:0.80000007;stroke-linejoin:miter;stroke-miterlimit:4;stroke-dasharray:none;stroke-opacity:1" />
          <path
             inkscape:connector-curvature="0"
             id="rect4640"
             d="M 0.31600001,0.5 H 16.764 V 46.556999 H 0.31600001 Z"
             style="overflow:visible;fill:#c5c7c4;fill-opacity:1;fill-rule:evenodd;stroke:#000000;stroke-width:0.95700008;stroke-linejoin:miter;stroke-miterlimit:4;stroke-dasharray:none;stroke-opacity:1" />
          <g
             id="g4654"
             transform="translate(0.19299969,22.927929)">
            <path
               inkscape:connector-curvature="0"
               id="circle4642"
               d="M 16.357,0 A 8,8 0 0 1 8.3570004,8 8,8 0 0 1 0.35700035,0 8,8 0 0 1 8.3570004,-8 8,8 0 0 1 16.357,0 Z"
               style="overflow:visible;fill:#ffffff;fill-opacity:1;stroke:#000000;stroke-width:0.80000007;stroke-linejoin:round;stroke-miterlimit:4;stroke-dasharray:none;stroke-opacity:1" />
            <path
               inkscape:connector-curvature="0"
               id="circle4644"
               d="m 15.357,0 a 7,7 0 0 1 -6.9999996,7 7,7 0 0 1 -7,-7 7,7 0 0 1 7,-7 A 7,7 0 0 1 15.357,0 Z"
               style="overflow:visible;fill:#ffffff;fill-opacity:1;stroke:#000000;stroke-width:0.80000007;stroke-linejoin:round;stroke-miterlimit:4;stroke-dasharray:none;stroke-opacity:1" />
            <path
               inkscape:connector-curvature="0"
               id="circle4646"
               d="m 14.357,0 a 6,6 0 0 1 -5.9999996,6 6,6 0 0 1 -6,-6 6,6 0 0 1 6,-6 A 6,6 0 0 1 14.357,0 Z"
               style="overflow:visible;fill:#ffffff;fill-opacity:1;stroke:#000000;stroke-width:0.80000007;stroke-linejoin:round;stroke-miterlimit:4;stroke-dasharray:none;stroke-opacity:1" />
            <path
               inkscape:connector-curvature="0"
               id="circle4648"
               d="m 13.357,0 a 5,5 0 0 1 -4.9999996,5 5,5 0 0 1 -5,-5 5,5 0 0 1 5,-5 A 5,5 0 0 1 13.357,0 Z"
               style="overflow:visible;fill:#ffffff;fill-opacity:1;stroke:#000000;stroke-width:0.80000007;stroke-linejoin:round;stroke-miterlimit:4;stroke-dasharray:none;stroke-opacity:1" />
            <path
               inkscape:connector-curvature="0"
               id="circle4650"
               d="m 11.857,0 a 3.5,3.5 0 0 1 -3.4999996,3.5 3.5,3.5 0 0 1 -3.5,-3.5 3.5,3.5 0 0 1 3.5,-3.5 A 3.5,3.5 0 0 1 11.857,0 Z"
               style="overflow:visible;fill:#ffffff;fill-opacity:1;stroke:#000000;stroke-width:0.80000007;stroke-linejoin:round;stroke-miterlimit:4;stroke-dasharray:none;stroke-opacity:1" />
            <path
               style="overflow:visible;fill:#c5c7c4;stroke:#000000;stroke-width:1.01496589"
               id="path4652"
               d="M 11.391372,6.2000003e-7 H 5.3226288 M 8.3570002,-3.0554623 v 6.1109246"
               inkscape:connector-curvature="0" />
          </g>
          <g
             id="g4664"
             transform="translate(0.29463194,-1.5675017)">
            <path
               inkscape:connector-curvature="0"
               id="path4656"
               d="M 0.47823112,45.307264 5.8815891,30.706828"
               style="fill:none;fill-rule:evenodd;stroke:#000000;stroke-width:0.48639783;stroke-linecap:butt;stroke-linejoin:miter;stroke-miterlimit:4;stroke-dasharray:none;stroke-opacity:1" />
            <path
               inkscape:connector-curvature="0"
               id="path4658"
               d="M 11.017991,15.30689 16.469368,2.0675017"
               style="fill:none;fill-rule:evenodd;stroke:#000000;stroke-width:0.48282123;stroke-linecap:butt;stroke-linejoin:miter;stroke-miterlimit:4;stroke-dasharray:none;stroke-opacity:1" />
            <path
               inkscape:connector-curvature="0"
               id="path4660"
               d="M 16.384711,45.177766 10.994854,30.836325"
               style="fill:none;fill-rule:evenodd;stroke:#000000;stroke-width:0.45493194;stroke-linecap:butt;stroke-linejoin:miter;stroke-miterlimit:4;stroke-dasharray:none;stroke-opacity:1" />
            <path
               inkscape:connector-curvature="0"
               id="path4662"
               d="M 5.9792324,15.079491 0.38058792,1.9715201"
               style="fill:none;fill-rule:evenodd;stroke:#000000;stroke-width:0.47866145;stroke-linecap:butt;stroke-linejoin:miter;stroke-miterlimit:4;stroke-dasharray:none;stroke-opacity:1" />
          </g>
        </g>
        <g
           style="overflow:visible"
           id="KeySlot_Bottom_Right"
           transform="matrix(1.0876744,0,0,0.96222217,656.84794,182.37732)">
          <path
             inkscape:connector-curvature="0"
             id="rect4608"
             d="M 0,0 H 17.080999 V 47.056999 H 0 Z"
             style="overflow:visible;fill:#c5c7c4;fill-opacity:0.8;stroke:#000000;stroke-width:0.80000007;stroke-linejoin:miter;stroke-miterlimit:4;stroke-dasharray:none;stroke-opacity:1" />
          <path
             inkscape:connector-curvature="0"
             id="rect4610"
             d="M 0.31600001,0.5 H 16.764 V 46.556999 H 0.31600001 Z"
             style="overflow:visible;fill:#c5c7c4;fill-opacity:1;fill-rule:evenodd;stroke:#000000;stroke-width:0.95700008;stroke-linejoin:miter;stroke-miterlimit:4;stroke-dasharray:none;stroke-opacity:1" />
          <g
             transform="translate(0.19299969,22.927929)"
             id="g4624">
            <path
               inkscape:connector-curvature="0"
               id="circle4612"
               d="M 16.357,0 A 8,8 0 0 1 8.3570004,8 8,8 0 0 1 0.35700035,0 8,8 0 0 1 8.3570004,-8 8,8 0 0 1 16.357,0 Z"
               style="overflow:visible;fill:#ffffff;fill-opacity:1;stroke:#000000;stroke-width:0.80000007;stroke-linejoin:round;stroke-miterlimit:4;stroke-dasharray:none;stroke-opacity:1" />
            <path
               inkscape:connector-curvature="0"
               id="circle4614"
               d="m 15.357,0 a 7,7 0 0 1 -6.9999996,7 7,7 0 0 1 -7,-7 7,7 0 0 1 7,-7 A 7,7 0 0 1 15.357,0 Z"
               style="overflow:visible;fill:#ffffff;fill-opacity:1;stroke:#000000;stroke-width:0.80000007;stroke-linejoin:round;stroke-miterlimit:4;stroke-dasharray:none;stroke-opacity:1" />
            <path
               inkscape:connector-curvature="0"
               id="circle4616"
               d="m 14.357,0 a 6,6 0 0 1 -5.9999996,6 6,6 0 0 1 -6,-6 6,6 0 0 1 6,-6 A 6,6 0 0 1 14.357,0 Z"
               style="overflow:visible;fill:#ffffff;fill-opacity:1;stroke:#000000;stroke-width:0.80000007;stroke-linejoin:round;stroke-miterlimit:4;stroke-dasharray:none;stroke-opacity:1" />
            <path
               inkscape:connector-curvature="0"
               id="circle4618"
               d="m 13.357,0 a 5,5 0 0 1 -4.9999996,5 5,5 0 0 1 -5,-5 5,5 0 0 1 5,-5 A 5,5 0 0 1 13.357,0 Z"
               style="overflow:visible;fill:#ffffff;fill-opacity:1;stroke:#000000;stroke-width:0.80000007;stroke-linejoin:round;stroke-miterlimit:4;stroke-dasharray:none;stroke-opacity:1" />
            <path
               inkscape:connector-curvature="0"
               id="circle4620"
               d="m 11.857,0 a 3.5,3.5 0 0 1 -3.4999996,3.5 3.5,3.5 0 0 1 -3.5,-3.5 3.5,3.5 0 0 1 3.5,-3.5 A 3.5,3.5 0 0 1 11.857,0 Z"
               style="overflow:visible;fill:#ffffff;fill-opacity:1;stroke:#000000;stroke-width:0.80000007;stroke-linejoin:round;stroke-miterlimit:4;stroke-dasharray:none;stroke-opacity:1" />
            <path
               inkscape:connector-curvature="0"
               d="M 11.391372,6.2000003e-7 H 5.3226288 M 8.3570002,-3.0554623 v 6.1109246"
               id="path4622"
               style="overflow:visible;fill:#c5c7c4;stroke:#000000;stroke-width:1.01496589" />
          </g>
          <g
             id="g4634">
            <path
               style="fill:none;fill-rule:evenodd;stroke:#000000;stroke-width:0.48639783;stroke-linecap:butt;stroke-linejoin:miter;stroke-miterlimit:4;stroke-dasharray:none;stroke-opacity:1"
               d="M 0.47823112,45.307264 5.8815891,30.706828"
               id="path4626"
               inkscape:connector-curvature="0" />
            <path
               style="fill:none;fill-rule:evenodd;stroke:#000000;stroke-width:0.48282123;stroke-linecap:butt;stroke-linejoin:miter;stroke-miterlimit:4;stroke-dasharray:none;stroke-opacity:1"
               d="M 11.017991,15.30689 16.469368,2.0675017"
               id="path4628"
               inkscape:connector-curvature="0" />
            <path
               style="fill:none;fill-rule:evenodd;stroke:#000000;stroke-width:0.45493194;stroke-linecap:butt;stroke-linejoin:miter;stroke-miterlimit:4;stroke-dasharray:none;stroke-opacity:1"
               d="M 16.384711,45.177766 10.994854,30.836325"
               id="path4630"
               inkscape:connector-curvature="0" />
            <path
               style="fill:none;fill-rule:evenodd;stroke:#000000;stroke-width:0.47866145;stroke-linecap:butt;stroke-linejoin:miter;stroke-miterlimit:4;stroke-dasharray:none;stroke-opacity:1"
               d="M 5.9792324,15.079491 0.38058792,1.9715201"
               id="path4632"
               inkscape:connector-curvature="0" />
          </g>
        </g>
        <path
           inkscape:connector-curvature="0"
           id="rect5516"
           d="M 94.678272,-296.44287 V 249.5574 H 607.68209 v -546.00027 z m 294.329318,190.71084 h 133.78564 c 7.53835,0 13.60741,6.069083 13.60741,13.607433 V 49.661064 c 0,7.53836 -6.06906,13.60693 -13.60741,13.60693 H 389.00759 c -7.53837,0 -13.60744,-6.06857 -13.60744,-13.60693 V -92.124597 c 0,-7.53835 6.06907,-13.607433 13.60744,-13.607433 z"
           style="opacity:1;fill:#d4d4d4;fill-opacity:1;stroke:#5a5151;stroke-width:1.70000005;stroke-miterlimit:4;stroke-dasharray:none;stroke-opacity:1" />
      </g>
    </g>
  </g>
</svg>
