<?xml version="1.0" encoding="UTF-8" standalone="no"?>
<!-- Created with Inkscape (http://www.inkscape.org/) -->

<svg
   xmlns:osb="http://www.openswatchbook.org/uri/2009/osb"
   xmlns:dc="http://purl.org/dc/elements/1.1/"
   xmlns:cc="http://creativecommons.org/ns#"
   xmlns:rdf="http://www.w3.org/1999/02/22-rdf-syntax-ns#"
   xmlns:svg="http://www.w3.org/2000/svg"
   xmlns="http://www.w3.org/2000/svg"
   xmlns:sodipodi="http://sodipodi.sourceforge.net/DTD/sodipodi-0.dtd"
   xmlns:inkscape="http://www.inkscape.org/namespaces/inkscape"
   width="508.29099mm"
   height="597.00299mm"
   viewBox="0 0 508.29099 597.00299"
   version="1.1"
   id="svg8"
   inkscape:version="0.92.4 (5da689c313, 2019-01-14)"
   sodipodi:docname="ATS_BORA_600X600.svg">
  <defs
     id="defs2">
    <linearGradient
       id="linearGradient4530"
       osb:paint="gradient">
      <stop
         style="stop-color:#000000;stop-opacity:1;"
         offset="0"
         id="stop4526" />
      <stop
         style="stop-color:#000000;stop-opacity:0;"
         offset="1"
         id="stop4528" />
    </linearGradient>
  </defs>
  <sodipodi:namedview
     id="base"
     pagecolor="#ffffff"
     bordercolor="#666666"
     borderopacity="1.0"
     inkscape:pageopacity="0.0"
     inkscape:pageshadow="2"
     inkscape:zoom="0.35"
     inkscape:cx="46.192739"
     inkscape:cy="1106.842"
     inkscape:document-units="mm"
     inkscape:current-layer="layer1"
     showgrid="false"
     inkscape:window-width="1920"
     inkscape:window-height="1017"
     inkscape:window-x="-8"
     inkscape:window-y="-8"
     inkscape:window-maximized="1"
     fit-margin-top="0"
     fit-margin-left="0"
     fit-margin-right="0"
     fit-margin-bottom="0" />
  <metadata
     id="metadata5">
    <rdf:RDF>
      <cc:Work
         rdf:about="">
        <dc:format>image/svg+xml</dc:format>
        <dc:type
           rdf:resource="http://purl.org/dc/dcmitype/StillImage" />
        <dc:title />
      </cc:Work>
    </rdf:RDF>
  </metadata>
  <g
     inkscape:label="Layer 1"
     inkscape:groupmode="layer"
     id="layer1"
     transform="translate(2.2678572,299.44641)">
    <g
       id="g8425"
       transform="translate(0.75595235)">
      <path
         id="rect12"
         d="M -1.5119048,-298.69046 V 298.31238 H 506.77902 V -298.69046 Z M 327.48921,-88.243877 h 133.78561 c 7.53838,0 13.60744,6.068565 13.60744,13.606923 V 67.148699 c 0,7.538349 -6.06906,13.607441 -13.60744,13.607441 H 327.48921 c -7.53837,0 -13.60694,-6.069092 -13.60694,-13.607441 V -74.636954 c 0,-7.538358 6.06857,-13.606923 13.60694,-13.606923 z"
         style="fill:#cccccc;fill-opacity:1;stroke:#000000;stroke-width:1.60000002;stroke-miterlimit:4;stroke-dasharray:none;stroke-opacity:1"
         inkscape:connector-curvature="0" />
      <g
         transform="matrix(1.0876744,0,0,0.96222217,1.4187264,-248.85423)"
         id="KeySlot_Top_Left"
         style="overflow:visible">
        <path
           style="overflow:visible;fill:#c5c7c4;fill-opacity:0.8;stroke:#000000;stroke-width:0.80000007;stroke-linejoin:miter;stroke-miterlimit:4;stroke-dasharray:none;stroke-opacity:1"
           d="M 0,0 H 17.080999 V 47.056999 H 0 Z"
           id="KeySlot_Part_1-5"
           inkscape:connector-curvature="0" />
        <path
           style="overflow:visible;fill:#c5c7c4;fill-opacity:1;fill-rule:evenodd;stroke:#000000;stroke-width:0.95700008;stroke-linejoin:miter;stroke-miterlimit:4;stroke-dasharray:none;stroke-opacity:1"
           d="M 0.31600001,0.5 H 16.764 V 46.556999 H 0.31600001 Z"
           id="KeySlot_Part_2"
           inkscape:connector-curvature="0" />
        <g
           id="KeySlot_Centre_Part"
           transform="translate(0.19299969,22.927929)">
          <path
             style="overflow:visible;fill:#ffffff;fill-opacity:1;stroke:#000000;stroke-width:0.80000007;stroke-linejoin:round;stroke-miterlimit:4;stroke-dasharray:none;stroke-opacity:1"
             d="M 16.357,0 A 8,8 0 0 1 8.3570004,8 8,8 0 0 1 0.35700035,0 8,8 0 0 1 8.3570004,-8 8,8 0 0 1 16.357,0 Z"
             id="KeySlot_Circle_R8"
             inkscape:connector-curvature="0" />
          <path
             style="overflow:visible;fill:#ffffff;fill-opacity:1;stroke:#000000;stroke-width:0.80000007;stroke-linejoin:round;stroke-miterlimit:4;stroke-dasharray:none;stroke-opacity:1"
             d="m 15.357,0 a 7,7 0 0 1 -6.9999996,7 7,7 0 0 1 -7,-7 7,7 0 0 1 7,-7 A 7,7 0 0 1 15.357,0 Z"
             id="KeySlot_Circle_R7"
             inkscape:connector-curvature="0" />
          <path
             style="overflow:visible;fill:#ffffff;fill-opacity:1;stroke:#000000;stroke-width:0.80000007;stroke-linejoin:round;stroke-miterlimit:4;stroke-dasharray:none;stroke-opacity:1"
             d="m 14.357,0 a 6,6 0 0 1 -5.9999996,6 6,6 0 0 1 -6,-6 6,6 0 0 1 6,-6 A 6,6 0 0 1 14.357,0 Z"
             id="KeySlot_Circle_R6"
             inkscape:connector-curvature="0" />
          <path
             style="overflow:visible;fill:#ffffff;fill-opacity:1;stroke:#000000;stroke-width:0.80000007;stroke-linejoin:round;stroke-miterlimit:4;stroke-dasharray:none;stroke-opacity:1"
             d="m 13.357,0 a 5,5 0 0 1 -4.9999996,5 5,5 0 0 1 -5,-5 5,5 0 0 1 5,-5 A 5,5 0 0 1 13.357,0 Z"
             id="KeySlot_Circle_R5"
             inkscape:connector-curvature="0" />
          <path
             style="overflow:visible;fill:#ffffff;fill-opacity:1;stroke:#000000;stroke-width:0.80000007;stroke-linejoin:round;stroke-miterlimit:4;stroke-dasharray:none;stroke-opacity:1"
             d="m 11.857,0 a 3.5,3.5 0 0 1 -3.4999996,3.5 3.5,3.5 0 0 1 -3.5,-3.5 3.5,3.5 0 0 1 3.5,-3.5 A 3.5,3.5 0 0 1 11.857,0 Z"
             id="KeySlot_Circle_R3.5"
             inkscape:connector-curvature="0" />
          <path
             style="overflow:visible;fill:#c5c7c4;stroke:#000000;stroke-width:1.01496589"
             id="KeySlot_Centre"
             d="M 11.391372,6.2000003e-7 H 5.3226288 M 8.3570002,-3.0554623 v 6.1109246"
             inkscape:connector-curvature="0" />
        </g>
        <g
           id="KeySlot_Slant_lines">
          <path
             inkscape:connector-curvature="0"
             id="path4445"
             d="M 0.47823112,45.307264 5.8815891,30.706828"
             style="fill:none;fill-rule:evenodd;stroke:#000000;stroke-width:0.48639783;stroke-linecap:butt;stroke-linejoin:miter;stroke-miterlimit:4;stroke-dasharray:none;stroke-opacity:1" />
          <path
             inkscape:connector-curvature="0"
             id="path4453"
             d="M 11.017991,15.30689 16.469368,2.0675017"
             style="fill:none;fill-rule:evenodd;stroke:#000000;stroke-width:0.48282123;stroke-linecap:butt;stroke-linejoin:miter;stroke-miterlimit:4;stroke-dasharray:none;stroke-opacity:1" />
          <path
             inkscape:connector-curvature="0"
             id="path4455"
             d="M 16.384711,45.177766 10.994854,30.836325"
             style="fill:none;fill-rule:evenodd;stroke:#000000;stroke-width:0.45493194;stroke-linecap:butt;stroke-linejoin:miter;stroke-miterlimit:4;stroke-dasharray:none;stroke-opacity:1" />
          <path
             inkscape:connector-curvature="0"
             id="path4457"
             d="M 5.9792324,15.079491 0.38058792,1.9715201"
             style="fill:none;fill-rule:evenodd;stroke:#000000;stroke-width:0.47866145;stroke-linecap:butt;stroke-linejoin:miter;stroke-miterlimit:4;stroke-dasharray:none;stroke-opacity:1" />
        </g>
      </g>
      <g
         style="overflow:visible"
         id="KeySlot_Bottom_Left"
         transform="matrix(1.0876744,0,0,0.96222217,1.4187264,201.14577)">
        <path
           style="overflow:visible;fill:#c5c7c4;fill-opacity:0.8;stroke:#000000;stroke-width:0.80000007;stroke-linejoin:miter;stroke-miterlimit:4;stroke-dasharray:none;stroke-opacity:1"
           d="M 0,0 H 17.080999 V 47.056999 H 0 Z"
           id="rect4638"
           inkscape:connector-curvature="0" />
        <path
           style="overflow:visible;fill:#c5c7c4;fill-opacity:1;fill-rule:evenodd;stroke:#000000;stroke-width:0.95700008;stroke-linejoin:miter;stroke-miterlimit:4;stroke-dasharray:none;stroke-opacity:1"
           d="M 0.31600001,0.5 H 16.764 V 46.556999 H 0.31600001 Z"
           id="rect4640"
           inkscape:connector-curvature="0" />
        <g
           transform="translate(0.19299969,22.927929)"
           id="g4654">
          <path
             style="overflow:visible;fill:#ffffff;fill-opacity:1;stroke:#000000;stroke-width:0.80000007;stroke-linejoin:round;stroke-miterlimit:4;stroke-dasharray:none;stroke-opacity:1"
             d="M 16.357,0 A 8,8 0 0 1 8.3570004,8 8,8 0 0 1 0.35700035,0 8,8 0 0 1 8.3570004,-8 8,8 0 0 1 16.357,0 Z"
             id="circle4642"
             inkscape:connector-curvature="0" />
          <path
             style="overflow:visible;fill:#ffffff;fill-opacity:1;stroke:#000000;stroke-width:0.80000007;stroke-linejoin:round;stroke-miterlimit:4;stroke-dasharray:none;stroke-opacity:1"
             d="m 15.357,0 a 7,7 0 0 1 -6.9999996,7 7,7 0 0 1 -7,-7 7,7 0 0 1 7,-7 A 7,7 0 0 1 15.357,0 Z"
             id="circle4644"
             inkscape:connector-curvature="0" />
          <path
             style="overflow:visible;fill:#ffffff;fill-opacity:1;stroke:#000000;stroke-width:0.80000007;stroke-linejoin:round;stroke-miterlimit:4;stroke-dasharray:none;stroke-opacity:1"
             d="m 14.357,0 a 6,6 0 0 1 -5.9999996,6 6,6 0 0 1 -6,-6 6,6 0 0 1 6,-6 A 6,6 0 0 1 14.357,0 Z"
             id="circle4646"
             inkscape:connector-curvature="0" />
          <path
             style="overflow:visible;fill:#ffffff;fill-opacity:1;stroke:#000000;stroke-width:0.80000007;stroke-linejoin:round;stroke-miterlimit:4;stroke-dasharray:none;stroke-opacity:1"
             d="m 13.357,0 a 5,5 0 0 1 -4.9999996,5 5,5 0 0 1 -5,-5 5,5 0 0 1 5,-5 A 5,5 0 0 1 13.357,0 Z"
             id="circle4648"
             inkscape:connector-curvature="0" />
          <path
             style="overflow:visible;fill:#ffffff;fill-opacity:1;stroke:#000000;stroke-width:0.80000007;stroke-linejoin:round;stroke-miterlimit:4;stroke-dasharray:none;stroke-opacity:1"
             d="m 11.857,0 a 3.5,3.5 0 0 1 -3.4999996,3.5 3.5,3.5 0 0 1 -3.5,-3.5 3.5,3.5 0 0 1 3.5,-3.5 A 3.5,3.5 0 0 1 11.857,0 Z"
             id="circle4650"
             inkscape:connector-curvature="0" />
          <path
             inkscape:connector-curvature="0"
             d="M 11.391372,6.2000003e-7 H 5.3226288 M 8.3570002,-3.0554623 v 6.1109246"
             id="path4652"
             style="overflow:visible;fill:#c5c7c4;stroke:#000000;stroke-width:1.01496589" />
        </g>
        <g
           id="g4664">
          <path
             style="fill:none;fill-rule:evenodd;stroke:#000000;stroke-width:0.48639783;stroke-linecap:butt;stroke-linejoin:miter;stroke-miterlimit:4;stroke-dasharray:none;stroke-opacity:1"
             d="M 0.47823112,45.307264 5.8815891,30.706828"
             id="path4656"
             inkscape:connector-curvature="0" />
          <path
             style="fill:none;fill-rule:evenodd;stroke:#000000;stroke-width:0.48282123;stroke-linecap:butt;stroke-linejoin:miter;stroke-miterlimit:4;stroke-dasharray:none;stroke-opacity:1"
             d="M 11.017991,15.30689 16.469368,2.0675017"
             id="path4658"
             inkscape:connector-curvature="0" />
          <path
             style="fill:none;fill-rule:evenodd;stroke:#000000;stroke-width:0.45493194;stroke-linecap:butt;stroke-linejoin:miter;stroke-miterlimit:4;stroke-dasharray:none;stroke-opacity:1"
             d="M 16.384711,45.177766 10.994854,30.836325"
             id="path4660"
             inkscape:connector-curvature="0" />
          <path
             style="fill:none;fill-rule:evenodd;stroke:#000000;stroke-width:0.47866145;stroke-linecap:butt;stroke-linejoin:miter;stroke-miterlimit:4;stroke-dasharray:none;stroke-opacity:1"
             d="M 5.9792324,15.079491 0.38058792,1.9715201"
             id="path4662"
             inkscape:connector-curvature="0" />
        </g>
      </g>
      <g
         style="overflow:visible"
         id="KeySlot_Top_Right"
         transform="matrix(1.0876744,0,0,0.96222217,486.71016,-248.85423)">
        <path
           style="overflow:visible;fill:#c5c7c4;fill-opacity:0.8;stroke:#000000;stroke-width:0.80000007;stroke-linejoin:miter;stroke-miterlimit:4;stroke-dasharray:none;stroke-opacity:1"
           d="M 0,0 H 17.080999 V 47.056999 H 0 Z"
           id="rect4578"
           inkscape:connector-curvature="0" />
        <path
           style="overflow:visible;fill:#c5c7c4;fill-opacity:1;fill-rule:evenodd;stroke:#000000;stroke-width:0.95700008;stroke-linejoin:miter;stroke-miterlimit:4;stroke-dasharray:none;stroke-opacity:1"
           d="M 0.31600001,0.5 H 16.764 V 46.556999 H 0.31600001 Z"
           id="rect4580"
           inkscape:connector-curvature="0" />
        <g
           transform="translate(0.19299969,22.927929)"
           id="g4594">
          <path
             style="overflow:visible;fill:#ffffff;fill-opacity:1;stroke:#000000;stroke-width:0.80000007;stroke-linejoin:round;stroke-miterlimit:4;stroke-dasharray:none;stroke-opacity:1"
             d="M 16.357,0 A 8,8 0 0 1 8.3570004,8 8,8 0 0 1 0.35700035,0 8,8 0 0 1 8.3570004,-8 8,8 0 0 1 16.357,0 Z"
             id="circle4582"
             inkscape:connector-curvature="0" />
          <path
             style="overflow:visible;fill:#ffffff;fill-opacity:1;stroke:#000000;stroke-width:0.80000007;stroke-linejoin:round;stroke-miterlimit:4;stroke-dasharray:none;stroke-opacity:1"
             d="m 15.357,0 a 7,7 0 0 1 -6.9999996,7 7,7 0 0 1 -7,-7 7,7 0 0 1 7,-7 A 7,7 0 0 1 15.357,0 Z"
             id="circle4584"
             inkscape:connector-curvature="0" />
          <path
             style="overflow:visible;fill:#ffffff;fill-opacity:1;stroke:#000000;stroke-width:0.80000007;stroke-linejoin:round;stroke-miterlimit:4;stroke-dasharray:none;stroke-opacity:1"
             d="m 14.357,0 a 6,6 0 0 1 -5.9999996,6 6,6 0 0 1 -6,-6 6,6 0 0 1 6,-6 A 6,6 0 0 1 14.357,0 Z"
             id="circle4586"
             inkscape:connector-curvature="0" />
          <path
             style="overflow:visible;fill:#ffffff;fill-opacity:1;stroke:#000000;stroke-width:0.80000007;stroke-linejoin:round;stroke-miterlimit:4;stroke-dasharray:none;stroke-opacity:1"
             d="m 13.357,0 a 5,5 0 0 1 -4.9999996,5 5,5 0 0 1 -5,-5 5,5 0 0 1 5,-5 A 5,5 0 0 1 13.357,0 Z"
             id="circle4588"
             inkscape:connector-curvature="0" />
          <path
             style="overflow:visible;fill:#ffffff;fill-opacity:1;stroke:#000000;stroke-width:0.80000007;stroke-linejoin:round;stroke-miterlimit:4;stroke-dasharray:none;stroke-opacity:1"
             d="m 11.857,0 a 3.5,3.5 0 0 1 -3.4999996,3.5 3.5,3.5 0 0 1 -3.5,-3.5 3.5,3.5 0 0 1 3.5,-3.5 A 3.5,3.5 0 0 1 11.857,0 Z"
             id="circle4590"
             inkscape:connector-curvature="0" />
          <path
             inkscape:connector-curvature="0"
             d="M 11.391372,6.2000003e-7 H 5.3226288 M 8.3570002,-3.0554623 v 6.1109246"
             id="path4592"
             style="overflow:visible;fill:#c5c7c4;stroke:#000000;stroke-width:1.01496589" />
        </g>
        <g
           id="g4604">
          <path
             style="fill:none;fill-rule:evenodd;stroke:#000000;stroke-width:0.48639783;stroke-linecap:butt;stroke-linejoin:miter;stroke-miterlimit:4;stroke-dasharray:none;stroke-opacity:1"
             d="M 0.47823112,45.307264 5.8815891,30.706828"
             id="path4596"
             inkscape:connector-curvature="0" />
          <path
             style="fill:none;fill-rule:evenodd;stroke:#000000;stroke-width:0.48282123;stroke-linecap:butt;stroke-linejoin:miter;stroke-miterlimit:4;stroke-dasharray:none;stroke-opacity:1"
             d="M 11.017991,15.30689 16.469368,2.0675017"
             id="path4598"
             inkscape:connector-curvature="0" />
          <path
             style="fill:none;fill-rule:evenodd;stroke:#000000;stroke-width:0.45493194;stroke-linecap:butt;stroke-linejoin:miter;stroke-miterlimit:4;stroke-dasharray:none;stroke-opacity:1"
             d="M 16.384711,45.177766 10.994854,30.836325"
             id="path4600"
             inkscape:connector-curvature="0" />
          <path
             style="fill:none;fill-rule:evenodd;stroke:#000000;stroke-width:0.47866145;stroke-linecap:butt;stroke-linejoin:miter;stroke-miterlimit:4;stroke-dasharray:none;stroke-opacity:1"
             d="M 5.9792324,15.079491 0.38058792,1.9715201"
             id="path4602"
             inkscape:connector-curvature="0" />
        </g>
      </g>
      <g
         transform="matrix(1.0876744,0,0,0.96222217,486.71016,201.14577)"
         id="KeySlot_Top_Bottom"
         style="overflow:visible">
        <path
           style="overflow:visible;fill:#c5c7c4;fill-opacity:0.8;stroke:#000000;stroke-width:0.80000007;stroke-linejoin:miter;stroke-miterlimit:4;stroke-dasharray:none;stroke-opacity:1"
           d="M 0,0 H 17.080999 V 47.056999 H 0 Z"
           id="rect4608"
           inkscape:connector-curvature="0" />
        <path
           style="overflow:visible;fill:#c5c7c4;fill-opacity:1;fill-rule:evenodd;stroke:#000000;stroke-width:0.95700008;stroke-linejoin:miter;stroke-miterlimit:4;stroke-dasharray:none;stroke-opacity:1"
           d="M 0.31600001,0.5 H 16.764 V 46.556999 H 0.31600001 Z"
           id="rect4610"
           inkscape:connector-curvature="0" />
        <g
           id="g4624"
           transform="translate(0.19299969,22.927929)">
          <path
             style="overflow:visible;fill:#ffffff;fill-opacity:1;stroke:#000000;stroke-width:0.80000007;stroke-linejoin:round;stroke-miterlimit:4;stroke-dasharray:none;stroke-opacity:1"
             d="M 16.357,0 A 8,8 0 0 1 8.3570004,8 8,8 0 0 1 0.35700035,0 8,8 0 0 1 8.3570004,-8 8,8 0 0 1 16.357,0 Z"
             id="circle4612"
             inkscape:connector-curvature="0" />
          <path
             style="overflow:visible;fill:#ffffff;fill-opacity:1;stroke:#000000;stroke-width:0.80000007;stroke-linejoin:round;stroke-miterlimit:4;stroke-dasharray:none;stroke-opacity:1"
             d="m 15.357,0 a 7,7 0 0 1 -6.9999996,7 7,7 0 0 1 -7,-7 7,7 0 0 1 7,-7 A 7,7 0 0 1 15.357,0 Z"
             id="circle4614"
             inkscape:connector-curvature="0" />
          <path
             style="overflow:visible;fill:#ffffff;fill-opacity:1;stroke:#000000;stroke-width:0.80000007;stroke-linejoin:round;stroke-miterlimit:4;stroke-dasharray:none;stroke-opacity:1"
             d="m 14.357,0 a 6,6 0 0 1 -5.9999996,6 6,6 0 0 1 -6,-6 6,6 0 0 1 6,-6 A 6,6 0 0 1 14.357,0 Z"
             id="circle4616"
             inkscape:connector-curvature="0" />
          <path
             style="overflow:visible;fill:#ffffff;fill-opacity:1;stroke:#000000;stroke-width:0.80000007;stroke-linejoin:round;stroke-miterlimit:4;stroke-dasharray:none;stroke-opacity:1"
             d="m 13.357,0 a 5,5 0 0 1 -4.9999996,5 5,5 0 0 1 -5,-5 5,5 0 0 1 5,-5 A 5,5 0 0 1 13.357,0 Z"
             id="circle4618"
             inkscape:connector-curvature="0" />
          <path
             style="overflow:visible;fill:#ffffff;fill-opacity:1;stroke:#000000;stroke-width:0.80000007;stroke-linejoin:round;stroke-miterlimit:4;stroke-dasharray:none;stroke-opacity:1"
             d="m 11.857,0 a 3.5,3.5 0 0 1 -3.4999996,3.5 3.5,3.5 0 0 1 -3.5,-3.5 3.5,3.5 0 0 1 3.5,-3.5 A 3.5,3.5 0 0 1 11.857,0 Z"
             id="circle4620"
             inkscape:connector-curvature="0" />
          <path
             style="overflow:visible;fill:#c5c7c4;stroke:#000000;stroke-width:1.01496589"
             id="path4622"
             d="M 11.391372,6.2000003e-7 H 5.3226288 M 8.3570002,-3.0554623 v 6.1109246"
             inkscape:connector-curvature="0" />
        </g>
        <g
           id="g4634">
          <path
             inkscape:connector-curvature="0"
             id="path4626"
             d="M 0.47823112,45.307264 5.8815891,30.706828"
             style="fill:none;fill-rule:evenodd;stroke:#000000;stroke-width:0.48639783;stroke-linecap:butt;stroke-linejoin:miter;stroke-miterlimit:4;stroke-dasharray:none;stroke-opacity:1" />
          <path
             inkscape:connector-curvature="0"
             id="path4628"
             d="M 11.017991,15.30689 16.469368,2.0675017"
             style="fill:none;fill-rule:evenodd;stroke:#000000;stroke-width:0.48282123;stroke-linecap:butt;stroke-linejoin:miter;stroke-miterlimit:4;stroke-dasharray:none;stroke-opacity:1" />
          <path
             inkscape:connector-curvature="0"
             id="path4630"
             d="M 16.384711,45.177766 10.994854,30.836325"
             style="fill:none;fill-rule:evenodd;stroke:#000000;stroke-width:0.45493194;stroke-linecap:butt;stroke-linejoin:miter;stroke-miterlimit:4;stroke-dasharray:none;stroke-opacity:1" />
          <path
             inkscape:connector-curvature="0"
             id="path4632"
             d="M 5.9792324,15.079491 0.38058792,1.9715201"
             style="fill:none;fill-rule:evenodd;stroke:#000000;stroke-width:0.47866145;stroke-linecap:butt;stroke-linejoin:miter;stroke-miterlimit:4;stroke-dasharray:none;stroke-opacity:1" />
        </g>
      </g>
    </g>
  </g>
</svg>
