<?xml version="1.0" encoding="UTF-8" standalone="no"?>
<svg
   xmlns:dc="http://purl.org/dc/elements/1.1/"
   xmlns:cc="http://creativecommons.org/ns#"
   xmlns:rdf="http://www.w3.org/1999/02/22-rdf-syntax-ns#"
   xmlns:svg="http://www.w3.org/2000/svg"
   xmlns="http://www.w3.org/2000/svg"
   xmlns:sodipodi="http://sodipodi.sourceforge.net/DTD/sodipodi-0.dtd"
   xmlns:inkscape="http://www.inkscape.org/namespaces/inkscape"
   id="svg2"
   height="100"
   overflow="visible"
   viewBox="0 0 1550 100"
   width="1550"
   version="1.1"
   inkscape:version="0.91 r13725"
   sodipodi:docname="BORA_PlinthFront.svg">
  <metadata
     id="metadata22">
    <rdf:RDF>
      <cc:Work
         rdf:about="">
        <dc:format>image/svg+xml</dc:format>
        <dc:type
           rdf:resource="http://purl.org/dc/dcmitype/StillImage" />
        <dc:title></dc:title>
      </cc:Work>
    </rdf:RDF>
  </metadata>
  <defs
     id="defs20" />
  <sodipodi:namedview
     pagecolor="#ffffff"
     bordercolor="#666666"
     borderopacity="1"
     objecttolerance="10"
     gridtolerance="10"
     guidetolerance="10"
     inkscape:pageopacity="0"
     inkscape:pageshadow="2"
     inkscape:window-width="1920"
     inkscape:window-height="1017"
     id="namedview18"
     showgrid="false"
     inkscape:zoom="0.22451613"
     inkscape:cx="775"
     inkscape:cy="50"
     inkscape:window-x="-8"
     inkscape:window-y="-8"
     inkscape:window-maximized="1"
     inkscape:current-layer="svg2" />
  <g
     id="layer1"
     fill-rule="evenodd"
     stroke="#000">
    <rect
       id="frontCover"
       fill="#575d5e"
       height="100"
       stroke-width="2"
       width="1300" />
    <g
       id="screwLT"
       stroke-linecap="round"
       stroke-linejoin="round">
      <circle
         id="path4176-6"
         cx="40"
         cy="25"
         fill="#ebebeb"
         r="6.5601001" />
      <path
         id="path4192-7"
         d="m42.018 28.651l-1.96-1.936-2.009 2.008-1.766-1.758 2.002-1.993-2.008-1.977 1.739-1.718 1.962 1.972 1.974-1.944 1.715 1.741-1.905 1.929 1.961 1.958z"
         fill="#c0c0c0" />
    </g>
    <g
       id="screwRT"
       stroke-linecap="round"
       stroke-linejoin="round">
      <circle
         id="path4176-6-5"
         cx="1260"
         cy="25"
         fill="#ebebeb"
         r="6.5601001" />
      <path
         id="path4192-7-9"
         d="m1262 28.651l-1.9-1.936-2.1 2.008-1.7-1.758 2-1.993-2-1.977 1.7-1.718 2 1.972 2-1.944 1.7 1.741-1.9 1.929 1.9 1.958z"
         fill="#c0c0c0" />
    </g>
    <g
       id="screwLB"
       stroke-linecap="round"
       stroke-linejoin="round">
      <circle
         id="path4176-6-1"
         cx="40"
         cy="75"
         fill="#ebebeb"
         r="6.5601001" />
      <path
         id="path4192-7-5"
         d="m42.018 78.651l-1.96-1.936-2.009 2.008-1.766-1.758 2.002-1.993-2.008-1.977 1.739-1.718 1.962 1.972 1.974-1.944 1.715 1.741-1.905 1.929 1.961 1.958z"
         fill="#c0c0c0" />
    </g>
    <g
       id="screwRB"
       stroke-linecap="round"
       stroke-linejoin="round">
      <g
         id="g4544">
        <circle
           id="path4176-6-1-4"
           cx="1260"
           cy="75"
           fill="#ebebeb"
           r="6.5601001" />
        <path
           id="path4192-7-5-2"
           d="m1262 78.651l-1.9-1.936-2.1 2.008-1.7-1.758 2-1.993-2-1.977 1.7-1.718 2 1.972 2-1.944 1.7 1.741-1.9 1.929 1.9 1.958z"
           fill="#c0c0c0" />
      </g>
    </g>
  </g>
</svg>
