<?xml version="1.0" encoding="UTF-8" standalone="no"?>
<svg
   xmlns:dc="http://purl.org/dc/elements/1.1/"
   xmlns:cc="http://creativecommons.org/ns#"
   xmlns:rdf="http://www.w3.org/1999/02/22-rdf-syntax-ns#"
   xmlns:svg="http://www.w3.org/2000/svg"
   xmlns="http://www.w3.org/2000/svg"
   xmlns:sodipodi="http://sodipodi.sourceforge.net/DTD/sodipodi-0.dtd"
   xmlns:inkscape="http://www.inkscape.org/namespaces/inkscape"
   id="svg2"
   height="245.911"
   viewBox="0 0 768 245.911"
   width="768"
   version="1.1"
   sodipodi:docname="BORA_TopBottomPlate_covered.svg"
   inkscape:version="0.92.3 (2405546, 2018-03-11)">
  <metadata
     id="metadata33">
    <rdf:RDF>
      <cc:Work
         rdf:about="">
        <dc:format>image/svg+xml</dc:format>
        <dc:type
           rdf:resource="http://purl.org/dc/dcmitype/StillImage" />
        <dc:title />
      </cc:Work>
    </rdf:RDF>
  </metadata>
  <defs
     id="defs31" />
  <sodipodi:namedview
     pagecolor="#ffffff"
     bordercolor="#666666"
     borderopacity="1"
     objecttolerance="10"
     gridtolerance="10"
     guidetolerance="10"
     inkscape:pageopacity="0"
     inkscape:pageshadow="2"
     inkscape:window-width="1366"
     inkscape:window-height="705"
     id="namedview29"
     showgrid="false"
     inkscape:zoom="0.62772835"
     inkscape:cx="244.54072"
     inkscape:cy="-0.73878483"
     inkscape:window-x="-8"
     inkscape:window-y="-8"
     inkscape:window-maximized="1"
     inkscape:current-layer="svg2"
     fit-margin-top="0"
     fit-margin-left="0"
     fit-margin-right="0"
     fit-margin-bottom="0" />
  <g
     id="layer1"
     style="stroke:#000000;stroke-linecap:round"
     transform="translate(0.5,0.5)">
    <g
       id="flangePlate">
      <rect
         id="plate"
         height="230.649"
         width="767"
         x="0"
         y="0"
         style="fill:#c5c7c4" />
      <rect
         style="fill:none"
         y="52.866001"
         x="52.25"
         width="197.5"
         rx="6"
         height="121.5"
         id="ko1" />
      <rect
         style="fill:none"
         y="52.866001"
         x="284.75"
         width="197.5"
         rx="6"
         height="121.5"
         id="ko2" />
      <rect
         style="fill:none"
         y="52.866001"
         x="517.25"
         width="197.5"
         rx="6"
         height="121.5"
         id="ko3" />
      <rect
         style="fill:none;stroke-width:1;stroke-miterlimit:4;stroke-dasharray:none"
         y="40.012001"
         x="50"
         width="667"
         rx="25.293745"
         height="150"
         id="ko4" />
      <circle
         id="holeBL"
         cx="20"
         cy="164.515"
         r="7.25"
         style="fill:none;stroke-linejoin:round" />
      <circle
         id="holeTR"
         cx="747"
         cy="46.554001"
         r="7.25"
         style="fill:none;stroke-linejoin:round" />
      <circle
         id="holeBR"
         cx="747"
         cy="164.515"
         r="7.25"
         style="fill:none;stroke-linejoin:round" />
      <circle
         id="holeTL"
         cx="20"
         cy="46.554001"
         r="7.25"
         style="fill:none;stroke-linejoin:round" />
      <g
         id="SlotTL">
        <circle
           style="fill:#b3b3b3;stroke:#808080;stroke-width:1.06666672"
           r="4.7090001"
           cy="32.078999"
           cx="56"
           id="circle4226" />
        <path
           style="fill:#999999;stroke:#808080;stroke-width:0.8181898;stroke-opacity:0.88235294"
           inkscape:connector-curvature="0"
           d="m 55.999996,34.644891 a 1.9592706,2.5654281 0 0 0 1.803492,-1.562365 h 2.860052 v -1.74467 h -2.789795 a 1.9592706,2.5654281 0 0 0 -1.873749,-1.82475 1.9592706,2.5654281 0 0 0 -1.875031,1.82475 H 51.33646 v 1.74467 h 2.862653 a 1.9592706,2.5654281 0 0 0 1.800883,1.562365 z"
           id="path4228" />
      </g>
      <g
         id="SlotTC">
        <circle
           id="circle3802"
           cx="383.5"
           cy="32.078999"
           r="4.7090001"
           style="fill:#b3b3b3;stroke:#808080;stroke-width:1.06666672" />
        <path
           id="path3804"
           d="m 383.49999,34.644891 a 1.9592706,2.5654281 0 0 0 1.8035,-1.562365 h 2.86005 v -1.744671 h -2.7898 a 1.9592706,2.5654281 0 0 0 -1.87375,-1.824749 1.9592706,2.5654281 0 0 0 -1.87503,1.824749 h -2.7885 v 1.744671 h 2.86265 a 1.9592706,2.5654281 0 0 0 1.80088,1.562365 z"
           inkscape:connector-curvature="0"
           style="fill:#999999;stroke:#808080;stroke-width:0.8181898;stroke-opacity:0.88235294" />
      </g>
      <g
         id="SlotTR">
        <circle
           style="fill:#b3b3b3;stroke:#808080;stroke-width:1.06666672"
           r="4.7090001"
           cy="32.078999"
           cx="711"
           id="circle3823" />
        <path
           style="fill:#999999;stroke:#808080;stroke-width:0.8181898;stroke-opacity:0.88235294"
           inkscape:connector-curvature="0"
           d="m 710.99999,34.644891 a 1.9592706,2.5654281 0 0 0 1.8035,-1.562365 h 2.86005 v -1.744671 h -2.7898 a 1.9592706,2.5654281 0 0 0 -1.87375,-1.824749 1.9592706,2.5654281 0 0 0 -1.87503,1.824749 h -2.7885 v 1.744671 h 2.86265 a 1.9592706,2.5654281 0 0 0 1.80088,1.562365 z"
           id="path3825" />
      </g>
      <g
         id="SlotBR">
        <circle
           id="circle3831"
           cx="711"
           cy="198.513"
           r="4.7090001"
           style="fill:#b3b3b3;stroke:#808080;stroke-width:1.06666672" />
        <path
           id="path3833"
           d="m 710.99999,201.07889 a 1.9592706,2.5654281 0 0 0 1.8035,-1.56236 h 2.86005 v -1.74467 h -2.7898 a 1.9592706,2.5654281 0 0 0 -1.87375,-1.82475 1.9592706,2.5654281 0 0 0 -1.87503,1.82475 h -2.7885 v 1.74467 h 2.86265 a 1.9592706,2.5654281 0 0 0 1.80088,1.56236 z"
           inkscape:connector-curvature="0"
           style="fill:#999999;stroke:#808080;stroke-width:0.8181898;stroke-opacity:0.88235294" />
      </g>
      <g
         id="SlotBC">
        <circle
           style="fill:#b3b3b3;stroke:#808080;stroke-width:1.06666672"
           r="4.7090001"
           cy="198.513"
           cx="383.5"
           id="circle3843" />
        <path
           style="fill:#999999;stroke:#808080;stroke-width:0.8181898;stroke-opacity:0.88235294"
           inkscape:connector-curvature="0"
           d="m 383.49999,201.07889 a 1.9592706,2.5654281 0 0 0 1.8035,-1.56236 h 2.86005 v -1.74467 h -2.7898 a 1.9592706,2.5654281 0 0 0 -1.87375,-1.82475 1.9592706,2.5654281 0 0 0 -1.87503,1.82475 h -2.7885 v 1.74467 h 2.86265 a 1.9592706,2.5654281 0 0 0 1.80088,1.56236 z"
           id="path3845" />
      </g>
      <g
         id="SlotBL">
        <circle
           id="circle3855"
           cx="56"
           cy="198.513"
           r="4.7090001"
           style="fill:#b3b3b3;stroke:#808080;stroke-width:1.06666672" />
        <path
           id="path3857"
           d="m 55.99999,201.07889 a 1.9592706,2.5654281 0 0 0 1.8035,-1.56236 h 2.86005 v -1.74467 h -2.7898 a 1.9592706,2.5654281 0 0 0 -1.87375,-1.82475 1.9592706,2.5654281 0 0 0 -1.87503,1.82475 h -2.7885 v 1.74467 h 2.86265 a 1.9592706,2.5654281 0 0 0 1.80088,1.56236 z"
           inkscape:connector-curvature="0"
           style="fill:#999999;stroke:#808080;stroke-width:0.8181898;stroke-opacity:0.88235294" />
      </g>
    </g>
    <rect
       id="doorStrip"
       height="14.262"
       width="767"
       x="0"
       y="230.649"
       style="fill:#c5c7c4;stroke-width:1.00001001" />
  </g>
</svg>
