<?xml version="1.0" encoding="UTF-8" standalone="no"?>
<svg
   xmlns:dc="http://purl.org/dc/elements/1.1/"
   xmlns:cc="http://creativecommons.org/ns#"
   xmlns:rdf="http://www.w3.org/1999/02/22-rdf-syntax-ns#"
   xmlns:svg="http://www.w3.org/2000/svg"
   xmlns="http://www.w3.org/2000/svg"
   xmlns:sodipodi="http://sodipodi.sourceforge.net/DTD/sodipodi-0.dtd"
   xmlns:inkscape="http://www.inkscape.org/namespaces/inkscape"
   id="svg2"
   height="1001"
   viewBox="0 0 801 1001"
   width="801"
   version="1.1"
   sodipodi:docname="BORA_Mounting_Plate.svg"
   inkscape:version="0.92.4 (5da689c313, 2019-01-14)">
  <metadata
     id="metadata33">
    <rdf:RDF>
      <cc:Work
         rdf:about="">
        <dc:format>image/svg+xml</dc:format>
        <dc:type
           rdf:resource="http://purl.org/dc/dcmitype/StillImage" />
        <dc:title />
      </cc:Work>
    </rdf:RDF>
  </metadata>
  <defs
     id="defs31" />
  <sodipodi:namedview
     pagecolor="#ffffff"
     bordercolor="#666666"
     borderopacity="1"
     objecttolerance="10"
     gridtolerance="10"
     guidetolerance="10"
     inkscape:pageopacity="0"
     inkscape:pageshadow="2"
     inkscape:window-width="1366"
     inkscape:window-height="705"
     id="namedview29"
     showgrid="false"
     inkscape:zoom="0.35355339"
     inkscape:cx="429.9243"
     inkscape:cy="478.12846"
     inkscape:window-x="-8"
     inkscape:window-y="-8"
     inkscape:window-maximized="1"
     inkscape:current-layer="svg2"
     fit-margin-top="0"
     fit-margin-left="0"
     fit-margin-right="0"
     fit-margin-bottom="0" />
  <g
     id="mounting_plate">
    <path
       inkscape:connector-curvature="0"
       id="QM0403000_400X300"
       d="m 67.509766,0 -32.5,32.5 H 0 v 210 h 35.009766 l 32.5,32.5 H 267.49023 l 32.5,-32.5 H 335 v -210 h -35.00977 l -32.5,-32.5 z"
       style="fill:#cccccc;fill-opacity:1;stroke:#000000;stroke-opacity:1" />
    <path
       inkscape:connector-curvature="0"
       id="QM0601500_600X150"
       d="m 67.509766,0 -32.5,32.5 H 0 v 60 h 35.009766 l 32.5,32.5 H 483.49023 l 32.5,-32.5 H 551 v -60 h -35.00977 l -32.5,-32.5 z"
       style="fill:#cccccc;fill-opacity:1;stroke:#000000;stroke-opacity:1" />
    <path
       inkscape:connector-curvature="0"
       id="QM0602000_600X200"
       d="m 67.509766,0 -32.5,32.5 H 0 v 110 h 35.009766 l 32.5,32.5 H 483.49023 l 32.5,-32.5 H 551 v -110 h -35.00977 l -32.5,-32.5 z"
       style="fill:#cccccc;fill-opacity:1;stroke:#000000;stroke-opacity:1" />
    <path
       inkscape:connector-curvature="0"
       id="QM0602500_600X250"
       d="m 67.509766,0 -32.5,32.5 H 0 v 160 h 35.009766 l 32.5,32.5 H 483.49023 l 32.5,-32.5 H 551 v -160 h -35.00977 l -32.5,-32.5 z"
       style="fill:#cccccc;fill-opacity:1;stroke:#000000;stroke-opacity:1" />
    <path
       inkscape:connector-curvature="0"
       id="QM0603000_600X300"
       d="m 67.509766,0 -32.5,32.5 H 0 v 210 h 35.009766 l 32.5,32.5 H 483.49023 l 32.5,-32.5 H 551 v -210 h -35.00977 l -32.5,-32.5 z"
       style="fill:#cccccc;fill-opacity:1;stroke:#000000;stroke-opacity:1" />
    <path
       inkscape:connector-curvature="0"
       id="QM0604000_600X400"
       d="m 67.509766,0 -32.5,32.5 H 0 v 310 h 35.009766 l 32.5,32.5 H 483.49023 l 32.5,-32.5 H 551 v -310 h -35.00977 l -32.5,-32.5 z"
       style="fill:#cccccc;fill-opacity:1;stroke:#000000;stroke-opacity:1" />
    <path
       inkscape:connector-curvature="0"
       id="QM0605000_600X500"
       d="m 67.509766,0 -32.5,32.5 H 0 v 410 h 35.009766 l 32.5,32.5 H 483.49023 l 32.5,-32.5 H 551 v -410 h -35.00977 l -32.5,-32.5 z"
       style="fill:#cccccc;fill-opacity:1;stroke:#000000;stroke-opacity:1" />
    <path
       inkscape:connector-curvature="0"
       id="QM0606000_600X600"
       d="m 67.509766,0 -32.5,32.5 H 0 v 510 h 35.009766 l 32.5,32.5 H 483.49023 l 32.5,-32.5 H 551 v -510 h -35.00977 l -32.5,-32.5 z"
       style="fill:#cccccc;fill-opacity:1;stroke:#000000;stroke-opacity:1" />
    <path
       inkscape:connector-curvature="0"
       id="QM0608000_600X800"
       d="m 67.509766,0 -32.5,32.5 H 0 v 710 h 35.009766 l 32.5,32.5 H 483.49023 l 32.5,-32.5 H 551 v -710 h -35.00977 l -32.5,-32.5 z"
       style="fill:#cccccc;fill-opacity:1;stroke:#000000;stroke-opacity:1" />
    <path
       inkscape:connector-curvature="0"
       id="QM0801500_800X150"
       d="m 67.509766,0 -32.5,32.5 H 0 v 60 h 35.009766 l 32.5,32.5 H 699.49023 l 32.5,-32.5 H 767 v -60 h -35.00977 l -32.5,-32.5 z"
       style="fill:#cccccc;fill-opacity:1;stroke:#000000;stroke-opacity:1" />
    <path
       inkscape:connector-curvature="0"
       id="QM0802000_800X200"
       d="m 67.509766,0 -32.5,32.5 H 0 v 110 h 35.009766 l 32.5,32.5 H 699.49023 l 32.5,-32.5 H 767 v -110 h -35.00977 l -32.5,-32.5 z"
       style="fill:#cccccc;fill-opacity:1;stroke:#000000;stroke-opacity:1" />
    <path
       inkscape:connector-curvature="0"
       id="QM0802500_800X250"
       d="m 67.509766,0 -32.5,32.5 H 0 v 160 h 35.009766 l 32.5,32.5 H 699.49023 l 32.5,-32.5 H 767 v -160 h -35.00977 l -32.5,-32.5 z"
       style="fill:#cccccc;fill-opacity:1;stroke:#000000;stroke-opacity:1" />
    <path
       inkscape:connector-curvature="0"
       id="QM0803000_800X300"
       d="m 67.509766,0 -32.5,32.5 H 0 v 210 h 35.009766 l 32.5,32.5 H 699.49023 l 32.5,-32.5 H 767 v -210 h -35.00977 l -32.5,-32.5 z"
       style="fill:#cccccc;fill-opacity:1;stroke:#000000;stroke-opacity:1" />
    <path
       inkscape:connector-curvature="0"
       id="QM0804000_800X400"
       d="m 67.509766,0 -32.5,32.5 H 0 v 310 h 35.009766 l 32.5,32.5 H 699.49023 l 32.5,-32.5 H 767 v -310 h -35.00977 l -32.5,-32.5 z"
       style="fill:#cccccc;fill-opacity:1;stroke:#000000;stroke-opacity:1" />
    <path
       inkscape:connector-curvature="0"
       id="QM0805000_800X500"
       d="m 67.509766,0 -32.5,32.5 H 0 v 410 h 35.009766 l 32.5,32.5 H 699.49023 l 32.5,-32.5 H 767 v -410 h -35.00977 l -32.5,-32.5 z"
       style="fill:#cccccc;fill-opacity:1;stroke:#000000;stroke-opacity:1" />
    <path
       inkscape:connector-curvature="0"
       id="QM0806000_800X600"
       d="m 67.509766,0 -32.5,32.5 H 0 v 510 h 35.009766 l 32.5,32.5 H 699.49023 l 32.5,-32.5 H 767 v -510 h -35.00977 l -32.5,-32.5 z"
       style="fill:#cccccc;fill-opacity:1;stroke:#000000;stroke-opacity:1" />
    <path
       inkscape:connector-curvature="0"
       id="QM0808000_800X800"
       d="m 67.509766,0 -32.5,32.5 H 0 v 710 h 35.009766 l 32.5,32.5 H 699.49023 l 32.5,-32.5 H 767 v -710 h -35.00977 l -32.5,-32.5 z"
       style="fill:#cccccc;fill-opacity:1;stroke:#000000;stroke-opacity:1" />
    <path
       inkscape:connector-curvature="0"
       id="QM0809000_800X900"
       d="m 67.509766,0 -32.5,32.5 H 0 v 810 h 35.009766 l 32.5,32.5 H 699.49023 l 32.5,-32.5 H 767 v -810 h -35.00977 l -32.5,-32.5 z"
       style="fill:#cccccc;fill-opacity:1;stroke:#000000;stroke-opacity:1" />
    <path
       inkscape:connector-curvature="0"
       id="QM0609000_600X900"
       d="m 67.509766,0 -32.5,32.5 H 0 v 810 h 35.009766 l 32.5,32.5 H 483.49023 l 32.5,-32.5 H 551 v -810 h -35.00977 l -32.5,-32.5 z"
       style="fill:#cccccc;fill-opacity:1;stroke:#000000;stroke-opacity:1" />
    <circle
       style="fill:#ffffff;stroke:#000000;stroke-width:1;stroke-linecap:round;stroke-miterlimit:4;stroke-dasharray:none"
       id="HoleTL"
       cx="86.5"
       cy="9.5"
       r="3.25" />
    <circle
       r="3.25"
       cy="9.5"
       cx="680.5"
       id="HoleTR"
       style="fill:#ffffff;stroke:#000000;stroke-width:1;stroke-linecap:round;stroke-miterlimit:4;stroke-dasharray:none" />
    <circle
       style="fill:#ffffff;stroke:#000000;stroke-width:1;stroke-linecap:round;stroke-miterlimit:4;stroke-dasharray:none"
       id="HoleBR"
       cx="680.5"
       cy="859.5"
       r="3.25" />
    <circle
       r="3.25"
       cy="859.5"
       cx="86.5"
       id="HoleBL"
       style="fill:#ffffff;stroke:#000000;stroke-width:1;stroke-linecap:round;stroke-miterlimit:4;stroke-dasharray:none" />
  </g>
</svg>
