<?xml version="1.0" encoding="UTF-8" standalone="no"?>
<svg
   xmlns:dc="http://purl.org/dc/elements/1.1/"
   xmlns:cc="http://creativecommons.org/ns#"
   xmlns:rdf="http://www.w3.org/1999/02/22-rdf-syntax-ns#"
   xmlns:svg="http://www.w3.org/2000/svg"
   xmlns="http://www.w3.org/2000/svg"
   xmlns:sodipodi="http://sodipodi.sourceforge.net/DTD/sodipodi-0.dtd"
   xmlns:inkscape="http://www.inkscape.org/namespaces/inkscape"
   id="svg2"
   height="2003.7795"
   viewBox="0 0 803.77954 2003.7795"
   width="803.77954"
   version="1.1"
   sodipodi:docname="BORA_GlassDoorBoth.svg"
   inkscape:version="0.92.4 (5da689c313, 2019-01-14)">
  <metadata
     id="metadata89">
    <rdf:RDF>
      <cc:Work
         rdf:about="">
        <dc:format>image/svg+xml</dc:format>
        <dc:type
           rdf:resource="http://purl.org/dc/dcmitype/StillImage" />
        <dc:title />
      </cc:Work>
    </rdf:RDF>
  </metadata>
  <defs
     id="defs87" />
  <sodipodi:namedview
     pagecolor="#ffffff"
     bordercolor="#666666"
     borderopacity="1"
     objecttolerance="10"
     gridtolerance="10"
     guidetolerance="10"
     inkscape:pageopacity="0"
     inkscape:pageshadow="2"
     inkscape:window-width="1366"
     inkscape:window-height="705"
     id="namedview85"
     showgrid="false"
     inkscape:zoom="0.12805209"
     inkscape:cx="1053.4968"
     inkscape:cy="866.59151"
     inkscape:window-x="-8"
     inkscape:window-y="-8"
     inkscape:window-maximized="1"
     inkscape:current-layer="svg2"
     fit-margin-top="0"
     fit-margin-left="0"
     fit-margin-right="0"
     fit-margin-bottom="0" />
  <g
     id="layer1">
    <g
       id="DoorR">
      <g
         id="800R">
        <path
           inkscape:connector-curvature="0"
           id="800x2000R"
           d="M 76.890625,1.890625 V 2001.8906 H 781.89062 V 1.890625 Z m 24.999995,85 h 595 V 1916.8906 h -595 z"
           style="overflow:visible;fill:#cccccc;stroke:#000000;stroke-width:1;stroke-miterlimit:4;stroke-dasharray:none;stroke-opacity:1" />
        <path
           inkscape:connector-curvature="0"
           id="800x1800R"
           d="M 76.890625,1.890625 V 1801.8906 H 781.89062 V 1.890625 Z m 24.999995,85 h 595 V 1716.8906 h -595 z"
           style="overflow:visible;fill:#cccccc;stroke:#000000;stroke-width:1;stroke-miterlimit:4;stroke-dasharray:none;stroke-opacity:1" />
        <path
           inkscape:connector-curvature="0"
           id="800x1600R"
           d="M 76.890625,1.890625 V 1601.8906 H 781.89062 V 1.890625 Z m 24.999995,85 h 595 V 1516.8906 h -595 z"
           style="overflow:visible;fill:#cccccc;stroke:#000000;stroke-width:1;stroke-miterlimit:4;stroke-dasharray:none;stroke-opacity:1" />
        <path
           inkscape:connector-curvature="0"
           id="800x1400R"
           d="M 76.890625,1.890625 V 1401.8906 H 781.89062 V 1.890625 Z m 24.999995,85 h 595 V 1316.8906 h -595 z"
           style="overflow:visible;fill:#cccccc;stroke:#000000;stroke-width:1;stroke-miterlimit:4;stroke-dasharray:none;stroke-opacity:1" />
        <path
           inkscape:connector-curvature="0"
           id="800x1200R"
           d="M 76.890625,1.890625 V 1201.8906 H 781.89062 V 1.890625 Z m 24.999995,85 h 595 V 1116.8906 h -595 z"
           style="overflow:visible;fill:#cccccc;stroke:#000000;stroke-width:1;stroke-miterlimit:4;stroke-dasharray:none;stroke-opacity:1" />
        <path
           inkscape:connector-curvature="0"
           id="800x1000R"
           d="M 76.890625,1.890625 V 1001.8906 H 781.89062 V 1.890625 Z m 24.999995,85 h 595 V 916.89062 h -595 z"
           style="overflow:visible;fill:#cccccc;stroke:#000000;stroke-width:1;stroke-miterlimit:4;stroke-dasharray:none;stroke-opacity:1" />
        <path
           inkscape:connector-curvature="0"
           id="800x800R"
           d="M 76.890625,1.890625 V 801.89062 H 781.89062 V 1.890625 Z m 24.999995,85 h 595 V 716.89062 h -595 z"
           style="overflow:visible;fill:#cccccc;stroke:#000000;stroke-width:1;stroke-miterlimit:4;stroke-dasharray:none;stroke-opacity:1" />
        <path
           inkscape:connector-curvature="0"
           id="800x600R"
           d="M 76.890625,1.890625 V 601.89062 H 781.89062 V 1.890625 Z m 24.999995,85 h 595 V 516.89062 h -595 z"
           style="overflow:visible;fill:#cccccc;stroke:#000000;stroke-width:1;stroke-miterlimit:4;stroke-dasharray:none;stroke-opacity:1" />
      </g>
      <g
         id="600R">
        <path
           style="overflow:visible;fill:#cccccc;stroke:#000000;stroke-width:1;stroke-miterlimit:4;stroke-dasharray:none;stroke-opacity:1"
           d="M 76.890625,1.890625 V 601.89062 H 581.89062 V 1.890625 Z m 24.999995,85 h 395 V 516.89062 h -395 z"
           id="600x600R"
           inkscape:connector-curvature="0" />
        <path
           style="overflow:visible;fill:#cccccc;stroke:#000000;stroke-width:1;stroke-miterlimit:4;stroke-dasharray:none;stroke-opacity:1"
           d="M 76.890625,1.890625 V 801.89062 H 581.89062 V 1.890625 Z m 24.999995,85 h 395 V 716.89062 h -395 z"
           id="600x800R"
           inkscape:connector-curvature="0" />
        <path
           style="overflow:visible;fill:#cccccc;stroke:#000000;stroke-width:1;stroke-miterlimit:4;stroke-dasharray:none;stroke-opacity:1"
           d="M 76.890625,1.890625 V 1001.8906 H 581.89062 V 1.890625 Z m 24.999995,85 h 395 V 916.89062 h -395 z"
           id="600x1000R"
           inkscape:connector-curvature="0" />
        <path
           style="overflow:visible;fill:#cccccc;stroke:#000000;stroke-width:1;stroke-miterlimit:4;stroke-dasharray:none;stroke-opacity:1"
           d="M 76.890625,1.890625 V 1201.8906 H 581.89062 V 1.890625 Z m 24.999995,85 h 395 V 1116.8906 h -395 z"
           id="600x1200R"
           inkscape:connector-curvature="0" />
        <path
           style="overflow:visible;fill:#cccccc;stroke:#000000;stroke-width:1;stroke-miterlimit:4;stroke-dasharray:none;stroke-opacity:1"
           d="M 76.890625,1.890625 V 1401.8906 H 581.89062 V 1.890625 Z m 24.999995,85 h 395 V 1316.8906 h -395 z"
           id="600x1400R"
           inkscape:connector-curvature="0" />
        <path
           style="overflow:visible;fill:#cccccc;stroke:#000000;stroke-width:1;stroke-miterlimit:4;stroke-dasharray:none;stroke-opacity:1"
           d="M 76.890625,1.890625 V 1601.8906 H 581.89062 V 1.890625 Z m 24.999995,85 h 395 V 1516.8906 h -395 z"
           id="600x1600R"
           inkscape:connector-curvature="0" />
        <path
           style="overflow:visible;fill:#cccccc;stroke:#000000;stroke-width:1;stroke-miterlimit:4;stroke-dasharray:none;stroke-opacity:1"
           d="M 76.890625,1.890625 V 1801.8906 H 581.89062 V 1.890625 Z m 24.999995,85 h 395 V 1716.8906 h -395 z"
           id="600x1800R"
           inkscape:connector-curvature="0" />
        <path
           style="overflow:visible;fill:#cccccc;stroke:#000000;stroke-width:1;stroke-miterlimit:4;stroke-dasharray:none;stroke-opacity:1"
           d="M 76.890625,1.890625 V 2001.8906 H 581.89062 V 1.890625 Z m 24.999995,85 h 395 V 1916.8906 h -395 z"
           id="600x2000R"
           inkscape:connector-curvature="0" />
      </g>
      <g
         id="400R">
        <path
           inkscape:connector-curvature="0"
           id="400x2000R"
           d="M 76.890625,1.890625 V 2001.8906 H 381.89062 V 1.890625 Z m 24.999995,85 h 195 V 1916.8906 h -195 z"
           style="overflow:visible;fill:#cccccc;stroke:#000000;stroke-width:1;stroke-miterlimit:4;stroke-dasharray:none;stroke-opacity:1" />
        <path
           inkscape:connector-curvature="0"
           id="400x1800R"
           d="M 76.890625,1.890625 V 1801.8906 H 381.89062 V 1.890625 Z m 24.999995,85 h 195 V 1716.8906 h -195 z"
           style="overflow:visible;fill:#cccccc;stroke:#000000;stroke-width:1;stroke-miterlimit:4;stroke-dasharray:none;stroke-opacity:1" />
        <path
           inkscape:connector-curvature="0"
           id="400x1600R"
           d="M 76.890625,1.890625 V 1601.8906 H 381.89062 V 1.890625 Z m 24.999995,85 h 195 V 1516.8906 h -195 z"
           style="overflow:visible;fill:#cccccc;stroke:#000000;stroke-width:1;stroke-miterlimit:4;stroke-dasharray:none;stroke-opacity:1" />
        <path
           inkscape:connector-curvature="0"
           id="400x1400R"
           d="M 76.890625,1.890625 V 1401.8906 H 381.89062 V 1.890625 Z m 24.999995,85 h 195 V 1316.8906 h -195 z"
           style="overflow:visible;fill:#cccccc;stroke:#000000;stroke-width:1;stroke-miterlimit:4;stroke-dasharray:none;stroke-opacity:1" />
        <path
           inkscape:connector-curvature="0"
           id="400x1200R"
           d="M 76.890625,1.890625 V 1201.8906 H 381.89062 V 1.890625 Z m 24.999995,85 h 195 V 1116.8906 h -195 z"
           style="overflow:visible;fill:#cccccc;stroke:#000000;stroke-width:1;stroke-miterlimit:4;stroke-dasharray:none;stroke-opacity:1" />
        <path
           inkscape:connector-curvature="0"
           id="400x1000R"
           d="M 76.890625,1.890625 V 1001.8906 H 381.89062 V 1.890625 Z m 24.999995,85 h 195 V 916.89062 h -195 z"
           style="overflow:visible;fill:#cccccc;stroke:#000000;stroke-width:1;stroke-miterlimit:4;stroke-dasharray:none;stroke-opacity:1" />
        <path
           inkscape:connector-curvature="0"
           id="400x800R"
           d="M 76.890625,1.890625 V 801.89062 H 381.89062 V 1.890625 Z m 24.999995,85 h 195 V 716.89062 h -195 z"
           style="overflow:visible;fill:#cccccc;stroke:#000000;stroke-width:1;stroke-miterlimit:4;stroke-dasharray:none;stroke-opacity:1" />
        <path
           inkscape:connector-curvature="0"
           id="400x600R"
           d="M 76.890625,1.890625 V 601.89062 H 381.89062 V 1.890625 Z m 24.999995,85 h 195 V 516.89062 h -195 z"
           style="overflow:visible;fill:#cccccc;stroke:#000000;stroke-width:1;stroke-miterlimit:4;stroke-dasharray:none;stroke-opacity:1" />
      </g>
      <path
         style="overflow:visible;fill:#f5f5f5"
         inkscape:connector-curvature="0"
         d="m 751.68976,889.98976 -17.1,-4.4 v 9.3 h 17.1 z m 0,5.6 h -17.1 v 9.3 l 17.1,-4.5 z m 0,19.3 h -17.1 v 10 h 17.1 z m 0,10.6 h -17.1 v 10.5 a 10.499,10.337 0 0 0 2.4,-3.6 7.8748,7.7531 0 0 0 6.9,4.1 7.8748,7.7531 0 0 0 7.8,-7.9 z m 0,16.2 h -17.1 v 10 h 17.1 z m 0,10.7 h -17.1 v 10.5 a 10.499,10.337 0 0 0 2.4,-3.6 7.8748,7.7531 0 0 0 6.9,4 7.8748,7.7531 0 0 0 7.8,-7.8 z m -17.8,-67.1 -17.2,-4.4 v 8.6 l 7,1.8 v 3.6 h 10.2 z m 0,10.3 h -10.2 v 3.5 l -7,1.9 v 8.6 l 17.2,-4.5 z m 0,19.3 h -17.2 v 10 h 17.2 z m 0,10.6 h -17.2 v 3.1 a 10.499,10.337 0 0 0 10.5,10.4 10.499,10.337 0 0 0 6.7,-2.3 z m 0,16.2 h -17.2 v 10 h 17.2 z m 0,10.7 h -17.2 v 3.1 a 10.499,10.337 0 0 0 10.5,10.4 10.499,10.337 0 0 0 6.7,-2.3 z"
         id="imageRight" />
      <rect
         style="overflow:visible;fill:#cccccc;stroke:#000000;stroke-width:1;stroke-miterlimit:4;stroke-dasharray:none;stroke-opacity:1"
         id="hinge_plate"
         width="28"
         height="2000"
         x="775"
         y="1.8" />
    </g>
    <g
       id="DoorL">
      <g
         id="800L">
        <path
           style="overflow:visible;fill:#cccccc;stroke:#000000;stroke-width:1;stroke-miterlimit:4;stroke-dasharray:none;stroke-opacity:1"
           d="m 0.5,0.5 v 2000 h 725 V 0.5 Z m 85,85 h 615 v 1830 h -615 z"
           transform="translate(-0.5,-0.5)"
           id="800x2000L"
           inkscape:connector-curvature="0" />
        <path
           style="overflow:visible;fill:#cccccc;stroke:#000000;stroke-width:1;stroke-miterlimit:4;stroke-dasharray:none;stroke-opacity:1"
           d="m 0.5,0.5 v 1800 h 725 V 0.5 Z m 85,85 h 615 v 1630 h -615 z"
           transform="translate(-0.5,-0.5)"
           id="800x1800L"
           inkscape:connector-curvature="0" />
        <path
           style="overflow:visible;fill:#cccccc;stroke:#000000;stroke-width:1;stroke-miterlimit:4;stroke-dasharray:none;stroke-opacity:1"
           d="m 0.5,0.5 v 1600 h 725 V 0.5 Z m 85,85 h 615 v 1430 h -615 z"
           transform="translate(-0.5,-0.5)"
           id="800x1600L"
           inkscape:connector-curvature="0" />
        <path
           style="overflow:visible;fill:#cccccc;stroke:#000000;stroke-width:1;stroke-miterlimit:4;stroke-dasharray:none;stroke-opacity:1"
           d="m 0.5,0.5 v 1400 h 725 V 0.5 Z m 85,85 h 615 v 1230 h -615 z"
           transform="translate(-0.5,-0.5)"
           id="800x1400L"
           inkscape:connector-curvature="0" />
        <path
           style="overflow:visible;fill:#cccccc;stroke:#000000;stroke-width:1;stroke-miterlimit:4;stroke-dasharray:none;stroke-opacity:1"
           d="m 0.5,0.5 v 1200 h 725 V 0.5 Z m 85,85 h 615 v 1030 h -615 z"
           transform="translate(-0.5,-0.5)"
           id="800x1200L"
           inkscape:connector-curvature="0" />
        <path
           style="overflow:visible;fill:#cccccc;stroke:#000000;stroke-width:1;stroke-miterlimit:4;stroke-dasharray:none;stroke-opacity:1"
           d="m 0.5,0.5 v 1000 h 725 V 0.5 Z m 85,85 h 615 v 830 h -615 z"
           transform="translate(-0.5,-0.5)"
           id="800x1000L"
           inkscape:connector-curvature="0" />
        <path
           style="overflow:visible;fill:#cccccc;stroke:#000000;stroke-width:1;stroke-miterlimit:4;stroke-dasharray:none;stroke-opacity:1"
           d="m 0.5,0.5 v 800 h 725 V 0.5 Z m 85,85 h 615 v 630 h -615 z"
           transform="translate(-0.5,-0.5)"
           id="800x800L"
           inkscape:connector-curvature="0" />
        <path
           style="overflow:visible;fill:#cccccc;stroke:#000000;stroke-width:1;stroke-miterlimit:4;stroke-dasharray:none;stroke-opacity:1"
           d="m 0.5,0.5 v 600 h 725 V 0.5 Z m 85,85 h 615 v 430 h -615 z"
           transform="translate(-0.5,-0.5)"
           id="800x600L"
           inkscape:connector-curvature="0" />
      </g>
      <g
         id="600L">
        <path
           style="overflow:visible;fill:#cccccc;stroke:#000000;stroke-width:1;stroke-miterlimit:4;stroke-dasharray:none;stroke-opacity:1"
           d="m 0.5,0.5 v 2000 h 525 V 0.5 Z m 85,85 h 415 v 1830 h -415 z"
           transform="translate(-0.5,-0.5)"
           id="600x2000L"
           inkscape:connector-curvature="0" />
        <path
           style="overflow:visible;fill:#cccccc;stroke:#000000;stroke-width:1;stroke-miterlimit:4;stroke-dasharray:none;stroke-opacity:1"
           d="m 0.5,0.5 v 1800 h 525 V 0.5 Z m 85,85 h 415 v 1630 h -415 z"
           transform="translate(-0.5,-0.5)"
           id="600x1800L"
           inkscape:connector-curvature="0" />
        <path
           style="overflow:visible;fill:#cccccc;stroke:#000000;stroke-width:1;stroke-miterlimit:4;stroke-dasharray:none;stroke-opacity:1"
           d="m 0.5,0.5 v 1600 h 525 V 0.5 Z m 85,85 h 415 v 1430 h -415 z"
           transform="translate(-0.5,-0.5)"
           id="600x1600L"
           inkscape:connector-curvature="0" />
        <path
           style="overflow:visible;fill:#cccccc;stroke:#000000;stroke-width:1;stroke-miterlimit:4;stroke-dasharray:none;stroke-opacity:1"
           d="m 0.5,0.5 v 1400 h 525 V 0.5 Z m 85,85 h 415 v 1230 h -415 z"
           transform="translate(-0.5,-0.5)"
           id="600x1400L"
           inkscape:connector-curvature="0" />
        <path
           style="overflow:visible;fill:#cccccc;stroke:#000000;stroke-width:1;stroke-miterlimit:4;stroke-dasharray:none;stroke-opacity:1"
           d="m 0.5,0.5 v 1200 h 525 V 0.5 Z m 85,85 h 415 v 1030 h -415 z"
           transform="translate(-0.5,-0.5)"
           id="600x1200L"
           inkscape:connector-curvature="0" />
        <path
           style="overflow:visible;fill:#cccccc;stroke:#000000;stroke-width:1;stroke-miterlimit:4;stroke-dasharray:none;stroke-opacity:1"
           d="m 0.5,0.5 v 1000 h 525 V 0.5 Z m 85,85 h 415 v 830 h -415 z"
           transform="translate(-0.5,-0.5)"
           id="600x1000L"
           inkscape:connector-curvature="0" />
        <path
           style="overflow:visible;fill:#cccccc;stroke:#000000;stroke-width:1;stroke-miterlimit:4;stroke-dasharray:none;stroke-opacity:1"
           d="m 0.5,0.5 v 800 h 525 V 0.5 Z m 85,85 h 415 v 630 h -415 z"
           transform="translate(-0.5,-0.5)"
           id="600x800L"
           inkscape:connector-curvature="0" />
        <path
           style="overflow:visible;fill:#cccccc;stroke:#000000;stroke-width:1;stroke-miterlimit:4;stroke-dasharray:none;stroke-opacity:1"
           d="m 0.5,0.5 v 600 h 525 V 0.5 Z m 85,85 h 415 v 430 h -415 z"
           transform="translate(-0.5,-0.5)"
           id="600x600L"
           inkscape:connector-curvature="0" />
      </g>
      <g
         id="400L">
        <path
           style="overflow:visible;fill:#cccccc;stroke:#000000;stroke-width:1;stroke-miterlimit:4;stroke-dasharray:none;stroke-opacity:1"
           d="m 0.5,0.5 v 2000 h 325 V 0.5 Z m 85,85 h 215 v 1830 h -215 z"
           transform="translate(-0.5,-0.5)"
           id="400x2000L"
           inkscape:connector-curvature="0" />
        <path
           style="overflow:visible;fill:#cccccc;stroke:#000000;stroke-width:1;stroke-miterlimit:4;stroke-dasharray:none;stroke-opacity:1"
           d="m 0.5,0.5 v 1800 h 325 V 0.5 Z m 85,85 h 215 v 1630 h -215 z"
           transform="translate(-0.5,-0.5)"
           id="400x1800L"
           inkscape:connector-curvature="0" />
        <path
           style="overflow:visible;fill:#cccccc;stroke:#000000;stroke-width:1;stroke-miterlimit:4;stroke-dasharray:none;stroke-opacity:1"
           d="m 0.5,0.5 v 1600 h 325 V 0.5 Z m 85,85 h 215 v 1430 h -215 z"
           transform="translate(-0.5,-0.5)"
           id="400x1600L"
           inkscape:connector-curvature="0" />
        <path
           style="overflow:visible;fill:#cccccc;stroke:#000000;stroke-width:1;stroke-miterlimit:4;stroke-dasharray:none;stroke-opacity:1"
           d="m 0.5,0.5 v 1400 h 325 V 0.5 Z m 85,85 h 215 v 1230 h -215 z"
           transform="translate(-0.5,-0.5)"
           id="400x1400L"
           inkscape:connector-curvature="0" />
        <path
           style="overflow:visible;fill:#cccccc;stroke:#000000;stroke-width:1;stroke-miterlimit:4;stroke-dasharray:none;stroke-opacity:1"
           d="m 0.5,0.5 v 1200 h 325 V 0.5 Z m 85,85 h 215 v 1030 h -215 z"
           transform="translate(-0.5,-0.5)"
           id="400x1200L"
           inkscape:connector-curvature="0" />
        <path
           style="overflow:visible;fill:#cccccc;stroke:#000000;stroke-width:1;stroke-miterlimit:4;stroke-dasharray:none;stroke-opacity:1"
           d="m 0.5,0.5 v 1000 h 325 V 0.5 Z m 85,85 h 215 v 830 h -215 z"
           transform="translate(-0.5,-0.5)"
           id="400x1000L"
           inkscape:connector-curvature="0" />
        <path
           style="overflow:visible;fill:#cccccc;stroke:#000000;stroke-width:1;stroke-miterlimit:4;stroke-dasharray:none;stroke-opacity:1"
           d="m 0.5,0.5 v 800 h 325 V 0.5 Z m 85,85 h 215 v 630 h -215 z"
           transform="translate(-0.5,-0.5)"
           id="400x800L"
           inkscape:connector-curvature="0" />
        <path
           style="overflow:visible;fill:#cccccc;stroke:#000000;stroke-width:1;stroke-miterlimit:4;stroke-dasharray:none;stroke-opacity:1"
           d="m 0.5,0.5 v 600 h 325 V 0.5 Z m 85,85 h 215 v 430 h -215 z"
           transform="translate(-0.5,-0.5)"
           id="400X600L"
           inkscape:connector-curvature="0" />
      </g>
      <path
         id="imageLeft"
         d="m 27.089764,947.80977 17.1,4.4 v -9.3 h -17.1 z m 0,-5.6 h 17.1 v -9.3 l -17.1,4.5 z m 0,-19.3 h 17.1 v -10 h -17.1 z m 0,-10.6 h 17.1 v -10.5 a 10.499,10.337 0 0 0 -2.4,3.6 7.8747997,7.7531 0 0 0 -6.9,-4.1 7.8747997,7.7531 0 0 0 -7.8,7.9 z m 0,-16.2 h 17.1 v -10 h -17.1 z m 0,-10.7 h 17.1 v -10.5 a 10.499,10.337 0 0 0 -2.4,3.6 7.8747997,7.7531 0 0 0 -6.9,-4 7.8747997,7.7531 0 0 0 -7.8,7.8 z m 17.8,67.1 17.2,4.4 v -8.6 l -7,-1.8 v -3.6 h -10.2 z m 0,-10.3 h 10.2 v -3.5 l 7,-1.9 v -8.6 l -17.2,4.5 z m 0,-19.3 h 17.2 v -10 h -17.2 z m 0,-10.6 h 17.2 v -3.1 a 10.499,10.337 0 0 0 -10.5,-10.4 10.499,10.337 0 0 0 -6.7,2.3 z m 0,-16.2 h 17.2 v -10 h -17.2 z m 0,-10.7 h 17.2 v -3.1 a 10.499,10.337 0 0 0 -10.5,-10.4 10.499,10.337 0 0 0 -6.7,2.3 z"
         inkscape:connector-curvature="0"
         style="overflow:visible;fill:#f5f5f5;stroke-width:0.99999994" />
    </g>
    <g
       id="gripStripR">
      <rect
         id="strip"
         height="2000"
         width="75"
         x="1.8"
         y="0"
         style="overflow:visible;fill:#e2e2e2;fill-rule:evenodd;stroke:#000000" />
      <g
         id="doorLock">
        <g
           id="swingHandle">
          <rect
             id="rect4174-1-2"
             height="160"
             rx="5"
             width="34"
             x="37"
             y="841.5"
             style="overflow:visible;fill:#808080;stroke:#4d4d4d;stroke-width:0.5;stroke-linecap:round;stroke-linejoin:round" />
          <rect
             id="rect4176-6-8"
             height="157"
             rx="3.5"
             width="31"
             x="38.5"
             y="843"
             style="overflow:visible;fill:#575d5e;stroke:#4d4d4d;stroke-width:0.5;stroke-linecap:round;stroke-linejoin:round" />
          <rect
             id="rect4176-6-8-2"
             height="135"
             rx="12"
             width="26"
             x="41"
             y="852.5"
             style="overflow:visible;fill:#808080;stroke:#4d4d4d;stroke-width:0.50001001;stroke-linecap:round;stroke-linejoin:round" />
          <rect
             id="rect4176-6-8-2-9"
             height="133"
             rx="10"
             width="22"
             x="43"
             y="854.92999"
             style="overflow:visible;fill:#808080;stroke:#4d4d4d;stroke-width:0.50001001;stroke-linecap:round;stroke-linejoin:round" />
          <rect
             id="rect4176-6-8-2-5"
             height="60.882"
             rx="5"
             width="26"
             x="41"
             y="931.66998"
             style="overflow:visible;fill:#808080;stroke:#4d4d4d;stroke-width:0.50002998;stroke-linecap:round;stroke-linejoin:round" />
          <rect
             id="rect4176-6-8-2-5-9"
             height="60"
             rx="2.9314001"
             width="22"
             x="43"
             y="930.82001"
             style="overflow:visible;fill:#575d5e;stroke:#4d4d4d;stroke-width:0.50001001;stroke-linecap:round;stroke-linejoin:round" />
        </g>
        <g
           id="latchPlate">
          <g
             id="plate">
            <rect
               id="rect4174-1"
               height="160"
               rx="5"
               width="34"
               x="37"
               y="841.5"
               style="overflow:visible;fill:#808080;stroke:#4d4d4d;stroke-width:0.5;stroke-linecap:round;stroke-linejoin:round" />
            <rect
               id="rect4176-6"
               height="157"
               rx="3.5"
               width="34"
               x="37"
               y="843"
               style="overflow:visible;fill:#575d5e;stroke:#4d4d4d;stroke-width:0.5;stroke-linecap:round;stroke-linejoin:round" />
          </g>
          <circle
             id="lock"
             cx="54"
             cy="866.40002"
             r="14"
             style="overflow:visible;fill:#808080;stroke:#4d4d4d;stroke-width:0.5;stroke-linecap:round;stroke-linejoin:round" />
          <path
             id="lockHole"
             d="m 54,861.15 c -2.434,0 -4.504,1.69 -4.991,4.08 h -5.478 v 2.35 h 5.478 c 0.487,2.39 2.557,4.07 4.991,4.07 2.435,0 4.504,-1.68 4.991,-4.07 h 5.478 v -2.35 H 58.991 C 58.504,862.84 56.435,861.15 54,861.15 Z"
             inkscape:connector-curvature="0"
             style="overflow:visible;fill:#ffffff;stroke:#4d4d4d;stroke-width:0.5;stroke-linejoin:round" />
        </g>
      </g>
    </g>
  </g>
</svg>
