<?xml version="1.0" encoding="UTF-8" standalone="no"?>
<svg
   xmlns:dc="http://purl.org/dc/elements/1.1/"
   xmlns:cc="http://creativecommons.org/ns#"
   xmlns:rdf="http://www.w3.org/1999/02/22-rdf-syntax-ns#"
   xmlns:svg="http://www.w3.org/2000/svg"
   xmlns="http://www.w3.org/2000/svg"
   xmlns:sodipodi="http://sodipodi.sourceforge.net/DTD/sodipodi-0.dtd"
   xmlns:inkscape="http://www.inkscape.org/namespaces/inkscape"
   id="svg2"
   height="901"
   viewBox="0 0 750.9375 901"
   width="801"
   version="1.1"
   inkscape:version="0.91 r13725"
   sodipodi:docname="CC_BORA_(800 X 900).svg">
  <metadata
     id="metadata67">
    <rdf:RDF>
      <cc:Work
         rdf:about="">
        <dc:format>image/svg+xml</dc:format>
        <dc:type
           rdf:resource="http://purl.org/dc/dcmitype/StillImage" />
        <dc:title />
      </cc:Work>
    </rdf:RDF>
  </metadata>
  <defs
     id="defs65" />
  <sodipodi:namedview
     pagecolor="#ffffff"
     bordercolor="#666666"
     borderopacity="1"
     objecttolerance="10"
     gridtolerance="10"
     guidetolerance="10"
     inkscape:pageopacity="0"
     inkscape:pageshadow="2"
     inkscape:window-width="1024"
     inkscape:window-height="756"
     id="namedview63"
     showgrid="false"
     inkscape:zoom="0.44500588"
     inkscape:cx="318.87089"
     inkscape:cy="535.47534"
     inkscape:window-x="-8"
     inkscape:window-y="-8"
     inkscape:window-maximized="1"
     inkscape:current-layer="svg2"
     fit-margin-top="0"
     fit-margin-left="0"
     fit-margin-right="0"
     fit-margin-bottom="0" />
  <rect
     style="fill:#c5c7c4;fill-opacity:0.8;fill-rule:evenodd;stroke:#000000;stroke-linecap:square"
     y="0.5"
     x="-26.185371"
     width="800"
     height="900"
     id="frontPanel - 800 x 900" />
  <g
     style="fill-rule:evenodd"
     id="edfRightTop"
     transform="translate(15.88274,-6.7867177)">
    <rect
       style="fill:#ff0000;stroke:#ff0000;stroke-linecap:round;stroke-linejoin:round"
       y="30.5"
       x="733"
       width="14"
       height="14"
       id="rect4292" />
    <circle
       style="fill:#a00000;stroke:#a00000;stroke-linecap:square"
       r="4.5"
       cy="37.5"
       cx="740"
       id="circle4294" />
    <rect
       style="fill:#ff0000;stroke:#ff0000;stroke-linecap:square;stroke-linejoin:round"
       y="20.5"
       x="735"
       width="10"
       height="10"
       id="rect4296" />
    <rect
       style="fill:#c00000;stroke:#c00000;stroke-linecap:square"
       y="22.5"
       x="737"
       width="6"
       height="6"
       id="rect4298" />
    <rect
       style="fill:#ff0000;stroke:#ff0000;stroke-linecap:round;stroke-linejoin:round"
       y="44.5"
       x="735"
       width="10"
       height="10"
       id="rect4300" />
    <rect
       style="fill:#c00000;stroke:#c00000;stroke-linecap:square"
       y="46.5"
       x="737"
       width="6"
       height="6"
       id="rect4302" />
  </g>
  <g
     style="fill:#c5c7c4;stroke:#000000"
     id="fittingRightTop"
     transform="translate(15.88274,-6.7867177)">
    <circle
       style="fill-rule:evenodd;stroke-linecap:square"
       r="4.5"
       cy="37.5"
       cx="740"
       id="circle3843" />
    <rect
       style="fill-rule:evenodd;stroke-width:0.5;stroke-linecap:square"
       y="22.5"
       x="739"
       width="2"
       height="7"
       id="rect3845" />
    <rect
       style="fill-rule:evenodd;stroke-width:0.5;stroke-linecap:square"
       y="45.5"
       x="739"
       width="2"
       height="7"
       id="rect3847" />
    <path
       inkscape:connector-curvature="0"
       d="m 743,37.5 -6,0 m 3,-3 0,6"
       id="path3849" />
  </g>
  <g
     style="fill-rule:evenodd"
     id="edfRightBottom"
     transform="translate(15.88274,153.213)">
    <rect
       style="fill:#ff0000;stroke:#ff0000;stroke-linecap:round;stroke-linejoin:round"
       y="705.5"
       x="733"
       width="14"
       height="14"
       id="rect4320" />
    <circle
       style="fill:#a00000;stroke:#a00000;stroke-linecap:square"
       r="4.5"
       cy="712.5"
       cx="740"
       id="circle4322" />
    <rect
       style="fill:#ff0000;stroke:#ff0000;stroke-linecap:square;stroke-linejoin:round"
       y="695.5"
       x="735"
       width="10"
       height="10"
       id="rect4324" />
    <rect
       style="fill:#c00000;stroke:#c00000;stroke-linecap:square"
       y="697.5"
       x="737"
       width="6"
       height="6"
       id="rect4326" />
    <rect
       style="fill:#ff0000;stroke:#ff0000;stroke-linecap:round;stroke-linejoin:round"
       y="719.5"
       x="735"
       width="10"
       height="10"
       id="rect4328" />
    <rect
       style="fill:#c00000;stroke:#c00000;stroke-linecap:square"
       y="721.5"
       x="737"
       width="6"
       height="6"
       id="rect4330" />
  </g>
  <g
     style="fill-rule:evenodd"
     id="edfLeftBottom"
     transform="translate(-14.11725,153.213)">
    <rect
       style="fill:#ff0000;stroke:#ff0000;stroke-linecap:round;stroke-linejoin:round"
       y="705.5"
       x="3"
       width="14"
       height="14"
       id="rect4334" />
    <circle
       style="fill:#a00000;stroke:#a00000;stroke-linecap:square"
       r="4.5"
       cy="712.5"
       cx="10"
       id="circle4336" />
    <rect
       style="fill:#ff0000;stroke:#ff0000;stroke-linecap:square;stroke-linejoin:round"
       y="695.5"
       x="5"
       width="10"
       height="10"
       id="rect4338" />
    <rect
       style="fill:#c00000;stroke:#c00000;stroke-linecap:square"
       y="697.5"
       x="7"
       width="6"
       height="6"
       id="rect4340" />
    <rect
       style="fill:#ff0000;stroke:#ff0000;stroke-linecap:round;stroke-linejoin:round"
       y="719.5"
       x="5"
       width="10"
       height="10"
       id="rect4342" />
    <rect
       style="fill:#c00000;stroke:#c00000;stroke-linecap:square"
       y="721.5"
       x="7"
       width="6"
       height="6"
       id="rect4344" />
  </g>
  <g
     transform="translate(-14.11725,-6.7867177)"
     id="edfLeftTop"
     style="fill-rule:evenodd">
    <rect
       id="rect4262"
       height="14"
       width="14"
       x="3"
       y="30.5"
       style="fill:#ff0000;stroke:#ff0000;stroke-linecap:round;stroke-linejoin:round" />
    <circle
       id="path4201"
       cx="10"
       cy="37.5"
       r="4.5"
       style="fill:#a00000;stroke:#a00000;stroke-linecap:square" />
    <rect
       id="rect4264"
       height="10"
       width="10"
       x="5"
       y="20.5"
       style="fill:#ff0000;stroke:#ff0000;stroke-linecap:square;stroke-linejoin:round" />
    <rect
       id="rect4197"
       height="6"
       width="6"
       x="7"
       y="22.5"
       style="fill:#c00000;stroke:#c00000;stroke-linecap:square" />
    <rect
       id="rect4266"
       height="10"
       width="10"
       x="5"
       y="44.5"
       style="fill:#ff0000;stroke:#ff0000;stroke-linecap:round;stroke-linejoin:round" />
    <rect
       id="rect4199"
       height="6"
       width="6"
       x="7"
       y="46.5"
       style="fill:#c00000;stroke:#c00000;stroke-linecap:square" />
  </g>
  <g
     transform="translate(-14.11725,-6.7867177)"
     id="fittingLeftTop"
     style="fill:#c5c7c4;stroke:#000000">
    <circle
       id="circle1-0"
       cx="10"
       cy="37.5"
       r="4.5"
       style="fill-rule:evenodd;stroke-linecap:square" />
    <rect
       id="rect4169-63"
       height="7"
       width="2"
       x="9"
       y="22.5"
       style="fill-rule:evenodd;stroke-width:0.5;stroke-linecap:square" />
    <rect
       id="rect4171-7"
       height="7"
       width="2"
       x="9"
       y="45.5"
       style="fill-rule:evenodd;stroke-width:0.5;stroke-linecap:square" />
    <path
       id="line4144-6"
       d="m 13,37.5 -6,0 m 3,-3 0,6"
       inkscape:connector-curvature="0" />
  </g>
  <g
     style="fill:#c5c7c4;stroke:#000000"
     id="fittingRightBottom"
     transform="translate(15.88274,153.213)">
    <circle
       style="fill-rule:evenodd;stroke-linecap:square"
       r="4.5"
       cy="712.5"
       cx="740"
       id="circle3863" />
    <rect
       style="fill-rule:evenodd;stroke-width:0.5;stroke-linecap:square"
       y="697.5"
       x="739"
       width="2"
       height="7"
       id="rect3865" />
    <rect
       style="fill-rule:evenodd;stroke-width:0.5;stroke-linecap:square"
       y="720.5"
       x="739"
       width="2"
       height="7"
       id="rect3867" />
    <path
       inkscape:connector-curvature="0"
       d="m 743,712.5 -6,0 m 3,-3 0,6"
       id="path3869" />
  </g>
  <g
     style="fill:#c5c7c4;stroke:#000000"
     id="fittingLeftBottom"
     transform="translate(-14.11725,153.213)">
    <circle
       style="fill-rule:evenodd;stroke-linecap:square"
       r="4.5"
       cy="712.5"
       cx="10"
       id="circle3883" />
    <rect
       style="fill-rule:evenodd;stroke-width:0.5;stroke-linecap:square"
       y="697.5"
       x="9"
       width="2"
       height="7"
       id="rect3885" />
    <rect
       style="fill-rule:evenodd;stroke-width:0.5;stroke-linecap:square"
       y="720.5"
       x="9"
       width="2"
       height="7"
       id="rect3887" />
    <path
       inkscape:connector-curvature="0"
       d="m 13,712.5 -6,0 m 3,-3 0,6"
       id="path3889" />
  </g>
  <path
     style="fill:none;stroke:#666666;stroke-width:2.5"
     inkscape:connector-curvature="0"
     d="m 81.632737,1.868272 a 61.25,19.5 0 0 0 61.249993,19.5 61.25,19.5 0 0 0 61.25,-19.5 z"
     id="dTop250" />
  <path
     style="fill:none;stroke:#666666;stroke-width:2.5"
     inkscape:connector-curvature="0"
     d="m 329.63273,1.8283469 a 61.25,19.5 0 0 0 61.25,19.5000001 61.25,19.5 0 0 0 61.25,-19.5000001 z"
     id="dTop500" />
  <path
     style="fill:none;stroke:#666666;stroke-width:2.5"
     inkscape:connector-curvature="0"
     d="m 577.63273,1.8283469 a 61.25,19.5 0 0 0 61.25,19.5000001 61.25,19.5 0 0 0 61.25,-19.5000001 z"
     id="dTop750" />
  <path
     style="fill:none;stroke:#666666;stroke-width:2.5"
     inkscape:connector-curvature="0"
     d="m 142.88273,879.18897 a 61.25,19.5 0 0 0 -61.249993,19.5 l 122.499993,0 a 61.25,19.5 0 0 0 -61.25,-19.5 z"
     id="dBottom250" />
  <path
     style="fill:#060000;stroke:#666666;stroke-width:2.5;fill-opacity:0"
     inkscape:connector-curvature="0"
     d="m 390.88273,879.189 a 61.25,19.5 0 0 0 -61.25,19.5 l 122.5,0 a 61.25,19.5 0 0 0 -61.25,-19.5 z"
     id="dBottom500" />
  <path
     style="opacity:1;fill:none;stroke:#666666;stroke-width:2.5"
     inkscape:connector-curvature="0"
     d="m 638.88273,879.189 a 61.25,19.5 0 0 0 -61.25,19.5 l 122.5,0 a 61.25,19.5 0 0 0 -61.25,-19.5 z"
     id="dBottom750" />
  <text
     style="font-size:20px;font-family:sans-serif;letter-spacing:0;word-spacing:0;text-anchor:middle"
     y="29.254229"
     x="391.09274"
     word-spacing="0"
     letter-spacing="0"
     font-size="20"
     id="textTop">
    <tspan
       y="29.213274"
       x="391.09274"
       id="tspan4155">Text</tspan>
  </text>
  <text
     style="font-size:20px;font-family:sans-serif;letter-spacing:0;word-spacing:0;text-anchor:middle"
     y="860.78723"
     x="391.09274"
     word-spacing="0"
     letter-spacing="0"
     font-size="20"
     id="textBottom">
    <tspan
       y="860.53723"
       x="391.09274"
       id="tspan4218">Text</tspan>
  </text>
</svg>
