<?xml version="1.0" encoding="UTF-8" standalone="no"?>
<svg
   xmlns:dc="http://purl.org/dc/elements/1.1/"
   xmlns:cc="http://creativecommons.org/ns#"
   xmlns:rdf="http://www.w3.org/1999/02/22-rdf-syntax-ns#"
   xmlns:svg="http://www.w3.org/2000/svg"
   xmlns="http://www.w3.org/2000/svg"
   xmlns:sodipodi="http://sodipodi.sourceforge.net/DTD/sodipodi-0.dtd"
   xmlns:inkscape="http://www.inkscape.org/namespaces/inkscape"
   id="svg2"
   height="499.79996"
   overflow="visible"
   viewBox="0 0 723.79998 499.79992"
   width="723.79993"
   version="1.1"
   inkscape:version="0.92.4 (5da689c313, 2019-01-14)"
   sodipodi:docname="Kit_OT_Switch_V.svg"
   style="overflow:visible">
  <metadata
     id="metadata23">
    <rdf:RDF>
      <cc:Work
         rdf:about="">
        <dc:format>image/svg+xml</dc:format>
        <dc:type
           rdf:resource="http://purl.org/dc/dcmitype/StillImage" />
        <dc:title />
      </cc:Work>
    </rdf:RDF>
  </metadata>
  <defs
     id="defs21" />
  <sodipodi:namedview
     pagecolor="#ffffff"
     bordercolor="#666666"
     borderopacity="1"
     objecttolerance="10"
     gridtolerance="10"
     guidetolerance="10"
     inkscape:pageopacity="0"
     inkscape:pageshadow="2"
     inkscape:window-width="1366"
     inkscape:window-height="705"
     id="namedview19"
     showgrid="false"
     inkscape:zoom="0.81997798"
     inkscape:cx="394.29612"
     inkscape:cy="207.71586"
     inkscape:window-x="-8"
     inkscape:window-y="-8"
     inkscape:window-maximized="1"
     inkscape:current-layer="svg2"
     showguides="false"
     fit-margin-top="0"
     fit-margin-left="0"
     fit-margin-right="0"
     fit-margin-bottom="0" />
  <path
     style="overflow:visible;fill:#e6e6e6;fill-opacity:0.8;stroke:#999999;stroke-width:0.80000007;stroke-linejoin:miter;stroke-miterlimit:4;stroke-dasharray:none;stroke-opacity:1"
     d="M 0,0 0,349 723,349 723,0 0,0 Z m 380.83398,152.67578 a 3.5000005,3.5000003 0 0 1 3.5,3.5 3.5000005,3.5000003 0 0 1 -3.5,3.5 3.5000005,3.5000003 0 0 1 -3.5,-3.5 3.5000005,3.5000003 0 0 1 3.5,-3.5 z m -18.73242,6.22461 a 16,15.999998 0 0 1 16,16 16,15.999998 0 0 1 -16,16 16,15.999998 0 0 1 -16,-16 16,15.999998 0 0 1 16,-16 z m -18.73242,31.24805 a 3.4999996,3.499999 0 0 1 3.5,3.5 3.4999996,3.499999 0 0 1 -3.5,3.5 3.4999996,3.499999 0 0 1 -3.5,-3.5 3.4999996,3.499999 0 0 1 3.5,-3.5 z"
     transform="translate(0,-4.5776373e-5)"
     id="FrontPanel_800X350_QS4V835HM"
     inkscape:connector-curvature="0" />
  <path
     id="FrontPanel_800X350_QS8V835HM"
     transform="translate(0,-4.5776373e-5)"
     d="M 0,0 V 349 H 723 V 0 Z m 380.83398,152.67578 a 3.5000005,3.5000003 0 0 1 3.5,3.5 3.5000005,3.5000003 0 0 1 -3.5,3.5 3.5000005,3.5000003 0 0 1 -3.5,-3.5 3.5000005,3.5000003 0 0 1 3.5,-3.5 z m -18.73242,6.22461 a 16,15.999998 0 0 1 16,16 16,15.999998 0 0 1 -16,16 16,15.999998 0 0 1 -16,-16 16,15.999998 0 0 1 16,-16 z m -18.73242,31.24805 a 3.4999996,3.499999 0 0 1 3.5,3.5 3.4999996,3.499999 0 0 1 -3.5,3.5 3.4999996,3.499999 0 0 1 -3.5,-3.5 3.4999996,3.499999 0 0 1 3.5,-3.5 z"
     style="overflow:visible;fill:#e6e6e6;fill-opacity:0.8;stroke:#999999;stroke-width:0.80000007;stroke-linejoin:miter;stroke-miterlimit:4;stroke-dasharray:none;stroke-opacity:1"
     inkscape:connector-curvature="0" />
  <g
     id="KeySlot_Top_Left"
     transform="translate(5.5360003,152.11241)">
    <rect
       y="0"
       x="0"
       height="47.056999"
       width="17.080999"
       id="KeySlot_Part_1"
       style="overflow:visible;fill:#c5c7c4;fill-opacity:0.8;stroke:#000000;stroke-width:0.80000007;stroke-linejoin:miter;stroke-miterlimit:4;stroke-dasharray:none;stroke-opacity:1" />
    <rect
       y="0.5"
       x="0.31600001"
       height="46.056999"
       width="16.448"
       id="KeySlot_Part_2"
       style="overflow:visible;fill:#c5c7c4;fill-opacity:1;fill-rule:evenodd;stroke:#000000;stroke-width:0.95700008;stroke-linejoin:miter;stroke-miterlimit:4;stroke-dasharray:none;stroke-opacity:1" />
    <g
       transform="translate(0.19299969,22.927929)"
       id="KeySlot_Centre_Part">
      <circle
         style="overflow:visible;fill:#ffffff;fill-opacity:1;stroke:#000000;stroke-width:0.80000007;stroke-linejoin:round;stroke-miterlimit:4;stroke-dasharray:none;stroke-opacity:1"
         id="KeySlot_Circle_R8"
         cx="8.3570004"
         cy="0"
         r="8" />
      <circle
         style="overflow:visible;fill:#ffffff;fill-opacity:1;stroke:#000000;stroke-width:0.80000007;stroke-linejoin:round;stroke-miterlimit:4;stroke-dasharray:none;stroke-opacity:1"
         id="KeySlot_Circle_R7"
         cx="8.3570004"
         cy="0"
         r="7" />
      <circle
         style="overflow:visible;fill:#ffffff;fill-opacity:1;stroke:#000000;stroke-width:0.80000007;stroke-linejoin:round;stroke-miterlimit:4;stroke-dasharray:none;stroke-opacity:1"
         id="KeySlot_Circle_R6"
         cx="8.3570004"
         cy="0"
         r="6" />
      <circle
         style="overflow:visible;fill:#ffffff;fill-opacity:1;stroke:#000000;stroke-width:0.80000007;stroke-linejoin:round;stroke-miterlimit:4;stroke-dasharray:none;stroke-opacity:1"
         id="KeySlot_Circle_R5"
         cx="8.3570004"
         cy="0"
         r="5" />
      <circle
         style="overflow:visible;fill:#ffffff;fill-opacity:1;stroke:#000000;stroke-width:0.80000007;stroke-linejoin:round;stroke-miterlimit:4;stroke-dasharray:none;stroke-opacity:1"
         id="KeySlot_Circle_R3.5"
         cx="8.3570004"
         cy="0"
         r="3.5" />
      <path
         inkscape:connector-curvature="0"
         d="m 11.391372,6.2000003e-7 -6.0687432,0 M 8.3570002,-3.0554623 l 0,6.1109246"
         id="KeySlot_Centre"
         style="overflow:visible;fill:#c5c7c4;stroke:#000000;stroke-width:1.01496589" />
    </g>
    <g
       id="KeySlot_Slant_lines">
      <path
         style="fill:none;fill-rule:evenodd;stroke:#000000;stroke-width:0.48639783;stroke-linecap:butt;stroke-linejoin:miter;stroke-miterlimit:4;stroke-dasharray:none;stroke-opacity:1"
         d="M 0.47823112,45.307264 5.8815891,30.706828"
         id="path4445"
         inkscape:connector-curvature="0" />
      <path
         style="fill:none;fill-rule:evenodd;stroke:#000000;stroke-width:0.48282123;stroke-linecap:butt;stroke-linejoin:miter;stroke-miterlimit:4;stroke-dasharray:none;stroke-opacity:1"
         d="M 11.017991,15.30689 16.469368,2.0675017"
         id="path4453"
         inkscape:connector-curvature="0" />
      <path
         style="fill:none;fill-rule:evenodd;stroke:#000000;stroke-width:0.45493194;stroke-linecap:butt;stroke-linejoin:miter;stroke-miterlimit:4;stroke-dasharray:none;stroke-opacity:1"
         d="M 16.384711,45.177766 10.994854,30.836325"
         id="path4455"
         inkscape:connector-curvature="0" />
      <path
         style="fill:none;fill-rule:evenodd;stroke:#000000;stroke-width:0.47866145;stroke-linecap:butt;stroke-linejoin:miter;stroke-miterlimit:4;stroke-dasharray:none;stroke-opacity:1"
         d="M 5.9792324,15.079491 0.38058792,1.9715201"
         id="path4457"
         inkscape:connector-curvature="0" />
    </g>
  </g>
  <g
     transform="translate(702.14204,152.11241)"
     style="overflow:visible"
     id="KeySlot_Top_Right">
    <rect
       y="0"
       x="0"
       height="47.056999"
       width="17.080999"
       id="KeySlot_Part_1-7"
       style="overflow:visible;fill:#c5c7c4;fill-opacity:0.8;stroke:#000000;stroke-width:0.80000007;stroke-linejoin:miter;stroke-miterlimit:4;stroke-dasharray:none;stroke-opacity:1" />
    <rect
       y="0.5"
       x="0.31600001"
       height="46.056999"
       width="16.448"
       id="KeySlot_Part_2-9"
       style="overflow:visible;fill:#c5c7c4;fill-opacity:1;fill-rule:evenodd;stroke:#000000;stroke-width:0.95700008;stroke-linejoin:miter;stroke-miterlimit:4;stroke-dasharray:none;stroke-opacity:1" />
    <g
       transform="translate(0.19299969,22.927929)"
       id="KeySlot_Centre_Part-3">
      <circle
         style="overflow:visible;fill:#ffffff;fill-opacity:1;stroke:#000000;stroke-width:0.80000007;stroke-linejoin:round;stroke-miterlimit:4;stroke-dasharray:none;stroke-opacity:1"
         id="KeySlot_Circle_R8-6"
         cx="8.3570004"
         cy="0"
         r="8" />
      <circle
         style="overflow:visible;fill:#ffffff;fill-opacity:1;stroke:#000000;stroke-width:0.80000007;stroke-linejoin:round;stroke-miterlimit:4;stroke-dasharray:none;stroke-opacity:1"
         id="KeySlot_Circle_R7-4"
         cx="8.3570004"
         cy="0"
         r="7" />
      <circle
         style="overflow:visible;fill:#ffffff;fill-opacity:1;stroke:#000000;stroke-width:0.80000007;stroke-linejoin:round;stroke-miterlimit:4;stroke-dasharray:none;stroke-opacity:1"
         id="KeySlot_Circle_R6-6"
         cx="8.3570004"
         cy="0"
         r="6" />
      <circle
         style="overflow:visible;fill:#ffffff;fill-opacity:1;stroke:#000000;stroke-width:0.80000007;stroke-linejoin:round;stroke-miterlimit:4;stroke-dasharray:none;stroke-opacity:1"
         id="KeySlot_Circle_R5-3"
         cx="8.3570004"
         cy="0"
         r="5" />
      <circle
         style="overflow:visible;fill:#ffffff;fill-opacity:1;stroke:#000000;stroke-width:0.80000007;stroke-linejoin:round;stroke-miterlimit:4;stroke-dasharray:none;stroke-opacity:1"
         id="KeySlot_Circle_R3.5-5"
         cx="8.3570004"
         cy="0"
         r="3.5" />
      <path
         inkscape:connector-curvature="0"
         d="m 11.391372,6.2000003e-7 -6.0687432,0 M 8.3570002,-3.0554623 l 0,6.1109246"
         id="KeySlot_Centre-1"
         style="overflow:visible;fill:#c5c7c4;stroke:#000000;stroke-width:1.01496589" />
    </g>
    <g
       id="KeySlot_Slant_lines-7">
      <path
         style="fill:none;fill-rule:evenodd;stroke:#000000;stroke-width:0.48639783;stroke-linecap:butt;stroke-linejoin:miter;stroke-miterlimit:4;stroke-dasharray:none;stroke-opacity:1"
         d="M 0.47823112,45.307264 5.8815891,30.706828"
         id="path4445-2"
         inkscape:connector-curvature="0" />
      <path
         style="fill:none;fill-rule:evenodd;stroke:#000000;stroke-width:0.48282123;stroke-linecap:butt;stroke-linejoin:miter;stroke-miterlimit:4;stroke-dasharray:none;stroke-opacity:1"
         d="M 11.017991,15.30689 16.469368,2.0675017"
         id="path4453-0"
         inkscape:connector-curvature="0" />
      <path
         style="fill:none;fill-rule:evenodd;stroke:#000000;stroke-width:0.45493194;stroke-linecap:butt;stroke-linejoin:miter;stroke-miterlimit:4;stroke-dasharray:none;stroke-opacity:1"
         d="M 16.384711,45.177766 10.994854,30.836325"
         id="path4455-1"
         inkscape:connector-curvature="0" />
      <path
         style="fill:none;fill-rule:evenodd;stroke:#000000;stroke-width:0.47866145;stroke-linecap:butt;stroke-linejoin:miter;stroke-miterlimit:4;stroke-dasharray:none;stroke-opacity:1"
         d="M 5.9792324,15.079491 0.38058792,1.9715201"
         id="path4457-7"
         inkscape:connector-curvature="0" />
    </g>
  </g>
</svg>
