<?xml version="1.0" encoding="UTF-8" standalone="no"?>
<svg
   xmlns:dc="http://purl.org/dc/elements/1.1/"
   xmlns:cc="http://creativecommons.org/ns#"
   xmlns:rdf="http://www.w3.org/1999/02/22-rdf-syntax-ns#"
   xmlns:svg="http://www.w3.org/2000/svg"
   xmlns="http://www.w3.org/2000/svg"
   xmlns:sodipodi="http://sodipodi.sourceforge.net/DTD/sodipodi-0.dtd"
   xmlns:inkscape="http://www.inkscape.org/namespaces/inkscape"
   id="svg2"
   height="298.79996"
   overflow="visible"
   viewBox="0 0 743.79998 298.79993"
   width="743.79993"
   version="1.1"
   inkscape:version="0.91 r13725"
   sodipodi:docname="Kit_breaker_XT2_V_3_4.svg"
   style="overflow:visible">
  <metadata
     id="metadata23">
    <rdf:RDF>
      <cc:Work
         rdf:about="">
        <dc:format>image/svg+xml</dc:format>
        <dc:type
           rdf:resource="http://purl.org/dc/dcmitype/StillImage" />
        <dc:title></dc:title>
      </cc:Work>
    </rdf:RDF>
  </metadata>
  <defs
     id="defs21" />
  <sodipodi:namedview
     pagecolor="#ffffff"
     bordercolor="#666666"
     borderopacity="1"
     objecttolerance="10"
     gridtolerance="10"
     guidetolerance="10"
     inkscape:pageopacity="0"
     inkscape:pageshadow="2"
     inkscape:window-width="1920"
     inkscape:window-height="1017"
     id="namedview19"
     showgrid="false"
     inkscape:zoom="0.5"
     inkscape:cx="390.48163"
     inkscape:cy="-22.629484"
     inkscape:window-x="-8"
     inkscape:window-y="-8"
     inkscape:window-maximized="1"
     inkscape:current-layer="svg2"
     showguides="false"
     fit-margin-top="0"
     fit-margin-left="0"
     fit-margin-right="0"
     fit-margin-bottom="0" />
  <path
     style="overflow:visible;fill:#c5c7c4;fill-opacity:0.8;stroke:#999999;stroke-width:0.80000007;stroke-linejoin:miter;stroke-miterlimit:4;stroke-dasharray:none;stroke-opacity:1"
     d="M 0,0 0,298 743,298 743,0 0,0 Z m 69.5,123 124,0 0,55 -124,0 0,-55 z m 160,0 124,0 0,55 -124,0 0,-55 z m 160,0 124,0 0,55 -124,0 0,-55 z m 160,0 124,0 0,55 -124,0 0,-55 z"
     transform="translate(0,-3.0517582e-5)"
     id="FrontPanel_PVDX2807"
     inkscape:connector-curvature="0" />
  <path
     style="overflow:visible;fill:#c5c7c4;fill-opacity:0.8;stroke:#999999;stroke-width:0.80000007;stroke-linejoin:miter;stroke-miterlimit:4;stroke-dasharray:none;stroke-opacity:1"
     d="M 0,0 0,298 743,298 743,0 0,0 Z m 69.5,123 115,0 0,55 -115,0 0,-55 z m 160,0 115,0 0,55 -115,0 0,-55 z m 160,0 115,0 0,55 -115,0 0,-55 z m 160,0 115,0 0,55 -115,0 0,-55 z"
     transform="translate(0,-3.0517582e-5)"
     id="FrontPanel_PVDX2801"
     inkscape:connector-curvature="0" />
  <path
     style="overflow:visible;fill:#c5c7c4;fill-opacity:0.8;stroke:#999999;stroke-width:0.80000007;stroke-linejoin:miter;stroke-miterlimit:4;stroke-dasharray:none;stroke-opacity:1"
     d="M 0,0 0,298 543,298 543,0 0,0 Z m 49.5,95 124,0 0,83 -124,0 0,-83 z m 160,0 124,0 0,83 -124,0 0,-83 z m 160,0 124,0 0,83 -124,0 0,-83 z"
     transform="translate(0,-3.0517582e-5)"
     id="FrontPanel_PVCX2701"
     inkscape:connector-curvature="0" />
  <path
     style="overflow:visible;fill:#c5c7c4;fill-opacity:0.8;stroke:#999999;stroke-width:0.80000007;stroke-linejoin:miter;stroke-miterlimit:4;stroke-dasharray:none;stroke-opacity:1"
     d="M 0,0 0,298 543,298 543,0 0,0 Z m 49.5,95 124,0 0,83 -124,0 0,-83 z m 160,0 124,0 0,83 -124,0 0,-83 z m 160,0 124,0 0,83 -124,0 0,-83 z"
     transform="translate(0,-3.0517582e-5)"
     id="FrontPanel_PVCX2707"
     inkscape:connector-curvature="0" />
  <g
     id="SlotTL">
    <circle
       id="circle4226-6"
       cx="14.3"
       cy="49"
       r="6.25"
       style="fill:#b3b3b3;stroke:#808080" />
    <path
       id="path4228-2"
       d="m 14.375001,51.750001 a 2.730813,2.7495027 0 0 0 2.51368,-1.674469 l 3.98632,0 0,-1.869854 -3.88839,0 A 2.730813,2.7495027 0 0 0 14.375001,46.25 a 2.730813,2.7495027 0 0 0 -2.61341,1.955678 l -3.8865899,0 0,1.869854 3.9899499,0 a 2.730813,2.7495027 0 0 0 2.51005,1.674469 z"
       inkscape:connector-curvature="0"
       style="fill:#999999;stroke:#808080;stroke-opacity:0.88235294" />
  </g>
  <g
     id="SlotTR">
    <circle
       style="fill:#b3b3b3;stroke:#808080;stroke-width:1.00000012;stroke-miterlimit:4;stroke-dasharray:none"
       r="6.25"
       cy="49"
       cx="730.20001"
       id="circle6651" />
    <path
       style="fill:#999999;stroke:#808080;stroke-width:1.00000012;stroke-miterlimit:4;stroke-dasharray:none;stroke-opacity:1"
       inkscape:connector-curvature="0"
       d="m 730.09946,51.750001 a 2.730813,2.7495027 0 0 0 2.51368,-1.674469 l 3.98632,0 0,-1.869854 -3.88839,0 A 2.730813,2.7495027 0 0 0 730.09946,46.25 a 2.730813,2.7495027 0 0 0 -2.61341,1.955678 l -3.88659,0 0,1.869854 3.98995,0 a 2.730813,2.7495027 0 0 0 2.51005,1.674469 z"
       id="path6653" />
  </g>
  <g
     id="SlotBL"
     SlotBL="">
    <circle
       style="fill:#b3b3b3;stroke:#808080"
       r="6.25"
       cy="249"
       cx="14.3"
       id="circle4232" />
    <path
       style="fill:#999999;stroke:#808080;stroke-opacity:0.88235294"
       inkscape:connector-curvature="0"
       d="m 14.490117,251.75 a 2.730813,2.7495027 0 0 0 2.51368,-1.67447 l 3.98632,0 0,-1.86985 -3.88839,0 a 2.730813,2.7495027 0 0 0 -2.61161,-1.95568 2.730813,2.7495027 0 0 0 -2.61341,1.95568 l -3.8865904,0 0,1.86985 3.9899504,0 a 2.730813,2.7495027 0 0 0 2.51005,1.67447 z"
       id="path4234" />
  </g>
  <g
     id="SlotBR"
     SlotBR="">
    <circle
       style="fill:#b3b3b3;stroke:#808080"
       r="6.25"
       cy="249"
       cx="730"
       id="circle4616-7" />
    <path
       style="fill:#999999;stroke:#808080;stroke-width:1.00000012;stroke-miterlimit:4;stroke-dasharray:none;stroke-opacity:0.88235294"
       inkscape:connector-curvature="0"
       d="m 730.10754,251.75 a 2.7308125,2.7495079 0 0 0 2.51367,-1.67447 l 3.98633,0 0,-1.86985 -3.88839,0 a 2.7308125,2.7495079 0 0 0 -2.61161,-1.95568 2.7308125,2.7495079 0 0 0 -2.61342,1.95568 l -3.88658,0 0,1.86985 3.98995,0 a 2.7308125,2.7495079 0 0 0 2.51005,1.67447 z"
       id="path4618-1" />
  </g>
</svg>
