<?xml version="1.0" encoding="UTF-8" standalone="no"?>
<svg
   xmlns:dc="http://purl.org/dc/elements/1.1/"
   xmlns:cc="http://creativecommons.org/ns#"
   xmlns:rdf="http://www.w3.org/1999/02/22-rdf-syntax-ns#"
   xmlns:svg="http://www.w3.org/2000/svg"
   xmlns="http://www.w3.org/2000/svg"
   xmlns:sodipodi="http://sodipodi.sourceforge.net/DTD/sodipodi-0.dtd"
   xmlns:inkscape="http://www.inkscape.org/namespaces/inkscape"
   id="svg2"
   height="499"
   overflow="visible"
   viewBox="0 0 544.00004 498.99996"
   width="544"
   version="1.1"
   inkscape:version="0.92.4 (5da689c313, 2019-01-14)"
   sodipodi:docname="Kit_breaker_T7_H.svg"
   style="overflow:visible">
  <metadata
     id="metadata23">
    <rdf:RDF>
      <cc:Work
         rdf:about="">
        <dc:format>image/svg+xml</dc:format>
        <dc:type
           rdf:resource="http://purl.org/dc/dcmitype/StillImage" />
        <dc:title />
      </cc:Work>
    </rdf:RDF>
  </metadata>
  <defs
     id="defs21" />
  <sodipodi:namedview
     pagecolor="#ffffff"
     bordercolor="#666666"
     borderopacity="1"
     objecttolerance="10"
     gridtolerance="10"
     guidetolerance="10"
     inkscape:pageopacity="0"
     inkscape:pageshadow="2"
     inkscape:window-width="1366"
     inkscape:window-height="705"
     id="namedview19"
     showgrid="false"
     inkscape:zoom="0.5"
     inkscape:cx="89.896145"
     inkscape:cy="333.96824"
     inkscape:window-x="-8"
     inkscape:window-y="-8"
     inkscape:window-maximized="1"
     inkscape:current-layer="svg2"
     showguides="false"
     fit-margin-top="0"
     fit-margin-left="0"
     fit-margin-right="0"
     fit-margin-bottom="0" />
  <path
     id="FrontPanel_600X300_PHCT7329 "
     style="fill:#c5c7c4;fill-opacity:0.8;stroke:#999999;stroke-width:0.80000007;stroke-linejoin:miter;stroke-miterlimit:4;stroke-dasharray:none;stroke-opacity:1"
     d="m 493.5,0.5 h 50 v 298 h -50 z m -493,0 h 50 v 298 h -50 z m 50,0 v 298 h 443 V 0.5 Z M 128.69922,27 a 2,2 0 0 1 2,2 2,2 0 0 1 -2,2 2,2 0 0 1 -2,-2 2,2 0 0 1 2,-2 z m 144.5,0 a 2,2 0 0 1 2,2 2,2 0 0 1 -2,2 2,2 0 0 1 -2,-2 2,2 0 0 1 2,-2 z m 144.5,0 a 2,2 0 0 1 2,2 2,2 0 0 1 -2,2 2,2 0 0 1 -2,-2 2,2 0 0 1 2,-2 z m -255.29883,9.5 h 263 v 226 h -263 z m -33.70117,111 a 2,2 0 0 1 2,2 2,2 0 0 1 -2,2 2,2 0 0 1 -2,-2 2,2 0 0 1 2,-2 z m 0,120.5 a 2,2 0 0 1 2,2 2,2 0 0 1 -2,2 2,2 0 0 1 -2,-2 2,2 0 0 1 2,-2 z m 144.5,0 a 2,2 0 0 1 2,2 2,2 0 0 1 -2,2 2,2 0 0 1 -2,-2 2,2 0 0 1 2,-2 z m 144.5,0 a 2,2 0 0 1 2,2 2,2 0 0 1 -2,2 2,2 0 0 1 -2,-2 2,2 0 0 1 2,-2 z"
     inkscape:connector-curvature="0" />
  <path
     id="FrontPanel_600X400_PHCT7418"
     style="fill:#c5c7c4;fill-opacity:0.8;stroke:#999999;stroke-width:0.80000007;stroke-linejoin:miter;stroke-miterlimit:4;stroke-dasharray:none;stroke-opacity:1"
     d="m 493.5,0.5 h 50 v 398 h -50 z M 0.50000004,0.5 H 50.5 v 398 H 0.50000004 Z M 50.5,0.5 v 398 h 443 V 0.5 Z M 128.69922,112 a 2,2 0 0 1 2,2 2,2 0 0 1 -2,2 2,2 0 0 1 -2,-2 2,2 0 0 1 2,-2 z M 272,112 a 2,2 0 0 1 2,2 2,2 0 0 1 -2,2 2,2 0 0 1 -2,-2 2,2 0 0 1 2,-2 z m 144.5,0 a 2,2 0 0 1 2,2 2,2 0 0 1 -2,2 2,2 0 0 1 -2,-2 2,2 0 0 1 2,-2 z m -255.30078,9.5 h 263 v 226 h -263 z m -32.5,111 a 2,2 0 0 1 2,2 2,2 0 0 1 -2,2 2,2 0 0 1 -2,-2 2,2 0 0 1 2,-2 z m 0,120.5 a 2,2 0 0 1 2,2 2,2 0 0 1 -2,2 2,2 0 0 1 -2,-2 2,2 0 0 1 2,-2 z M 272,353 a 2,2 0 0 1 2,2 2,2 0 0 1 -2,2 2,2 0 0 1 -2,-2 2,2 0 0 1 2,-2 z m 144.5,0 a 2,2 0 0 1 2,2 2,2 0 0 1 -2,2 2,2 0 0 1 -2,-2 2,2 0 0 1 2,-2 z"
     inkscape:connector-curvature="0" />
  <path
     id="FrontPanel_600X350_PHCT7420"
     style="fill:#c5c7c4;fill-opacity:0.8;stroke:#999999;stroke-width:0.80000007;stroke-linejoin:miter;stroke-miterlimit:4;stroke-dasharray:none;stroke-opacity:1"
     d="m 493.5,0.5 h 50 v 348 h -50 z m -493,0 h 50 v 348 h -50 z m 50,0 v 348 h 443 V 0.5 Z m 77,86.5 a 2,2 0 0 1 2,2 2,2 0 0 1 -2,2 2,2 0 0 1 -2,-2 2,2 0 0 1 2,-2 z M 272,87 a 2,2 0 0 1 2,2 2,2 0 0 1 -2,2 2,2 0 0 1 -2,-2 2,2 0 0 1 2,-2 z m 144.5,0 a 2,2 0 0 1 2,2 2,2 0 0 1 -2,2 2,2 0 0 1 -2,-2 2,2 0 0 1 2,-2 z m -255.30078,9.5 h 263 v 226 h -263 z M 127.5,207.5 a 2,2 0 0 1 2,2 2,2 0 0 1 -2,2 2,2 0 0 1 -2,-2 2,2 0 0 1 2,-2 z m 0,120.5 a 2,2 0 0 1 2,2 2,2 0 0 1 -2,2 2,2 0 0 1 -2,-2 2,2 0 0 1 2,-2 z m 144.5,0 a 2,2 0 0 1 2,2 2,2 0 0 1 -2,2 2,2 0 0 1 -2,-2 2,2 0 0 1 2,-2 z m 144.5,0 a 2,2 0 0 1 2,2 2,2 0 0 1 -2,2 2,2 0 0 1 -2,-2 2,2 0 0 1 2,-2 z"
     inkscape:connector-curvature="0" />
  <path
     id="FrontPanel_600X500_PHCT7430"
     style="fill:#c5c7c4;fill-opacity:0.8;stroke:#999999;stroke-width:0.80000007;stroke-linejoin:miter;stroke-miterlimit:4;stroke-dasharray:none;stroke-opacity:1"
     d="m 493.4,0.59999996 h 50 V 498.6 h -50 z m -492.99999996,0 H 50.4 V 498.6 H 0.40000004 Z m 49.99999996,0 V 498.6 h 443 V 0.59999996 Z M 94.9,26.6 a 2,2 0 0 1 2,1.999998 2,2 0 0 1 -2,2 2,2 0 0 1 -2,-2 2,2 0 0 1 2,-1.999998 z m 162,0 a 2,2 0 0 1 2,1.999998 2,2 0 0 1 -2,2 2,2 0 0 1 -2,-2 2,2 0 0 1 2,-1.999998 z m 160.69922,0 a 2,2 0 0 1 2,1.999998 2,2 0 0 1 -2,2 2,2 0 0 1 -2,-2 2,2 0 0 1 2,-1.999998 z m -289,16.499998 h 256.5 V 321.6 h -256.5 z M 94.9,180.35 a 2,2 0 0 1 2,2 2,2 0 0 1 -2,2 2,2 0 0 1 -2,-2 2,2 0 0 1 2,-2 z m 322.69922,0 a 2,2 0 0 1 2,2 2,2 0 0 1 -2,2 2,2 0 0 1 -2,-2 2,2 0 0 1 2,-2 z M 94.9,334.1 a 2,2 0 0 1 2,2 2,2 0 0 1 -2,2 2,2 0 0 1 -2,-2 2,2 0 0 1 2,-2 z m 162,0 a 2,2 0 0 1 2,2 2,2 0 0 1 -2,2 2,2 0 0 1 -2,-2 2,2 0 0 1 2,-2 z m 160.69922,0 a 2,2 0 0 1 2,2 2,2 0 0 1 -2,2 2,2 0 0 1 -2,-2 2,2 0 0 1 2,-2 z"
     inkscape:connector-curvature="0" />
  <g
     id="SlotBR">
    <circle
       id="circle22"
       cx="528.70001"
       cy="451"
       r="6.25"
       style="fill:#b3b3b3;stroke:#808080" />
    <path
       id="path24"
       d="m 528.70001,453.75 a 2.7308125,2.7495079 0 0 0 2.51367,-1.67447 h 3.98633 v -1.86985 h -3.88839 a 2.7308125,2.7495079 0 0 0 -2.61161,-1.95568 2.7308125,2.7495079 0 0 0 -2.61342,1.95568 h -3.88658 v 1.86985 h 3.98995 a 2.7308125,2.7495079 0 0 0 2.51005,1.67447 z"
       inkscape:connector-curvature="0"
       style="fill:#999999;stroke:#808080;stroke-width:1.00000012;stroke-miterlimit:4;stroke-dasharray:none;stroke-opacity:0.88235294" />
  </g>
  <g
     id="SlotBL">
    <circle
       style="fill:#b3b3b3;stroke:#808080"
       r="6.25"
       cy="451"
       cx="14.3"
       id="circle36" />
    <path
       style="fill:#999999;stroke:#808080;stroke-width:1.00000012;stroke-miterlimit:4;stroke-dasharray:none;stroke-opacity:0.88235294"
       inkscape:connector-curvature="0"
       d="m 14.3,453.75 a 2.7308125,2.7495079 0 0 0 2.51367,-1.67447 H 20.8 v -1.86985 H 16.91161 A 2.7308125,2.7495079 0 0 0 14.3,448.25 2.7308125,2.7495079 0 0 0 11.68658,450.20568 H 7.8000002 v 1.86985 H 11.78995 A 2.7308125,2.7495079 0 0 0 14.3,453.75 Z"
       id="path38" />
  </g>
  <g
     id="SlotTL">
    <circle
       id="circle48"
       cx="14.3"
       cy="49"
       r="6.25"
       style="fill:#b3b3b3;stroke:#808080" />
    <path
       id="path50"
       d="m 14.3,51.75 a 2.7308125,2.7495079 0 0 0 2.51367,-1.67447 H 20.8 V 48.20568 H 16.91161 A 2.7308125,2.7495079 0 0 0 14.3,46.25 2.7308125,2.7495079 0 0 0 11.68658,48.20568 H 7.8000002 v 1.86985 H 11.78995 A 2.7308125,2.7495079 0 0 0 14.3,51.75 Z"
       inkscape:connector-curvature="0"
       style="fill:#999999;stroke:#808080;stroke-width:1.00000012;stroke-miterlimit:4;stroke-dasharray:none;stroke-opacity:0.88235294" />
  </g>
  <g
     id="SlotTR">
    <circle
       style="fill:#b3b3b3;stroke:#808080"
       r="6.25"
       cy="49"
       cx="528.70001"
       id="circle54" />
    <path
       style="fill:#999999;stroke:#808080;stroke-width:1.00000012;stroke-miterlimit:4;stroke-dasharray:none;stroke-opacity:0.88235294"
       inkscape:connector-curvature="0"
       d="m 528.70001,51.75 a 2.7308125,2.7495079 0 0 0 2.51367,-1.67447 h 3.98633 v -1.86985 h -3.88839 a 2.7308125,2.7495079 0 0 0 -2.61161,-1.95568 2.7308125,2.7495079 0 0 0 -2.61342,1.95568 h -3.88658 v 1.86985 h 3.98995 a 2.7308125,2.7495079 0 0 0 2.51005,1.67447 z"
       id="path56" />
  </g>
</svg>
