<?xml version="1.0" encoding="UTF-8" standalone="no"?>
<svg
   xmlns:dc="http://purl.org/dc/elements/1.1/"
   xmlns:cc="http://creativecommons.org/ns#"
   xmlns:rdf="http://www.w3.org/1999/02/22-rdf-syntax-ns#"
   xmlns:svg="http://www.w3.org/2000/svg"
   xmlns="http://www.w3.org/2000/svg"
   xmlns:sodipodi="http://sodipodi.sourceforge.net/DTD/sodipodi-0.dtd"
   xmlns:inkscape="http://www.inkscape.org/namespaces/inkscape"
   id="svg2"
   height="498.79999"
   overflow="visible"
   viewBox="0 0 743.80004 498.79995"
   width="743.79999"
   version="1.1"
   inkscape:version="0.92.4 (5da689c313, 2019-01-14)"
   sodipodi:docname="Kit_breaker_T7_V.svg"
   style="overflow:visible">
  <metadata
     id="metadata23">
    <rdf:RDF>
      <cc:Work
         rdf:about="">
        <dc:format>image/svg+xml</dc:format>
        <dc:type
           rdf:resource="http://purl.org/dc/dcmitype/StillImage" />
        <dc:title />
      </cc:Work>
    </rdf:RDF>
  </metadata>
  <defs
     id="defs21" />
  <sodipodi:namedview
     pagecolor="#ffffff"
     bordercolor="#666666"
     borderopacity="1"
     objecttolerance="10"
     gridtolerance="10"
     guidetolerance="10"
     inkscape:pageopacity="0"
     inkscape:pageshadow="2"
     inkscape:window-width="1366"
     inkscape:window-height="705"
     id="namedview19"
     showgrid="false"
     inkscape:zoom="0.70710678"
     inkscape:cx="322.62721"
     inkscape:cy="259.81835"
     inkscape:window-x="-8"
     inkscape:window-y="-8"
     inkscape:window-maximized="1"
     inkscape:current-layer="svg2"
     showguides="false"
     fit-margin-top="0"
     fit-margin-left="0"
     fit-margin-right="0"
     fit-margin-bottom="0" />
  <path
     style="fill:#c5c7c4;fill-opacity:0.8;stroke:#999999;stroke-width:0.80000007;stroke-linejoin:miter;stroke-miterlimit:4;stroke-dasharray:none;stroke-opacity:1"
     d="M 0,0 V 498 H 743 V 0 Z m 241.5,64.800781 a 2,2 0 0 1 2,2 2,2 0 0 1 -2,2 2,2 0 0 1 -2,-2 2,2 0 0 1 2,-2 z m 153.75,0 a 2,2 0 0 1 2,2 2,2 0 0 1 -2,2 2,2 0 0 1 -2,-2 2,2 0 0 1 2,-2 z m 153.75,0 a 2,2 0 0 1 2,2 2,2 0 0 1 -2,2 2,2 0 0 1 -2,-2 2,2 0 0 1 2,-2 z m -293,34.5 H 534.5 V 361.30078 H 256 Z M 241.5,231 a 2,2 0 0 1 2,2 2,2 0 0 1 -2,2 2,2 0 0 1 -2,-2 2,2 0 0 1 2,-2 z m 307.5,0 a 2,2 0 0 1 2,2 2,2 0 0 1 -2,2 2,2 0 0 1 -2,-2 2,2 0 0 1 2,-2 z M 241.5,391.80078 a 2,2 0 0 1 2,2 2,2 0 0 1 -2,2 2,2 0 0 1 -2,-2 2,2 0 0 1 2,-2 z m 153.75,0 a 2,2 0 0 1 2,2 2,2 0 0 1 -2,2 2,2 0 0 1 -2,-2 2,2 0 0 1 2,-2 z m 153.75,0 a 2,2 0 0 1 2,2 2,2 0 0 1 -2,2 2,2 0 0 1 -2,-2 2,2 0 0 1 2,-2 z"
     id="Frontpanel_800X500_PVDT7413 "
     inkscape:connector-curvature="0" />
  <path
     id="Frontpanel_600X450_PVCT7419  "
     style="fill:#c5c7c4;fill-opacity:0.8;stroke:#999999;stroke-width:0.80000007;stroke-linejoin:miter;stroke-miterlimit:4;stroke-dasharray:none;stroke-opacity:1"
     d="M 0,0 H 50 V 448 H 0 Z M 50,0 V 448 H 493 V 0 Z m 144.69922,73 h 226 v 263 h -226 z M 186,77.5 a 2,2 0 0 1 2,2 2,2 0 0 1 -2,2 2,2 0 0 1 -2,-2 2,2 0 0 1 2,-2 z m 242.19922,0 a 2,2 0 0 1 2,2 2,2 0 0 1 -2,2 2,2 0 0 1 -2,-2 2,2 0 0 1 2,-2 z m -241,144.5 a 2,2 0 0 1 2,2 2,2 0 0 1 -2,2 2,2 0 0 1 -2,-2 2,2 0 0 1 2,-2 z m 241,0 a 2,2 0 0 1 2,2 2,2 0 0 1 -2,2 2,2 0 0 1 -2,-2 2,2 0 0 1 2,-2 z m -241,144 a 2,2 0 0 1 2,2 2,2 0 0 1 -2,2 2,2 0 0 1 -2,-2 2,2 0 0 1 2,-2 z M 306.5,366.5 a 2,2 0 0 1 2,2 2,2 0 0 1 -2,2 2,2 0 0 1 -2,-2 2,2 0 0 1 2,-2 z m 121.69922,0 a 2,2 0 0 1 2,2 2,2 0 0 1 -2,2 2,2 0 0 1 -2,-2 2,2 0 0 1 2,-2 z M 493,0 h 50 v 448 h -50 z"
     inkscape:connector-curvature="0" />
  <path
     id="Frontpanel_800X450_PVDT7419  "
     style="fill:#c5c7c4;fill-opacity:0.8;stroke:#999999;stroke-width:0.80000007;stroke-linejoin:miter;stroke-miterlimit:4;stroke-dasharray:none;stroke-opacity:1"
     d="M 0,0 H 50 V 448 H 0 Z M 50,0 V 448 H 693 V 0 Z m 244.69922,73 h 226 v 263 h -226 z m -7.5,3.300781 a 2,2 0 0 1 2,2 2,2 0 0 1 -2,2 2,2 0 0 1 -2,-2 2,2 0 0 1 2,-2 z m 241,0 a 2,2 0 0 1 2,2 2,2 0 0 1 -2,2 2,2 0 0 1 -2,-2 2,2 0 0 1 2,-2 z m -241,144.499999 a 2,2 0 0 1 2,2 2,2 0 0 1 -2,2 2,2 0 0 1 -2,-2 2,2 0 0 1 2,-2 z m 241,0 a 2,2 0 0 1 2,2 2,2 0 0 1 -2,2 2,2 0 0 1 -2,-2 2,2 0 0 1 2,-2 z m -241,144.5 a 2,2 0 0 1 2,2 2,2 0 0 1 -2,2 2,2 0 0 1 -2,-2 2,2 0 0 1 2,-2 z m 120.5,0 a 2,2 0 0 1 2,2 2,2 0 0 1 -2,2 2,2 0 0 1 -2,-2 2,2 0 0 1 2,-2 z m 120.5,0 a 2,2 0 0 1 2,2 2,2 0 0 1 -2,2 2,2 0 0 1 -2,-2 2,2 0 0 1 2,-2 z M 693,0 h 50 v 448 h -50 z"
     inkscape:connector-curvature="0" />
  <path
     style="fill:#c5c7c4;fill-opacity:0.8;stroke:#999999;stroke-width:0.80000007;stroke-linejoin:miter;stroke-miterlimit:4;stroke-dasharray:none;stroke-opacity:1"
     d="M 0,0 V 498 H 543 V 0 Z m 141.5,64.800781 a 2,2 0 0 1 2,2 2,2 0 0 1 -2,2 2,2 0 0 1 -2,-2 2,2 0 0 1 2,-2 z m 153.75,0 a 2,2 0 0 1 2,2 2,2 0 0 1 -2,2 2,2 0 0 1 -2,-2 2,2 0 0 1 2,-2 z m 137.25,0 a 2,2 0 0 1 2,2 2,2 0 0 1 -2,2 2,2 0 0 1 -2,-2 2,2 0 0 1 2,-2 z M 156,99.5 H 418 V 378 H 156 Z M 141.5,231 a 2,2 0 0 1 2,2 2,2 0 0 1 -2,2 2,2 0 0 1 -2,-2 2,2 0 0 1 2,-2 z m 291,0 a 2,2 0 0 1 2,2 2,2 0 0 1 -2,2 2,2 0 0 1 -2,-2 2,2 0 0 1 2,-2 z m -291,160.80078 a 2,2 0 0 1 2,2 2,2 0 0 1 -2,2 2,2 0 0 1 -2,-2 2,2 0 0 1 2,-2 z m 153.75,0 a 2,2 0 0 1 2,2 2,2 0 0 1 -2,2 2,2 0 0 1 -2,-2 2,2 0 0 1 2,-2 z m 137.25,0 a 2,2 0 0 1 2,2 2,2 0 0 1 -2,2 2,2 0 0 1 -2,-2 2,2 0 0 1 2,-2 z"
     id="Frontpanel_600X500_PVCT7413"
     inkscape:connector-curvature="0" />
  <g
     id="SlotTR">
    <circle
       style="fill:#b3b3b3;stroke:#808080"
       r="6.25"
       cy="49"
       cx="728.70001"
       id="circle171" />
    <path
       style="fill:#999999;stroke:#808080;stroke-opacity:0.88235294"
       inkscape:connector-curvature="0"
       d="m 728.70001,51.75 a 2.730813,2.7495027 0 0 0 2.51368,-1.67447 h 3.98632 v -1.86985 h -3.88839 A 2.730813,2.7495027 0 0 0 728.70001,46.25 2.730813,2.7495027 0 0 0 726.0866,48.20568 h -3.88659 v 1.86985 h 3.98995 a 2.730813,2.7495027 0 0 0 2.51005,1.67447 z"
       id="path173" />
  </g>
  <g
     id="SlotBR">
    <circle
       id="circle177"
       cx="728.70001"
       cy="449"
       r="6.25"
       style="fill:#b3b3b3;stroke:#808080" />
    <path
       id="path179"
       d="m 728.70001,451.75 a 2.730813,2.7495027 0 0 0 2.51368,-1.67447 h 3.98632 v -1.86985 h -3.88839 a 2.730813,2.7495027 0 0 0 -2.61161,-1.95568 2.730813,2.7495027 0 0 0 -2.61341,1.95568 h -3.88659 v 1.86985 h 3.98995 a 2.730813,2.7495027 0 0 0 2.51005,1.67447 z"
       inkscape:connector-curvature="0"
       style="fill:#999999;stroke:#808080;stroke-opacity:0.88235294" />
  </g>
  <g
     id="SlotTL">
    <circle
       id="circle22"
       cx="14.3"
       cy="49"
       r="6.25"
       style="fill:#b3b3b3;stroke:#808080" />
    <path
       id="path24"
       d="m 14.3,51.75 a 2.730813,2.7495027 0 0 0 2.51368,-1.67447 H 20.8 V 48.20568 H 16.91161 A 2.730813,2.7495027 0 0 0 14.3,46.25 2.730813,2.7495027 0 0 0 11.68659,48.20568 H 7.8000002 v 1.86985 H 11.78995 A 2.730813,2.7495027 0 0 0 14.3,51.75 Z"
       inkscape:connector-curvature="0"
       style="fill:#999999;stroke:#808080;stroke-opacity:0.88235294" />
  </g>
  <g
     id="SlotBL">
    <circle
       style="fill:#b3b3b3;stroke:#808080"
       r="6.25"
       cy="449"
       cx="14.3"
       id="circle34" />
    <path
       style="fill:#999999;stroke:#808080;stroke-opacity:0.88235294"
       inkscape:connector-curvature="0"
       d="m 14.3,451.75 a 2.730813,2.7495027 0 0 0 2.51368,-1.67447 H 20.8 v -1.86985 H 16.91161 A 2.730813,2.7495027 0 0 0 14.3,446.25 2.730813,2.7495027 0 0 0 11.68659,448.20568 H 7.8000002 v 1.86985 H 11.78995 A 2.730813,2.7495027 0 0 0 14.3,451.75 Z"
       id="path36" />
  </g>
</svg>
