<?xml version="1.0" encoding="UTF-8" standalone="no"?>
<svg
   xmlns:dc="http://purl.org/dc/elements/1.1/"
   xmlns:cc="http://creativecommons.org/ns#"
   xmlns:rdf="http://www.w3.org/1999/02/22-rdf-syntax-ns#"
   xmlns:svg="http://www.w3.org/2000/svg"
   xmlns="http://www.w3.org/2000/svg"
   xmlns:sodipodi="http://sodipodi.sourceforge.net/DTD/sodipodi-0.dtd"
   xmlns:inkscape="http://www.inkscape.org/namespaces/inkscape"
   id="svg2"
   height="248.8"
   overflow="visible"
   viewBox="0 0 743.80004 248.79998"
   width="743.79999"
   version="1.1"
   inkscape:version="0.91 r13725"
   sodipodi:docname="Kit_breaker_T5_H_1_630.svg"
   style="overflow:visible">
  <metadata
     id="metadata23">
    <rdf:RDF>
      <cc:Work
         rdf:about="">
        <dc:format>image/svg+xml</dc:format>
        <dc:type
           rdf:resource="http://purl.org/dc/dcmitype/StillImage" />
        <dc:title />
      </cc:Work>
    </rdf:RDF>
  </metadata>
  <defs
     id="defs21" />
  <sodipodi:namedview
     pagecolor="#ffffff"
     bordercolor="#666666"
     borderopacity="1"
     objecttolerance="10"
     gridtolerance="10"
     guidetolerance="10"
     inkscape:pageopacity="0"
     inkscape:pageshadow="2"
     inkscape:window-width="1280"
     inkscape:window-height="961"
     id="namedview19"
     showgrid="false"
     inkscape:zoom="0.70710678"
     inkscape:cx="165.31029"
     inkscape:cy="95.745038"
     inkscape:window-x="-8"
     inkscape:window-y="-8"
     inkscape:window-maximized="1"
     inkscape:current-layer="svg2"
     showguides="false"
     fit-margin-top="0"
     fit-margin-left="0"
     fit-margin-right="0"
     fit-margin-bottom="0" />
  <g
     id="T5_H_1">
    <path
       style="fill:#c5c7c4;fill-opacity:0.8;stroke:#999999;stroke-width:0.80000007;stroke-linejoin:miter;stroke-miterlimit:4;stroke-dasharray:none;stroke-opacity:1"
       d="M 0,0 V 248 H 743 V 0 Z m 321,43.5 h 115 v 115 H 321 Z"
       id="FrontPanel_800X250_PHDT5406"
       inkscape:connector-curvature="0" />
    <path
       style="fill:#c5c7c4;fill-opacity:0.8;stroke:#999999;stroke-width:0.80000007;stroke-linejoin:miter;stroke-miterlimit:4;stroke-dasharray:none;stroke-opacity:1"
       d="m 0,0 0,248 743,0 0,-248 z m 321,43.5 115,0 0,115 -115,0 z"
       id="FrontPanel_800X250_PHDT5404"
       inkscape:connector-curvature="0" />
    <path
       style="fill:#c5c7c4;fill-opacity:0.8;stroke:#999999;stroke-width:0.80000007;stroke-linejoin:miter;stroke-miterlimit:4;stroke-dasharray:none;stroke-opacity:1"
       d="m 0,0 0,248 743,0 0,-248 z m 321,43.5 115,0 0,115 -115,0 z"
       id="FrontPanel_800X250_PHDT5423"
       inkscape:connector-curvature="0" />
    <path
       style="fill:#c5c7c4;fill-opacity:0.8;stroke:#999999;stroke-width:0.80000007;stroke-linejoin:miter;stroke-miterlimit:4;stroke-dasharray:none;stroke-opacity:1"
       d="m 0,0 0,248 743,0 0,-248 z m 321,43.5 115,0 0,115 -115,0 z"
       id="FrontPanel_800X250_PHDT5407"
       inkscape:connector-curvature="0" />
    <path
       style="fill:#c5c7c4;fill-opacity:0.8;stroke:#999999;stroke-width:0.80000007;stroke-linejoin:miter;stroke-miterlimit:4;stroke-dasharray:none;stroke-opacity:1"
       d="m 0,0 0,248 743,0 0,-248 z m 321,43.5 115,0 0,115 -115,0 z"
       id="FrontPanel_800X250_PHDT5428"
       inkscape:connector-curvature="0" />
    <path
       style="fill:#c5c7c4;fill-opacity:0.8;stroke:#999999;stroke-width:0.80000007;stroke-linejoin:miter;stroke-miterlimit:4;stroke-dasharray:none;stroke-opacity:1"
       d="m 0,0 0,248 543,0 0,-248 z m 221,43.5 115,0 0,115 -115,0 z"
       id="FrontPanel_600X250_PHCT5427"
       inkscape:connector-curvature="0" />
    <path
       style="fill:#c5c7c4;fill-opacity:0.8;stroke:#999999;stroke-width:0.80000007;stroke-linejoin:miter;stroke-miterlimit:4;stroke-dasharray:none;stroke-opacity:1"
       d="m 0,0 0,248 543,0 0,-248 z m 221,43.5 115,0 0,115 -115,0 z"
       id="FrontPanel_600X250_PHCT5407"
       inkscape:connector-curvature="0" />
    <path
       style="fill:#c5c7c4;fill-opacity:0.8;stroke:#999999;stroke-width:0.80000007;stroke-linejoin:miter;stroke-miterlimit:4;stroke-dasharray:none;stroke-opacity:1"
       d="m 0,0 0,248 543,0 0,-248 z m 221,43.5 115,0 0,115 -115,0 z"
       id="FrontPanel_600X250_PHCT5406"
       inkscape:connector-curvature="0" />
    <path
       style="fill:#c5c7c4;fill-opacity:0.8;stroke:#999999;stroke-width:0.80000007;stroke-linejoin:miter;stroke-miterlimit:4;stroke-dasharray:none;stroke-opacity:1"
       d="m 0,0 0,248 543,0 0,-248 z m 221,43.5 115,0 0,115 -115,0 z"
       id="FrontPanel_600X250_PHCT5404"
       inkscape:connector-curvature="0" />
    <path
       style="fill:#c5c7c4;fill-opacity:0.8;stroke:#999999;stroke-width:0.80000007;stroke-linejoin:miter;stroke-miterlimit:4;stroke-dasharray:none;stroke-opacity:1"
       d="m 0,0 0,248 543,0 0,-248 z m 221,43.5 115,0 0,115 -115,0 z"
       id="FrontPanel_600X250_PHCT5423"
       inkscape:connector-curvature="0" />
    <path
       style="fill:#c5c7c4;fill-opacity:0.8;stroke:#999999;stroke-width:0.80000007;stroke-linejoin:miter;stroke-miterlimit:4;stroke-dasharray:none;stroke-opacity:1"
       d="m 0,0 0,248 343,0 0,-248 z m 121,43.5 115,0 0,115 -115,0 z"
       id="FrontPanel_400X250_PHBT5406"
       inkscape:connector-curvature="0" />
    <path
       style="fill:#c5c7c4;fill-opacity:0.8;stroke:#999999;stroke-width:0.80000007;stroke-linejoin:miter;stroke-miterlimit:4;stroke-dasharray:none;stroke-opacity:1"
       d="m 0,0 0,248 343,0 0,-248 z m 121,43.5 115,0 0,115 -115,0 z"
       id="FrontPanel_400X250_PHBT5404"
       inkscape:connector-curvature="0" />
    <path
       style="fill:#c5c7c4;fill-opacity:0.8;stroke:#999999;stroke-width:0.80000007;stroke-linejoin:miter;stroke-miterlimit:4;stroke-dasharray:none;stroke-opacity:1"
       d="m 0,0 0,198 343,0 0,-198 z m 121,41.5 115,0 0,115 -115,0 z"
       id="FrontPanel_400X200_PHBT5306"
       inkscape:connector-curvature="0" />
    <path
       style="fill:#c5c7c4;fill-opacity:0.8;stroke:#999999;stroke-width:0.80000007;stroke-linejoin:miter;stroke-miterlimit:4;stroke-dasharray:none;stroke-opacity:1"
       d="m 0,0 0,198 343,0 0,-198 z m 121,41.5 115,0 0,115 -115,0 z"
       id="FrontPanel_400X200_PHBT5304"
       inkscape:connector-curvature="0" />
    <path
       style="fill:#c5c7c4;fill-opacity:0.8;stroke:#999999;stroke-width:0.80000007;stroke-linejoin:miter;stroke-miterlimit:4;stroke-dasharray:none;stroke-opacity:1"
       d="m 0,0 0,198 543,0 0,-198 z m 221,41.5 115,0 0,115 -115,0 z"
       id="FrontPanel_600X200_PHCT5306"
       inkscape:connector-curvature="0" />
    <path
       style="fill:#c5c7c4;fill-opacity:0.8;stroke:#999999;stroke-width:0.80000007;stroke-linejoin:miter;stroke-miterlimit:4;stroke-dasharray:none;stroke-opacity:1"
       d="m 0,0 0,198 543,0 0,-198 z m 221,41.5 115,0 0,115 -115,0 z"
       id="FrontPanel_600X200_PHCT5304"
       inkscape:connector-curvature="0" />
    <path
       style="fill:#c5c7c4;fill-opacity:0.8;stroke:#999999;stroke-width:0.80000007;stroke-linejoin:miter;stroke-miterlimit:4;stroke-dasharray:none;stroke-opacity:1"
       d="m 0,0 0,198 743,0 0,-198 z m 321,41.5 115,0 0,115 -115,0 z"
       id="FrontPanel_800X200_PHDT5306"
       inkscape:connector-curvature="0" />
    <path
       style="fill:#c5c7c4;fill-opacity:0.8;stroke:#999999;stroke-width:0.80000007;stroke-linejoin:miter;stroke-miterlimit:4;stroke-dasharray:none;stroke-opacity:1"
       d="m 0,0 0,198 743,0 0,-198 z m 321,41.5 115,0 0,115 -115,0 z"
       id="FrontPanel_800X200_PHDT5304"
       inkscape:connector-curvature="0" />
    <g
       id="SlotBR">
      <circle
         style="fill:#b3b3b3;stroke:#808080"
         r="6.25"
         cy="199.02"
         cx="728.75"
         id="circle4616" />
      <path
         style="fill:#999999;stroke:#808080;stroke-width:1.00000012;stroke-miterlimit:4;stroke-dasharray:none;stroke-opacity:0.88235294"
         inkscape:connector-curvature="0"
         d="m 728.75,201.77 a 2.7308125,2.7495079 0 0 0 2.51367,-1.67447 H 735.25 v -1.86985 h -3.88839 A 2.7308125,2.7495079 0 0 0 728.75,196.27 a 2.7308125,2.7495079 0 0 0 -2.61342,1.95568 H 722.25 v 1.86985 h 3.98995 A 2.7308125,2.7495079 0 0 0 728.75,201.77 Z"
         id="path4618" />
    </g>
    <g
       id="SlotTR">
      <circle
         style="fill:#b3b3b3;stroke:#808080;stroke-width:1.00000012;stroke-miterlimit:4;stroke-dasharray:none"
         r="6.25"
         cy="49.299999"
         cx="728.75"
         id="circle6651" />
      <path
         style="fill:#999999;stroke:#808080;stroke-width:1.00000012;stroke-miterlimit:4;stroke-dasharray:none;stroke-opacity:1"
         inkscape:connector-curvature="0"
         d="m 728.75,52.05 a 2.730813,2.7495027 0 0 0 2.51368,-1.674469 H 735.25 v -1.869854 h -3.88839 A 2.730813,2.7495027 0 0 0 728.75,46.549999 2.730813,2.7495027 0 0 0 726.13659,48.505677 H 722.25 v 1.869854 h 3.98995 A 2.730813,2.7495027 0 0 0 728.75,52.05 Z"
         id="path6653" />
    </g>
    <g
       id="SlotTL">
      <circle
         id="circle4226"
         cx="15.4"
         cy="49.299999"
         r="6.25"
         style="fill:#b3b3b3;stroke:#808080" />
      <path
         id="path4228"
         d="m 15.399999,52.05 a 2.730813,2.7495027 0 0 0 2.51368,-1.674469 h 3.98632 v -1.869854 h -3.88839 a 2.730813,2.7495027 0 0 0 -2.61161,-1.955678 2.730813,2.7495027 0 0 0 -2.61341,1.955678 H 8.8999998 v 1.869854 H 12.889949 A 2.730813,2.7495027 0 0 0 15.399999,52.05 Z"
         inkscape:connector-curvature="0"
         style="fill:#999999;stroke:#808080;stroke-opacity:0.88235294" />
    </g>
    <g
       id="SlotBL">
      <circle
         style="fill:#b3b3b3;stroke:#808080"
         r="6.25"
         cy="199.02"
         cx="15.4"
         id="circle4232" />
      <path
         style="fill:#999999;stroke:#808080;stroke-opacity:0.88235294"
         inkscape:connector-curvature="0"
         d="m 15.4,201.77 a 2.730813,2.7495027 0 0 0 2.51368,-1.67447 H 21.9 v -1.86985 H 18.01161 A 2.730813,2.7495027 0 0 0 15.4,196.27 2.730813,2.7495027 0 0 0 12.78659,198.22568 H 8.8999996 v 1.86985 H 12.88995 A 2.730813,2.7495027 0 0 0 15.4,201.77 Z"
         id="path4234" />
    </g>
  </g>
</svg>
