<svg id="svg2" height="348.79996" viewBox="0 0 743.79998 348.79993" width="743.79993" xmlns="http://www.w3.org/2000/svg"><path id="FrontPanel_800X350_PVDT5610" d="m0 0v348h743v-348zm149.90039 109.40039h116v69.5h26.66992a8.9990038 9.0458782 0 0 1 .79883-.043 8.9990038 9.0458782 0 0 1 8.99805 9.04688 8.9990038 9.0458782 0 0 1 -8.99805 9.04492 8.9990038 9.0458782 0 0 1 -.92383-.0488h-26.54492v29h-116zm374.70703 0h116v69.5h26.66992a8.9990048 9.0458798 0 0 1 .79883-.043 8.9990048 9.0458798 0 0 1 8.99805 9.04688 8.9990048 9.0458798 0 0 1 -8.99805 9.04492 8.9990048 9.0458798 0 0 1 -.92383-.0488h-26.54492v29h-116z" fill="#c5c7c4" fill-opacity=".8" stroke="#999" stroke-width=".8" transform="translate(0 -.000031)"/><path id="FrontPanel_800X350_PVDT5610_VF" d="m0 0v348h743v-348zm149.90039 109.40039h116v69.5h26.66992a8.9990038 9.0458782 0 0 1 .79883-.043 8.9990038 9.0458782 0 0 1 8.99805 9.04688 8.9990038 9.0458782 0 0 1 -8.99805 9.04492 8.9990038 9.0458782 0 0 1 -.92383-.0488h-26.54492v29h-116zm374.70703 0h116v69.5h26.66992a8.9990048 9.0458798 0 0 1 .79883-.043 8.9990048 9.0458798 0 0 1 8.99805 9.04688 8.9990048 9.0458798 0 0 1 -8.99805 9.04492 8.9990048 9.0458798 0 0 1 -.92383-.0488h-26.54492v29h-116z" fill="#c5c7c4" fill-opacity=".8" stroke="#999" stroke-width=".8" transform="translate(0 -.000031)"/><path id="FrontPanel_800X350_PVDT5610_R650" d="m0 0v348h743v-348zm149.90039 109.40039h116v69.5h26.66992a8.9990038 9.0458782 0 0 1 .79883-.043 8.9990038 9.0458782 0 0 1 8.99805 9.04688 8.9990038 9.0458782 0 0 1 -8.99805 9.04492 8.9990038 9.0458782 0 0 1 -.92383-.0488h-26.54492v29h-116zm374.70703 0h116v69.5h26.66992a8.9990048 9.0458798 0 0 1 .79883-.043 8.9990048 9.0458798 0 0 1 8.99805 9.04688 8.9990048 9.0458798 0 0 1 -8.99805 9.04492 8.9990048 9.0458798 0 0 1 -.92383-.0488h-26.54492v29h-116z" fill="#c5c7c4" fill-opacity=".8" stroke="#999" stroke-width=".8" transform="translate(0 -.000031)"/><path id="FrontPanel_800X350_PVDT5612" d="m0 0v348h743v-348zm149.90039 109.40039h116v69.5h26.66992a8.9990038 9.0458782 0 0 1 .79883-.043 8.9990038 9.0458782 0 0 1 8.99805 9.04688 8.9990038 9.0458782 0 0 1 -8.99805 9.04492 8.9990038 9.0458782 0 0 1 -.92383-.0488h-26.54492v29h-116zm374.70703 0h116v69.5h26.66992a8.9990048 9.0458798 0 0 1 .79883-.043 8.9990048 9.0458798 0 0 1 8.99805 9.04688 8.9990048 9.0458798 0 0 1 -8.99805 9.04492 8.9990048 9.0458798 0 0 1 -.92383-.0488h-26.54492v29h-116z" fill="#c5c7c4" fill-opacity=".8" stroke="#999" stroke-width=".8" transform="translate(0 -.000031)"/><g id="SlotTR"><circle id="circle6651" cx="728.5" cy="49" fill="#b3b3b3" r="6.25" stroke="#808080"/><path id="path6653" d="m728.41386 51.766908a2.5336782 2.7664067 0 0 0 2.33222-1.684764h3.69856v-1.88135h-3.6077a2.5336782 2.7664067 0 0 0 -2.42308-1.967701 2.5336782 2.7664067 0 0 0 -2.42475 1.967701h-3.60602v1.88135h3.70192a2.5336782 2.7664067 0 0 0 2.32885 1.684764z" fill="#999" stroke="#808080" stroke-width=".966186"/></g><g id="SlotTL"><circle id="circle4226" cx="14.3" cy="49" fill="#b3b3b3" r="6.25" stroke="#808080"/><path id="path4228" d="m14.3 51.774127a2.4521133 2.7736253 0 0 0 2.25714-1.689159h3.579486v-1.886259h-3.49155a2.4521133 2.7736253 0 0 0 -2.345076-1.972835 2.4521133 2.7736253 0 0 0 -2.346693 1.972835h-3.4899335v1.886259h3.5827455a2.4521133 2.7736253 0 0 0 2.253881 1.689159z" fill="#999" stroke="#808080" stroke-opacity=".882353" stroke-width=".951746"/></g><g id="SlotBL"><circle id="circle4232" cx="14.3" cy="299" fill="#b3b3b3" r="6.25" stroke="#808080"/><path id="path4234" d="m14.26663 301.78097a2.3762156 2.780469 0 0 0 2.187278-1.69332h3.468694v-1.89092h-3.38348a2.3762156 2.780469 0 0 0 -2.272492-1.9777 2.3762156 2.780469 0 0 0 -2.274057 1.9777h-3.3819143v1.89092h3.4718523a2.3762156 2.780469 0 0 0 2.184119 1.69332z" fill="#999" stroke="#808080" stroke-opacity=".882353" stroke-width=".938056"/></g><g id="SlotBR"><circle id="circle4616" cx="728.5" cy="299" fill="#b3b3b3" r="6.25" stroke="#808080"/><path id="path4618" d="m728.21989 301.77805a2.4083916 2.7775576 0 0 0 2.21688-1.69155h3.51567v-1.88892h-3.42929a2.4083916 2.7775576 0 0 0 -2.30326-1.97563 2.4083916 2.7775576 0 0 0 -2.30486 1.97563h-3.4277v1.88892h3.51886a2.4083916 2.7775576 0 0 0 2.2137 1.69155z" fill="#999" stroke="#808080" stroke-opacity=".882353" stroke-width=".943891"/></g></svg>