<svg id="svg2" height="298.79996" viewBox="0 0 743.79998 298.79993" width="743.79993" xmlns="http://www.w3.org/2000/svg"><path id="FrontPanel_PVDX1807
" d="m.00000001-.00003722v297.99999722h742.99995999v-297.99999722h-742.99995999zm58.49999999 114.99999722h106v55h-106zm170 0h106v55h-106zm179.99996 0h106v55h-106zm170 0h106v55h-106z" fill="#c5c7c4" fill-opacity=".8" stroke="#999" stroke-width=".8"/><path id="FrontPanel_PVCX1301
" d="m.00000001-.00003771v297.99999771h542.99999999v-297.99999771h-542.99999999zm72.49999999 72.99999971h81v54.999998h-81zm105 0h81v54.999998h-81zm105 0h81v54.999998h-81zm105 0h81v54.999998h-81z" fill="#c5c7c4" fill-opacity=".8" stroke="#999" stroke-width=".8"/><path id="FrontPanel_PVCX1707
" d="m.00000001.79998239v297.99997761h542.99999999v-297.99997761zm58.49999999 114.99997761h106v55h-106zm160 0h106v55h-106zm160 0h106v55h-106z" fill="#c5c7c4" fill-opacity=".8" stroke="#999" stroke-width=".8"/><g id="SlotTR"><circle id="circle6651" cx="728.70001" cy="49" fill="#b3b3b3" r="6.25" stroke="#808080"/><path id="path6653" d="m728.36967 51.7813a2.3726209 2.7807962 0 0 0 2.18397-1.693527h3.46344v-1.891136h-3.37835a2.3726209 2.7807962 0 0 0 -2.26906-1.977936 2.3726209 2.7807962 0 0 0 -2.27062 1.977936h-3.3768v1.891136h3.46661a2.3726209 2.7807962 0 0 0 2.18081 1.693527z" fill="#999" stroke="#808080" stroke-width=".937402"/></g><g id="SlotTL"><circle id="circle4226" cx="14.3" cy="49" fill="#b3b3b3" r="6.25" stroke="#808080"/><path id="path4228" d="m14.216116 51.7813a2.372621 2.7807962 0 0 0 2.183969-1.693527h3.463447v-1.891136h-3.378362a2.372621 2.7807962 0 0 0 -2.269054-1.977936 2.372621 2.7807962 0 0 0 -2.270617 1.977936h-3.3767977v1.891136h3.4666007a2.372621 2.7807962 0 0 0 2.180814 1.693527z" fill="#999" stroke="#808080" stroke-opacity=".882353" stroke-width=".937402"/></g><g id="SlotBL"><circle id="circle4232" cx="14.3" cy="249" fill="#b3b3b3" r="6.25" stroke="#808080"/><path id="path4234" d="m14.26663 251.75a2.730813 2.7495027 0 0 0 2.51368-1.67447h3.98632v-1.86985h-3.88839a2.730813 2.7495027 0 0 0 -2.61161-1.95568 2.730813 2.7495027 0 0 0 -2.61341 1.95568h-3.8865898v1.86985h3.9899498a2.730813 2.7495027 0 0 0 2.51005 1.67447z" fill="#999" stroke="#808080" stroke-opacity=".882353"/></g><g id="SlotBR"><circle id="circle4616" cx="728.70001" cy="249" fill="#b3b3b3" r="6.25" stroke="#808080"/><path id="path4618" d="m728.71751 251.75a2.7308125 2.7495079 0 0 0 2.51367-1.67447h3.98633v-1.86985h-3.88839a2.7308125 2.7495079 0 0 0 -2.61161-1.95568 2.7308125 2.7495079 0 0 0 -2.61342 1.95568h-3.88658v1.86985h3.98995a2.7308125 2.7495079 0 0 0 2.51005 1.67447z" fill="#999" stroke="#808080" stroke-opacity=".882353"/></g></svg>