<?xml version="1.0" encoding="UTF-8" standalone="no"?>
<svg
   xmlns:osb="http://www.openswatchbook.org/uri/2009/osb"
   xmlns:dc="http://purl.org/dc/elements/1.1/"
   xmlns:cc="http://creativecommons.org/ns#"
   xmlns:rdf="http://www.w3.org/1999/02/22-rdf-syntax-ns#"
   xmlns:svg="http://www.w3.org/2000/svg"
   xmlns="http://www.w3.org/2000/svg"
   xmlns:sodipodi="http://sodipodi.sourceforge.net/DTD/sodipodi-0.dtd"
   xmlns:inkscape="http://www.inkscape.org/namespaces/inkscape"
   id="svg2"
   height="198.77487"
   viewBox="0 0 743.77489 198.77486"
   width="743.77484"
   version="1.1"
   inkscape:version="0.91 r13725"
   sodipodi:docname="Kit_breaker_XT4_H.svg">
  <metadata
     id="metadata37">
    <rdf:RDF>
      <cc:Work
         rdf:about="">
        <dc:format>image/svg+xml</dc:format>
        <dc:type
           rdf:resource="http://purl.org/dc/dcmitype/StillImage" />
      </cc:Work>
    </rdf:RDF>
  </metadata>
  <defs
     id="defs35">
    <linearGradient
       id="linearGradient4192"
       osb:paint="solid">
      <stop
         style="stop-color:#ffffff;stop-opacity:1;"
         offset="0"
         id="stop4194" />
    </linearGradient>
  </defs>
  <sodipodi:namedview
     pagecolor="#ffffff"
     bordercolor="#666666"
     borderopacity="1"
     objecttolerance="10"
     gridtolerance="10"
     guidetolerance="10"
     inkscape:pageopacity="0"
     inkscape:pageshadow="2"
     inkscape:window-width="1920"
     inkscape:window-height="1017"
     id="namedview33"
     showgrid="false"
     inkscape:zoom="0.46788353"
     inkscape:cx="41.677039"
     inkscape:cy="99.387436"
     inkscape:window-x="-8"
     inkscape:window-y="-8"
     inkscape:window-maximized="1"
     inkscape:current-layer="svg2" />
  <path
     id="FrontPanel_400X150_PHBX4301"
     d="m.00000001.9748659v148.0000041h342.99999999v-148.0000041zm103.49999999 18.9999991h97v110.000005h-97z"
     fill="#c5c7c4"
     fill-opacity=".8"
     stroke="#999"
     stroke-width=".8" />
  <path
     id="FrontPanel_400X150_PHBX4401"
     d="m.00000001.38739046v147.99999954h342.99999999v-147.99999954zm103.49999999 18.99999954h97v110h-97z"
     fill="#c5c7c4"
     fill-opacity=".8"
     stroke="#999"
     stroke-width=".8" />
  <path
     id="FrontPanel_400X200_PHBX4405"
     d="m.00000001-.02513118v198.00000118h342.99999999v-198.00000118zm135.99999999 65.99999918h91v101.000002h-91z"
     fill="#c5c7c4"
     fill-opacity=".8"
     stroke="#999"
     stroke-width=".8" />
  <path
     id="FrontPanel_400X200_PHBX4404"
     d="m.00000001-.02513118v198.00000118h342.99999999v-198.00000118zm135.99999999 65.99999918h91v101.000002h-91z"
     fill="#c5c7c4"
     fill-opacity=".8"
     stroke="#999"
     stroke-width=".8" />
  <path
     id="FrontPanel_400X200_PHBX4407"
     d="m.00000001-.02513118v198.00000118h342.99999999v-198.00000118zm103.49999999 26.49999918h97v145.000002h-97z"
     fill="#c5c7c4"
     fill-opacity=".8"
     stroke="#999"
     stroke-width=".8" />
  <path
     id="FrontPanel_400X200_PHBX4409"
     d="m.00000001-.02513118v198.00000118h342.99999999v-198.00000118zm135.49999999 65.99999918h91v101.000002h-91z"
     fill="#c5c7c4"
     fill-opacity=".8"
     stroke="#999"
     stroke-width=".8" />
  <path
     id="FrontPanel_800X200_PHDX4401"
     d="m-.01254852-.01258265v198.00000265h742.99999852v-198.00000265h-742.99999852zm303.49999852 26.49999965h97v145.000003h-97z"
     fill="#c5c7c4"
     fill-opacity=".8"
     stroke="#999"
     stroke-width=".774903" />
  <path
     id="FrontPanel_800X200_PHDX4404"
     d="m0-.02513164v198.00000164h743v-198.00000164h-743zm336 65.99999964h91v101.000002h-91z"
     fill="#c5c7c4"
     fill-opacity=".8"
     stroke="#999"
     stroke-width=".8" />
  <path
     id="FrontPanel_400X200_PHBX4423"
     d="m0-.02513164v198.00000164h343v-198.00000164h-343zm65.5 25.99999964h173v145.000002h-173z"
     fill="#c5c7c4"
     fill-opacity=".8"
     stroke="#999"
     stroke-width=".8" />
  <path
     id="FrontPanel_400X200_PHBX4427"
     d="m0-.02513164v198.00000164h343v-198.00000164h-343zm138 75.49999964h89v82.000002h-89z"
     fill="#c5c7c4"
     fill-opacity=".8"
     stroke="#999"
     stroke-width=".8" />
  <path
     id="FrontPanel_600X200_PHCX4401"
     d="m0-.02513164v198.00000164h543v-198.00000164h-543zm236 65.99999964h91v101.000002h-91z"
     fill="#c5c7c4"
     fill-opacity=".8"
     stroke="#999"
     stroke-width=".8" />
  <path
     id="FrontPanel_600X200_PHCX4404"
     d="m0-.02513164v198.00000164h543v-198.00000164h-543zm236 65.99999964h91v101.000002h-91z"
     fill="#c5c7c4"
     fill-opacity=".8"
     stroke="#999"
     stroke-width=".8" />
  <path
     id="FrontPanel_600X200_PHCX4405"
     d="m0-.02513164v198.00000164h543v-198.00000164h-543zm236 65.99999964h91v101.000002h-91z"
     fill="#c5c7c4"
     fill-opacity=".8"
     stroke="#999"
     stroke-width=".8" />
  <path
     id="FrontPanel_600X200_PHCX4407"
     d="m0 0v198h543v-198zm203.5 26.5h97v145h-97z"
     fill="#c5c7c4"
     fill-opacity=".8"
     stroke="#999"
     stroke-width=".8"
     transform="translate(0 -.000015)" />
  <path
     id="FrontPanel_600X200_PHCX4409"
     d="m0 0v198h543v-198zm235.5 66h91v101h-91z"
     fill="#c5c7c4"
     fill-opacity=".8"
     stroke="#999"
     stroke-width=".8"
     transform="translate(0 -.000015)" />
  <path
     id="FrontPanel_600X200_PHCX4423"
     d="m0-.02513164v198.00000164h543v-198.00000164h-543zm165.5 25.99999964h173v145.000002h-173z"
     fill="#c5c7c4"
     fill-opacity=".8"
     stroke="#999"
     stroke-width=".8" />
  <path
     style="overflow:visible;fill:#c5c7c4;fill-opacity:0.8;stroke:#999999;stroke-width:0.80000007;stroke-linejoin:miter;stroke-miterlimit:4;stroke-dasharray:none;stroke-opacity:1"
     d="M 0 0 L 0 148 L 543 148 L 543 0 L 0 0 z M 203.5 19 L 300.5 19 L 300.5 129 L 203.5 129 L 203.5 19 z "
     transform="translate(0,-1.525879e-5)"
     id="FrontPanel_600X150_PHCX4301" />
  <path
     id="FrontPanel_600X200_PHCX4427"
     d="m0 0v198h543v-198zm238 75.5h89v82h-89z"
     stroke-width=".8"
     stroke="#999"
     fill-opacity=".8"
     fill="#c5c7c4"
     transform="translate(0 -.000015)" />
  <g
     id="SlotTR">
    <circle
       id="circle6651"
       cx="728.70001"
       cy="51.48745"
       fill="#b3b3b3"
       r="6.25"
       stroke="#808080" />
    <path
       id="path6653"
       d="m728.63745 54.273053a2.3256458 2.7850996 0 0 0 2.14073-1.696147h3.39487v-1.894063h-3.31147a2.3256458 2.7850996 0 0 0 -2.22413-1.980997 2.3256458 2.7850996 0 0 0 -2.22566 1.980997h-3.30994v1.894063h3.39796a2.3256458 2.7850996 0 0 0 2.13764 1.696147z"
       fill="#999"
       stroke="#808080"
       stroke-width=".928793" />
  </g>
  <g
     id="SlotTL">
    <circle
       id="circle4226"
       cx="14.3"
       cy="49"
       fill="#b3b3b3"
       r="6.25"
       stroke="#808080" />
    <path
       id="path4228"
       d="m14.337452 51.785604a2.3256458 2.7850996 0 0 0 2.140729-1.696148h3.394874v-1.894062h-3.311474a2.3256458 2.7850996 0 0 0 -2.224129-1.980997 2.3256458 2.7850996 0 0 0 -2.225661 1.980997h-3.3099424v1.894062h3.3979664a2.3256458 2.7850996 0 0 0 2.137637 1.696148z"
       fill="#999"
       stroke="#808080"
       stroke-opacity=".882353"
       stroke-width=".928793" />
  </g>
  <g
     id="SlotBL">
    <circle
       id="circle4232"
       cx="14.3"
       cy="149"
       fill="#b3b3b3"
       r="6.25"
       stroke="#808080" />
    <path
       id="path4234"
       d="m14.129082 151.77639a2.4268085 2.7758931 0 0 0 2.233847-1.69054h3.542548v-1.88779h-3.455519a2.4268085 2.7758931 0 0 0 -2.320876-1.97445 2.4268085 2.7758931 0 0 0 -2.322476 1.97445h-3.4539196v1.88779h3.5457736a2.4268085 2.7758931 0 0 0 2.230622 1.69054z"
       fill="#999"
       stroke="#808080"
       stroke-opacity=".882353"
       stroke-width=".94721" />
  </g>
  <g
     id="SlotBR">
    <circle
       id="circle4616"
       cx="728.70001"
       cy="149"
       fill="#b3b3b3"
       r="6.25"
       stroke="#808080" />
    <path
       id="path4618"
       d="m728.82999 151.7856a2.3256453 2.7851049 0 0 0 2.14072-1.69615h3.39488v-1.89406h-3.31147a2.3256453 2.7851049 0 0 0 -2.22413-1.98099 2.3256453 2.7851049 0 0 0 -2.22567 1.98099h-3.30993v1.89406h3.39796a2.3256453 2.7851049 0 0 0 2.13764 1.69615z"
       fill="#999"
       stroke="#808080"
       stroke-opacity=".882353"
       stroke-width=".928793" />
  </g>
</svg>
