<?xml version="1.0" encoding="UTF-8" standalone="no"?>
<svg
   xmlns:dc="http://purl.org/dc/elements/1.1/"
   xmlns:cc="http://creativecommons.org/ns#"
   xmlns:rdf="http://www.w3.org/1999/02/22-rdf-syntax-ns#"
   xmlns:svg="http://www.w3.org/2000/svg"
   xmlns="http://www.w3.org/2000/svg"
   xmlns:sodipodi="http://sodipodi.sourceforge.net/DTD/sodipodi-0.dtd"
   xmlns:inkscape="http://www.inkscape.org/namespaces/inkscape"
   id="svg2"
   height="498.79999"
   overflow="visible"
   viewBox="0 0 543.80002 498.79995"
   width="543.79999"
   version="1.1"
   inkscape:version="0.92.4 (5da689c313, 2019-01-14)"
   sodipodi:docname="Kit_breaker_XT2_H_1.svg"
   style="overflow:visible">
  <metadata
     id="metadata23">
    <rdf:RDF>
      <cc:Work
         rdf:about="">
        <dc:format>image/svg+xml</dc:format>
        <dc:type
           rdf:resource="http://purl.org/dc/dcmitype/StillImage" />
        <dc:title></dc:title>
      </cc:Work>
    </rdf:RDF>
  </metadata>
  <defs
     id="defs21" />
  <sodipodi:namedview
     pagecolor="#ffffff"
     bordercolor="#666666"
     borderopacity="1"
     objecttolerance="10"
     gridtolerance="10"
     guidetolerance="10"
     inkscape:pageopacity="0"
     inkscape:pageshadow="2"
     inkscape:window-width="1366"
     inkscape:window-height="705"
     id="namedview19"
     showgrid="false"
     inkscape:zoom="0.70710678"
     inkscape:cx="236.91886"
     inkscape:cy="286.02348"
     inkscape:window-x="-8"
     inkscape:window-y="-8"
     inkscape:window-maximized="1"
     inkscape:current-layer="svg2"
     showguides="false"
     fit-margin-top="0"
     fit-margin-left="0"
     fit-margin-right="0"
     fit-margin-bottom="0" />
  <path
     style="fill:#c5c7c4;fill-opacity:0.8;stroke:#999999;stroke-width:0.80000007;stroke-linejoin:miter;stroke-miterlimit:4;stroke-dasharray:none;stroke-opacity:1"
     d="M 0,0 V 498 H 543 V 0 Z m 211.5,70.25 h 83 v 124 h -83 z m 0,233.5 h 83 v 124 h -83 z"
     id="FrontPanel_500X600_PHCX2431"
     inkscape:connector-curvature="0" />
  <path
     style="fill:#c5c7c4;fill-opacity:0.8;stroke:#999999;stroke-width:0.80000007;stroke-linejoin:miter;stroke-miterlimit:4;stroke-dasharray:none;stroke-opacity:1"
     d="M 0,0 V 498 H 543 V 0 Z M 228.5,87.25 H 308 v 90 h -79.5 z m 0,233.5 H 308 v 90 h -79.5 z"
     id="FrontPanel_500X600_PHCX2424"
     inkscape:connector-curvature="0" />
  <path
     style="fill:#c5c7c4;fill-opacity:0.8;stroke:#999999;stroke-width:0.80000007;stroke-linejoin:miter;stroke-miterlimit:4;stroke-dasharray:none;stroke-opacity:1"
     d="M 0,0 V 498 H 543 V 0 Z m 237.5,79.25 h 55 v 106 h -55 z m 0,233.5 h 55 v 106 h -55 z"
     id="FrontPanel_500X600_PHCX2402"
     inkscape:connector-curvature="0" />
  <path
     style="fill:#c5c7c4;fill-opacity:0.8;stroke:#999999;stroke-width:0.80000007;stroke-linejoin:miter;stroke-miterlimit:4;stroke-dasharray:none;stroke-opacity:1"
     d="M 0,0 V 498 H 343 V 0 Z m 111.5,70.25 h 83 v 124 h -83 z m 0,233.5 h 83 v 124 h -83 z"
     id="FrontPanel_500X400_PHBX2431"
     inkscape:connector-curvature="0" />
  <path
     style="fill:#c5c7c4;fill-opacity:0.8;stroke:#999999;stroke-width:0.80000007;stroke-linejoin:miter;stroke-miterlimit:4;stroke-dasharray:none;stroke-opacity:1"
     d="M 0,0 V 498 H 343 V 0 Z M 128.5,87.25 H 208 v 90 h -79.5 z m 0,233.5 H 208 v 90 h -79.5 z"
     id="FrontPanel_500X400_PHBX2424"
     inkscape:connector-curvature="0" />
  <path
     style="fill:#c5c7c4;fill-opacity:0.8;stroke:#999999;stroke-width:0.80000007;stroke-linejoin:miter;stroke-miterlimit:4;stroke-dasharray:none;stroke-opacity:1"
     d="M 0,0 V 498 H 343 V 0 Z m 137.5,79.25 h 55 v 106 h -55 z m 0,233.5 h 55 v 106 h -55 z"
     id="FrontPanel_500X400_PHBX2402"
     inkscape:connector-curvature="0" />
  <path
     style="fill:#c5c7c4;fill-opacity:0.8;stroke:#999999;stroke-width:0.80000007;stroke-linejoin:miter;stroke-miterlimit:4;stroke-dasharray:none;stroke-opacity:1"
     d="M 0,0 V 498 H 343 V 0 Z m 135.5,96.5 h 91 v 101 h -37 v 30 h -37 v -30 h -17 z m 0,234 h 91 v 101 h -37 v 30 h -37 v -30 h -17 z"
     id="FrontPanel_500X400_PHBX2425"
     inkscape:connector-curvature="0" />
  <path
     style="fill:#c5c7c4;fill-opacity:0.8;stroke:#999999;stroke-width:0.80000007;stroke-linejoin:miter;stroke-miterlimit:4;stroke-dasharray:none;stroke-opacity:1"
     d="M 0,0 V 498 H 543 V 0 Z m 235.5,96.5 h 91 v 101 h -37 v 30 h -37 v -30 h -17 z m 0,234 h 91 v 101 h -37 v 30 h -37 v -30 h -17 z"
     id="FrontPanel_500X600_PHCX2425"
     inkscape:connector-curvature="0" />
  <g
     id="SlotTR">
    <circle
       style="fill:#b3b3b3;stroke:#808080;stroke-width:1.00000012;stroke-miterlimit:4;stroke-dasharray:none"
       r="6.25"
       cy="49.299999"
       cx="528.70001"
       id="circle6651" />
    <path
       style="fill:#999999;stroke:#808080;stroke-width:1.00000012;stroke-miterlimit:4;stroke-dasharray:none;stroke-opacity:1"
       inkscape:connector-curvature="0"
       d="m 528.70001,52.05 a 2.730813,2.7495027 0 0 0 2.51368,-1.674469 h 3.98632 v -1.869854 h -3.88839 a 2.730813,2.7495027 0 0 0 -2.61161,-1.955678 2.730813,2.7495027 0 0 0 -2.61341,1.955678 h -3.88659 v 1.869854 h 3.98995 A 2.730813,2.7495027 0 0 0 528.70001,52.05 Z"
       id="path6653" />
  </g>
  <g
     id="SlotTL">
    <circle
       id="circle4226"
       cx="15.4"
       cy="49.299999"
       r="6.25"
       style="fill:#b3b3b3;stroke:#808080" />
    <path
       id="path4228"
       d="m 15.399999,52.05 a 2.730813,2.7495027 0 0 0 2.51368,-1.674469 h 3.98632 v -1.869854 h -3.88839 a 2.730813,2.7495027 0 0 0 -2.61161,-1.955678 2.730813,2.7495027 0 0 0 -2.61341,1.955678 H 8.8999998 v 1.869854 H 12.889949 A 2.730813,2.7495027 0 0 0 15.399999,52.05 Z"
       inkscape:connector-curvature="0"
       style="fill:#999999;stroke:#808080;stroke-opacity:0.88235294" />
  </g>
  <g
     id="SlotBL">
    <circle
       style="fill:#b3b3b3;stroke:#808080"
       r="6.25"
       cy="449.29999"
       cx="15.4"
       id="circle4232" />
    <path
       style="fill:#999999;stroke:#808080;stroke-opacity:0.88235294"
       inkscape:connector-curvature="0"
       d="m 15.4,452.04999 a 2.730813,2.7495027 0 0 0 2.51368,-1.67447 H 21.9 v -1.86985 H 18.01161 A 2.730813,2.7495027 0 0 0 15.4,446.54999 2.730813,2.7495027 0 0 0 12.78659,448.50567 H 8.8999996 v 1.86985 H 12.88995 A 2.730813,2.7495027 0 0 0 15.4,452.04999 Z"
       id="path4234" />
  </g>
  <g
     id="SlotBR">
    <circle
       style="fill:#b3b3b3;stroke:#808080"
       r="6.25"
       cy="449.29999"
       cx="528.70001"
       id="circle4616" />
    <path
       style="fill:#999999;stroke:#808080;stroke-width:1.00000012;stroke-miterlimit:4;stroke-dasharray:none;stroke-opacity:0.88235294"
       inkscape:connector-curvature="0"
       d="m 528.70001,452.04999 a 2.7308125,2.7495079 0 0 0 2.51367,-1.67447 h 3.98633 v -1.86985 h -3.88839 a 2.7308125,2.7495079 0 0 0 -2.61161,-1.95568 2.7308125,2.7495079 0 0 0 -2.61342,1.95568 h -3.88658 v 1.86985 h 3.98995 a 2.7308125,2.7495079 0 0 0 2.51005,1.67447 z"
       id="path4618" />
  </g>
</svg>
