<svg id="svg2" height="348.79996" viewBox="0 0 943.79999 348.79993" width="943.79993" xmlns="http://www.w3.org/2000/svg"><path id="FrontPanel_1000X350_PVFT5710_None_R400" d="m0 0v348h943v-348zm149.5 109h116v70.00977c.0642-.0669.15342-.10938.25391-.10938h29.29297c.13309 0 .24436.0754.30468.18359a8.9999975 8.9999975 0 0 1 7.46485 8.85938 8.9999975 8.9999975 0 0 1 -7.5586 8.87891c-.0595.0455-.12995.0781-.21093.0781h-.43165a8.9999975 8.9999975 0 0 1 -.79882.043 8.9999975 8.9999975 0 0 1 -.85938-.043h-27.20312c-.10049 0-.18967-.0425-.25391-.10937v28.70898h-116v-116.5zm300 0h116v70.00977c.0642-.0669.15342-.10938.25391-.10938h29.29297c.1331 0 .24438.0754.30468.18359a8.9999985 8.9999985 0 0 1 7.46485 8.85938 8.9999985 8.9999985 0 0 1 -7.5586 8.87891c-.0595.0455-.12995.0781-.21093.0781h-.43165a8.9999985 8.9999985 0 0 1 -.79882.043 8.9999985 8.9999985 0 0 1 -.85938-.043h-27.20312c-.10049 0-.18971-.0425-.25391-.10937v28.70898h-116v-116.5zm275 0h116v70.00977c.0642-.0669.15342-.10938.25391-.10938h29.29297c.13311 0 .24438.0754.30468.18359a8.9999995 8.9999995 0 0 1 7.46485 8.85938 8.9999995 8.9999995 0 0 1 -7.5586 8.87891c-.0595.0455-.12994.0781-.21093.0781h-.43165a8.9999995 8.9999995 0 0 1 -.79882.043 8.9999995 8.9999995 0 0 1 -.85938-.043h-27.20312c-.10049 0-.18971-.0425-.25391-.10937v28.70898h-116v-116.5z" fill="#c5c7c4" fill-opacity=".8" stroke="#999" stroke-width=".8" transform="translate(0 -.000031)"/><path id="FrontPanel_1000X350_PVFT5712_MO_R400" d="m.00000001-.00006251v348.00001251h943.00011999v-348.00001251h-943.00011999zm149.50000999 109.00000251h116.00001v70.00977c.0642-.0669.15342-.10938.25391-.10938h29.29297c.13309 0 .24436.0754.30468.18359a8.999998 8.999998 0 0 1 7.46485 8.85938 8.999998 8.999998 0 0 1 -7.5586 8.87891c-.0595.0455-.12995.0781-.21093.0781h-.43165a8.999998 8.999998 0 0 1 -.79882.043 8.999998 8.999998 0 0 1 -.85938-.043h-27.20312c-.10049 0-.18967-.0425-.25391-.10937v28.70898h-116.00001v-116.5zm300.00001 0h116v70.00977c.064-.0669.1534-.10938.2539-.10938h29.293c.1331 0 .2444.0754.3047.18359a8.999999 8.999999 0 0 1 7.4648 8.85938 8.999999 8.999999 0 0 1 -7.5586 8.87891c-.059.0455-.1299.0781-.2109.0781h-.4317a8.999999 8.999999 0 0 1 -.7988.043 8.999999 8.999999 0 0 1 -.8594-.043h-27.2031c-.1005 0-.1897-.0425-.2539-.10937v28.70898h-116v-116.5zm275.0001 0h116v70.00977c.064-.0669.1534-.10938.2539-.10938h29.2929c.1332 0 .2444.0754.3047.18359a9 9 0 0 1 7.4649 8.85938 9 9 0 0 1 -7.5586 8.87891c-.06.0455-.13.0781-.211.0781h-.4316a9 9 0 0 1 -.7988.043 9 9 0 0 1 -.8594-.043h-27.2031c-.1005 0-.1897-.0425-.2539-.10937v28.70898h-116v-116.5z" fill="#c5c7c4" fill-opacity=".8" stroke="#999" stroke-width=".8"/><path id="FrontPanel_1000X350_PVFT5710_None_R630" d="m.00000001-.00006251v348.00001251h943.00011999v-348.00001251h-943.00011999zm149.50000999 109.00000251h116.00001v70.00977c.0642-.0669.15342-.10938.25391-.10938h29.29297c.13309 0 .24436.0754.30468.18359a8.999998 8.999998 0 0 1 7.46485 8.85938 8.999998 8.999998 0 0 1 -7.5586 8.87891c-.0595.0455-.12995.0781-.21093.0781h-.43165a8.999998 8.999998 0 0 1 -.79882.043 8.999998 8.999998 0 0 1 -.85938-.043h-27.20312c-.10049 0-.18967-.0425-.25391-.10937v28.70898h-116.00001v-116.5zm300.00001 0h116v70.00977c.064-.0669.1534-.10938.2539-.10938h29.293c.1331 0 .2444.0754.3047.18359a8.999999 8.999999 0 0 1 7.4648 8.85938 8.999999 8.999999 0 0 1 -7.5586 8.87891c-.059.0455-.1299.0781-.2109.0781h-.4317a8.999999 8.999999 0 0 1 -.7988.043 8.999999 8.999999 0 0 1 -.8594-.043h-27.2031c-.1005 0-.1897-.0425-.2539-.10937v28.70898h-116v-116.5zm275.0001 0h116v70.00977c.064-.0669.1534-.10938.2539-.10938h29.2929c.1332 0 .2444.0754.3047.18359a9 9 0 0 1 7.4649 8.85938 9 9 0 0 1 -7.5586 8.87891c-.06.0455-.13.0781-.211.0781h-.4316a9 9 0 0 1 -.7988.043 9 9 0 0 1 -.8594-.043h-27.2031c-.1005 0-.1897-.0425-.2539-.10937v28.70898h-116v-116.5z" fill="#c5c7c4" fill-opacity=".8" stroke="#999" stroke-width=".8"/><path id="FrontPanel_1000X350_PVFT5712_MO_R630" d="m.00000001-.00006251v348.00001251h943.00011999v-348.00001251h-943.00011999zm149.50000999 109.00000251h116.00001v70.00977c.0642-.0669.15342-.10938.25391-.10938h29.29297c.13309 0 .24436.0754.30468.18359a8.999998 8.999998 0 0 1 7.46485 8.85938 8.999998 8.999998 0 0 1 -7.5586 8.87891c-.0595.0455-.12995.0781-.21093.0781h-.43165a8.999998 8.999998 0 0 1 -.79882.043 8.999998 8.999998 0 0 1 -.85938-.043h-27.20312c-.10049 0-.18967-.0425-.25391-.10937v28.70898h-116.00001v-116.5zm300.00001 0h116v70.00977c.064-.0669.1534-.10938.2539-.10938h29.293c.1331 0 .2444.0754.3047.18359a8.999999 8.999999 0 0 1 7.4648 8.85938 8.999999 8.999999 0 0 1 -7.5586 8.87891c-.059.0455-.1299.0781-.2109.0781h-.4317a8.999999 8.999999 0 0 1 -.7988.043 8.999999 8.999999 0 0 1 -.8594-.043h-27.2031c-.1005 0-.1897-.0425-.2539-.10937v28.70898h-116v-116.5zm275.0001 0h116v70.00977c.064-.0669.1534-.10938.2539-.10938h29.2929c.1332 0 .2444.0754.3047.18359a9 9 0 0 1 7.4649 8.85938 9 9 0 0 1 -7.5586 8.87891c-.06.0455-.13.0781-.211.0781h-.4316a9 9 0 0 1 -.7988.043 9 9 0 0 1 -.8594-.043h-27.2031c-.1005 0-.1897-.0425-.2539-.10937v28.70898h-116v-116.5z" fill="#c5c7c4" fill-opacity=".8" stroke="#999" stroke-width=".8"/><g id="SlotTR"><circle id="circle6651" cx="928.70001" cy="49" fill="#b3b3b3" r="6.25" stroke="#808080"/><path id="path6653" d="m928.77501 51.790293a2.2750996 2.7897868 0 0 0 2.0942-1.699003h3.32109v-1.89725h-3.2395a2.2750996 2.7897868 0 0 0 -2.17579-1.984332 2.2750996 2.7897868 0 0 0 -2.17729 1.984332h-3.238v1.89725h3.32411a2.2750996 2.7897868 0 0 0 2.09118 1.699003z" fill="#999" stroke="#808080" stroke-width=".919417"/></g><g id="SlotTL"><circle id="circle4226" cx="14.3" cy="49" fill="#b3b3b3" r="6.25" stroke="#808080"/><path id="path4228" d="m14.392894 51.787873a2.3011137 2.787367 0 0 0 2.118147-1.69753h3.359064v-1.895604h-3.276544a2.3011137 2.787367 0 0 0 -2.200667-1.982611 2.3011137 2.787367 0 0 0 -2.202185 1.982611h-3.2750263v1.895604h3.3621233a2.3011137 2.787367 0 0 0 2.115088 1.69753z" fill="#999" stroke="#808080" stroke-opacity=".882353" stroke-width=".924258"/></g><g id="SlotBL"><circle id="circle4232" cx="14.3" cy="299" fill="#b3b3b3" r="6.25" stroke="#808080"/><path id="path4234" d="m14.204 301.6432a2.4799678 2.7711446 0 0 0 2.28278-1.68765h3.620147v-1.88457h-3.531213a2.4799678 2.7711446 0 0 0 -2.371714-1.97108 2.4799678 2.7711446 0 0 0 -2.37335 1.97108h-3.529578v1.88457h3.623444a2.4799678 2.7711446 0 0 0 2.279484 1.68765z" fill="#999" stroke="#808080" stroke-opacity=".882353" stroke-width=".956708"/></g><g id="SlotBR"><circle id="circle4616" cx="928.70001" cy="299" fill="#b3b3b3" r="6.25" stroke="#808080"/><path id="path4618" d="m928.84255 301.91577a2.3256454 2.7851048 0 0 0 2.14072-1.69615h3.39488v-1.89406h-3.31147a2.3256454 2.7851048 0 0 0 -2.22413-1.98099 2.3256454 2.7851048 0 0 0 -2.22567 1.98099h-3.30993v1.89406h3.39796a2.3256454 2.7851048 0 0 0 2.13764 1.69615z" fill="#999" stroke="#808080" stroke-opacity=".882353" stroke-width=".928793"/></g></svg>