<?xml version="1.0" encoding="UTF-8" standalone="no"?>
<svg
   xmlns:dc="http://purl.org/dc/elements/1.1/"
   xmlns:cc="http://creativecommons.org/ns#"
   xmlns:rdf="http://www.w3.org/1999/02/22-rdf-syntax-ns#"
   xmlns:svg="http://www.w3.org/2000/svg"
   xmlns="http://www.w3.org/2000/svg"
   xmlns:sodipodi="http://sodipodi.sourceforge.net/DTD/sodipodi-0.dtd"
   xmlns:inkscape="http://www.inkscape.org/namespaces/inkscape"
   id="svg2"
   height="348.79996"
   overflow="visible"
   viewBox="0 0 943.79999 348.79993"
   width="943.79993"
   version="1.1"
   inkscape:version="0.91 r13725"
   sodipodi:docname="Kit_breaker_T5_V_4.svg"
   style="overflow:visible">
  <metadata
     id="metadata23">
    <rdf:RDF>
      <cc:Work
         rdf:about="">
        <dc:format>image/svg+xml</dc:format>
        <dc:type
           rdf:resource="http://purl.org/dc/dcmitype/StillImage" />
        <dc:title />
      </cc:Work>
    </rdf:RDF>
  </metadata>
  <defs
     id="defs21" />
  <sodipodi:namedview
     pagecolor="#ffffff"
     bordercolor="#666666"
     borderopacity="1"
     objecttolerance="10"
     gridtolerance="10"
     guidetolerance="10"
     inkscape:pageopacity="0"
     inkscape:pageshadow="2"
     inkscape:window-width="1366"
     inkscape:window-height="705"
     id="namedview19"
     showgrid="false"
     inkscape:zoom="0.70710678"
     inkscape:cx="120.80765"
     inkscape:cy="-134.79523"
     inkscape:window-x="-8"
     inkscape:window-y="-8"
     inkscape:window-maximized="1"
     inkscape:current-layer="svg2"
     showguides="true"
     fit-margin-top="0"
     fit-margin-left="0"
     fit-margin-right="0"
     fit-margin-bottom="0"
     inkscape:object-paths="true"
     inkscape:snap-intersection-paths="true"
     inkscape:object-nodes="true"
     inkscape:snap-smooth-nodes="true" />
  <path
     style="opacity:1;fill:#c5c7c4;fill-opacity:0.8;stroke:#999999;stroke-width:0.80000007;stroke-linecap:butt;stroke-linejoin:miter;stroke-miterlimit:4;stroke-dasharray:none;stroke-dashoffset:2.86129999;stroke-opacity:1"
     d="M 0,0 0,348 943,348 943,0 0,0 Z m 73.900391,109.40039 115.999999,0 0,69.5 29,0 a 8.999997,8.9999958 0 0 1 9,9 8.999997,8.9999958 0 0 1 -9,9 l -29,0 0,29 -115.999999,0 0,-116.5 z m 204.999999,0 116,0 0,69.5 29,0 a 8.999998,8.9999968 0 0 1 9,9 8.999998,8.9999968 0 0 1 -9,9 l -29,0 0,29 -116,0 0,-116.5 z m 240,0 116,0 0,69.5 29,0 a 8.9999985,8.9999973 0 0 1 9,9 8.9999985,8.9999973 0 0 1 -9,9 l -29,0 0,29 -116,0 0,-116.5 z m 205,0 116,0 0,69.5 29,0 a 8.999999,8.9999978 0 0 1 9,9 8.999999,8.9999978 0 0 1 -9,9 l -29,0 0,29 -116,0 0,-116.5 z"
     transform="translate(0,-3.051758e-5)"
     id="FrontPanel_1000X350_PVFT5810"
     inkscape:connector-curvature="0" />
  <path
     style="overflow:visible;opacity:1;fill:#c5c7c4;fill-opacity:0.8;stroke:#999999;stroke-width:0.80000007;stroke-linecap:butt;stroke-linejoin:miter;stroke-miterlimit:4;stroke-dasharray:none;stroke-dashoffset:2.86129999;stroke-opacity:1"
     d="M 0,0 0,348 943,348 943,0 0,0 Z m 73.900391,109.40039 115.999999,0 0,69.5 29,0 a 8.9999975,8.9999963 0 0 1 9,9 8.9999975,8.9999963 0 0 1 -9,9 l -29,0 0,29 -115.999999,0 0,-116.5 z m 204.999999,0 116,0 0,69.5 29,0 a 8.9999985,8.9999973 0 0 1 9,9 8.9999985,8.9999973 0 0 1 -9,9 l -29,0 0,29 -116,0 0,-116.5 z m 240,0 116,0 0,69.5 29,0 a 8.999999,8.9999978 0 0 1 9,9 8.999999,8.9999978 0 0 1 -9,9 l -29,0 0,29 -116,0 0,-116.5 z m 205,0 116,0 0,69.5 29,0 a 8.9999995,8.9999983 0 0 1 9,9 8.9999995,8.9999983 0 0 1 -9,9 l -29,0 0,29 -116,0 0,-116.5 z"
     transform="translate(0,-3.051758e-5)"
     id="FrontPanel_1000X350_PVFT5812"
     inkscape:connector-curvature="0" />
  <g
     id="SlotTR">
    <circle
       style="fill:#b3b3b3;stroke:#808080;stroke-width:1.00000012;stroke-miterlimit:4;stroke-dasharray:none"
       r="6.25"
       cy="49.016998"
       cx="928.70099"
       id="circle6651" />
    <path
       style="fill:#999999;stroke:#808080;stroke-width:1.00000012;stroke-miterlimit:4;stroke-dasharray:none;stroke-opacity:1"
       inkscape:connector-curvature="0"
       d="m 928.70099,51.766999 a 2.730813,2.7495027 0 0 0 2.51368,-1.674469 l 3.98632,0 0,-1.869854 -3.88839,0 a 2.730813,2.7495027 0 0 0 -2.61161,-1.955678 2.730813,2.7495027 0 0 0 -2.61341,1.955678 l -3.88659,0 0,1.869854 3.98995,0 a 2.730813,2.7495027 0 0 0 2.51005,1.674469 z"
       id="path6653" />
  </g>
  <g
     id="SlotTL">
    <circle
       id="circle4226"
       cx="14.359"
       cy="49.016998"
       r="6.25"
       style="fill:#b3b3b3;stroke:#808080" />
    <path
       id="path4228"
       d="m 14.359,51.766999 a 2.730813,2.7495027 0 0 0 2.51368,-1.674469 l 3.98632,0 0,-1.869854 -3.88839,0 A 2.730813,2.7495027 0 0 0 14.359,46.266998 2.730813,2.7495027 0 0 0 11.74559,48.222676 l -3.8865894,0 0,1.869854 3.9899494,0 a 2.730813,2.7495027 0 0 0 2.51005,1.674469 z"
       inkscape:connector-curvature="0"
       style="fill:#999999;stroke:#808080;stroke-opacity:0.88235294" />
  </g>
  <g
     id="SlotBL">
    <circle
       style="fill:#b3b3b3;stroke:#808080"
       r="6.25"
       cy="299.00299"
       cx="14.359"
       id="circle4232" />
    <path
       style="fill:#999999;stroke:#808080;stroke-opacity:0.88235294"
       inkscape:connector-curvature="0"
       d="m 14.359,301.75299 a 2.730813,2.7495027 0 0 0 2.51368,-1.67447 l 3.98632,0 0,-1.86985 -3.88839,0 a 2.730813,2.7495027 0 0 0 -2.61161,-1.95568 2.730813,2.7495027 0 0 0 -2.61341,1.95568 l -3.88659,0 0,1.86985 3.98995,0 a 2.730813,2.7495027 0 0 0 2.51005,1.67447 z"
       id="path4234" />
  </g>
  <g
     id="SlotBR">
    <circle
       style="fill:#b3b3b3;stroke:#808080"
       r="6.25"
       cy="299.00299"
       cx="928.70099"
       id="circle4616" />
    <path
       style="fill:#999999;stroke:#808080;stroke-width:1.00000012;stroke-miterlimit:4;stroke-dasharray:none;stroke-opacity:0.88235294"
       inkscape:connector-curvature="0"
       d="m 928.70099,301.75299 a 2.7308125,2.7495079 0 0 0 2.51367,-1.67447 l 3.98633,0 0,-1.86985 -3.88839,0 a 2.7308125,2.7495079 0 0 0 -2.61161,-1.95568 2.7308125,2.7495079 0 0 0 -2.61342,1.95568 l -3.88658,0 0,1.86985 3.98995,0 a 2.7308125,2.7495079 0 0 0 2.51005,1.67447 z"
       id="path4618" />
  </g>
</svg>
