<?xml version="1.0" encoding="UTF-8" standalone="no"?>
<svg
   xmlns:dc="http://purl.org/dc/elements/1.1/"
   xmlns:cc="http://creativecommons.org/ns#"
   xmlns:rdf="http://www.w3.org/1999/02/22-rdf-syntax-ns#"
   xmlns:svg="http://www.w3.org/2000/svg"
   xmlns="http://www.w3.org/2000/svg"
   xmlns:sodipodi="http://sodipodi.sourceforge.net/DTD/sodipodi-0.dtd"
   xmlns:inkscape="http://www.inkscape.org/namespaces/inkscape"
   id="svg2"
   height="198.8"
   overflow="visible"
   viewBox="0 0 543.80002 198.79998"
   width="543.79999"
   version="1.1"
   inkscape:version="0.91 r13725"
   sodipodi:docname="Kit_breaker_T4_H_1.svg"
   style="overflow:visible">
  <metadata
     id="metadata23">
    <rdf:RDF>
      <cc:Work
         rdf:about="">
        <dc:format>image/svg+xml</dc:format>
        <dc:type
           rdf:resource="http://purl.org/dc/dcmitype/StillImage" />
        <dc:title></dc:title>
      </cc:Work>
    </rdf:RDF>
  </metadata>
  <defs
     id="defs21" />
  <sodipodi:namedview
     pagecolor="#ffffff"
     bordercolor="#666666"
     borderopacity="1"
     objecttolerance="10"
     gridtolerance="10"
     guidetolerance="10"
     inkscape:pageopacity="0"
     inkscape:pageshadow="2"
     inkscape:window-width="1920"
     inkscape:window-height="1017"
     id="namedview19"
     showgrid="false"
     inkscape:zoom="3.2916514"
     inkscape:cx="271.89999"
     inkscape:cy="99.400002"
     inkscape:window-x="-8"
     inkscape:window-y="-8"
     inkscape:window-maximized="1"
     inkscape:current-layer="svg2"
     showguides="false"
     fit-margin-top="0"
     fit-margin-left="0"
     fit-margin-right="0"
     fit-margin-bottom="0" />
  <g
     id="T4_H_1">
    <path
       inkscape:connector-curvature="0"
       id="FrontPanel_600X200_PHCT4423"
       d="M 0,-2.2888185e-5 0,197.99998 l 543,0 0,-198.000002888185 -543,0 z M 262,58.999977 l 115,0 0,115.000003 -115,0 0,-115.000003 z m 164,0 62.5,0 0,115.000003 -62.5,0 0,-115.000003 z"
       style="fill:#c5c7c4;fill-opacity:0.8;stroke:#999999;stroke-width:0.80000001;stroke-linejoin:round;stroke-miterlimit:4;stroke-dasharray:none;stroke-opacity:1" />
    <path
       inkscape:connector-curvature="0"
       id="FrontPanel_400X150_PHBT4301"
       d="M 0,-2.2888185e-5 0,147.99998 l 343,0 0,-148.000002888185 -343,0 z M 121,16.499977 l 115,0 0,115.000003 -115,0 0,-115.000003 z"
       style="fill:#c5c7c4;fill-opacity:0.8;stroke:#999999;stroke-width:0.80000001;stroke-linejoin:round;stroke-miterlimit:4;stroke-dasharray:none;stroke-opacity:1" />
    <path
       inkscape:connector-curvature="0"
       id="FrontPanel_400X200_PHBT4406"
       d="M 0,-2.2888185e-5 0,197.99998 l 343,0 0,-198.000002888185 -343,0 z M 121,58.999977 l 115,0 0,115.000003 -115,0 0,-115.000003 z"
       style="fill:#c5c7c4;fill-opacity:0.8;stroke:#999999;stroke-width:0.80000001;stroke-linejoin:round;stroke-miterlimit:4;stroke-dasharray:none;stroke-opacity:1" />
    <path
       style="fill:#c5c7c4;fill-opacity:0.8;stroke:#999999;stroke-width:0.80000001;stroke-linejoin:round;stroke-miterlimit:4;stroke-dasharray:none;stroke-opacity:1"
       d="M 0,-2.2888185e-5 0,197.99998 l 343,0 0,-198.000002888185 -343,0 z M 121,58.999977 l 115,0 0,115.000003 -115,0 0,-115.000003 z"
       id="FrontPanel_400X200_PHBT4404"
       inkscape:connector-curvature="0" />
    <path
       inkscape:connector-curvature="0"
       id="FrontPanel_600X150_PHCT4301"
       d="M 0,-2.2888185e-5 0,147.99998 l 543,0 0,-148.000002888185 -543,0 z M 221,16.499977 l 115,0 0,115.000003 -115,0 0,-115.000003 z"
       style="fill:#c5c7c4;fill-opacity:0.8;stroke:#999999;stroke-width:0.80000001;stroke-linejoin:round;stroke-miterlimit:4;stroke-dasharray:none;stroke-opacity:1" />
    <path
       inkscape:connector-curvature="0"
       id="FrontPanel_600X200_PHCT4406"
       d="M 0,-2.2888185e-5 0,197.99998 l 543,0 0,-198.000002888185 -543,0 z M 221,58.999977 l 115,0 0,115.000003 -115,0 0,-115.000003 z"
       style="fill:#c5c7c4;fill-opacity:0.8;stroke:#999999;stroke-width:0.80000001;stroke-linejoin:round;stroke-miterlimit:4;stroke-dasharray:none;stroke-opacity:1" />
    <path
       style="fill:#c5c7c4;fill-opacity:0.8;stroke:#999999;stroke-width:0.80000001;stroke-linejoin:round;stroke-miterlimit:4;stroke-dasharray:none;stroke-opacity:1"
       d="M 0,-2.2888185e-5 0,197.99998 l 543,0 0,-198.000002888185 -543,0 z M 221,58.999977 l 115,0 0,115.000003 -115,0 0,-115.000003 z"
       id="FrontPanel_600X200_PHCT4404"
       inkscape:connector-curvature="0" />
    <g
       id="SlotTR">
      <circle
         id="circle6651"
         cx="328.70001"
         cy="36.5"
         r="6.25"
         style="fill:#b3b3b3;stroke:#808080;stroke-width:1.00000012;stroke-miterlimit:4;stroke-dasharray:none" />
      <path
         id="path6653"
         d="m 328.67631,39.250001 a 2.730813,2.7495027 0 0 0 2.51368,-1.674469 l 3.98632,0 0,-1.869854 -3.88839,0 A 2.730813,2.7495027 0 0 0 328.67631,33.75 2.730813,2.7495027 0 0 0 326.0629,35.705678 l -3.88659,0 0,1.869854 3.98995,0 a 2.730813,2.7495027 0 0 0 2.51005,1.674469 z"
         inkscape:connector-curvature="0"
         style="fill:#999999;stroke:#808080;stroke-width:0.50000006;stroke-miterlimit:4;stroke-dasharray:none;stroke-opacity:1" />
    </g>
    <g
       id="SlotBR">
      <circle
         id="circle4616"
         cx="328.70001"
         cy="115"
         r="6.25"
         style="fill:#b3b3b3;stroke:#808080" />
      <path
         id="path4618"
         d="m 328.70001,117.75 a 2.7308125,2.7495079 0 0 0 2.51367,-1.67447 l 3.98633,0 0,-1.86985 -3.88839,0 a 2.7308125,2.7495079 0 0 0 -2.61161,-1.95568 2.7308125,2.7495079 0 0 0 -2.61342,1.95568 l -3.88658,0 0,1.86985 3.98995,0 a 2.7308125,2.7495079 0 0 0 2.51005,1.67447 z"
         inkscape:connector-curvature="0"
         style="fill:#999999;stroke:#808080;stroke-width:0.50000006;stroke-miterlimit:4;stroke-dasharray:none;stroke-opacity:0.88235294" />
    </g>
    <g
       id="SlotTL">
      <circle
         style="fill:#b3b3b3;stroke:#808080"
         r="6.25"
         cy="36.5"
         cx="14.3"
         id="circle4226" />
      <path
         style="fill:#999999;stroke:#808080;stroke-width:0.50000006;stroke-miterlimit:4;stroke-dasharray:none;stroke-opacity:0.88235294"
         inkscape:connector-curvature="0"
         d="m 14.3,39.250001 a 2.730813,2.7495027 0 0 0 2.51368,-1.674469 l 3.98632,0 0,-1.869854 -3.88839,0 A 2.730813,2.7495027 0 0 0 14.3,33.75 2.730813,2.7495027 0 0 0 11.68659,35.705678 l -3.8865897,0 0,1.869854 3.9899497,0 A 2.730813,2.7495027 0 0 0 14.3,39.250001 Z"
         id="path4228" />
    </g>
    <g
       id="SlotBL">
      <circle
         id="circle4232"
         cx="14.3"
         cy="115"
         r="6.25"
         style="fill:#b3b3b3;stroke:#808080;stroke-width:1.00000012;stroke-miterlimit:4;stroke-dasharray:none" />
      <path
         id="path4234"
         d="m 14.3,117.75 a 2.730813,2.7495027 0 0 0 2.51368,-1.67447 l 3.98632,0 0,-1.86985 -3.88839,0 A 2.730813,2.7495027 0 0 0 14.3,112.25 a 2.730813,2.7495027 0 0 0 -2.61341,1.95568 l -3.8865898,0 0,1.86985 3.9899498,0 A 2.730813,2.7495027 0 0 0 14.3,117.75 Z"
         inkscape:connector-curvature="0"
         style="fill:#999999;stroke:#808080;stroke-width:0.50000006;stroke-miterlimit:4;stroke-dasharray:none;stroke-opacity:0.88235294" />
    </g>
  </g>
</svg>
