<svg id="svg2" height="498.79993" viewBox="0 0 743.79997 498.79989" width="743.79993" xmlns="http://www.w3.org/2000/svg"><g id="FrontPanel_500X800_PHDX2402"><path id="path4163" d="m0 0v498h743v-498zm337.5 79.25h55v106h-55zm0 233.5h55v106h-55z" fill="#c5c7c4" fill-opacity=".8" stroke="#999" stroke-width=".8" transform="translate(0 -.000046)"/><g id="SlotTR"><circle id="circle6651" cx="728.70001" cy="49" fill="#b3b3b3" r="6.25" stroke="#808080"/><path id="path6653" d="m728.91593 51.771873a2.4774237 2.7713705 0 0 0 2.28044-1.687787h3.61643v-1.884726h-3.52759a2.4774237 2.7713705 0 0 0 -2.36928-1.971232 2.4774237 2.7713705 0 0 0 -2.37091 1.971232h-3.52596v1.884726h3.61972a2.4774237 2.7713705 0 0 0 2.27715 1.687787z" fill="#999" stroke="#808080" stroke-width=".956257"/></g><g id="SlotTL" transform="translate(.4 .399954)"><circle id="circle4226" cx="15.4" cy="49.299999" fill="#b3b3b3" r="6.25" stroke="#808080"/><path id="path4228" d="m15.399999 52.05a2.730813 2.7495027 0 0 0 2.51368-1.674469h3.98632v-1.869854h-3.88839a2.730813 2.7495027 0 0 0 -2.61161-1.955678 2.730813 2.7495027 0 0 0 -2.61341 1.955678h-3.8865892v1.869854h3.9899492a2.730813 2.7495027 0 0 0 2.51005 1.674469z" fill="#999" stroke="#808080" stroke-opacity=".882353"/></g><g id="SlotBL" transform="translate(.4 .399954)"><circle id="circle4232" cx="15.4" cy="449.29999" fill="#b3b3b3" r="6.25" stroke="#808080"/><path id="path4234" d="m15.4 452.04999a2.730813 2.7495027 0 0 0 2.51368-1.67447h3.98632v-1.86985h-3.88839a2.730813 2.7495027 0 0 0 -2.61161-1.95568 2.730813 2.7495027 0 0 0 -2.61341 1.95568h-3.8865904v1.86985h3.9899504a2.730813 2.7495027 0 0 0 2.51005 1.67447z" fill="#999" stroke="#808080" stroke-opacity=".882353"/></g><g id="SlotBR"><circle id="circle4616" cx="728.70001" cy="449" fill="#b3b3b3" r="6.25" stroke="#808080"/><path id="path4618" d="m728.68091 451.78787a2.3011132 2.7873723 0 0 0 2.11814-1.69753h3.35906v-1.8956h-3.27654a2.3011132 2.7873723 0 0 0 -2.20066-1.98261 2.3011132 2.7873723 0 0 0 -2.2022 1.98261h-3.27502v1.8956h3.36212a2.3011132 2.7873723 0 0 0 2.1151 1.69753z" fill="#999" stroke="#808080" stroke-opacity=".882353" stroke-width=".924258"/></g></g></svg>