<svg id="svg2" height="398.79999" viewBox="0 0 543.80003 398.79995" width="543.79999" xmlns="http://www.w3.org/2000/svg"><path id="FrontPanel_600X350_PVCX4400" d="m0 0v348h543v-348zm238.90039 119h101v38h29.5v36h-29.5v17h-101z" fill="#c5c7c4" fill-opacity=".8" stroke="#999" stroke-width=".8" transform="translate(0 -.000046)"/><path id="FrontPanel_600X300_PVCX4401" d="m0 0v298h543v-298zm199 120h145v97h-145z" fill="#c5c7c4" fill-opacity=".8" stroke="#999" stroke-width=".8" transform="translate(0 -.000046)"/><path id="FrontPanel_600X300_PVCX4404" d="m0 0v298h543v-298zm238.5 94h101v91h-101z" fill="#c5c7c4" fill-opacity=".8" stroke="#999" stroke-width=".8" transform="translate(0 -.000046)"/><path id="FrontPanel_600X300_PVCX4405" d="m0 0v298h543v-298zm248 93.5h82v89h-82z" fill="#c5c7c4" fill-opacity=".8" stroke="#999" stroke-width=".8" transform="translate(0 -.000046)"/><path id="FrontPanel_600X350_PVCX4407" d="m0 0v348h543v-348zm199 145h145v97h-145z" fill="#c5c7c4" fill-opacity=".8" stroke="#999" stroke-width=".8" transform="translate(0 -.000046)"/><path id="FrontPanel_600X350_PVCX4409" d="m0 0v348h543v-348zm238.5 119h101v91h-101z" fill="#c5c7c4" fill-opacity=".8" stroke="#999" stroke-width=".8" transform="translate(0 -.000046)"/><path id="FrontPanel_600X350_PVCX4410" d="m0 0v348h543v-348zm230.40039 119h82v37h39v37h-39v15h-82z" fill="#c5c7c4" fill-opacity=".8" stroke="#999" stroke-width=".8" transform="translate(0 -.000046)"/><path id="FrontPanel_600X350_PVCX4412" d="m0 0v348h543v-348zm238.90039 118.90039h101v37h29.5v37h-29.5v17h-101z" fill="#c5c7c4" fill-opacity=".8" stroke="#999" stroke-width=".8" transform="translate(0 -.000046)"/><path id="FrontPanel_600X400_PVCX4417" d="m0 0v398h543v-398zm238.90039 144h101v37h29.5v37h-29.5v17h-101zm-39.40039 131.5h144v68h-144z" fill="#c5c7c4" fill-opacity=".8" stroke="#999" stroke-width=".8" transform="translate(0 -.000046)"/><path id="FrontPanel_600X400_PVCX4423" d="m0 0v398h543v-398zm195.5 132h145v173h-145z" fill="#c5c7c4" fill-opacity=".8" stroke="#999" stroke-width=".8" transform="translate(0 -.000046)"/><path id="FrontPanel_600X350_PVCX4427" d="m0 0v348h543v-348zm248 118.5h82v89h-82z" fill="#c5c7c4" fill-opacity=".8" stroke="#999" stroke-width=".8" transform="translate(0 -.000046)"/><path id="FrontPanel_600X300_PVCX4601" d="m0 0v298h543v-298zm86.5 111.5h145v55h-145zm225 0h145v55h-145z" fill="#c5c7c4" fill-opacity=".8" stroke="#999" stroke-width=".8" transform="translate(0 -.000046)"/><path id="FrontPanel_600X350_PVCX4607" d="m0 0v348h543v-348zm79 145h145v97h-145zm240 0h145v97h-145z" fill="#c5c7c4" fill-opacity=".8" stroke="#999" stroke-width=".8" transform="translate(0 -.000046)"/><path id="FrontPanel_600X300_PVCX4701" d="m0 0v298h543v-298zm51.5 81h110v97h-110zm165 0h110v97h-110zm165 0h110v97h-110z" fill="#c5c7c4" fill-opacity=".8" stroke="#999" stroke-width=".8" transform="translate(0 -.000046)"/><path id="FrontPanel_600X350_PVCX4707" d="m0 0v348h543v-348zm51.5 106h110v97h-110zm165 0h110v97h-110zm165 0h110v97h-110z" fill="#c5c7c4" fill-opacity=".8" stroke="#999" stroke-width=".8" transform="translate(0 -.000046)"/><g id="SlotTR"><circle id="circle4150" cx="528.70203" cy="49.016998" fill="#b3b3b3" r="6.25" stroke="#808080"/><path id="path4152" d="m528.70203 51.766999a2.730813 2.7495027 0 0 0 2.51368-1.674469h3.98632v-1.869854h-3.88839a2.730813 2.7495027 0 0 0 -2.61161-1.955678 2.730813 2.7495027 0 0 0 -2.61341 1.955678h-3.88659v1.869854h3.98995a2.730813 2.7495027 0 0 0 2.51005 1.674469z" fill="#999" stroke="#808080" stroke-opacity=".882353"/></g><g id="SlotTL"><circle id="circle4226" cx="14.359" cy="49.016998" fill="#b3b3b3" r="6.25" stroke="#808080"/><path id="path4228" d="m14.359 51.766999a2.730813 2.7495027 0 0 0 2.51368-1.674469h3.98632v-1.869854h-3.88839a2.730813 2.7495027 0 0 0 -2.61161-1.955678 2.730813 2.7495027 0 0 0 -2.61341 1.955678h-3.8865894v1.869854h3.9899494a2.730813 2.7495027 0 0 0 2.51005 1.674469z" fill="#999" stroke="#808080" stroke-opacity=".882353"/></g><g id="SlotBR"><circle id="circle4616" cx="528.35901" cy="349.00201" fill="#b3b3b3" r="6.25" stroke="#808080"/><path id="path4618" d="m528.35901 351.75201a2.7308125 2.7495079 0 0 0 2.51367-1.67447h3.98633v-1.86985h-3.88839a2.7308125 2.7495079 0 0 0 -2.61161-1.95568 2.7308125 2.7495079 0 0 0 -2.61342 1.95568h-3.88658v1.86985h3.98995a2.7308125 2.7495079 0 0 0 2.51005 1.67447z" fill="#999" stroke="#808080" stroke-opacity=".882353"/></g><g id="SlotBL"><circle id="circle6651-1" cx="14.359" cy="349.00201" fill="#b3b3b3" r="6.25" stroke="#808080"/><path id="path6653-1" d="m14.359 351.75201a2.730813 2.7495027 0 0 0 2.51368-1.67447h3.98632v-1.86985h-3.88839a2.730813 2.7495027 0 0 0 -2.61161-1.95568 2.730813 2.7495027 0 0 0 -2.61341 1.95568h-3.8865895v1.86985h3.9899495a2.730813 2.7495027 0 0 0 2.51005 1.67447z" fill="#999" stroke="#808080"/></g></svg>