<?xml version="1.0" encoding="UTF-8" standalone="no"?>
<svg
   xmlns:dc="http://purl.org/dc/elements/1.1/"
   xmlns:cc="http://creativecommons.org/ns#"
   xmlns:rdf="http://www.w3.org/1999/02/22-rdf-syntax-ns#"
   xmlns:svg="http://www.w3.org/2000/svg"
   xmlns="http://www.w3.org/2000/svg"
   xmlns:sodipodi="http://sodipodi.sourceforge.net/DTD/sodipodi-0.dtd"
   xmlns:inkscape="http://www.inkscape.org/namespaces/inkscape"
   id="svg2"
   height="698.79999"
   viewBox="0 0 1193.8 698.79993"
   width="1193.7999"
   version="1.1"
   inkscape:version="0.91 r13725"
   sodipodi:docname="Kit_breaker_Emax.svg">
  <metadata
     id="metadata72">
    <rdf:RDF>
      <cc:Work
         rdf:about="">
        <dc:format>image/svg+xml</dc:format>
        <dc:type
           rdf:resource="http://purl.org/dc/dcmitype/StillImage" />
      </cc:Work>
    </rdf:RDF>
  </metadata>
  <defs
     id="defs70" />
  <sodipodi:namedview
     pagecolor="#ffffff"
     bordercolor="#666666"
     borderopacity="1"
     objecttolerance="10"
     gridtolerance="10"
     guidetolerance="10"
     inkscape:pageopacity="0"
     inkscape:pageshadow="2"
     inkscape:window-width="1920"
     inkscape:window-height="1017"
     id="namedview68"
     showgrid="false"
     inkscape:zoom="0.29150613"
     inkscape:cx="-195.96616"
     inkscape:cy="349.39999"
     inkscape:window-x="-8"
     inkscape:window-y="-8"
     inkscape:window-maximized="1"
     inkscape:current-layer="svg2" />
  <path
     id="FrontPanel_600X400_PHCE1241"
     d="m 543,397.99995 0,-398.00000042 -543.000000010000007,0 0,398.00000042 z m -171.5,-40 a 1.9999994,1.9999988 0 0 1 -1.99999,-2 1.9999994,1.9999988 0 0 1 1.99999,-2 1.9999994,1.9999988 0 0 1 2,2 1.9999994,1.9999988 0 0 1 -2,2 z m -199.99999,0 a 1.9999995,1.999999 0 0 1 -2.00001,-2 1.9999995,1.999999 0 0 1 2.00001,-2 1.9999995,1.999999 0 0 1 2,2 1.9999995,1.999999 0 0 1 -2,2 z m 211.99999,-11 -224,0 0,-226.00001 224,0 z m 15,-111 a 1.9999996,1.9999992 0 0 1 -2,-2 1.9999996,1.9999992 0 0 1 2,-2 1.9999996,1.9999992 0 0 1 2,2 1.9999996,1.9999992 0 0 1 -2,2 z m -254,0 a 1.9999997,1.9999994 0 0 1 -2,-2 1.9999997,1.9999994 0 0 1 2,-2 1.9999997,1.9999994 0 0 1 2,2 1.9999997,1.9999994 0 0 1 -2,2 z m 227,-121.99999 a 1.9999998,1.9999996 0 0 1 -1.99999,-2 1.9999998,1.9999996 0 0 1 1.99999,-2 1.9999998,1.9999996 0 0 1 2,2 1.9999998,1.9999996 0 0 1 -2,2 z m -199.99999,0 a 1.9999999,1.9999998 0 0 1 -2.00001,-2 1.9999999,1.9999998 0 0 1 2.00001,-2 1.9999999,1.9999998 0 0 1 2,2 1.9999999,1.9999998 0 0 1 -2,2 z"
     inkscape:connector-curvature="0"
     style="fill:#c5c7c4;fill-opacity:0.8;stroke:#999999;stroke-width:0.80000001" />
  <path
     id="FrontPanel_1000X700_PVFE1263"
     d="m 943,497.99996 0,-498.00001753 -943.000000010000007,0 0,498.00001753 z m -304.5,-89 a 1.9999986,1.999997 0 0 1 -2,-2 1.9999986,1.999997 0 0 1 2,-2 1.9999986,1.999997 0 0 1 2,2 1.9999986,1.999997 0 0 1 -2,2 z m 143.5,-0.5 a 1.9999983,1.9999966 0 0 1 -2,-2 1.9999983,1.9999966 0 0 1 2,-2 1.9999983,1.9999966 0 0 1 2,2 1.9999983,1.9999966 0 0 1 -2,2 z m -287,0 a 1.9999987,1.9999972 0 0 1 -2,-2 1.9999987,1.9999972 0 0 1 2,-2 1.9999987,1.9999972 0 0 1 2,2 1.9999987,1.9999972 0 0 1 -2,2 z m -130,0 a 1.9999997,1.9999988 0 0 1 -2,-2 1.9999997,1.9999988 0 0 1 2,-2 1.9999997,1.9999988 0 0 1 2,2 1.9999997,1.9999988 0 0 1 -2,2 z m -145.49999,0 a 1.9999998,1.999999 0 0 1 -2,-2 1.9999998,1.999999 0 0 1 2,-2 1.9999998,1.999999 0 0 1 1.99999,2 1.9999998,1.999999 0 0 1 -1.99999,2 z m -141.500005,0 a 1.9999999,1.9999992 0 0 1 -1.999999,-2 1.9999999,1.9999992 0 0 1 1.999999,-2 1.9999999,1.9999992 0 0 1 2,2 1.9999999,1.9999992 0 0 1 -2,2 z m 696.499995,-9.5 -274,0 0,-262 274,0 z m -417,0 -273.999995,0 0,-262 273.999995,0 z m 424.5,-129 a 1.9999989,1.9999976 0 0 1 -2,-2 1.9999989,1.9999976 0 0 1 2,-2 1.9999989,1.9999976 0 0 1 2,2 1.9999989,1.9999976 0 0 1 -2,2 z m -287,0 a 1.9999988,1.9999974 0 0 1 -2,-2 1.9999988,1.9999974 0 0 1 2,-2 1.9999988,1.9999974 0 0 1 2,2 1.9999988,1.9999974 0 0 1 -2,2 z m -130,0 a 2.0000001,1.9999996 0 0 1 -2,-2 2.0000001,1.9999996 0 0 1 2,-2 2.0000001,1.9999996 0 0 1 2,2 2.0000001,1.9999996 0 0 1 -2,2 z m -286.999995,0 a 2,1.9999994 0 0 1 -1.999999,-2 2,1.9999994 0 0 1 1.999999,-2 2,1.9999994 0 0 1 2,2 2,1.9999994 0 0 1 -2,2 z M 782,131.49996 a 1.999999,1.9999978 0 0 1 -2,-2 1.999999,1.9999978 0 0 1 2,-2 1.999999,1.9999978 0 0 1 2,2 1.999999,1.9999978 0 0 1 -2,2 z m -143.5,0 a 1.9999994,1.9999982 0 0 1 -2,-2 1.9999994,1.9999982 0 0 1 2,-2 1.9999994,1.9999982 0 0 1 2,2 1.9999994,1.9999982 0 0 1 -2,2 z m -143.5,0 a 1.9999992,1.9999982 0 0 1 -2,-2 1.9999992,1.9999982 0 0 1 2,-2 1.9999992,1.9999982 0 0 1 2,2 1.9999992,1.9999982 0 0 1 -2,2 z m -130,-5.80078 a 2.0000002,1.9999998 0 0 1 -2,-2 2.0000002,1.9999998 0 0 1 2,-2 2.0000002,1.9999998 0 0 1 2,2 2.0000002,1.9999998 0 0 1 -2,2 z m -145.49999,-1 a 2.0000003,2 0 0 1 -2,-2 2.0000003,2 0 0 1 2,-2 2.0000003,2 0 0 1 1.99999,2 2.0000003,2 0 0 1 -1.99999,2 z M 78.000005,121.99996 a 2.0000004,2.0000002 0 0 1 -1.999999,-2 2.0000004,2.0000002 0 0 1 1.999999,-2 2.0000004,2.0000002 0 0 1 2,2 2.0000004,2.0000002 0 0 1 -2,2 z"
     inkscape:connector-curvature="0"
     style="fill:#c5c7c4;fill-opacity:0.8;stroke:#999999;stroke-width:0.80000001" />
  <path
     id="FrontPanel_800X400_PHDE1241"
     d="M -1e-8,-5.047e-5 -1e-8,397.99995 743,397.99995 743,-5.047e-5 -1.0000008e-8,-5.047e-5 Z M 271.5,109.99995 a 1.9999997,1.9999992 0 0 1 2,2 1.9999997,1.9999992 0 0 1 -2,2 1.9999997,1.9999992 0 0 1 -2,-2 1.9999997,1.9999992 0 0 1 2,-2 z m 200,0 a 1.9999998,1.9999994 0 0 1 2,2 1.9999998,1.9999994 0 0 1 -2,2 1.9999998,1.9999994 0 0 1 -2,-2 1.9999998,1.9999994 0 0 1 2,-2 z m -212,11 224,0 0,226 -224,0 z m -15,111 a 1.9999994,1.9999988 0 0 1 2,2 1.9999994,1.9999988 0 0 1 -2,2 1.9999994,1.9999988 0 0 1 -2,-2 1.9999994,1.9999988 0 0 1 2,-2 z m 254,0 a 1.9999999,1.9999996 0 0 1 2,2 1.9999999,1.9999996 0 0 1 -2,2 1.9999999,1.9999996 0 0 1 -2,-2 1.9999999,1.9999996 0 0 1 2,-2 z m -227,122 a 2.0000001,2 0 0 1 2,2 2.0000001,2 0 0 1 -2,2 2.0000001,2 0 0 1 -2,-2 2.0000001,2 0 0 1 2,-2 z m 200,0 a 2,1.9999998 0 0 1 2,2 2,1.9999998 0 0 1 -2,2 2,1.9999998 0 0 1 -2,-2 2,1.9999998 0 0 1 2,-2 z"
     inkscape:connector-curvature="0"
     style="fill:#c5c7c4;fill-opacity:0.8;stroke:#999999;stroke-width:0.80000001" />
  <path
     id="FrontPanel_800X500_PHDE1240"
     d="M -1e-8,-5.017e-5 -1e-8,497.99996 743,497.99996 743,-5.017e-5 -1.0000008e-8,-5.017e-5 Z M 214,39.499949 a 1.9999992,1.9999984 0 0 1 2,2 1.9999992,1.9999984 0 0 1 -2,2 1.9999992,1.9999984 0 0 1 -2,-2 1.9999992,1.9999984 0 0 1 2,-2 z m 138.5,0 a 1.9999998,1.999999 0 0 1 2,2 1.9999998,1.999999 0 0 1 -2,2 1.9999998,1.999999 0 0 1 -2,-2 1.9999998,1.999999 0 0 1 2,-2 z m 138.5,0 a 1.9999996,1.999999 0 0 1 2,2 1.9999996,1.999999 0 0 1 -2,2 1.9999996,1.999999 0 0 1 -2,-2 1.9999996,1.999999 0 0 1 2,-2 z m -269.5,7.5 262,0 0,274.000011 -262,0 z M 214,182.99996 a 1.9999998,1.9999994 0 0 1 2,2 1.9999998,1.9999994 0 0 1 -2,2 1.9999998,1.9999994 0 0 1 -2,-2 1.9999998,1.9999994 0 0 1 2,-2 z m 277,0 a 1.9999997,1.9999992 0 0 1 2,2 1.9999997,1.9999992 0 0 1 -2,2 1.9999997,1.9999992 0 0 1 -2,-2 1.9999997,1.9999992 0 0 1 2,-2 z m -277,143.5 a 1.9999999,1.9999996 0 0 1 2,2 1.9999999,1.9999996 0 0 1 -2,2 1.9999999,1.9999996 0 0 1 -2,-2 1.9999999,1.9999996 0 0 1 2,-2 z m 138.5,0 a 2.0000003,2 0 0 1 2,2 2.0000003,2 0 0 1 -2,2 2.0000003,2 0 0 1 -2,-2 2.0000003,2 0 0 1 2,-2 z m 138.5,0 a 2.0000001,2 0 0 1 2,2 2.0000001,2 0 0 1 -2,2 2.0000001,2 0 0 1 -2,-2 2.0000001,2 0 0 1 2,-2 z"
     inkscape:connector-curvature="0"
     style="fill:#c5c7c4;fill-opacity:0.8;stroke:#999999;stroke-width:0.80000001" />
  <path
     id="FrontPanel_400X450_PVBE1241"
     d="M -1e-8,-4.613e-5 -1e-8,447.99995 343,447.99995 343,-4.613e-5 -1.0000008e-8,-4.613e-5 Z M 171.5,94.999953 a 1.9999997,1.9999992 0 0 1 2,2 1.9999997,1.9999992 0 0 1 -2,2 1.9999997,1.9999992 0 0 1 -2,-2 1.9999997,1.9999992 0 0 1 2,-2 z m -113,16.999997 226,0 0,224 -226,0 z m -9,10 a 1.9999994,1.9999988 0 0 1 2,2 1.9999994,1.9999988 0 0 1 -2,2 1.9999994,1.9999988 0 0 1 -2,-2 1.9999994,1.9999988 0 0 1 2,-2 z m 244,0 a 2.0000001,1.9999996 0 0 1 2,2 2.0000001,1.9999996 0 0 1 -2,2 2.0000001,1.9999996 0 0 1 -2,-2 2.0000001,1.9999996 0 0 1 2,-2 z m -244,200 a 2.0000001,2 0 0 1 2,2 2.0000001,2 0 0 1 -2,2 2.0000001,2 0 0 1 -2,-2 2.0000001,2 0 0 1 2,-2 z m 244,0 a 2.0000005,2.0000003 0 0 1 2,2 2.0000005,2.0000003 0 0 1 -2,2 2.0000005,2.0000003 0 0 1 -2,-2 2.0000005,2.0000003 0 0 1 2,-2 z m -122,27 a 2.0000002,1.9999998 0 0 1 2,2 2.0000002,1.9999998 0 0 1 -2,2 2.0000002,1.9999998 0 0 1 -2,-2 2.0000002,1.9999998 0 0 1 2,-2 z"
     inkscape:connector-curvature="0"
     style="fill:#c5c7c4;fill-opacity:0.8;stroke:#999999;stroke-width:0.80000001" />
  <path
     id="FrontPanel_600X450_PVCE1241"
     d="M -1e-8,-4.613e-5 -1e-8,447.99995 543,447.99995 543,-4.613e-5 -1.0000008e-8,-4.613e-5 Z M 306.5,94.999953 a 1.9999997,1.9999992 0 0 1 2,2 1.9999997,1.9999992 0 0 1 -2,2 1.9999997,1.9999992 0 0 1 -2,-2 1.9999997,1.9999992 0 0 1 2,-2 z m -113,16.999997 226,0 0,224 -226,0 z m -9,10 a 1.9999994,1.9999988 0 0 1 2,2 1.9999994,1.9999988 0 0 1 -2,2 1.9999994,1.9999988 0 0 1 -2,-2 1.9999994,1.9999988 0 0 1 2,-2 z m 244,0 a 1.9999998,1.9999994 0 0 1 2,2 1.9999998,1.9999994 0 0 1 -2,2 1.9999998,1.9999994 0 0 1 -2,-2 1.9999998,1.9999994 0 0 1 2,-2 z m -244,200 a 1.9999999,1.9999996 0 0 1 2,2 1.9999999,1.9999996 0 0 1 -2,2 1.9999999,1.9999996 0 0 1 -2,-2 1.9999999,1.9999996 0 0 1 2,-2 z m 244,0 a 2.0000001,2 0 0 1 2,2 2.0000001,2 0 0 1 -2,2 2.0000001,2 0 0 1 -2,-2 2.0000001,2 0 0 1 2,-2 z m -122,27 a 2,1.9999998 0 0 1 2,2 2,1.9999998 0 0 1 -2,2 2,1.9999998 0 0 1 -2,-2 2,1.9999998 0 0 1 2,-2 z"
     inkscape:connector-curvature="0"
     style="fill:#c5c7c4;fill-opacity:0.8;stroke:#999999;stroke-width:0.80000001" />
  <path
     id="FrontPanel_800X450_PVDE1262"
     d="m-.00000001-.00004613v447.99999613h743.00000001v-447.99999613h-743.00000001zm226.00000001 94.99999913a1.999999 1.9999978 0 0 1 2 2 1.999999 1.9999978 0 0 1 -2 2 1.999999 1.9999978 0 0 1 -2-2 1.999999 1.9999978 0 0 1 2-2zm340 0a2 1.9999994 0 0 1 2 2 2 1.9999994 0 0 1 -2 2 2 1.9999994 0 0 1 -2-2 2 1.9999994 0 0 1 2-2zm-113 16.999997h226v224h-226zm-341 1h226v224h-226zm-8 9a1.9999987 1.9999974 0 0 1 2 2 1.9999987 1.9999974 0 0 1 -2 2 1.9999987 1.9999974 0 0 1 -2-2 1.9999987 1.9999974 0 0 1 2-2zm244 0a1.9999991 1.999998 0 0 1 2 2 1.9999991 1.999998 0 0 1 -2 2 1.9999991 1.999998 0 0 1 -2-2 1.9999991 1.999998 0 0 1 2-2zm96 0a1.9999999 1.9999992 0 0 1 2 2 1.9999999 1.9999992 0 0 1 -2 2 1.9999999 1.9999992 0 0 1 -2-2 1.9999999 1.9999992 0 0 1 2-2zm244 0a2.0000001 1.9999996 0 0 1 2 2 2.0000001 1.9999996 0 0 1 -2 2 2.0000001 1.9999996 0 0 1 -2-2 2.0000001 1.9999996 0 0 1 2-2zm-584 200a1.9999994 1.9999986 0 0 1 2 2 1.9999994 1.9999986 0 0 1 -2 2 1.9999994 1.9999986 0 0 1 -2-2 1.9999994 1.9999986 0 0 1 2-2zm244 0a1.9999992 1.9999982 0 0 1 2 2 1.9999992 1.9999982 0 0 1 -2 2 1.9999992 1.9999982 0 0 1 -2-2 1.9999992 1.9999982 0 0 1 2-2zm96 0a2.0000004 2.0000002 0 0 1 2 2 2.0000004 2.0000002 0 0 1 -2 2 2.0000004 2.0000002 0 0 1 -2-2 2.0000004 2.0000002 0 0 1 2-2zm244 0a2.0000002 1.9999998 0 0 1 2 2 2.0000002 1.9999998 0 0 1 -2 2 2.0000002 1.9999998 0 0 1 -2-2 2.0000002 1.9999998 0 0 1 2-2zm-462 27a1.9999993 1.9999984 0 0 1 2 2 1.9999993 1.9999984 0 0 1 -2 2 1.9999993 1.9999984 0 0 1 -2-2 1.9999993 1.9999984 0 0 1 2-2zm340 0a2.0000003 2 0 0 1 2 2 2.0000003 2 0 0 1 -2 2 2.0000003 2 0 0 1 -2-2 2.0000003 2 0 0 1 2-2z"
     fill="#c5c7c4"
     fill-opacity=".8"
     stroke="#999"
     stroke-width=".8" />
  <path
     id="FrontPanel_800X450_PVDE1241"
     d="M -1e-8,-4.613e-5 -1e-8,447.99995 743,447.99995 743,-4.613e-5 -1.0000008e-8,-4.613e-5 Z M 406.5,94.999953 a 1.9999996,1.999999 0 0 1 2,2 1.9999996,1.999999 0 0 1 -2,2 1.9999996,1.999999 0 0 1 -2,-2 1.9999996,1.999999 0 0 1 2,-2 z m -113,16.999997 226,0 0,224 -226,0 z m -9,10 a 1.9999996,1.9999992 0 0 1 2,2 1.9999996,1.9999992 0 0 1 -2,2 1.9999996,1.9999992 0 0 1 -2,-2 1.9999996,1.9999992 0 0 1 2,-2 z m 244,0 a 1.9999997,1.9999992 0 0 1 2,2 1.9999997,1.9999992 0 0 1 -2,2 1.9999997,1.9999992 0 0 1 -2,-2 1.9999997,1.9999992 0 0 1 2,-2 z m -244,200 a 1.9999999,1.9999996 0 0 1 2,2 1.9999999,1.9999996 0 0 1 -2,2 1.9999999,1.9999996 0 0 1 -2,-2 1.9999999,1.9999996 0 0 1 2,-2 z m 244,0 a 2.0000001,2 0 0 1 2,2 2.0000001,2 0 0 1 -2,2 2.0000001,2 0 0 1 -2,-2 2.0000001,2 0 0 1 2,-2 z m -122,27 a 2,1.9999998 0 0 1 2,2 2,1.9999998 0 0 1 -2,2 2,1.9999998 0 0 1 -2,-2 2,1.9999998 0 0 1 2,-2 z"
     inkscape:connector-curvature="0"
     style="fill:#c5c7c4;fill-opacity:0.8;stroke:#999999;stroke-width:0.80000001" />
  <path
     id="FrontPanel_600X500_PVCE1240"
     d="M -1e-8,-5.017e-5 -1e-8,497.99996 543,497.99996 543,-5.017e-5 -1.0000008e-8,-5.017e-5 Z M 149,89.499949 a 1.9999992,1.9999984 0 0 1 2,2 1.9999992,1.9999984 0 0 1 -2,2 1.9999992,1.9999984 0 0 1 -2,-2 1.9999992,1.9999984 0 0 1 2,-2 z m 145.5,0 a 1.9999995,1.9999988 0 0 1 2,2 1.9999995,1.9999988 0 0 1 -2,2 1.9999995,1.9999988 0 0 1 -2,-2 1.9999995,1.9999988 0 0 1 2,-2 z m 145,0 a 1.9999996,1.999999 0 0 1 2,2 1.9999996,1.999999 0 0 1 -2,2 1.9999996,1.999999 0 0 1 -2,-2 1.9999996,1.999999 0 0 1 2,-2 z m -283,9.5 274,0 0,262.000011 -274,0 z M 149,227.99996 a 1.9999997,1.9999992 0 0 1 2,2 1.9999997,1.9999992 0 0 1 -2,2 1.9999997,1.9999992 0 0 1 -2,-2 1.9999997,1.9999992 0 0 1 2,-2 z m 290.5,0 a 1.9999998,1.9999994 0 0 1 2,2 1.9999998,1.9999994 0 0 1 -2,2 1.9999998,1.9999994 0 0 1 -2,-2 1.9999998,1.9999994 0 0 1 2,-2 z m -290.5,138.5 a 1.9999999,1.9999996 0 0 1 2,2 1.9999999,1.9999996 0 0 1 -2,2 1.9999999,1.9999996 0 0 1 -2,-2 1.9999999,1.9999996 0 0 1 2,-2 z m 145.5,0 a 2,1.9999998 0 0 1 2,2 2,1.9999998 0 0 1 -2,2 2,1.9999998 0 0 1 -2,-2 2,1.9999998 0 0 1 2,-2 z m 145,0 a 2.0000001,2 0 0 1 2,2 2.0000001,2 0 0 1 -2,2 2.0000001,2 0 0 1 -2,-2 2.0000001,2 0 0 1 2,-2 z"
     inkscape:connector-curvature="0"
     style="fill:#c5c7c4;fill-opacity:0.8;stroke:#999999;stroke-width:0.80000001" />
  <path
     id="FrontPanel_800X500_PVDE1240"
     d="M -1e-8,-5.017e-5 -1e-8,497.99996 743,497.99996 743,-5.017e-5 -1.0000008e-8,-5.017e-5 Z M 249,89.499949 a 1.9999992,1.9999984 0 0 1 2,2 1.9999992,1.9999984 0 0 1 -2,2 1.9999992,1.9999984 0 0 1 -2,-2 1.9999992,1.9999984 0 0 1 2,-2 z m 145,0 a 1.9999995,1.9999988 0 0 1 2,2 1.9999995,1.9999988 0 0 1 -2,2 1.9999995,1.9999988 0 0 1 -2,-2 1.9999995,1.9999988 0 0 1 2,-2 z m 145.5,0 a 1.9999996,1.999999 0 0 1 2,2 1.9999996,1.999999 0 0 1 -2,2 1.9999996,1.999999 0 0 1 -2,-2 1.9999996,1.999999 0 0 1 2,-2 z m -283,9.5 274,0 0,262.000011 -274,0 z M 249,227.99996 a 2.0000001,2 0 0 1 2,2 2.0000001,2 0 0 1 -2,2 2.0000001,2 0 0 1 -2,-2 2.0000001,2 0 0 1 2,-2 z m 290.5,0 a 1.9999997,1.9999992 0 0 1 2,2 1.9999997,1.9999992 0 0 1 -2,2 1.9999997,1.9999992 0 0 1 -2,-2 1.9999997,1.9999992 0 0 1 2,-2 z m -290.5,138.5 a 2,1.9999998 0 0 1 2,2 2,1.9999998 0 0 1 -2,2 2,1.9999998 0 0 1 -2,-2 2,1.9999998 0 0 1 2,-2 z m 145,0 a 1.9999999,1.9999996 0 0 1 2,2 1.9999999,1.9999996 0 0 1 -2,2 1.9999999,1.9999996 0 0 1 -2,-2 1.9999999,1.9999996 0 0 1 2,-2 z m 145.5,0 a 1.9999998,1.9999994 0 0 1 2,2 1.9999998,1.9999994 0 0 1 -2,2 1.9999998,1.9999994 0 0 1 -2,-2 1.9999998,1.9999994 0 0 1 2,-2 z"
     inkscape:connector-curvature="0"
     style="fill:#c5c7c4;fill-opacity:0.8;stroke:#999999;stroke-width:0.80000001" />
  <path
     id="FrontPanel_600X600_PVCE2441"
     d="M -1e-8,-3.825e-5 -1e-8,597.99996 543,597.99996 543,-3.825e-5 -1.0000008e-8,-3.825e-5 Z M 234.5,104.49996 a 1.9999992,1.9999984 0 0 1 2,2 1.9999992,1.9999984 0 0 1 -2,2 1.9999992,1.9999984 0 0 1 -2,-2 1.9999992,1.9999984 0 0 1 2,-2 z m 200,0 a 1.9999993,1.9999986 0 0 1 2,2 1.9999993,1.9999986 0 0 1 -2,2 1.9999993,1.9999986 0 0 1 -2,-2 1.9999993,1.9999986 0 0 1 2,-2 z m -253,7 306,0 0,348 -306,0 z m -5,135 a 1.9999996,1.9999992 0 0 1 2,2 1.9999996,1.9999992 0 0 1 -2,2 1.9999996,1.9999992 0 0 1 -2,-2 1.9999996,1.9999992 0 0 1 2,-2 z m 316,0 a 1.9999994,1.9999988 0 0 1 2,2 1.9999994,1.9999988 0 0 1 -2,2 1.9999994,1.9999988 0 0 1 -2,-2 1.9999994,1.9999988 0 0 1 2,-2 z m 0,99.5 a 1.9999995,1.999999 0 0 1 2,2 1.9999995,1.999999 0 0 1 -2,2 1.9999995,1.999999 0 0 1 -2,-2 1.9999995,1.999999 0 0 1 2,-2 z m -316,0.5 a 1.9999997,1.9999994 0 0 1 2,2 1.9999997,1.9999994 0 0 1 -2,2 1.9999997,1.9999994 0 0 1 -2,-2 1.9999997,1.9999994 0 0 1 2,-2 z m 58,116 a 1.9999999,1.9999998 0 0 1 2,2 1.9999999,1.9999998 0 0 1 -2,2 1.9999999,1.9999998 0 0 1 -2,-2 1.9999999,1.9999998 0 0 1 2,-2 z m 200,0 a 1.9999998,1.9999996 0 0 1 2,2 1.9999998,1.9999996 0 0 1 -2,2 1.9999998,1.9999996 0 0 1 -2,-2 1.9999998,1.9999996 0 0 1 2,-2 z"
     inkscape:connector-curvature="0"
     style="fill:#c5c7c4;fill-opacity:0.8;stroke:#999999;stroke-width:0.80000001" />
  <path
     id="FrontPanel_1000X700_PVFE6231"
     d="M -1e-8,-3.265e-5 -1e-8,697.99997 943,697.99997 943,-3.265e-5 -1.0000008e-8,-3.265e-5 Z M 371.5,104.49997 a 1.9999992,1.9999992 0 0 1 2,2 1.9999992,1.9999992 0 0 1 -2,2 1.9999992,1.9999992 0 0 1 -2,-2 1.9999992,1.9999992 0 0 1 2,-2 z m 200,0 a 1.9999995,1.9999995 0 0 1 2,2 1.9999995,1.9999995 0 0 1 -2,2 1.9999995,1.9999995 0 0 1 -2,-2 1.9999995,1.9999995 0 0 1 2,-2 z m -253,7 306,0 0,348 -306,0 z m -5,135 a 1.9999998,1.9999998 0 0 1 2,2 1.9999998,1.9999998 0 0 1 -2,2 1.9999998,1.9999998 0 0 1 -2,-2 1.9999998,1.9999998 0 0 1 2,-2 z m 316,0 a 1.9999996,1.9999996 0 0 1 2,2 1.9999996,1.9999996 0 0 1 -2,2 1.9999996,1.9999996 0 0 1 -2,-2 1.9999996,1.9999996 0 0 1 2,-2 z m -615.199219,99 a 3.4999976,3.4999976 0 0 1 3.457031,2.97461 l 2.367188,0 0,1.30078 -2.414062,0 a 3.4999976,3.4999976 0 0 1 -3.410157,2.72461 3.4999976,3.4999976 0 0 1 -3.380859,-2.59961 l -2.6914065,0 0,-1.30078 2.5976565,0 a 3.4999976,3.4999976 0 0 1 3.474609,-3.09961 z m 914.398439,0 a 3.4999978,3.4999978 0 0 1 3.4375,2.84961 l 2.56055,0 0,1.30078 -2.56055,0 a 3.4999978,3.4999978 0 0 1 -3.4375,2.84961 3.4999978,3.4999978 0 0 1 -3.4375,-2.84961 l -2.70899,0 0,-1.30078 2.70899,0 a 3.4999978,3.4999978 0 0 1 3.4375,-2.84961 z m -615.19922,1 a 1.9999999,1.9999999 0 0 1 2,2 1.9999999,1.9999999 0 0 1 -2,2 1.9999999,1.9999999 0 0 1 -2,-2 1.9999999,1.9999999 0 0 1 2,-2 z m 316,0 a 1.9999997,1.9999997 0 0 1 2,2 1.9999997,1.9999997 0 0 1 -2,2 1.9999997,1.9999997 0 0 1 -2,-2 1.9999997,1.9999997 0 0 1 2,-2 z m -258,116 a 2.0000002,2.0000002 0 0 1 2,2 2.0000002,2.0000002 0 0 1 -2,2 2.0000002,2.0000002 0 0 1 -2,-2 2.0000002,2.0000002 0 0 1 2,-2 z m 200,0 a 2.0000001,2.0000001 0 0 1 2,2 2.0000001,2.0000001 0 0 1 -2,2 2.0000001,2.0000001 0 0 1 -2,-2 2.0000001,2.0000001 0 0 1 2,-2 z"
     inkscape:connector-curvature="0"
     style="fill:#c5c7c4;fill-opacity:0.8;stroke:#999999;stroke-width:0.80000001" />
  <path
     id="FrontPanel_600X600_PVCE2450"
     d="M -1e-8,-3.861e-5 -1e-8,597.99996 543,597.99996 543,-3.861e-5 -1.0000008e-8,-3.861e-5 Z M 216,103.49996 a 1.9999992,1.9999992 0 0 1 2,2 1.9999992,1.9999992 0 0 1 -2,2 1.9999992,1.9999992 0 0 1 -2,-2 1.9999992,1.9999992 0 0 1 2,-2 z m 200,0 a 1.9999995,1.9999995 0 0 1 2,2 1.9999995,1.9999995 0 0 1 -2,2 1.9999995,1.9999995 0 0 1 -2,-2 1.9999995,1.9999995 0 0 1 2,-2 z m -253,7 306,0 0,374 -306,0 z m 311,134.90039 a 1.9999998,1.9999998 0 0 1 2,2 1.9999998,1.9999998 0 0 1 -2,2 1.9999998,1.9999998 0 0 1 -2,-2 1.9999998,1.9999998 0 0 1 2,-2 z m -316,0.0996 a 1.9999996,1.9999996 0 0 1 2,2 1.9999996,1.9999996 0 0 1 -2,2 1.9999996,1.9999996 0 0 1 -2,-2 1.9999996,1.9999996 0 0 1 2,-2 z m 0,100 a 1.9999997,1.9999997 0 0 1 2,2 1.9999997,1.9999997 0 0 1 -2,2 1.9999997,1.9999997 0 0 1 -2,-2 1.9999997,1.9999997 0 0 1 2,-2 z m 316,0 a 1.9999999,1.9999999 0 0 1 2,2 1.9999999,1.9999999 0 0 1 -2,2 1.9999999,1.9999999 0 0 1 -2,-2 1.9999999,1.9999999 0 0 1 2,-2 z m -258,142 a 2,2 0 0 1 2,2 2,2 0 0 1 -2,2 2,2 0 0 1 -2,-2 2,2 0 0 1 2,-2 z m 200,0 a 2.0000001,2.0000001 0 0 1 2,2 2.0000001,2.0000001 0 0 1 -2,2 2.0000001,2.0000001 0 0 1 -2,-2 2.0000001,2.0000001 0 0 1 2,-2 z"
     inkscape:connector-curvature="0"
     style="fill:#c5c7c4;fill-opacity:0.8;stroke:#999999;stroke-width:0.80000001" />
  <path
     id="FrontPanel_600X500_PHCE1240"
     d="M -1e-8,-4.457e-5 -1e-8,497.99996 543,497.99996 543,-4.457e-5 -1.0000008e-8,-4.457e-5 Z M 114,39.499955 a 1.9999992,1.9999992 0 0 1 2,2 1.9999992,1.9999992 0 0 1 -2,2 1.9999992,1.9999992 0 0 1 -2,-2 1.9999992,1.9999992 0 0 1 2,-2 z m 138.5,0 a 1.9999995,1.9999995 0 0 1 2,2 1.9999995,1.9999995 0 0 1 -2,2 1.9999995,1.9999995 0 0 1 -2,-2 1.9999995,1.9999995 0 0 1 2,-2 z m 138.5,0 a 1.9999996,1.9999996 0 0 1 2,2 1.9999996,1.9999996 0 0 1 -2,2 1.9999996,1.9999996 0 0 1 -2,-2 1.9999996,1.9999996 0 0 1 2,-2 z m -269.5,7.5 262,0 0,274.000005 -262,0 z M 114,182.99996 a 1.9999997,1.9999997 0 0 1 2,2 1.9999997,1.9999997 0 0 1 -2,2 1.9999997,1.9999997 0 0 1 -2,-2 1.9999997,1.9999997 0 0 1 2,-2 z m 277,0 a 2,2 0 0 1 2,2 2,2 0 0 1 -2,2 2,2 0 0 1 -2,-2 2,2 0 0 1 2,-2 z m -277,143.5 a 1.9999998,1.9999998 0 0 1 2,2 1.9999998,1.9999998 0 0 1 -2,2 1.9999998,1.9999998 0 0 1 -2,-2 1.9999998,1.9999998 0 0 1 2,-2 z m 138.5,0 a 1.9999999,1.9999999 0 0 1 2,2 1.9999999,1.9999999 0 0 1 -2,2 1.9999999,1.9999999 0 0 1 -2,-2 1.9999999,1.9999999 0 0 1 2,-2 z m 138.5,0 a 2.0000001,2.0000001 0 0 1 2,2 2.0000001,2.0000001 0 0 1 -2,2 2.0000001,2.0000001 0 0 1 -2,-2 2.0000001,2.0000001 0 0 1 2,-2 z"
     inkscape:connector-curvature="0"
     style="fill:#c5c7c4;fill-opacity:0.8;stroke:#999999;stroke-width:0.80000001" />
  <path
     id="FrontPanel_600X600_PVCE2442"
     d="m0 0v598h543v-598zm234.5 104.5a1.9999984 1.9999992 0 0 1 2 2 1.9999984 1.9999992 0 0 1 -2 2 1.9999984 1.9999992 0 0 1 -2-2 1.9999984 1.9999992 0 0 1 2-2zm200 0a1.9999988 1.9999995 0 0 1 2 2 1.9999988 1.9999995 0 0 1 -2 2 1.9999988 1.9999995 0 0 1 -2-2 1.9999988 1.9999995 0 0 1 2-2zm-253 7h306v348h-306zm-5 135a1.999999 1.9999996 0 0 1 2 2 1.999999 1.9999996 0 0 1 -2 2 1.999999 1.9999996 0 0 1 -2-2 1.999999 1.9999996 0 0 1 2-2zm316 0a1.9999994 1.9999998 0 0 1 2 2 1.9999994 1.9999998 0 0 1 -2 2 1.9999994 1.9999998 0 0 1 -2-2 1.9999994 1.9999998 0 0 1 2-2zm-316 100a1.9999992 1.9999997 0 0 1 2 2 1.9999992 1.9999997 0 0 1 -2 2 1.9999992 1.9999997 0 0 1 -2-2 1.9999992 1.9999997 0 0 1 2-2zm316 0a1.9999996 1.9999999 0 0 1 2 2 1.9999996 1.9999999 0 0 1 -2 2 1.9999996 1.9999999 0 0 1 -2-2 1.9999996 1.9999999 0 0 1 2-2zm-258 116a1.9999998 2 0 0 1 2 2 1.9999998 2 0 0 1 -2 2 1.9999998 2 0 0 1 -2-2 1.9999998 2 0 0 1 2-2zm200 0a2 2.0000001 0 0 1 2 2 2 2.0000001 0 0 1 -2 2 2 2.0000001 0 0 1 -2-2 2 2.0000001 0 0 1 2-2z"
     fill="#c5c7c4"
     fill-opacity=".8"
     stroke="#999"
     stroke-width=".8"
     transform="translate(0 -.000061)" />
  <path
     id="FrontPanel_800X600_PVDE2441"
     d="m 0,0 0,598 743,0 0,-598 z m 334.5,104.5 a 1.9999984,1.9999992 0 0 1 2,2 1.9999984,1.9999992 0 0 1 -2,2 1.9999984,1.9999992 0 0 1 -2,-2 1.9999984,1.9999992 0 0 1 2,-2 z m 200,0 a 1.9999986,1.9999993 0 0 1 2,2 1.9999986,1.9999993 0 0 1 -2,2 1.9999986,1.9999993 0 0 1 -2,-2 1.9999986,1.9999993 0 0 1 2,-2 z m -253,7 306,0 0,348 -306,0 z m -5,135 a 1.999999,1.9999995 0 0 1 2,2 1.999999,1.9999995 0 0 1 -2,2 1.999999,1.9999995 0 0 1 -2,-2 1.999999,1.9999995 0 0 1 2,-2 z m 316,0 a 1.9999988,1.9999994 0 0 1 2,2 1.9999988,1.9999994 0 0 1 -2,2 1.9999988,1.9999994 0 0 1 -2,-2 1.9999988,1.9999994 0 0 1 2,-2 z m 0,100.99023 a 1.9999998,1.9999999 0 0 1 2,2 1.9999998,1.9999999 0 0 1 -2,2 1.9999998,1.9999999 0 0 1 -2,-2 1.9999998,1.9999999 0 0 1 2,-2 z m -316,19.0918 a 1.9999992,1.9999996 0 0 1 2,2 1.9999992,1.9999996 0 0 1 -2,2 1.9999992,1.9999996 0 0 1 -2,-2 1.9999992,1.9999996 0 0 1 2,-2 z m 58,95.91797 a 1.9999994,1.9999997 0 0 1 2,2 1.9999994,1.9999997 0 0 1 -2,2 1.9999994,1.9999997 0 0 1 -2,-2 1.9999994,1.9999997 0 0 1 2,-2 z m 200,0 a 1.9999996,1.9999998 0 0 1 2,2 1.9999996,1.9999998 0 0 1 -2,2 1.9999996,1.9999998 0 0 1 -2,-2 1.9999996,1.9999998 0 0 1 2,-2 z"
     transform="translate(0,-6.1e-5)"
     inkscape:connector-curvature="0"
     style="fill:#c5c7c4;fill-opacity:0.8;stroke:#999999;stroke-width:0.80000001" />
  <path
     id="FrontPanel_800X600_PVDE2440"
     d="m 0,0 0,598 743,0 0,-598 z m 316,103.5 a 1.9999986,1.9999994 0 0 1 2,2 1.9999986,1.9999994 0 0 1 -2,2 1.9999986,1.9999994 0 0 1 -2,-2 1.9999986,1.9999994 0 0 1 2,-2 z m 200,0 a 1.9999988,1.9999995 0 0 1 2,2 1.9999988,1.9999995 0 0 1 -2,2 1.9999988,1.9999995 0 0 1 -2,-2 1.9999988,1.9999995 0 0 1 2,-2 z m -253,7 306,0 0,374 -306,0 z m -5,135 a 1.9999988,1.9999994 0 0 1 2,2 1.9999988,1.9999994 0 0 1 -2,2 1.9999988,1.9999994 0 0 1 -2,-2 1.9999988,1.9999994 0 0 1 2,-2 z m 316,0 a 1.9999998,2 0 0 1 2,2 1.9999998,2 0 0 1 -2,2 1.9999998,2 0 0 1 -2,-2 1.9999998,2 0 0 1 2,-2 z m -316,100 a 1.9999992,1.9999997 0 0 1 2,2 1.9999992,1.9999997 0 0 1 -2,2 1.9999992,1.9999997 0 0 1 -2,-2 1.9999992,1.9999997 0 0 1 2,-2 z m 316,0 a 2,2.0000001 0 0 1 2,2 2,2.0000001 0 0 1 -2,2 2,2.0000001 0 0 1 -2,-2 2,2.0000001 0 0 1 2,-2 z m -258,142 a 1.9999994,1.9999998 0 0 1 2,2 1.9999994,1.9999998 0 0 1 -2,2 1.9999994,1.9999998 0 0 1 -2,-2 1.9999994,1.9999998 0 0 1 2,-2 z m 200,0 a 1.9999996,1.9999999 0 0 1 2,2 1.9999996,1.9999999 0 0 1 -2,2 1.9999996,1.9999999 0 0 1 -2,-2 1.9999996,1.9999999 0 0 1 2,-2 z"
     transform="translate(0,-6.1e-5)"
     inkscape:connector-curvature="0"
     style="fill:#c5c7c4;fill-opacity:0.8;stroke:#999999;stroke-width:0.80000001" />
  <path
     id="FrontPanel_600X400_PVCE4350"
     d="m 0,0 0,398 543,0 0,-398 z m 171.5,110 a 1.9999992,1.9999997 0 0 1 2,2 1.9999992,1.9999997 0 0 1 -2,2 1.9999992,1.9999997 0 0 1 -2,-2 1.9999992,1.9999997 0 0 1 2,-2 z m 200,0 a 1.999999,1.9999996 0 0 1 2,2 1.999999,1.9999996 0 0 1 -2,2 1.999999,1.9999996 0 0 1 -2,-2 1.999999,1.9999996 0 0 1 2,-2 z m -212,11 224,0 0,226 -224,0 z m -15,111 a 1.9999992,1.9999996 0 0 1 2,2 1.9999992,1.9999996 0 0 1 -2,2 1.9999992,1.9999996 0 0 1 -2,-2 1.9999992,1.9999996 0 0 1 2,-2 z m 254,0 a 1.9999996,1.9999999 0 0 1 2,2 1.9999996,1.9999999 0 0 1 -2,2 1.9999996,1.9999999 0 0 1 -2,-2 1.9999996,1.9999999 0 0 1 2,-2 z m -227,122 a 1.9999998,2 0 0 1 2,2 1.9999998,2 0 0 1 -2,2 1.9999998,2 0 0 1 -2,-2 1.9999998,2 0 0 1 2,-2 z m 200,0 a 2,2.0000001 0 0 1 2,2 2,2.0000001 0 0 1 -2,2 2,2.0000001 0 0 1 -2,-2 2,2.0000001 0 0 1 2,-2 z"
     transform="translate(0,-6.1e-5)"
     inkscape:connector-curvature="0"
     style="fill:#c5c7c4;fill-opacity:0.8;stroke:#999999;stroke-width:0.80000001" />
  <path
     id="FrontPanel_1250X700_PVGE6230"
     d="M -1e-8,-3.367e-5 -1e-8,697.99997 1193,697.99997 1193,-3.367e-5 l -1193,0 z M 561.5,99.499968 a 1.999999,1.9999992 0 0 1 2,2.000002 1.999999,1.9999992 0 0 1 -2,2 1.999999,1.9999992 0 0 1 -2,-2 1.999999,1.9999992 0 0 1 2,-2.000002 z m 200,0 a 1.9999991,1.9999993 0 0 1 2,2.000002 1.9999991,1.9999993 0 0 1 -2,2 1.9999991,1.9999993 0 0 1 -2,-2 1.9999991,1.9999993 0 0 1 2,-2.000002 z m -253,7.000002 306,0 0,374 -306,0 z m -5,135 a 1.9999991,1.9999993 0 0 1 2,2 1.9999991,1.9999993 0 0 1 -2,2 1.9999991,1.9999993 0 0 1 -2,-2 1.9999991,1.9999993 0 0 1 2,-2 z m 316,0 a 1.9999992,1.9999994 0 0 1 2,2 1.9999992,1.9999994 0 0 1 -2,2 1.9999992,1.9999994 0 0 1 -2,-2 1.9999992,1.9999994 0 0 1 2,-2 z m -316,100 a 1.9999994,1.9999996 0 0 1 2,2 1.9999994,1.9999996 0 0 1 -2,2 1.9999994,1.9999996 0 0 1 -2,-2 1.9999994,1.9999996 0 0 1 2,-2 z m 316,0 a 1.9999995,1.9999997 0 0 1 2,2 1.9999995,1.9999997 0 0 1 -2,2 1.9999995,1.9999997 0 0 1 -2,-2 1.9999995,1.9999997 0 0 1 2,-2 z m -805.59961,3.59961 a 3.4999997,3.4999998 0 0 1 3.4375,2.84961 l 2.820313,0 0,1.30078 -2.820313,0 a 3.4999997,3.4999998 0 0 1 -3.4375,2.84961 3.4999997,3.4999998 0 0 1 -3.4375,-2.84961 l -3.0664056,0 0,-1.30078 3.0664056,0 a 3.4999997,3.4999998 0 0 1 3.4375,-2.84961 z m 1164.39841,0 a 3.4999988,3.4999994 0 0 1 3.4375,2.84961 l 2.8438,0 0,1.30078 -2.8438,0 a 3.4999988,3.4999994 0 0 1 -3.4375,2.84961 3.4999988,3.4999994 0 0 1 -3.4375,-2.84961 l -2.8926,0 0,-1.30078 2.8926,0 a 3.4999988,3.4999994 0 0 1 3.4375,-2.84961 z M 561.5,483.49997 a 1.9999997,1.9999999 0 0 1 2,2 1.9999997,1.9999999 0 0 1 -2,2 1.9999997,1.9999999 0 0 1 -2,-2 1.9999997,1.9999999 0 0 1 2,-2 z m 200,0 a 1.9999996,1.9999998 0 0 1 2,2 1.9999996,1.9999998 0 0 1 -2,2 1.9999996,1.9999998 0 0 1 -2,-2 1.9999996,1.9999998 0 0 1 2,-2 z"
     inkscape:connector-curvature="0"
     style="fill:#c5c7c4;fill-opacity:0.8;stroke:#999999;stroke-width:0.80000001" />
  <path
     id="FrontPanel_1250X700_PVGE6231"
     d="m 0,0 0,698 1193,0 0,-698 z m 550.5,104.5 a 1.9999986,1.9999994 0 0 1 2,2 1.9999986,1.9999994 0 0 1 -2,2 1.9999986,1.9999994 0 0 1 -2,-2 1.9999986,1.9999994 0 0 1 2,-2 z m 200,0 a 1.9999988,1.9999995 0 0 1 2,2 1.9999988,1.9999995 0 0 1 -2,2 1.9999988,1.9999995 0 0 1 -2,-2 1.9999988,1.9999995 0 0 1 2,-2 z m -253,7 306,0 0,348 -306,0 z m -5,135 a 1.9999988,1.9999994 0 0 1 2,2 1.9999988,1.9999994 0 0 1 -2,2 1.9999988,1.9999994 0 0 1 -2,-2 1.9999988,1.9999994 0 0 1 2,-2 z m 316,0 a 1.9999998,2 0 0 1 2,2 1.9999998,2 0 0 1 -2,2 1.9999998,2 0 0 1 -2,-2 1.9999998,2 0 0 1 2,-2 z m -794.199219,99 a 3.4999956,3.4999978 0 0 1 3.4375,2.84961 l 2.740235,0 0,1.30078 -2.740235,0 a 3.4999956,3.4999978 0 0 1 -3.4375,2.84961 3.4999956,3.4999978 0 0 1 -3.4375,-2.84961 l -2.863281,0 0,-1.30078 2.863281,0 a 3.4999956,3.4999978 0 0 1 3.4375,-2.84961 z m 1164.435519,0 a 3.4999957,3.4999978 0 0 1 3.4375,2.84961 l 2.7422,0 0,1.30078 -2.7422,0 a 3.4999957,3.4999978 0 0 1 -3.4375,2.84961 3.4999957,3.4999978 0 0 1 -3.4375,-2.84961 l -2.8633,0 0,-1.30078 2.8633,0 a 3.4999957,3.4999978 0 0 1 3.4375,-2.84961 z m -686.2363,1 a 1.9999992,1.9999997 0 0 1 2,2 1.9999992,1.9999997 0 0 1 -2,2 1.9999992,1.9999997 0 0 1 -2,-2 1.9999992,1.9999997 0 0 1 2,-2 z m 316,0 a 2,2.0000001 0 0 1 2,2 2,2.0000001 0 0 1 -2,2 2,2.0000001 0 0 1 -2,-2 2,2.0000001 0 0 1 2,-2 z m -258,116 a 1.9999994,1.9999998 0 0 1 2,2 1.9999994,1.9999998 0 0 1 -2,2 1.9999994,1.9999998 0 0 1 -2,-2 1.9999994,1.9999998 0 0 1 2,-2 z m 200,0 a 1.9999996,1.9999999 0 0 1 2,2 1.9999996,1.9999999 0 0 1 -2,2 1.9999996,1.9999999 0 0 1 -2,-2 1.9999996,1.9999999 0 0 1 2,-2 z"
     transform="translate(0,-6.1e-5)"
     inkscape:connector-curvature="0"
     style="fill:#c5c7c4;fill-opacity:0.8;stroke:#999999;stroke-width:0.80000001" />
  <g
     id="FrontPanel_1000X700_PVFE6230">
    <path
       id="path5731"
       d="m 0,0 0,698 943,0 0,-698 z m 420,103.5 a 1.9999992,1.9999997 0 0 1 2,2 1.9999992,1.9999997 0 0 1 -2,2 1.9999992,1.9999997 0 0 1 -2,-2 1.9999992,1.9999997 0 0 1 2,-2 z m 200,0 a 1.9999994,1.9999998 0 0 1 2,2 1.9999994,1.9999998 0 0 1 -2,2 1.9999994,1.9999998 0 0 1 -2,-2 1.9999994,1.9999998 0 0 1 2,-2 z m -253,7 306,0 0,374 -306,0 z m -5,135 a 1.9999988,1.9999994 0 0 1 2,2 1.9999988,1.9999994 0 0 1 -2,2 1.9999988,1.9999994 0 0 1 -2,-2 1.9999988,1.9999994 0 0 1 2,-2 z m 316,0 a 1.9999996,1.9999999 0 0 1 2,2 1.9999996,1.9999999 0 0 1 -2,2 1.9999996,1.9999999 0 0 1 -2,-2 1.9999996,1.9999999 0 0 1 2,-2 z m -316,100 a 1.9999988,1.9999995 0 0 1 2,2 1.9999988,1.9999995 0 0 1 -2,2 1.9999988,1.9999995 0 0 1 -2,-2 1.9999988,1.9999995 0 0 1 2,-2 z m 316,0 a 1.9999998,2 0 0 1 2,2 1.9999998,2 0 0 1 -2,2 1.9999998,2 0 0 1 -2,-2 1.9999998,2 0 0 1 2,-2 z m -258,142 a 1.9999986,1.9999994 0 0 1 2,2 1.9999986,1.9999994 0 0 1 -2,2 1.9999986,1.9999994 0 0 1 -2,-2 1.9999986,1.9999994 0 0 1 2,-2 z m 200,0 a 2,2.0000001 0 0 1 2,2 2,2.0000001 0 0 1 -2,2 2,2.0000001 0 0 1 -2,-2 2,2.0000001 0 0 1 2,-2 z"
       transform="translate(0,-6.1e-5)"
       inkscape:connector-curvature="0"
       style="fill:#c5c7c4;fill-opacity:0.8;stroke:#999999;stroke-width:0.80000001" />
    <circle
       id="circle5733"
       cx="14.3"
       cy="349"
       r="6.25"
       style="fill:#b3b3b3;stroke:#808080" />
    <path
       id="path5735"
       d="m 14.025189,351.77806 a 2.408392,2.7775524 0 0 0 2.216896,-1.69156 l 3.515665,0 0,-1.88893 -3.429297,0 a 2.408392,2.7775524 0 0 0 -2.303264,-1.97562 2.408392,2.7775524 0 0 0 -2.30485,1.97562 l -3.4277085,0 0,1.88893 3.5188645,0 a 2.408392,2.7775524 0 0 0 2.213694,1.69156 z"
       inkscape:connector-curvature="0"
       style="fill:#999999;stroke:#808080;stroke-width:0.94389099;stroke-opacity:0.882353" />
    <path
       id="path5737"
       d="m 934.95001,349 a 6.25,6.25 0 0 1 -6.25,6.25 6.25,6.25 0 0 1 -6.25,-6.25 6.25,6.25 0 0 1 6.25,-6.25 6.25,6.25 0 0 1 6.25,6.25 z"
       inkscape:connector-curvature="0"
       style="fill:#b3b3b3;stroke:#808080" />
    <path
       id="path5739"
       d="m 928.2523,351.69934 a 2.408392,2.7775524 0 0 0 2.2169,-1.69156 l 3.51566,0 0,-1.88893 -3.42929,0 a 2.408392,2.7775524 0 0 0 -2.30327,-1.97563 2.408392,2.7775524 0 0 0 -2.30485,1.97563 l -3.4277,0 0,1.88893 3.51886,0 a 2.408392,2.7775524 0 0 0 2.21369,1.69156 z"
       inkscape:connector-curvature="0"
       style="fill:#999999;stroke:#808080;stroke-width:0.94389099;stroke-opacity:0.882353" />
  </g>
  <g
     id="SlotTR">
    <circle
       id="circle6651"
       cx="1178.7"
       cy="49"
       fill="#b3b3b3"
       r="6.25"
       stroke="#808080" />
    <path
       id="path6653"
       d="m1178.3644 51.78242a2.3603489 2.7819156 0 0 0 2.1726-1.694209h3.4456v-1.891897h-3.3609a2.3603489 2.7819156 0 0 0 -2.2573-1.978733 2.3603489 2.7819156 0 0 0 -2.2589 1.978733h-3.3593v1.891897h3.4486a2.3603489 2.7819156 0 0 0 2.1696 1.694209z"
       fill="#999"
       stroke="#808080"
       stroke-width=".935162" />
  </g>
  <g
     id="SlotTL"
     transform="translate(.8 .799939)">
    <circle
       id="circle4226"
       cx="14.3"
       cy="49"
       fill="#b3b3b3"
       r="6.25"
       stroke="#808080" />
    <path
       id="path4228"
       d="m14.359834 51.778056a2.408392 2.7775524 0 0 0 2.216896-1.691551h3.515665v-1.888931h-3.429297a2.408392 2.7775524 0 0 0 -2.303264-1.975629 2.408392 2.7775524 0 0 0 -2.30485 1.975629h-3.4277084v1.888931h3.5188644a2.408392 2.7775524 0 0 0 2.213694 1.691551z"
       fill="#999"
       stroke="#808080"
       stroke-opacity=".882353"
       stroke-width=".943891" />
  </g>
  <g
     id="SlotBL"
     transform="translate(.4 .4)">
    <circle
       id="circle4232"
       cx="14.3"
       cy="649"
       fill="#b3b3b3"
       r="6.25"
       stroke="#808080" />
    <path
       id="path4234"
       d="m14.141631 651.7674a2.5280606 2.7668995 0 0 0 2.327049-1.68506h3.690351v-1.88169h-3.599692a2.5280606 2.7668995 0 0 0 -2.417708-1.96805 2.5280606 2.7668995 0 0 0 -2.419374 1.96805h-3.5980261v1.88169h3.6937121a2.5280606 2.7668995 0 0 0 2.323688 1.68506z"
       fill="#999"
       stroke="#808080"
       stroke-opacity=".882353"
       stroke-width=".9652" />
  </g>
  <g
     id="SlotBR">
    <circle
       id="circle4616"
       cx="1178.7"
       cy="649"
       fill="#b3b3b3"
       r="6.25"
       stroke="#808080" />
    <path
       id="path4618"
       d="m1178.6871 651.7856a2.3256453 2.7851048 0 0 0 2.1407-1.69614h3.3949v-1.89407h-3.3115a2.3256453 2.7851048 0 0 0 -2.2241-1.98099 2.3256453 2.7851048 0 0 0 -2.2257 1.98099h-3.31v1.89407h3.398a2.3256453 2.7851048 0 0 0 2.1377 1.69614z"
       fill="#999"
       stroke="#808080"
       stroke-opacity=".882353"
       stroke-width=".928793" />
  </g>
</svg>
