<?xml version="1.0" encoding="UTF-8" standalone="no"?>
<svg
   xmlns:dc="http://purl.org/dc/elements/1.1/"
   xmlns:cc="http://creativecommons.org/ns#"
   xmlns:rdf="http://www.w3.org/1999/02/22-rdf-syntax-ns#"
   xmlns:svg="http://www.w3.org/2000/svg"
   xmlns="http://www.w3.org/2000/svg"
   xmlns:sodipodi="http://sodipodi.sourceforge.net/DTD/sodipodi-0.dtd"
   xmlns:inkscape="http://www.inkscape.org/namespaces/inkscape"
   id="svg2"
   height="348.79996"
   viewBox="0 0 543.80003 348.79995"
   width="543.79999"
   version="1.1"
   inkscape:version="0.91 r13725"
   sodipodi:docname="Kit_breaker_XT2_V_1.svg">
  <metadata
     id="metadata41">
    <rdf:RDF>
      <cc:Work
         rdf:about="">
        <dc:format>image/svg+xml</dc:format>
        <dc:type
           rdf:resource="http://purl.org/dc/dcmitype/StillImage" />
        <dc:title></dc:title>
      </cc:Work>
    </rdf:RDF>
  </metadata>
  <defs
     id="defs39" />
  <sodipodi:namedview
     pagecolor="#ffffff"
     bordercolor="#666666"
     borderopacity="1"
     objecttolerance="10"
     gridtolerance="10"
     guidetolerance="10"
     inkscape:pageopacity="0"
     inkscape:pageshadow="2"
     inkscape:window-width="1920"
     inkscape:window-height="1017"
     id="namedview37"
     showgrid="false"
     inkscape:zoom="0.63994117"
     inkscape:cx="-285.18246"
     inkscape:cy="174.39998"
     inkscape:window-x="-8"
     inkscape:window-y="-8"
     inkscape:window-maximized="1"
     inkscape:current-layer="svg2" />
  <path
     id="FrontPanel_PVBX2400"
     d="m0 0v298h343v-298zm145.5 94h82v37h39v37h-39v15h-82z"
     fill="#c5c7c4"
     fill-opacity=".8"
     stroke="#999"
     stroke-width=".8"
     transform="translate(0 -.000031)" />
  <path
     id="FrontPanel_PVCX2400"
     d="M -1e-8,-2.5890073e-5 -1e-8,297.99998 543.00004,297.99998 l 0,-298.000005890073 -543.00004001000002,0 z M 245.50004,93.99998 l 82,0 0,37 39,0 0,37 -39,0 0,15 -82,0 z"
     inkscape:connector-curvature="0"
     style="fill:#c5c7c4;fill-opacity:0.8;stroke:#999999;stroke-width:0.80000001" />
  <path
     id="FrontPanel_PVBX2401"
     d="m0 0v298h343v-298zm109.5 120h124v83h-124z"
     fill="#c5c7c4"
     fill-opacity=".8"
     stroke="#999"
     stroke-width=".8"
     transform="translate(0 -.000031)" />
  <path
     id="FrontPanel_PVCX2401"
     d="m0 0v298h543v-298zm209.5 120h124v83h-124z"
     fill="#c5c7c4"
     fill-opacity=".8"
     stroke="#999"
     stroke-width=".8"
     transform="translate(0 -.000031)" />
  <path
     id="FrontPanel_PVBX2404"
     d="m0 0v298h343v-298zm136 94.5h101v91h-101z"
     fill="#c5c7c4"
     fill-opacity=".8"
     stroke="#999"
     stroke-width=".8"
     transform="translate(0 -.000031)" />
  <path
     id="FrontPanel_PVCX2404"
     d="m0 0v298h543v-298zm236 94.5h101v91h-101z"
     fill="#c5c7c4"
     fill-opacity=".8"
     stroke="#999"
     stroke-width=".8"
     transform="translate(0 -.000031)" />
  <path
     id="FrontPanel_PVBX2405"
     d="m0 0v298h343v-298zm146 94h81v88h-81z"
     fill="#c5c7c4"
     fill-opacity=".8"
     stroke="#999"
     stroke-width=".8"
     transform="translate(0 -.000031)" />
  <path
     id="FrontPanel_PVCX2405"
     d="m0 0v298h543v-298zm246 94h81v88h-81z"
     fill="#c5c7c4"
     fill-opacity=".8"
     stroke="#999"
     stroke-width=".8"
     transform="translate(0 -.000031)" />
  <path
     id="FrontPanel_PVBX2407"
     d="m0 0v298h343v-298zm109.5 120h124v83h-124z"
     fill="#c5c7c4"
     fill-opacity=".8"
     stroke="#999"
     stroke-width=".8"
     transform="translate(0 -.000031)" />
  <path
     id="FrontPanel_PVCX2407"
     d="M 0,-1.8890074e-5 0,297.99998 l 543,0 L 543,-1.8890074e-5 Z M 209.5,69.1992 l 124,0 0,83 -124,0 z"
     inkscape:connector-curvature="0"
     style="fill:#c5c7c4;fill-opacity:0.8;stroke:#999999;stroke-width:0.80000001" />
  <path
     id="FrontPanel_PVBX2409"
     d="m0 0v298h343v-298zm136 94.5h101v91h-101z"
     fill="#c5c7c4"
     fill-opacity=".8"
     stroke="#999"
     stroke-width=".8"
     transform="translate(0 -.000031)" />
  <path
     id="FrontPanel_PVCX2409"
     d="M -1e-8,-2.5890073e-5 -1e-8,297.99998 543.00004,297.99998 l 0,-298.000005890073 -543.00004001000002,0 z M 236.00004,94.49998 l 101,0 0,91 -101,0 z"
     inkscape:connector-curvature="0"
     style="fill:#c5c7c4;fill-opacity:0.8;stroke:#999999;stroke-width:0.80000001" />
  <path
     id="FrontPanel_PVBX2410"
     d="m0 0v298h343v-298zm136 93.5h101v37h29.5v37h-29.5v17h-101z"
     fill="#c5c7c4"
     fill-opacity=".8"
     stroke="#999"
     stroke-width=".8"
     transform="translate(0 -.000031)" />
  <path
     id="FrontPanel_PVCX2410"
     d="M -1e-8,-2.5890073e-5 -1e-8,297.99998 543.00004,297.99998 l 0,-298.000005890073 -543.00004001000002,0 z M 236.00004,93.49998 l 101,0 0,37 29.5,0 0,37 -29.5,0 0,17 -101,0 z"
     inkscape:connector-curvature="0"
     style="fill:#c5c7c4;fill-opacity:0.8;stroke:#999999;stroke-width:0.80000001" />
  <path
     id="FrontPanel_PVBX2412"
     d="m0 0v298h343v-298zm136 93.5h101v37h29.5v37h-29.5v17h-101z"
     fill="#c5c7c4"
     fill-opacity=".8"
     stroke="#999"
     stroke-width=".8"
     transform="translate(0 -.000031)" />
  <path
     id="FrontPanel_PVCX2412"
     d="M -1e-8,-2.5890073e-5 -1e-8,297.99998 543.00004,297.99998 l 0,-298.000005890073 -543.00004001000002,0 z M 236.00004,93.49998 l 101,0 0,37 29.5,0 0,37 -29.5,0 0,17 -101,0 z"
     inkscape:connector-curvature="0"
     style="fill:#c5c7c4;fill-opacity:0.8;stroke:#999999;stroke-width:0.80000001" />
  <path
     id="FrontPanel_PVBX2417"
     d="m-.00000001-.00000928v347.99999928h343.00000001v-347.99999928h-343.00000001zm141.00000001 117.99999928h101v37h29.5v37h-29.5v17h-101zm-31.5 116.5h124v68h-124z"
     fill="#c5c7c4"
     fill-opacity=".8"
     stroke="#999"
     stroke-width=".8" />
  <path
     id="FrontPanel_PVCX2417"
     d="m-.00000001-.00001542v348.00000542h543.00004001v-348.00000542h-543.00004001zm240.59964001 117.59961542h101v37h29.5v37h-29.5v17h-101zm-31.5 116.5h124v68h-124z"
     fill="#c5c7c4"
     fill-opacity=".8"
     stroke="#999"
     stroke-width=".8" />
  <path
     id="FrontPanel_PVBX2423"
     d="m-.00000001-.00000998v347.99999998h343.00000001v-347.99999998h-343.00000001zm109.50000001 107.49999998h124v158h-124z"
     fill="#c5c7c4"
     fill-opacity=".8"
     stroke="#999"
     stroke-width=".8" />
  <path
     id="FrontPanel_PVCX2423"
     d="m-.00000001-.00001282v348.00000282h543.00004001v-348.00000282h-543.00004001zm209.50004001 107.50000282h124v158h-124z"
     fill="#c5c7c4"
     fill-opacity=".8"
     stroke="#999"
     stroke-width=".8" />
  <path
     id="FrontPanel_PVBX2427"
     d="m0 0v298h343v-298zm146 94h81v88h-81z"
     fill="#c5c7c4"
     fill-opacity=".8"
     stroke="#999"
     stroke-width=".8"
     transform="translate(0 -.000031)" />
  <path
     id="FrontPanel_PVCX2427"
     d="M -1e-8,-2.3890073e-5 -1e-8,297.99998 543.00004,297.99998 l 0,-298.000003890073 -543.00004001000002,0 z M 246.00004,43.999976 l 81,0 0,88.000004 -81,0 z"
     inkscape:connector-curvature="0"
     style="fill:#c5c7c4;fill-opacity:0.8;stroke:#999999;stroke-width:0.80000001" />
  <g
     id="SlotTL"
     transform="translate(.4 .399989)">
    <circle
       id="circle4226-7-8-5"
       cx="14.3"
       cy="49"
       fill="#b3b3b3"
       r="6.25"
       stroke="#808080" />
    <path
       id="path4228-1-0-8"
       d="m14.125002 51.750001a2.730813 2.7495027 0 0 0 2.51368-1.674469h3.98632v-1.869854h-3.88839a2.730813 2.7495027 0 0 0 -2.61161-1.955678 2.730813 2.7495027 0 0 0 -2.61341 1.955678h-3.8865899v1.869854h3.9899499a2.730813 2.7495027 0 0 0 2.51005 1.674469z"
       fill="#999"
       stroke="#808080"
       stroke-opacity=".882353" />
  </g>
  <g
     id="SlotTR"
     transform="translate(.4 .399989)">
    <circle
       id="circle4226-7-8-5-7"
       cx="528.70001"
       cy="49"
       fill="#b3b3b3"
       r="6.25"
       stroke="#808080" />
    <path
       id="path4228-1-0-8-6"
       d="m528.63902 51.750001a2.730813 2.7495027 0 0 0 2.51368-1.674469h3.98632v-1.869854h-3.88839a2.730813 2.7495027 0 0 0 -2.61161-1.955678 2.730813 2.7495027 0 0 0 -2.61341 1.955678h-3.88659v1.869854h3.98995a2.730813 2.7495027 0 0 0 2.51005 1.674469z"
       fill="#999"
       stroke="#808080"
       stroke-opacity=".882353" />
  </g>
  <g
     id="SlotBL"
     transform="translate(.4 .399989)">
    <circle
       id="circle4226-7-8-5-1"
       cx="14.3"
       cy="299"
       fill="#b3b3b3"
       r="6.25"
       stroke="#808080" />
    <path
       id="path4228-1-0-8-4"
       d="m14.228739 301.75a2.730813 2.7495027 0 0 0 2.51368-1.67447h3.98632v-1.86985h-3.88839a2.730813 2.7495027 0 0 0 -2.61161-1.95568 2.730813 2.7495027 0 0 0 -2.61341 1.95568h-3.8865892v1.86985h3.9899492a2.730813 2.7495027 0 0 0 2.51005 1.67447z"
       fill="#999"
       stroke="#808080"
       stroke-opacity=".882353" />
  </g>
  <g
     id="SlotBR"
     transform="translate(.4 .399989)">
    <circle
       id="circle4226-7-8-5-1-6"
       cx="528.70001"
       cy="299"
       fill="#b3b3b3"
       r="6.25"
       stroke="#808080" />
    <path
       id="path4228-1-0-8-4-7"
       d="m528.73917 301.75a2.730813 2.7495027 0 0 0 2.51368-1.67447h3.98632v-1.86985h-3.88839a2.730813 2.7495027 0 0 0 -2.61161-1.95568 2.730813 2.7495027 0 0 0 -2.61341 1.95568h-3.88659v1.86985h3.98995a2.730813 2.7495027 0 0 0 2.51005 1.67447z"
       fill="#999"
       stroke="#808080"
       stroke-opacity=".882353" />
  </g>
</svg>
