<?xml version="1.0" encoding="UTF-8" standalone="no"?>
<svg
   xmlns:dc="http://purl.org/dc/elements/1.1/"
   xmlns:cc="http://creativecommons.org/ns#"
   xmlns:rdf="http://www.w3.org/1999/02/22-rdf-syntax-ns#"
   xmlns:svg="http://www.w3.org/2000/svg"
   xmlns="http://www.w3.org/2000/svg"
   xmlns:sodipodi="http://sodipodi.sourceforge.net/DTD/sodipodi-0.dtd"
   xmlns:inkscape="http://www.inkscape.org/namespaces/inkscape"
   id="svg2"
   height="348.79996"
   overflow="visible"
   viewBox="0 0 743.79998 348.79993"
   width="743.79993"
   version="1.1"
   inkscape:version="0.92.3 (2405546, 2018-03-11)"
   sodipodi:docname="Kit_breaker_T5_H_1_400_2.svg"
   style="overflow:visible">
  <metadata
     id="metadata23">
    <rdf:RDF>
      <cc:Work
         rdf:about="">
        <dc:format>image/svg+xml</dc:format>
        <dc:type
           rdf:resource="http://purl.org/dc/dcmitype/StillImage" />
        <dc:title />
      </cc:Work>
    </rdf:RDF>
  </metadata>
  <defs
     id="defs21" />
  <sodipodi:namedview
     pagecolor="#ffffff"
     bordercolor="#666666"
     borderopacity="1"
     objecttolerance="10"
     gridtolerance="10"
     guidetolerance="10"
     inkscape:pageopacity="0"
     inkscape:pageshadow="2"
     inkscape:window-width="1366"
     inkscape:window-height="705"
     id="namedview19"
     showgrid="false"
     inkscape:zoom="0.70710678"
     inkscape:cx="423.17321"
     inkscape:cy="232.02248"
     inkscape:window-x="-8"
     inkscape:window-y="-8"
     inkscape:window-maximized="1"
     inkscape:current-layer="svg2"
     showguides="false"
     fit-margin-top="0"
     fit-margin-left="0"
     fit-margin-right="0"
     fit-margin-bottom="0" />
  <path
     style="fill:#c5c7c4;fill-opacity:0.8;stroke:#999999;stroke-width:0.80000007;stroke-linejoin:miter;stroke-miterlimit:4;stroke-dasharray:none;stroke-opacity:1"
     d="M 0,0 V 348 H 743 V 0 Z M 320,101 H 436.5 V 217 H 367 v 29 a 8.9999985,8.9999985 0 0 1 -9,9 8.9999985,8.9999985 0 0 1 -9,-9 v -29 h -29 z"
     transform="translate(0,-3.051758e-5)"
     id="FrontPanel_800X350_PHDT5414"
     inkscape:connector-curvature="0" />
  <path
     style="fill:#c5c7c4;fill-opacity:0.8;stroke:#999999;stroke-width:0.80000007;stroke-linejoin:miter;stroke-miterlimit:4;stroke-dasharray:none;stroke-opacity:1"
     d="M 0,0 V 348 H 743 V 0 Z M 320,101 H 436.5 V 217 H 367 v 29 a 8.9999985,8.9999985 0 0 1 -9,9 8.9999985,8.9999985 0 0 1 -9,-9 v -29 h -29 z"
     transform="translate(0,-3.051758e-5)"
     id="FrontPanel_800X350_PHDT5412"
     inkscape:connector-curvature="0" />
  <path
     style="fill:#c5c7c4;fill-opacity:0.8;stroke:#999999;stroke-width:0.80000007;stroke-linejoin:miter;stroke-miterlimit:4;stroke-dasharray:none;stroke-opacity:1"
     d="M 0,0 V 348 H 543 V 0 Z M 220,101 H 336.5 V 217 H 267 v 29 a 8.9999985,8.9999985 0 0 1 -9,9 8.9999985,8.9999985 0 0 1 -9,-9 v -29 h -29 z"
     transform="translate(0,-3.051758e-5)"
     id="FrontPanel_600X350_PHCT5414"
     inkscape:connector-curvature="0" />
  <path
     style="fill:#c5c7c4;fill-opacity:0.8;stroke:#999999;stroke-width:0.80000007;stroke-linejoin:miter;stroke-miterlimit:4;stroke-dasharray:none;stroke-opacity:1"
     d="M 0,0 V 348 H 543 V 0 Z M 220,101 H 336.5 V 217 H 267 v 29 a 8.9999985,8.9999985 0 0 1 -9,9 8.9999985,8.9999985 0 0 1 -9,-9 v -29 h -29 z"
     transform="translate(0,-3.051758e-5)"
     id="FrontPanel_600X350_PHCT5412"
     inkscape:connector-curvature="0" />
  <path
     style="fill:#c5c7c4;fill-opacity:0.8;stroke:#999999;stroke-width:0.80000007;stroke-linejoin:miter;stroke-miterlimit:4;stroke-dasharray:none;stroke-opacity:1"
     d="M 0,0 V 348 H 343 V 0 Z M 120,101 H 236.5 V 217 H 167 v 29 a 8.9999985,8.9999985 0 0 1 -9,9 8.9999985,8.9999985 0 0 1 -9,-9 v -29 h -29 z"
     transform="translate(0,-3.051758e-5)"
     id="FrontPanel_400X350_PHBT5414"
     inkscape:connector-curvature="0" />
  <path
     style="fill:#c5c7c4;fill-opacity:0.8;stroke:#999999;stroke-width:0.80000007;stroke-linejoin:miter;stroke-miterlimit:4;stroke-dasharray:none;stroke-opacity:1"
     d="M 0,0 V 348 H 343 V 0 Z M 120,101 H 236.5 V 217 H 167 v 29 a 8.9999985,8.9999985 0 0 1 -9,9 8.9999985,8.9999985 0 0 1 -9,-9 v -29 h -29 z"
     transform="translate(0,-3.051758e-5)"
     id="FrontPanel_400X350_PHBT5412"
     inkscape:connector-curvature="0" />
  <path
     style="fill:#c5c7c4;fill-opacity:0.8;stroke:#999999;stroke-width:0.80000007;stroke-linejoin:miter;stroke-miterlimit:4;stroke-dasharray:none;stroke-opacity:1"
     d="M 0,0 V 298 H 743 V 0 Z m 320,91 h 116.5 v 69 h 29 a 8.9999985,8.9999985 0 0 1 9,9 8.9999985,8.9999985 0 0 1 -9,9 h -29 v 29 H 320 Z"
     transform="translate(0,-3.051758e-5)"
     id="FrontPanel_800X300_PHDT5314"
     inkscape:connector-curvature="0" />
  <path
     style="fill:#c5c7c4;fill-opacity:0.8;stroke:#999999;stroke-width:0.80000007;stroke-linejoin:miter;stroke-miterlimit:4;stroke-dasharray:none;stroke-opacity:1"
     d="M 0,0 V 298 H 743 V 0 Z m 320,91 h 116.5 v 69 h 29 a 8.9999985,8.9999985 0 0 1 9,9 8.9999985,8.9999985 0 0 1 -9,9 h -29 v 29 H 320 Z"
     transform="translate(0,-3.051758e-5)"
     id="FrontPanel_800X300_PHDT5312"
     inkscape:connector-curvature="0" />
  <path
     style="fill:#c5c7c4;fill-opacity:0.8;stroke:#999999;stroke-width:0.80000007;stroke-linejoin:miter;stroke-miterlimit:4;stroke-dasharray:none;stroke-opacity:1"
     d="M 0,0 V 298 H 543 V 0 Z m 220,91 h 116.5 v 69 h 29 a 8.9999985,8.9999985 0 0 1 9,9 8.9999985,8.9999985 0 0 1 -9,9 h -29 v 29 H 220 Z"
     transform="translate(0,-3.051758e-5)"
     id="FrontPanel_600X300_PHCT5314"
     inkscape:connector-curvature="0" />
  <path
     style="fill:#c5c7c4;fill-opacity:0.8;stroke:#999999;stroke-width:0.80000007;stroke-linejoin:miter;stroke-miterlimit:4;stroke-dasharray:none;stroke-opacity:1"
     d="M 0,0 V 298 H 543 V 0 Z m 220,91 h 116.5 v 69 h 29 a 8.9999985,8.9999985 0 0 1 9,9 8.9999985,8.9999985 0 0 1 -9,9 h -29 v 29 H 220 Z"
     transform="translate(0,-3.051758e-5)"
     id="FrontPanel_600X300_PHCT5312"
     inkscape:connector-curvature="0" />
  <path
     style="fill:#c5c7c4;fill-opacity:0.8;stroke:#999999;stroke-width:0.80000007;stroke-linejoin:miter;stroke-miterlimit:4;stroke-dasharray:none;stroke-opacity:1"
     d="M 0,0 V 298 H 343 V 0 Z m 120,91 h 116.5 v 69 h 29 a 8.9999985,8.9999985 0 0 1 9,9 8.9999985,8.9999985 0 0 1 -9,9 h -29 v 29 H 120 Z"
     transform="translate(0,-3.051758e-5)"
     id="FrontPanel_400X300_PHBT5314"
     inkscape:connector-curvature="0" />
  <path
     style="fill:#c5c7c4;fill-opacity:0.8;stroke:#999999;stroke-width:0.80000007;stroke-linejoin:miter;stroke-miterlimit:4;stroke-dasharray:none;stroke-opacity:1"
     d="M 0,0 V 298 H 343 V 0 Z m 120,91 h 116.5 v 69 h 29 a 8.9999985,8.9999985 0 0 1 9,9 8.9999985,8.9999985 0 0 1 -9,9 h -29 v 29 H 120 Z"
     transform="translate(0,-3.051758e-5)"
     id="FrontPanel_400X300_PHBT5312"
     inkscape:connector-curvature="0" />
  <path
     style="fill:#c5c7c4;fill-opacity:0.8;stroke:#999999;stroke-width:0.80000007;stroke-linejoin:miter;stroke-miterlimit:4;stroke-dasharray:none;stroke-opacity:1"
     d="M 0,0 V 248 H 743 V 0 Z m 321,89.5 h 115 v 115 H 321 Z"
     transform="translate(0,-3.051758e-5)"
     id="FrontPanel_800X250_PHDT5426"
     inkscape:connector-curvature="0" />
  <path
     style="fill:#c5c7c4;fill-opacity:0.8;stroke:#999999;stroke-width:0.80000007;stroke-linejoin:miter;stroke-miterlimit:4;stroke-dasharray:none;stroke-opacity:1"
     d="M 0,0 V 248 H 743 V 0 Z M 259.5,89.5 H 323 v 115 h -63.5 z m 112.5,0 h 115 v 115 H 372 Z"
     transform="translate(0,-3.051758e-5)"
     id="FrontPanel_800X250_PHDT5423"
     inkscape:connector-curvature="0" />
  <path
     style="fill:#c5c7c4;fill-opacity:0.8;stroke:#999999;stroke-width:0.80000007;stroke-linejoin:miter;stroke-miterlimit:4;stroke-dasharray:none;stroke-opacity:1"
     d="M 0,0 V 248 H 743 V 0 Z m 321,89.5 h 115 v 115 H 321 Z"
     transform="translate(0,-3.051758e-5)"
     id="FrontPanel_800X250_PHDT5409"
     inkscape:connector-curvature="0" />
  <path
     style="fill:#c5c7c4;fill-opacity:0.8;stroke:#999999;stroke-width:0.80000007;stroke-linejoin:miter;stroke-miterlimit:4;stroke-dasharray:none;stroke-opacity:1"
     d="M 0,0 V 248 H 743 V 0 Z m 321,89.5 h 115 v 115 H 321 Z"
     transform="translate(0,-3.051758e-5)"
     id="FrontPanel_800X250_PHDT5406"
     inkscape:connector-curvature="0" />
  <path
     style="fill:#c5c7c4;fill-opacity:0.8;stroke:#999999;stroke-width:0.80000007;stroke-linejoin:miter;stroke-miterlimit:4;stroke-dasharray:none;stroke-opacity:1"
     d="M 0,0 V 248 H 743 V 0 Z m 321,89.5 h 115 v 115 H 321 Z"
     transform="translate(0,-3.051758e-5)"
     id="FrontPanel_800X250_PHDT5404"
     inkscape:connector-curvature="0" />
  <path
     style="fill:#c5c7c4;fill-opacity:0.8;stroke:#999999;stroke-width:0.80000007;stroke-linejoin:miter;stroke-miterlimit:4;stroke-dasharray:none;stroke-opacity:1"
     d="M 0,0 V 248 H 543 V 0 Z M 159.5,89.5 H 223 v 115 h -63.5 z m 112.5,0 h 115 v 115 H 272 Z"
     transform="translate(0,-3.051758e-5)"
     id="FrontPanel_600X250_PHCT5423"
     inkscape:connector-curvature="0" />
  <g
     id="SlotBR">
    <circle
       style="fill:#b3b3b3;stroke:#808080"
       r="6.25"
       cy="299"
       cx="728.70001"
       id="circle4616" />
    <path
       style="fill:#999999;stroke:#808080;stroke-width:1.00000012;stroke-miterlimit:4;stroke-dasharray:none;stroke-opacity:0.88235294"
       inkscape:connector-curvature="0"
       d="m 728.70001,301.75 a 2.7308125,2.7495079 0 0 0 2.51367,-1.67447 h 3.98633 v -1.86985 h -3.88839 a 2.7308125,2.7495079 0 0 0 -2.61161,-1.95568 2.7308125,2.7495079 0 0 0 -2.61342,1.95568 h -3.88658 v 1.86985 h 3.98995 a 2.7308125,2.7495079 0 0 0 2.51005,1.67447 z"
       id="path4618" />
  </g>
  <g
     id="SlotBL">
    <circle
       style="fill:#b3b3b3;stroke:#808080"
       r="6.25"
       cy="299"
       cx="14.3"
       id="circle4232" />
    <path
       style="fill:#999999;stroke:#808080;stroke-opacity:0.88235294"
       inkscape:connector-curvature="0"
       d="m 14.3,301.75 a 2.730813,2.7495027 0 0 0 2.51368,-1.67447 H 20.8 v -1.86985 H 16.91161 A 2.730813,2.7495027 0 0 0 14.3,296.25 2.730813,2.7495027 0 0 0 11.68659,298.20568 H 7.8000002 v 1.86985 H 11.78995 A 2.730813,2.7495027 0 0 0 14.3,301.75 Z"
       id="path4234" />
  </g>
  <g
     id="SlotTL">
    <circle
       id="circle4226"
       cx="14.3"
       cy="49"
       r="6.25"
       style="fill:#b3b3b3;stroke:#808080" />
    <path
       id="path4228"
       d="m 14.3,51.750001 a 2.730813,2.7495027 0 0 0 2.51368,-1.674469 H 20.8 V 48.205678 H 16.91161 A 2.730813,2.7495027 0 0 0 14.3,46.25 2.730813,2.7495027 0 0 0 11.68659,48.205678 H 7.8000002 v 1.869854 H 11.78995 A 2.730813,2.7495027 0 0 0 14.3,51.750001 Z"
       inkscape:connector-curvature="0"
       style="fill:#999999;stroke:#808080;stroke-opacity:0.88235294" />
  </g>
  <g
     id="SlotTR">
    <circle
       style="fill:#b3b3b3;stroke:#808080;stroke-width:1.00000012;stroke-miterlimit:4;stroke-dasharray:none"
       r="6.25"
       cy="49"
       cx="728.70001"
       id="circle6651" />
    <path
       style="fill:#999999;stroke:#808080;stroke-width:1.00000012;stroke-miterlimit:4;stroke-dasharray:none;stroke-opacity:1"
       inkscape:connector-curvature="0"
       d="m 728.70001,51.750001 a 2.730813,2.7495027 0 0 0 2.51368,-1.674469 h 3.98632 v -1.869854 h -3.88839 A 2.730813,2.7495027 0 0 0 728.70001,46.25 2.730813,2.7495027 0 0 0 726.0866,48.205678 h -3.88659 v 1.869854 h 3.98995 a 2.730813,2.7495027 0 0 0 2.51005,1.674469 z"
       id="path6653" />
  </g>
</svg>
