<?xml version="1.0" encoding="UTF-8" standalone="no"?>
<svg
   xmlns:dc="http://purl.org/dc/elements/1.1/"
   xmlns:cc="http://creativecommons.org/ns#"
   xmlns:rdf="http://www.w3.org/1999/02/22-rdf-syntax-ns#"
   xmlns:svg="http://www.w3.org/2000/svg"
   xmlns="http://www.w3.org/2000/svg"
   xmlns:sodipodi="http://sodipodi.sourceforge.net/DTD/sodipodi-0.dtd"
   xmlns:inkscape="http://www.inkscape.org/namespaces/inkscape"
   id="svg2"
   height="248.79997"
   overflow="visible"
   viewBox="0 0 743.80003 248.79996"
   width="743.79999"
   version="1.1"
   inkscape:version="0.92.4 (5da689c313, 2019-01-14)"
   sodipodi:docname="Kit_breaker_XT2_H_1.svg"
   style="overflow:visible">
  <metadata
     id="metadata23">
    <rdf:RDF>
      <cc:Work
         rdf:about="">
        <dc:format>image/svg+xml</dc:format>
        <dc:type
           rdf:resource="http://purl.org/dc/dcmitype/StillImage" />
        <dc:title />
      </cc:Work>
    </rdf:RDF>
  </metadata>
  <defs
     id="defs21" />
  <sodipodi:namedview
     pagecolor="#ffffff"
     bordercolor="#666666"
     borderopacity="1"
     objecttolerance="10"
     gridtolerance="10"
     guidetolerance="10"
     inkscape:pageopacity="0"
     inkscape:pageshadow="2"
     inkscape:window-width="1366"
     inkscape:window-height="705"
     id="namedview19"
     showgrid="false"
     inkscape:zoom="0.39862867"
     inkscape:cx="10.977646"
     inkscape:cy="242.68059"
     inkscape:window-x="-8"
     inkscape:window-y="-8"
     inkscape:window-maximized="1"
     inkscape:current-layer="svg2"
     showguides="false"
     fit-margin-top="0"
     fit-margin-left="0"
     fit-margin-right="0"
     fit-margin-bottom="0" />
  <path
     style="fill:#c5c7c4;fill-opacity:0.8;stroke:#999999;stroke-width:0.80000007;stroke-linejoin:miter;stroke-miterlimit:4;stroke-dasharray:none;stroke-opacity:1"
     d="M 0,-4.2e-5 V 197.99996 H 543 V -4.2e-5 Z m 235.5,48.5 h 91 V 149.49996 h -37 v 29.5 h -37 v -29.5 h -17 z"
     id="FrontPanel_600X200_PHCX2310"
     inkscape:connector-curvature="0" />
  <path
     style="fill:#c5c7c4;fill-opacity:0.8;stroke:#999999;stroke-width:0.80000007;stroke-linejoin:miter;stroke-miterlimit:4;stroke-dasharray:none;stroke-opacity:1"
     d="M 0,-4.2e-5 V 197.99996 H 543 V -4.2e-5 Z m 237.5,57.999998 h 89 v 82.000004 h -37 v 39 h -37 v -39 h -15 z"
     id="FrontPanel_600X200_PHCX2300"
     inkscape:connector-curvature="0" />
  <path
     style="fill:#c5c7c4;fill-opacity:0.8;stroke:#999999;stroke-width:0.80000007;stroke-linejoin:miter;stroke-miterlimit:4;stroke-dasharray:none;stroke-opacity:1"
     d="M 0,-4.2e-5 V 197.99996 H 343 V -4.2e-5 Z m 137.5,57.999998 h 89 v 82.000004 h -37 v 39 h -37 v -39 h -15 z"
     id="FrontPanel_400X200_PHBX2300"
     inkscape:connector-curvature="0" />
  <path
     style="fill:#c5c7c4;fill-opacity:0.8;stroke:#999999;stroke-width:0.80000007;stroke-linejoin:miter;stroke-miterlimit:4;stroke-dasharray:none;stroke-opacity:1"
     d="M 0,-4.2e-5 V 197.99996 H 543 V -4.2e-5 Z m 235.5,48.5 h 91 V 149.49996 h -37 v 29.5 h -37 v -29.5 h -17 z"
     id="FrontPanel_600X200_PHCX2312"
     inkscape:connector-curvature="0" />
  <path
     style="fill:#c5c7c4;fill-opacity:0.8;stroke:#999999;stroke-width:0.80000007;stroke-linejoin:miter;stroke-miterlimit:4;stroke-dasharray:none;stroke-opacity:1"
     d="M 0,-4.2e-5 V 197.99996 H 343 V -4.2e-5 Z m 135.5,48.5 h 91 V 149.49996 h -37 v 29.5 h -37 v -29.5 h -17 z"
     id="FrontPanel_400X200_PHBX2310"
     inkscape:connector-curvature="0" />
  <path
     style="fill:#c5c7c4;fill-opacity:0.8;stroke:#999999;stroke-width:0.80000007;stroke-linejoin:miter;stroke-miterlimit:4;stroke-dasharray:none;stroke-opacity:1"
     d="M 0,-4.2e-5 V 197.99996 H 543 V -4.2e-5 Z M 217.5,36.97652 h 83 v 124 h -83 z"
     id="FrontPanel_600X200_PHCX2401"
     inkscape:connector-curvature="0" />
  <path
     inkscape:connector-curvature="0"
     id="FrontPanel_400X200_PHBX2312"
     d="M 0,-4.2e-5 V 197.99996 H 343 V -4.2e-5 Z m 135.5,48.5 h 91 V 149.49996 h -37 v 29.5 h -37 v -29.5 h -17 z"
     style="fill:#c5c7c4;fill-opacity:0.8;stroke:#999999;stroke-width:0.80000007;stroke-linejoin:miter;stroke-miterlimit:4;stroke-dasharray:none;stroke-opacity:1" />
  <path
     style="fill:#c5c7c4;fill-opacity:0.8;stroke:#999999;stroke-width:0.80000007;stroke-linejoin:miter;stroke-miterlimit:4;stroke-dasharray:none;stroke-opacity:1"
     d="M 0,-4.2e-5 V 197.99996 H 543 V -4.2e-5 Z m 235,53.999998 h 91 V 154.99996 h -91 z"
     id="FrontPanel_600X200_PHCX2404"
     inkscape:connector-curvature="0" />
  <path
     inkscape:connector-curvature="0"
     id="FrontPanel_600X200_PHCX2407"
     d="M 0,-4.2e-5 V 197.99996 H 543 V -4.2e-5 Z M 217.5,36.97652 h 83 v 124 h -83 z"
     style="fill:#c5c7c4;fill-opacity:0.8;stroke:#999999;stroke-width:0.80000007;stroke-linejoin:miter;stroke-miterlimit:4;stroke-dasharray:none;stroke-opacity:1" />
  <path
     style="fill:#c5c7c4;fill-opacity:0.8;stroke:#999999;stroke-width:0.80000007;stroke-linejoin:miter;stroke-miterlimit:4;stroke-dasharray:none;stroke-opacity:1"
     d="M 0,-4.2e-5 V 197.99996 H 543 V -4.2e-5 Z m 235.5,63.499998 h 91 V 164.49996 h -91 z"
     id="FrontPanel_600X200_PHCX2409"
     inkscape:connector-curvature="0" />
  <path
     style="fill:#c5c7c4;fill-opacity:0.8;stroke:#999999;stroke-width:0.80000007;stroke-linejoin:miter;stroke-miterlimit:4;stroke-dasharray:none;stroke-opacity:1"
     d="M 0,-4.2e-5 V 197.99996 H 543 V -4.2e-5 Z m 180,37 H 338 V 160.99996 H 180 Z"
     id="FrontPanel_600X200_PHCX2423"
     inkscape:connector-curvature="0" />
  <path
     style="fill:#c5c7c4;fill-opacity:0.8;stroke:#999999;stroke-width:0.80000007;stroke-linejoin:miter;stroke-miterlimit:4;stroke-dasharray:none;stroke-opacity:1"
     d="M 0,-4.2e-5 V 197.99996 H 543 V -4.2e-5 Z m 238.5,73.499998 h 88 v 81.000004 h -88 z"
     id="FrontPanel_600X200_PHCX2405"
     inkscape:connector-curvature="0" />
  <path
     style="fill:#c5c7c4;fill-opacity:0.8;stroke:#999999;stroke-width:0.80000007;stroke-linejoin:miter;stroke-miterlimit:4;stroke-dasharray:none;stroke-opacity:1"
     d="M 0,-4.2e-5 V 147.99996 H 343 V -4.2e-5 Z m 117.5,27 h 83 v 94.000002 h -83 z"
     id="FrontPanel_400X150_PHBX2301"
     inkscape:connector-curvature="0" />
  <path
     inkscape:connector-curvature="0"
     id="FrontPanel_600X200_PHCX2427"
     d="M 0,-4.2e-5 V 197.99996 H 543 V -4.2e-5 Z m 238.5,73.499998 h 88 v 81.000004 h -88 z"
     style="fill:#c5c7c4;fill-opacity:0.8;stroke:#999999;stroke-width:0.80000007;stroke-linejoin:miter;stroke-miterlimit:4;stroke-dasharray:none;stroke-opacity:1" />
  <path
     style="fill:#c5c7c4;fill-opacity:0.8;stroke:#999999;stroke-width:0.80000007;stroke-linejoin:miter;stroke-miterlimit:4;stroke-dasharray:none;stroke-opacity:1"
     d="M 0,-4.2e-5 V 147.99996 H 543 V -4.2e-5 Z m 217.5,27 h 83 v 94.000002 h -83 z"
     id="FrontPanel_600X150_PHCX2301"
     inkscape:connector-curvature="0" />
  <path
     style="fill:#c5c7c4;fill-opacity:0.8;stroke:#999999;stroke-width:0.80000007;stroke-linejoin:miter;stroke-miterlimit:4;stroke-dasharray:none;stroke-opacity:1"
     d="M 0,-4.2e-5 V 197.99996 H 343 V -4.2e-5 Z m 117.5,37 h 83 V 160.99996 h -83 z"
     id="FrontPanel_400X200_PHBX2401"
     inkscape:connector-curvature="0" />
  <path
     style="fill:#c5c7c4;fill-opacity:0.8;stroke:#999999;stroke-width:0.80000007;stroke-linejoin:miter;stroke-miterlimit:4;stroke-dasharray:none;stroke-opacity:1"
     d="M 0,-4.2e-5 V 197.99996 H 343 V -4.2e-5 Z m 135,53.999998 h 91 V 154.99996 h -91 z"
     id="FrontPanel_400X200_PHBX2404"
     inkscape:connector-curvature="0" />
  <path
     style="fill:#c5c7c4;fill-opacity:0.8;stroke:#999999;stroke-width:0.80000007;stroke-linejoin:miter;stroke-miterlimit:4;stroke-dasharray:none;stroke-opacity:1"
     d="M 0,-4.2e-5 V 197.99996 H 343 V -4.2e-5 Z m 80,37 H 238 V 160.99996 H 80 Z"
     id="FrontPanel_400X200_PHBX2423"
     inkscape:connector-curvature="0" />
  <path
     style="fill:#c5c7c4;fill-opacity:0.8;stroke:#999999;stroke-width:0.80000007;stroke-linejoin:miter;stroke-miterlimit:4;stroke-dasharray:none;stroke-opacity:1"
     d="M 0,-4.2e-5 V 197.99996 H 343 V -4.2e-5 Z m 138.5,73.499998 h 89 v 81.000004 h -89 z"
     id="FrontPanel_400X200_PHBX2405"
     inkscape:connector-curvature="0" />
  <path
     style="fill:#c5c7c4;fill-opacity:0.8;stroke:#999999;stroke-width:0.80000007;stroke-linejoin:miter;stroke-miterlimit:4;stroke-dasharray:none;stroke-opacity:1"
     d="M 0,-4.2e-5 V 197.99996 H 343 V -4.2e-5 Z m 117.5,37 h 83 V 160.99996 h -83 z"
     id="FrontPanel_400X200_PHBX2407"
     inkscape:connector-curvature="0" />
  <path
     style="fill:#c5c7c4;fill-opacity:0.8;stroke:#999999;stroke-width:0.80000007;stroke-linejoin:miter;stroke-miterlimit:4;stroke-dasharray:none;stroke-opacity:1"
     d="M 0,-4.2e-5 V 197.99996 H 343 V -4.2e-5 Z m 138.5,73.499998 h 88 v 81.000004 h -88 z"
     id="FrontPanel_400X200_PHBX2427"
     inkscape:connector-curvature="0" />
  <path
     style="fill:#c5c7c4;fill-opacity:0.8;stroke:#999999;stroke-width:0.80000007;stroke-linejoin:miter;stroke-miterlimit:4;stroke-dasharray:none;stroke-opacity:1"
     d="M 0,-4.2e-5 V 197.99996 H 343 V -4.2e-5 Z m 135.5,63.499998 h 91 V 164.49996 h -91 z"
     id="FrontPanel_400X200_PHBX2409"
     inkscape:connector-curvature="0" />
  <path
     style="fill:#c5c7c4;fill-opacity:0.8;stroke:#999999;stroke-width:0.80000007;stroke-linejoin:miter;stroke-miterlimit:4;stroke-dasharray:none;stroke-opacity:1"
     d="M 0,0 V 248 H 743 V 0 Z m 275.19922,62 h 158 v 124 h -158 z"
     id="FrontPanel_800X250_PHDX2428"
     inkscape:connector-curvature="0" />
  <path
     style="fill:#c5c7c4;fill-opacity:0.8;stroke:#999999;stroke-width:0.80000007;stroke-linejoin:miter;stroke-miterlimit:4;stroke-dasharray:none;stroke-opacity:1"
     d="M 0,0 V 198 H 743 V 0 Z m 317.5,37 h 83 v 124 h -83 z"
     id="FrontPanel_800X200_PHDX2401"
     inkscape:connector-curvature="0" />
  <path
     style="fill:#c5c7c4;fill-opacity:0.8;stroke:#999999;stroke-width:0.80000007;stroke-linejoin:miter;stroke-miterlimit:4;stroke-dasharray:none;stroke-opacity:1"
     d="M 0,0 V 198 H 743 V 0 Z m 335,43 h 91 v 101 h -91 z"
     id="FrontPanel_800X200_PHDX2404"
     inkscape:connector-curvature="0" />
  <path
     style="fill:#c5c7c4;fill-opacity:0.8;stroke:#999999;stroke-width:0.80000007;stroke-linejoin:miter;stroke-miterlimit:4;stroke-dasharray:none;stroke-opacity:1"
     d="M 0,0 V 198 H 743 V 0 Z M 280,37 H 438 V 161 H 280 Z"
     id="FrontPanel_800X200_PHDX2423"
     inkscape:connector-curvature="0" />
  <path
     style="fill:#c5c7c4;fill-opacity:0.8;stroke:#999999;stroke-width:0.80000007;stroke-linejoin:miter;stroke-miterlimit:4;stroke-dasharray:none;stroke-opacity:1"
     d="M 0,0 V 198 H 743 V 0 Z m 317.5,37 h 83 v 124 h -83 z"
     id="FrontPanel_800X200_PHDX2407"
     inkscape:connector-curvature="0" />
  <path
     style="fill:#c5c7c4;fill-opacity:0.8;stroke:#999999;stroke-width:0.80000007;stroke-linejoin:miter;stroke-miterlimit:4;stroke-dasharray:none;stroke-opacity:1"
     d="M 0,0 V 248 H 543 V 0 Z m 235.5,88.5 h 91 v 101 h -37 V 219 h -37 v -29.5 h -17 z"
     id="FrontPanel_600X250_PHCX2412"
     inkscape:connector-curvature="0" />
  <path
     style="fill:#c5c7c4;fill-opacity:0.8;stroke:#999999;stroke-width:0.80000007;stroke-linejoin:miter;stroke-miterlimit:4;stroke-dasharray:none;stroke-opacity:1"
     d="M 0,0 V 248 H 543 V 0 Z m 237.5,98 h 89 v 82 h -37 v 39 h -37 v -39 h -15 z"
     id="FrontPanel_600X250_PHCX2400"
     inkscape:connector-curvature="0" />
  <path
     style="fill:#c5c7c4;fill-opacity:0.8;stroke:#999999;stroke-width:0.80000007;stroke-linejoin:miter;stroke-miterlimit:4;stroke-dasharray:none;stroke-opacity:1"
     d="M 0,0 V 248 H 543 V 0 Z m 142,62 h 68 v 124 h -68 z m 93.5,31.5 h 91 v 101 h -37 V 224 h -37 v -29.5 h -17 z"
     id="FrontPanel_600X250_PHCX2417"
     inkscape:connector-curvature="0" />
  <path
     style="fill:#c5c7c4;fill-opacity:0.8;stroke:#999999;stroke-width:0.80000007;stroke-linejoin:miter;stroke-miterlimit:4;stroke-dasharray:none;stroke-opacity:1"
     d="M 0,0 V 248 H 543 V 0 Z m 235.5,88.5 h 91 v 101 h -37 V 219 h -37 v -29.5 h -17 z"
     id="FrontPanel_600X250_PHCX2410"
     inkscape:connector-curvature="0" />
  <path
     style="fill:#c5c7c4;fill-opacity:0.8;stroke:#999999;stroke-width:0.80000007;stroke-linejoin:miter;stroke-miterlimit:4;stroke-dasharray:none;stroke-opacity:1"
     d="M 0,0 V 248 H 343 V 0 Z m 135.5,88.5 h 91 v 101 h -37 V 219 h -37 v -29.5 h -17 z"
     id="FrontPanel_400X250_PHBX2412"
     inkscape:connector-curvature="0" />
  <path
     style="fill:#c5c7c4;fill-opacity:0.8;stroke:#999999;stroke-width:0.80000007;stroke-linejoin:miter;stroke-miterlimit:4;stroke-dasharray:none;stroke-opacity:1"
     d="M 0,0 V 248 H 343 V 0 Z m 137.5,98 h 89 v 82 h -37 v 39 h -37 v -39 h -15 z"
     id="FrontPanel_400X250_PHBX2400"
     inkscape:connector-curvature="0" />
  <path
     style="fill:#c5c7c4;fill-opacity:0.8;stroke:#999999;stroke-width:0.80000007;stroke-linejoin:miter;stroke-miterlimit:4;stroke-dasharray:none;stroke-opacity:1"
     d="M 0,0 V 248 H 343 V 0 Z m 75.5,62 h 158 v 124 h -158 z"
     id="FrontPanel_400X250_PHBX2428"
     inkscape:connector-curvature="0" />
  <path
     style="fill:#c5c7c4;fill-opacity:0.8;stroke:#999999;stroke-width:0.80000007;stroke-linejoin:miter;stroke-miterlimit:4;stroke-dasharray:none;stroke-opacity:1"
     d="M 0,0 V 248 H 343 V 0 Z m 135.5,88.5 h 91 v 101 h -37 V 219 h -37 v -29.5 h -17 z"
     id="FrontPanel_400X250_PHBX2410"
     inkscape:connector-curvature="0" />
  <g
     id="SlotTR">
    <circle
       style="fill:#b3b3b3;stroke:#808080;stroke-width:1.00000012;stroke-miterlimit:4;stroke-dasharray:none"
       r="6.25"
       cy="45.264874"
       cx="527.5"
       id="circle6651" />
    <path
       style="fill:#999999;stroke:#808080;stroke-width:1.00000012;stroke-miterlimit:4;stroke-dasharray:none;stroke-opacity:1"
       inkscape:connector-curvature="0"
       d="m 527.5,48.014874 a 2.730813,2.7495027 0 0 0 2.51368,-1.674469 H 534 v -1.869854 h -3.88839 A 2.730813,2.7495027 0 0 0 527.5,42.514873 2.730813,2.7495027 0 0 0 524.88659,44.470551 H 521 v 1.869854 h 3.98995 A 2.730813,2.7495027 0 0 0 527.5,48.014874 Z"
       id="path6653" />
  </g>
  <g
     id="SlotBL">
    <circle
       style="fill:#b3b3b3;stroke:#808080"
       r="6.25"
       cy="148.66997"
       cx="15.5"
       id="circle4232" />
    <path
       style="fill:#999999;stroke:#808080;stroke-opacity:0.88235294"
       inkscape:connector-curvature="0"
       d="m 15.5,151.41997 a 2.730813,2.7495027 0 0 0 2.51368,-1.67447 H 22 v -1.86985 H 18.11161 A 2.730813,2.7495027 0 0 0 15.5,145.91997 2.730813,2.7495027 0 0 0 12.88659,147.87565 H 9 v 1.86985 h 3.98995 A 2.730813,2.7495027 0 0 0 15.5,151.41997 Z"
       id="path4234" />
  </g>
  <g
     id="SlotTL">
    <circle
       id="circle4226"
       cx="15.5"
       cy="45.264874"
       r="6.25"
       style="fill:#b3b3b3;stroke:#808080" />
    <path
       id="path4228"
       d="m 15.5,48.014874 a 2.730813,2.7495027 0 0 0 2.51368,-1.674469 H 22 V 44.470551 H 18.11161 A 2.730813,2.7495027 0 0 0 15.5,42.514873 2.730813,2.7495027 0 0 0 12.88659,44.470551 H 9.0000004 v 1.869854 H 12.98995 A 2.730813,2.7495027 0 0 0 15.5,48.014874 Z"
       inkscape:connector-curvature="0"
       style="fill:#999999;stroke:#808080;stroke-opacity:0.88235294" />
  </g>
  <g
     id="SlotBR">
    <circle
       style="fill:#b3b3b3;stroke:#808080"
       r="6.25"
       cy="148.66997"
       cx="527.5"
       id="circle4616" />
    <path
       style="fill:#999999;stroke:#808080;stroke-width:1.00000012;stroke-miterlimit:4;stroke-dasharray:none;stroke-opacity:0.88235294"
       inkscape:connector-curvature="0"
       d="m 527.5,151.41997 a 2.7308125,2.7495079 0 0 0 2.51367,-1.67447 H 534 v -1.86985 h -3.88839 a 2.7308125,2.7495079 0 0 0 -2.61161,-1.95568 2.7308125,2.7495079 0 0 0 -2.61342,1.95568 H 521 v 1.86985 h 3.98995 a 2.7308125,2.7495079 0 0 0 2.51005,1.67447 z"
       id="path4618" />
  </g>
</svg>
