<?xml version="1.0" encoding="UTF-8" standalone="no"?>
<svg
   xmlns:dc="http://purl.org/dc/elements/1.1/"
   xmlns:cc="http://creativecommons.org/ns#"
   xmlns:rdf="http://www.w3.org/1999/02/22-rdf-syntax-ns#"
   xmlns:svg="http://www.w3.org/2000/svg"
   xmlns="http://www.w3.org/2000/svg"
   xmlns:sodipodi="http://sodipodi.sourceforge.net/DTD/sodipodi-0.dtd"
   xmlns:inkscape="http://www.inkscape.org/namespaces/inkscape"
   id="svg2"
   overflow="visible"
   viewBox="0 0 743.79999 498.79999"
   version="1.1"
   inkscape:version="0.91 r13725"
   sodipodi:docname="Kit_breaker_XT4_H_3.svg"
   style="overflow:visible"
   height="498.79999"
   width="743.79999">
  <metadata
     id="metadata23">
    <rdf:RDF>
      <cc:Work
         rdf:about="">
        <dc:format>image/svg+xml</dc:format>
        <dc:type
           rdf:resource="http://purl.org/dc/dcmitype/StillImage" />
        <dc:title></dc:title>
      </cc:Work>
    </rdf:RDF>
  </metadata>
  <defs
     id="defs21" />
  <sodipodi:namedview
     pagecolor="#ffffff"
     bordercolor="#666666"
     borderopacity="1"
     objecttolerance="10"
     gridtolerance="10"
     guidetolerance="10"
     inkscape:pageopacity="0"
     inkscape:pageshadow="2"
     inkscape:window-width="1301"
     inkscape:window-height="745"
     id="namedview19"
     showgrid="false"
     inkscape:zoom="0.5"
     inkscape:cx="281.19106"
     inkscape:cy="306.48326"
     inkscape:window-x="-8"
     inkscape:window-y="-8"
     inkscape:window-maximized="1"
     inkscape:current-layer="svg2"
     showguides="false"
     fit-margin-top="0"
     fit-margin-left="0"
     fit-margin-right="0"
     fit-margin-bottom="0" />
  <path
     style="overflow:visible;fill:#c5c7c4;fill-opacity:0.8;stroke:#999999;stroke-width:0.80000007;stroke-linejoin:miter;stroke-miterlimit:4;stroke-dasharray:none;stroke-opacity:1"
     d="M 0,0 0,498 743,498 743,0 0,0 Z m 303.5,59.75 97,0 0,145 -97,0 0,-145 z m 0,233.5 97,0 0,145 -97,0 0,-145 z"
     id="FrontPanel_800X500_PHDX4402"
     inkscape:connector-curvature="0" />
  <path
     style="overflow:visible;fill:#c5c7c4;fill-opacity:0.8;stroke:#999999;stroke-width:0.80000007;stroke-linejoin:miter;stroke-miterlimit:4;stroke-dasharray:none;stroke-opacity:1"
     d="M 0,0 0,498 743,498 743,0 0,0 Z m 335.5,99 91,0 0,101 -37,0 0,29.5 -37,0 0,-29.5 -17,0 0,-101 z m 0,234 91,0 0,101 -37,0 0,29.5 -37,0 0,-29.5 -17,0 0,-101 z"
     id="FrontPanel_800X500_PHDX4425"
     inkscape:connector-curvature="0" />
  <g
     id="SlotTR"
     transform="translate(0.80000008,0.80000008)">
    <circle
       style="fill:#b3b3b3;stroke:#808080;stroke-width:1.00000012;stroke-miterlimit:4;stroke-dasharray:none"
       r="6.25"
       cy="49"
       cx="728.70001"
       id="circle6651" />
    <path
       style="fill:#999999;stroke:#808080;stroke-width:1.00000012;stroke-miterlimit:4;stroke-dasharray:none;stroke-opacity:1"
       inkscape:connector-curvature="0"
       d="m 728.70001,51.750001 a 2.730813,2.7495027 0 0 0 2.51368,-1.674469 l 3.98632,0 0,-1.869854 -3.88839,0 A 2.730813,2.7495027 0 0 0 728.70001,46.25 2.730813,2.7495027 0 0 0 726.0866,48.205678 l -3.88659,0 0,1.869854 3.98995,0 a 2.730813,2.7495027 0 0 0 2.51005,1.674469 z"
       id="path6653" />
  </g>
  <g
     id="SlotTL"
     transform="translate(0.80000008,0.80000008)">
    <circle
       id="circle4226"
       cx="14.3"
       cy="49"
       r="6.25"
       style="fill:#b3b3b3;stroke:#808080" />
    <path
       id="path4228"
       d="m 14.3,51.750001 a 2.730813,2.7495027 0 0 0 2.51368,-1.674469 l 3.98632,0 0,-1.869854 -3.88839,0 A 2.730813,2.7495027 0 0 0 14.3,46.25 2.730813,2.7495027 0 0 0 11.68659,48.205678 l -3.8865897,0 0,1.869854 3.9899497,0 A 2.730813,2.7495027 0 0 0 14.3,51.750001 Z"
       inkscape:connector-curvature="0"
       style="fill:#999999;stroke:#808080;stroke-opacity:0.88235294" />
  </g>
  <g
     id="SlotBL"
     transform="translate(0.80000008,0.80000008)">
    <circle
       style="fill:#b3b3b3;stroke:#808080"
       r="6.25"
       cy="449"
       cx="14.3"
       id="circle4232" />
    <path
       style="fill:#999999;stroke:#808080;stroke-opacity:0.88235294"
       inkscape:connector-curvature="0"
       d="m 14.3,451.75 a 2.730813,2.7495027 0 0 0 2.51368,-1.67447 l 3.98632,0 0,-1.86985 -3.88839,0 A 2.730813,2.7495027 0 0 0 14.3,446.25 a 2.730813,2.7495027 0 0 0 -2.61341,1.95568 l -3.8865898,0 0,1.86985 3.9899498,0 A 2.730813,2.7495027 0 0 0 14.3,451.75 Z"
       id="path4234" />
  </g>
  <g
     id="SlotBR"
     transform="translate(0.80000008,0.80000008)">
    <circle
       style="fill:#b3b3b3;stroke:#808080"
       r="6.25"
       cy="449"
       cx="728.70001"
       id="circle4616" />
    <path
       style="fill:#999999;stroke:#808080;stroke-width:1.00000012;stroke-miterlimit:4;stroke-dasharray:none;stroke-opacity:0.88235294"
       inkscape:connector-curvature="0"
       d="m 728.70001,451.75 a 2.7308125,2.7495079 0 0 0 2.51367,-1.67447 l 3.98633,0 0,-1.86985 -3.88839,0 a 2.7308125,2.7495079 0 0 0 -2.61161,-1.95568 2.7308125,2.7495079 0 0 0 -2.61342,1.95568 l -3.88658,0 0,1.86985 3.98995,0 a 2.7308125,2.7495079 0 0 0 2.51005,1.67447 z"
       id="path4618" />
  </g>
</svg>
