<?xml version="1.0" encoding="UTF-8" standalone="no"?>
<svg
   xmlns:dc="http://purl.org/dc/elements/1.1/"
   xmlns:cc="http://creativecommons.org/ns#"
   xmlns:rdf="http://www.w3.org/1999/02/22-rdf-syntax-ns#"
   xmlns:svg="http://www.w3.org/2000/svg"
   xmlns="http://www.w3.org/2000/svg"
   xmlns:sodipodi="http://sodipodi.sourceforge.net/DTD/sodipodi-0.dtd"
   xmlns:inkscape="http://www.inkscape.org/namespaces/inkscape"
   id="svg2"
   height="398.79996"
   overflow="visible"
   viewBox="0 0 743.79997 398.79993"
   width="743.79993"
   version="1.1"
   inkscape:version="0.91 r13725"
   sodipodi:docname="Kit_breaker_XT4_V_1.svg"
   style="overflow:visible">
  <metadata
     id="metadata23">
    <rdf:RDF>
      <cc:Work
         rdf:about="">
        <dc:format>image/svg+xml</dc:format>
        <dc:type
           rdf:resource="http://purl.org/dc/dcmitype/StillImage" />
        <dc:title />
      </cc:Work>
    </rdf:RDF>
  </metadata>
  <defs
     id="defs21" />
  <sodipodi:namedview
     pagecolor="#ffffff"
     bordercolor="#666666"
     borderopacity="1"
     objecttolerance="10"
     gridtolerance="10"
     guidetolerance="10"
     inkscape:pageopacity="0"
     inkscape:pageshadow="2"
     inkscape:window-width="1366"
     inkscape:window-height="705"
     id="namedview19"
     showgrid="false"
     inkscape:zoom="0.5"
     inkscape:cx="379.91526"
     inkscape:cy="81.284126"
     inkscape:window-x="-8"
     inkscape:window-y="-8"
     inkscape:window-maximized="1"
     inkscape:current-layer="svg2"
     showguides="false"
     fit-margin-top="0"
     fit-margin-left="0"
     fit-margin-right="0"
     fit-margin-bottom="0" />
  <path
     style="overflow:visible;fill:#c5c7c4;fill-opacity:0.8;stroke:#999999;stroke-width:0.80000007;stroke-linejoin:miter;stroke-miterlimit:4;stroke-dasharray:none;stroke-opacity:1"
     d="M 0,0 0,348 743,348 743,0 0,0 Z m 56.5,145 110,0 0,97 -110,0 0,-97 z m 170,0 110,0 0,97 -110,0 0,-97 z m 180,0 110,0 0,97 -110,0 0,-97 z m 170,0 110,0 0,97 -110,0 0,-97 z"
     transform="translate(0,-3.051758e-5)"
     id="FrontPanel_800X300_PVDX4807"
     inkscape:connector-curvature="0" />
  <path
     style="overflow:visible;fill:#c5c7c4;fill-opacity:0.8;stroke:#999999;stroke-width:0.80000007;stroke-linejoin:miter;stroke-miterlimit:4;stroke-dasharray:none;stroke-opacity:1"
     d="M 0,0 0,298 743,298 743,0 0,0 Z m 51.5,81 110,0 0,97 -110,0 0,-97 z m 175,0 110,0 0,97 -110,0 0,-97 z m 180,0 110,0 0,97 -110,0 0,-97 z m 175,0 110,0 0,97 -110,0 0,-97 z"
     transform="translate(0,-3.051758e-5)"
     id="FrontPanel_800X300_PVDX4801"
     inkscape:connector-curvature="0" />
  <path
     style="overflow:visible;fill:#c5c7c4;fill-opacity:0.8;stroke:#999999;stroke-width:0.80000007;stroke-linejoin:miter;stroke-miterlimit:4;stroke-dasharray:none;stroke-opacity:1"
     d="M 0,0 0,298 743,298 743,0 0,0 Z m 66.5,81 145,0 0,97 -145,0 0,-97 z m 250,0 145,0 0,97 -145,0 0,-97 z m 215,0 145,0 0,97 -145,0 0,-97 z"
     transform="translate(0,-3.051758e-5)"
     id="FrontPanel_800X300_PVDX4701"
     inkscape:connector-curvature="0" />
  <path
     style="overflow:visible;fill:#c5c7c4;fill-opacity:0.8;stroke:#999999;stroke-width:0.80000007;stroke-linejoin:miter;stroke-miterlimit:4;stroke-dasharray:none;stroke-opacity:1"
     d="M 0,0 0,398 343,398 343,0 0,0 Z m 138.5,144 101,0 0,37 29.5,0 0,37 -29.5,0 0,17 -101,0 0,-91 z m -39,131.5 144,0 0,68 -144,0 0,-68 z"
     transform="translate(0,-3.051758e-5)"
     id="FrontPanel_400X400_PVBX4417"
     inkscape:connector-curvature="0" />
  <path
     style="overflow:visible;fill:#c5c7c4;fill-opacity:0.8;stroke:#999999;stroke-width:0.80000007;stroke-linejoin:miter;stroke-miterlimit:4;stroke-dasharray:none;stroke-opacity:1"
     d="M 0,0 0,348 343,348 343,0 0,0 Z m 148,118.5 82,0 0,89 -82,0 0,-89 z"
     transform="translate(0,-3.051758e-5)"
     id="FrontPanel_400X350_PVBX4427"
     inkscape:connector-curvature="0" />
  <path
     style="overflow:visible;fill:#c5c7c4;fill-opacity:0.8;stroke:#999999;stroke-width:0.80000007;stroke-linejoin:miter;stroke-miterlimit:4;stroke-dasharray:none;stroke-opacity:1"
     d="M 0,0 0,398 343,398 343,0 0,0 Z m 95.5,132 145,0 0,173 -145,0 0,-173 z"
     transform="translate(0,-3.051758e-5)"
     id="FrontPanel_400X400_PVBX4423"
     inkscape:connector-curvature="0" />
  <path
     style="overflow:visible;fill:#c5c7c4;fill-opacity:0.8;stroke:#999999;stroke-width:0.80000007;stroke-linejoin:miter;stroke-miterlimit:4;stroke-dasharray:none;stroke-opacity:1"
     d="M 0,0 0,348 343,348 343,0 0,0 Z m 138.5,119 101,0 0,37 29.5,0 0,37 -29.5,0 0,17 -101,0 0,-91 z"
     transform="translate(0,-3.051758e-5)"
     id="FrontPanel_400X350_PVBX4412"
     inkscape:connector-curvature="0" />
  <path
     style="overflow:visible;fill:#c5c7c4;fill-opacity:0.8;stroke:#999999;stroke-width:0.80000007;stroke-linejoin:miter;stroke-miterlimit:4;stroke-dasharray:none;stroke-opacity:1"
     d="M 0,0 0,348 343,348 343,0 0,0 Z m 130.5,119 82,0 0,37 39,0 0,37 -39,0 0,15 -82,0 0,-89 z"
     transform="translate(0,-3.051758e-5)"
     id="FrontPanel_400X350_PVBX4410"
     inkscape:connector-curvature="0" />
  <path
     style="overflow:visible;fill:#c5c7c4;fill-opacity:0.8;stroke:#999999;stroke-width:0.80000007;stroke-linejoin:miter;stroke-miterlimit:4;stroke-dasharray:none;stroke-opacity:1"
     d="M 0,0 0,348 343,348 343,0 0,0 Z m 138.5,119 101,0 0,91 -101,0 0,-91 z"
     transform="translate(0,-3.051758e-5)"
     id="FrontPanel_400X350_PVBX4409"
     inkscape:connector-curvature="0" />
  <path
     style="overflow:visible;fill:#c5c7c4;fill-opacity:0.8;stroke:#999999;stroke-width:0.80000007;stroke-linejoin:miter;stroke-miterlimit:4;stroke-dasharray:none;stroke-opacity:1"
     d="M 0,0 0,348 343,348 343,0 0,0 Z m 99,145 145,0 0,97 -145,0 0,-97 z"
     transform="translate(0,-3.051758e-5)"
     id="FrontPanel_400X350_PVBX4407"
     inkscape:connector-curvature="0" />
  <path
     style="overflow:visible;fill:#c5c7c4;fill-opacity:0.8;stroke:#999999;stroke-width:0.80000007;stroke-linejoin:miter;stroke-miterlimit:4;stroke-dasharray:none;stroke-opacity:1"
     d="M 0,0 0,298 343,298 343,0 0,0 Z m 148,93.5 82,0 0,89 -82,0 0,-89 z"
     transform="translate(0,-3.051758e-5)"
     id="FrontPanel_400X300_PVBX4405"
     inkscape:connector-curvature="0" />
  <path
     style="overflow:visible;fill:#c5c7c4;fill-opacity:0.8;stroke:#999999;stroke-width:0.80000007;stroke-linejoin:miter;stroke-miterlimit:4;stroke-dasharray:none;stroke-opacity:1"
     d="M 0,0 0,298 343,298 343,0 0,0 Z m 138.5,94 101,0 0,91 -101,0 0,-91 z"
     transform="translate(0,-3.051758e-5)"
     id="FrontPanel_400X300_PVBX4404"
     inkscape:connector-curvature="0" />
  <path
     style="overflow:visible;fill:#c5c7c4;fill-opacity:0.8;stroke:#999999;stroke-width:0.80000007;stroke-linejoin:miter;stroke-miterlimit:4;stroke-dasharray:none;stroke-opacity:1"
     d="M 0,0 0,298 343,298 343,0 0,0 Z m 99,120 145,0 0,97 -145,0 0,-97 z"
     transform="translate(0,-3.051758e-5)"
     id="FrontPanel_400X300_PVBX4401"
     inkscape:connector-curvature="0" />
  <path
     style="overflow:visible;fill:#c5c7c4;fill-opacity:0.8;stroke:#999999;stroke-width:0.80000007;stroke-linejoin:miter;stroke-miterlimit:4;stroke-dasharray:none;stroke-opacity:1"
     d="M 0,0 0,348 343,348 343,0 0,0 Z m 138.5,119 101,0 0,38 29.5,0 0,36 -29.5,0 0,17 -101,0 0,-91 z"
     transform="translate(0,-3.051758e-5)"
     id="FrontPanel_400X350_PVBX4400"
     inkscape:connector-curvature="0" />
  <path
     style="overflow:visible;fill:#c5c7c4;fill-opacity:0.8;stroke:#999999;stroke-width:0.80000007;stroke-linejoin:miter;stroke-miterlimit:4;stroke-dasharray:none;stroke-opacity:1"
     d="M 0,0 0,348 743,348 743,0 0,0 Z m 79,145 145,0 0,97 -145,0 0,-97 z m 220,0 145,0 0,97 -145,0 0,-97 z m 220,0 145,0 0,97 -145,0 0,-97 z"
     transform="translate(0,-3.051758e-5)"
     id="FrontPanel_800X350_PVDX4707"
     inkscape:connector-curvature="0" />
  <g
     id="Slot BL">
    <circle
       style="fill:#b3b3b3;stroke:#808080"
       r="6.25"
       cy="299.05399"
       cx="15.394"
       id="circle4232" />
    <path
       style="fill:#999999;stroke:#808080;stroke-opacity:0.88235294"
       inkscape:connector-curvature="0"
       d="m 15.394,301.80399 a 2.730813,2.7495027 0 0 0 2.51368,-1.67447 l 3.98632,0 0,-1.86985 -3.88839,0 a 2.730813,2.7495027 0 0 0 -2.61161,-1.95568 2.730813,2.7495027 0 0 0 -2.61341,1.95568 l -3.8865899,0 0,1.86985 3.9899499,0 a 2.730813,2.7495027 0 0 0 2.51005,1.67447 z"
       id="path4234" />
  </g>
  <g
     id="Slot TL">
    <circle
       id="circle4226"
       cx="15.394"
       cy="49.330002"
       r="6.25"
       style="fill:#b3b3b3;stroke:#808080" />
    <path
       id="path4228"
       d="m 15.394,52.080002 a 2.730813,2.7495027 0 0 0 2.51368,-1.674469 l 3.98632,0 0,-1.869854 -3.88839,0 A 2.730813,2.7495027 0 0 0 15.394,46.580001 2.730813,2.7495027 0 0 0 12.78059,48.535679 l -3.8865894,0 0,1.869854 3.9899494,0 a 2.730813,2.7495027 0 0 0 2.51005,1.674469 z"
       inkscape:connector-curvature="0"
       style="fill:#999999;stroke:#808080;stroke-opacity:0.88235294" />
  </g>
  <g
     id="Slot TR">
    <circle
       inkscape:transform-center-y="-6.2500004"
       inkscape:transform-center-x="10.250011"
       style="fill:#b3b3b3;stroke:#808080;stroke-width:1.00000012;stroke-miterlimit:4;stroke-dasharray:none"
       r="6.25"
       cy="49.330002"
       cx="728.72198"
       id="circle6651" />
    <path
       inkscape:transform-center-y="-6.2499988"
       inkscape:transform-center-x="10.250001"
       style="fill:#999999;stroke:#808080;stroke-width:1.00000012;stroke-miterlimit:4;stroke-dasharray:none;stroke-opacity:1"
       inkscape:connector-curvature="0"
       d="m 728.72198,52.080002 a 2.730813,2.7495027 0 0 0 2.51368,-1.674469 l 3.98632,0 0,-1.869854 -3.88839,0 a 2.730813,2.7495027 0 0 0 -2.61161,-1.955678 2.730813,2.7495027 0 0 0 -2.61341,1.955678 l -3.88659,0 0,1.869854 3.98995,0 a 2.730813,2.7495027 0 0 0 2.51005,1.674469 z"
       id="path6653" />
  </g>
  <g
     id="Slot BR">
    <circle
       style="fill:#b3b3b3;stroke:#808080"
       r="6.25"
       cy="299.05399"
       cx="728.72198"
       id="circle4616" />
    <path
       style="fill:#999999;stroke:#808080;stroke-width:1.00000012;stroke-miterlimit:4;stroke-dasharray:none;stroke-opacity:0.88235294"
       inkscape:connector-curvature="0"
       d="m 728.72198,301.80399 a 2.7308125,2.7495079 0 0 0 2.51367,-1.67447 l 3.98633,0 0,-1.86985 -3.88839,0 a 2.7308125,2.7495079 0 0 0 -2.61161,-1.95568 2.7308125,2.7495079 0 0 0 -2.61342,1.95568 l -3.88658,0 0,1.86985 3.98995,0 a 2.7308125,2.7495079 0 0 0 2.51005,1.67447 z"
       id="path4618" />
  </g>
</svg>
