<svg id="svg2" height="448.79996" viewBox="0 0 543.80002 448.79992" width="543.79999" xmlns="http://www.w3.org/2000/svg"><g id="T4_V_1"><path id="FrontPanel_600X450_PVCT4423" d="m0-.00003446v447.99999446h543v-447.99999446h-543zm231.90039 118.49999446h115v115h-115zm0 164h115v63.5h-115z" fill="#c5c7c4" fill-opacity=".8" stroke="#999" stroke-width=".8"/><path id="FrontPanel_400X450_PVBT4423" d="m0 0v448h343v-448zm131.5 118.5h115v115h-115zm0 164h115v63.5h-115z" fill="#c5c7c4" fill-opacity=".8" stroke="#999" stroke-width=".8" transform="translate(0 -.000046)"/><path id="FrontPanel_600X350_PVCT4406" d="m0 0v348h543v-348zm231.5 109.5h115v115h-115z" fill="#c5c7c4" fill-opacity=".8" stroke="#999" stroke-width=".8" transform="translate(0 -.000046)"/><path id="FrontPanel_600X350_PVCT4404" d="m0 0v348h543v-348zm231.5 109.5h115v115h-115z" fill="#c5c7c4" fill-opacity=".8" stroke="#999" stroke-width=".8" transform="translate(0 -.000046)"/><path id="FrontPanel_400X350_PVBT4406" d="m0 0v348h343v-348zm131.5 109.5h115v115h-115z" fill="#c5c7c4" fill-opacity=".8" stroke="#999" stroke-width=".8" transform="translate(0 -.000046)"/><path id="FrontPanel_400X350_PVBT4404" d="m0 0v348h343v-348zm131.5 109.5h115v115h-115z" fill="#c5c7c4" fill-opacity=".8" stroke="#999" stroke-width=".8" transform="translate(0 -.000046)"/><path id="FrontPanel_600X350_PVCT4406_RHD" d="m0 0v348h543v-348zm231.5 109.5h115v115h-115z" fill="#c5c7c4" fill-opacity=".8" stroke="#999" stroke-width=".8" transform="translate(0 -.000046)"/><path id="FrontPanel_400X350_PVBT4406_RHD" d="m0 0v348h343v-348zm131.5 109.5h115v115h-115z" fill="#c5c7c4" fill-opacity=".8" stroke="#999" stroke-width=".8" transform="translate(0 -.000046)"/><g id="SlotTR"><circle id="circle6651" cx="528.90002" cy="49" fill="#b3b3b3" r="6.25" stroke="#808080"/><path id="path6653" d="m528.9 52.249938a2.730813 2.7495027 0 0 0 2.51368-1.674469h3.98632v-1.869854h-3.88839a2.730813 2.7495027 0 0 0 -2.61161-1.955678 2.730813 2.7495027 0 0 0 -2.61341 1.955678h-3.88659v1.869854h3.98995a2.730813 2.7495027 0 0 0 2.51005 1.674469z" fill="#999" stroke="#808080"/></g><g id="SlotTL"><circle id="circle4226" cx="14.3" cy="49" fill="#b3b3b3" r="6.25" stroke="#808080"/><path id="path4228" d="m14.7 52.14994a2.730813 2.7495027 0 0 0 2.51368-1.674469h3.98632v-1.869854h-3.88839a2.730813 2.7495027 0 0 0 -2.61161-1.955678 2.730813 2.7495027 0 0 0 -2.61341 1.955678h-3.8865898v1.869854h3.9899498a2.730813 2.7495027 0 0 0 2.51005 1.674469z" fill="#999" stroke="#808080" stroke-opacity=".882353"/></g><g id="SlotBL"><circle id="circle4232" cx="14.3" cy="399.39993" fill="#b3b3b3" r="6.25" stroke="#808080"/><path id="path4234" d="m14.7 402.14994a2.730813 2.7495027 0 0 0 2.51368-1.67447h3.98632v-1.86985h-3.88839a2.730813 2.7495027 0 0 0 -2.61161-1.95568 2.730813 2.7495027 0 0 0 -2.61341 1.95568h-3.8865898v1.86985h3.9899498a2.730813 2.7495027 0 0 0 2.51005 1.67447z" fill="#999" stroke="#808080" stroke-opacity=".882353"/></g><g id="SlotBR"><circle id="circle4616" cx="529.10004" cy="399.39993" fill="#b3b3b3" r="6.25" stroke="#808080"/><path id="path4618" d="m529.10001 402.14994a2.7308125 2.7495079 0 0 0 2.51367-1.67447h3.98633v-1.86985h-3.88839a2.7308125 2.7495079 0 0 0 -2.61161-1.95568 2.7308125 2.7495079 0 0 0 -2.61342 1.95568h-3.88658v1.86985h3.98995a2.7308125 2.7495079 0 0 0 2.51005 1.67447z" fill="#999" stroke="#808080" stroke-opacity=".882353"/></g></g></svg>