<?xml version="1.0" encoding="UTF-8" standalone="no"?>
<svg
   xmlns:dc="http://purl.org/dc/elements/1.1/"
   xmlns:cc="http://creativecommons.org/ns#"
   xmlns:rdf="http://www.w3.org/1999/02/22-rdf-syntax-ns#"
   xmlns:svg="http://www.w3.org/2000/svg"
   xmlns="http://www.w3.org/2000/svg"
   xmlns:sodipodi="http://sodipodi.sourceforge.net/DTD/sodipodi-0.dtd"
   xmlns:inkscape="http://www.inkscape.org/namespaces/inkscape"
   id="svg2"
   overflow="visible"
   viewBox="0 0 743.79999 498.79999"
   version="1.1"
   inkscape:version="0.92.3 (2405546, 2018-03-11)"
   sodipodi:docname="Kit_breaker_T7_H_1.svg_Editable.svg"
   style="overflow:visible"
   height="498.79999"
   width="743.79999">
  <metadata
     id="metadata23">
    <rdf:RDF>
      <cc:Work
         rdf:about="">
        <dc:format>image/svg+xml</dc:format>
        <dc:type
           rdf:resource="http://purl.org/dc/dcmitype/StillImage" />
        <dc:title></dc:title>
      </cc:Work>
    </rdf:RDF>
  </metadata>
  <defs
     id="defs21" />
  <sodipodi:namedview
     pagecolor="#ffffff"
     bordercolor="#666666"
     borderopacity="1"
     objecttolerance="10"
     gridtolerance="10"
     guidetolerance="10"
     inkscape:pageopacity="0"
     inkscape:pageshadow="2"
     inkscape:window-width="1366"
     inkscape:window-height="705"
     id="namedview19"
     showgrid="false"
     inkscape:zoom="0.5"
     inkscape:cx="14.57028"
     inkscape:cy="95.4034"
     inkscape:window-x="1358"
     inkscape:window-y="-8"
     inkscape:window-maximized="1"
     inkscape:current-layer="svg2"
     showguides="false"
     fit-margin-top="0"
     fit-margin-left="0"
     fit-margin-right="0"
     fit-margin-bottom="0" />
  <path
     style="overflow:visible;fill:#c5c7c4;fill-opacity:0.8;stroke:#999999;stroke-width:0.80000007;stroke-linejoin:miter;stroke-miterlimit:4;stroke-dasharray:none;stroke-opacity:1"
     d="M 0,0 V 498 H 743 V 0 Z m 227.13477,42.5 h 256.5 V 321 h -256.5 z"
     id="FrontPanel_800X500_PHDT7430"
     inkscape:connector-curvature="0" />
  <path
     style="overflow:visible;fill:#c5c7c4;fill-opacity:0.8;stroke:#999999;stroke-width:0.80000007;stroke-linejoin:miter;stroke-miterlimit:4;stroke-dasharray:none;stroke-opacity:1"
     d="M 0,0 V 348 H 743 V 0 Z m 260.98438,96 h 263 v 226 h -263 z"
     id="FrontPanel_800X350_PHDT7420"
     inkscape:connector-curvature="0" />
  <path
     style="overflow:visible;fill:#c5c7c4;fill-opacity:0.8;stroke:#999999;stroke-width:0.80000007;stroke-linejoin:miter;stroke-miterlimit:4;stroke-dasharray:none;stroke-opacity:1"
     d="M 0,0 V 398 H 743 V 0 Z m 260.98438,121 h 263 v 226 h -263 z"
     id="FrontPanel_800X400_PHDT7418"
     inkscape:connector-curvature="0" />
  <path
     style="overflow:visible;fill:#c5c7c4;fill-opacity:0.8;stroke:#999999;stroke-width:0.80000007;stroke-linejoin:miter;stroke-miterlimit:4;stroke-dasharray:none;stroke-opacity:1"
     d="M 0,0 V 298 H 743 V 0 Z m 260.98438,36 h 263 v 226 h -263 z"
     id="FrontPanel_800X300_PHDT7329"
     inkscape:connector-curvature="0" />
  <g
     id="SlotTR"
     transform="translate(0.80000008,0.80000008)">
    <circle
       style="fill:#b3b3b3;stroke:#808080;stroke-width:1.00000012;stroke-miterlimit:4;stroke-dasharray:none"
       r="6.25"
       cy="49"
       cx="728.70001"
       id="circle6651" />
    <path
       style="fill:#999999;stroke:#808080;stroke-width:1.00000012;stroke-miterlimit:4;stroke-dasharray:none;stroke-opacity:1"
       inkscape:connector-curvature="0"
       d="m 728.70001,51.750001 a 2.730813,2.7495027 0 0 0 2.51368,-1.674469 h 3.98632 v -1.869854 h -3.88839 A 2.730813,2.7495027 0 0 0 728.70001,46.25 2.730813,2.7495027 0 0 0 726.0866,48.205678 h -3.88659 v 1.869854 h 3.98995 a 2.730813,2.7495027 0 0 0 2.51005,1.674469 z"
       id="path6653" />
  </g>
  <g
     id="SlotTL"
     transform="translate(0.80000008,0.80000008)">
    <circle
       id="circle4226"
       cx="14.3"
       cy="49"
       r="6.25"
       style="fill:#b3b3b3;stroke:#808080" />
    <path
       id="path4228"
       d="m 14.3,51.750001 a 2.730813,2.7495027 0 0 0 2.51368,-1.674469 H 20.8 V 48.205678 H 16.91161 A 2.730813,2.7495027 0 0 0 14.3,46.25 2.730813,2.7495027 0 0 0 11.68659,48.205678 H 7.8000003 v 1.869854 H 11.78995 A 2.730813,2.7495027 0 0 0 14.3,51.750001 Z"
       inkscape:connector-curvature="0"
       style="fill:#999999;stroke:#808080;stroke-opacity:0.88235294" />
  </g>
  <g
     id="SlotBL"
     transform="translate(0.80000008,0.80000008)">
    <circle
       style="fill:#b3b3b3;stroke:#808080"
       r="6.25"
       cy="449"
       cx="14.3"
       id="circle4232" />
    <path
       style="fill:#999999;stroke:#808080;stroke-opacity:0.88235294"
       inkscape:connector-curvature="0"
       d="m 14.3,451.75 a 2.730813,2.7495027 0 0 0 2.51368,-1.67447 H 20.8 v -1.86985 H 16.91161 A 2.730813,2.7495027 0 0 0 14.3,446.25 2.730813,2.7495027 0 0 0 11.68659,448.20568 H 7.8000002 v 1.86985 H 11.78995 A 2.730813,2.7495027 0 0 0 14.3,451.75 Z"
       id="path4234" />
  </g>
  <g
     id="SlotBR"
     transform="translate(0.80000008,0.80000008)">
    <circle
       style="fill:#b3b3b3;stroke:#808080"
       r="6.25"
       cy="449"
       cx="728.70001"
       id="circle4616" />
    <path
       style="fill:#999999;stroke:#808080;stroke-width:1.00000012;stroke-miterlimit:4;stroke-dasharray:none;stroke-opacity:0.88235294"
       inkscape:connector-curvature="0"
       d="m 728.70001,451.75 a 2.7308125,2.7495079 0 0 0 2.51367,-1.67447 h 3.98633 v -1.86985 h -3.88839 a 2.7308125,2.7495079 0 0 0 -2.61161,-1.95568 2.7308125,2.7495079 0 0 0 -2.61342,1.95568 h -3.88658 v 1.86985 h 3.98995 a 2.7308125,2.7495079 0 0 0 2.51005,1.67447 z"
       id="path4618" />
  </g>
</svg>
