<?xml version="1.0" encoding="UTF-8" standalone="no"?>
<svg
   xmlns:dc="http://purl.org/dc/elements/1.1/"
   xmlns:cc="http://creativecommons.org/ns#"
   xmlns:rdf="http://www.w3.org/1999/02/22-rdf-syntax-ns#"
   xmlns:svg="http://www.w3.org/2000/svg"
   xmlns="http://www.w3.org/2000/svg"
   xmlns:sodipodi="http://sodipodi.sourceforge.net/DTD/sodipodi-0.dtd"
   xmlns:inkscape="http://www.inkscape.org/namespaces/inkscape"
   id="svg2"
   height="498.79993"
   overflow="visible"
   viewBox="0 0 743.79998 498.79989"
   width="743.79993"
   version="1.1"
   inkscape:version="0.91 r13725"
   sodipodi:docname="Kit_breaker_XT1_H_2.svg"
   style="overflow:visible">
  <metadata
     id="metadata23">
    <rdf:RDF>
      <cc:Work
         rdf:about="">
        <dc:format>image/svg+xml</dc:format>
        <dc:type
           rdf:resource="http://purl.org/dc/dcmitype/StillImage" />
        <dc:title></dc:title>
      </cc:Work>
    </rdf:RDF>
  </metadata>
  <defs
     id="defs21" />
  <sodipodi:namedview
     pagecolor="#ffffff"
     bordercolor="#666666"
     borderopacity="1"
     objecttolerance="10"
     gridtolerance="10"
     guidetolerance="10"
     inkscape:pageopacity="0"
     inkscape:pageshadow="2"
     inkscape:window-width="1366"
     inkscape:window-height="561"
     id="namedview19"
     showgrid="false"
     inkscape:zoom="0.55221335"
     inkscape:cx="276.29009"
     inkscape:cy="281.85255"
     inkscape:window-x="-8"
     inkscape:window-y="-8"
     inkscape:window-maximized="1"
     inkscape:current-layer="svg2"
     showguides="true"
     fit-margin-top="0"
     fit-margin-left="0"
     fit-margin-right="0"
     fit-margin-bottom="0" />
  <path
     transform="translate(0,-4.5776373e-5)"
     inkscape:connector-curvature="0"
     id="FrontPanel_800_500_PHDX1402"
     d="M 0,0 0,498 743,498 743,0 0,0 Z m 337.5,79.259766 55,0 0,106.000004 -55,0 0,-106.000004 z m 0,233.470704 55,0 0,106 -55,0 0,-106 z"
     style="overflow:visible;fill:#c5c7c4;fill-opacity:0.8;stroke:#999999;stroke-width:0.80000007;stroke-linejoin:miter;stroke-miterlimit:4;stroke-dasharray:none;stroke-opacity:1" />
  <path
     transform="translate(0,-4.5776373e-5)"
     inkscape:connector-curvature="0"
     id="FrontPanel_800_500_PHDX1403"
     d="M 0,0 0,498 743,498 743,0 0,0 Z m 317.5,101.5 108,0 0,87 -108,0 0,-87 z m 0,233.25 108,0 0,87 -108,0 0,-87 z"
     style="overflow:visible;fill:#c5c7c4;fill-opacity:0.8;stroke:#999999;stroke-width:0.80000007;stroke-linejoin:miter;stroke-miterlimit:4;stroke-dasharray:none;stroke-opacity:1" />
  <path
     style="overflow:visible;fill:#c5c7c4;fill-opacity:0.8;stroke:#999999;stroke-width:0.80000007;stroke-linejoin:miter;stroke-miterlimit:4;stroke-dasharray:none;stroke-opacity:1"
     d="M 0,0 0,498 743,498 743,0 0,0 Z m 337.5,79.259766 55,0 0,106.000004 -55,0 0,-106.000004 z m 0,233.470704 55,0 0,106 -55,0 0,-106 z"
     id="FrontPanel_800_500_PHDX1422"
     inkscape:connector-curvature="0"
     transform="translate(0,-4.5776373e-5)" />
  <path
     style="overflow:visible;fill:#c5c7c4;fill-opacity:0.8;stroke:#999999;stroke-width:0.80000007;stroke-linejoin:miter;stroke-miterlimit:4;stroke-dasharray:none;stroke-opacity:1"
     d="M 0,0 0,498 743,498 743,0 0,0 Z m 317.5,101.5 108,0 0,87 -108,0 0,-87 z m 0,233.25 108,0 0,87 -108,0 0,-87 z"
     id="FrontPanel_800_500_PHDX1424"
     inkscape:connector-curvature="0"
     transform="translate(0,-4.5776373e-5)" />
  <path
     style="overflow:visible;fill:#c5c7c4;fill-opacity:0.8;stroke:#999999;stroke-width:0.80000007;stroke-linejoin:miter;stroke-miterlimit:4;stroke-dasharray:none;stroke-opacity:1"
     d="m 1.1920925e-8,-5.3040415e-5 0,497.999993040415 L 343,497.99994 343,-5.3040415e-5 l -342.999999988079082,0 z M 137.5,79.261666 l 55,0 0,105.999994 -55,0 0,-105.999994 z m 0,233.492184 55,0 0,106 -55,0 0,-106 z"
     id="FrontPanel_400X500_F_PHBX1422"
     inkscape:connector-curvature="0" />
  <path
     style="overflow:visible;fill:#c5c7c4;fill-opacity:0.8;stroke:#999999;stroke-width:0.80000007;stroke-linejoin:miter;stroke-miterlimit:4;stroke-dasharray:none;stroke-opacity:1"
     d="m 1.1920932e-8,-1.1464041e-4 0,498.00005464041 343.000019988079088,0 0,-498.00005464041 -343.000019988079088,0 z M 137.50001,79.26162 l 55,0 0,106.00001 -55,0 0,-106.00001 z m 0,233.49221 55,0 0,106.00001 -55,0 0,-106.00001 z"
     id="FrontPanel_400X500_P_PHBX1422"
     inkscape:connector-curvature="0" />
  <path
     style="overflow:visible;fill:#c5c7c4;fill-opacity:0.8;stroke:#999999;stroke-width:0.80000007;stroke-linejoin:miter;stroke-miterlimit:4;stroke-dasharray:none;stroke-opacity:1"
     d="M 0,0 0,498 343,498 343,0 0,0 Z m 117.5,101.52734 108,0 0,87 -108,0 0,-87 z m 0,233.22657 108,0 0,87 -108,0 0,-87 z"
     id="FrontPanel_400X500_F_PHBX1424"
     inkscape:connector-curvature="0"
     transform="translate(0,-4.5776373e-5)" />
  <path
     style="overflow:visible;fill:#c5c7c4;fill-opacity:0.8;stroke:#999999;stroke-width:0.80000007;stroke-linejoin:miter;stroke-miterlimit:4;stroke-dasharray:none;stroke-opacity:1"
     d="m 1.1920974e-8,-1.1664041e-4 0,498.00005664041 342.999979988079019,0 0,-498.00005664041 -342.999979988079132,0 z M 117.50001,101.52724 l 107.99997,0 0,87.00001 -107.99997,0 0,-87.00001 z m 0,233.22659 107.99997,0 0,87.00001 -107.99997,0 0,-87.00001 z"
     id="FrontPanel_400X500_P_PHBX1424"
     inkscape:connector-curvature="0" />
  <path
     style="overflow:visible;fill:#c5c7c4;fill-opacity:0.8;stroke:#999999;stroke-width:0.80000007;stroke-linejoin:miter;stroke-miterlimit:4;stroke-dasharray:none;stroke-opacity:1"
     d="m 1.1920932e-8,-6.4240415e-5 0,498.000004240415 L 543,497.99994 543,-6.4240415e-5 l -542.999999988079025,0 z M 237.5,79.261654 l 55,0 0,106.000006 -55,0 0,-106.000006 z m 0,233.492196 55,0 0,106 -55,0 0,-106 z"
     id="FrontPanel_600X500_F_PHCX1422"
     inkscape:connector-curvature="0" />
  <path
     style="overflow:visible;fill:#c5c7c4;fill-opacity:0.8;stroke:#999999;stroke-width:0.80000007;stroke-linejoin:miter;stroke-miterlimit:4;stroke-dasharray:none;stroke-opacity:1"
     d="m 1.1920918e-8,-1.1864041e-4 0,498.00005864041 543.000029988079063,0 0,-498.00005864041 -543.000029988079063,0 z M 237.50001,79.261609 l 55.00001,0 0,106.000021 -55.00001,0 0,-106.000021 z m 0,233.492221 55.00001,0 0,106.00001 -55.00001,0 0,-106.00001 z"
     id="FrontPanel_600X500_P_PHCX1422"
     inkscape:connector-curvature="0" />
  <path
     style="overflow:visible;fill:#c5c7c4;fill-opacity:0.8;stroke:#999999;stroke-width:0.80000007;stroke-linejoin:miter;stroke-miterlimit:4;stroke-dasharray:none;stroke-opacity:1"
     d="M 0,0 0,498 543,498 543,0 0,0 Z m 217.5,101.5 108,0 0,87 -108,0 0,-87 z m 0,233.19922 108,0 0,87 -108,0 0,-87 z"
     transform="translate(0,-4.5776373e-5)"
     id="FrontPanel_600X500_F_PHCX1424"
     inkscape:connector-curvature="0" />
  <path
     style="overflow:visible;fill:#c5c7c4;fill-opacity:0.8;stroke:#999999;stroke-width:0.80000007;stroke-linejoin:miter;stroke-miterlimit:4;stroke-dasharray:none;stroke-opacity:1"
     d="m 1.1920918e-8,-1.1964041e-4 0,498.00005964041 543.000029988079063,0 0,-498.00005964041 -543.000029988079177,0 z M 217.50001,101.4999 l 108.00001,0 0,87.00001 -108.00001,0 0,-87.00001 z m 0,233.19924 108.00001,0 0,87.00001 -108.00001,0 0,-87.00001 z"
     id="FrontPanel_600X500_P_PHCX1424"
     inkscape:connector-curvature="0" />
  <g
     id="SlotTL"
     transform="translate(0.40000004,0.399939)">
    <circle
       id="circle4226-7"
       cx="14.3"
       cy="49"
       r="6.25"
       style="fill:#b3b3b3;stroke:#808080" />
    <path
       id="path4228-1"
       d="M 14.265166,51.711469 A 2.730813,2.7495027 0 0 0 16.778846,50.037 l 3.98632,0 0,-1.869854 -3.88839,0 a 2.730813,2.7495027 0 0 0 -2.61161,-1.955678 2.730813,2.7495027 0 0 0 -2.61341,1.955678 l -3.8865899,0 0,1.869854 3.9899499,0 a 2.730813,2.7495027 0 0 0 2.51005,1.674469 z"
       inkscape:connector-curvature="0"
       style="fill:#999999;stroke:#808080;stroke-opacity:0.88235294" />
  </g>
  <g
     id="SlotTR">
    <circle
       style="fill:#b3b3b3;stroke:#808080;stroke-width:1.00000012;stroke-miterlimit:4;stroke-dasharray:none"
       r="6.25"
       cy="49"
       cx="728.70001"
       id="circle6651-9-2" />
    <path
       style="fill:#999999;stroke:#808080;stroke-width:1.00000012;stroke-miterlimit:4;stroke-dasharray:none;stroke-opacity:1"
       inkscape:connector-curvature="0"
       d="m 728.70721,51.750001 a 2.730813,2.7495027 0 0 0 2.51368,-1.674469 l 3.98632,0 0,-1.869854 -3.88839,0 A 2.730813,2.7495027 0 0 0 728.70721,46.25 2.730813,2.7495027 0 0 0 726.0938,48.205678 l -3.88659,0 0,1.869854 3.98995,0 a 2.730813,2.7495027 0 0 0 2.51005,1.674469 z"
       id="path6653-0-9" />
  </g>
  <g
     id="SlotBL">
    <circle
       style="fill:#b3b3b3;stroke:#808080;stroke-width:1.00000012;stroke-miterlimit:4;stroke-dasharray:none"
       r="6.25"
       cy="449"
       cx="14.3"
       id="circle6651-9-8" />
    <path
       style="fill:#999999;stroke:#808080;stroke-width:1.00000012;stroke-miterlimit:4;stroke-dasharray:none;stroke-opacity:1"
       inkscape:connector-curvature="0"
       d="m 14.259665,451.75 a 2.730813,2.7495027 0 0 0 2.51368,-1.67447 l 3.98632,0 0,-1.86985 -3.88839,0 a 2.730813,2.7495027 0 0 0 -2.61161,-1.95568 2.730813,2.7495027 0 0 0 -2.61341,1.95568 l -3.8865896,0 0,1.86985 3.9899496,0 a 2.730813,2.7495027 0 0 0 2.51005,1.67447 z"
       id="path6653-0-0" />
  </g>
  <g
     id="g4360">
    <circle
       style="fill:#b3b3b3;stroke:#808080;stroke-width:1.00000012;stroke-miterlimit:4;stroke-dasharray:none"
       r="6.25"
       cy="449"
       cx="728.70001"
       id="circle6651-9" />
    <path
       style="fill:#999999;stroke:#808080;stroke-width:1.00000012;stroke-miterlimit:4;stroke-dasharray:none;stroke-opacity:1"
       inkscape:connector-curvature="0"
       d="m 728.64998,451.75 a 2.730813,2.7495027 0 0 0 2.51368,-1.67447 l 3.98632,0 0,-1.86985 -3.88839,0 a 2.730813,2.7495027 0 0 0 -2.61161,-1.95568 2.730813,2.7495027 0 0 0 -2.61341,1.95568 l -3.88659,0 0,1.86985 3.98995,0 a 2.730813,2.7495027 0 0 0 2.51005,1.67447 z"
       id="path6653-0" />
  </g>
</svg>
