<?xml version="1.0" encoding="UTF-8" standalone="no"?>
<svg
   xmlns:dc="http://purl.org/dc/elements/1.1/"
   xmlns:cc="http://creativecommons.org/ns#"
   xmlns:rdf="http://www.w3.org/1999/02/22-rdf-syntax-ns#"
   xmlns:svg="http://www.w3.org/2000/svg"
   xmlns="http://www.w3.org/2000/svg"
   xmlns:sodipodi="http://sodipodi.sourceforge.net/DTD/sodipodi-0.dtd"
   xmlns:inkscape="http://www.inkscape.org/namespaces/inkscape"
   id="svg2"
   height="598.79999"
   overflow="visible"
   viewBox="0 0 743.80004 598.79994"
   width="743.79999"
   version="1.1"
   inkscape:version="0.92.4 (5da689c313, 2019-01-14)"
   sodipodi:docname="Kit_breaker_T4_H_2.svg"
   style="overflow:visible">
  <metadata
     id="metadata23">
    <rdf:RDF>
      <cc:Work
         rdf:about="">
        <dc:format>image/svg+xml</dc:format>
        <dc:type
           rdf:resource="http://purl.org/dc/dcmitype/StillImage" />
        <dc:title></dc:title>
      </cc:Work>
    </rdf:RDF>
  </metadata>
  <defs
     id="defs21" />
  <sodipodi:namedview
     pagecolor="#ffffff"
     bordercolor="#666666"
     borderopacity="1"
     objecttolerance="10"
     gridtolerance="10"
     guidetolerance="10"
     inkscape:pageopacity="0"
     inkscape:pageshadow="2"
     inkscape:window-width="1366"
     inkscape:window-height="705"
     id="namedview19"
     showgrid="false"
     inkscape:zoom="0.5"
     inkscape:cx="200.40371"
     inkscape:cy="278.39343"
     inkscape:window-x="-8"
     inkscape:window-y="-8"
     inkscape:window-maximized="1"
     inkscape:current-layer="svg2"
     showguides="false"
     fit-margin-top="0"
     fit-margin-left="0"
     fit-margin-right="0"
     fit-margin-bottom="0" />
  <g
     id="T4_H_2">
    <path
       inkscape:connector-curvature="0"
       id="FrontPanel_800X600_PHDT4403"
       d="M 0,0 V 598 H 743 V 0 Z m 321,100.5 h 115 v 115 H 321 Z m 0,232 h 115 v 115 H 321 Z"
       style="fill:#c5c7c4;fill-opacity:0.8;stroke:#999999;stroke-width:0.80000007;stroke-linejoin:miter;stroke-miterlimit:4;stroke-dasharray:none;stroke-opacity:1" />
    <path
       inkscape:connector-curvature="0"
       id="FrontPanel_600X600_PHCT4403"
       d="M 0,0 V 598 H 543 V 0 Z m 221,100.5 h 115 v 115 H 221 Z m 0,232 h 115 v 115 H 221 Z"
       style="fill:#c5c7c4;fill-opacity:0.8;stroke:#999999;stroke-width:0.80000007;stroke-linejoin:miter;stroke-miterlimit:4;stroke-dasharray:none;stroke-opacity:1" />
    <path
       inkscape:connector-curvature="0"
       id="FrontPanel_800X600_PHDT4402"
       d="M 0,0 V 598 H 743 V 0 Z m 321,100.5 h 115 v 115 H 321 Z m 0,232 h 115 v 115 H 321 Z"
       style="fill:#c5c7c4;fill-opacity:0.8;stroke:#999999;stroke-width:0.80000007;stroke-linejoin:miter;stroke-miterlimit:4;stroke-dasharray:none;stroke-opacity:1" />
    <path
       inkscape:connector-curvature="0"
       id="FrontPanel_600X600_PHCT4402"
       d="M 0,0 V 598 H 543 V 0 Z m 221,100.5 h 115 v 115 H 221 Z m 0,232 h 115 v 115 H 221 Z"
       style="fill:#c5c7c4;fill-opacity:0.8;stroke:#999999;stroke-width:0.80000007;stroke-linejoin:miter;stroke-miterlimit:4;stroke-dasharray:none;stroke-opacity:1" />
    <path
       inkscape:connector-curvature="0"
       id="FrontPanel_400X600_PHBT4402"
       d="M 0,0 V 598 H 343 V 0 Z m 121,100.5 h 115 v 115 H 121 Z m 0,232 h 115 v 115 H 121 Z"
       style="fill:#c5c7c4;fill-opacity:0.8;stroke:#999999;stroke-width:0.80000007;stroke-linejoin:miter;stroke-miterlimit:4;stroke-dasharray:none;stroke-opacity:1" />
    <g
       id="SlotTR">
      <circle
         id="circle6651"
         cx="728.5"
         cy="49.150002"
         r="6.25"
         style="fill:#b3b3b3;stroke:#808080;stroke-width:1.00000012;stroke-miterlimit:4;stroke-dasharray:none" />
      <path
         id="path6653"
         d="m 728.5,51.900002 a 2.730813,2.7495027 0 0 0 2.51368,-1.674469 H 735 v -1.869854 h -3.88839 A 2.730813,2.7495027 0 0 0 728.5,46.400001 2.730813,2.7495027 0 0 0 725.88659,48.355679 H 722 v 1.869854 h 3.98995 A 2.730813,2.7495027 0 0 0 728.5,51.900002 Z"
         inkscape:connector-curvature="0"
         style="fill:#999999;stroke:#808080;stroke-width:1.00000012;stroke-miterlimit:4;stroke-dasharray:none;stroke-opacity:1" />
    </g>
    <g
       id="SlotTL">
      <circle
         style="fill:#b3b3b3;stroke:#808080"
         r="6.25"
         cy="49.150002"
         cx="15.4"
         id="circle4226" />
      <path
         style="fill:#999999;stroke:#808080;stroke-opacity:0.88235294"
         inkscape:connector-curvature="0"
         d="m 15.399999,51.900002 a 2.730813,2.7495027 0 0 0 2.51368,-1.674469 h 3.98632 v -1.869854 h -3.88839 a 2.730813,2.7495027 0 0 0 -2.61161,-1.955678 2.730813,2.7495027 0 0 0 -2.61341,1.955678 H 8.8999998 v 1.869854 h 3.9899492 a 2.730813,2.7495027 0 0 0 2.51005,1.674469 z"
         id="path4228" />
    </g>
    <g
       id="SlotBL">
      <circle
         id="circle4232"
         cx="15.4"
         cy="549"
         r="6.25"
         style="fill:#b3b3b3;stroke:#808080" />
      <path
         id="path4234"
         d="m 15.4,551.75 a 2.730813,2.7495027 0 0 0 2.51368,-1.67447 H 21.9 v -1.86985 H 18.01161 A 2.730813,2.7495027 0 0 0 15.4,546.25 2.730813,2.7495027 0 0 0 12.78659,548.20568 H 8.8999996 v 1.86985 H 12.88995 A 2.730813,2.7495027 0 0 0 15.4,551.75 Z"
         inkscape:connector-curvature="0"
         style="fill:#999999;stroke:#808080;stroke-opacity:0.88235294" />
    </g>
    <g
       id="SlotBR">
      <circle
         id="circle4616"
         cx="728.5"
         cy="549"
         r="6.25"
         style="fill:#b3b3b3;stroke:#808080" />
      <path
         id="path4618"
         d="m 728.5,551.75 a 2.7308125,2.7495079 0 0 0 2.51367,-1.67447 H 735 v -1.86985 h -3.88839 A 2.7308125,2.7495079 0 0 0 728.5,546.25 a 2.7308125,2.7495079 0 0 0 -2.61342,1.95568 H 722 v 1.86985 h 3.98995 A 2.7308125,2.7495079 0 0 0 728.5,551.75 Z"
         inkscape:connector-curvature="0"
         style="fill:#999999;stroke:#808080;stroke-width:1.00000012;stroke-miterlimit:4;stroke-dasharray:none;stroke-opacity:0.88235294" />
    </g>
  </g>
</svg>
