<svg id="svg2" height="298.79999" viewBox="0 0 743.80005 298.79996" width="743.79999" xmlns="http://www.w3.org/2000/svg"><path id="FrontPanel_600X300_PVCX3607" d="m.00000001-.00000819v297.99999819h542.99999999v-297.99999819h-542.99999999zm86.49999999 111.49999819h145v55h-145zm225 0h145v55h-145z" fill="#c5c7c4" fill-opacity=".8" stroke="#999" stroke-width=".8"/><path id="FrontPanel_600X300_PVCX3707" d="m.00000001-.00000819v297.99999819h542.99999999v-297.99999819h-542.99999999zm56.49999999 111.49999819h110v55h-110zm160 0h110v55h-110zm160 0h110v55h-110z" fill="#c5c7c4" fill-opacity=".8" stroke="#999" stroke-width=".8"/><path id="FrontPanel_800X300_PVDX3707" d="m.00000001-.00000371v297.99999371h742.99999999v-297.99999371zm86.09960899 111.09960371h145.000001v55h-145.000001zm212.500001 0h145v55h-145zm212.5 0h145v55h-145z" fill="#c5c7c4" fill-opacity=".8" stroke="#999" stroke-width=".8"/><path id="FrontPanel_800X300_PVDX3807" d="m.00000001-.00000949v297.99999949h742.99999999v-297.99999949zm77.40039099 111.49999949h109.999999v55h-109.999999zm149.099609 0h110v55h-110zm180 0h110v55h-110zm170 0h110v55h-110z" fill="#c5c7c4" fill-opacity=".8" stroke="#999" stroke-width=".8"/><g id="SlotTR" transform="translate(-3.19997 -1.999964)"><circle id="circle4226-2" cx="728.70099" cy="49.016998" fill="#b3b3b3" r="6.25" stroke="#808080"/><path id="path4228-4" d="m728.70099 51.766999a2.730813 2.7495027 0 0 0 2.51368-1.674469h3.98632v-1.869854h-3.88839a2.730813 2.7495027 0 0 0 -2.61161-1.955678 2.730813 2.7495027 0 0 0 -2.61341 1.955678h-3.88659v1.869854h3.98995a2.730813 2.7495027 0 0 0 2.51005 1.674469z" fill="#999" stroke="#808080" stroke-opacity=".882353"/></g><g id="SlotTL" transform="translate(-3.19997 -1.999964)"><circle id="circle4226" cx="14.359" cy="49.016998" fill="#b3b3b3" r="6.25" stroke="#808080"/><path id="path4228" d="m14.359 51.766999a2.730813 2.7495027 0 0 0 2.51368-1.674469h3.98632v-1.869854h-3.88839a2.730813 2.7495027 0 0 0 -2.61161-1.955678 2.730813 2.7495027 0 0 0 -2.61341 1.955678h-3.8865896v1.869854h3.9899496a2.730813 2.7495027 0 0 0 2.51005 1.674469z" fill="#999" stroke="#808080" stroke-opacity=".882353"/></g><g id="SlotBR" transform="translate(-3.19997 -1.999964)"><circle id="circle4616" cx="728.70099" cy="249.00301" fill="#b3b3b3" r="6.25" stroke="#808080"/><path id="path4618" d="m728.70099 251.75301a2.7308125 2.7495079 0 0 0 2.51367-1.67447h3.98633v-1.86985h-3.88839a2.7308125 2.7495079 0 0 0 -2.61161-1.95568 2.7308125 2.7495079 0 0 0 -2.61342 1.95568h-3.88658v1.86985h3.98995a2.7308125 2.7495079 0 0 0 2.51005 1.67447z" fill="#999" stroke="#808080" stroke-opacity=".882353"/></g><g id="SlotBL" transform="translate(-3.19997 -1.999964)"><circle id="circle6651-1" cx="14.359" cy="249.00301" fill="#b3b3b3" r="6.25" stroke="#808080"/><path id="path6653-1" d="m14.359 251.75301a2.730813 2.7495027 0 0 0 2.51368-1.67447h3.98632v-1.86985h-3.88839a2.730813 2.7495027 0 0 0 -2.61161-1.95568 2.730813 2.7495027 0 0 0 -2.61341 1.95568h-3.8865898v1.86985h3.9899498a2.730813 2.7495027 0 0 0 2.51005 1.67447z" fill="#999" stroke="#808080"/></g></svg>