<?xml version="1.0" encoding="UTF-8" standalone="no"?>
<svg
   xmlns:dc="http://purl.org/dc/elements/1.1/"
   xmlns:cc="http://creativecommons.org/ns#"
   xmlns:rdf="http://www.w3.org/1999/02/22-rdf-syntax-ns#"
   xmlns:svg="http://www.w3.org/2000/svg"
   xmlns="http://www.w3.org/2000/svg"
   xmlns:sodipodi="http://sodipodi.sourceforge.net/DTD/sodipodi-0.dtd"
   xmlns:inkscape="http://www.inkscape.org/namespaces/inkscape"
   id="svg2"
   height="498.79993"
   overflow="visible"
   viewBox="0 0 543.80003 498.79989"
   width="543.79999"
   version="1.1"
   inkscape:version="0.91 r13725"
   sodipodi:docname="Kit_breaker_XT4_H_2.svg"
   style="overflow:visible">
  <metadata
     id="metadata23">
    <rdf:RDF>
      <cc:Work
         rdf:about="">
        <dc:format>image/svg+xml</dc:format>
        <dc:type
           rdf:resource="http://purl.org/dc/dcmitype/StillImage" />
        <dc:title />
      </cc:Work>
    </rdf:RDF>
  </metadata>
  <defs
     id="defs21" />
  <sodipodi:namedview
     pagecolor="#ffffff"
     bordercolor="#666666"
     borderopacity="1"
     objecttolerance="10"
     gridtolerance="10"
     guidetolerance="10"
     inkscape:pageopacity="0"
     inkscape:pageshadow="2"
     inkscape:window-width="1280"
     inkscape:window-height="961"
     id="namedview19"
     showgrid="false"
     inkscape:zoom="1.4142136"
     inkscape:cx="111.97291"
     inkscape:cy="251.98996"
     inkscape:window-x="-8"
     inkscape:window-y="-8"
     inkscape:window-maximized="1"
     inkscape:current-layer="svg2"
     showguides="true"
     fit-margin-top="0"
     fit-margin-left="0"
     fit-margin-right="0"
     fit-margin-bottom="0"
     inkscape:object-paths="true"
     inkscape:snap-intersection-paths="true"
     inkscape:object-nodes="true"
     inkscape:snap-smooth-nodes="true" />
  <path
     style="opacity:1;fill:#c5c7c4;fill-opacity:0.8;stroke:#999999;stroke-width:0.80000007;stroke-linecap:butt;stroke-linejoin:miter;stroke-miterlimit:4;stroke-dasharray:none;stroke-dashoffset:2.86129999;stroke-opacity:1"
     d="M 0,0 0,498 343,498 343,0 0,0 Z m 103.5,59.75 97,0 0,145 -97,0 0,-145 z m 0,233.5 97,0 0,145 -97,0 0,-145 z"
     transform="translate(0,-4.5776373e-5)"
     id="FrontPanel_400X500_PHBX4402"
     inkscape:connector-curvature="0" />
  <path
     style="opacity:1;fill:#c5c7c4;fill-opacity:0.8;stroke:#999999;stroke-width:0.80000007;stroke-linecap:butt;stroke-linejoin:miter;stroke-miterlimit:4;stroke-dasharray:none;stroke-dashoffset:2.86129999;stroke-opacity:1"
     d="M 0,0 0,498 343,498 343,0 0,0 Z m 116.80078,99.25 91,0 0,101 -91,0 0,-101 z m 0,233.5 91,0 0,101 -91,0 0,-101 z"
     transform="translate(0,-4.5776373e-5)"
     id="FrontPanel_400X500_PHBX4424"
     inkscape:connector-curvature="0" />
  <path
     style="opacity:1;fill:#c5c7c4;fill-opacity:0.8;stroke:#999999;stroke-width:0.80000007;stroke-linecap:butt;stroke-linejoin:miter;stroke-miterlimit:4;stroke-dasharray:none;stroke-dashoffset:2.86129999;stroke-opacity:1"
     d="M 0,0 0,498 343,498 343,0 0,0 Z m 135.90039,99.400391 91,0 0,100.999999 -37,0 0,29.5 -37,0 0,-29.5 -17,0 0,-100.999999 z m 0,233.999999 91,0 0,101 -37,0 0,29.5 -37,0 0,-29.5 -17,0 0,-101 z"
     transform="translate(0,-4.5776373e-5)"
     id="FrontPanel_400X500_PHBX4425"
     inkscape:connector-curvature="0" />
  <path
     inkscape:connector-curvature="0"
     id="FrontPanel_400X500_PHBX4431"
     transform="translate(0,-4.5776373e-5)"
     d="M 0,0 0,498 343,498 343,0 0,0 Z m 103.5,59.75 97,0 0,145 -97,0 0,-145 z m 0,233.5 97,0 0,145 -97,0 0,-145 z"
     style="opacity:1;fill:#c5c7c4;fill-opacity:0.8;stroke:#999999;stroke-width:0.80000007;stroke-linecap:butt;stroke-linejoin:miter;stroke-miterlimit:4;stroke-dasharray:none;stroke-dashoffset:2.86129999;stroke-opacity:1" />
  <path
     inkscape:connector-curvature="0"
     id="FrontPanel_600X500_PHCX4402"
     transform="translate(0,-4.5776373e-5)"
     d="M 0,0 0,498 543,498 543,0 0,0 Z m 203.5,59.75 97,0 0,145 -97,0 0,-145 z m 0,233.5 97,0 0,145 -97,0 0,-145 z"
     style="opacity:1;fill:#c5c7c4;fill-opacity:0.8;stroke:#999999;stroke-width:0.80000007;stroke-linecap:butt;stroke-linejoin:miter;stroke-miterlimit:4;stroke-dasharray:none;stroke-dashoffset:2.86129999;stroke-opacity:1" />
  <path
     style="opacity:1;fill:#c5c7c4;fill-opacity:0.8;stroke:#999999;stroke-width:0.80000007;stroke-linecap:butt;stroke-linejoin:miter;stroke-miterlimit:4;stroke-dasharray:none;stroke-dashoffset:2.86129999;stroke-opacity:1"
     d="M 0,0 0,498 543,498 543,0 0,0 Z m 216.5,99.25 91,0 0,101 -91,0 0,-101 z m 0,233.5 91,0 0,101 -91,0 0,-101 z"
     transform="translate(0,-4.5776373e-5)"
     id="FrontPanel_600X500_PHCX4424"
     inkscape:connector-curvature="0" />
  <path
     style="opacity:1;fill:#c5c7c4;fill-opacity:0.8;stroke:#999999;stroke-width:0.80000007;stroke-linecap:butt;stroke-linejoin:miter;stroke-miterlimit:4;stroke-dasharray:none;stroke-dashoffset:2.86129999;stroke-opacity:1"
     d="M 0,0 0,498 543,498 543,0 0,0 Z m 235.90039,99.400391 91,0 0,100.999999 -37,0 0,29.5 -37,0 0,-29.5 -17,0 0,-100.999999 z m 0,233.999999 91,0 0,101 -37,0 0,29.5 -37,0 0,-29.5 -17,0 0,-101 z"
     transform="translate(0,-4.5776373e-5)"
     id="FrontPanel_600X500_PHCX4425"
     inkscape:connector-curvature="0" />
  <path
     style="opacity:1;fill:#c5c7c4;fill-opacity:0.8;stroke:#999999;stroke-width:0.80000007;stroke-linecap:butt;stroke-linejoin:miter;stroke-miterlimit:4;stroke-dasharray:none;stroke-dashoffset:2.86129999;stroke-opacity:1"
     d="M 0,0 0,498 543,498 543,0 0,0 Z m 203.5,59.75 97,0 0,145 -97,0 0,-145 z m 0,233.5 97,0 0,145 -97,0 0,-145 z"
     transform="translate(0,-4.5776373e-5)"
     id="FrontPanel_600X500_PHCX4431"
     inkscape:connector-curvature="0" />
  <g
     id="SlotTR">
    <circle
       style="fill:#b3b3b3;stroke:#808080;stroke-width:1.00000012;stroke-miterlimit:4;stroke-dasharray:none"
       r="6.25"
       cy="49.016998"
       cx="528.70203"
       id="circle6651" />
    <path
       style="fill:#999999;stroke:#808080;stroke-width:1.00000012;stroke-miterlimit:4;stroke-dasharray:none;stroke-opacity:1"
       inkscape:connector-curvature="0"
       d="m 528.70203,51.766999 a 2.730813,2.7495027 0 0 0 2.51368,-1.674469 l 3.98632,0 0,-1.869854 -3.88839,0 a 2.730813,2.7495027 0 0 0 -2.61161,-1.955678 2.730813,2.7495027 0 0 0 -2.61341,1.955678 l -3.88659,0 0,1.869854 3.98995,0 a 2.730813,2.7495027 0 0 0 2.51005,1.674469 z"
       id="path6653" />
  </g>
  <g
     id="SlotTL">
    <circle
       id="circle4226"
       cx="14.359"
       cy="49.016998"
       r="6.25"
       style="fill:#b3b3b3;stroke:#808080" />
    <path
       id="path4228"
       d="m 14.359,51.766999 a 2.730813,2.7495027 0 0 0 2.51368,-1.674469 l 3.98632,0 0,-1.869854 -3.88839,0 A 2.730813,2.7495027 0 0 0 14.359,46.266998 2.730813,2.7495027 0 0 0 11.74559,48.222676 l -3.8865894,0 0,1.869854 3.9899494,0 a 2.730813,2.7495027 0 0 0 2.51005,1.674469 z"
       inkscape:connector-curvature="0"
       style="fill:#999999;stroke:#808080;stroke-opacity:0.88235294" />
  </g>
  <g
     id="SlotBL">
    <circle
       style="fill:#b3b3b3;stroke:#808080"
       r="6.25"
       cy="449.00201"
       cx="14.359"
       id="circle4232" />
    <path
       style="fill:#999999;stroke:#808080;stroke-opacity:0.88235294"
       inkscape:connector-curvature="0"
       d="m 14.359,451.75201 a 2.730813,2.7495027 0 0 0 2.51368,-1.67447 l 3.98632,0 0,-1.86985 -3.88839,0 a 2.730813,2.7495027 0 0 0 -2.61161,-1.95568 2.730813,2.7495027 0 0 0 -2.61341,1.95568 l -3.88659,0 0,1.86985 3.98995,0 a 2.730813,2.7495027 0 0 0 2.51005,1.67447 z"
       id="path4234" />
  </g>
  <g
     id="SlotBR">
    <circle
       style="fill:#b3b3b3;stroke:#808080"
       r="6.25"
       cy="449.00201"
       cx="528.70203"
       id="circle4616" />
    <path
       style="fill:#999999;stroke:#808080;stroke-width:1.00000012;stroke-miterlimit:4;stroke-dasharray:none;stroke-opacity:0.88235294"
       inkscape:connector-curvature="0"
       d="m 528.70203,451.75201 a 2.7308125,2.7495079 0 0 0 2.51367,-1.67447 l 3.98633,0 0,-1.86985 -3.88839,0 a 2.7308125,2.7495079 0 0 0 -2.61161,-1.95568 2.7308125,2.7495079 0 0 0 -2.61342,1.95568 l -3.88658,0 0,1.86985 3.98995,0 a 2.7308125,2.7495079 0 0 0 2.51005,1.67447 z"
       id="path4618" />
  </g>
</svg>
