<?xml version="1.0" encoding="UTF-8" standalone="no"?>
<svg
   xmlns:dc="http://purl.org/dc/elements/1.1/"
   xmlns:cc="http://creativecommons.org/ns#"
   xmlns:rdf="http://www.w3.org/1999/02/22-rdf-syntax-ns#"
   xmlns:svg="http://www.w3.org/2000/svg"
   xmlns="http://www.w3.org/2000/svg"
   xmlns:sodipodi="http://sodipodi.sourceforge.net/DTD/sodipodi-0.dtd"
   xmlns:inkscape="http://www.inkscape.org/namespaces/inkscape"
   id="svg2"
   height="698.79999"
   viewBox="0 0 743.80005 698.79993"
   width="743.79999"
   version="1.1"
   inkscape:version="0.91 r13725"
   sodipodi:docname="Kit_breaker_T6_H.svg">
  <metadata
     id="metadata28">
    <rdf:RDF>
      <cc:Work
         rdf:about="">
        <dc:format>image/svg+xml</dc:format>
        <dc:type
           rdf:resource="http://purl.org/dc/dcmitype/StillImage" />
      </cc:Work>
    </rdf:RDF>
  </metadata>
  <defs
     id="defs26" />
  <sodipodi:namedview
     pagecolor="#ffffff"
     bordercolor="#666666"
     borderopacity="1"
     objecttolerance="10"
     gridtolerance="10"
     guidetolerance="10"
     inkscape:pageopacity="0"
     inkscape:pageshadow="2"
     inkscape:window-width="1920"
     inkscape:window-height="1017"
     id="namedview24"
     showgrid="false"
     inkscape:zoom="0.47761077"
     inkscape:cx="-637.9973"
     inkscape:cy="454.40589"
     inkscape:window-x="-8"
     inkscape:window-y="-8"
     inkscape:window-maximized="1"
     inkscape:current-layer="svg2" />
  <path
     id="FrontPanel_600X700_PHCT6411 "
     d="m0 0v698h543v-698zm182.40039 145.15039h150v148.5h-150zm35 187.25h14a8.9987512 9.0012486 44.600832 0 1 8.94922 9.03906 8.9987512 9.0012486 44.600832 0 1 -8.94922 8.95703v.004h-.0859-13.83203-.082v-.004a9 9 0 0 1 -8.95117-8.95507 9 9 0 0 1 8.95117-9.04102zm-35 142.5h150v148.5h-150zm34.59961 187.09961h13.90039.0996v.006a8.9987512 9.0012486 44.600832 0 1 8.84961 9.03516 8.9987512 9.0012486 44.600832 0 1 -8.84961 8.95298v.006h-.18555-13.73047-.084v-.004a9 9 0 0 1 -8.95114-8.95512 9 9 0 0 1 8.95117-9.04102z"
     fill="#c5c7c4"
     fill-opacity=".8"
     stroke="#999"
     stroke-width=".8" />
  <path
     id="FrontPanel_600X700_PHCT6425"
     d="m0 0v698h543v-698zm182.40039 145.15039h150v148.5h-150zm35 187.25h14a8.9987512 9.0012486 44.600832 0 1 8.94922 9.03906 8.9987512 9.0012486 44.600832 0 1 -8.94922 8.95703v.004h-.0859-13.83203-.082v-.004a9 9 0 0 1 -8.95117-8.95507 9 9 0 0 1 8.95117-9.04102zm-35 142.5h150v148.5h-150zm34.59961 187.09961h13.90039.0996v.006a8.9987512 9.0012486 44.600832 0 1 8.84961 9.03516 8.9987512 9.0012486 44.600832 0 1 -8.84961 8.95298v.006h-.18555-13.73047-.084v-.004a9 9 0 0 1 -8.95114-8.95512 9 9 0 0 1 8.95117-9.04102z"
     fill="#c5c7c4"
     fill-opacity=".8"
     stroke="#999"
     stroke-width=".8" />
  <path
     id="FrontPanel_600X500_PHCT6412"
     d="M 1e-8,-4.3501196e-5 1e-8,497.99996 543,497.99996 543,-4.3501196e-5 Z M 197,209.49996 l 150,0 0,148.5 -150,0 z m 35,187.19531 14,0 0,0.0937 a 9.0016832,8.9353914 0 0 1 8.43555,8.90625 A 9.0016832,8.9353914 0 0 1 246,414.61129 l 0,0.084 -14,0 0,-0.0762 A 8.871891,8.9602795 0 0 1 223.93164,405.69918 8.871891,8.9602795 0 0 1 232,396.78316 Z"
     inkscape:connector-curvature="0"
     style="fill:#c5c7c4;fill-opacity:0.8;stroke:#999999;stroke-width:0.80000001" />
  <path
     id="FrontPanel_800X500_PHDT6412"
     d="M 1e-8,-4.3501196e-5 1e-8,497.99996 743,497.99996 743,-4.3501196e-5 Z M 297,209.49996 l 150,0 0,148.5 -150,0 z m 50.54297,176.52539 14,0 0,0.0937 a 9.0016832,8.9353914 0 0 1 8.43555,8.90625 9.0016832,8.9353914 0 0 1 -8.43555,8.91602 l 0,0.084 -14,0 0,-0.0762 a 8.871891,8.9602795 0 0 1 -8.06836,-8.91992 8.871891,8.9602795 0 0 1 8.06836,-8.91602 z"
     inkscape:connector-curvature="0"
     style="fill:#c5c7c4;fill-opacity:0.8;stroke:#999999;stroke-width:0.80000001" />
  <path
     id="FrontPanel_800X500_PHDT6414"
     d="M 1e-8,-4.7051196e-5 1e-8,497.99996 743,497.99996 743,-4.7051196e-5 Z M 311,209.49996 l 150,0 0,148.5 -150,0 z m 50.54297,176.52539 14,0 0,0.0937 a 9.0016832,8.9353914 0 0 1 8.43555,8.90625 9.0016832,8.9353914 0 0 1 -8.43555,8.91602 l 0,0.084 -14,0 0,-0.0762 a 8.871891,8.9602795 0 0 1 -8.06836,-8.91992 8.871891,8.9602795 0 0 1 8.06836,-8.91602 z"
     inkscape:connector-curvature="0"
     style="fill:#c5c7c4;fill-opacity:0.8;stroke:#999999;stroke-width:0.80000001" />
  <path
     id="FrontPanel_600X700_PHCT6402"
     d="m -1.7881395e-8,-3.4830266e-5 0,698.000004830266 L 543,697.99997 543,-3.4830266e-5 Z M 222.5,144.49997 l 116,0 0,149 -116,0 z m 0,330 116,0 0,149 -116,0 z"
     inkscape:connector-curvature="0"
     style="fill:#c5c7c4;fill-opacity:0.8;stroke:#999999;stroke-width:0.80000001" />
  <path
     id="FrontPanel_600X700_PHCT6403"
     d="M 1e-8,-3.4840266e-5 1e-8,697.99997 543,697.99997 543,-3.4840266e-5 Z M 222.5,144.49997 l 116,0 0,149 -116,0 z m 0,330 116,0 0,149 -116,0 z"
     inkscape:connector-curvature="0"
     style="fill:#c5c7c4;fill-opacity:0.8;stroke:#999999;stroke-width:0.80000001" />
  <path
     id="FrontPanel_800X700_PHDT6402 "
     d="m.01648663-.01655348v698.00003348h743.00006337v-698.00003348zm322.91606337 144.91602348h116.00001v149.00001h-116.00001zm0 330.00002h116.00001v149.00001h-116.00001z"
     fill="#c5c7c4"
     fill-opacity=".8"
     stroke="#999"
     stroke-width=".832973" />
  <path
     id="FrontPanel_800X700_PHDT6403 "
     d="m.01648663-.01655671v698.00003671h743.00008337v-698.00003671zm322.91608337 144.91602671h116.00001v149.00001h-116.00001zm0 330.00002h116.00001v149.00001h-116.00001z"
     fill="#c5c7c4"
     fill-opacity=".8"
     stroke="#999"
     stroke-width=".832973" />
  <path
     inkscape:connector-curvature="0"
     style="fill:#c5c7c4;fill-opacity:0.8;stroke:#999999;stroke-width:0.80000001"
     id="FrontPanel_600X350_PHCT6312"
     d="m -1.7881395e-8,0.99992774 0,348.00002226 543.000030017881385,0 0,-348.00002226 z M 197.00001,100.49993 l 150.00002,0 0,148.50001 -150.00002,0 z m 35,187.19924 14,0 a 9.0000005,9.0000005 0 0 1 9.00001,9 9.0000005,9.0000005 0 0 1 -9.00001,9 l -14,0 a 9.0000005,9.0000005 0 0 1 -9,-9 9.0000005,9.0000005 0 0 1 9,-9 z" />
  <path
     inkscape:connector-curvature="0"
     style="fill:#c5c7c4;fill-opacity:0.8;stroke:#999999;stroke-width:0.80000001"
     id="FrontPanel_800X350_PHDT6405"
     d="m -1.7881395e-8,-7.1841893e-5 0,348.000021841893 743.00004001788136,0 0,-348.000021841893 z M 310.50002,134.99994 l 151.00001,0 0,148.50001 -151.00001,0 z" />
  <path
     inkscape:connector-curvature="0"
     style="fill:#c5c7c4;fill-opacity:0.8;stroke:#999999;stroke-width:0.80000001"
     id="FrontPanel_800X350_PHDT6404"
     d="m -1.7881405e-8,0.99993299 0,348.00001701 743.000040017881474,0 0,-348.00001701 z M 296.50002,135.99994 l 151.00001,0 0,148.50001 -151.00001,0 z" />
  <path
     inkscape:connector-curvature="0"
     style="fill:#c5c7c4;fill-opacity:0.8;stroke:#999999;stroke-width:0.80000001"
     id="FrontPanel_800X350_PHDT6401"
     d="m -1.7881395e-8,-7.0581893e-5 0,348.000020581893 743.00004001788136,0 0,-348.000020581893 z M 322.50002,134.49994 l 116.00001,0 0,149.00001 -116.00001,0 z" />
  <path
     inkscape:connector-curvature="0"
     style="fill:#c5c7c4;fill-opacity:0.8;stroke:#999999;stroke-width:0.80000001"
     id="FrontPanel_600X350_PHCT6314"
     d="m -1.7881405e-8,-7.1481893e-5 0,348.000021481893 543.000030017881499,0 0,-348.000021481893 z M 211.00001,99.499929 l 150.00001,0 0,148.500011 -150.00001,0 z m 35,187.199241 14.00001,0 a 9.0000005,9.0000005 0 0 1 9,9 9.0000005,9.0000005 0 0 1 -9,9 l -14.00001,0 a 9.0000005,9.0000005 0 0 1 -9,-9 9.0000005,9.0000005 0 0 1 9,-9 z" />
  <path
     inkscape:connector-curvature="0"
     style="fill:#c5c7c4;fill-opacity:0.8;stroke:#999999;stroke-width:0.80000001"
     id="FrontPanel_600X500_PHCT6400"
     d="m -1.7881405e-8,-7.8941196e-5 0,498.000038941196 543.000030017881499,0 0,-498.000038941196 z M 211.00001,209.49994 l 150.00001,0 0,148.50001 -150.00001,0 z m 35,187.19923 14.00001,0 a 9.0000005,9.0000005 0 0 1 9,9 9.0000005,9.0000005 0 0 1 -9,9 l -14.00001,0 a 9.0000005,9.0000005 0 0 1 -9,-9 9.0000005,9.0000005 0 0 1 9,-9 z" />
  <path
     inkscape:connector-curvature="0"
     style="fill:#c5c7c4;fill-opacity:0.8;stroke:#999999;stroke-width:0.80000001"
     id="FrontPanel_600X500_PHCT6410"
     d="m -1.7881398e-8,-7.8541196e-5 0,498.000038541196 543.000030017881385,0 0,-498.000038541196 z M 211.00001,209.49993 l 150.00001,0 0,148.50002 -150.00001,0 z m 35,187.19924 14.00001,0 a 9.0000005,9.0000005 0 0 1 9,9 9.0000005,9.0000005 0 0 1 -9,9 l -14.00001,0 a 9.0000005,9.0000005 0 0 1 -9,-9 9.0000005,9.0000005 0 0 1 9,-9 z" />
  <path
     inkscape:connector-curvature="0"
     style="fill:#c5c7c4;fill-opacity:0.8;stroke:#999999;stroke-width:0.80000001"
     id="FrontPanel_800X350_PHDT6312"
     d="m -1.7881405e-8,-7.2481893e-5 0,348.000022481893 743.000040017881474,0 0,-348.000022481893 z M 297.00002,99.499937 l 150.00001,0 0,148.500003 -150.00001,0 z m 35,187.199233 14,0 a 9.0000005,9.0000005 0 0 1 9,9 9.0000005,9.0000005 0 0 1 -9,9 l -14,0 a 9.0000005,9.0000005 0 0 1 -9,-9 9.0000005,9.0000005 0 0 1 9,-9 z" />
  <path
     inkscape:connector-curvature="0"
     style="fill:#c5c7c4;fill-opacity:0.8;stroke:#999999;stroke-width:0.80000001"
     id="FrontPanel_800X350_PHDT6314"
     d="m -1.7881398e-8,-7.2481893e-5 0,348.000022481893 743.00004001788136,0 0,-348.000022481893 z M 311.00002,99.499938 l 150.00001,0 0,148.500002 -150.00001,0 z m 35,187.199232 14,0 a 9.0000005,9.0000005 0 0 1 9,9 9.0000005,9.0000005 0 0 1 -9,9 l -14,0 a 9.0000005,9.0000005 0 0 1 -9,-9 9.0000005,9.0000005 0 0 1 9,-9 z" />
  <path
     inkscape:connector-curvature="0"
     style="fill:#c5c7c4;fill-opacity:0.8;stroke:#999999;stroke-width:0.80000001"
     id="FrontPanel_600X300_PHCT6301"
     d="m -1.7881394e-8,-7.5462125e-5 0,298.000015462125 543.000030017881385,0 0,-298.000015462125 z M 222.50001,74.499925 l 116.00001,0 0,149.000005 -116.00001,0 z" />
  <path
     inkscape:connector-curvature="0"
     style="fill:#c5c7c4;fill-opacity:0.8;stroke:#999999;stroke-width:0.80000001"
     id="FrontPanel_600X300_PHCT6304"
     d="m -1.7881405e-8,-7.8462125e-5 0,298.000018462125 543.000030017881499,0 0,-298.000018462125 z M 196.50001,74.999925 l 151.00001,0 0,148.500005 -151.00001,0 z" />
  <path
     inkscape:connector-curvature="0"
     style="fill:#c5c7c4;fill-opacity:0.8;stroke:#999999;stroke-width:0.80000001"
     id="FrontPanel_600X300_PHCT6305"
     d="m -1.7881405e-8,-8.1462125e-5 0,298.000021462125 543.000030017881499,0 0,-298.000021462125 z M 210.50001,74.999925 l 151.00001,0 0,148.500005 -151.00001,0 z" />
  <path
     inkscape:connector-curvature="0"
     style="fill:#c5c7c4;fill-opacity:0.8;stroke:#999999;stroke-width:0.80000001"
     id="FrontPanel_600X350_PHCT6401"
     d="m -1.7881394e-8,-7.8481893e-5 0,348.000028481893 543.000020017881297,0 0,-348.000028481893 z M 222.5,134.49994 l 116.00001,0 0,149.00001 -116.00001,0 z" />
  <path
     inkscape:connector-curvature="0"
     style="fill:#c5c7c4;fill-opacity:0.8;stroke:#999999;stroke-width:0.80000001"
     id="FrontPanel_600X350_PHCT6404"
     d="m -1.7881405e-8,-8.2481893e-5 0,348.000032481893 543.000030017881499,0 0,-348.000032481893 z M 196.50001,134.99993 l 151.00001,0 0,148.50001 -151.00001,0 z" />
  <path
     inkscape:connector-curvature="0"
     style="fill:#c5c7c4;fill-opacity:0.8;stroke:#999999;stroke-width:0.80000001"
     id="FrontPanel_600X350_PHCT6405"
     d="m -1.7881405e-8,-7.2481893e-5 0,348.000022481893 543.000030017881499,0 0,-348.000022481893 z M 210.50001,134.99994 l 151.00001,0 0,148.50001 -151.00001,0 z" />
  <path
     inkscape:connector-curvature="0"
     style="fill:#c5c7c4;fill-opacity:0.8;stroke:#999999;stroke-width:0.80000001"
     id="FrontPanel_800X300_PHDT6301"
     d="m -1.7881398e-8,-7.5462125e-5 0,298.000015462125 743.000030017881385,0 0,-298.000015462125 z M 322.50001,74.499925 l 116.00001,0 0,149.000005 -116.00001,0 z" />
  <path
     inkscape:connector-curvature="0"
     style="fill:#c5c7c4;fill-opacity:0.8;stroke:#999999;stroke-width:0.80000001"
     id="FrontPanel_800X300_PHDT6304"
     d="m -1.7881391e-8,-7.5462125e-5 0,298.000015462125 743.00004001788136,0 0,-298.000015462125 z M 296.50002,74.999925 l 151.00001,0 0,148.500005 -151.00001,0 z" />
  <path
     inkscape:connector-curvature="0"
     style="fill:#c5c7c4;fill-opacity:0.8;stroke:#999999;stroke-width:0.80000001"
     id="FrontPanel_800X300_PHDT6305"
     d="m -1.7881391e-8,-7.5462125e-5 0,298.000015462125 743.00004001788136,0 0,-298.000015462125 z M 310.50002,74.999935 l 151.00001,0 0,148.499995 -151.00001,0 z" />
  <g
     id="SlotTR">
    <circle
       id="circle6651"
       cx="728.70001"
       cy="49"
       fill="#b3b3b3"
       r="6.25"
       stroke="#808080" />
    <path
       id="path6653"
       d="m728.70001 51.750001a2.730813 2.7495027 0 0 0 2.51368-1.674469h3.98632v-1.869854h-3.88839a2.730813 2.7495027 0 0 0 -2.61161-1.955678 2.730813 2.7495027 0 0 0 -2.61341 1.955678h-3.88659v1.869854h3.98995a2.730813 2.7495027 0 0 0 2.51005 1.674469z"
       fill="#999"
       stroke="#808080" />
  </g>
  <g
     id="SlotTL">
    <circle
       id="circle4226"
       cx="15.5"
       cy="50.19994"
       fill="#b3b3b3"
       r="6.25"
       stroke="#808080" />
    <path
       id="path4228"
       d="m15.5 52.94994a2.730813 2.7495027 0 0 0 2.51368-1.674469h3.98632v-1.869854h-3.88839a2.730813 2.7495027 0 0 0 -2.61161-1.955678 2.730813 2.7495027 0 0 0 -2.61341 1.955678h-3.8865898v1.869854h3.9899498a2.730813 2.7495027 0 0 0 2.51005 1.674469z"
       fill="#999"
       stroke="#808080"
       stroke-opacity=".882353" />
  </g>
  <g
     id="SlotBL">
    <circle
       id="circle4232"
       cx="14.3"
       cy="649"
       fill="#b3b3b3"
       r="6.25"
       stroke="#808080" />
    <path
       id="path4234"
       d="m14.3 651.75a2.730813 2.7495027 0 0 0 2.51368-1.67447h3.98632v-1.86985h-3.88839a2.730813 2.7495027 0 0 0 -2.61161-1.95568 2.730813 2.7495027 0 0 0 -2.61341 1.95568h-3.8865897v1.86985h3.9899497a2.730813 2.7495027 0 0 0 2.51005 1.67447z"
       fill="#999"
       stroke="#808080"
       stroke-opacity=".882353" />
  </g>
  <g
     id="SlotBR">
    <circle
       id="circle4616"
       cx="728.70001"
       cy="649"
       fill="#b3b3b3"
       r="6.25"
       stroke="#808080" />
    <path
       id="path4618"
       d="m728.70001 651.75a2.7308125 2.7495079 0 0 0 2.51367-1.67447h3.98633v-1.86985h-3.88839a2.7308125 2.7495079 0 0 0 -2.61161-1.95568 2.7308125 2.7495079 0 0 0 -2.61342 1.95568h-3.88658v1.86985h3.98995a2.7308125 2.7495079 0 0 0 2.51005 1.67447z"
       fill="#999"
       stroke="#808080"
       stroke-opacity=".882353" />
  </g>
</svg>
