<?xml version="1.0" encoding="UTF-8" standalone="no"?>
<svg
   xmlns:dc="http://purl.org/dc/elements/1.1/"
   xmlns:cc="http://creativecommons.org/ns#"
   xmlns:rdf="http://www.w3.org/1999/02/22-rdf-syntax-ns#"
   xmlns:svg="http://www.w3.org/2000/svg"
   xmlns="http://www.w3.org/2000/svg"
   xmlns:sodipodi="http://sodipodi.sourceforge.net/DTD/sodipodi-0.dtd"
   xmlns:inkscape="http://www.inkscape.org/namespaces/inkscape"
   id="svg2"
   height="198.8"
   overflow="visible"
   viewBox="0 0 743.80004 198.79999"
   width="743.79999"
   version="1.1"
   inkscape:version="0.92.4 (5da689c313, 2019-01-14)"
   sodipodi:docname="Kit_breaker_XT1_H_1.svg"
   style="overflow:visible">
  <metadata
     id="metadata23">
    <rdf:RDF>
      <cc:Work
         rdf:about="">
        <dc:format>image/svg+xml</dc:format>
        <dc:type
           rdf:resource="http://purl.org/dc/dcmitype/StillImage" />
        <dc:title></dc:title>
      </cc:Work>
    </rdf:RDF>
  </metadata>
  <defs
     id="defs21" />
  <sodipodi:namedview
     pagecolor="#ffffff"
     bordercolor="#666666"
     borderopacity="1"
     objecttolerance="10"
     gridtolerance="10"
     guidetolerance="10"
     inkscape:pageopacity="0"
     inkscape:pageshadow="2"
     inkscape:window-width="1366"
     inkscape:window-height="705"
     id="namedview19"
     showgrid="false"
     inkscape:zoom="0.5"
     inkscape:cx="236.66323"
     inkscape:cy="57.78662"
     inkscape:window-x="-8"
     inkscape:window-y="-8"
     inkscape:window-maximized="1"
     inkscape:current-layer="svg2"
     showguides="false"
     fit-margin-top="0"
     fit-margin-left="0"
     fit-margin-right="0"
     fit-margin-bottom="0" />
  <path
     style="fill:#c5c7c4;fill-opacity:0.8;stroke:#999999;stroke-width:0.80000007;stroke-linejoin:miter;stroke-miterlimit:4;stroke-dasharray:none;stroke-opacity:1"
     d="M 0,0 V 198 H 743 V 0 Z m 308,43 h 108 v 87 H 308 Z"
     id="FrontPanel_800X200_PHDX1409"
     inkscape:connector-curvature="0" />
  <path
     style="fill:#c5c7c4;fill-opacity:0.8;stroke:#999999;stroke-width:0.80000007;stroke-linejoin:miter;stroke-miterlimit:4;stroke-dasharray:none;stroke-opacity:1"
     d="M 0,0 V 198 H 743 V 0 Z m 336.5,46 h 88 v 81 h -88 z"
     id="FrontPanel_800X200_PHDX1427"
     inkscape:connector-curvature="0" />
  <path
     style="fill:#c5c7c4;fill-opacity:0.8;stroke:#999999;stroke-width:0.80000007;stroke-linejoin:miter;stroke-miterlimit:4;stroke-dasharray:none;stroke-opacity:1"
     d="M 0,0 V 198 H 743 V 0 Z m 337.5,46 h 55 v 106 h -55 z"
     id="FrontPanel_800X200_PHDX1407"
     inkscape:connector-curvature="0" />
  <path
     style="fill:#c5c7c4;fill-opacity:0.8;stroke:#999999;stroke-width:0.80000007;stroke-linejoin:miter;stroke-miterlimit:4;stroke-dasharray:none;stroke-opacity:1"
     d="M 0,0 V 198 H 743 V 0 Z m 364,58.5 h 55 V 172 h -55 z"
     id="FrontPanel_800X200_PHDX1105"
     inkscape:connector-curvature="0" />
  <path
     style="fill:#c5c7c4;fill-opacity:0.8;stroke:#999999;stroke-width:0.80000007;stroke-linejoin:miter;stroke-miterlimit:4;stroke-dasharray:none;stroke-opacity:1"
     d="M 0,0 V 198 H 743 V 0 Z m 364,46 h 55 v 138.5 h -55 z"
     id="FrontPanel_800X200_PHDX1423"
     inkscape:connector-curvature="0" />
  <path
     style="fill:#c5c7c4;fill-opacity:0.8;stroke:#999999;stroke-width:0.80000007;stroke-linejoin:miter;stroke-miterlimit:4;stroke-dasharray:none;stroke-opacity:1"
     d="M 0,0 V 198 H 743 V 0 Z m 317.5,43 h 105 v 87 h -105 z"
     id="FrontPanel_800X200_PHDX1404"
     inkscape:connector-curvature="0" />
  <path
     style="fill:#c5c7c4;fill-opacity:0.8;stroke:#999999;stroke-width:0.80000007;stroke-linejoin:miter;stroke-miterlimit:4;stroke-dasharray:none;stroke-opacity:1"
     d="M 0,0 V 198 H 743 V 0 Z m 337.5,21 h 55 v 106 h -55 z"
     id="FrontPanel_800X200_PHDX1401"
     inkscape:connector-curvature="0" />
  <path
     style="fill:#c5c7c4;fill-opacity:0.8;stroke:#999999;stroke-width:0.80000007;stroke-linejoin:miter;stroke-miterlimit:4;stroke-dasharray:none;stroke-opacity:1"
     d="M 0,0 V 198 H 543 V 0 Z m 208,43 h 108 v 87 H 208 Z"
     id="FrontPanel_600X200_PHCX1409"
     inkscape:connector-curvature="0" />
  <path
     style="fill:#c5c7c4;fill-opacity:0.8;stroke:#999999;stroke-width:0.80000007;stroke-linejoin:miter;stroke-miterlimit:4;stroke-dasharray:none;stroke-opacity:1"
     d="M 0,0 V 198 H 543 V 0 Z m 236.5,46 h 88 v 81 h -88 z"
     id="FrontPanel_600X200_PHCX1427"
     inkscape:connector-curvature="0" />
  <path
     style="fill:#c5c7c4;fill-opacity:0.8;stroke:#999999;stroke-width:0.80000007;stroke-linejoin:miter;stroke-miterlimit:4;stroke-dasharray:none;stroke-opacity:1"
     d="M 0,0 V 198 H 543 V 0 Z m 237.5,46 h 55 v 106 h -55 z"
     id="FrontPanel_600X200_PHCX1407"
     inkscape:connector-curvature="0" />
  <path
     style="fill:#c5c7c4;fill-opacity:0.8;stroke:#999999;stroke-width:0.80000007;stroke-linejoin:miter;stroke-miterlimit:4;stroke-dasharray:none;stroke-opacity:1"
     d="M 0,0 V 198 H 543 V 0 Z m 264,58.5 h 55 V 172 h -55 z"
     id="FrontPanel_600X200_PHCX1105"
     inkscape:connector-curvature="0" />
  <path
     style="fill:#c5c7c4;fill-opacity:0.8;stroke:#999999;stroke-width:0.80000007;stroke-linejoin:miter;stroke-miterlimit:4;stroke-dasharray:none;stroke-opacity:1"
     d="M 0,0 V 198 H 543 V 0 Z m 264,46 h 55 v 138.5 h -55 z"
     id="FrontPanel_600X200_PHCX1423"
     inkscape:connector-curvature="0" />
  <path
     style="fill:#c5c7c4;fill-opacity:0.8;stroke:#999999;stroke-width:0.80000007;stroke-linejoin:miter;stroke-miterlimit:4;stroke-dasharray:none;stroke-opacity:1"
     d="M 0,0 V 198 H 543 V 0 Z m 264,58.5 h 55 V 172 h -55 z"
     id="FrontPanel_600X200_PHCX1323"
     inkscape:connector-curvature="0" />
  <path
     style="fill:#c5c7c4;fill-opacity:0.8;stroke:#999999;stroke-width:0.80000007;stroke-linejoin:miter;stroke-miterlimit:4;stroke-dasharray:none;stroke-opacity:1"
     d="M 0,0 V 198 H 543 V 0 Z m 217.5,43 h 108 v 87 h -108 z"
     id="FrontPanel_600X200_PHCX1404"
     inkscape:connector-curvature="0" />
  <path
     style="fill:#c5c7c4;fill-opacity:0.8;stroke:#999999;stroke-width:0.80000007;stroke-linejoin:miter;stroke-miterlimit:4;stroke-dasharray:none;stroke-opacity:1"
     d="M 0,0 V 198 H 543 V 0 Z m 237.5,46 h 55 v 106 h -55 z"
     id="FrontPanel_600X200_PHCX1101"
     inkscape:connector-curvature="0" />
  <path
     style="fill:#c5c7c4;fill-opacity:0.8;stroke:#999999;stroke-width:0.80000007;stroke-linejoin:miter;stroke-miterlimit:4;stroke-dasharray:none;stroke-opacity:1"
     d="M 0,0 V 198 H 343 V 0 Z m 108,43 h 108 v 87 H 108 Z"
     id="FrontPanel_400X200_PHBX1409"
     inkscape:connector-curvature="0" />
  <path
     style="fill:#c5c7c4;fill-opacity:0.8;stroke:#999999;stroke-width:0.80000007;stroke-linejoin:miter;stroke-miterlimit:4;stroke-dasharray:none;stroke-opacity:1"
     d="M 0,0 V 198 H 343 V 0 Z m 136.5,46 h 88 v 81 h -88 z"
     id="FrontPanel_400X200_PHBX1427"
     inkscape:connector-curvature="0" />
  <path
     style="fill:#c5c7c4;fill-opacity:0.8;stroke:#999999;stroke-width:0.80000007;stroke-linejoin:miter;stroke-miterlimit:4;stroke-dasharray:none;stroke-opacity:1"
     d="M 0,0 V 198 H 343 V 0 Z m 137.5,46 h 55 v 106 h -55 z"
     id="FrontPanel_400X200_PHBX1407"
     inkscape:connector-curvature="0" />
  <path
     style="fill:#c5c7c4;fill-opacity:0.8;stroke:#999999;stroke-width:0.80000007;stroke-linejoin:miter;stroke-miterlimit:4;stroke-dasharray:none;stroke-opacity:1"
     d="M 0,0 V 198 H 343 V 0 Z m 164,58.5 h 55 V 172 h -55 z"
     id="FrontPanel_400X200_PHBX1105"
     inkscape:connector-curvature="0" />
  <path
     style="fill:#c5c7c4;fill-opacity:0.8;stroke:#999999;stroke-width:0.80000007;stroke-linejoin:miter;stroke-miterlimit:4;stroke-dasharray:none;stroke-opacity:1"
     d="M 0,0 V 198 H 343 V 0 Z m 164,46 h 55 v 138.5 h -55 z"
     id="FrontPanel_400X200_PHBX1423"
     inkscape:connector-curvature="0" />
  <path
     style="fill:#c5c7c4;fill-opacity:0.8;stroke:#999999;stroke-width:0.80000007;stroke-linejoin:miter;stroke-miterlimit:4;stroke-dasharray:none;stroke-opacity:1"
     d="M 0,0 V 198 H 343 V 0 Z m 164,58.5 h 55 V 172 h -55 z"
     id="FrontPanel_400X200_PHBX1323"
     inkscape:connector-curvature="0" />
  <path
     style="fill:#c5c7c4;fill-opacity:0.8;stroke:#999999;stroke-width:0.80000007;stroke-linejoin:miter;stroke-miterlimit:4;stroke-dasharray:none;stroke-opacity:1"
     d="M 0,0 V 198 H 343 V 0 Z m 117.5,43 h 108 v 87 h -108 z"
     id="FrontPanel_400X200_PHBX1404"
     inkscape:connector-curvature="0" />
  <path
     style="fill:#c5c7c4;fill-opacity:0.8;stroke:#999999;stroke-width:0.80000007;stroke-linejoin:miter;stroke-miterlimit:4;stroke-dasharray:none;stroke-opacity:1"
     d="M 0,0 V 198 H 343 V 0 Z m 137.5,46 h 55 v 106 h -55 z"
     id="FrontPanel_400X200_PHBX1101"
     inkscape:connector-curvature="0" />
  <path
     style="fill:#c5c7c4;fill-opacity:0.8;stroke:#999999;stroke-width:0.80000007;stroke-linejoin:miter;stroke-miterlimit:4;stroke-dasharray:none;stroke-opacity:1"
     d="M 0,0 V 148 H 743 V 0 Z m 337.5,21 h 55 v 106 h -55 z"
     id="FrontPanel_800X150_PHDX1301"
     inkscape:connector-curvature="0" />
  <path
     style="fill:#c5c7c4;fill-opacity:0.8;stroke:#999999;stroke-width:0.80000007;stroke-linejoin:miter;stroke-miterlimit:4;stroke-dasharray:none;stroke-opacity:1"
     d="M 0,0 V 148 H 543 V 0 Z m 236.5,21 h 88 v 81 h -88 z"
     id="FrontPanel_600X150_PHCX1405"
     inkscape:connector-curvature="0" />
  <path
     style="fill:#c5c7c4;fill-opacity:0.8;stroke:#999999;stroke-width:0.80000007;stroke-linejoin:miter;stroke-miterlimit:4;stroke-dasharray:none;stroke-opacity:1"
     d="M 0,0 V 148 H 543 V 0 Z m 237.5,21 h 55 v 106 h -55 z"
     id="FrontPanel_600X150_PHCX1401"
     inkscape:connector-curvature="0" />
  <path
     style="fill:#c5c7c4;fill-opacity:0.8;stroke:#999999;stroke-width:0.80000007;stroke-linejoin:miter;stroke-miterlimit:4;stroke-dasharray:none;stroke-opacity:1"
     d="M 0,0 V 148 H 343 V 0 Z m 136.5,21 h 88 v 81 h -88 z"
     id="FrontPanel_400X150_PHBX1405"
     inkscape:connector-curvature="0" />
  <path
     style="fill:#c5c7c4;fill-opacity:0.8;stroke:#999999;stroke-width:0.80000007;stroke-linejoin:miter;stroke-miterlimit:4;stroke-dasharray:none;stroke-opacity:1"
     d="M 0,0 V 148 H 343 V 0 Z m 137.5,21 h 55 v 106 h -55 z"
     id="FrontPanel_400X150_PHBX1401"
     inkscape:connector-curvature="0" />
  <g
     id="SlotTR">
    <circle
       style="fill:#b3b3b3;stroke:#808080;stroke-width:1.00000012;stroke-miterlimit:4;stroke-dasharray:none"
       r="6.25"
       cy="49.5"
       cx="728.70001"
       id="circle6651" />
    <path
       style="fill:#999999;stroke:#808080;stroke-width:1.00000012;stroke-miterlimit:4;stroke-dasharray:none;stroke-opacity:1"
       inkscape:connector-curvature="0"
       d="m 728.70001,52.250001 a 2.730813,2.7495027 0 0 0 2.51368,-1.674469 h 3.98632 v -1.869854 h -3.88839 A 2.730813,2.7495027 0 0 0 728.70001,46.75 2.730813,2.7495027 0 0 0 726.0866,48.705678 h -3.88659 v 1.869854 h 3.98995 a 2.730813,2.7495027 0 0 0 2.51005,1.674469 z"
       id="path6653" />
  </g>
  <g
     id="SlotTL">
    <circle
       id="circle4226"
       cx="15.4"
       cy="49.5"
       r="6.25"
       style="fill:#b3b3b3;stroke:#808080" />
    <path
       id="path4228"
       d="m 15.399999,52.250001 a 2.730813,2.7495027 0 0 0 2.51368,-1.674469 h 3.98632 v -1.869854 h -3.88839 A 2.730813,2.7495027 0 0 0 15.399999,46.75 2.730813,2.7495027 0 0 0 12.786589,48.705678 H 8.8999998 v 1.869854 h 3.9899492 a 2.730813,2.7495027 0 0 0 2.51005,1.674469 z"
       inkscape:connector-curvature="0"
       style="fill:#999999;stroke:#808080;stroke-opacity:0.88235294" />
  </g>
  <g
     id="SlotBL">
    <circle
       style="fill:#b3b3b3;stroke:#808080"
       r="6.25"
       cy="149.10001"
       cx="15.4"
       id="circle4232" />
    <path
       style="fill:#999999;stroke:#808080;stroke-opacity:0.88235294"
       inkscape:connector-curvature="0"
       d="m 15.4,151.85001 a 2.730813,2.7495027 0 0 0 2.51368,-1.67447 H 21.9 v -1.86985 H 18.01161 A 2.730813,2.7495027 0 0 0 15.4,146.35001 2.730813,2.7495027 0 0 0 12.78659,148.30569 H 8.8999996 v 1.86985 H 12.88995 A 2.730813,2.7495027 0 0 0 15.4,151.85001 Z"
       id="path4234" />
  </g>
  <g
     id="SlotBR">
    <circle
       style="fill:#b3b3b3;stroke:#808080"
       r="6.25"
       cy="149.10001"
       cx="728.70001"
       id="circle4616" />
    <path
       style="fill:#999999;stroke:#808080;stroke-width:1.00000012;stroke-miterlimit:4;stroke-dasharray:none;stroke-opacity:0.88235294"
       inkscape:connector-curvature="0"
       d="m 728.70001,151.85001 a 2.7308125,2.7495079 0 0 0 2.51367,-1.67447 h 3.98633 v -1.86985 h -3.88839 a 2.7308125,2.7495079 0 0 0 -2.61161,-1.95568 2.7308125,2.7495079 0 0 0 -2.61342,1.95568 h -3.88658 v 1.86985 h 3.98995 a 2.7308125,2.7495079 0 0 0 2.51005,1.67447 z"
       id="path4618" />
  </g>
</svg>
