<?xml version="1.0" encoding="UTF-8" standalone="no"?>
<svg
   xmlns:dc="http://purl.org/dc/elements/1.1/"
   xmlns:cc="http://creativecommons.org/ns#"
   xmlns:rdf="http://www.w3.org/1999/02/22-rdf-syntax-ns#"
   xmlns:svg="http://www.w3.org/2000/svg"
   xmlns="http://www.w3.org/2000/svg"
   xmlns:sodipodi="http://sodipodi.sourceforge.net/DTD/sodipodi-0.dtd"
   xmlns:inkscape="http://www.inkscape.org/namespaces/inkscape"
   id="svg2"
   overflow="visible"
   viewBox="0 0 743.79999 598.79999"
   version="1.1"
   inkscape:version="0.92.3 (2405546, 2018-03-11)"
   sodipodi:docname="Kit_breaker_T5_H_2.svg"
   style="overflow:visible"
   height="598.79999"
   width="743.79999">
  <metadata
     id="metadata23">
    <rdf:RDF>
      <cc:Work
         rdf:about="">
        <dc:format>image/svg+xml</dc:format>
        <dc:type
           rdf:resource="http://purl.org/dc/dcmitype/StillImage" />
        <dc:title></dc:title>
      </cc:Work>
    </rdf:RDF>
  </metadata>
  <defs
     id="defs21" />
  <sodipodi:namedview
     pagecolor="#ffffff"
     bordercolor="#666666"
     borderopacity="1"
     objecttolerance="10"
     gridtolerance="10"
     guidetolerance="10"
     inkscape:pageopacity="0"
     inkscape:pageshadow="2"
     inkscape:window-width="1920"
     inkscape:window-height="1137"
     id="namedview19"
     showgrid="false"
     inkscape:zoom="1"
     inkscape:cx="210.38834"
     inkscape:cy="114.82489"
     inkscape:window-x="1358"
     inkscape:window-y="-8"
     inkscape:window-maximized="1"
     inkscape:current-layer="svg2"
     showguides="false"
     fit-margin-top="0"
     fit-margin-left="0"
     fit-margin-right="0"
     fit-margin-bottom="0" />
  <path
     style="fill:#c5c7c4;fill-opacity:0.8;stroke:#999999;stroke-width:0.80000007;stroke-linejoin:miter;stroke-miterlimit:4;stroke-dasharray:none;stroke-opacity:1"
     d="M 0,0 V 598 H 743 V 0 Z m 321,144.75 h 115 v 115 H 321 Z m 0,232 h 115 v 115 H 321 Z"
     id="FrontPanel_800X600_PHDT5431"
     inkscape:connector-curvature="0" />
  <path
     style="overflow:visible;fill:#c5c7c4;fill-opacity:0.8;stroke:#999999;stroke-width:0.80000007;stroke-linejoin:miter;stroke-miterlimit:4;stroke-dasharray:none;stroke-opacity:1"
     d="M 0,0 V 598 H 543 V 0 Z m 221,144.75 h 115 v 115 H 221 Z m 0,232 h 115 v 115 H 221 Z"
     id="FrontPanel_600X600_PHCT5432"
     inkscape:connector-curvature="0" />
  <path
     style="overflow:visible;fill:#c5c7c4;fill-opacity:0.8;stroke:#999999;stroke-width:0.80000007;stroke-linejoin:miter;stroke-miterlimit:4;stroke-dasharray:none;stroke-opacity:1"
     d="M 0,0 V 598 H 543 V 0 Z m 221,144.75 h 115 v 115 H 221 Z m 0,232 h 115 v 115 H 221 Z"
     id="FrontPanel_600X600_PHCT5431"
     inkscape:connector-curvature="0" />
  <path
     style="overflow:visible;fill:#c5c7c4;fill-opacity:0.8;stroke:#999999;stroke-width:0.80000007;stroke-linejoin:miter;stroke-miterlimit:4;stroke-dasharray:none;stroke-opacity:1"
     d="M 0,0 V 598 H 543 V 0 Z m 221,144.75 h 115 v 115 H 221 Z m 0,232 h 115 v 115 H 221 Z"
     id="FrontPanel_600x600_PHCT5403"
     inkscape:connector-curvature="0" />
  <path
     style="overflow:visible;fill:#c5c7c4;fill-opacity:0.8;stroke:#999999;stroke-width:0.80000007;stroke-linejoin:miter;stroke-miterlimit:4;stroke-dasharray:none;stroke-opacity:1"
     d="M 0,0 V 598 H 743 V 0 Z m 321,144.75 h 115 v 115 H 321 Z m 0,232 h 115 v 115 H 321 Z"
     id="FrontPanel_800X600_PHDT5432"
     inkscape:connector-curvature="0" />
  <path
     style="overflow:visible;fill:#c5c7c4;fill-opacity:0.8;stroke:#999999;stroke-width:0.80000007;stroke-linejoin:miter;stroke-miterlimit:4;stroke-dasharray:none;stroke-opacity:1"
     d="M 0,0 V 598 H 743 V 0 Z M 306.5,144.25 H 423 v 116 h -56.5 v 29 a 9,9 0 0 1 -9,9 9,9 0 0 1 -9,-9 v -29 h -42 z m 0,232 H 423 v 116 h -56 v 29 a 9,9 0 0 1 -9,9 9,9 0 0 1 -9,-9 v -29 h -42.5 z"
     id="FrontPanel_800X600_PHDT5425"
     inkscape:connector-curvature="0" />
  <path
     style="overflow:visible;fill:#c5c7c4;fill-opacity:0.8;stroke:#999999;stroke-width:0.80000007;stroke-linejoin:miter;stroke-miterlimit:4;stroke-dasharray:none;stroke-opacity:1"
     d="M 0,0 V 598 H 743 V 0 Z M 306.5,144.25 H 423 v 116 h -56 v 29 a 9,9 0 0 1 -9,9 9,9 0 0 1 -9,-9 v -29 h -42.5 z m 0,232 H 423 v 116 h -56 v 29 a 9,9 0 0 1 -9,9 9,9 0 0 1 -9,-9 v -29 h -42.5 z"
     id="FrontPanel_800x600_PHDT5411"
     inkscape:connector-curvature="0" />
  <path
     style="overflow:visible;fill:#c5c7c4;fill-opacity:0.8;stroke:#999999;stroke-width:0.80000007;stroke-linejoin:miter;stroke-miterlimit:4;stroke-dasharray:none;stroke-opacity:1"
     d="M 0,0 V 598 H 543 V 0 Z M 206.5,144.25 H 323 v 116 h -56 v 29 a 9,9 0 0 1 -9,9 9,9 0 0 1 -9,-9 v -29 h -42.5 z m 0,232 H 323 v 116 h -56 v 29 a 9,9 0 0 1 -9,9 9,9 0 0 1 -9,-9 v -29 h -42.5 z"
     id="FrontPanel_600X600_PHCT5425"
     inkscape:connector-curvature="0" />
  <path
     style="overflow:visible;fill:#c5c7c4;fill-opacity:0.8;stroke:#999999;stroke-width:0.80000007;stroke-linejoin:miter;stroke-miterlimit:4;stroke-dasharray:none;stroke-opacity:1"
     d="M 0,0 V 598 H 543 V 0 Z M 206.5,144.25 H 323 v 116 h -56 v 29 a 9,9 0 0 1 -9,9 9,9 0 0 1 -9,-9 v -29 h -42.5 z m 0,232 H 323 v 116 h -56 v 29 a 9,9 0 0 1 -9,9 9,9 0 0 1 -9,-9 v -29 h -42.5 z"
     id="FrontPanel_600X600_PHCT5411"
     inkscape:connector-curvature="0" />
  <path
     style="overflow:visible;fill:#c5c7c4;fill-opacity:0.8;stroke:#999999;stroke-width:0.80000007;stroke-linejoin:miter;stroke-miterlimit:4;stroke-dasharray:none;stroke-opacity:1"
     d="M 0,0 V 598 H 543 V 0 Z m 221,144.75 h 115 v 115 H 221 Z m 0,232 h 115 v 115 H 221 Z"
     id="FrontPanel_600X600_PHCT5402"
     inkscape:connector-curvature="0" />
  <g
     id="SlotBR">
    <circle
       style="fill:#b3b3b3;stroke:#808080"
       r="6.25"
       cy="549"
       cx="728.70001"
       id="circle4616" />
    <path
       style="fill:#999999;stroke:#808080;stroke-width:1.00000012;stroke-miterlimit:4;stroke-dasharray:none;stroke-opacity:0.88235294"
       inkscape:connector-curvature="0"
       d="m 728.70001,551.75 a 2.7308125,2.7495079 0 0 0 2.51367,-1.67447 h 3.98633 v -1.86985 h -3.88839 a 2.7308125,2.7495079 0 0 0 -2.61161,-1.95568 2.7308125,2.7495079 0 0 0 -2.61342,1.95568 h -3.88658 v 1.86985 h 3.98995 a 2.7308125,2.7495079 0 0 0 2.51005,1.67447 z"
       id="path4618" />
  </g>
  <g
     id="SlotBL">
    <circle
       style="fill:#b3b3b3;stroke:#808080"
       r="6.25"
       cy="549"
       cx="14.3"
       id="circle4232" />
    <path
       style="fill:#999999;stroke:#808080;stroke-opacity:0.88235294"
       inkscape:connector-curvature="0"
       d="m 14.3,551.75 a 2.730813,2.7495027 0 0 0 2.51368,-1.67447 H 20.8 v -1.86985 H 16.91161 A 2.730813,2.7495027 0 0 0 14.3,546.25 2.730813,2.7495027 0 0 0 11.68659,548.20568 H 7.8000002 v 1.86985 H 11.78995 A 2.730813,2.7495027 0 0 0 14.3,551.75 Z"
       id="path4234" />
  </g>
  <g
     id="SlotTL">
    <circle
       id="circle4226"
       cx="14.3"
       cy="49"
       r="6.25"
       style="fill:#b3b3b3;stroke:#808080" />
    <path
       id="path4228"
       d="m 14.3,51.750001 a 2.730813,2.7495027 0 0 0 2.51368,-1.674469 H 20.8 V 48.205678 H 16.91161 A 2.730813,2.7495027 0 0 0 14.3,46.25 2.730813,2.7495027 0 0 0 11.68659,48.205678 H 7.8000004 v 1.869854 H 11.78995 A 2.730813,2.7495027 0 0 0 14.3,51.750001 Z"
       inkscape:connector-curvature="0"
       style="fill:#999999;stroke:#808080;stroke-opacity:0.88235294" />
  </g>
  <g
     id="SlotTR">
    <circle
       style="fill:#b3b3b3;stroke:#808080;stroke-width:1.00000012;stroke-miterlimit:4;stroke-dasharray:none"
       r="6.25"
       cy="49"
       cx="728.70001"
       id="circle6651" />
    <path
       style="fill:#999999;stroke:#808080;stroke-width:1.00000012;stroke-miterlimit:4;stroke-dasharray:none;stroke-opacity:1"
       inkscape:connector-curvature="0"
       d="m 728.70001,51.750001 a 2.730813,2.7495027 0 0 0 2.51368,-1.674469 h 3.98632 v -1.869854 h -3.88839 A 2.730813,2.7495027 0 0 0 728.70001,46.25 2.730813,2.7495027 0 0 0 726.0866,48.205678 h -3.88659 v 1.869854 h 3.98995 a 2.730813,2.7495027 0 0 0 2.51005,1.674469 z"
       id="path6653" />
  </g>
</svg>
