<svg id="svg2" viewBox="0 0 743.8 248.79999" xmlns="http://www.w3.org/2000/svg"><path id="FrontPanel_800X250_PHDX3423" d="m0 0v248h743v-248zm369 19h55v177.5h-55z" fill="#c5c7c4" fill-opacity=".8" stroke="#999" stroke-width=".8"/><path id="FrontPanel_800X200_PHDX3407" d="m0 0v198h743v-198zm334 25.5h55v145h-55z" fill="#c5c7c4" fill-opacity=".8" stroke="#999" stroke-width=".8"/><path id="FrontPanel_800X200_PHDX3401" d="m0 0v198h743v-198zm334 26.5h55v145h-55z" fill="#c5c7c4" fill-opacity=".8" stroke="#999" stroke-width=".8"/><path id="FrontPanel_600X200_PHDX3427" d="m0 0v198h543v-198zm233 75h88v81h-88z" fill="#c5c7c4" fill-opacity=".8" stroke="#999" stroke-width=".8"/><path id="FrontPanel_600X250_PHCX3423" d="m0 0v248h543v-248zm269 19h55v177.5h-55z" fill="#c5c7c4" fill-opacity=".8" stroke="#999" stroke-width=".8"/><path id="FrontPanel_600X200_PHCX3409" d="m0 0v198h543v-198zm214 72h108v87h-108z" fill="#c5c7c4" fill-opacity=".8" stroke="#999" stroke-width=".8"/><path id="FrontPanel_600X200_PHCX3407" d="m0 0v198h543v-198zm234 26.5h55v145h-55z" fill="#c5c7c4" fill-opacity=".8" stroke="#999" stroke-width=".8"/><path id="FrontPanel_600X200_PHCX3405" d="m0 0v198h543v-198zm233 76h88v81h-88z" fill="#c5c7c4" fill-opacity=".8" stroke="#999" stroke-width=".8"/><path id="FrontPanel_600X200_PHCX3404" d="m0 0v198h543v-198zm214 73h108v87h-108z" fill="#c5c7c4" fill-opacity=".8" stroke="#999" stroke-width=".8"/><path id="FrontPanel_600X200_PHCX3401" d="m0 0v198h543v-198zm234 26.5h55v145h-55z" fill="#c5c7c4" fill-opacity=".8" stroke="#999" stroke-width=".8"/><path id="FrontPanel_600X150_PHCX3305" d="m0 0v148h543v-148zm233 37h88v81h-88z" fill="#c5c7c4" fill-opacity=".8" stroke="#999" stroke-width=".8"/><path id="FrontPanel_600X150_PHCX3301" d="m0 0v148h543v-148zm234 19h55v110h-55z" fill="#c5c7c4" fill-opacity=".8" stroke="#999" stroke-width=".8"/><path id="FrontPanel_400X200_PHBX3427" d="m0 0v198h343v-198zm133 75h88v81h-88z" fill="#c5c7c4" fill-opacity=".8" stroke="#999" stroke-width=".8"/><path id="FrontPanel_400X250_PHBX3423" d="m0 0v248h343v-248zm169 19h55v177.5h-55z" fill="#c5c7c4" fill-opacity=".8" stroke="#999" stroke-width=".8"/><path id="FrontPanel_400X200_PHBX3409" d="m0 0v198h343v-198zm114 72h108v87h-108z" fill="#c5c7c4" fill-opacity=".8" stroke="#999" stroke-width=".8"/><path id="FrontPanel_400X200_PHBX3407" d="m0 0v198h343v-198zm134 26.5h55v145h-55z" fill="#c5c7c4" fill-opacity=".8" stroke="#999" stroke-width=".8"/><path id="FrontPanel_400X200_PHBX3405" d="m0 0v198h343v-198zm133 76h88v81h-88z" fill="#c5c7c4" fill-opacity=".8" stroke="#999" stroke-width=".8"/><path id="FrontPanel_400X200_PHBX3404" d="m0 0v198h343v-198zm114 73h108v87h-108z" fill="#c5c7c4" fill-opacity=".8" stroke="#999" stroke-width=".8"/><path id="FrontPanel_400X200_PHBX3401" d="m0 0v198h343v-198zm134 26.5h55v145h-55z" fill="#c5c7c4" fill-opacity=".8" stroke="#999" stroke-width=".8"/><path id="FrontPanel_400X150_PHBX3305" d="m0 0v148h343v-148zm133 37h88v81h-88z" fill="#c5c7c4" fill-opacity=".8" stroke="#999" stroke-width=".8"/><path id="FrontPanel_400X150_PHBX3301" d="m0 0v148h343v-148zm134 19h55v110h-55z" fill="#c5c7c4" fill-opacity=".8" stroke="#999" stroke-width=".8"/><g id="SlotTL"><circle id="circle4226" cx="14.3" cy="49" fill="#b3b3b3" r="6.25" stroke="#808080"/><path id="path4228" d="m14.3 51.750001a2.730813 2.7495027 0 0 0 2.51368-1.674469h3.98632v-1.869854h-3.88839a2.730813 2.7495027 0 0 0 -2.61161-1.955678 2.730813 2.7495027 0 0 0 -2.61341 1.955678h-3.8865896v1.869854h3.9899496a2.730813 2.7495027 0 0 0 2.51005 1.674469z" fill="#999" stroke="#808080" stroke-opacity=".882353"/></g><g id="SlotBR"><circle id="circle4616" cx="728.70001" cy="199" fill="#b3b3b3" r="6.25" stroke="#808080"/><path id="path4618" d="m728.70001 201.75a2.7308125 2.7495079 0 0 0 2.51367-1.67447h3.98633v-1.86985h-3.88839a2.7308125 2.7495079 0 0 0 -2.61161-1.95568 2.7308125 2.7495079 0 0 0 -2.61342 1.95568h-3.88658v1.86985h3.98995a2.7308125 2.7495079 0 0 0 2.51005 1.67447z" fill="#999" stroke="#808080" stroke-opacity=".882353"/></g><g id="SlotBL"><circle id="circle4232" cx="14.3" cy="199" fill="#b3b3b3" r="6.25" stroke="#808080"/><path id="path4234" d="m14.3 201.75a2.730813 2.7495027 0 0 0 2.51368-1.67447h3.98632v-1.86985h-3.88839a2.730813 2.7495027 0 0 0 -2.61161-1.95568 2.730813 2.7495027 0 0 0 -2.61341 1.95568h-3.8865898v1.86985h3.9899498a2.730813 2.7495027 0 0 0 2.51005 1.67447z" fill="#999" stroke="#808080" stroke-opacity=".882353"/></g><g id="SlotTR"><circle id="circle6651" cx="728.70001" cy="49" fill="#b3b3b3" r="6.25" stroke="#808080"/><path id="path6653" d="m728.70001 51.750001a2.730813 2.7495027 0 0 0 2.51368-1.674469h3.98632v-1.869854h-3.88839a2.730813 2.7495027 0 0 0 -2.61161-1.955678 2.730813 2.7495027 0 0 0 -2.61341 1.955678h-3.88659v1.869854h3.98995a2.730813 2.7495027 0 0 0 2.51005 1.674469z" fill="#999" stroke="#808080"/></g></svg>