<?xml version="1.0" encoding="UTF-8" standalone="no"?>
<svg
   xmlns:osb="http://www.openswatchbook.org/uri/2009/osb"
   xmlns:dc="http://purl.org/dc/elements/1.1/"
   xmlns:cc="http://creativecommons.org/ns#"
   xmlns:rdf="http://www.w3.org/1999/02/22-rdf-syntax-ns#"
   xmlns:svg="http://www.w3.org/2000/svg"
   xmlns="http://www.w3.org/2000/svg"
   xmlns:sodipodi="http://sodipodi.sourceforge.net/DTD/sodipodi-0.dtd"
   xmlns:inkscape="http://www.inkscape.org/namespaces/inkscape"
   id="svg2"
   height="198.8"
   viewBox="0 0 743.80004 198.79999"
   width="743.79999"
   version="1.1"
   inkscape:version="0.92.4 (5da689c313, 2019-01-14)"
   sodipodi:docname="Kit_breaker_XT4_H_LeftOver.svg">
  <metadata
     id="metadata37">
    <rdf:RDF>
      <cc:Work
         rdf:about="">
        <dc:format>image/svg+xml</dc:format>
        <dc:type
           rdf:resource="http://purl.org/dc/dcmitype/StillImage" />
        <dc:title></dc:title>
      </cc:Work>
    </rdf:RDF>
  </metadata>
  <defs
     id="defs35">
    <linearGradient
       id="linearGradient4192"
       osb:paint="solid">
      <stop
         style="stop-color:#ffffff;stop-opacity:1;"
         offset="0"
         id="stop4194" />
    </linearGradient>
  </defs>
  <sodipodi:namedview
     pagecolor="#ffffff"
     bordercolor="#666666"
     borderopacity="1"
     objecttolerance="10"
     gridtolerance="10"
     guidetolerance="10"
     inkscape:pageopacity="0"
     inkscape:pageshadow="2"
     inkscape:window-width="1366"
     inkscape:window-height="705"
     id="namedview33"
     showgrid="false"
     inkscape:zoom="0.66168723"
     inkscape:cx="287.22866"
     inkscape:cy="27.41983"
     inkscape:window-x="-8"
     inkscape:window-y="-8"
     inkscape:window-maximized="1"
     inkscape:current-layer="svg2"
     fit-margin-top="0"
     fit-margin-left="0"
     fit-margin-right="0"
     fit-margin-bottom="0" />
  <path
     style="fill:#c5c7c4;fill-opacity:0.8;stroke:#999999;stroke-width:0.80000001"
     d="M 0.53515625,-0.80078125 V 197.19922 H 743.53516 V -0.80078125 Z M 336,66 h 91 v 101 h -91 z"
     id="FrontPanel_800X200_PHDX4405"
     inkscape:connector-curvature="0" />
  <path
     style="fill:#c5c7c4;fill-opacity:0.8;stroke:#999999;stroke-width:0.80000001"
     d="M 0.53515625,-0.80078125 V 197.19922 H 743.53516 V -0.80078125 Z M 303.5,26.5 h 97 v 145 h -97 z"
     id="FrontPanel_800X200_PHDX4407"
     inkscape:connector-curvature="0" />
  <path
     style="fill:#c5c7c4;fill-opacity:0.8;stroke:#999999;stroke-width:0.80000001"
     d="M 0.53515625,-0.80078125 V 197.19922 H 743.53516 V -0.80078125 Z M 335.5,66 h 91 v 101 h -91 z"
     id="FrontPanel_800X200_PHDX4409"
     inkscape:connector-curvature="0" />
  <path
     style="fill:#c5c7c4;fill-opacity:0.8;stroke:#999999;stroke-width:0.80000001"
     d="M 0.53515625,-0.80078125 V 197.19922 H 743.53516 V -0.80078125 Z M 338,75.5 h 89 v 82 h -89 z"
     id="FrontPanel_800X200_PHDX4427"
     inkscape:connector-curvature="0" />
  <g
     id="SlotTL">
    <circle
       r="6.25"
       cy="49"
       cx="14.3"
       id="circle40"
       style="fill:#b3b3b3;stroke:#808080" />
    <path
       d="m 14.3,51.785605 a 2.3256458,2.7850996 0 0 0 2.14073,-1.69615 h 3.39487 v -1.89406 h -3.31147 a 2.3256458,2.7850996 0 0 0 -2.22413,-1.981 2.3256458,2.7850996 0 0 0 -2.22566,1.981 H 8.7644002 v 1.89406 H 12.16236 A 2.3256458,2.7850996 0 0 0 14.3,51.785605 Z"
       id="path42"
       inkscape:connector-curvature="0"
       style="fill:#999999;stroke:#808080;stroke-width:0.92879301;stroke-opacity:0.882353" />
  </g>
  <g
     id="SlotTR">
    <circle
       style="fill:#b3b3b3;stroke:#808080"
       id="circle48"
       cx="728.70001"
       cy="49"
       r="6.25" />
    <path
       style="fill:#999999;stroke:#808080;stroke-width:0.92879301;stroke-opacity:0.882353"
       inkscape:connector-curvature="0"
       id="path50"
       d="m 728.70001,51.785604 a 2.3256458,2.7850996 0 0 0 2.14073,-1.696148 h 3.39488 v -1.894062 h -3.31148 a 2.3256458,2.7850996 0 0 0 -2.22413,-1.980997 2.3256458,2.7850996 0 0 0 -2.22566,1.980997 h -3.30994 v 1.894062 h 3.39796 a 2.3256458,2.7850996 0 0 0 2.13764,1.696148 z" />
  </g>
  <g
     id="SlotBR">
    <circle
       style="fill:#b3b3b3;stroke:#808080"
       id="circle54"
       cx="728.70001"
       cy="149"
       r="6.25" />
    <path
       style="fill:#999999;stroke:#808080;stroke-width:0.92879301;stroke-opacity:0.882353"
       inkscape:connector-curvature="0"
       id="path56"
       d="m 728.70001,151.7856 a 2.3256458,2.7850996 0 0 0 2.14073,-1.69614 h 3.39488 v -1.89407 h -3.31148 a 2.3256458,2.7850996 0 0 0 -2.22413,-1.98099 2.3256458,2.7850996 0 0 0 -2.22566,1.98099 h -3.30994 v 1.89407 h 3.39796 a 2.3256458,2.7850996 0 0 0 2.13764,1.69614 z" />
  </g>
  <g
     id="SlotBL">
    <circle
       inkscape:transform-center-y="-9.0834578"
       inkscape:transform-center-x="29.921979"
       style="fill:#b3b3b3;stroke:#808080"
       id="circle60"
       cx="14.3"
       cy="149"
       r="6.25" />
    <path
       inkscape:transform-center-y="-9.0834557"
       inkscape:transform-center-x="29.884527"
       style="fill:#999999;stroke:#808080;stroke-width:0.92879301;stroke-opacity:0.882353"
       inkscape:connector-curvature="0"
       id="path62"
       d="m 14.3,151.7856 a 2.3256458,2.7850996 0 0 0 2.140729,-1.69614 h 3.394874 v -1.89407 H 16.524129 A 2.3256458,2.7850996 0 0 0 14.3,146.2144 2.3256458,2.7850996 0 0 0 12.074339,148.19539 H 8.7643972 v 1.89407 H 12.162363 A 2.3256458,2.7850996 0 0 0 14.3,151.7856 Z" />
  </g>
</svg>
