<svg id="svg2" height="448.79996" viewBox="0 0 943.79999 448.79992" width="943.79993" xmlns="http://www.w3.org/2000/svg"><path id="FrontPanel_1000X450_PVFT6612" d="m0 0v448h943v-448zm232.30078 149h148.5v150h-148.5zm400 0h148.5v150h-148.5zm-203.5 92a8.9999975 8.9999975 0 0 1 9 9v14a8.999998 8.999998 0 0 1 -9 9 8.999998 8.999998 0 0 1 -9-9v-14a8.9999975 8.9999975 0 0 1 9-9zm400 0a8.9999985 8.9999985 0 0 1 9 9v14a8.999999 8.999999 0 0 1 -9 9 8.999999 8.999999 0 0 1 -9-9v-14a8.9999985 8.9999985 0 0 1 9-9z" fill="#c5c7c4" fill-opacity=".8" stroke="#999" stroke-width=".8" transform="translate(0 -.000031)"/><path id="FrontPanel_1000X450_PVFT6610" d="m0 0v448h943v-448zm232.5 134.5h148.5v150h-148.5zm400 0h148.5v150h-148.5zm-203.75 92a8.9999975 8.9999975 0 0 1 9 9v14a8.999998 8.999998 0 0 1 -9 9 8.999998 8.999998 0 0 1 -9-9v-14a8.9999975 8.9999975 0 0 1 9-9zm400 0a8.9999985 8.9999985 0 0 1 9 9v14a8.999999 8.999999 0 0 1 -9 9 8.999999 8.999999 0 0 1 -9-9v-14a8.9999985 8.9999985 0 0 1 9-9z" fill="#c5c7c4" fill-opacity=".8" stroke="#999" stroke-width=".8" transform="translate(0 -.000031)"/><path id="FrontPanel_800X450_PVDT6414" d="m0 0v448h743v-448zm332.5 134.5h148.5v150h-148.5zm196.19922 92a8.9999985 8.9999985 0 0 1 9 9v14a8.999999 8.999999 0 0 1 -9 9 8.999999 8.999999 0 0 1 -9-9v-14a8.9999985 8.9999985 0 0 1 9-9z" fill="#c5c7c4" fill-opacity=".8" stroke="#999" stroke-width=".8" transform="translate(0 -.000031)"/><path id="FrontPanel_800X450_PVDT6412" d="m0 0v448h743v-448zm332.5 148.5h148.5v150h-148.5zm196.19922 92a8.9999985 8.9999985 0 0 1 9 9v14a8.999999 8.999999 0 0 1 -9 9 8.999999 8.999999 0 0 1 -9-9v-14a8.9999985 8.9999985 0 0 1 9-9z" fill="#c5c7c4" fill-opacity=".8" stroke="#999" stroke-width=".8" transform="translate(0 -.000031)"/><path id="FrontPanel_600X450_PVCT6414" d="m0 0v448h543v-448zm232.5 134.5h148.5v150h-148.5zm196.19922 92a8.9999985 8.9999985 0 0 1 9 9v14a8.999999 8.999999 0 0 1 -9 9 8.999999 8.999999 0 0 1 -9-9v-14a8.9999985 8.9999985 0 0 1 9-9z" fill="#c5c7c4" fill-opacity=".8" stroke="#999" stroke-width=".8" transform="translate(0 -.000031)"/><path id="FrontPanel_600X450_PVCT6412" d="m0 0v448h543v-448zm232.5 148.5h148.5v150h-148.5zm196.19922 92a8.9999985 8.9999985 0 0 1 9 9v14a8.999999 8.999999 0 0 1 -9 9 8.999999 8.999999 0 0 1 -9-9v-14a8.9999985 8.9999985 0 0 1 9-9z" fill="#c5c7c4" fill-opacity=".8" stroke="#999" stroke-width=".8" transform="translate(0 -.000031)"/><path id="FrontPanel_800X400_PVDT6405" d="m0 0v398h743v-398zm297 109h148.5v151h-148.5z" fill="#c5c7c4" fill-opacity=".8" stroke="#999" stroke-width=".8" transform="translate(0 -.000031)"/><path id="FrontPanel_800X400_PVDT6404" d="m0 0v398h743v-398zm297 123h148.5v151h-148.5z" fill="#c5c7c4" fill-opacity=".8" stroke="#999" stroke-width=".8" transform="translate(0 -.000031)"/><path id="FrontPanel_800X400_PVDT6401" d="m0 0v398h743v-398zm332 132h149v116h-149z" fill="#c5c7c4" fill-opacity=".8" stroke="#999" stroke-width=".8" transform="translate(0 -.000031)"/><path id="FrontPanel_600X400_PVCT6405" d="m0 0v398h543v-398zm197 109h148.5v151h-148.5z" fill="#c5c7c4" fill-opacity=".8" stroke="#999" stroke-width=".8" transform="translate(0 -.000031)"/><path id="FrontPanel_600X400_PVCT6404" d="m0 0v398h543v-398zm197 123h148.5v151h-148.5z" fill="#c5c7c4" fill-opacity=".8" stroke="#999" stroke-width=".8" transform="translate(0 -.000031)"/><path id="FrontPanel_600X400_PVCT6401" d="m0 0v398h543v-398zm232 132h149v116h-149z" fill="#c5c7c4" fill-opacity=".8" stroke="#999" stroke-width=".8" transform="translate(0 -.000031)"/><path id="FrontPanel_400X400_PVBT6405" d="m0 0v398h343v-398zm133.90039 109h148.5v151h-148.5z" fill="#c5c7c4" fill-opacity=".8" stroke="#999" stroke-width=".8" transform="translate(0 -.000031)"/><path id="FrontPanel_400X400_PVBT6404" d="m0 0v398h343v-398zm121.59961 123.5h148.5v150h-148.5z" fill="#c5c7c4" fill-opacity=".8" stroke="#999" stroke-width=".8" transform="translate(0 -.000031)"/><path id="FrontPanel_400X400_PVBT6401" d="m0 0v398h343v-398zm133.40039 132h149v116h-149z" fill="#c5c7c4" fill-opacity=".8" stroke="#999" stroke-width=".8" transform="translate(0 -.000031)"/><path id="FrontPanel_400X450_PVBT6314" d="m0 0v448h343v-448zm97.5 134.5h148.5v150h-148.5zm196.25 92a8.999998 8.999998 0 0 1 9 9v14a8.9999985 8.9999985 0 0 1 -9 9 8.9999985 8.9999985 0 0 1 -9-9v-14a8.999998 8.999998 0 0 1 9-9z" fill="#c5c7c4" fill-opacity=".8" stroke="#999" stroke-width=".8" transform="translate(0 -.000031)"/><path id="FrontPanel_400X450_PVBT6312" d="m0 0v448h343v-448zm97.5 148.5h148.5v150h-148.5zm196.25 92a8.999998 8.999998 0 0 1 9 9v14a8.9999985 8.9999985 0 0 1 -9 9 8.9999985 8.9999985 0 0 1 -9-9v-14a8.999998 8.999998 0 0 1 9-9z" fill="#c5c7c4" fill-opacity=".8" stroke="#999" stroke-width=".8" transform="translate(0 -.000031)"/><g id="Slot BR"><circle id="circle4616" cx="928.71698" cy="399.04099" fill="#b3b3b3" r="6.25" stroke="#808080"/><path id="path4618" d="m928.71698 401.79099a2.7308125 2.7495079 0 0 0 2.51367-1.67447h3.98633v-1.86985h-3.88839a2.7308125 2.7495079 0 0 0 -2.61161-1.95568 2.7308125 2.7495079 0 0 0 -2.61342 1.95568h-3.88658v1.86985h3.98995a2.7308125 2.7495079 0 0 0 2.51005 1.67447z" fill="#999" stroke="#808080" stroke-opacity=".882353"/></g><g id="Slot BL"><circle id="circle4232" cx="15.394" cy="399.04099" fill="#b3b3b3" r="6.25" stroke="#808080"/><path id="path4234" d="m15.394 401.79099a2.730813 2.7495027 0 0 0 2.51368-1.67447h3.98632v-1.86985h-3.88839a2.730813 2.7495027 0 0 0 -2.61161-1.95568 2.730813 2.7495027 0 0 0 -2.61341 1.95568h-3.8865899v1.86985h3.9899499a2.730813 2.7495027 0 0 0 2.51005 1.67447z" fill="#999" stroke="#808080" stroke-opacity=".882353"/></g><g id="Slot TL"><circle id="circle4226" cx="15.394" cy="49.330002" fill="#b3b3b3" r="6.25" stroke="#808080"/><path id="path4228" d="m15.394 52.080002a2.730813 2.7495027 0 0 0 2.51368-1.674469h3.98632v-1.869854h-3.88839a2.730813 2.7495027 0 0 0 -2.61161-1.955678 2.730813 2.7495027 0 0 0 -2.61341 1.955678h-3.8865899v1.869854h3.9899499a2.730813 2.7495027 0 0 0 2.51005 1.674469z" fill="#999" stroke="#808080" stroke-opacity=".882353"/></g><g id="Slot TR"><circle id="circle6651" cx="928.71698" cy="49.330002" fill="#b3b3b3" r="6.25" stroke="#808080"/><path id="path6653" d="m928.71698 52.080002a2.730813 2.7495027 0 0 0 2.51368-1.674469h3.98632v-1.869854h-3.88839a2.730813 2.7495027 0 0 0 -2.61161-1.955678 2.730813 2.7495027 0 0 0 -2.61341 1.955678h-3.88659v1.869854h3.98995a2.730813 2.7495027 0 0 0 2.51005 1.674469z" fill="#999" stroke="#808080"/></g></svg>