<svg id="svg2" height="298.79996" viewBox="0 0 543.79996 298.79993" width="543.79993" xmlns="http://www.w3.org/2000/svg"><path id="FrontPanel_600X300_PVCX1401" d="m0 0v298h543v-298zm218.5 115h106v55h-106z" fill="#c5c7c4" fill-opacity=".8" stroke="#999" stroke-width=".8" transform="translate(0 -.000031)"/><path id="FrontPanel_600X300_PVCX1404" d="m0 0v298h543v-298zm240.5 95h87v108h-87z" fill="#c5c7c4" fill-opacity=".8" stroke="#999" stroke-width=".8" transform="translate(0 -.000031)"/><path id="FrontPanel_600X300_PVCX1405" d="m0 0v298h543v-298zm218.5 114h81v88h-81z" fill="#c5c7c4" fill-opacity=".8" stroke="#999" stroke-width=".8" transform="translate(0 -.000031)"/><path id="FrontPanel_600X300_PVCX1407" d="m0 0v298h543v-298zm218.5 115h106v55h-106z" fill="#c5c7c4" fill-opacity=".8" stroke="#999" stroke-width=".8" transform="translate(0 -.000031)"/><path id="FrontPanel_600X300_PVCX1409" d="m0 0v298h543v-298zm215.5 95h87v108h-87z" fill="#c5c7c4" fill-opacity=".8" stroke="#999" stroke-width=".8" transform="translate(0 -.000031)"/><path id="FrontPanel_600X300_PVCX1423" d="m0 0v298h543v-298zm218.5 141.5h138.5v55h-138.5z" fill="#c5c7c4" fill-opacity=".8" stroke="#999" stroke-width=".8" transform="translate(0 -.000031)"/><path id="FrontPanel_600X300_PVCX1427" d="m0 0v298h543v-298zm223.92773 96h81v88h-81z" fill="#c5c7c4" fill-opacity=".8" stroke="#999" stroke-width=".8" transform="translate(0 -.000031)"/><path id="FrontPanel_400X300_PVBX1401" d="m0 0v298h343v-298zm118.5 128h106v55h-106z" fill="#c5c7c4" fill-opacity=".8" stroke="#999" stroke-width=".8" transform="translate(0 -.000031)"/><path id="FrontPanel_400X300_PVBX1404" d="m0 0v298h343v-298zm115.5 95h87v108h-87z" fill="#c5c7c4" fill-opacity=".8" stroke="#999" stroke-width=".8" transform="translate(0 -.000031)"/><path id="FrontPanel_400X300_PVBX1405" d="m0 0v298h343v-298zm143.5 96h81v88h-81z" fill="#c5c7c4" fill-opacity=".8" stroke="#999" stroke-width=".8" transform="translate(0 -.000031)"/><path id="FrontPanel_400X300_PVBX1407" d="m0 0v298h343v-298zm118.5 128h106v55h-106z" fill="#c5c7c4" fill-opacity=".8" stroke="#999" stroke-width=".8" transform="translate(0 -.000031)"/><path id="FrontPanel_400X300_PVBX1409" d="m0 0v298h343v-298zm115.5 95h87v108h-87z" fill="#c5c7c4" fill-opacity=".8" stroke="#999" stroke-width=".8" transform="translate(0 -.000031)"/><path id="FrontPanel_400X300_PVBX1423" d="m0 0v298h343v-298zm86 101.5h138.5v55h-138.5z" fill="#c5c7c4" fill-opacity=".8" stroke="#999" stroke-width=".8" transform="translate(0 -.000031)"/><path id="FrontPanel_400X300_PVBX1427" d="m0 0v298h343v-298zm118.5 114h81v88h-81z" fill="#c5c7c4" fill-opacity=".8" stroke="#999" stroke-width=".8" transform="translate(0 -.000031)"/><g id="SlotTR" transform="translate(.8 .799939)"><circle id="circle6651" cx="528.70001" cy="49" fill="#b3b3b3" r="6.25" stroke="#808080"/><path id="path6653" d="m528.775 51.77181a2.4774237 2.7713705 0 0 0 2.28044-1.687787h3.61643v-1.884726h-3.52759a2.4774237 2.7713705 0 0 0 -2.36928-1.971232 2.4774237 2.7713705 0 0 0 -2.37091 1.971232h-3.52596v1.884726h3.61973a2.4774237 2.7713705 0 0 0 2.27714 1.687787z" fill="#999" stroke="#808080" stroke-width=".956257"/></g><g id="SlotTL" transform="translate(.8 .799939)"><circle id="circle4226" cx="14.3" cy="49" fill="#b3b3b3" r="6.25" stroke="#808080"/><path id="path4228" d="m14.3 51.478642a2.4015092 2.7781743 0 0 0 2.21056-1.69193h3.505616v-1.889352h-3.419495a2.4015092 2.7781743 0 0 0 -2.296681-1.976071 2.4015092 2.7781743 0 0 0 -2.298264 1.976071h-3.4179121v1.889352h3.5088091a2.4015092 2.7781743 0 0 0 2.207367 1.69193z" fill="#999" stroke="#808080" stroke-opacity=".882353" stroke-width=".942646"/></g><g id="SlotBL" transform="translate(.8 .799939)"><circle id="circle4232" cx="14.3" cy="249" fill="#b3b3b3" r="6.25" stroke="#808080"/><path id="path4234" d="m14.391629 251.66635a2.4268084 2.7758932 0 0 0 2.233847-1.69055h3.542548v-1.88779h-3.455519a2.4268084 2.7758932 0 0 0 -2.320876-1.97446 2.4268084 2.7758932 0 0 0 -2.322475 1.97446h-3.4539198v1.88779h3.5457728a2.4268084 2.7758932 0 0 0 2.230622 1.69055z" fill="#999" stroke="#808080" stroke-opacity=".882353" stroke-width=".94721"/></g><g id="SlotBR" transform="translate(.8 .799939)"><circle id="circle4616" cx="528.70001" cy="249" fill="#b3b3b3" r="6.25" stroke="#808080"/><path id="path4618" d="m528.65326 251.60409a2.336861 2.7840729 0 0 0 2.15105-1.69552h3.41126v-1.89336h-3.32745a2.336861 2.7840729 0 0 0 -2.23486-1.98028 2.336861 2.7840729 0 0 0 -2.2364 1.98028h-3.3259v1.89336h3.41436a2.336861 2.7840729 0 0 0 2.14794 1.69552z" fill="#999" stroke="#808080" stroke-opacity=".882353" stroke-width=".930858"/></g></svg>