<svg id="svg2" height="90.116226" viewBox="0 0 36.400002 90.116226" width="36.400002" xmlns="http://www.w3.org/2000/svg"><g id="P1"><rect id="rect4135" fill="#e6e6e6" fill-rule="evenodd" height="85" stroke="#000" stroke-width=".8" width="17.5" x=".4" y="2.535684"/><circle id="rect4136" cx="8.9" cy="13.035683" fill="none" r="4" stroke="#000" stroke-linecap="round" stroke-linejoin="round"/><rect id="rect4162" fill="none" height="7.629279" stroke="#000" stroke-width=".680528" width="10.319471" x="4.740264" y="42.751492"/><rect id="rect4164" fill="none" height="45" stroke="#000" width="16.5" x=".9" y="23.035683"/><circle id="circle4166" cx="8.9" cy="79.035683" fill="#e6e6e6" fill-rule="evenodd" r="4" stroke="#000" stroke-linecap="round" stroke-linejoin="round"/><rect id="rect4192" fill="#f00" fill-rule="evenodd" height="5.01751" stroke="#000" stroke-width=".98249" width="15.390673" x="1.713443" y="23.026928"/><rect id="rect4230-4" fill="#666" fill-rule="evenodd" height="3.640086" width="11.715516" x="4.326725" y="50.421463"/><rect id="rect4186" fill="none" height="3.730314" stroke="#000" stroke-width=".1236" width="10.122555" x="4.838723" y="44.702854"/><rect id="rect5791" fill="#666" fill-rule="evenodd" height="1.453112" stroke="#000" stroke-width=".2" width="5.545784" x="4.317841" y="50.412582"/><rect id="rect5793" fill="#808080" fill-rule="evenodd" height="1.751833" width="9.726462" x="5.027854" y="48.483574"/><rect id="rect5812" fill="none" height="1.471967" stroke="#000" stroke-width=".958254" width="9.073261" x="5.36337" y="43.09388"/><rect id="rect5814" fill="#999" fill-rule="evenodd" height="3.614247" stroke="#000" stroke-width=".108737" width="9.633058" x="5.074557" y="44.796436"/><rect id="rect5816" fill="#999" fill-rule="evenodd" height="3.622432" stroke="#000" stroke-width=".100552" width="8.218829" x="5.806817" y="44.792343"/><rect id="rect5818" fill="#f9f9f9" fill-rule="evenodd" height="1.805731" stroke="#000" stroke-width=".156682" width=".499111" x="7.863513" y="45.949615"/><rect id="rect5820" fill-rule="evenodd" height="1.054458" stroke="#000" stroke-width=".054507" width=".103441" x="8.096909" y="44.831722"/><rect id="rect5820-4" fill-rule="evenodd" height=".568796" stroke="#000" stroke-width=".042325" width=".115624" x="8.049947" y="47.859264"/><rect id="rect5818-0" fill="#f9f9f9" fill-rule="evenodd" height="1.765023" stroke="#000" stroke-width=".197391" width=".810432" x="10.180815" y="45.949615"/><rect id="rect5820-5" fill-rule="evenodd" height=".515193" stroke="#000" stroke-width=".040583" width=".117365" x="10.502201" y="47.82333"/><rect id="rect5867" fill-rule="evenodd" height="1.054458" stroke="#000" stroke-width=".054507" width=".103441" x="10.509164" y="44.762604"/><rect id="rect5867-0" fill-rule="evenodd" height="2.891884" stroke="#000" stroke-width=".090381" transform="scale(-1 1)" width=".1037" x="-11.895126" y="45.44688"/><rect id="rect5867-1" fill-rule="evenodd" height="1.437252" stroke="#000" stroke-width=".061461" transform="rotate(-90)" width=".096488" x="-46.947357" y="11.093219"/><rect id="rect5818-0-1" fill-rule="evenodd" height=".517391" stroke="#000" stroke-width=".11234" width=".895483" x="11.395535" y="44.880264"/><rect id="rect6052" fill="#e6e6e6" fill-rule="evenodd" height="2" stroke="#000" stroke-width=".654176" width="9.474748" x="4.315526" y=".327088"/><rect id="rect6052-07" fill="#e6e6e6" fill-rule="evenodd" height="2" stroke="#000" stroke-width=".654176" width="9.474748" x="4.315526" y="87.789139"/><rect id="rect5795-0-7" fill="none" height=".135296" stroke="#000" stroke-width=".092874" transform="matrix(0 1 1 0 0 0)" width="57.419136" x="17.519466" y="8.742844"/><rect id="rect5795-0-7-6" fill="none" height=".12717" stroke="#000" stroke-width=".101" transform="matrix(0 1 1 0 0 0)" width="8.498149" x=".177486" y="8.746907"/><rect id="rect5795-0-7-6-9" fill="none" height=".136113" stroke="#000" stroke-width=".092057" transform="matrix(0 1 1 0 0 0)" width="6.596074" x="83.096741" y="8.738373"/><rect id="rect6052-8" fill="#e6e6e6" fill-rule="evenodd" height="1.599352" stroke="#000" stroke-width=".272496" width="2.055821" x="8.007019" y="12.202316"/><rect id="rect6298" fill="#e6e6e6" fill-rule="evenodd" height=".687867" stroke="#000" stroke-width=".188292" width="2.282267" x="10.16966" y="12.72918"/><rect id="rect6300" fill="#e6e6e6" fill-rule="evenodd" height=".739152" stroke="#000" stroke-width=".137007" width="1.1245" x="10.144017" y="12.703538"/><rect id="rect6308" fill="#e6e6e6" fill-rule="evenodd" height=".674806" stroke="#000" stroke-width=".201352" width="2.660371" x="5.197742" y="12.73571"/><rect id="rect6310" fill="#e6e6e6" fill-rule="evenodd" height=".726707" stroke="#000" stroke-width=".149452" width="1.360978" x="5.171792" y="12.70976"/><rect id="rect6312" fill="#e6e6e6" fill-rule="evenodd" height="1.233974" stroke="#000" stroke-width=".145083" width=".755332" x="8.639612" y="10.897139"/><rect id="rect6314" fill="#e6e6e6" fill-rule="evenodd" height="1.233974" stroke="#000" stroke-width=".145083" width=".755332" x="8.689902" y="13.914534"/><rect id="rect6052-8-0" fill="#e6e6e6" fill-rule="evenodd" height="1.599352" stroke="#000" stroke-width=".272496" width="2.055821" x="7.935896" y="78.433098"/><rect id="rect6298-7" fill="#e6e6e6" fill-rule="evenodd" height=".687867" stroke="#000" stroke-width=".188292" width="2.282267" x="10.098536" y="78.959961"/><rect id="rect6300-2" fill="#e6e6e6" fill-rule="evenodd" height=".739152" stroke="#000" stroke-width=".137007" width="1.1245" x="10.072894" y="78.934319"/><rect id="rect6308-3" fill="#e6e6e6" fill-rule="evenodd" height=".674806" stroke="#000" stroke-width=".201352" width="2.660371" x="5.126619" y="78.966492"/><rect id="rect6310-2" fill="#e6e6e6" fill-rule="evenodd" height=".726707" stroke="#000" stroke-width=".149452" width="1.360978" x="5.100668" y="78.940544"/><rect id="rect6312-8" fill="#e6e6e6" fill-rule="evenodd" height="1.233974" stroke="#000" stroke-width=".145083" width=".755332" x="8.56849" y="77.127922"/><rect id="rect6314-91" fill="#e6e6e6" fill-rule="evenodd" height="1.233974" stroke="#000" stroke-width=".145083" width=".755332" x="8.61878" y="80.145317"/><rect id="rect6457" fill="#008000" fill-rule="evenodd" height="1.661906" stroke="#000" stroke-width=".352183" width="3.304757" x="5.30246" y="57.357128"/><g id="layer1-6" fill="#f9f9f9" transform="matrix(.01948184 0 0 .02711896 2.600257 -1.474507)"><path id="path5180-6" d="m26.76953 952.36223l-13.11718 48.99997h27.09765v-48.99997zm15.98047 0v48.99997h27.09766l-13.11524-48.99997zm56 0v48.99997h29v-48.99997zm31 0v48.99997h30.35742a30 30 0 0 0 -10.38085-6.88864 22.5 22.5 0 0 0 11.52539-19.61133 22.5 22.5 0 0 0 -22.5-22.5 22.5 22.5 0 0 0 -.002 0h-9zm47 0v48.99997h29v-48.99997zm31 0v48.99997h30.35742a30 30 0 0 0 -10.38085-6.88864 22.5 22.5 0 0 0 11.52539-19.61133 22.5 22.5 0 0 0 -22.5-22.5 22.5 22.5 0 0 0 -.002 0h-9zm-194.63281 50.99997l-13.11719 49h25l5.30078-20h10.44922v-29zm29.63281 0v29h10.45117l5.29883 20h25l-13.11523-49zm56 0v49h29v-49zm31 0v49h9a30 30 0 0 0 .002 0 30 30 0 0 0 30-30 30 30 0 0 0 -6.83399-19h-32.16797zm47 0v49h29v-49zm31 0v49h9a30 30 0 0 0 .002 0 30 30 0 0 0 30-30 30 30 0 0 0 -6.83399-19h-32.16797z" fill="#f9f9f9"/></g><rect id="rect6494-0-3" fill-rule="evenodd" height="1.862865" stroke="#000" stroke-width=".187831" width=".838616" x="12.429767" y="87.977837"/><rect id="rect6494-0-5" fill-rule="evenodd" height="1.862865" stroke="#000" stroke-width=".187831" width=".838616" x="4.835989" y="87.977837"/><rect id="rect6494-0-33" fill-rule="evenodd" height="1.862865" stroke="#000" stroke-width=".187831" width=".838616" x="12.429768" y=".347646"/><rect id="rect6494-0-45" fill-rule="evenodd" height="1.862865" stroke="#000" stroke-width=".187831" width=".838616" x="4.810844" y=".448226"/></g><g id="P2"><rect id="rect4200" fill="#e6e6e6" fill-rule="evenodd" height="85" stroke="#000" stroke-width=".8" width="17.5" x="18.4" y="2.535684"/><circle id="circle4202" cx="26.9" cy="13.035683" fill="none" r="4" stroke="#000" stroke-linecap="round" stroke-linejoin="round"/><rect id="rect4206" fill="none" height="45" stroke="#000" width="16.5" x="18.9" y="23.035683"/><circle id="circle4208" cx="26.9" cy="79.035683" fill="#e6e6e6" fill-rule="evenodd" r="4" stroke="#000" stroke-linecap="round" stroke-linejoin="round"/><rect id="rect4210" fill="#f00" fill-rule="evenodd" height="4.96165" stroke="#000" stroke-width="1.03835" width="17.384064" x="18.496761" y="23.054857"/><rect id="rect4162-0" fill="none" height="7.582285" stroke="#000" stroke-width=".678496" width="10.321504" x="22.132912" y="42.751228"/><rect id="rect4230-4-6" fill="#666" fill-rule="evenodd" height="3.640086" width="11.715516" x="21.720388" y="50.373188"/><rect id="rect4186-7" fill="none" height="3.730314" stroke="#000" stroke-width=".1236" width="10.122555" x="22.232388" y="44.654579"/><rect id="rect5791-6" fill="#666" fill-rule="evenodd" height="1.453112" stroke="#000" stroke-width=".2" width="5.545784" x="21.711504" y="50.364307"/><rect id="rect5793-9" fill="#808080" fill-rule="evenodd" height="1.751833" width="9.726462" x="22.421518" y="48.435299"/><rect id="rect5812-8" fill="none" height="1.471967" stroke="#000" stroke-width=".958254" width="9.073261" x="22.757034" y="43.045605"/><rect id="rect5814-1" fill="#999" fill-rule="evenodd" height="3.614247" stroke="#000" stroke-width=".108737" width="9.633058" x="22.468222" y="44.748161"/><rect id="rect5816-3" fill="#999" fill-rule="evenodd" height="3.622432" stroke="#000" stroke-width=".100552" width="8.218829" x="23.200481" y="44.744068"/><rect id="rect5818-8" fill="#f9f9f9" fill-rule="evenodd" height="1.805731" stroke="#000" stroke-width=".156682" width=".499111" x="25.257177" y="45.90134"/><rect id="rect5820-7" fill-rule="evenodd" height="1.054458" stroke="#000" stroke-width=".054507" width=".103441" x="25.490572" y="44.783447"/><rect id="rect5820-4-4" fill-rule="evenodd" height=".568796" stroke="#000" stroke-width=".042325" width=".115624" x="25.443611" y="47.810989"/><rect id="rect5818-0-9" fill="#f9f9f9" fill-rule="evenodd" height="1.765023" stroke="#000" stroke-width=".197391" width=".810432" x="27.574478" y="45.90134"/><rect id="rect5820-5-0" fill-rule="evenodd" height=".515193" stroke="#000" stroke-width=".040583" width=".117365" x="27.895864" y="47.775055"/><rect id="rect5867-8" fill-rule="evenodd" height="1.054458" stroke="#000" stroke-width=".054507" width=".103441" x="27.902828" y="44.714329"/><rect id="rect5867-0-7" fill-rule="evenodd" height="2.891884" stroke="#000" stroke-width=".090381" transform="scale(-1 1)" width=".1037" x="-29.28879" y="45.398605"/><rect id="rect5867-1-2" fill-rule="evenodd" height="1.437252" stroke="#000" stroke-width=".061461" transform="rotate(-90)" width=".096488" x="-46.899082" y="28.486883"/><rect id="rect5818-0-1-0" fill-rule="evenodd" height=".517391" stroke="#000" stroke-width=".11234" width=".895483" x="28.7892" y="44.831989"/><rect id="rect6052-6" fill="#e6e6e6" fill-rule="evenodd" height="2" stroke="#000" stroke-width=".654176" width="9.474748" x="22.206427" y=".367588"/><rect id="rect6052-07-7" fill="#e6e6e6" fill-rule="evenodd" height="2" stroke="#000" stroke-width=".654176" width="9.474748" x="22.206427" y="87.789139"/><rect id="rect5795-0-7-0" fill="none" height=".134913" stroke="#000" stroke-width=".093536" transform="matrix(0 1 1 0 0 0)" width="58.085747" x="17.070711" y="26.899538"/><rect id="rect5795-0-7-6-8" fill="none" height=".127472" stroke="#000" stroke-width=".100698" transform="matrix(0 1 1 0 0 0)" width="8.427331" x=".557733" y="26.899387"/><rect id="rect5795-0-7-6-8-4" fill="none" height=".136905" stroke="#000" stroke-width=".091" transform="matrix(0 1 1 0 0 0)" width="6.445385" x="83.124138" y="26.894821"/><rect id="rect6052-8-7" fill="#e6e6e6" fill-rule="evenodd" height="1.599352" stroke="#000" stroke-width=".272496" width="2.055821" x="26.040268" y="12.150978"/><rect id="rect6298-4" fill="#f9f9f9" fill-rule="evenodd" height=".687867" stroke="#000" stroke-width=".188292" width="2.282267" x="28.202908" y="12.677843"/><rect id="rect6300-8" fill="#f9f9f9" fill-rule="evenodd" height=".739152" stroke="#000" stroke-width=".137007" width="1.1245" x="28.177265" y="12.652201"/><rect id="rect6308-9" fill="#f9f9f9" fill-rule="evenodd" height=".674806" stroke="#000" stroke-width=".201352" width="2.660371" x="23.230991" y="12.684372"/><rect id="rect6310-0" fill="#f9f9f9" fill-rule="evenodd" height=".726707" stroke="#000" stroke-width=".149452" width="1.360978" x="23.20504" y="12.658422"/><rect id="rect6312-9" fill="#f9f9f9" fill-rule="evenodd" height="1.233974" stroke="#000" stroke-width=".145083" width=".755332" x="26.672861" y="10.8458"/><rect id="rect6314-9" fill="#f9f9f9" fill-rule="evenodd" height="1.233974" stroke="#000" stroke-width=".145083" width=".755332" x="26.723152" y="13.863195"/><rect id="rect6052-8-5" fill="#e6e6e6" fill-rule="evenodd" height="1.599352" stroke="#000" stroke-width=".272496" width="2.055821" x="25.93969" y="78.231934"/><rect id="rect6298-9" fill="#e6e6e6" fill-rule="evenodd" height=".687867" stroke="#000" stroke-width=".188292" width="2.282267" x="28.102329" y="78.758804"/><rect id="rect6300-1" fill="#e6e6e6" fill-rule="evenodd" height=".739152" stroke="#000" stroke-width=".137007" width="1.1245" x="28.076687" y="78.733162"/><rect id="rect6308-5" fill="#e6e6e6" fill-rule="evenodd" height=".674806" stroke="#000" stroke-width=".201352" width="2.660371" x="23.130411" y="78.765327"/><rect id="rect6310-9" fill="#e6e6e6" fill-rule="evenodd" height=".726707" stroke="#000" stroke-width=".149452" width="1.360978" x="23.104462" y="78.73938"/><rect id="rect6312-5" fill="#e6e6e6" fill-rule="evenodd" height="1.233974" stroke="#000" stroke-width=".145083" width=".755332" x="26.572283" y="76.926758"/><rect id="rect6314-7" fill="#e6e6e6" fill-rule="evenodd" height="1.233974" stroke="#000" stroke-width=".145083" width=".755332" x="26.622572" y="79.944153"/><rect id="rect6457-0" fill="#008000" fill-rule="evenodd" height="1.661906" stroke="#000" stroke-width=".352183" width="3.304757" x="23.382105" y="57.357128"/><rect id="rect6494-0-0" fill-rule="evenodd" height="1.862865" stroke="#000" stroke-width=".187831" width=".838616" x="30.339865" y="87.950592"/><rect id="rect6494-0-4" fill-rule="evenodd" height="1.862865" stroke="#000" stroke-width=".187831" width=".838616" x="22.69849" y="87.972694"/><rect id="rect6494-0-570" fill-rule="evenodd" height="1.862865" stroke="#000" stroke-width=".187831" width=".838616" x="30.332979" y=".372791"/><rect id="rect6494-0-67" fill-rule="evenodd" height="1.862865" stroke="#000" stroke-width=".187831" width=".838616" x="22.714056" y=".272211"/></g><rect id="P1_handleStrip" fill="#666" fill-rule="evenodd" height="2.987687" ry="0" width="30.880102" x="3.427662" y="51.917706"/><rect id="rect5795" fill="none" height=".145517" stroke="#000" stroke-width=".082932" transform="scale(1 -1)" width="35.093399" x=".441466" y="-38.851974"/><rect id="rect5795-0" fill="none" height=".185308" stroke="#000" stroke-width=".435676" transform="scale(1 -1)" width="35.13319" x=".232779" y="-62.480431"/><rect id="rect4337" fill="none" height=".146378" stroke="#000" stroke-width=".082071" transform="scale(1 -1)" width="34.166382" x="1.25256" y="-42.368382"/></svg>