<svg id="svg2" height="90.116226" viewBox="0 0 72.400002 90.116226" width="72.400002" xmlns="http://www.w3.org/2000/svg"><g id="P1"><rect id="rect4135" fill="#e6e6e6" fill-rule="evenodd" height="85" stroke="#000" stroke-width=".8" width="17.5" x=".4" y="2.535684"/><circle id="rect4136" cx="8.9" cy="13.035683" fill="none" r="4" stroke="#000" stroke-linecap="round" stroke-linejoin="round"/><rect id="rect4162" fill="none" height="7.629279" stroke="#000" stroke-width=".680528" width="10.319471" x="4.740264" y="42.751492"/><rect id="rect4164" fill="none" height="45" stroke="#000" width="16.5" x=".9" y="23.035683"/><circle id="circle4166" cx="8.9" cy="79.035683" fill="#e6e6e6" fill-rule="evenodd" r="4" stroke="#000" stroke-linecap="round" stroke-linejoin="round"/><rect id="rect4192" fill="#f00" fill-rule="evenodd" height="5.01751" stroke="#000" stroke-width=".98249" width="15.390673" x="1.713443" y="23.026928"/><rect id="rect4230-4" fill="#666" fill-rule="evenodd" height="3.640086" width="11.715516" x="4.326725" y="50.421463"/><rect id="rect4186" fill="none" height="3.730314" stroke="#000" stroke-width=".1236" width="10.122555" x="4.838723" y="44.702854"/><rect id="rect5791" fill="#666" fill-rule="evenodd" height="1.453112" stroke="#000" stroke-width=".2" width="5.545784" x="4.317841" y="50.412582"/><rect id="rect5793" fill="#808080" fill-rule="evenodd" height="1.751833" width="9.726462" x="5.027854" y="48.483574"/><rect id="rect5812" fill="none" height="1.471967" stroke="#000" stroke-width=".958254" width="9.073261" x="5.36337" y="43.09388"/><rect id="rect5814" fill="#999" fill-rule="evenodd" height="3.614247" stroke="#000" stroke-width=".108737" width="9.633058" x="5.074557" y="44.796436"/><rect id="rect5816" fill="#999" fill-rule="evenodd" height="3.622432" stroke="#000" stroke-width=".100552" width="8.218829" x="5.806817" y="44.792343"/><rect id="rect5818" fill="#f9f9f9" fill-rule="evenodd" height="1.805731" stroke="#000" stroke-width=".156682" width=".499111" x="7.863513" y="45.949615"/><rect id="rect5820" fill-rule="evenodd" height="1.054458" stroke="#000" stroke-width=".054507" width=".103441" x="8.096909" y="44.831722"/><rect id="rect5820-4" fill-rule="evenodd" height=".568796" stroke="#000" stroke-width=".042325" width=".115624" x="8.049947" y="47.859264"/><rect id="rect5818-0" fill="#f9f9f9" fill-rule="evenodd" height="1.765023" stroke="#000" stroke-width=".197391" width=".810432" x="10.180815" y="45.949615"/><rect id="rect5820-5" fill-rule="evenodd" height=".515193" stroke="#000" stroke-width=".040583" width=".117365" x="10.502201" y="47.82333"/><rect id="rect5867" fill-rule="evenodd" height="1.054458" stroke="#000" stroke-width=".054507" width=".103441" x="10.509164" y="44.762604"/><rect id="rect5867-0" fill-rule="evenodd" height="2.891884" stroke="#000" stroke-width=".090381" transform="scale(-1 1)" width=".1037" x="-11.895126" y="45.44688"/><rect id="rect5867-1" fill-rule="evenodd" height="1.437252" stroke="#000" stroke-width=".061461" transform="rotate(-90)" width=".096488" x="-46.947357" y="11.093219"/><rect id="rect5818-0-1" fill-rule="evenodd" height=".517391" stroke="#000" stroke-width=".11234" width=".895483" x="11.395535" y="44.880264"/><rect id="rect6052" fill="#e6e6e6" fill-rule="evenodd" height="2" stroke="#000" stroke-width=".654176" width="9.474748" x="4.315526" y=".327088"/><rect id="rect6052-07" fill="#e6e6e6" fill-rule="evenodd" height="2" stroke="#000" stroke-width=".654176" width="9.474748" x="4.315526" y="87.789139"/><rect id="rect5795-0-7" fill="none" height=".135296" stroke="#000" stroke-width=".092874" transform="matrix(0 1 1 0 0 0)" width="57.419136" x="17.519466" y="8.742844"/><rect id="rect5795-0-7-6" fill="none" height=".12717" stroke="#000" stroke-width=".101" transform="matrix(0 1 1 0 0 0)" width="8.498149" x=".177486" y="8.746907"/><rect id="rect5795-0-7-6-9" fill="none" height=".136113" stroke="#000" stroke-width=".092057" transform="matrix(0 1 1 0 0 0)" width="6.596074" x="83.096741" y="8.738373"/><rect id="rect6052-8" fill="#e6e6e6" fill-rule="evenodd" height="1.599352" stroke="#000" stroke-width=".272496" width="2.055821" x="8.007019" y="12.202316"/><rect id="rect6298" fill="#e6e6e6" fill-rule="evenodd" height=".687867" stroke="#000" stroke-width=".188292" width="2.282267" x="10.16966" y="12.72918"/><rect id="rect6300" fill="#e6e6e6" fill-rule="evenodd" height=".739152" stroke="#000" stroke-width=".137007" width="1.1245" x="10.144017" y="12.703538"/><rect id="rect6308" fill="#e6e6e6" fill-rule="evenodd" height=".674806" stroke="#000" stroke-width=".201352" width="2.660371" x="5.197742" y="12.73571"/><rect id="rect6310" fill="#e6e6e6" fill-rule="evenodd" height=".726707" stroke="#000" stroke-width=".149452" width="1.360978" x="5.171792" y="12.70976"/><rect id="rect6312" fill="#e6e6e6" fill-rule="evenodd" height="1.233974" stroke="#000" stroke-width=".145083" width=".755332" x="8.639612" y="10.897139"/><rect id="rect6314" fill="#e6e6e6" fill-rule="evenodd" height="1.233974" stroke="#000" stroke-width=".145083" width=".755332" x="8.689902" y="13.914534"/><rect id="rect6052-8-0" fill="#e6e6e6" fill-rule="evenodd" height="1.599352" stroke="#000" stroke-width=".272496" width="2.055821" x="7.935896" y="78.433098"/><rect id="rect6298-7" fill="#e6e6e6" fill-rule="evenodd" height=".687867" stroke="#000" stroke-width=".188292" width="2.282267" x="10.098536" y="78.959961"/><rect id="rect6300-2" fill="#e6e6e6" fill-rule="evenodd" height=".739152" stroke="#000" stroke-width=".137007" width="1.1245" x="10.072894" y="78.934319"/><rect id="rect6308-3" fill="#e6e6e6" fill-rule="evenodd" height=".674806" stroke="#000" stroke-width=".201352" width="2.660371" x="5.126619" y="78.966492"/><rect id="rect6310-2" fill="#e6e6e6" fill-rule="evenodd" height=".726707" stroke="#000" stroke-width=".149452" width="1.360978" x="5.100668" y="78.940544"/><rect id="rect6312-8" fill="#e6e6e6" fill-rule="evenodd" height="1.233974" stroke="#000" stroke-width=".145083" width=".755332" x="8.56849" y="77.127922"/><rect id="rect6314-91" fill="#e6e6e6" fill-rule="evenodd" height="1.233974" stroke="#000" stroke-width=".145083" width=".755332" x="8.61878" y="80.145317"/><rect id="rect6457" fill="#008000" fill-rule="evenodd" height="1.661906" stroke="#000" stroke-width=".352183" width="3.304757" x="5.30246" y="57.357128"/><g id="layer1-6" fill="#f9f9f9" transform="matrix(.01948184 0 0 .02711896 2.600257 -1.474507)"><path id="path5180-6" d="m26.76953 952.36223l-13.11718 48.99997h27.09765v-48.99997zm15.98047 0v48.99997h27.09766l-13.11524-48.99997zm56 0v48.99997h29v-48.99997zm31 0v48.99997h30.35742a30 30 0 0 0 -10.38085-6.88864 22.5 22.5 0 0 0 11.52539-19.61133 22.5 22.5 0 0 0 -22.5-22.5 22.5 22.5 0 0 0 -.002 0h-9zm47 0v48.99997h29v-48.99997zm31 0v48.99997h30.35742a30 30 0 0 0 -10.38085-6.88864 22.5 22.5 0 0 0 11.52539-19.61133 22.5 22.5 0 0 0 -22.5-22.5 22.5 22.5 0 0 0 -.002 0h-9zm-194.63281 50.99997l-13.11719 49h25l5.30078-20h10.44922v-29zm29.63281 0v29h10.45117l5.29883 20h25l-13.11523-49zm56 0v49h29v-49zm31 0v49h9a30 30 0 0 0 .002 0 30 30 0 0 0 30-30 30 30 0 0 0 -6.83399-19h-32.16797zm47 0v49h29v-49zm31 0v49h9a30 30 0 0 0 .002 0 30 30 0 0 0 30-30 30 30 0 0 0 -6.83399-19h-32.16797z" fill="#f9f9f9"/></g><rect id="rect6494-0-3" fill-rule="evenodd" height="1.862865" stroke="#000" stroke-width=".187831" width=".838616" x="12.429767" y="87.977837"/><rect id="rect6494-0-5" fill-rule="evenodd" height="1.862865" stroke="#000" stroke-width=".187831" width=".838616" x="4.835989" y="87.977837"/><rect id="rect6494-0-33" fill-rule="evenodd" height="1.862865" stroke="#000" stroke-width=".187831" width=".838616" x="12.429768" y=".347646"/><rect id="rect6494-0-45" fill-rule="evenodd" height="1.862865" stroke="#000" stroke-width=".187831" width=".838616" x="4.810844" y=".448226"/></g><g id="P2"><rect id="rect4200" fill="#e6e6e6" fill-rule="evenodd" height="85" stroke="#000" stroke-width=".8" width="17.5" x="18.4" y="2.535684"/><circle id="circle4202" cx="26.9" cy="13.035683" fill="none" r="4" stroke="#000" stroke-linecap="round" stroke-linejoin="round"/><rect id="rect4206" fill="none" height="45" stroke="#000" width="16.5" x="18.9" y="23.035683"/><circle id="circle4208" cx="26.9" cy="79.035683" fill="#e6e6e6" fill-rule="evenodd" r="4" stroke="#000" stroke-linecap="round" stroke-linejoin="round"/><rect id="rect4210" fill="#f00" fill-rule="evenodd" height="4.96165" stroke="#000" stroke-width="1.03835" width="17.384064" x="18.496761" y="23.054857"/><rect id="rect4162-0" fill="none" height="7.582285" stroke="#000" stroke-width=".678496" width="10.321504" x="22.132912" y="42.751228"/><rect id="rect4230-4-6" fill="#666" fill-rule="evenodd" height="3.640086" width="11.715516" x="21.720388" y="50.373188"/><rect id="rect4186-7" fill="none" height="3.730314" stroke="#000" stroke-width=".1236" width="10.122555" x="22.232388" y="44.654579"/><rect id="rect5791-6" fill="#666" fill-rule="evenodd" height="1.453112" stroke="#000" stroke-width=".2" width="5.545784" x="21.711504" y="50.364307"/><rect id="rect5793-9" fill="#808080" fill-rule="evenodd" height="1.751833" width="9.726462" x="22.421518" y="48.435299"/><rect id="rect5812-8" fill="none" height="1.471967" stroke="#000" stroke-width=".958254" width="9.073261" x="22.757034" y="43.045605"/><rect id="rect5814-1" fill="#999" fill-rule="evenodd" height="3.614247" stroke="#000" stroke-width=".108737" width="9.633058" x="22.468222" y="44.748161"/><rect id="rect5816-3" fill="#999" fill-rule="evenodd" height="3.622432" stroke="#000" stroke-width=".100552" width="8.218829" x="23.200481" y="44.744068"/><rect id="rect5818-8" fill="#f9f9f9" fill-rule="evenodd" height="1.805731" stroke="#000" stroke-width=".156682" width=".499111" x="25.257177" y="45.90134"/><rect id="rect5820-7" fill-rule="evenodd" height="1.054458" stroke="#000" stroke-width=".054507" width=".103441" x="25.490572" y="44.783447"/><rect id="rect5820-4-4" fill-rule="evenodd" height=".568796" stroke="#000" stroke-width=".042325" width=".115624" x="25.443611" y="47.810989"/><rect id="rect5818-0-9" fill="#f9f9f9" fill-rule="evenodd" height="1.765023" stroke="#000" stroke-width=".197391" width=".810432" x="27.574478" y="45.90134"/><rect id="rect5820-5-0" fill-rule="evenodd" height=".515193" stroke="#000" stroke-width=".040583" width=".117365" x="27.895864" y="47.775055"/><rect id="rect5867-8" fill-rule="evenodd" height="1.054458" stroke="#000" stroke-width=".054507" width=".103441" x="27.902828" y="44.714329"/><rect id="rect5867-0-7" fill-rule="evenodd" height="2.891884" stroke="#000" stroke-width=".090381" transform="scale(-1 1)" width=".1037" x="-29.28879" y="45.398605"/><rect id="rect5867-1-2" fill-rule="evenodd" height="1.437252" stroke="#000" stroke-width=".061461" transform="rotate(-90)" width=".096488" x="-46.899082" y="28.486883"/><rect id="rect5818-0-1-0" fill-rule="evenodd" height=".517391" stroke="#000" stroke-width=".11234" width=".895483" x="28.7892" y="44.831989"/><rect id="rect6052-6" fill="#e6e6e6" fill-rule="evenodd" height="2" stroke="#000" stroke-width=".654176" width="9.474748" x="22.206427" y=".367588"/><rect id="rect6052-07-7" fill="#e6e6e6" fill-rule="evenodd" height="2" stroke="#000" stroke-width=".654176" width="9.474748" x="22.206427" y="87.789139"/><rect id="rect5795-0-7-0" fill="none" height=".134913" stroke="#000" stroke-width=".093536" transform="matrix(0 1 1 0 0 0)" width="58.085747" x="17.070711" y="26.899538"/><rect id="rect5795-0-7-6-8" fill="none" height=".127472" stroke="#000" stroke-width=".100698" transform="matrix(0 1 1 0 0 0)" width="8.427331" x=".557733" y="26.899387"/><rect id="rect5795-0-7-6-8-4" fill="none" height=".136905" stroke="#000" stroke-width=".091" transform="matrix(0 1 1 0 0 0)" width="6.445385" x="83.124138" y="26.894821"/><rect id="rect6052-8-7" fill="#e6e6e6" fill-rule="evenodd" height="1.599352" stroke="#000" stroke-width=".272496" width="2.055821" x="26.040268" y="12.150978"/><rect id="rect6298-4" fill="#f9f9f9" fill-rule="evenodd" height=".687867" stroke="#000" stroke-width=".188292" width="2.282267" x="28.202908" y="12.677843"/><rect id="rect6300-8" fill="#f9f9f9" fill-rule="evenodd" height=".739152" stroke="#000" stroke-width=".137007" width="1.1245" x="28.177265" y="12.652201"/><rect id="rect6308-9" fill="#f9f9f9" fill-rule="evenodd" height=".674806" stroke="#000" stroke-width=".201352" width="2.660371" x="23.230991" y="12.684372"/><rect id="rect6310-0" fill="#f9f9f9" fill-rule="evenodd" height=".726707" stroke="#000" stroke-width=".149452" width="1.360978" x="23.20504" y="12.658422"/><rect id="rect6312-9" fill="#f9f9f9" fill-rule="evenodd" height="1.233974" stroke="#000" stroke-width=".145083" width=".755332" x="26.672861" y="10.8458"/><rect id="rect6314-9" fill="#f9f9f9" fill-rule="evenodd" height="1.233974" stroke="#000" stroke-width=".145083" width=".755332" x="26.723152" y="13.863195"/><rect id="rect6052-8-5" fill="#e6e6e6" fill-rule="evenodd" height="1.599352" stroke="#000" stroke-width=".272496" width="2.055821" x="25.93969" y="78.231934"/><rect id="rect6298-9" fill="#e6e6e6" fill-rule="evenodd" height=".687867" stroke="#000" stroke-width=".188292" width="2.282267" x="28.102329" y="78.758804"/><rect id="rect6300-1" fill="#e6e6e6" fill-rule="evenodd" height=".739152" stroke="#000" stroke-width=".137007" width="1.1245" x="28.076687" y="78.733162"/><rect id="rect6308-5" fill="#e6e6e6" fill-rule="evenodd" height=".674806" stroke="#000" stroke-width=".201352" width="2.660371" x="23.130411" y="78.765327"/><rect id="rect6310-9" fill="#e6e6e6" fill-rule="evenodd" height=".726707" stroke="#000" stroke-width=".149452" width="1.360978" x="23.104462" y="78.73938"/><rect id="rect6312-5" fill="#e6e6e6" fill-rule="evenodd" height="1.233974" stroke="#000" stroke-width=".145083" width=".755332" x="26.572283" y="76.926758"/><rect id="rect6314-7" fill="#e6e6e6" fill-rule="evenodd" height="1.233974" stroke="#000" stroke-width=".145083" width=".755332" x="26.622572" y="79.944153"/><rect id="rect6457-0" fill="#008000" fill-rule="evenodd" height="1.661906" stroke="#000" stroke-width=".352183" width="3.304757" x="23.382105" y="57.357128"/><rect id="rect6494-0-0" fill-rule="evenodd" height="1.862865" stroke="#000" stroke-width=".187831" width=".838616" x="30.339865" y="87.950592"/><rect id="rect6494-0-4" fill-rule="evenodd" height="1.862865" stroke="#000" stroke-width=".187831" width=".838616" x="22.69849" y="87.972694"/><rect id="rect6494-0-570" fill-rule="evenodd" height="1.862865" stroke="#000" stroke-width=".187831" width=".838616" x="30.332979" y=".372791"/><rect id="rect6494-0-67" fill-rule="evenodd" height="1.862865" stroke="#000" stroke-width=".187831" width=".838616" x="22.714056" y=".272211"/></g><g id="P3"><rect id="rect4218" fill="#e6e6e6" fill-rule="evenodd" height="85" stroke="#000" stroke-width=".8" width="17.5" x="36.400002" y="2.535684"/><circle id="circle4220" cx="44.900002" cy="13.035683" fill="#e6e6e6" fill-rule="evenodd" r="4" stroke="#000" stroke-linecap="round" stroke-linejoin="round"/><rect id="rect4224" fill="none" height="45" stroke="#000" width="16.5" x="36.900002" y="23.035683"/><circle id="circle4226" cx="44.900002" cy="79.035683" fill="#e6e6e6" fill-rule="evenodd" r="4" stroke="#000" stroke-linecap="round" stroke-linejoin="round"/><rect id="rect4228" fill="#f00" fill-rule="evenodd" height="4.984438" stroke="#000" stroke-width="1.015563" width="16.553402" x="37.338818" y="23.043465"/><rect id="rect4162-4" fill="none" height="7.50999" stroke="#000" stroke-width=".675356" width="10.324643" x="39.698154" y="42.753971"/><rect id="rect4230-4-0" fill="#666" fill-rule="evenodd" height="3.640085" width="11.999999" x="39.287201" y="50.302067"/><rect id="rect4186-0" fill="none" height="3.730314" stroke="#000" stroke-width=".1236" width="10.122555" x="39.799198" y="44.583458"/><rect id="rect5791-7" fill="#666" fill-rule="evenodd" height="1.453112" stroke="#000" stroke-width=".2" width="5.545784" x="39.278316" y="50.293186"/><rect id="rect5793-6" fill="#808080" fill-rule="evenodd" height="1.751833" width="9.726462" x="39.988331" y="48.364178"/><rect id="rect5812-4" fill="none" height="1.471967" stroke="#000" stroke-width=".958254" width="9.073261" x="40.323845" y="42.974483"/><rect id="rect5814-9" fill="#999" fill-rule="evenodd" height="3.614247" stroke="#000" stroke-width=".108737" width="9.633058" x="40.03503" y="44.67704"/><rect id="rect5816-0" fill="#999" fill-rule="evenodd" height="3.622432" stroke="#000" stroke-width=".100552" width="8.218829" x="40.767292" y="44.672947"/><rect id="rect5818-2" fill="#f9f9f9" fill-rule="evenodd" height="1.805731" stroke="#000" stroke-width=".156682" width=".499111" x="42.823986" y="45.830219"/><rect id="rect5820-2" fill-rule="evenodd" height="1.054458" stroke="#000" stroke-width=".054507" width=".103441" x="43.057384" y="44.712326"/><rect id="rect5820-4-2" fill-rule="evenodd" height=".568796" stroke="#000" stroke-width=".042325" width=".115624" x="43.010422" y="47.739868"/><rect id="rect5818-0-4" fill="#f9f9f9" fill-rule="evenodd" height="1.765023" stroke="#000" stroke-width=".197391" width=".810432" x="45.141289" y="45.830219"/><rect id="rect5820-5-9" fill-rule="evenodd" height=".515193" stroke="#000" stroke-width=".040583" width=".117365" x="45.462677" y="47.703934"/><rect id="rect5867-4" fill-rule="evenodd" height="1.054458" stroke="#000" stroke-width=".054507" width=".103441" x="45.469639" y="44.643208"/><rect id="rect5867-0-2" fill-rule="evenodd" height="2.891884" stroke="#000" stroke-width=".090381" transform="scale(-1 1)" width=".1037" x="-46.855602" y="45.327484"/><rect id="rect5867-1-4" fill-rule="evenodd" height="1.437252" stroke="#000" stroke-width=".061461" transform="rotate(-90)" width=".096488" x="-46.827961" y="46.053692"/><rect id="rect5818-0-1-6" fill-rule="evenodd" height=".517391" stroke="#000" stroke-width=".11234" width=".895483" x="46.35601" y="44.760868"/><rect id="rect6052-3" fill="#e6e6e6" fill-rule="evenodd" height="2" stroke="#000" stroke-width=".654176" width="9.474748" x="40.420078" y=".367588"/><rect id="rect6052-07-3" fill="#e6e6e6" fill-rule="evenodd" height="2" stroke="#000" stroke-width=".654176" width="9.474748" x="40.420078" y="87.789139"/><rect id="rect5795-0-7-0-5" fill="none" height=".135034" stroke="#000" stroke-width=".093415" transform="matrix(0 1 1 0 0 0)" width="57.883671" x="16.999441" y="44.993053"/><rect id="rect5795-0-7-6-5" fill="none" height=".126423" stroke="#000" stroke-width=".101747" transform="matrix(0 1 1 0 0 0)" width="8.675204" x=".309335" y="44.993427"/><rect id="rect5795-0-7-6-8-47" fill="none" height=".134441" stroke="#000" stroke-width=".103544" transform="matrix(0 1 1 0 0 0)" width="6.724442" x="82.955643" y="44.989567"/><rect id="rect6052-8-76" fill="#e6e6e6" fill-rule="evenodd" height="1.599352" stroke="#000" stroke-width=".272496" width="2.055821" x="44.04406" y="12.050397"/><rect id="rect6298-5" fill="#e6e6e6" fill-rule="evenodd" height=".687867" stroke="#000" stroke-width=".188292" width="2.282267" x="46.206699" y="12.577262"/><rect id="rect6300-6" fill="#e6e6e6" fill-rule="evenodd" height=".739152" stroke="#000" stroke-width=".137007" width="1.1245" x="46.181057" y="12.55162"/><rect id="rect6308-91" fill="#e6e6e6" fill-rule="evenodd" height=".674806" stroke="#000" stroke-width=".201352" width="2.660371" x="41.234783" y="12.583791"/><rect id="rect6310-7" fill="#e6e6e6" fill-rule="evenodd" height=".726707" stroke="#000" stroke-width=".149452" width="1.360978" x="41.208832" y="12.557841"/><rect id="rect6312-4" fill="#e6e6e6" fill-rule="evenodd" height="1.233974" stroke="#000" stroke-width=".145083" width=".755332" x="44.676655" y="10.74522"/><rect id="rect6314-4" fill="#e6e6e6" fill-rule="evenodd" height="1.233974" stroke="#000" stroke-width=".145083" width=".755332" x="44.726944" y="13.762614"/><rect id="rect6052-8-59" fill="#e6e6e6" fill-rule="evenodd" height="1.599352" stroke="#000" stroke-width=".272496" width="2.055821" x="44.04406" y="78.131355"/><rect id="rect6298-74" fill="#e6e6e6" fill-rule="evenodd" height=".687867" stroke="#000" stroke-width=".188292" width="2.282267" x="46.206699" y="78.658218"/><rect id="rect6300-64" fill="#e6e6e6" fill-rule="evenodd" height=".739152" stroke="#000" stroke-width=".137007" width="1.1245" x="46.181057" y="78.632576"/><rect id="rect6308-910" fill="#e6e6e6" fill-rule="evenodd" height=".674806" stroke="#000" stroke-width=".201352" width="2.660371" x="41.234783" y="78.664749"/><rect id="rect6310-03" fill="#e6e6e6" fill-rule="evenodd" height=".726707" stroke="#000" stroke-width=".149452" width="1.360978" x="41.208832" y="78.638802"/><rect id="rect6312-0" fill="#e6e6e6" fill-rule="evenodd" height="1.233974" stroke="#000" stroke-width=".145083" width=".755332" x="44.676651" y="76.82618"/><rect id="rect6314-6" fill="#e6e6e6" fill-rule="evenodd" height="1.233974" stroke="#000" stroke-width=".145083" width=".755332" x="44.726944" y="79.843575"/><rect id="rect6457-6" fill="#008000" fill-rule="evenodd" height="1.659032" stroke="#000" stroke-width=".355058" width="3.364745" x="41.448196" y="57.358566"/><rect id="rect6494-0-7" fill-rule="evenodd" height="1.862865" stroke="#000" stroke-width=".187831" width=".838616" x="48.536877" y="87.812675"/><rect id="rect6494-0-2" fill-rule="evenodd" height="1.862865" stroke="#000" stroke-width=".187831" width=".838616" x="40.900547" y="87.883797"/><rect id="rect6494-0-1" fill-rule="evenodd" height="1.862865" stroke="#000" stroke-width=".187831" width=".838616" x="48.512787" y=".397936"/><rect id="rect6494-0-49" fill-rule="evenodd" height="1.862865" stroke="#000" stroke-width=".187831" width=".838616" x="40.944153" y=".423081"/></g><g id="P4"><rect id="rect4236" fill="#e6e6e6" fill-rule="evenodd" height="85" stroke="#000" stroke-width=".8" width="17.5" x="54.400002" y="2.535684"/><circle id="circle4238" cx="62.900002" cy="13.035683" fill="none" r="4" stroke="#000" stroke-linecap="round" stroke-linejoin="round"/><rect id="rect4242" fill="none" height="45" stroke="#000" width="16.5" x="54.900002" y="23.035683"/><circle id="circle4244" cx="62.900002" cy="79.035683" fill="#e6e6e6" fill-rule="evenodd" r="4" stroke="#000" stroke-linecap="round" stroke-linejoin="round"/><rect id="rect4246" fill="#f00" fill-rule="evenodd" height="4.984438" stroke="#000" stroke-width="1.015563" width="16.553402" x="55.338818" y="23.043465"/><rect id="rect4162-6" fill="none" height="7.582285" stroke="#000" stroke-width=".678496" width="10.321504" x="57.408775" y="42.751225"/><rect id="rect4230-4-8" fill="#666" fill-rule="evenodd" height="3.640085" width="11.999999" x="56.99625" y="50.373184"/><rect id="rect4186-1" fill="none" height="3.730314" stroke="#000" stroke-width=".1236" width="10.122555" x="57.508247" y="44.654575"/><rect id="rect5791-2" fill="#666" fill-rule="evenodd" height="1.453112" stroke="#000" stroke-width=".2" width="5.545784" x="56.987366" y="50.364304"/><rect id="rect5793-68" fill="#808080" fill-rule="evenodd" height="1.751833" width="9.726462" x="57.69738" y="48.435295"/><rect id="rect5812-7" fill="none" height="1.471967" stroke="#000" stroke-width=".958254" width="9.073261" x="58.032898" y="43.045601"/><rect id="rect5814-0" fill="#999" fill-rule="evenodd" height="3.614247" stroke="#000" stroke-width=".108737" width="9.633058" x="57.744083" y="44.748158"/><rect id="rect5816-00" fill="#999" fill-rule="evenodd" height="3.622432" stroke="#000" stroke-width=".100552" width="8.218829" x="58.476341" y="44.744064"/><rect id="rect5818-4" fill="#f9f9f9" fill-rule="evenodd" height="1.805731" stroke="#000" stroke-width=".156682" width=".499111" x="60.533039" y="45.901337"/><rect id="rect5820-3" fill-rule="evenodd" height="1.054458" stroke="#000" stroke-width=".054507" width=".103441" x="60.766434" y="44.783443"/><rect id="rect5820-4-1" fill-rule="evenodd" height=".568796" stroke="#000" stroke-width=".042325" width=".115624" x="60.719471" y="47.810986"/><rect id="rect5818-0-44" fill="#f9f9f9" fill-rule="evenodd" height="1.765023" stroke="#000" stroke-width=".197391" width=".810432" x="62.850342" y="45.901337"/><rect id="rect5820-5-1" fill-rule="evenodd" height=".515193" stroke="#000" stroke-width=".040583" width=".117365" x="63.171726" y="47.775051"/><rect id="rect5867-80" fill-rule="evenodd" height="1.054458" stroke="#000" stroke-width=".054507" width=".103441" x="63.178688" y="44.714325"/><rect id="rect5867-0-6" fill-rule="evenodd" height="2.891884" stroke="#000" stroke-width=".090381" transform="scale(-1 1)" width=".1037" x="-64.564651" y="45.398602"/><rect id="rect5867-1-5" fill-rule="evenodd" height="1.437252" stroke="#000" stroke-width=".061461" transform="rotate(-90)" width=".096488" x="-46.899078" y="63.762745"/><rect id="rect5818-0-1-02" fill-rule="evenodd" height=".517391" stroke="#000" stroke-width=".11234" width=".895483" x="64.065063" y="44.831985"/><rect id="rect6052-0" fill="#e6e6e6" fill-rule="evenodd" height="2" stroke="#000" stroke-width=".654176" width="9.474748" x="58.420971" y=".367588"/><rect id="rect6052-07-32" fill="#e6e6e6" fill-rule="evenodd" height="2" stroke="#000" stroke-width=".654176" width="9.474748" x="58.420971" y="87.789131"/><rect id="rect5795-0-7-0-1" fill="none" height=".135072" stroke="#000" stroke-width=".093377" transform="matrix(0 1 1 0 0 0)" width="57.820469" x="17.034985" y="62.99295"/><rect id="rect5795-0-7-6-5-3" fill="none" height=".127624" stroke="#000" stroke-width=".100546" transform="matrix(0 1 1 0 0 0)" width="8.391923" x=".610998" y="62.99585"/><rect id="rect5795-0-7-6-8-2" fill="none" height=".135144" stroke="#000" stroke-width=".091" transform="matrix(0 1 1 0 0 0)" width="6.783884" x="82.876091" y="62.989117"/><rect id="rect6052-8-3" fill="#e6e6e6" fill-rule="evenodd" height="1.599352" stroke="#000" stroke-width=".272496" width="2.055821" x="62.047852" y="11.849238"/><rect id="rect6298-8" fill="#e6e6e6" fill-rule="evenodd" height=".687867" stroke="#000" stroke-width=".188292" width="2.282267" x="64.210495" y="12.376103"/><rect id="rect6300-62" fill="#e6e6e6" fill-rule="evenodd" height=".739152" stroke="#000" stroke-width=".137007" width="1.1245" x="64.184853" y="12.350461"/><rect id="rect6308-1" fill="#e6e6e6" fill-rule="evenodd" height=".674806" stroke="#000" stroke-width=".201352" width="2.660371" x="59.238575" y="12.382632"/><rect id="rect6310-73" fill="#e6e6e6" fill-rule="evenodd" height=".726707" stroke="#000" stroke-width=".149452" width="1.360978" x="59.212624" y="12.356683"/><rect id="rect6312-91" fill="#e6e6e6" fill-rule="evenodd" height="1.233974" stroke="#000" stroke-width=".145083" width=".755332" x="62.680443" y="10.544061"/><rect id="rect6314-0" fill="#e6e6e6" fill-rule="evenodd" height="1.233974" stroke="#000" stroke-width=".145083" width=".755332" x="62.730736" y="13.561456"/><rect id="rect6052-8-2" fill="#e6e6e6" fill-rule="evenodd" height="1.599352" stroke="#000" stroke-width=".272496" width="2.055821" x="62.047855" y="78.332512"/><rect id="rect6298-79" fill="#e6e6e6" fill-rule="evenodd" height=".687867" stroke="#000" stroke-width=".188292" width="2.282267" x="64.210487" y="78.859375"/><rect id="rect6300-67" fill="#e6e6e6" fill-rule="evenodd" height=".739152" stroke="#000" stroke-width=".137007" width="1.1245" x="64.184845" y="78.833733"/><rect id="rect6308-8" fill="#e6e6e6" fill-rule="evenodd" height=".674806" stroke="#000" stroke-width=".201352" width="2.660371" x="59.238575" y="78.865906"/><rect id="rect6310-20" fill="#e6e6e6" fill-rule="evenodd" height=".726707" stroke="#000" stroke-width=".149452" width="1.360978" x="59.212627" y="78.839958"/><rect id="rect6312-1" fill="#e6e6e6" fill-rule="evenodd" height="1.233974" stroke="#000" stroke-width=".145083" width=".755332" x="62.680447" y="77.027336"/><rect id="rect6314-44" fill="#e6e6e6" fill-rule="evenodd" height="1.233974" stroke="#000" stroke-width=".145083" width=".755332" x="62.73074" y="80.044731"/><rect id="rect6457-00" fill="#008000" fill-rule="evenodd" height="1.659604" stroke="#000" stroke-width=".354485" width="3.352745" x="59.441448" y="57.35828"/><rect id="rect6494" fill-rule="evenodd" height="1.862865" stroke="#000" stroke-width=".187831" width=".838616" x="66.535934" y="88.058861"/><rect id="rect6494-0" fill-rule="evenodd" height="1.862865" stroke="#000" stroke-width=".187831" width=".838616" x="58.910229" y="87.902405"/><rect id="rect6494-0-6" fill-rule="evenodd" height="1.862865" stroke="#000" stroke-width=".187831" width=".838616" x="66.505997" y=".354312"/><rect id="rect6494-0-57" fill-rule="evenodd" height="1.862865" stroke="#000" stroke-width=".187831" width=".838616" x="58.947945" y=".473371"/></g><rect id="P1_handleStrip" fill="#666" fill-rule="evenodd" height="2.987687" ry="0" width="66.887688" x="3.427662" y="51.917706"/><rect id="rect5795" fill="none" height=".120984" stroke="#000" stroke-width=".107464" transform="scale(1 -1)" width="70.87529" x=".453732" y="-38.839706"/><rect id="rect5795-0" fill="none" height=".120984" stroke="#000" stroke-width=".5" transform="scale(1 -1)" width="70.87529" x=".264941" y="-62.448269"/><rect id="rect4337" fill="none" height=".121581" stroke="#000" stroke-width=".106868" transform="scale(1 -1)" width="69.746849" x="1.264959" y="-42.355984"/></svg>