<svg id="svg2" height="90.116226" viewBox="0 0 18.299999 90.116226" width="18.299999" xmlns="http://www.w3.org/2000/svg"><g id="P1"><rect id="rect4135" fill="#e6e6e6" fill-rule="evenodd" height="85" stroke="#000" stroke-width=".8" width="17.5" x=".4" y="2.535684"/><circle id="rect4136" cx="8.9" cy="13.035683" fill="none" r="4" stroke="#000" stroke-linecap="round" stroke-linejoin="round"/><rect id="rect4162" fill="none" height="7.629279" stroke="#000" stroke-width=".680528" width="10.319471" x="4.740264" y="42.751492"/><rect id="rect4164" fill="none" height="45" stroke="#000" width="16.5" x=".9" y="23.035683"/><circle id="circle4166" cx="8.9" cy="79.035683" fill="#e6e6e6" fill-rule="evenodd" r="4" stroke="#000" stroke-linecap="round" stroke-linejoin="round"/><rect id="rect4192" fill="#f00" fill-rule="evenodd" height="5.01751" stroke="#000" stroke-width=".98249" width="15.390673" x="1.713443" y="23.026928"/><rect id="rect4230-4" fill="#666" fill-rule="evenodd" height="3.640086" width="11.715516" x="4.326725" y="50.421463"/><rect id="rect4186" fill="none" height="3.730314" stroke="#000" stroke-width=".1236" width="10.122555" x="4.838723" y="44.702854"/><rect id="rect5791" fill="#666" fill-rule="evenodd" height="1.453112" stroke="#000" stroke-width=".2" width="5.545784" x="4.317841" y="50.412582"/><rect id="rect5793" fill="#808080" fill-rule="evenodd" height="1.751833" width="9.726462" x="5.027854" y="48.483574"/><rect id="rect5812" fill="none" height="1.471967" stroke="#000" stroke-width=".958254" width="9.073261" x="5.36337" y="43.09388"/><rect id="rect5814" fill="#999" fill-rule="evenodd" height="3.614247" stroke="#000" stroke-width=".108737" width="9.633058" x="5.074557" y="44.796436"/><rect id="rect5816" fill="#999" fill-rule="evenodd" height="3.622432" stroke="#000" stroke-width=".100552" width="8.218829" x="5.806817" y="44.792343"/><rect id="rect5818" fill="#f9f9f9" fill-rule="evenodd" height="1.805731" stroke="#000" stroke-width=".156682" width=".499111" x="7.863513" y="45.949615"/><rect id="rect5820" fill-rule="evenodd" height="1.054458" stroke="#000" stroke-width=".054507" width=".103441" x="8.096909" y="44.831722"/><rect id="rect5820-4" fill-rule="evenodd" height=".568796" stroke="#000" stroke-width=".042325" width=".115624" x="8.049947" y="47.859264"/><rect id="rect5818-0" fill="#f9f9f9" fill-rule="evenodd" height="1.765023" stroke="#000" stroke-width=".197391" width=".810432" x="10.180815" y="45.949615"/><rect id="rect5820-5" fill-rule="evenodd" height=".515193" stroke="#000" stroke-width=".040583" width=".117365" x="10.502201" y="47.82333"/><rect id="rect5867" fill-rule="evenodd" height="1.054458" stroke="#000" stroke-width=".054507" width=".103441" x="10.509164" y="44.762604"/><rect id="rect5867-0" fill-rule="evenodd" height="2.891884" stroke="#000" stroke-width=".090381" transform="scale(-1 1)" width=".1037" x="-11.895126" y="45.44688"/><rect id="rect5867-1" fill-rule="evenodd" height="1.437252" stroke="#000" stroke-width=".061461" transform="rotate(-90)" width=".096488" x="-46.947357" y="11.093219"/><rect id="rect5818-0-1" fill-rule="evenodd" height=".517391" stroke="#000" stroke-width=".11234" width=".895483" x="11.395535" y="44.880264"/><rect id="rect6052" fill="#e6e6e6" fill-rule="evenodd" height="2" stroke="#000" stroke-width=".654176" width="9.474748" x="4.315526" y=".327088"/><rect id="rect6052-07" fill="#e6e6e6" fill-rule="evenodd" height="2" stroke="#000" stroke-width=".654176" width="9.474748" x="4.315526" y="87.789139"/><rect id="rect5795-0-7" fill="none" height=".135296" stroke="#000" stroke-width=".092874" transform="matrix(0 1 1 0 0 0)" width="57.419136" x="17.519466" y="8.742844"/><rect id="rect5795-0-7-6" fill="none" height=".12717" stroke="#000" stroke-width=".101" transform="matrix(0 1 1 0 0 0)" width="8.498149" x=".177486" y="8.746907"/><rect id="rect5795-0-7-6-9" fill="none" height=".136113" stroke="#000" stroke-width=".092057" transform="matrix(0 1 1 0 0 0)" width="6.596074" x="83.096741" y="8.738373"/><rect id="rect6052-8" fill="#e6e6e6" fill-rule="evenodd" height="1.599352" stroke="#000" stroke-width=".272496" width="2.055821" x="8.007019" y="12.202316"/><rect id="rect6298" fill="#e6e6e6" fill-rule="evenodd" height=".687867" stroke="#000" stroke-width=".188292" width="2.282267" x="10.16966" y="12.72918"/><rect id="rect6300" fill="#e6e6e6" fill-rule="evenodd" height=".739152" stroke="#000" stroke-width=".137007" width="1.1245" x="10.144017" y="12.703538"/><rect id="rect6308" fill="#e6e6e6" fill-rule="evenodd" height=".674806" stroke="#000" stroke-width=".201352" width="2.660371" x="5.197742" y="12.73571"/><rect id="rect6310" fill="#e6e6e6" fill-rule="evenodd" height=".726707" stroke="#000" stroke-width=".149452" width="1.360978" x="5.171792" y="12.70976"/><rect id="rect6312" fill="#e6e6e6" fill-rule="evenodd" height="1.233974" stroke="#000" stroke-width=".145083" width=".755332" x="8.639612" y="10.897139"/><rect id="rect6314" fill="#e6e6e6" fill-rule="evenodd" height="1.233974" stroke="#000" stroke-width=".145083" width=".755332" x="8.689902" y="13.914534"/><rect id="rect6052-8-0" fill="#e6e6e6" fill-rule="evenodd" height="1.599352" stroke="#000" stroke-width=".272496" width="2.055821" x="7.935896" y="78.433098"/><rect id="rect6298-7" fill="#e6e6e6" fill-rule="evenodd" height=".687867" stroke="#000" stroke-width=".188292" width="2.282267" x="10.098536" y="78.959961"/><rect id="rect6300-2" fill="#e6e6e6" fill-rule="evenodd" height=".739152" stroke="#000" stroke-width=".137007" width="1.1245" x="10.072894" y="78.934319"/><rect id="rect6308-3" fill="#e6e6e6" fill-rule="evenodd" height=".674806" stroke="#000" stroke-width=".201352" width="2.660371" x="5.126619" y="78.966492"/><rect id="rect6310-2" fill="#e6e6e6" fill-rule="evenodd" height=".726707" stroke="#000" stroke-width=".149452" width="1.360978" x="5.100668" y="78.940544"/><rect id="rect6312-8" fill="#e6e6e6" fill-rule="evenodd" height="1.233974" stroke="#000" stroke-width=".145083" width=".755332" x="8.56849" y="77.127922"/><rect id="rect6314-91" fill="#e6e6e6" fill-rule="evenodd" height="1.233974" stroke="#000" stroke-width=".145083" width=".755332" x="8.61878" y="80.145317"/><rect id="rect6457" fill="#008000" fill-rule="evenodd" height="1.661906" stroke="#000" stroke-width=".352183" width="3.304757" x="5.30246" y="57.357128"/><g id="layer1-6" fill="#f9f9f9" transform="matrix(.01948184 0 0 .02711896 2.600257 -1.474507)"><path id="path5180-6" d="m26.76953 952.36223l-13.11718 48.99997h27.09765v-48.99997zm15.98047 0v48.99997h27.09766l-13.11524-48.99997zm56 0v48.99997h29v-48.99997zm31 0v48.99997h30.35742a30 30 0 0 0 -10.38085-6.88864 22.5 22.5 0 0 0 11.52539-19.61133 22.5 22.5 0 0 0 -22.5-22.5 22.5 22.5 0 0 0 -.002 0h-9zm47 0v48.99997h29v-48.99997zm31 0v48.99997h30.35742a30 30 0 0 0 -10.38085-6.88864 22.5 22.5 0 0 0 11.52539-19.61133 22.5 22.5 0 0 0 -22.5-22.5 22.5 22.5 0 0 0 -.002 0h-9zm-194.63281 50.99997l-13.11719 49h25l5.30078-20h10.44922v-29zm29.63281 0v29h10.45117l5.29883 20h25l-13.11523-49zm56 0v49h29v-49zm31 0v49h9a30 30 0 0 0 .002 0 30 30 0 0 0 30-30 30 30 0 0 0 -6.83399-19h-32.16797zm47 0v49h29v-49zm31 0v49h9a30 30 0 0 0 .002 0 30 30 0 0 0 30-30 30 30 0 0 0 -6.83399-19h-32.16797z" fill="#f9f9f9"/></g><rect id="rect6494-0-3" fill-rule="evenodd" height="1.862865" stroke="#000" stroke-width=".187831" width=".838616" x="12.429767" y="87.977837"/><rect id="rect6494-0-5" fill-rule="evenodd" height="1.862865" stroke="#000" stroke-width=".187831" width=".838616" x="4.835989" y="87.977837"/><rect id="rect6494-0-33" fill-rule="evenodd" height="1.862865" stroke="#000" stroke-width=".187831" width=".838616" x="12.429768" y=".347646"/><rect id="rect6494-0-45" fill-rule="evenodd" height="1.862865" stroke="#000" stroke-width=".187831" width=".838616" x="4.810844" y=".448226"/></g><rect id="P1_handleStrip" fill="#666" fill-rule="evenodd" height="2.987687" ry="0" width="13.178051" x="3.427662" y="51.917706"/><rect id="rect5795" fill="none" height=".167279" stroke="#000" stroke-width=".06117" transform="scale(1 -1)" width="16.608469" x=".430585" y="-38.862854"/><rect id="rect5795-0" fill="none" height=".256865" stroke="#000" stroke-width=".36412" transform="scale(1 -1)" width="17.703852" x=".197001" y="-62.516209"/><rect id="rect4337" fill="none" height=".168586" stroke="#000" stroke-width=".059862" transform="scale(1 -1)" width="15.782478" x="1.241456" y="-42.379486"/></svg>