<svg id="svg2" height="981.79987" viewBox="0 0 1081.8 981.79979" width="1081.7999" xmlns="http://www.w3.org/2000/svg"><path id="Top_bottom_Panel_1000X900_PTBO1491" d="m0 0v981h1081v-981zm540.5 11a6.4999992 6.4999992 0 0 1 6.5 6.5 6.4999992 6.4999992 0 0 1 -6.5 6.5 6.4999992 6.4999992 0 0 1 -6.5-6.5 6.4999992 6.4999992 0 0 1 6.5-6.5zm-488 37.5a3.999999 3.999999 0 0 1 4 4 3.999999 3.999999 0 0 1 -4 4 3.999999 3.999999 0 0 1 -4-4 3.999999 3.999999 0 0 1 4-4zm976 0a3.9999865 3.9999865 0 0 1 4 4 3.9999865 3.9999865 0 0 1 -4 4 3.9999865 3.9999865 0 0 1 -4-4 3.9999865 3.9999865 0 0 1 4-4zm-63 41.5a2.9999915 2.9999915 0 0 1 3 3 2.9999915 2.9999915 0 0 1 -3 3 2.9999915 2.9999915 0 0 1 -3-3 2.9999915 2.9999915 0 0 1 3-3zm-815 2.5a2.9999952 2.9999952 0 0 1 3 3 2.9999952 2.9999952 0 0 1 -3 3 2.9999952 2.9999952 0 0 1 -3-3 2.9999952 2.9999952 0 0 1 3-3zm290 0a2.9999948 2.9999948 0 0 1 3 3 2.9999948 2.9999948 0 0 1 -3 3 2.9999948 2.9999948 0 0 1 -3-3 2.9999948 2.9999948 0 0 1 3-3zm290 0a2.9999944 2.9999944 0 0 1 3 3 2.9999944 2.9999944 0 0 1 -3 3 2.9999944 2.9999944 0 0 1 -3-3 2.9999944 2.9999944 0 0 1 3-3zm202.5 8h64c6.648 0 12 5.352 12 12v756c0 6.648-5.352 12-12 12h-64c-6.648 0-12-5.352-12-12v-756c0-6.648 5.352-12 12-12zm-822.5 10h660v760h-660zm-15 37a2.9999961 2.9999961 0 0 1 3 3 2.9999961 2.9999961 0 0 1 -3 3 2.9999961 2.9999961 0 0 1 -3-3 2.9999961 2.9999961 0 0 1 3-3zm690 0a2.9999947 2.9999947 0 0 1 3 3 2.9999947 2.9999947 0 0 1 -3 3 2.9999947 2.9999947 0 0 1 -3-3 2.9999947 2.9999947 0 0 1 3-3zm128 0a2.9999943 2.9999943 0 0 1 3 3 2.9999943 2.9999943 0 0 1 -3 3 2.9999943 2.9999943 0 0 1 -3-3 2.9999943 2.9999943 0 0 1 3-3zm104 0a2.9999923 2.9999923 0 0 1 3 3 2.9999923 2.9999923 0 0 1 -3 3 2.9999923 2.9999923 0 0 1 -3-3 2.9999923 2.9999923 0 0 1 3-3zm-1000 336.5a6.4999986 6.4999986 0 0 1 6.5 6.5 6.4999986 6.4999986 0 0 1 -6.5 6.5 6.4999986 6.4999986 0 0 1 -6.5-6.5 6.4999986 6.4999986 0 0 1 6.5-6.5zm1046 0a6.4999794 6.4999794 0 0 1 6.5 6.5 6.4999794 6.4999794 0 0 1 -6.5 6.5 6.4999794 6.4999794 0 0 1 -6.5-6.5 6.4999794 6.4999794 0 0 1 6.5-6.5zm-968 3.5a2.9999965 2.9999965 0 0 1 3 3 2.9999965 2.9999965 0 0 1 -3 3 2.9999965 2.9999965 0 0 1 -3-3 2.9999965 2.9999965 0 0 1 3-3zm690 0a2.9999951 2.9999951 0 0 1 3 3 2.9999951 2.9999951 0 0 1 -3 3 2.9999951 2.9999951 0 0 1 -3-3 2.9999951 2.9999951 0 0 1 3-3zm128 0a2.9999939 2.9999939 0 0 1 3 3 2.9999939 2.9999939 0 0 1 -3 3 2.9999939 2.9999939 0 0 1 -3-3 2.9999939 2.9999939 0 0 1 3-3zm104 0a2.9999932 2.9999932 0 0 1 3 3 2.9999932 2.9999932 0 0 1 -3 3 2.9999932 2.9999932 0 0 1 -3-3 2.9999932 2.9999932 0 0 1 3-3zm-922 340a2.9999969 2.9999969 0 0 1 3 3 2.9999969 2.9999969 0 0 1 -3 3 2.9999969 2.9999969 0 0 1 -3-3 2.9999969 2.9999969 0 0 1 3-3zm690 0a2.999995 2.999995 0 0 1 3 3 2.999995 2.999995 0 0 1 -3 3 2.999995 2.999995 0 0 1 -3-3 2.999995 2.999995 0 0 1 3-3zm128 0a2.9999935 2.9999935 0 0 1 3 3 2.9999935 2.9999935 0 0 1 -3 3 2.9999935 2.9999935 0 0 1 -3-3 2.9999935 2.9999935 0 0 1 3-3zm104 0a2.9999927 2.9999927 0 0 1 3 3 2.9999927 2.9999927 0 0 1 -3 3 2.9999927 2.9999927 0 0 1 -3-3 2.9999927 2.9999927 0 0 1 3-3zm-867 55a2.9999978 2.9999978 0 0 1 3 3 2.9999978 2.9999978 0 0 1 -3 3 2.9999978 2.9999978 0 0 1 -3-3 2.9999978 2.9999978 0 0 1 3-3zm290 0a2.9999982 2.9999982 0 0 1 3 3 2.9999982 2.9999982 0 0 1 -3 3 2.9999982 2.9999982 0 0 1 -3-3 2.9999982 2.9999982 0 0 1 3-3zm290 0a2.9999986 2.9999986 0 0 1 3 3 2.9999986 2.9999986 0 0 1 -3 3 2.9999986 2.9999986 0 0 1 -3-3 2.9999986 2.9999986 0 0 1 3-3zm235 2.5a2.9999931 2.9999931 0 0 1 3 3 2.9999931 2.9999931 0 0 1 -3 3 2.9999931 2.9999931 0 0 1 -3-3 2.9999931 2.9999931 0 0 1 3-3zm-913 39.5a3.9999985 3.9999985 0 0 1 4 4 3.9999985 3.9999985 0 0 1 -4 4 3.9999985 3.9999985 0 0 1 -4-4 3.9999985 3.9999985 0 0 1 4-4zm976 0a3.9999875 3.9999875 0 0 1 4 4 3.9999875 3.9999875 0 0 1 -4 4 3.9999875 3.9999875 0 0 1 -4-4 3.9999875 3.9999875 0 0 1 4-4zm-488 32.5a6.499996 6.499996 0 0 1 6.5 6.5 6.499996 6.499996 0 0 1 -6.5 6.5 6.499996 6.499996 0 0 1 -6.5-6.5 6.499996 6.499996 0 0 1 6.5-6.5z" fill="#c5c7c4" fill-opacity=".8" stroke="#999" stroke-width=".8" transform="translate(0 -.000092)"/><path id="Top_bottom_Panel_1000X700_PTBO1471" d="m0 0v781h1081v-781zm540.5 11a6.4999976 6.4999976 0 0 1 6.5 6.5 6.4999976 6.4999976 0 0 1 -6.5 6.5 6.4999976 6.4999976 0 0 1 -6.5-6.5 6.4999976 6.4999976 0 0 1 6.5-6.5zm-488 37.5a3.999998 3.999998 0 0 1 4 4 3.999998 3.999998 0 0 1 -4 4 3.999998 3.999998 0 0 1 -4-4 3.999998 3.999998 0 0 1 4-4zm976 0a3.9999865 3.9999865 0 0 1 4 4 3.9999865 3.9999865 0 0 1 -4 4 3.9999865 3.9999865 0 0 1 -4-4 3.9999865 3.9999865 0 0 1 4-4zm-63 41.5a2.9999943 2.9999943 0 0 1 3 3 2.9999943 2.9999943 0 0 1 -3 3 2.9999943 2.9999943 0 0 1 -3-3 2.9999943 2.9999943 0 0 1 3-3zm-815 2.5a2.9999964 2.9999964 0 0 1 3 3 2.9999964 2.9999964 0 0 1 -3 3 2.9999964 2.9999964 0 0 1 -3-3 2.9999964 2.9999964 0 0 1 3-3zm290 0a2.999996 2.999996 0 0 1 3 3 2.999996 2.999996 0 0 1 -3 3 2.999996 2.999996 0 0 1 -3-3 2.999996 2.999996 0 0 1 3-3zm290 0a2.9999932 2.9999932 0 0 1 3 3 2.9999932 2.9999932 0 0 1 -3 3 2.9999932 2.9999932 0 0 1 -3-3 2.9999932 2.9999932 0 0 1 3-3zm202.5 8h64c6.648 0 12 5.352 12 12v556c0 6.648-5.352 12-12 12h-64c-6.648 0-12-5.352-12-12v-556c0-6.648 5.352-12 12-12zm-822.5 10h660v560h-660zm-15 37a2.9999973 2.9999973 0 0 1 3 3 2.9999973 2.9999973 0 0 1 -3 3 2.9999973 2.9999973 0 0 1 -3-3 2.9999973 2.9999973 0 0 1 3-3zm690 0a2.9999951 2.9999951 0 0 1 3 3 2.9999951 2.9999951 0 0 1 -3 3 2.9999951 2.9999951 0 0 1 -3-3 2.9999951 2.9999951 0 0 1 3-3zm128 0a2.9999939 2.9999939 0 0 1 3 3 2.9999939 2.9999939 0 0 1 -3 3 2.9999939 2.9999939 0 0 1 -3-3 2.9999939 2.9999939 0 0 1 3-3zm104 0a2.9999911 2.9999911 0 0 1 3 3 2.9999911 2.9999911 0 0 1 -3 3 2.9999911 2.9999911 0 0 1 -3-3 2.9999911 2.9999911 0 0 1 3-3zm-1000 236.5a6.4999994 6.4999994 0 0 1 6.5 6.5 6.4999994 6.4999994 0 0 1 -6.5 6.5 6.4999994 6.4999994 0 0 1 -6.5-6.5 6.4999994 6.4999994 0 0 1 6.5-6.5zm1046 0a6.4999802 6.4999802 0 0 1 6.5 6.5 6.4999802 6.4999802 0 0 1 -6.5 6.5 6.4999802 6.4999802 0 0 1 -6.5-6.5 6.4999802 6.4999802 0 0 1 6.5-6.5zm-968 3.5a2.9999977 2.9999977 0 0 1 3 3 2.9999977 2.9999977 0 0 1 -3 3 2.9999977 2.9999977 0 0 1 -3-3 2.9999977 2.9999977 0 0 1 3-3zm690 0a2.9999955 2.9999955 0 0 1 3 3 2.9999955 2.9999955 0 0 1 -3 3 2.9999955 2.9999955 0 0 1 -3-3 2.9999955 2.9999955 0 0 1 3-3zm128 0a2.9999935 2.9999935 0 0 1 3 3 2.9999935 2.9999935 0 0 1 -3 3 2.9999935 2.9999935 0 0 1 -3-3 2.9999935 2.9999935 0 0 1 3-3zm104 0a2.9999924 2.9999924 0 0 1 3 3 2.9999924 2.9999924 0 0 1 -3 3 2.9999924 2.9999924 0 0 1 -3-3 2.9999924 2.9999924 0 0 1 3-3zm-922 240a2.9999981 2.9999981 0 0 1 3 3 2.9999981 2.9999981 0 0 1 -3 3 2.9999981 2.9999981 0 0 1 -3-3 2.9999981 2.9999981 0 0 1 3-3zm690 0a2.9999954 2.9999954 0 0 1 3 3 2.9999954 2.9999954 0 0 1 -3 3 2.9999954 2.9999954 0 0 1 -3-3 2.9999954 2.9999954 0 0 1 3-3zm128 0a2.9999931 2.9999931 0 0 1 3 3 2.9999931 2.9999931 0 0 1 -3 3 2.9999931 2.9999931 0 0 1 -3-3 2.9999931 2.9999931 0 0 1 3-3zm104 0a2.9999919 2.9999919 0 0 1 3 3 2.9999919 2.9999919 0 0 1 -3 3 2.9999919 2.9999919 0 0 1 -3-3 2.9999919 2.9999919 0 0 1 3-3zm-867 55a2.999999 2.999999 0 0 1 3 3 2.999999 2.999999 0 0 1 -3 3 2.999999 2.999999 0 0 1 -3-3 2.999999 2.999999 0 0 1 3-3zm290 0a2.9999966 2.9999966 0 0 1 3 3 2.9999966 2.9999966 0 0 1 -3 3 2.9999966 2.9999966 0 0 1 -3-3 2.9999966 2.9999966 0 0 1 3-3zm290 0a2.9999958 2.9999958 0 0 1 3 3 2.9999958 2.9999958 0 0 1 -3 3 2.9999958 2.9999958 0 0 1 -3-3 2.9999958 2.9999958 0 0 1 3-3zm235 2.5a2.9999927 2.9999927 0 0 1 3 3 2.9999927 2.9999927 0 0 1 -3 3 2.9999927 2.9999927 0 0 1 -3-3 2.9999927 2.9999927 0 0 1 3-3zm-913 39.5a4 4 0 0 1 4 4 4 4 0 0 1 -4 4 4 4 0 0 1 -4-4 4 4 0 0 1 4-4zm976 0a3.999989 3.999989 0 0 1 4 4 3.999989 3.999989 0 0 1 -4 4 3.999989 3.999989 0 0 1 -4-4 3.999989 3.999989 0 0 1 4-4zm-488 32.5a6.4999904 6.4999904 0 0 1 6.5 6.5 6.4999904 6.4999904 0 0 1 -6.5 6.5 6.4999904 6.4999904 0 0 1 -6.5-6.5 6.4999904 6.4999904 0 0 1 6.5-6.5z" fill="#c5c7c4" fill-opacity=".8" stroke="#999" stroke-width=".8" transform="translate(0 -.000092)"/><path id="Top_bottom_Panel_1000X500_PTBO1451" d="m0 0v581h1081v-581zm537.40039 11.158203a6.4999914 6.4999914 0 0 1 6.5 6.5 6.4999914 6.4999914 0 0 1 -6.5 6.5 6.4999914 6.4999914 0 0 1 -6.5-6.5 6.4999914 6.4999914 0 0 1 6.5-6.5zm-487.999999 37.5a4 4 0 0 1 4 4 4 4 0 0 1 -4 4 4 4 0 0 1 -4-4 4 4 0 0 1 4-4zm976.000009 0a3.999987 3.999987 0 0 1 4 4 3.999987 3.999987 0 0 1 -4 4 3.999987 3.999987 0 0 1 -4-4 3.999987 3.999987 0 0 1 4-4zm-63.00001 41.5a2.9999931 2.9999931 0 0 1 3 3 2.9999931 2.9999931 0 0 1 -3 3 2.9999931 2.9999931 0 0 1 -3-3 2.9999931 2.9999931 0 0 1 3-3zm-815 2.5a2.9999973 2.9999973 0 0 1 3 3 2.9999973 2.9999973 0 0 1 -3 3 2.9999973 2.9999973 0 0 1 -3-3 2.9999973 2.9999973 0 0 1 3-3zm290 0a2.9999965 2.9999965 0 0 1 3 3 2.9999965 2.9999965 0 0 1 -3 3 2.9999965 2.9999965 0 0 1 -3-3 2.9999965 2.9999965 0 0 1 3-3zm290 0a2.9999937 2.9999937 0 0 1 3 3 2.9999937 2.9999937 0 0 1 -3 3 2.9999937 2.9999937 0 0 1 -3-3 2.9999937 2.9999937 0 0 1 3-3zm202.5 7.999997h64c6.64801 0 12.00001 5.352 12.00001 12v356c0 6.648-5.352 12-12.00001 12h-64c-6.648 0-12-5.352-12-12v-356c0-6.648 5.352-12 12-12zm-822.5 10h660v360h-660zm-14.999999 37a2.9999982 2.9999982 0 0 1 3 3 2.9999982 2.9999982 0 0 1 -3 3 2.9999982 2.9999982 0 0 1 -3-3 2.9999982 2.9999982 0 0 1 3-3zm689.999999 0a2.9999955 2.9999955 0 0 1 3 3 2.9999955 2.9999955 0 0 1 -3 3 2.9999955 2.9999955 0 0 1 -3-3 2.9999955 2.9999955 0 0 1 3-3zm128 0a2.9999935 2.9999935 0 0 1 3 3 2.9999935 2.9999935 0 0 1 -3 3 2.9999935 2.9999935 0 0 1 -3-3 2.9999935 2.9999935 0 0 1 3-3zm104.00001 0a2.9999932 2.9999932 0 0 1 3 3 2.9999932 2.9999932 0 0 1 -3 3 2.9999932 2.9999932 0 0 1 -3-3 2.9999932 2.9999932 0 0 1 3-3zm-1000.000009 136.5a6.5000003 6.5000003 0 0 1 6.5 6.5 6.5000003 6.5000003 0 0 1 -6.5 6.5 6.5000003 6.5000003 0 0 1 -6.5000004-6.5 6.5000003 6.5000003 0 0 1 6.5000004-6.5zm1046.000009 0a6.4999803 6.4999803 0 0 1 6.5 6.5 6.4999803 6.4999803 0 0 1 -6.5 6.5 6.4999803 6.4999803 0 0 1 -6.5-6.5 6.4999803 6.4999803 0 0 1 6.5-6.5zm-968.000009 3.5a2.9999986 2.9999986 0 0 1 3 3 2.9999986 2.9999986 0 0 1 -3 3 2.9999986 2.9999986 0 0 1 -3-3 2.9999986 2.9999986 0 0 1 3-3zm689.999999 0a2.9999959 2.9999959 0 0 1 3 3 2.9999959 2.9999959 0 0 1 -3 3 2.9999959 2.9999959 0 0 1 -3-3 2.9999959 2.9999959 0 0 1 3-3zm128 0a2.9999939 2.9999939 0 0 1 3 3 2.9999939 2.9999939 0 0 1 -3 3 2.9999939 2.9999939 0 0 1 -3-3 2.9999939 2.9999939 0 0 1 3-3zm104.00001 0a2.9999933 2.9999933 0 0 1 3 3 2.9999933 2.9999933 0 0 1 -3 3 2.9999933 2.9999933 0 0 1 -3-3 2.9999933 2.9999933 0 0 1 3-3zm-922.000009 140a2.999999 2.999999 0 0 1 3 3 2.999999 2.999999 0 0 1 -3 3 2.999999 2.999999 0 0 1 -3-3 2.999999 2.999999 0 0 1 3-3zm689.999999 0a2.9999959 2.9999959 0 0 1 3 3 2.9999959 2.9999959 0 0 1 -3 3 2.9999959 2.9999959 0 0 1 -3-3 2.9999959 2.9999959 0 0 1 3-3zm128 0a2.9999943 2.9999943 0 0 1 3 3 2.9999943 2.9999943 0 0 1 -3 3 2.9999943 2.9999943 0 0 1 -3-3 2.9999943 2.9999943 0 0 1 3-3zm104.00001 0a2.9999919 2.9999919 0 0 1 3 3 2.9999919 2.9999919 0 0 1 -3 3 2.9999919 2.9999919 0 0 1 -3-3 2.9999919 2.9999919 0 0 1 3-3zm-867.00001 55a2.9999999 2.9999999 0 0 1 3 3 2.9999999 2.9999999 0 0 1 -3 3 2.9999999 2.9999999 0 0 1 -3-3 2.9999999 2.9999999 0 0 1 3-3zm290 0a2.9999979 2.9999979 0 0 1 3 3 2.9999979 2.9999979 0 0 1 -3 3 2.9999979 2.9999979 0 0 1 -3-3 2.9999979 2.9999979 0 0 1 3-3zm290 0a2.9999963 2.9999963 0 0 1 3 3 2.9999963 2.9999963 0 0 1 -3 3 2.9999963 2.9999963 0 0 1 -3-3 2.9999963 2.9999963 0 0 1 3-3zm235 2.5a2.9999947 2.9999947 0 0 1 3 3 2.9999947 2.9999947 0 0 1 -3 3 2.9999947 2.9999947 0 0 1 -3-3 2.9999947 2.9999947 0 0 1 3-3zm-912.999999 39.5a3.9999995 3.9999995 0 0 1 4 4 3.9999995 3.9999995 0 0 1 -4 4 3.9999995 3.9999995 0 0 1 -4-4 3.9999995 3.9999995 0 0 1 4-4zm976.000009 0a3.999988 3.999988 0 0 1 4 4 3.999988 3.999988 0 0 1 -4 4 3.999988 3.999988 0 0 1 -4-4 3.999988 3.999988 0 0 1 4-4zm-488.00001 32.5a6.4999922 6.4999922 0 0 1 6.5 6.5 6.4999922 6.4999922 0 0 1 -6.5 6.5 6.4999922 6.4999922 0 0 1 -6.5-6.5 6.4999922 6.4999922 0 0 1 6.5-6.5z" fill="#c5c7c4" fill-opacity=".8" stroke="#999" stroke-width=".8" transform="translate(0 -.000092)"/><path id="Top_bottom_Panel_1000X300_PTBO1431" d="m0 0v381h1081v-381zm537.13086 12.322266a6.4999931 6.4999931 0 0 1 6.5 6.5 6.4999931 6.4999931 0 0 1 -6.5 6.5 6.4999931 6.4999931 0 0 1 -6.5-6.5 6.4999931 6.4999931 0 0 1 6.5-6.5zm-488.000001 37.5a3.9999995 3.9999995 0 0 1 4 4 3.9999995 3.9999995 0 0 1 -4 4 3.9999995 3.9999995 0 0 1 -4-4 3.9999995 3.9999995 0 0 1 4-4zm976.000041 0a3.9999895 3.9999895 0 0 1 4 4 3.9999895 3.9999895 0 0 1 -4 4 3.9999895 3.9999895 0 0 1 -4-4 3.9999895 3.9999895 0 0 1 4-4zm-63.00004 41.5a2.9999952 2.9999952 0 0 1 3 3 2.9999952 2.9999952 0 0 1 -3 3 2.9999952 2.9999952 0 0 1 -3-3 2.9999952 2.9999952 0 0 1 3-3zm-815 2.5a2.9999982 2.9999982 0 0 1 3 3 2.9999982 2.9999982 0 0 1 -3 3 2.9999982 2.9999982 0 0 1 -3-3 2.9999982 2.9999982 0 0 1 3-3zm290 0a2.9999974 2.9999974 0 0 1 3 3 2.9999974 2.9999974 0 0 1 -3 3 2.9999974 2.9999974 0 0 1 -3-3 2.9999974 2.9999974 0 0 1 3-3zm290 0a2.999995 2.999995 0 0 1 3 3 2.999995 2.999995 0 0 1 -3 3 2.999995 2.999995 0 0 1 -3-3 2.999995 2.999995 0 0 1 3-3zm202.5 8.000004h64c6.64804 0 12.00004 5.35199 12.00004 12v156c0 6.64776-5.352 12-12.00004 12h-64c-6.648 0-12-5.35224-12-12v-156c0-6.64801 5.352-12 12-12zm-822.5 10h660v160h-660zm-15.000001 37a2.9999995 2.9999995 0 0 1 3 3 2.9999995 2.9999995 0 0 1 -3 3 2.9999995 2.9999995 0 0 1 -3-3 2.9999995 2.9999995 0 0 1 3-3zm690.000001 0a2.9999968 2.9999968 0 0 1 3 3 2.9999968 2.9999968 0 0 1 -3 3 2.9999968 2.9999968 0 0 1 -3-3 2.9999968 2.9999968 0 0 1 3-3zm128 0a2.9999956 2.9999956 0 0 1 3 3 2.9999956 2.9999956 0 0 1 -3 3 2.9999956 2.9999956 0 0 1 -3-3 2.9999956 2.9999956 0 0 1 3-3zm104.00004 0a2.9999945 2.9999945 0 0 1 3 3 2.9999945 2.9999945 0 0 1 -3 3 2.9999945 2.9999945 0 0 1 -3-3 2.9999945 2.9999945 0 0 1 3-3zm-1000.000041 36.5a6.5000013 6.5000013 0 0 1 6.5 6.5 6.5000013 6.5000013 0 0 1 -6.5 6.5 6.5000013 6.5000013 0 0 1 -6.4999996-6.5 6.5000013 6.5000013 0 0 1 6.4999996-6.5zm1046.000041 0a6.4999845 6.4999845 0 0 1 6.5 6.5 6.4999845 6.4999845 0 0 1 -6.5 6.5 6.4999845 6.4999845 0 0 1 -6.5-6.5 6.4999845 6.4999845 0 0 1 6.5-6.5zm-968.000041 43.5a2.9999999 2.9999999 0 0 1 3 3 2.9999999 2.9999999 0 0 1 -3 3 2.9999999 2.9999999 0 0 1 -3-3 2.9999999 2.9999999 0 0 1 3-3zm690.000001 0a2.9999967 2.9999967 0 0 1 3 3 2.9999967 2.9999967 0 0 1 -3 3 2.9999967 2.9999967 0 0 1 -3-3 2.9999967 2.9999967 0 0 1 3-3zm128 0a2.999996 2.999996 0 0 1 3 3 2.999996 2.999996 0 0 1 -3 3 2.999996 2.999996 0 0 1 -3-3 2.999996 2.999996 0 0 1 3-3zm104.00004 0a2.9999944 2.9999944 0 0 1 3 3 2.9999944 2.9999944 0 0 1 -3 3 2.9999944 2.9999944 0 0 1 -3-3 2.9999944 2.9999944 0 0 1 3-3zm-867.00004 55a2.9999995 2.9999995 0 0 1 3 3 2.9999995 2.9999995 0 0 1 -3 3 2.9999995 2.9999995 0 0 1 -3-3 2.9999995 2.9999995 0 0 1 3-3zm290 0a2.9999987 2.9999987 0 0 1 3 3 2.9999987 2.9999987 0 0 1 -3 3 2.9999987 2.9999987 0 0 1 -3-3 2.9999987 2.9999987 0 0 1 3-3zm290 0a2.9999971 2.9999971 0 0 1 3 3 2.9999971 2.9999971 0 0 1 -3 3 2.9999971 2.9999971 0 0 1 -3-3 2.9999971 2.9999971 0 0 1 3-3zm235 2.5a2.9999948 2.9999948 0 0 1 3 3 2.9999948 2.9999948 0 0 1 -3 3 2.9999948 2.9999948 0 0 1 -3-3 2.9999948 2.9999948 0 0 1 3-3zm-913.000001 39.5a4.000001 4.000001 0 0 1 4 4 4.000001 4.000001 0 0 1 -4 4 4.000001 4.000001 0 0 1 -4-4 4.000001 4.000001 0 0 1 4-4zm976.000041 0a3.9999905 3.9999905 0 0 1 4 4 3.9999905 3.9999905 0 0 1 -4 4 3.9999905 3.9999905 0 0 1 -4-4 3.9999905 3.9999905 0 0 1 4-4zm-488.00004 32.5a6.4999939 6.4999939 0 0 1 6.5 6.5 6.4999939 6.4999939 0 0 1 -6.5 6.5 6.4999939 6.4999939 0 0 1 -6.5-6.5 6.4999939 6.4999939 0 0 1 6.5-6.5z" fill="#c5c7c4" fill-opacity=".8" stroke="#999" stroke-width=".8" transform="translate(0 -.000092)"/><path id="Top_bottom_Panel_1000X900_PTBO1291" d="m0 0v981h1081v-981zm540.5 11a6.4999992 6.4999992 0 0 1 6.5 6.5 6.4999992 6.4999992 0 0 1 -6.5 6.5 6.4999992 6.4999992 0 0 1 -6.5-6.5 6.4999992 6.4999992 0 0 1 6.5-6.5zm-488 37.5a3.999999 3.999999 0 0 1 4 4 3.999999 3.999999 0 0 1 -4 4 3.999999 3.999999 0 0 1 -4-4 3.999999 3.999999 0 0 1 4-4zm976 0a3.9999865 3.9999865 0 0 1 4 4 3.9999865 3.9999865 0 0 1 -4 4 3.9999865 3.9999865 0 0 1 -4-4 3.9999865 3.9999865 0 0 1 4-4zm-63 41.5a2.9999915 2.9999915 0 0 1 3 3 2.9999915 2.9999915 0 0 1 -3 3 2.9999915 2.9999915 0 0 1 -3-3 2.9999915 2.9999915 0 0 1 3-3zm-815 2.5a2.9999952 2.9999952 0 0 1 3 3 2.9999952 2.9999952 0 0 1 -3 3 2.9999952 2.9999952 0 0 1 -3-3 2.9999952 2.9999952 0 0 1 3-3zm290 0a2.9999948 2.9999948 0 0 1 3 3 2.9999948 2.9999948 0 0 1 -3 3 2.9999948 2.9999948 0 0 1 -3-3 2.9999948 2.9999948 0 0 1 3-3zm290 0a2.9999944 2.9999944 0 0 1 3 3 2.9999944 2.9999944 0 0 1 -3 3 2.9999944 2.9999944 0 0 1 -3-3 2.9999944 2.9999944 0 0 1 3-3zm202.5 8h64c6.648 0 12 5.352 12 12v756c0 6.648-5.352 12-12 12h-64c-6.648 0-12-5.352-12-12v-756c0-6.648 5.352-12 12-12zm-822.5 10h660v760h-660zm-15 37a2.9999961 2.9999961 0 0 1 3 3 2.9999961 2.9999961 0 0 1 -3 3 2.9999961 2.9999961 0 0 1 -3-3 2.9999961 2.9999961 0 0 1 3-3zm690 0a2.9999947 2.9999947 0 0 1 3 3 2.9999947 2.9999947 0 0 1 -3 3 2.9999947 2.9999947 0 0 1 -3-3 2.9999947 2.9999947 0 0 1 3-3zm128 0a2.9999943 2.9999943 0 0 1 3 3 2.9999943 2.9999943 0 0 1 -3 3 2.9999943 2.9999943 0 0 1 -3-3 2.9999943 2.9999943 0 0 1 3-3zm104 0a2.9999923 2.9999923 0 0 1 3 3 2.9999923 2.9999923 0 0 1 -3 3 2.9999923 2.9999923 0 0 1 -3-3 2.9999923 2.9999923 0 0 1 3-3zm-1000 336.5a6.4999986 6.4999986 0 0 1 6.5 6.5 6.4999986 6.4999986 0 0 1 -6.5 6.5 6.4999986 6.4999986 0 0 1 -6.5-6.5 6.4999986 6.4999986 0 0 1 6.5-6.5zm1046 0a6.4999794 6.4999794 0 0 1 6.5 6.5 6.4999794 6.4999794 0 0 1 -6.5 6.5 6.4999794 6.4999794 0 0 1 -6.5-6.5 6.4999794 6.4999794 0 0 1 6.5-6.5zm-968 3.5a2.9999965 2.9999965 0 0 1 3 3 2.9999965 2.9999965 0 0 1 -3 3 2.9999965 2.9999965 0 0 1 -3-3 2.9999965 2.9999965 0 0 1 3-3zm690 0a2.9999951 2.9999951 0 0 1 3 3 2.9999951 2.9999951 0 0 1 -3 3 2.9999951 2.9999951 0 0 1 -3-3 2.9999951 2.9999951 0 0 1 3-3zm128 0a2.9999939 2.9999939 0 0 1 3 3 2.9999939 2.9999939 0 0 1 -3 3 2.9999939 2.9999939 0 0 1 -3-3 2.9999939 2.9999939 0 0 1 3-3zm104 0a2.9999932 2.9999932 0 0 1 3 3 2.9999932 2.9999932 0 0 1 -3 3 2.9999932 2.9999932 0 0 1 -3-3 2.9999932 2.9999932 0 0 1 3-3zm-922 340a2.9999969 2.9999969 0 0 1 3 3 2.9999969 2.9999969 0 0 1 -3 3 2.9999969 2.9999969 0 0 1 -3-3 2.9999969 2.9999969 0 0 1 3-3zm690 0a2.999995 2.999995 0 0 1 3 3 2.999995 2.999995 0 0 1 -3 3 2.999995 2.999995 0 0 1 -3-3 2.999995 2.999995 0 0 1 3-3zm128 0a2.9999935 2.9999935 0 0 1 3 3 2.9999935 2.9999935 0 0 1 -3 3 2.9999935 2.9999935 0 0 1 -3-3 2.9999935 2.9999935 0 0 1 3-3zm104 0a2.9999927 2.9999927 0 0 1 3 3 2.9999927 2.9999927 0 0 1 -3 3 2.9999927 2.9999927 0 0 1 -3-3 2.9999927 2.9999927 0 0 1 3-3zm-867 55a2.9999978 2.9999978 0 0 1 3 3 2.9999978 2.9999978 0 0 1 -3 3 2.9999978 2.9999978 0 0 1 -3-3 2.9999978 2.9999978 0 0 1 3-3zm290 0a2.9999982 2.9999982 0 0 1 3 3 2.9999982 2.9999982 0 0 1 -3 3 2.9999982 2.9999982 0 0 1 -3-3 2.9999982 2.9999982 0 0 1 3-3zm290 0a2.9999986 2.9999986 0 0 1 3 3 2.9999986 2.9999986 0 0 1 -3 3 2.9999986 2.9999986 0 0 1 -3-3 2.9999986 2.9999986 0 0 1 3-3zm235 2.5a2.9999931 2.9999931 0 0 1 3 3 2.9999931 2.9999931 0 0 1 -3 3 2.9999931 2.9999931 0 0 1 -3-3 2.9999931 2.9999931 0 0 1 3-3zm-913 39.5a3.9999985 3.9999985 0 0 1 4 4 3.9999985 3.9999985 0 0 1 -4 4 3.9999985 3.9999985 0 0 1 -4-4 3.9999985 3.9999985 0 0 1 4-4zm976 0a3.9999875 3.9999875 0 0 1 4 4 3.9999875 3.9999875 0 0 1 -4 4 3.9999875 3.9999875 0 0 1 -4-4 3.9999875 3.9999875 0 0 1 4-4zm-488 32.5a6.499996 6.499996 0 0 1 6.5 6.5 6.499996 6.499996 0 0 1 -6.5 6.5 6.499996 6.499996 0 0 1 -6.5-6.5 6.499996 6.499996 0 0 1 6.5-6.5z" fill="#c5c7c4" fill-opacity=".8" stroke="#999" stroke-width=".8" transform="translate(0 -.000092)"/><path id="Top_bottom_Panel_1000X700_PTBO1271" d="m0 0v781h1081v-781zm540.5 11a6.4999976 6.4999976 0 0 1 6.5 6.5 6.4999976 6.4999976 0 0 1 -6.5 6.5 6.4999976 6.4999976 0 0 1 -6.5-6.5 6.4999976 6.4999976 0 0 1 6.5-6.5zm-488 37.5a3.999998 3.999998 0 0 1 4 4 3.999998 3.999998 0 0 1 -4 4 3.999998 3.999998 0 0 1 -4-4 3.999998 3.999998 0 0 1 4-4zm976 0a3.9999865 3.9999865 0 0 1 4 4 3.9999865 3.9999865 0 0 1 -4 4 3.9999865 3.9999865 0 0 1 -4-4 3.9999865 3.9999865 0 0 1 4-4zm-63 41.5a2.9999943 2.9999943 0 0 1 3 3 2.9999943 2.9999943 0 0 1 -3 3 2.9999943 2.9999943 0 0 1 -3-3 2.9999943 2.9999943 0 0 1 3-3zm-815 2.5a2.9999964 2.9999964 0 0 1 3 3 2.9999964 2.9999964 0 0 1 -3 3 2.9999964 2.9999964 0 0 1 -3-3 2.9999964 2.9999964 0 0 1 3-3zm290 0a2.999996 2.999996 0 0 1 3 3 2.999996 2.999996 0 0 1 -3 3 2.999996 2.999996 0 0 1 -3-3 2.999996 2.999996 0 0 1 3-3zm290 0a2.9999932 2.9999932 0 0 1 3 3 2.9999932 2.9999932 0 0 1 -3 3 2.9999932 2.9999932 0 0 1 -3-3 2.9999932 2.9999932 0 0 1 3-3zm202.5 8h64c6.648 0 12 5.352 12 12v556c0 6.648-5.352 12-12 12h-64c-6.648 0-12-5.352-12-12v-556c0-6.648 5.352-12 12-12zm-822.5 10h660v560h-660zm-15 37a2.9999973 2.9999973 0 0 1 3 3 2.9999973 2.9999973 0 0 1 -3 3 2.9999973 2.9999973 0 0 1 -3-3 2.9999973 2.9999973 0 0 1 3-3zm690 0a2.9999951 2.9999951 0 0 1 3 3 2.9999951 2.9999951 0 0 1 -3 3 2.9999951 2.9999951 0 0 1 -3-3 2.9999951 2.9999951 0 0 1 3-3zm128 0a2.9999939 2.9999939 0 0 1 3 3 2.9999939 2.9999939 0 0 1 -3 3 2.9999939 2.9999939 0 0 1 -3-3 2.9999939 2.9999939 0 0 1 3-3zm104 0a2.9999911 2.9999911 0 0 1 3 3 2.9999911 2.9999911 0 0 1 -3 3 2.9999911 2.9999911 0 0 1 -3-3 2.9999911 2.9999911 0 0 1 3-3zm-1000 236.5a6.4999994 6.4999994 0 0 1 6.5 6.5 6.4999994 6.4999994 0 0 1 -6.5 6.5 6.4999994 6.4999994 0 0 1 -6.5-6.5 6.4999994 6.4999994 0 0 1 6.5-6.5zm1046 0a6.4999802 6.4999802 0 0 1 6.5 6.5 6.4999802 6.4999802 0 0 1 -6.5 6.5 6.4999802 6.4999802 0 0 1 -6.5-6.5 6.4999802 6.4999802 0 0 1 6.5-6.5zm-968 3.5a2.9999977 2.9999977 0 0 1 3 3 2.9999977 2.9999977 0 0 1 -3 3 2.9999977 2.9999977 0 0 1 -3-3 2.9999977 2.9999977 0 0 1 3-3zm690 0a2.9999955 2.9999955 0 0 1 3 3 2.9999955 2.9999955 0 0 1 -3 3 2.9999955 2.9999955 0 0 1 -3-3 2.9999955 2.9999955 0 0 1 3-3zm128 0a2.9999935 2.9999935 0 0 1 3 3 2.9999935 2.9999935 0 0 1 -3 3 2.9999935 2.9999935 0 0 1 -3-3 2.9999935 2.9999935 0 0 1 3-3zm104 0a2.9999924 2.9999924 0 0 1 3 3 2.9999924 2.9999924 0 0 1 -3 3 2.9999924 2.9999924 0 0 1 -3-3 2.9999924 2.9999924 0 0 1 3-3zm-922 240a2.9999981 2.9999981 0 0 1 3 3 2.9999981 2.9999981 0 0 1 -3 3 2.9999981 2.9999981 0 0 1 -3-3 2.9999981 2.9999981 0 0 1 3-3zm690 0a2.9999954 2.9999954 0 0 1 3 3 2.9999954 2.9999954 0 0 1 -3 3 2.9999954 2.9999954 0 0 1 -3-3 2.9999954 2.9999954 0 0 1 3-3zm128 0a2.9999931 2.9999931 0 0 1 3 3 2.9999931 2.9999931 0 0 1 -3 3 2.9999931 2.9999931 0 0 1 -3-3 2.9999931 2.9999931 0 0 1 3-3zm104 0a2.9999919 2.9999919 0 0 1 3 3 2.9999919 2.9999919 0 0 1 -3 3 2.9999919 2.9999919 0 0 1 -3-3 2.9999919 2.9999919 0 0 1 3-3zm-867 55a2.999999 2.999999 0 0 1 3 3 2.999999 2.999999 0 0 1 -3 3 2.999999 2.999999 0 0 1 -3-3 2.999999 2.999999 0 0 1 3-3zm290 0a2.9999966 2.9999966 0 0 1 3 3 2.9999966 2.9999966 0 0 1 -3 3 2.9999966 2.9999966 0 0 1 -3-3 2.9999966 2.9999966 0 0 1 3-3zm290 0a2.9999958 2.9999958 0 0 1 3 3 2.9999958 2.9999958 0 0 1 -3 3 2.9999958 2.9999958 0 0 1 -3-3 2.9999958 2.9999958 0 0 1 3-3zm235 2.5a2.9999927 2.9999927 0 0 1 3 3 2.9999927 2.9999927 0 0 1 -3 3 2.9999927 2.9999927 0 0 1 -3-3 2.9999927 2.9999927 0 0 1 3-3zm-913 39.5a4 4 0 0 1 4 4 4 4 0 0 1 -4 4 4 4 0 0 1 -4-4 4 4 0 0 1 4-4zm976 0a3.999989 3.999989 0 0 1 4 4 3.999989 3.999989 0 0 1 -4 4 3.999989 3.999989 0 0 1 -4-4 3.999989 3.999989 0 0 1 4-4zm-488 32.5a6.4999904 6.4999904 0 0 1 6.5 6.5 6.4999904 6.4999904 0 0 1 -6.5 6.5 6.4999904 6.4999904 0 0 1 -6.5-6.5 6.4999904 6.4999904 0 0 1 6.5-6.5z" fill="#c5c7c4" fill-opacity=".8" stroke="#999" stroke-width=".8" transform="translate(0 -.000092)"/><path id="Top_bottom_Panel_1000X500_PTBO1251" d="m0 0v581h1081v-581zm537.40039 11.158203a6.4999914 6.4999914 0 0 1 6.5 6.5 6.4999914 6.4999914 0 0 1 -6.5 6.5 6.4999914 6.4999914 0 0 1 -6.5-6.5 6.4999914 6.4999914 0 0 1 6.5-6.5zm-487.999999 37.5a4 4 0 0 1 4 4 4 4 0 0 1 -4 4 4 4 0 0 1 -4-4 4 4 0 0 1 4-4zm976.000009 0a3.999987 3.999987 0 0 1 4 4 3.999987 3.999987 0 0 1 -4 4 3.999987 3.999987 0 0 1 -4-4 3.999987 3.999987 0 0 1 4-4zm-63.00001 41.5a2.9999931 2.9999931 0 0 1 3 3 2.9999931 2.9999931 0 0 1 -3 3 2.9999931 2.9999931 0 0 1 -3-3 2.9999931 2.9999931 0 0 1 3-3zm-815 2.5a2.9999973 2.9999973 0 0 1 3 3 2.9999973 2.9999973 0 0 1 -3 3 2.9999973 2.9999973 0 0 1 -3-3 2.9999973 2.9999973 0 0 1 3-3zm290 0a2.9999965 2.9999965 0 0 1 3 3 2.9999965 2.9999965 0 0 1 -3 3 2.9999965 2.9999965 0 0 1 -3-3 2.9999965 2.9999965 0 0 1 3-3zm290 0a2.9999937 2.9999937 0 0 1 3 3 2.9999937 2.9999937 0 0 1 -3 3 2.9999937 2.9999937 0 0 1 -3-3 2.9999937 2.9999937 0 0 1 3-3zm202.5 7.999997h64c6.64801 0 12.00001 5.352 12.00001 12v356c0 6.648-5.352 12-12.00001 12h-64c-6.648 0-12-5.352-12-12v-356c0-6.648 5.352-12 12-12zm-822.5 10h660v360h-660zm-14.999999 37a2.9999982 2.9999982 0 0 1 3 3 2.9999982 2.9999982 0 0 1 -3 3 2.9999982 2.9999982 0 0 1 -3-3 2.9999982 2.9999982 0 0 1 3-3zm689.999999 0a2.9999955 2.9999955 0 0 1 3 3 2.9999955 2.9999955 0 0 1 -3 3 2.9999955 2.9999955 0 0 1 -3-3 2.9999955 2.9999955 0 0 1 3-3zm128 0a2.9999935 2.9999935 0 0 1 3 3 2.9999935 2.9999935 0 0 1 -3 3 2.9999935 2.9999935 0 0 1 -3-3 2.9999935 2.9999935 0 0 1 3-3zm104.00001 0a2.9999932 2.9999932 0 0 1 3 3 2.9999932 2.9999932 0 0 1 -3 3 2.9999932 2.9999932 0 0 1 -3-3 2.9999932 2.9999932 0 0 1 3-3zm-1000.000009 136.5a6.5000003 6.5000003 0 0 1 6.5 6.5 6.5000003 6.5000003 0 0 1 -6.5 6.5 6.5000003 6.5000003 0 0 1 -6.5000004-6.5 6.5000003 6.5000003 0 0 1 6.5000004-6.5zm1046.000009 0a6.4999803 6.4999803 0 0 1 6.5 6.5 6.4999803 6.4999803 0 0 1 -6.5 6.5 6.4999803 6.4999803 0 0 1 -6.5-6.5 6.4999803 6.4999803 0 0 1 6.5-6.5zm-968.000009 3.5a2.9999986 2.9999986 0 0 1 3 3 2.9999986 2.9999986 0 0 1 -3 3 2.9999986 2.9999986 0 0 1 -3-3 2.9999986 2.9999986 0 0 1 3-3zm689.999999 0a2.9999959 2.9999959 0 0 1 3 3 2.9999959 2.9999959 0 0 1 -3 3 2.9999959 2.9999959 0 0 1 -3-3 2.9999959 2.9999959 0 0 1 3-3zm128 0a2.9999939 2.9999939 0 0 1 3 3 2.9999939 2.9999939 0 0 1 -3 3 2.9999939 2.9999939 0 0 1 -3-3 2.9999939 2.9999939 0 0 1 3-3zm104.00001 0a2.9999933 2.9999933 0 0 1 3 3 2.9999933 2.9999933 0 0 1 -3 3 2.9999933 2.9999933 0 0 1 -3-3 2.9999933 2.9999933 0 0 1 3-3zm-922.000009 140a2.999999 2.999999 0 0 1 3 3 2.999999 2.999999 0 0 1 -3 3 2.999999 2.999999 0 0 1 -3-3 2.999999 2.999999 0 0 1 3-3zm689.999999 0a2.9999959 2.9999959 0 0 1 3 3 2.9999959 2.9999959 0 0 1 -3 3 2.9999959 2.9999959 0 0 1 -3-3 2.9999959 2.9999959 0 0 1 3-3zm128 0a2.9999943 2.9999943 0 0 1 3 3 2.9999943 2.9999943 0 0 1 -3 3 2.9999943 2.9999943 0 0 1 -3-3 2.9999943 2.9999943 0 0 1 3-3zm104.00001 0a2.9999919 2.9999919 0 0 1 3 3 2.9999919 2.9999919 0 0 1 -3 3 2.9999919 2.9999919 0 0 1 -3-3 2.9999919 2.9999919 0 0 1 3-3zm-867.00001 55a2.9999999 2.9999999 0 0 1 3 3 2.9999999 2.9999999 0 0 1 -3 3 2.9999999 2.9999999 0 0 1 -3-3 2.9999999 2.9999999 0 0 1 3-3zm290 0a2.9999979 2.9999979 0 0 1 3 3 2.9999979 2.9999979 0 0 1 -3 3 2.9999979 2.9999979 0 0 1 -3-3 2.9999979 2.9999979 0 0 1 3-3zm290 0a2.9999963 2.9999963 0 0 1 3 3 2.9999963 2.9999963 0 0 1 -3 3 2.9999963 2.9999963 0 0 1 -3-3 2.9999963 2.9999963 0 0 1 3-3zm235 2.5a2.9999947 2.9999947 0 0 1 3 3 2.9999947 2.9999947 0 0 1 -3 3 2.9999947 2.9999947 0 0 1 -3-3 2.9999947 2.9999947 0 0 1 3-3zm-912.999999 39.5a3.9999995 3.9999995 0 0 1 4 4 3.9999995 3.9999995 0 0 1 -4 4 3.9999995 3.9999995 0 0 1 -4-4 3.9999995 3.9999995 0 0 1 4-4zm976.000009 0a3.999988 3.999988 0 0 1 4 4 3.999988 3.999988 0 0 1 -4 4 3.999988 3.999988 0 0 1 -4-4 3.999988 3.999988 0 0 1 4-4zm-488.00001 32.5a6.4999922 6.4999922 0 0 1 6.5 6.5 6.4999922 6.4999922 0 0 1 -6.5 6.5 6.4999922 6.4999922 0 0 1 -6.5-6.5 6.4999922 6.4999922 0 0 1 6.5-6.5z" fill="#c5c7c4" fill-opacity=".8" stroke="#999" stroke-width=".8" transform="translate(0 -.000092)"/><path id="Top_bottom_Panel_1000X300_PTBO1231" d="m0 0v381h1081v-381zm537.13086 12.322266a6.4999931 6.4999931 0 0 1 6.5 6.5 6.4999931 6.4999931 0 0 1 -6.5 6.5 6.4999931 6.4999931 0 0 1 -6.5-6.5 6.4999931 6.4999931 0 0 1 6.5-6.5zm-488.000001 37.5a3.9999995 3.9999995 0 0 1 4 4 3.9999995 3.9999995 0 0 1 -4 4 3.9999995 3.9999995 0 0 1 -4-4 3.9999995 3.9999995 0 0 1 4-4zm976.000041 0a3.9999895 3.9999895 0 0 1 4 4 3.9999895 3.9999895 0 0 1 -4 4 3.9999895 3.9999895 0 0 1 -4-4 3.9999895 3.9999895 0 0 1 4-4zm-63.00004 41.5a2.9999952 2.9999952 0 0 1 3 3 2.9999952 2.9999952 0 0 1 -3 3 2.9999952 2.9999952 0 0 1 -3-3 2.9999952 2.9999952 0 0 1 3-3zm-815 2.5a2.9999982 2.9999982 0 0 1 3 3 2.9999982 2.9999982 0 0 1 -3 3 2.9999982 2.9999982 0 0 1 -3-3 2.9999982 2.9999982 0 0 1 3-3zm290 0a2.9999974 2.9999974 0 0 1 3 3 2.9999974 2.9999974 0 0 1 -3 3 2.9999974 2.9999974 0 0 1 -3-3 2.9999974 2.9999974 0 0 1 3-3zm290 0a2.999995 2.999995 0 0 1 3 3 2.999995 2.999995 0 0 1 -3 3 2.999995 2.999995 0 0 1 -3-3 2.999995 2.999995 0 0 1 3-3zm202.5 8.000004h64c6.64804 0 12.00004 5.35199 12.00004 12v156c0 6.64776-5.352 12-12.00004 12h-64c-6.648 0-12-5.35224-12-12v-156c0-6.64801 5.352-12 12-12zm-822.5 10h660v160h-660zm-15.000001 37a2.9999995 2.9999995 0 0 1 3 3 2.9999995 2.9999995 0 0 1 -3 3 2.9999995 2.9999995 0 0 1 -3-3 2.9999995 2.9999995 0 0 1 3-3zm690.000001 0a2.9999968 2.9999968 0 0 1 3 3 2.9999968 2.9999968 0 0 1 -3 3 2.9999968 2.9999968 0 0 1 -3-3 2.9999968 2.9999968 0 0 1 3-3zm128 0a2.9999956 2.9999956 0 0 1 3 3 2.9999956 2.9999956 0 0 1 -3 3 2.9999956 2.9999956 0 0 1 -3-3 2.9999956 2.9999956 0 0 1 3-3zm104.00004 0a2.9999945 2.9999945 0 0 1 3 3 2.9999945 2.9999945 0 0 1 -3 3 2.9999945 2.9999945 0 0 1 -3-3 2.9999945 2.9999945 0 0 1 3-3zm-1000.000041 36.5a6.5000013 6.5000013 0 0 1 6.5 6.5 6.5000013 6.5000013 0 0 1 -6.5 6.5 6.5000013 6.5000013 0 0 1 -6.4999996-6.5 6.5000013 6.5000013 0 0 1 6.4999996-6.5zm1046.000041 0a6.4999845 6.4999845 0 0 1 6.5 6.5 6.4999845 6.4999845 0 0 1 -6.5 6.5 6.4999845 6.4999845 0 0 1 -6.5-6.5 6.4999845 6.4999845 0 0 1 6.5-6.5zm-968.000041 43.5a2.9999999 2.9999999 0 0 1 3 3 2.9999999 2.9999999 0 0 1 -3 3 2.9999999 2.9999999 0 0 1 -3-3 2.9999999 2.9999999 0 0 1 3-3zm690.000001 0a2.9999967 2.9999967 0 0 1 3 3 2.9999967 2.9999967 0 0 1 -3 3 2.9999967 2.9999967 0 0 1 -3-3 2.9999967 2.9999967 0 0 1 3-3zm128 0a2.999996 2.999996 0 0 1 3 3 2.999996 2.999996 0 0 1 -3 3 2.999996 2.999996 0 0 1 -3-3 2.999996 2.999996 0 0 1 3-3zm104.00004 0a2.9999944 2.9999944 0 0 1 3 3 2.9999944 2.9999944 0 0 1 -3 3 2.9999944 2.9999944 0 0 1 -3-3 2.9999944 2.9999944 0 0 1 3-3zm-867.00004 55a2.9999995 2.9999995 0 0 1 3 3 2.9999995 2.9999995 0 0 1 -3 3 2.9999995 2.9999995 0 0 1 -3-3 2.9999995 2.9999995 0 0 1 3-3zm290 0a2.9999987 2.9999987 0 0 1 3 3 2.9999987 2.9999987 0 0 1 -3 3 2.9999987 2.9999987 0 0 1 -3-3 2.9999987 2.9999987 0 0 1 3-3zm290 0a2.9999971 2.9999971 0 0 1 3 3 2.9999971 2.9999971 0 0 1 -3 3 2.9999971 2.9999971 0 0 1 -3-3 2.9999971 2.9999971 0 0 1 3-3zm235 2.5a2.9999948 2.9999948 0 0 1 3 3 2.9999948 2.9999948 0 0 1 -3 3 2.9999948 2.9999948 0 0 1 -3-3 2.9999948 2.9999948 0 0 1 3-3zm-913.000001 39.5a4.000001 4.000001 0 0 1 4 4 4.000001 4.000001 0 0 1 -4 4 4.000001 4.000001 0 0 1 -4-4 4.000001 4.000001 0 0 1 4-4zm976.000041 0a3.9999905 3.9999905 0 0 1 4 4 3.9999905 3.9999905 0 0 1 -4 4 3.9999905 3.9999905 0 0 1 -4-4 3.9999905 3.9999905 0 0 1 4-4zm-488.00004 32.5a6.4999939 6.4999939 0 0 1 6.5 6.5 6.4999939 6.4999939 0 0 1 -6.5 6.5 6.4999939 6.4999939 0 0 1 -6.5-6.5 6.4999939 6.4999939 0 0 1 6.5-6.5z" fill="#c5c7c4" fill-opacity=".8" stroke="#999" stroke-width=".8" transform="translate(0 -.000092)"/><path id="Top_bottom_Panel_800X900_PTBO8291" d="m0 0v981h881v-981zm52.230469 49.068359a3.9999945 3.9999945 0 0 1 4 4 3.9999945 3.9999945 0 0 1 -4 4 3.9999945 3.9999945 0 0 1 -4-4 3.9999945 3.9999945 0 0 1 4-4zm776.000001 0a3.9999875 3.9999875 0 0 1 4 4 3.9999875 3.9999875 0 0 1 -4 4 3.9999875 3.9999875 0 0 1 -4-4 3.9999875 3.9999875 0 0 1 4-4zm-63 41.5a2.9999923 2.9999923 0 0 1 3 3 2.9999923 2.9999923 0 0 1 -3 3 2.9999923 2.9999923 0 0 1 -3-3 2.9999923 2.9999923 0 0 1 3-3zm-615 2.5a2.9999952 2.9999952 0 0 1 3 3 2.9999952 2.9999952 0 0 1 -3 3 2.9999952 2.9999952 0 0 1 -3-3 2.9999952 2.9999952 0 0 1 3-3zm190 0a2.9999948 2.9999948 0 0 1 3 3 2.9999948 2.9999948 0 0 1 -3 3 2.9999948 2.9999948 0 0 1 -3-3 2.9999948 2.9999948 0 0 1 3-3zm190 0a2.9999944 2.9999944 0 0 1 3 3 2.9999944 2.9999944 0 0 1 -3 3 2.9999944 2.9999944 0 0 1 -3-3 2.9999944 2.9999944 0 0 1 3-3zm202.5 8.000001h64c6.648 0 12 5.352 12 12v756c0 6.648-5.352 12-12 12h-64c-6.648 0-12-5.352-12-12v-756c0-6.648 5.352-12 12-12zm-622.5 10h460v760h-460zm-15.000001 37a2.9999965 2.9999965 0 0 1 3 3 2.9999965 2.9999965 0 0 1 -3 3 2.9999965 2.9999965 0 0 1 -3-3 2.9999965 2.9999965 0 0 1 3-3zm490.000001 0a2.9999955 2.9999955 0 0 1 3 3 2.9999955 2.9999955 0 0 1 -3 3 2.9999955 2.9999955 0 0 1 -3-3 2.9999955 2.9999955 0 0 1 3-3zm128 0a2.9999951 2.9999951 0 0 1 3 3 2.9999951 2.9999951 0 0 1 -3 3 2.9999951 2.9999951 0 0 1 -3-3 2.9999951 2.9999951 0 0 1 3-3zm104 0a2.9999931 2.9999931 0 0 1 3 3 2.9999931 2.9999931 0 0 1 -3 3 2.9999931 2.9999931 0 0 1 -3-3 2.9999931 2.9999931 0 0 1 3-3zm-800.000001 336.5a6.4999994 6.4999994 0 0 1 6.5 6.5 6.4999994 6.4999994 0 0 1 -6.5 6.5 6.4999994 6.4999994 0 0 1 -6.5-6.5 6.4999994 6.4999994 0 0 1 6.5-6.5zm846.000001 0a6.499981 6.499981 0 0 1 6.5 6.5 6.499981 6.499981 0 0 1 -6.5 6.5 6.499981 6.499981 0 0 1 -6.5-6.5 6.499981 6.499981 0 0 1 6.5-6.5zm-768.000001 3.5a2.9999973 2.9999973 0 0 1 3 3 2.9999973 2.9999973 0 0 1 -3 3 2.9999973 2.9999973 0 0 1 -3-3 2.9999973 2.9999973 0 0 1 3-3zm490.000001 0a2.9999979 2.9999979 0 0 1 3 3 2.9999979 2.9999979 0 0 1 -3 3 2.9999979 2.9999979 0 0 1 -3-3 2.9999979 2.9999979 0 0 1 3-3zm128 0a2.9999947 2.9999947 0 0 1 3 3 2.9999947 2.9999947 0 0 1 -3 3 2.9999947 2.9999947 0 0 1 -3-3 2.9999947 2.9999947 0 0 1 3-3zm104 0a2.999994 2.999994 0 0 1 3 3 2.999994 2.999994 0 0 1 -3 3 2.999994 2.999994 0 0 1 -3-3 2.999994 2.999994 0 0 1 3-3zm-722.000001 340a2.9999993 2.9999993 0 0 1 3 3 2.9999993 2.9999993 0 0 1 -3 3 2.9999993 2.9999993 0 0 1 -3-3 2.9999993 2.9999993 0 0 1 3-3zm490.000001 0a2.9999982 2.9999982 0 0 1 3 3 2.9999982 2.9999982 0 0 1 -3 3 2.9999982 2.9999982 0 0 1 -3-3 2.9999982 2.9999982 0 0 1 3-3zm128 0a2.9999943 2.9999943 0 0 1 3 3 2.9999943 2.9999943 0 0 1 -3 3 2.9999943 2.9999943 0 0 1 -3-3 2.9999943 2.9999943 0 0 1 3-3zm104 0a2.9999935 2.9999935 0 0 1 3 3 2.9999935 2.9999935 0 0 1 -3 3 2.9999935 2.9999935 0 0 1 -3-3 2.9999935 2.9999935 0 0 1 3-3zm-667 55a2.9999994 2.9999994 0 0 1 3 3 2.9999994 2.9999994 0 0 1 -3 3 2.9999994 2.9999994 0 0 1 -3-3 2.9999994 2.9999994 0 0 1 3-3zm190 0a2.999999 2.999999 0 0 1 3 3 2.999999 2.999999 0 0 1 -3 3 2.999999 2.999999 0 0 1 -3-3 2.999999 2.999999 0 0 1 3-3zm190 0a2.9999986 2.9999986 0 0 1 3 3 2.9999986 2.9999986 0 0 1 -3 3 2.9999986 2.9999986 0 0 1 -3-3 2.9999986 2.9999986 0 0 1 3-3zm235 2.5a2.9999939 2.9999939 0 0 1 3 3 2.9999939 2.9999939 0 0 1 -3 3 2.9999939 2.9999939 0 0 1 -3-3 2.9999939 2.9999939 0 0 1 3-3zm-713.000001 39.5a4 4 0 0 1 4 4 4 4 0 0 1 -4 4 4 4 0 0 1 -4-4 4 4 0 0 1 4-4zm776.000001 0a3.9999885 3.9999885 0 0 1 4 4 3.9999885 3.9999885 0 0 1 -4 4 3.9999885 3.9999885 0 0 1 -4-4 3.9999885 3.9999885 0 0 1 4-4z" fill="#c5c7c4" fill-opacity=".8" stroke="#999" stroke-width=".8" transform="translate(0 -.000092)"/><path id="Top_bottom_Panel_800X700_PTBO8271" d="m0 0v781h881v-781zm54.378906 51.048828a3.999996 3.999996 0 0 1 4 4 3.999996 3.999996 0 0 1 -4 4 3.999996 3.999996 0 0 1 -4-4 3.999996 3.999996 0 0 1 4-4zm776.000004 0a3.999988 3.999988 0 0 1 4 4 3.999988 3.999988 0 0 1 -4 4 3.999988 3.999988 0 0 1 -4-4 3.999988 3.999988 0 0 1 4-4zm-63 41.5a2.9999943 2.9999943 0 0 1 3 3 2.9999943 2.9999943 0 0 1 -3 3 2.9999943 2.9999943 0 0 1 -3-3 2.9999943 2.9999943 0 0 1 3-3zm-615 2.5a2.9999965 2.9999965 0 0 1 3 3 2.9999965 2.9999965 0 0 1 -3 3.000002 2.9999965 2.9999965 0 0 1 -3-3.000002 2.9999965 2.9999965 0 0 1 3-3zm190 0a2.9999961 2.9999961 0 0 1 3 3 2.9999961 2.9999961 0 0 1 -3 3.000002 2.9999961 2.9999961 0 0 1 -3-3.000002 2.9999961 2.9999961 0 0 1 3-3zm190 0a2.9999957 2.9999957 0 0 1 3 3 2.9999957 2.9999957 0 0 1 -3 3.000002 2.9999957 2.9999957 0 0 1 -3-3.000002 2.9999957 2.9999957 0 0 1 3-3zm202.5 8.000002h64c6.648 0 12 5.352 12 12v556c0 6.648-5.352 12-12 12h-64c-6.64801 0-12-5.352-12-12v-556c0-6.648 5.35199-12 12-12zm-622.5 10h460v560h-460zm-15.000004 37a2.9999978 2.9999978 0 0 1 3.000004 3 2.9999978 2.9999978 0 0 1 -3.000004 3 2.9999978 2.9999978 0 0 1 -3-3 2.9999978 2.9999978 0 0 1 3-3zm490.000004 0a2.9999967 2.9999967 0 0 1 3 3 2.9999967 2.9999967 0 0 1 -3 3 2.9999967 2.9999967 0 0 1 -3-3 2.9999967 2.9999967 0 0 1 3-3zm128 0a2.9999947 2.9999947 0 0 1 3 3 2.9999947 2.9999947 0 0 1 -3 3 2.9999947 2.9999947 0 0 1 -3-3 2.9999947 2.9999947 0 0 1 3-3zm104 0a2.9999924 2.9999924 0 0 1 3 3 2.9999924 2.9999924 0 0 1 -3 3 2.9999924 2.9999924 0 0 1 -3-3 2.9999924 2.9999924 0 0 1 3-3zm-800.000004 236.5a6.4999963 6.4999963 0 0 1 6.5 6.5 6.4999963 6.4999963 0 0 1 -6.5 6.5 6.4999963 6.4999963 0 0 1 -6.5-6.5 6.4999963 6.4999963 0 0 1 6.5-6.5zm846.000004 0a6.4999827 6.4999827 0 0 1 6.5 6.5 6.4999827 6.4999827 0 0 1 -6.5 6.5 6.4999827 6.4999827 0 0 1 -6.5-6.5 6.4999827 6.4999827 0 0 1 6.5-6.5zm-768.000004 3.5a2.9999986 2.9999986 0 0 1 3.000004 3 2.9999986 2.9999986 0 0 1 -3.000004 3 2.9999986 2.9999986 0 0 1 -3-3 2.9999986 2.9999986 0 0 1 3-3zm490.000004 0a2.9999963 2.9999963 0 0 1 3 3 2.9999963 2.9999963 0 0 1 -3 3 2.9999963 2.9999963 0 0 1 -3-3 2.9999963 2.9999963 0 0 1 3-3zm128 0a2.9999951 2.9999951 0 0 1 3 3 2.9999951 2.9999951 0 0 1 -3 3 2.9999951 2.9999951 0 0 1 -3-3 2.9999951 2.9999951 0 0 1 3-3zm104 0a2.9999949 2.9999949 0 0 1 3 3 2.9999949 2.9999949 0 0 1 -3 3 2.9999949 2.9999949 0 0 1 -3-3 2.9999949 2.9999949 0 0 1 3-3zm-722.000004 240a2.999999 2.999999 0 0 1 3.000004 3 2.999999 2.999999 0 0 1 -3.000004 3 2.999999 2.999999 0 0 1 -3-3 2.999999 2.999999 0 0 1 3-3zm490.000004 0a2.9999955 2.9999955 0 0 1 3 3 2.9999955 2.9999955 0 0 1 -3 3 2.9999955 2.9999955 0 0 1 -3-3 2.9999955 2.9999955 0 0 1 3-3zm128 0a2.9999955 2.9999955 0 0 1 3 3 2.9999955 2.9999955 0 0 1 -3 3 2.9999955 2.9999955 0 0 1 -3-3 2.9999955 2.9999955 0 0 1 3-3zm104 0a2.9999935 2.9999935 0 0 1 3 3 2.9999935 2.9999935 0 0 1 -3 3 2.9999935 2.9999935 0 0 1 -3-3 2.9999935 2.9999935 0 0 1 3-3zm-667 55a2.9999999 2.9999999 0 0 1 3 3 2.9999999 2.9999999 0 0 1 -3 3 2.9999999 2.9999999 0 0 1 -3-3 2.9999999 2.9999999 0 0 1 3-3zm190 0a3.0000003 3.0000003 0 0 1 3 3 3.0000003 3.0000003 0 0 1 -3 3 3.0000003 3.0000003 0 0 1 -3-3 3.0000003 3.0000003 0 0 1 3-3zm190 0a3.0000007 3.0000007 0 0 1 3 3 3.0000007 3.0000007 0 0 1 -3 3 3.0000007 3.0000007 0 0 1 -3-3 3.0000007 3.0000007 0 0 1 3-3zm235 2.5a2.9999931 2.9999931 0 0 1 3 3 2.9999931 2.9999931 0 0 1 -3 3 2.9999931 2.9999931 0 0 1 -3-3 2.9999931 2.9999931 0 0 1 3-3zm-713.000004 39.5a4.0000005 4.0000005 0 0 1 4 4 4.0000005 4.0000005 0 0 1 -4 4 4.0000005 4.0000005 0 0 1 -4-4 4.0000005 4.0000005 0 0 1 4-4zm776.000004 0a3.9999895 3.9999895 0 0 1 4 4 3.9999895 3.9999895 0 0 1 -4 4 3.9999895 3.9999895 0 0 1 -4-4 3.9999895 3.9999895 0 0 1 4-4z" fill="#c5c7c4" fill-opacity=".8" stroke="#999" stroke-width=".8" transform="translate(0 -.000092)"/><path id="Top_bottom_Panel_800X500_PTBO8251" d="m0 0v581h881v-581zm55.113281 52.623047a3.999993 3.999993 0 0 1 4 4 3.999993 3.999993 0 0 1 -4 4 3.999993 3.999993 0 0 1 -4-4 3.999993 3.999993 0 0 1 4-4zm775.999999 0a3.9999885 3.9999885 0 0 1 4 4 3.9999885 3.9999885 0 0 1 -4 4 3.9999885 3.9999885 0 0 1 -4-4 3.9999885 3.9999885 0 0 1 4-4zm-63 41.5a3.0000008 3.0000008 0 0 1 3 3 3.0000008 3.0000008 0 0 1 -3 3.000003 3.0000008 3.0000008 0 0 1 -3-3.000003 3.0000008 3.0000008 0 0 1 3-3zm-615 2.5a2.9999942 2.9999942 0 0 1 3 3 2.9999942 2.9999942 0 0 1 -3 3.000003 2.9999942 2.9999942 0 0 1 -3-3.000003 2.9999942 2.9999942 0 0 1 3-3zm190 0a2.9999938 2.9999938 0 0 1 3 3 2.9999938 2.9999938 0 0 1 -3 3.000003 2.9999938 2.9999938 0 0 1 -3-3.000003 2.9999938 2.9999938 0 0 1 3-3zm190 0a2.9999934 2.9999934 0 0 1 3 3 2.9999934 2.9999934 0 0 1 -3 3.000003 2.9999934 2.9999934 0 0 1 -3-3.000003 2.9999934 2.9999934 0 0 1 3-3zm202.5 8.000003h64c6.648 0 12 5.35199 12 12v356c0 6.648-5.352 12-12 12h-64c-6.648 0-12-5.352-12-12v-356c0-6.64801 5.352-12 12-12zm-622.5 10h460v360h-460zm-14.999999 37a2.9999955 2.9999955 0 0 1 2.999999 3 2.9999955 2.9999955 0 0 1 -2.999999 3 2.9999955 2.9999955 0 0 1 -3-3 2.9999955 2.9999955 0 0 1 3-3zm489.999999 0a2.9999944 2.9999944 0 0 1 3 3 2.9999944 2.9999944 0 0 1 -3 3 2.9999944 2.9999944 0 0 1 -3-3 2.9999944 2.9999944 0 0 1 3-3zm128 0a3.0000004 3.0000004 0 0 1 3 3 3.0000004 3.0000004 0 0 1 -3 3 3.0000004 3.0000004 0 0 1 -3-3 3.0000004 3.0000004 0 0 1 3-3zm104 0a3.0000017 3.0000017 0 0 1 3 3 3.0000017 3.0000017 0 0 1 -3 3 3.0000017 3.0000017 0 0 1 -3-3 3.0000017 3.0000017 0 0 1 3-3zm-799.999999 136.5a6.4999917 6.4999917 0 0 1 6.5 6.5 6.4999917 6.4999917 0 0 1 -6.5 6.5 6.4999917 6.4999917 0 0 1 -6.5-6.5 6.4999917 6.4999917 0 0 1 6.5-6.5zm845.999999 0a6.4999829 6.4999829 0 0 1 6.5 6.5 6.4999829 6.4999829 0 0 1 -6.5 6.5 6.4999829 6.4999829 0 0 1 -6.5-6.5 6.4999829 6.4999829 0 0 1 6.5-6.5zm-767.999999 3.5a2.9999963 2.9999963 0 0 1 2.999999 3 2.9999963 2.9999963 0 0 1 -2.999999 3 2.9999963 2.9999963 0 0 1 -3-3 2.9999963 2.9999963 0 0 1 3-3zm489.999999 0a2.999994 2.999994 0 0 1 3 3 2.999994 2.999994 0 0 1 -3 3 2.999994 2.999994 0 0 1 -3-3 2.999994 2.999994 0 0 1 3-3zm128 0a3 3 0 0 1 3 3 3 3 0 0 1 -3 3 3 3 0 0 1 -3-3 3 3 0 0 1 3-3zm104 0a3.0000026 3.0000026 0 0 1 3 3 3.0000026 3.0000026 0 0 1 -3 3 3.0000026 3.0000026 0 0 1 -3-3 3.0000026 3.0000026 0 0 1 3-3zm-721.999999 140a2.9999967 2.9999967 0 0 1 2.999999 3 2.9999967 2.9999967 0 0 1 -2.999999 3 2.9999967 2.9999967 0 0 1 -3-3 2.9999967 2.9999967 0 0 1 3-3zm489.999999 0a2.9999931 2.9999931 0 0 1 3 3 2.9999931 2.9999931 0 0 1 -3 3 2.9999931 2.9999931 0 0 1 -3-3 2.9999931 2.9999931 0 0 1 3-3zm128 0a2.9999996 2.9999996 0 0 1 3 3 2.9999996 2.9999996 0 0 1 -3 3 2.9999996 2.9999996 0 0 1 -3-3 2.9999996 2.9999996 0 0 1 3-3zm104 0a3.000002 3.000002 0 0 1 3 3 3.000002 3.000002 0 0 1 -3 3 3.000002 3.000002 0 0 1 -3-3 3.000002 3.000002 0 0 1 3-3zm-667 55a2.9999979 2.9999979 0 0 1 3 3 2.9999979 2.9999979 0 0 1 -3 3 2.9999979 2.9999979 0 0 1 -3-3 2.9999979 2.9999979 0 0 1 3-3zm190 0a2.9999983 2.9999983 0 0 1 3 3 2.9999983 2.9999983 0 0 1 -3 3 2.9999983 2.9999983 0 0 1 -3-3 2.9999983 2.9999983 0 0 1 3-3zm190 0a2.9999927 2.9999927 0 0 1 3 3 2.9999927 2.9999927 0 0 1 -3 3 2.9999927 2.9999927 0 0 1 -3-3 2.9999927 2.9999927 0 0 1 3-3zm235 2.5a2.9999992 2.9999992 0 0 1 3 3 2.9999992 2.9999992 0 0 1 -3 3 2.9999992 2.9999992 0 0 1 -3-3 2.9999992 2.9999992 0 0 1 3-3zm-712.999999 39.5a3.999996 3.999996 0 0 1 4 4 3.999996 3.999996 0 0 1 -4 4 3.999996 3.999996 0 0 1 -4-4 3.999996 3.999996 0 0 1 4-4zm775.999999 0a3.9999895 3.9999895 0 0 1 4 4 3.9999895 3.9999895 0 0 1 -4 4 3.9999895 3.9999895 0 0 1 -4-4 3.9999895 3.9999895 0 0 1 4-4z" fill="#c5c7c4" fill-opacity=".8" stroke="#999" stroke-width=".8" transform="translate(0 -.000092)"/><path id="Top_bottom_Panel_800X300_PTBO8231" d="m0 0v381h881v-381zm55.847656 52.371094a4 4 0 0 1 4 4 4 4 0 0 1 -4 4 4 4 0 0 1 -4-4 4 4 0 0 1 4-4zm776.000004 0a3.9999914 3.9999914 0 0 1 4 4 3.9999914 3.9999914 0 0 1 -4 4 3.9999914 3.9999914 0 0 1 -4-4 3.9999914 3.9999914 0 0 1 4-4zm-63 41.5a2.9999965 2.9999965 0 0 1 3 3 2.9999965 2.9999965 0 0 1 -3 3 2.9999965 2.9999965 0 0 1 -3-3 2.9999965 2.9999965 0 0 1 3-3zm-615 2.5a2.9999987 2.9999987 0 0 1 3 3 2.9999987 2.9999987 0 0 1 -3 2.999996 2.9999987 2.9999987 0 0 1 -3-2.999996 2.9999987 2.9999987 0 0 1 3-3zm190 0a2.9999979 2.9999979 0 0 1 3 3 2.9999979 2.9999979 0 0 1 -3 2.999996 2.9999979 2.9999979 0 0 1 -3-2.999996 2.9999979 2.9999979 0 0 1 3-3zm190 0a2.9999971 2.9999971 0 0 1 3 3 2.9999971 2.9999971 0 0 1 -3 2.999996 2.9999971 2.9999971 0 0 1 -3-2.999996 2.9999971 2.9999971 0 0 1 3-3zm202.5 7.999996h64c6.648 0 12 5.352 12 12v156c0 6.64801-5.352 12-12 12h-64c-6.64801 0-12-5.35199-12-12v-156c0-6.648 5.35199-12 12-12zm-622.5 10h460v160h-460zm-15.000004 37a2.9999999 2.9999999 0 0 1 3.000004 3 2.9999999 2.9999999 0 0 1 -3.000004 3 2.9999999 2.9999999 0 0 1 -3-3 2.9999999 2.9999999 0 0 1 3-3zm490.000004 0a2.9999977 2.9999977 0 0 1 3 3 2.9999977 2.9999977 0 0 1 -3 3 2.9999977 2.9999977 0 0 1 -3-3 2.9999977 2.9999977 0 0 1 3-3zm128 0a2.9999973 2.9999973 0 0 1 3 3 2.9999973 2.9999973 0 0 1 -3 3 2.9999973 2.9999973 0 0 1 -3-3 2.9999973 2.9999973 0 0 1 3-3zm104 0a2.9999966 2.9999966 0 0 1 3 3 2.9999966 2.9999966 0 0 1 -3 3 2.9999966 2.9999966 0 0 1 -3-3 2.9999966 2.9999966 0 0 1 3-3zm-800.000004 36.5a6.5000022 6.5000022 0 0 1 6.5 6.5 6.5000022 6.5000022 0 0 1 -6.5 6.5 6.5000022 6.5000022 0 0 1 -6.5-6.5 6.5000022 6.5000022 0 0 1 6.5-6.5zm846.000004 0a6.4999862 6.4999862 0 0 1 6.5 6.5 6.4999862 6.4999862 0 0 1 -6.5 6.5 6.4999862 6.4999862 0 0 1 -6.5-6.5 6.4999862 6.4999862 0 0 1 6.5-6.5zm-768.000004 43.5a3.0000003 3.0000003 0 0 1 3.000004 3 3.0000003 3.0000003 0 0 1 -3.000004 3 3.0000003 3.0000003 0 0 1 -3-3 3.0000003 3.0000003 0 0 1 3-3zm490.000004 0a2.9999976 2.9999976 0 0 1 3 3 2.9999976 2.9999976 0 0 1 -3 3 2.9999976 2.9999976 0 0 1 -3-3 2.9999976 2.9999976 0 0 1 3-3zm128 0a2.9999969 2.9999969 0 0 1 3 3 2.9999969 2.9999969 0 0 1 -3 3 2.9999969 2.9999969 0 0 1 -3-3 2.9999969 2.9999969 0 0 1 3-3zm104 0a2.9999957 2.9999957 0 0 1 3 3 2.9999957 2.9999957 0 0 1 -3 3 2.9999957 2.9999957 0 0 1 -3-3 2.9999957 2.9999957 0 0 1 3-3zm-667 55a3 3 0 0 1 3 3 3 3 0 0 1 -3 3 3 3 0 0 1 -3-3 3 3 0 0 1 3-3zm190 0a2.9999992 2.9999992 0 0 1 3 3 2.9999992 2.9999992 0 0 1 -3 3 2.9999992 2.9999992 0 0 1 -3-3 2.9999992 2.9999992 0 0 1 3-3zm190 0a2.9999984 2.9999984 0 0 1 3 3 2.9999984 2.9999984 0 0 1 -3 3 2.9999984 2.9999984 0 0 1 -3-3 2.9999984 2.9999984 0 0 1 3-3zm235 2.5a2.9999953 2.9999953 0 0 1 3 3 2.9999953 2.9999953 0 0 1 -3 3 2.9999953 2.9999953 0 0 1 -3-3 2.9999953 2.9999953 0 0 1 3-3zm-713.000004 39.5a4.0000014 4.0000014 0 0 1 4 4 4.0000014 4.0000014 0 0 1 -4 4 4.0000014 4.0000014 0 0 1 -4-4 4.0000014 4.0000014 0 0 1 4-4zm776.000004 0a3.9999919 3.9999919 0 0 1 4 4 3.9999919 3.9999919 0 0 1 -4 4 3.9999919 3.9999919 0 0 1 -4-4 3.9999919 3.9999919 0 0 1 4-4z" fill="#c5c7c4" fill-opacity=".8" stroke="#999" stroke-width=".8" transform="translate(0 -.000092)"/><g id="SlotTR"><circle id="circle6651" cx="1051" cy="30" fill="#b3b3b3" r="6.25" stroke="#808080"/><path id="path6653" d="m1050.9645 32.783282a2.3509273 2.7827774 0 0 0 2.1641-1.694734h3.4317v-1.892483h-3.3475a2.3509273 2.7827774 0 0 0 -2.2483-1.979346 2.3509273 2.7827774 0 0 0 -2.2499 1.979346h-3.3459v1.892483h3.435a2.3509273 2.7827774 0 0 0 2.1608 1.694734z" fill="#999" stroke="#808080" stroke-width=".933439"/></g><g id="SlotTL"><circle id="circle4226" cx="30" cy="30" fill="#b3b3b3" r="6.25" stroke="#808080"/><path id="path4228" d="m29.606414 32.783281a2.3509277 2.7827773 0 0 0 2.164-1.694733h3.43178v-1.892483h-3.347472a2.3509277 2.7827773 0 0 0 -2.248308-1.979345 2.3509277 2.7827773 0 0 0 -2.249856 1.979345h-3.345924v1.892483h3.434905a2.3509277 2.7827773 0 0 0 2.160875 1.694733z" fill="#999" stroke="#808080" stroke-opacity=".882353" stroke-width=".933439"/></g><g id="SlotBL"><circle id="circle4232" cx="30" cy="951" fill="#b3b3b3" r="6.25" stroke="#808080"/><path id="path4234" d="m29.860853 953.77165a2.4799678 2.7711446 0 0 0 2.282781-1.68765h3.620147v-1.88457h-3.531213a2.4799678 2.7711446 0 0 0 -2.371715-1.97108 2.4799678 2.7711446 0 0 0 -2.373349 1.97108h-3.529578v1.88457h3.623444a2.4799678 2.7711446 0 0 0 2.279483 1.68765z" fill="#999" stroke="#808080" stroke-opacity=".882353" stroke-width=".956708"/></g><g id="SlotBR"><circle id="circle4616" cx="1051" cy="951" fill="#b3b3b3" r="6.25" stroke="#808080"/><path id="path4618" d="m1050.8666 953.77187a2.4774232 2.7713758 0 0 0 2.2805-1.68779h3.6164v-1.88472h-3.5276a2.4774232 2.7713758 0 0 0 -2.3693-1.97123 2.4774232 2.7713758 0 0 0 -2.3709 1.97123h-3.526v1.88472h3.6198a2.4774232 2.7713758 0 0 0 2.2771 1.68779z" fill="#999" stroke="#808080" stroke-opacity=".882353" stroke-width=".956257"/></g></svg>