<?xml version="1.0" encoding="UTF-8" standalone="no"?>
<svg
   xmlns:dc="http://purl.org/dc/elements/1.1/"
   xmlns:cc="http://creativecommons.org/ns#"
   xmlns:rdf="http://www.w3.org/1999/02/22-rdf-syntax-ns#"
   xmlns:svg="http://www.w3.org/2000/svg"
   xmlns="http://www.w3.org/2000/svg"
   xmlns:sodipodi="http://sodipodi.sourceforge.net/DTD/sodipodi-0.dtd"
   xmlns:inkscape="http://www.inkscape.org/namespaces/inkscape"
   id="svg2"
   height="1894.8"
   overflow="visible"
   viewBox="0 0 1084.8001 1894.7999"
   width="1084.8"
   version="1.1"
   inkscape:version="0.92.4 (5da689c313, 2019-01-14)"
   sodipodi:docname="PDLG1882_LH.svg"
   style="overflow:visible">
  <metadata
     id="metadata23">
    <rdf:RDF>
      <cc:Work
         rdf:about="">
        <dc:format>image/svg+xml</dc:format>
        <dc:type
           rdf:resource="http://purl.org/dc/dcmitype/StillImage" />
        <dc:title />
      </cc:Work>
    </rdf:RDF>
  </metadata>
  <defs
     id="defs21" />
  <sodipodi:namedview
     pagecolor="#ffffff"
     bordercolor="#666666"
     borderopacity="1"
     objecttolerance="10"
     gridtolerance="10"
     guidetolerance="10"
     inkscape:pageopacity="0"
     inkscape:pageshadow="2"
     inkscape:window-width="1366"
     inkscape:window-height="705"
     id="namedview19"
     showgrid="false"
     inkscape:zoom="0.1767767"
     inkscape:cx="557.45697"
     inkscape:cy="896.56356"
     inkscape:window-x="-8"
     inkscape:window-y="-8"
     inkscape:window-maximized="1"
     inkscape:current-layer="svg2"
     showguides="false"
     fit-margin-top="0"
     fit-margin-left="0"
     fit-margin-right="0"
     fit-margin-bottom="0" />
  <g
     id="PDLG1882_L">
    <path
       id="Rect1"
       d="M 0.40039062,0.40039062 V 1894.4004 H 1084.4004 V 0.40039062 Z M 306,84 H 981 V 1810 H 306 Z"
       style="fill:#575d5e;fill-opacity:0.8;stroke:#000000"
       inkscape:connector-curvature="0" />
    <g
       id="gripStrip"
       transform="matrix(1.0009618,0,0,0.86118247,-500.11627,-1.3577517)">
      <rect
         y="2"
         x="500"
         width="74.400002"
         height="2200"
         id="gripBase"
         style="fill:#c5c7c4;fill-opacity:0.82352941;fill-rule:evenodd;stroke:#000000" />
      <rect
         y="2"
         x="504.70001"
         width="41.599998"
         height="2200"
         id="gripPane"
         style="fill:#c5c7c4;fill-opacity:0.82352941;fill-rule:evenodd;stroke:#000000" />
      <g
         id="gripSwivel">
        <rect
           y="987"
           x="507.5"
           width="36"
           rx="5"
           height="230"
           id="rect4174-1"
           style="fill:#575d5e;stroke:#4d4d4d;stroke-width:0.5;stroke-linecap:round;stroke-linejoin:round" />
        <rect
           y="988.5"
           x="509"
           width="33"
           rx="3.5"
           height="227"
           id="rect4176-6"
           style="fill:none;stroke:#4d4d4d;stroke-width:0.5;stroke-linecap:round;stroke-linejoin:round" />
        <path
           d="m 516.8054,999.09998 -1.1805,4.41002 h 2.4388 v -4.41002 z m 1.4383,0 v 4.41002 h 2.4388 l -1.1804,-4.41002 z m 5.04,0 v 4.41002 h 2.61 v -4.41002 z m 2.79,0 v 4.41002 h 2.7322 a 2.7000007,2.7000007 0 0 0 -0.9343,-0.62 2.0250006,2.0250006 0 0 0 1.0373,-1.7651 2.0250006,2.0250006 0 0 0 -2.0251,-2.02492 2.0250006,2.0250006 0 0 0 -10e-5,0 z m 4.23,0 v 4.41002 h 2.61 v -4.41002 z m 2.79,0 v 4.41002 h 2.7322 a 2.7000007,2.7000007 0 0 0 -0.9343,-0.62 2.0250006,2.0250006 0 0 0 1.0373,-1.7651 2.0250006,2.0250006 0 0 0 -2.0251,-2.02492 2.0250006,2.0250006 0 0 0 -1e-4,0 z m -17.517,4.59002 -1.1805,4.41 h 2.25 l 0.4771,-1.8 h 0.9404 v -2.61 z m 2.667,0 v 2.61 h 0.9405 l 0.4769,1.8 h 2.25 l -1.1804,-4.41 z m 5.04,0 v 4.41 h 2.61 v -4.41 z m 2.79,0 v 4.41 h 0.81 a 2.7000007,2.7000007 0 0 0 10e-5,0 2.7000007,2.7000007 0 0 0 2.7,-2.7 2.7000007,2.7000007 0 0 0 -0.6151,-1.71 z m 4.23,0 v 4.41 h 2.61 v -4.41 z m 2.79,0 v 4.41 h 0.81 a 2.7000007,2.7000007 0 0 0 1e-4,0 2.7000007,2.7000007 0 0 0 2.7,-2.7 2.7000007,2.7000007 0 0 0 -0.6151,-1.71 z"
           id="path4188-4"
           inkscape:connector-curvature="0"
           style="fill:#333333" />
        <rect
           y="1019.3893"
           x="513.5"
           width="24"
           rx="4"
           height="140"
           id="gripBase-18-0"
           style="fill:#e0e0e0;fill-rule:evenodd;stroke:#1a1a1a" />
        <g
           id="g4155"
           style="stroke:#4d4d4d;stroke-width:0.5">
          <circle
             r="11.75"
             cy="1187.8893"
             cx="525.5"
             id="circle4180-3"
             style="fill:#575d5e;stroke-linecap:round;stroke-linejoin:round" />
          <circle
             r="8.6000004"
             cy="1187.8893"
             cx="525.5"
             id="circle4182-8"
             style="fill:#999999;stroke-linecap:round;stroke-linejoin:round" />
          <path
             overflow="visible"
             d="m 521.2358,1187.8893 c 0,1.9673 1.378,3.6722 3.3166,4.1094 v 4.454 h 1.8952 v -4.4558 c 1.938,-0.437 3.3138,-2.1409 3.3167,-4.1076 0,-1.9674 -1.3781,-3.6723 -3.3167,-4.1094 v -4.454 h -1.8948 v 4.4558 c -1.9379,0.4371 -3.3141,2.1409 -3.317,4.1076 z"
             id="path4679-1"
             inkscape:connector-curvature="0"
             style="overflow:visible;fill:#808080;stroke-linejoin:round" />
          <circle
             transform="rotate(-90)"
             r="1.5"
             overflow="visible"
             cy="525.50012"
             cx="-1187.8893"
             id="circle4681-9"
             style="overflow:visible;fill:#999999" />
        </g>
      </g>
    </g>
    <rect
       y="0.40039062"
       x="1042.7604"
       width="41.640011"
       height="1894.6014"
       id="gripPane-6"
       style="overflow:visible;fill:#c5c7c4;fill-opacity:0.82352941;fill-rule:evenodd;stroke:#000000;stroke-width:0.92844534" />
  </g>
</svg>
