<?xml version="1.0" encoding="UTF-8" standalone="no"?>
<svg
   xmlns:dc="http://purl.org/dc/elements/1.1/"
   xmlns:cc="http://creativecommons.org/ns#"
   xmlns:rdf="http://www.w3.org/1999/02/22-rdf-syntax-ns#"
   xmlns:svg="http://www.w3.org/2000/svg"
   xmlns="http://www.w3.org/2000/svg"
   xmlns:sodipodi="http://sodipodi.sourceforge.net/DTD/sodipodi-0.dtd"
   xmlns:inkscape="http://www.inkscape.org/namespaces/inkscape"
   id="svg2"
   height="150.8"
   overflow="visible"
   viewBox="0 0 528.95999 180.96"
   width="440.79999"
   version="1.1"
   sodipodi:docname="add3_100.svg"
   style="overflow:visible"
   inkscape:version="0.92.3 (2405546, 2018-03-11)">
  <metadata
     id="metadata8">
    <rdf:RDF>
      <cc:Work
         rdf:about="">
        <dc:format>image/svg+xml</dc:format>
        <dc:type
           rdf:resource="http://purl.org/dc/dcmitype/StillImage" />
        <dc:title></dc:title>
      </cc:Work>
    </rdf:RDF>
  </metadata>
  <defs
     id="defs6" />
  <sodipodi:namedview
     pagecolor="#ffffff"
     bordercolor="#666666"
     borderopacity="1"
     objecttolerance="10"
     gridtolerance="10"
     guidetolerance="10"
     inkscape:pageopacity="0"
     inkscape:pageshadow="2"
     inkscape:window-width="1366"
     inkscape:window-height="705"
     id="namedview4"
     showgrid="false"
     scale-x="1.2"
     inkscape:zoom="10.972887"
     inkscape:cx="114.41036"
     inkscape:cy="19.392094"
     inkscape:window-x="-8"
     inkscape:window-y="-8"
     inkscape:window-maximized="1"
     inkscape:current-layer="svg2" />
  <path
     id="path4150"
     d="m 138.95612,143.11473 c -5.04622,0 -9.78864,1.96632 -13.35607,5.53534 -0.52756,0.52777 -0.52756,1.38078 0,1.90855 0.52756,0.52778 1.3802,0.52778 1.90775,0 3.05742,-3.05873 7.1226,-4.74428 11.44832,-4.74428 4.32571,0 8.38954,1.68555 11.44831,4.74428 3.05876,3.05874 4.74226,7.12573 4.74226,11.45331 0,4.32626 -1.68485,8.39316 -4.74226,11.45326 -3.05742,3.0601 -7.12395,4.7452 -11.44831,4.7452 -4.32572,0 -8.3909,-1.6851 -11.44832,-4.7452 -4.99899,-4.99981 -6.18515,-12.57988 -2.95368,-18.8634 0.34136,-0.66408 0.079,-1.47854 -0.58344,-1.81872 -0.66384,-0.34017 -1.47568,-0.079 -1.81704,0.58372 -3.76982,7.32964 -2.38508,16.17518 3.44641,22.00787 3.56743,3.57034 8.30985,5.53534 13.35607,5.53534 5.04622,0 9.78998,-1.965 13.35606,-5.53534 3.56879,-3.56901 5.53294,-8.31567 5.53294,-13.36273 0,-5.04838 -1.96415,-9.7929 -5.53294,-13.36186 -3.56608,-3.56902 -8.30984,-5.53534 -13.35606,-5.53534 z m 0,10.79838 c -0.74479,0 -1.34922,0.60468 -1.34922,1.34981 v 5.39921 h -5.39685 c -0.7448,0 -1.35011,0.60468 -1.35011,1.3498 0,0.74513 0.60531,1.34976 1.35011,1.34976 h 5.39685 v 5.40012 c 0,0.74645 0.60443,1.34981 1.34922,1.34981 0.74479,0 1.34921,-0.60336 1.34921,-1.34981 v -5.40012 h 5.39686 c 0.74614,0 1.34921,-0.60463 1.34921,-1.34976 0,-0.74512 -0.60307,-1.3498 -1.34921,-1.3498 h -5.39686 v -5.39921 c 0,-0.74513 -0.60442,-1.34981 -1.34921,-1.34981 z"
     inkscape:connector-curvature="0"
     style="fill:#999999;stroke:#0000ff;stroke-width:0.1" />
</svg>
