<?xml version="1.0" encoding="UTF-8" standalone="no"?>
<svg
   xmlns:dc="http://purl.org/dc/elements/1.1/"
   xmlns:cc="http://creativecommons.org/ns#"
   xmlns:rdf="http://www.w3.org/1999/02/22-rdf-syntax-ns#"
   xmlns:svg="http://www.w3.org/2000/svg"
   xmlns="http://www.w3.org/2000/svg"
   xmlns:sodipodi="http://sodipodi.sourceforge.net/DTD/sodipodi-0.dtd"
   xmlns:inkscape="http://www.inkscape.org/namespaces/inkscape"
   id="svg2"
   height="220.8221"
   overflow="visible"
   viewBox="0 0 364.68409 220.8221"
   width="364.68408"
   version="1.1"
   inkscape:version="0.91 r13725"
   sodipodi:docname="TRL_Flange_RFKA15.svg"
   style="overflow:visible">
  <metadata
     id="metadata11">
    <rdf:RDF>
      <cc:Work
         rdf:about="">
        <dc:format>image/svg+xml</dc:format>
        <dc:type
           rdf:resource="http://purl.org/dc/dcmitype/StillImage" />
        <dc:title></dc:title>
      </cc:Work>
    </rdf:RDF>
  </metadata>
  <defs
     id="defs9" />
  <sodipodi:namedview
     pagecolor="#ffffff"
     bordercolor="#666666"
     borderopacity="1"
     objecttolerance="10"
     gridtolerance="10"
     guidetolerance="10"
     inkscape:pageopacity="0"
     inkscape:pageshadow="2"
     inkscape:window-width="1920"
     inkscape:window-height="1017"
     id="namedview7"
     showgrid="false"
     fit-margin-top="0"
     fit-margin-left="0"
     fit-margin-right="0"
     fit-margin-bottom="0"
     inkscape:zoom="0.7465008"
     inkscape:cx="193.28925"
     inkscape:cy="110.01105"
     inkscape:window-x="-8"
     inkscape:window-y="-8"
     inkscape:window-maximized="1"
     inkscape:current-layer="svg2" />
  <g
     id="layer1"
     transform="matrix(0.94526716,0,0,1.0001001,0.37810687,0.400037)"
     style="fill-rule:evenodd;stroke:#000000;stroke-width:0.80000001;stroke-linecap:round">
    <path
       id="rect4183"
       d="M 0,3.05e-6 0,220 385,220 385,3.05e-6 Z M 13.5,6.750003 c 1.794925,0 3.25,1.4550746 3.25,3.25 0,1.794925 -1.455075,3.25 -3.25,3.25 -1.794925,0 -3.25,-1.455075 -3.25,-3.25 0,-1.7949254 1.455075,-3.25 3.25,-3.25 z m 179,0 c 1.79493,0 3.25,1.4550746 3.25,3.25 0,1.794925 -1.45507,3.25 -3.25,3.25 -1.79493,0 -3.25,-1.455075 -3.25,-3.25 0,-1.7949254 1.45507,-3.25 3.25,-3.25 z m 179,0 c 1.79493,0 3.25,1.4550746 3.25,3.25 0,1.794925 -1.45507,3.25 -3.25,3.25 -1.79493,0 -3.25,-1.455075 -3.25,-3.25 0,-1.7949254 1.45507,-3.25 3.25,-3.25 z M 13.5,206.75 c 1.794925,0 3.25,1.45507 3.25,3.25 0,1.79493 -1.455075,3.25 -3.25,3.25 -1.794925,0 -3.25,-1.45507 -3.25,-3.25 0,-1.79493 1.455075,-3.25 3.25,-3.25 z m 179,0 c 1.79493,0 3.25,1.45507 3.25,3.25 0,1.79493 -1.45507,3.25 -3.25,3.25 -1.79493,0 -3.25,-1.45507 -3.25,-3.25 0,-1.79493 1.45507,-3.25 3.25,-3.25 z m 179,0 c 1.79493,0 3.25,1.45507 3.25,3.25 0,1.79493 -1.45507,3.25 -3.25,3.25 -1.79493,0 -3.25,-1.45507 -3.25,-3.25 0,-1.79493 1.45507,-3.25 3.25,-3.25 z"
       inkscape:connector-curvature="0"
       style="fill:#cccccc" />
    <path
       id="circle4277"
       d="M 320.5,65.000003 C 320.5,85.986823 303.48682,103 282.5,103 c -20.98682,0 -38,-17.013177 -38,-37.999997 0,-20.98682 17.01318,-38 38,-38 20.98682,0 38,17.01318 38,38 z m -90,0 C 230.5,85.986823 213.48682,103 192.5,103 c -20.98682,0 -38,-17.013177 -38,-37.999997 0,-20.98682 17.01318,-38 38,-38 20.98682,0 38,17.01318 38,38 z M 320.5,155 c 0,20.98682 -17.01318,38 -38,38 -20.98682,0 -38,-17.01318 -38,-38 0,-20.98682 17.01318,-38 38,-38 20.98682,0 38,17.01318 38,38 z m -90,0 c 0,20.98682 -17.01318,38 -38,38 -20.98682,0 -38,-17.01318 -38,-38 0,-20.98682 17.01318,-38 38,-38 20.98682,0 38,17.01318 38,38 z m -90,0 c 0,20.98682 -17.01318,38 -38,38 -20.98682,0 -38,-17.01318 -38,-38 0,-20.98682 17.01318,-38 38,-38 20.98682,0 38,17.01318 38,38 z m 0,-89.999997 C 140.5,85.986823 123.48682,103 102.5,103 c -20.98682,0 -38,-17.013177 -38,-37.999997 0,-20.98682 17.01318,-38 38,-38 20.98682,0 38,17.01318 38,38 z"
       inkscape:connector-curvature="0"
       style="fill:#6f7073" />
    <path
       id="circle4287"
       d="m 289.5,34.000003 c 0,3.865993 -3.13401,7 -7,7 -3.86599,0 -7,-3.134007 -7,-7 0,-3.865993 3.13401,-7 7,-7 3.86599,0 7,3.134007 7,7 z m 7,7 c 0,7.731986 -6.26801,14 -14,14 -7.73199,0 -14,-6.268014 -14,-14 0,-7.731986 6.26801,-14 14,-14 7.73199,0 14,6.268014 14,14 z m 7,7 c 0,11.59798 -9.40202,21 -21,21 -11.59798,0 -21,-9.40202 -21,-21 0,-11.59798 9.40202,-21 21,-21 11.59798,0 21,9.40202 21,21 z m 7,7 c 0,15.463973 -12.53603,28 -28,28 -15.46397,0 -28,-12.536027 -28,-28 0,-15.463973 12.53603,-28 28,-28 15.46397,0 28,12.536027 28,28 z m 6,6 c 0,18.777681 -15.22232,34 -34,34 -18.77768,0 -34,-15.222319 -34,-34 0,-18.777681 15.22232,-34 34,-34 18.77768,0 34,15.222319 34,34 z m -117,-27 c 0,3.865993 -3.13401,7 -7,7 -3.86599,0 -7,-3.134007 -7,-7 0,-3.865993 3.13401,-7 7,-7 3.86599,0 7,3.134007 7,7 z m 7,7 c 0,7.731986 -6.26801,14 -14,14 -7.73199,0 -14,-6.268014 -14,-14 0,-7.731986 6.26801,-14 14,-14 7.73199,0 14,6.268014 14,14 z m 7,7 c 0,11.59798 -9.40202,21 -21,21 -11.59798,0 -21,-9.40202 -21,-21 0,-11.59798 9.40202,-21 21,-21 11.59798,0 21,9.40202 21,21 z m 7,7 c 0,15.463973 -12.53603,28 -28,28 -15.46397,0 -28,-12.536027 -28,-28 0,-15.463973 12.53603,-28 28,-28 15.46397,0 28,12.536027 28,28 z m 6,6 c 0,18.777681 -15.22232,34 -34,34 -18.77768,0 -34,-15.222319 -34,-34 0,-18.777681 15.22232,-34 34,-34 18.77768,0 34,15.222319 34,34 z M 289.5,124 c 0,3.86599 -3.13401,7 -7,7 -3.86599,0 -7,-3.13401 -7,-7 0,-3.86599 3.13401,-7 7,-7 3.86599,0 7,3.13401 7,7 z m 7,7 c 0,7.73199 -6.26801,14 -14,14 -7.73199,0 -14,-6.26801 -14,-14 0,-7.73199 6.26801,-14 14,-14 7.73199,0 14,6.26801 14,14 z m 7,7 c 0,11.59798 -9.40202,21 -21,21 -11.59798,0 -21,-9.40202 -21,-21 0,-11.59798 9.40202,-21 21,-21 11.59798,0 21,9.40202 21,21 z m 7,7 c 0,15.46397 -12.53603,28 -28,28 -15.46397,0 -28,-12.53603 -28,-28 0,-15.46397 12.53603,-28 28,-28 15.46397,0 28,12.53603 28,28 z m 6,6 c 0,18.77768 -15.22232,34 -34,34 -18.77768,0 -34,-15.22232 -34,-34 0,-18.77768 15.22232,-34 34,-34 18.77768,0 34,15.22232 34,34 z m -117,-27 c 0,3.86599 -3.13401,7 -7,7 -3.86599,0 -7,-3.13401 -7,-7 0,-3.86599 3.13401,-7 7,-7 3.86599,0 7,3.13401 7,7 z m 7,7 c 0,7.73199 -6.26801,14 -14,14 -7.73199,0 -14,-6.26801 -14,-14 0,-7.73199 6.26801,-14 14,-14 7.73199,0 14,6.26801 14,14 z m 7,7 c 0,11.59798 -9.40202,21 -21,21 -11.59798,0 -21,-9.40202 -21,-21 0,-11.59798 9.40202,-21 21,-21 11.59798,0 21,9.40202 21,21 z m 7,7 c 0,15.46397 -12.53603,28 -28,28 -15.46397,0 -28,-12.53603 -28,-28 0,-15.46397 12.53603,-28 28,-28 15.46397,0 28,12.53603 28,28 z m 6,6 c 0,18.77768 -15.22232,34 -34,34 -18.77768,0 -34,-15.22232 -34,-34 0,-18.77768 15.22232,-34 34,-34 18.77768,0 34,15.22232 34,34 z m -117,-27 c 0,3.86599 -3.13401,7 -7,7 -3.865993,0 -7,-3.13401 -7,-7 0,-3.86599 3.134007,-7 7,-7 3.86599,0 7,3.13401 7,7 z m 7,7 c 0,7.73199 -6.26801,14 -14,14 -7.731986,0 -14,-6.26801 -14,-14 0,-7.73199 6.268014,-14 14,-14 7.73199,0 14,6.26801 14,14 z m 7,7 c 0,11.59798 -9.40202,21 -21,21 -11.59798,0 -21,-9.40202 -21,-21 0,-11.59798 9.40202,-21 21,-21 11.59798,0 21,9.40202 21,21 z m 7,7 c 0,15.46397 -12.53603,28 -28,28 -15.463973,0 -28,-12.53603 -28,-28 0,-15.46397 12.536027,-28 28,-28 15.46397,0 28,12.53603 28,28 z m 6,6 c 0,18.77768 -15.22232,34 -34,34 -18.777681,0 -34,-15.22232 -34,-34 0,-18.77768 15.222319,-34 34,-34 18.77768,0 34,15.22232 34,34 z m -27,-116.999997 c 0,3.865993 -3.13401,7 -7,7 -3.865993,0 -7,-3.134007 -7,-7 0,-3.865993 3.134007,-7 7,-7 3.86599,0 7,3.134007 7,7 z m 7,7 c 0,7.731986 -6.26801,14 -14,14 -7.731986,0 -14,-6.268014 -14,-14 0,-7.731986 6.268014,-14 14,-14 7.73199,0 14,6.268014 14,14 z m 7,7 c 0,11.59798 -9.40202,21 -21,21 -11.59798,0 -21,-9.40202 -21,-21 0,-11.59798 9.40202,-21 21,-21 11.59798,0 21,9.40202 21,21 z m 7,7 c 0,15.463973 -12.53603,28 -28,28 -15.463973,0 -28,-12.536027 -28,-28 0,-15.463973 12.536027,-28 28,-28 15.46397,0 28,12.536027 28,28 z m 6,6 c 0,18.777681 -15.22232,34 -34,34 -18.777681,0 -34,-15.222319 -34,-34 0,-18.777681 15.222319,-34 34,-34 18.77768,0 34,15.222319 34,34 z"
       inkscape:connector-curvature="0"
       style="fill:#77797c" />
  </g>
</svg>
