<?xml version="1.0" encoding="UTF-8" standalone="no"?>
<svg
   xmlns:dc="http://purl.org/dc/elements/1.1/"
   xmlns:cc="http://creativecommons.org/ns#"
   xmlns:rdf="http://www.w3.org/1999/02/22-rdf-syntax-ns#"
   xmlns:svg="http://www.w3.org/2000/svg"
   xmlns="http://www.w3.org/2000/svg"
   xmlns:sodipodi="http://sodipodi.sourceforge.net/DTD/sodipodi-0.dtd"
   xmlns:inkscape="http://www.inkscape.org/namespaces/inkscape"
   id="svg2"
   height="220.82228"
   overflow="visible"
   viewBox="0 0 364.65836 220.82228"
   width="364.65836"
   version="1.1"
   inkscape:version="0.91 r13725"
   sodipodi:docname="TRL_Flange_RFMA15.svg"
   style="overflow:visible">
  <metadata
     id="metadata11">
    <rdf:RDF>
      <cc:Work
         rdf:about="">
        <dc:format>image/svg+xml</dc:format>
        <dc:type
           rdf:resource="http://purl.org/dc/dcmitype/StillImage" />
        <dc:title></dc:title>
      </cc:Work>
    </rdf:RDF>
  </metadata>
  <defs
     id="defs9" />
  <sodipodi:namedview
     pagecolor="#ffffff"
     bordercolor="#666666"
     borderopacity="1"
     objecttolerance="10"
     gridtolerance="10"
     guidetolerance="10"
     inkscape:pageopacity="0"
     inkscape:pageshadow="2"
     inkscape:window-width="1920"
     inkscape:window-height="1017"
     id="namedview7"
     showgrid="false"
     fit-margin-top="0"
     fit-margin-left="0"
     fit-margin-right="0"
     fit-margin-bottom="0"
     inkscape:zoom="0.7465008"
     inkscape:cx="193.28917"
     inkscape:cy="110.01114"
     inkscape:window-x="-8"
     inkscape:window-y="-8"
     inkscape:window-maximized="1"
     inkscape:current-layer="svg2" />
  <g
     id="layer1"
     transform="matrix(0.94520049,0,0,1.0001009,0.3780802,0.40003732)"
     style="stroke:#000000;stroke-width:0.80000001;stroke-linecap:round">
    <path
       id="rect4205"
       d="m 0,110 385,0 0,107.5 -385,0 z M 0,2.000003 l 385,0 0,107.499997 -385,0 z"
       inkscape:connector-curvature="0"
       style="fill:#808080;fill-rule:evenodd" />
    <path
       id="rect4207"
       d="m 42.5,3.05e-6 0,19.99999995 300,0 0,-19.99999995 z M 86,6.750003 c 1.794925,0 3.25,1.4550746 3.25,3.25 0,1.794925 -1.455075,3.25 -3.25,3.25 -1.794925,0 -3.25,-1.455075 -3.25,-3.25 0,-1.7949254 1.455075,-3.25 3.25,-3.25 z m 213,0 c 1.79493,0 3.25,1.4550746 3.25,3.25 0,1.794925 -1.45507,3.25 -3.25,3.25 -1.79493,0 -3.25,-1.455075 -3.25,-3.25 0,-1.7949254 1.45507,-3.25 3.25,-3.25 z M 42.5,200 l 0,20 300,0 0,-20 z m 43.5,6.75 c 1.794925,0 3.25,1.45507 3.25,3.25 0,1.79493 -1.455075,3.25 -3.25,3.25 -1.794925,0 -3.25,-1.45507 -3.25,-3.25 0,-1.79493 1.455075,-3.25 3.25,-3.25 z m 213,0 c 1.79493,0 3.25,1.45507 3.25,3.25 0,1.79493 -1.45507,3.25 -3.25,3.25 -1.79493,0 -3.25,-1.45507 -3.25,-3.25 0,-1.79493 1.45507,-3.25 3.25,-3.25 z"
       inkscape:connector-curvature="0"
       style="fill:#ececec;fill-rule:evenodd" />
    <path
       id="circle4279"
       d="m 324.5,110 c 0,6.62742 -5.37258,12 -12,12 -6.62742,0 -12,-5.37258 -12,-12 0,-6.62742 5.37258,-11.999997 12,-11.999997 6.62742,0 12,5.372577 12,11.999997 z m 5.5,0 c 0,9.66498 -7.83502,17.5 -17.5,17.5 -9.66498,0 -17.5,-7.83502 -17.5,-17.5 0,-9.66498 7.83502,-17.499997 17.5,-17.499997 9.66498,0 17.5,7.835017 17.5,17.499997 z m 7,0 c 0,13.53098 -10.96902,24.5 -24.5,24.5 -13.53098,0 -24.5,-10.96902 -24.5,-24.5 0,-13.530973 10.96902,-24.499997 24.5,-24.499997 13.53098,0 24.5,10.969024 24.5,24.499997 z m 6.5,0 c 0,17.12083 -13.87917,31 -31,31 -17.12083,0 -31,-13.87917 -31,-31 0,-17.120824 13.87917,-30.999997 31,-30.999997 17.12083,0 31,13.879173 31,30.999997 z m -179,0 c 0,6.62742 -5.37258,12 -12,12 -6.62742,0 -12,-5.37258 -12,-12 0,-6.62742 5.37258,-11.999997 12,-11.999997 6.62742,0 12,5.372577 12,11.999997 z m 5.5,0 c 0,9.66498 -7.83502,17.5 -17.5,17.5 -9.66498,0 -17.5,-7.83502 -17.5,-17.5 0,-9.66498 7.83502,-17.499997 17.5,-17.499997 9.66498,0 17.5,7.835017 17.5,17.499997 z m 7,0 c 0,13.53098 -10.96902,24.5 -24.5,24.5 -13.53098,0 -24.5,-10.96902 -24.5,-24.5 0,-13.530973 10.96902,-24.499997 24.5,-24.499997 13.53098,0 24.5,10.969024 24.5,24.499997 z m 6.5,0 c 0,17.12083 -13.87917,31 -31,31 -17.12083,0 -31,-13.87917 -31,-31 0,-17.120824 13.87917,-30.999997 31,-30.999997 17.12083,0 31,13.879173 31,30.999997 z m 61,0 c 0,6.62742 -5.37258,12 -12,12 -6.62742,0 -12,-5.37258 -12,-12 0,-6.62742 5.37258,-11.999997 12,-11.999997 6.62742,0 12,5.372577 12,11.999997 z m 5.5,0 c 0,9.66498 -7.83502,17.5 -17.5,17.5 -9.66498,0 -17.5,-7.83502 -17.5,-17.5 0,-9.66498 7.83502,-17.499997 17.5,-17.499997 9.66498,0 17.5,7.835017 17.5,17.499997 z m 7,0 c 0,13.53098 -10.96902,24.5 -24.5,24.5 -13.53098,0 -24.5,-10.96902 -24.5,-24.5 0,-13.530973 10.96902,-24.499997 24.5,-24.499997 13.53098,0 24.5,10.969024 24.5,24.499997 z m 6.5,0 c 0,17.12083 -13.87917,31 -31,31 -17.12083,0 -31,-13.87917 -31,-31 0,-17.120824 13.87917,-30.999997 31,-30.999997 17.12083,0 31,13.879173 31,30.999997 z m -179,0 c 0,6.62742 -5.372583,12 -12,12 -6.627417,0 -12,-5.37258 -12,-12 0,-6.62742 5.372583,-11.999997 12,-11.999997 6.627417,0 12,5.372577 12,11.999997 z m 5.5,0 c 0,9.66498 -7.835017,17.5 -17.5,17.5 -9.664983,0 -17.5,-7.83502 -17.5,-17.5 0,-9.66498 7.835017,-17.499997 17.5,-17.499997 9.664983,0 17.5,7.835017 17.5,17.499997 z m 7,0 C 97,123.53098 86.030976,134.5 72.5,134.5 58.969024,134.5 48,123.53098 48,110 48,96.469027 58.969024,85.500003 72.5,85.500003 86.030976,85.500003 97,96.469027 97,110 Z m 6.5,0 c 0,17.12083 -13.879173,31 -31,31 -17.120827,0 -31,-13.87917 -31,-31 0,-17.120824 13.879173,-30.999997 31,-30.999997 17.120827,0 31,13.879173 31,30.999997 z"
       inkscape:connector-curvature="0"
       style="fill:none" />
  </g>
</svg>
